<svg id="6233a347-d4a1-4a6d-9e6e-8999866169d2" data-name="Layer 1" xmlns="http://www.w3.org/2000/svg" width="221.6" height="79.39" viewBox="0 0 221.6 79.39"><defs><style>.b3530a5e-bc85-48f4-a908-244d7f39225a{fill:#900000;}.\39 528e15d-8504-47e3-9f2d-966494c4e249{fill:#fff;}.\36 4f7e2a7-fed9-4a6a-a21f-f802acbff92e{fill:#f1b82d;}</style></defs><title>health-wordmark-medium</title><path d="M1.68,3.37a8,8,0,0,0,.27-1.54c0-.27-0.17-0.52-1.44-0.56C0.26,1.27.26,1.19,0.26,1s0.08-.23.15-0.23S2.16,0.84,2.82.84C4,0.84,5.09.77,5.43,0.77c0.12,0,.14.15,0.14,0.29a0.26,0.26,0,0,1-.21.27,2.62,2.62,0,0,0-1.23.23,4.46,4.46,0,0,0-.65,1.93C2.53,7.56,2,9.68,2,10.91,2,13.57,4.34,13.8,5.2,13.8c1.91,0,4-1.06,5-4.6,1.29-4.85,1.44-5.95,1.44-6.78a1,1,0,0,0-1-1,5.23,5.23,0,0,0-.9-0.14,0.29,0.29,0,0,1-.12-0.23A0.28,0.28,0,0,1,9.84.77c0.21,0,1.5.08,1.87,0.08,0.64,0,2.39-.08,2.75-0.08,0.08,0,.14.1,0.14,0.25a0.27,0.27,0,0,1-.17.21l-0.67.1a1.74,1.74,0,0,0-1.37,1.48C11.75,4.87,11,9.47,10,11.53c-1.1,2.21-2.81,3.12-5.37,3.12S0.2,13.44.2,10.93C0.2,9.45.95,7,1.68,3.37Z" transform="translate(-0.2 -0.31)"/><path d="M18,14.5c-0.12,0-.13,0-0.13-0.15,0-.71,2.54-6.16,2.54-7.16a0.51,0.51,0,0,0-.5-0.56c-1.27,0-2.21,2.14-4.06,5.3-0.1.17-.33,0.75-1,2.41a0.21,0.21,0,0,1-.21.17H13.44a0.13,0.13,0,0,1-.15-0.15c0-.31,2.62-7,2.62-7.53a0.19,0.19,0,0,0-.15-0.23c-1.48,0-2.31,1.93-2.31,2.33a0.18,0.18,0,0,1-.17.1,0.16,0.16,0,0,1-.17-0.17c0-.46.64-2.81,2.72-2.81h1.42a0.16,0.16,0,0,1,.19.17c0,0.23-1.42,3.72-1.42,4.33,0,0.1,0,.14.06,0.14s0.13-.1.52-0.79c2.08-3.75,2.66-4,3.75-4,0.54,0,1.54.08,1.54,1,0,1.58-2.35,6-2.35,6.76a0.23,0.23,0,0,0,.19.15c0.91,0,1.94-2,2.16-2a0.25,0.25,0,0,1,.19.17c0,0.25-1.5,2.6-3.08,2.6H18Z" transform="translate(-0.2 -0.31)"/><path d="M23.88,8.37a0.22,0.22,0,0,1-.14-0.21c0-.19,1.7-2.29,3.14-2.29a0.56,0.56,0,0,1,.6.56c0,0.81-2.45,6.49-2.45,6.82,0,0.13,0,.23.14,0.23,0.46,0,1.79-1.39,1.89-1.39a0.17,0.17,0,0,1,.21.19c0,0.1-2,2.54-3.39,2.45A0.6,0.6,0,0,1,23.32,14c0-.54,2.54-6.57,2.54-6.66S25.86,7,25.71,7c-0.5,0-1.21.85-1.68,1.27A0.37,0.37,0,0,1,23.88,8.37Zm3.5-7.16a0.91,0.91,0,0,1,.92.92,0.92,0.92,0,1,1-1.85,0A0.91,0.91,0,0,1,27.39,1.21Z" transform="translate(-0.2 -0.31)"/><path d="M32.33,5.95a1.52,1.52,0,0,0,.27,0,1.9,1.9,0,0,1,.37,0,0.22,0.22,0,0,1,.21.21C33.18,7,31,9.22,31,11.72c0,0.81.31,1.85,1.31,1.85,2.08,0,3.64-3.64,3.64-5.39C36,7.41,35,7.41,35,6.72a0.92,0.92,0,0,1,.87-1c0.83,0,1,.56,1,1.31,0,1.81-2,7.7-5.45,7.7a1.81,1.81,0,0,1-1.77-2.08c0-2.21,2.54-5.2,2.54-5.41s0-.13-0.35-0.13h-2c-0.5,0-.79.79-0.92,1.23a0.19,0.19,0,0,1-.23.17,0.23,0.23,0,0,1-.21-0.15c0-.23.64-2.41,0.94-2.41h2.95Z" transform="translate(-0.2 -0.31)"/><path d="M43.95,7.35c0,0.92-.81,2.43-4.43,3.12a10.34,10.34,0,0,0-.23,1.58c0,0.81.29,1.62,1.23,1.62s2-1.46,2.1-1.46a0.23,0.23,0,0,1,.23.25c0,0.15-1.5,2.27-3.14,2.27-1.46,0-1.85-1.17-1.85-2.43C37.86,8.66,40.23,6,42.35,6A1.35,1.35,0,0,1,43.95,7.35Zm-1.31,0A0.72,0.72,0,0,0,42,6.52c-1,0-1.89,1.42-2.44,3.47C42,9.7,42.64,8,42.64,7.33Z" transform="translate(-0.2 -0.31)"/><path d="M44.95,14.5a0.13,0.13,0,0,1-.13-0.12c0-.37,2.62-7.59,2.62-7.7S47.33,6.45,47,6.45c-1.12,0-1.93,2.66-2.14,2.66S44.7,9.07,44.7,9a2.87,2.87,0,0,1,2.85-3h1c0.21,0,.33.08,0.33,0.15s-1.56,4.58-1.56,4.76a0.13,0.13,0,0,0,.1.13,4.48,4.48,0,0,0,.87-1.39C49.78,7,50.65,5.87,51.78,5.87a1,1,0,0,1,1,1,1,1,0,0,1-1,1c-0.94,0-.89-0.62-1.35-0.62a2.18,2.18,0,0,0-.83.85,32.08,32.08,0,0,0-3.39,6.24,0.24,0.24,0,0,1-.23.19H44.95Z" transform="translate(-0.2 -0.31)"/><path d="M52.05,12.82c1,0,.83,1.27,1.81,1.27a1.26,1.26,0,0,0,1.06-1.23A7.84,7.84,0,0,0,54,10.43a5.1,5.1,0,0,1-.75-2.14,2.57,2.57,0,0,1,2.79-2.35c0.9,0,1.87.29,1.87,1.17a0.81,0.81,0,0,1-.83.73c-0.89,0-.81-1.35-1.71-1.35a0.94,0.94,0,0,0-1,.94,6.56,6.56,0,0,0,.85,2.16,6,6,0,0,1,.87,2.54c0,1.48-1.94,2.58-3.27,2.58a1.3,1.3,0,0,1-1.48-1.19A0.76,0.76,0,0,1,52.05,12.82Z" transform="translate(-0.2 -0.31)"/><path d="M58.69,8.37a0.22,0.22,0,0,1-.14-0.21c0-.19,1.7-2.29,3.14-2.29a0.56,0.56,0,0,1,.6.56c0,0.81-2.45,6.49-2.45,6.82,0,0.13,0,.23.14,0.23,0.46,0,1.79-1.39,1.89-1.39a0.17,0.17,0,0,1,.21.19c0,0.1-2,2.54-3.39,2.45A0.6,0.6,0,0,1,58.14,14c0-.54,2.54-6.57,2.54-6.66S60.68,7,60.52,7c-0.5,0-1.21.85-1.68,1.27A0.37,0.37,0,0,1,58.69,8.37Zm3.5-7.16a0.91,0.91,0,0,1,.92.92,0.92,0.92,0,1,1-1.85,0A0.91,0.91,0,0,1,62.2,1.21Z" transform="translate(-0.2 -0.31)"/><path d="M64,7.24c-0.17,0-.23,0-0.23-0.13a0.9,0.9,0,0,1,.46-0.67h1.54a0.32,0.32,0,0,0,.21,0,15.65,15.65,0,0,0,.67-2,0.22,0.22,0,0,1,.23-0.14h0.89a0.14,0.14,0,0,1,.17.17c0,0.1-.52,1.62-0.52,1.83a0.16,0.16,0,0,0,.19.15h1.66c0.14,0,.19,0,0.19.23a0.87,0.87,0,0,1-.39.64c-0.33,0-.64,0-0.92,0l-0.87,0a0.85,0.85,0,0,0-.39.69c-0.15.54-1.66,5.62-1.66,5.68a0.27,0.27,0,0,0,.27.33c0.77,0,2.54-1.83,2.64-1.83a0.15,0.15,0,0,1,.17.15,5.61,5.61,0,0,1-4,2.46A0.61,0.61,0,0,1,63.7,14c0-.27,1.94-6.41,1.94-6.64s-0.1-.14-0.29-0.14H64Z" transform="translate(-0.2 -0.31)"/><path d="M75.33,6.37A0.33,0.33,0,0,1,75.66,6a0.86,0.86,0,0,1,.92.6c0,0.79-2.35,6.93-4.53,10.15-1.17,1.73-2.14,2.93-4.27,2.93-0.67,0-1.14-.19-1.14-0.85a0.85,0.85,0,0,1,.81-0.73c0.77,0,.69.73,1.89,0.73C70,18.85,72,17.08,72,13.26c0-1.23-.42-6-1.39-6s-0.85,2.2-1.15,2.2-0.27-.14-0.27-0.42c0-.73.79-3,2.16-3,1.71,0,1.94,6.18,1.94,6.66a3.56,3.56,0,0,0,0,.94,7.64,7.64,0,0,0,.89-2A25.5,25.5,0,0,0,75.33,6.37Z" transform="translate(-0.2 -0.31)"/><path d="M84.55,14.73c-1.68,0-2.19-1.81-2.19-2.93,0-2.66,1.69-5.85,4-5.85,1.54,0,2.33,1.16,2.33,2.93C88.65,11.43,87,14.73,84.55,14.73Zm1.83-8.28c-1.25,0-2.77,3.95-2.77,5.74,0,0.71,0,2,1,2s2.75-3.77,2.75-5.74C87.4,7.06,87.17,6.45,86.38,6.45Z" transform="translate(-0.2 -0.31)"/><path d="M90,7.16c-0.12,0-.17,0-0.17-0.08A0.65,0.65,0,0,1,90,6.58c1.93-.15,2-0.15,2.1-0.48A24.29,24.29,0,0,1,93,3.19,4.87,4.87,0,0,1,97.36.31c0.56,0,1.64.29,1.64,1a0.84,0.84,0,0,1-.87,1c-1.27,0-.79-1.35-1.77-1.35-0.4,0-1.66,0-2.5,4.16-0.1.48-.29,1.08-0.29,1.23s0.08,0.1.13,0.1h2.06c0.12,0,.15,0,0.15.12a1.09,1.09,0,0,1-.21.62H93.6c-0.21,0-.29.13-0.35,0.4-1.91,8.67-2.39,10.15-3.64,11.21a3.57,3.57,0,0,1-2.23.92,1,1,0,0,1-1.21-.85,0.74,0.74,0,0,1,.73-0.69c0.71,0,1.15.69,1.66,0.69,0.35,0,.77-0.33,1.17-2.16,1.48-6.68,2.08-9.13,2.08-9.34a0.19,0.19,0,0,0-.17-0.19H90Z" transform="translate(-0.2 -0.31)"/><path d="M102.21,13.15c0,0.73.33,0.79,1.27,0.87a0.44,0.44,0,0,1,.39.12c0,0.15,0,.4-0.21.4s-0.37,0-2.66,0c-1.14,0-1.29,0-1.52,0s-0.1-.08-0.1-0.17a0.28,0.28,0,0,1,.19-0.31,3.3,3.3,0,0,0,1.1-.23c0.42-.17.92-1,1.31-2.48,0.75-2.75,2.19-7.3,2.46-8.24,0-.14.31-0.94,0.31-1.06a0.6,0.6,0,0,0-.58-0.52l-1.48-.29A0.2,0.2,0,0,1,102.5,1a0.19,0.19,0,0,1,.21-0.21c0.23,0,1.41.08,2,.08,0.29,0,1.64-.08,1.93-0.08a0.26,0.26,0,0,1,.27.19C107.64,4.89,108,9,108.2,10.39c0.1,0.9.15,1,.23,1a0.51,0.51,0,0,0,.27-0.23c1.41-2,5.66-8.55,6.87-10.11A0.53,0.53,0,0,1,116,.77c0.12,0,1.25.08,1.52,0.08s1.23-.08,1.79-0.08c0.12,0,.12.06,0.12,0.21s0,0.31-.19.33A8.06,8.06,0,0,0,118,1.5a1.63,1.63,0,0,0-.77,1.37c-1.21,6-2.16,9.61-2.16,10.34a0.66,0.66,0,0,0,.73.71l1,0.12c0.1,0,.15,0,0.15.19a0.35,0.35,0,0,1-.21.31c-0.23,0-.35,0-1.77,0-2.6,0-3.1,0-3.43,0-0.17,0-.21-0.08-0.21-0.17s0-.27.4-0.33l0.89-.14a0.65,0.65,0,0,0,.56-0.5c0.9-3.37,1.79-8.22,2.54-10.8A4.6,4.6,0,0,0,115.84,2a0.08,0.08,0,0,0-.1-0.1,6,6,0,0,0-.71.85c-2.85,4-5.83,8.78-7.55,11.55a0.79,0.79,0,0,1-.4.42c-0.06,0-.15,0-0.23-0.73-0.52-5.51-1.23-10.67-1.41-11.17a0.17,0.17,0,0,0-.15-0.15c-0.1,0-.15.08-0.83,2.16C102.58,10.61,102.21,12.86,102.21,13.15Z" transform="translate(-0.2 -0.31)"/><path d="M119.29,8.37a0.22,0.22,0,0,1-.14-0.21c0-.19,1.7-2.29,3.14-2.29a0.56,0.56,0,0,1,.6.56c0,0.81-2.45,6.49-2.45,6.82,0,0.13,0,.23.14,0.23,0.46,0,1.79-1.39,1.89-1.39a0.17,0.17,0,0,1,.21.19c0,0.1-2,2.54-3.39,2.45a0.6,0.6,0,0,1-.56-0.77c0-.54,2.54-6.57,2.54-6.66s0-.29-0.15-0.29c-0.5,0-1.21.85-1.68,1.27A0.37,0.37,0,0,1,119.29,8.37Zm3.5-7.16a0.91,0.91,0,0,1,.92.92,0.92,0.92,0,1,1-1.85,0A0.91,0.91,0,0,1,122.79,1.21Z" transform="translate(-0.2 -0.31)"/><path d="M123.7,12.82c1,0,.83,1.27,1.81,1.27a1.26,1.26,0,0,0,1.06-1.23,7.84,7.84,0,0,0-.89-2.43,5.1,5.1,0,0,1-.75-2.14,2.57,2.57,0,0,1,2.79-2.35c0.9,0,1.87.29,1.87,1.17a0.81,0.81,0,0,1-.83.73c-0.89,0-.81-1.35-1.71-1.35a0.94,0.94,0,0,0-1,.94,6.56,6.56,0,0,0,.85,2.16,6,6,0,0,1,.87,2.54c0,1.48-1.94,2.58-3.27,2.58A1.3,1.3,0,0,1,123,13.53,0.76,0.76,0,0,1,123.7,12.82Z" transform="translate(-0.2 -0.31)"/><path d="M129.4,12.82c1,0,.83,1.27,1.81,1.27a1.26,1.26,0,0,0,1.06-1.23,7.84,7.84,0,0,0-.89-2.43,5.11,5.11,0,0,1-.75-2.14,2.57,2.57,0,0,1,2.79-2.35c0.9,0,1.87.29,1.87,1.17a0.81,0.81,0,0,1-.83.73c-0.89,0-.81-1.35-1.71-1.35a0.94,0.94,0,0,0-1,.94,6.56,6.56,0,0,0,.85,2.16,6,6,0,0,1,.87,2.54c0,1.48-1.94,2.58-3.27,2.58a1.3,1.3,0,0,1-1.48-1.19A0.76,0.76,0,0,1,129.4,12.82Z" transform="translate(-0.2 -0.31)"/><path d="M137.66,14.73c-1.68,0-2.19-1.81-2.19-2.93,0-2.66,1.69-5.85,4-5.85,1.54,0,2.33,1.16,2.33,2.93C141.76,11.43,140.12,14.73,137.66,14.73Zm1.83-8.28c-1.25,0-2.77,3.95-2.77,5.74,0,0.71,0,2,1,2s2.75-3.77,2.75-5.74C140.51,7.06,140.28,6.45,139.49,6.45Z" transform="translate(-0.2 -0.31)"/><path d="M148,14.5a0.2,0.2,0,0,1-.25-0.19c0-.35,1.08-3.49,1.08-3.7a0.1,0.1,0,0,0-.06-0.12,32.46,32.46,0,0,1-2.95,3.58,2.6,2.6,0,0,1-1.75.65c-0.46,0-.81-0.31-0.81-1.16s2.52-6.43,2.52-7.09a0.23,0.23,0,0,0-.23-0.21,3.7,3.7,0,0,0-2.35,2.64C143.18,9,143.13,9,143,9a0.19,0.19,0,0,1-.15-0.23,4.23,4.23,0,0,1,1.6-2.46,4.6,4.6,0,0,1,2.7-.58,0.32,0.32,0,0,1,.35.33c0,0.37-2.75,6.41-2.75,7.3a0.38,0.38,0,0,0,.37.39c0.65,0,1.33-.64,2.79-2.7a10.4,10.4,0,0,0,1.35-2.21c0.89-2.41.85-2.95,1.14-2.95h1.14a0.23,0.23,0,0,1,.25.13c0,0.33-2.43,7-2.43,7.41a0.22,0.22,0,0,0,.15.25c0.89,0,2.08-2.21,2.16-2.21s0.27,0,.27.15c0,0.39-1.54,2.89-3.18,2.89H148Z" transform="translate(-0.2 -0.31)"/><path d="M153.08,14.5a0.13,0.13,0,0,1-.13-0.12c0-.37,2.62-7.59,2.62-7.7s-0.1-.23-0.39-0.23c-1.12,0-1.93,2.66-2.14,2.66s-0.21,0-.21-0.14a2.87,2.87,0,0,1,2.85-3h1c0.21,0,.33.08,0.33,0.15s-1.56,4.58-1.56,4.76a0.13,0.13,0,0,0,.1.13,4.48,4.48,0,0,0,.87-1.39c1.52-2.62,2.39-3.74,3.52-3.74a1,1,0,0,1,1,1,1,1,0,0,1-1,1c-0.94,0-.89-0.62-1.35-0.62a2.18,2.18,0,0,0-.83.85,32.08,32.08,0,0,0-3.39,6.24,0.24,0.24,0,0,1-.23.19h-1.06Z" transform="translate(-0.2 -0.31)"/><path d="M161.36,8.37a0.22,0.22,0,0,1-.13-0.21c0-.19,1.69-2.29,3.14-2.29a0.56,0.56,0,0,1,.6.56c0,0.81-2.44,6.49-2.44,6.82,0,0.13,0,.23.13,0.23,0.46,0,1.79-1.39,1.89-1.39a0.17,0.17,0,0,1,.21.19c0,0.1-2,2.54-3.39,2.45A0.6,0.6,0,0,1,160.8,14c0-.54,2.54-6.57,2.54-6.66s0-.29-0.15-0.29c-0.5,0-1.21.85-1.68,1.27A0.37,0.37,0,0,1,161.36,8.37Zm3.5-7.16a0.91,0.91,0,0,1,.92.92,0.92,0.92,0,1,1-1.85,0A0.91,0.91,0,0,1,164.86,1.21Z" transform="translate(-0.2 -0.31)"/><path d="M182.12,7c0.29,0,.29,0,0.37-0.37a46,46,0,0,0,1.12-4.68c0-.21,0-0.62-1.27-0.62-0.46,0-.48-0.17-0.48-0.27a0.25,0.25,0,0,1,.23-0.29c0.23,0,.75.08,2.48,0.08A23.39,23.39,0,0,0,187,.77c0.17,0,.21,0,0.21.12s0,0.44-.73.44a1,1,0,0,0-1.1,1c-2.41,9.42-2.62,10.49-2.62,11s0.4,0.65,1.62.65c0.17,0,.19.06,0.19,0.13s0,0.37-.27.37-0.27,0-2.19,0c-2.46,0-2.81,0-3,0a0.15,0.15,0,0,1-.15-0.17,0.28,0.28,0,0,1,.17-0.33c1.43,0,1.58-.25,1.85-1.35,1.06-4.35,1.23-4.85,1.23-4.91s-0.19-.15-0.39-0.15h-6.08a0.3,0.3,0,0,0-.35.29c-1,4.45-1.19,5.28-1.19,5.47,0,0.39.27,0.65,1.66,0.65,0.12,0,.19,0,0.19.25s0,0.25-.27.25-0.54,0-2.73,0c-1.75,0-2.14,0-2.41,0s-0.19,0-.19-0.15c0-.29.06-0.31,0.46-0.35,1.12-.1,1.23-0.1,1.5-1.21,2.1-8.43,2.6-10,2.6-10.84,0-.54-0.35-0.65-1.31-0.65-0.35,0-.41-0.1-0.41-0.23a0.36,0.36,0,0,1,.19-0.33c0.37,0,1.6.08,2.6,0.08s2.1-.08,2.37-0.08c0.12,0,.15,0,0.15.29a0.22,0.22,0,0,1-.27.27,1.23,1.23,0,0,0-1.48.89c-0.19.67-1.17,4.27-1.17,4.62C175.69,7,175.82,7,176,7h6.16Z" transform="translate(-0.2 -0.31)"/><path d="M192.71,7.35c0,0.92-.81,2.43-4.43,3.12a10.53,10.53,0,0,0-.23,1.58c0,0.81.29,1.62,1.23,1.62s2-1.46,2.1-1.46a0.23,0.23,0,0,1,.23.25c0,0.15-1.5,2.27-3.14,2.27-1.46,0-1.85-1.17-1.85-2.43C186.62,8.66,189,6,191.11,6A1.35,1.35,0,0,1,192.71,7.35Zm-1.31,0a0.72,0.72,0,0,0-.62-0.81c-1,0-1.89,1.42-2.45,3.47C190.74,9.7,191.4,8,191.4,7.33Z" transform="translate(-0.2 -0.31)"/><path d="M201.45,5.72a0.09,0.09,0,0,1,.12.12c0,0.42-2.72,6.7-2.72,7.36a0.21,0.21,0,0,0,.19.25c0.56,0,1.89-2.06,2.12-2.06a0.19,0.19,0,0,1,.17.15c0,0.15-2.18,3.2-3.52,3.2a0.5,0.5,0,0,1-.6-0.44,30.58,30.58,0,0,1,1.21-3.41,0.08,0.08,0,0,0-.08-0.1,4.23,4.23,0,0,0-.77,1c-1,1.31-2.33,2.91-3.75,2.91a0.76,0.76,0,0,1-.77-1c0-1.5,1.81-5.2,3.54-6.82a3.07,3.07,0,0,1,2.35-1,1,1,0,0,1,.87.27,1.25,1.25,0,0,0,.23.27c0.15,0,.25-0.77.48-0.77h0.92Zm-2,1.43c0-.4-0.12-0.69-0.79-0.69-1.94,0-3.91,5.3-3.91,6.72,0,0.31.12,0.48,0.29,0.48C196.31,13.65,199.41,8.76,199.41,7.14Z" transform="translate(-0.2 -0.31)"/><path d="M206.07,2c0-.5-0.27-0.52-0.65-0.52s-0.6,0-.6-0.29,0.23-.29.6-0.33c1.17-.12,2-0.27,2.16-0.27s0.29,0,.29.17c0,0.75-3.77,11.44-3.77,11.86a0.29,0.29,0,0,0,.33.33c0.42,0,1.83-1.81,2.06-1.81s0.17,0.08.17,0.25-2.58,3.35-3.83,3.35a0.61,0.61,0,0,1-.65-0.65C202.16,13.53,206.07,2.17,206.07,2Z" transform="translate(-0.2 -0.31)"/><path d="M208,7.24c-0.17,0-.23,0-0.23-0.13a0.9,0.9,0,0,1,.46-0.67h1.54a0.32,0.32,0,0,0,.21,0,15.46,15.46,0,0,0,.67-2,0.22,0.22,0,0,1,.23-0.14h0.89a0.14,0.14,0,0,1,.17.17c0,0.1-.52,1.62-0.52,1.83a0.16,0.16,0,0,0,.19.15h1.65c0.14,0,.19,0,0.19.23a0.87,0.87,0,0,1-.38.64c-0.33,0-.64,0-0.93,0l-0.87,0a0.85,0.85,0,0,0-.38.69c-0.15.54-1.66,5.62-1.66,5.68a0.27,0.27,0,0,0,.27.33c0.77,0,2.54-1.83,2.64-1.83a0.15,0.15,0,0,1,.17.15,5.61,5.61,0,0,1-4,2.46,0.61,0.61,0,0,1-.64-0.71c0-.27,1.94-6.41,1.94-6.64s-0.1-.14-0.29-0.14H208Z" transform="translate(-0.2 -0.31)"/><path d="M213.62,14.5a0.24,0.24,0,0,1-.25-0.29c0-.19,3.72-12.09,3.72-12.23,0-.5-0.27-0.52-0.65-0.52s-0.6,0-.6-0.29,0.23-.29.6-0.33c1.17-.12,2-0.27,2.16-0.27s0.29,0,.29.17S216.49,8.91,216.49,9a0.07,0.07,0,0,0,.06.08,0.38,0.38,0,0,0,.17-0.21C218.34,6.66,219.78,6,220.53,6a1.18,1.18,0,0,1,1.27,1.29c0,2.56-2.41,7.41-4.56,7.41a0.7,0.7,0,0,1-.81-0.77,0.93,0.93,0,0,1,.81-0.94c0.65,0,.46.71,1,0.71,1,0,2.08-4.53,2.08-5.41a0.92,0.92,0,0,0-.85-1.14c-0.56,0-1.69.87-3,2.83-0.85,1.27-.89,2.1-1.64,4.22a0.29,0.29,0,0,1-.23.27h-0.94Z" transform="translate(-0.2 -0.31)"/><path class="b3530a5e-bc85-48f4-a908-244d7f39225a" d="M1.68,23.37a8,8,0,0,0,.27-1.54c0-.27-0.17-0.52-1.44-0.56-0.25,0-.25-0.08-0.25-0.27s0.08-.23.15-0.23,1.75,0.08,2.41.08c1.16,0,2.27-.08,2.62-0.08,0.12,0,.14.15,0.14,0.29a0.26,0.26,0,0,1-.21.27,2.62,2.62,0,0,0-1.23.23,4.46,4.46,0,0,0-.65,1.93C2.53,27.56,2,29.68,2,30.91,2,33.57,4.34,33.8,5.2,33.8c1.91,0,4-1.06,5-4.6,1.29-4.85,1.44-5.95,1.44-6.78a1,1,0,0,0-1-1,5.23,5.23,0,0,0-.9-0.14,0.29,0.29,0,0,1-.12-0.23,0.28,0.28,0,0,1,.25-0.29c0.21,0,1.5.08,1.87,0.08,0.64,0,2.39-.08,2.75-0.08,0.08,0,.14.1,0.14,0.25a0.27,0.27,0,0,1-.17.21l-0.67.1a1.74,1.74,0,0,0-1.37,1.48C11.75,24.87,11,29.47,10,31.53c-1.1,2.21-2.81,3.12-5.37,3.12S0.2,33.44.2,30.93C0.2,29.45.95,27,1.68,23.37Z" transform="translate(-0.2 -0.31)"/><path class="b3530a5e-bc85-48f4-a908-244d7f39225a" d="M18,34.5c-0.12,0-.13,0-0.13-0.15,0-.71,2.54-6.16,2.54-7.16a0.51,0.51,0,0,0-.5-0.56c-1.27,0-2.21,2.14-4.06,5.3-0.1.17-.33,0.75-1,2.41a0.21,0.21,0,0,1-.21.17H13.44a0.13,0.13,0,0,1-.15-0.15c0-.31,2.62-7,2.62-7.53a0.19,0.19,0,0,0-.15-0.23c-1.48,0-2.31,1.93-2.31,2.33a0.18,0.18,0,0,1-.17.1,0.16,0.16,0,0,1-.17-0.17c0-.46.64-2.81,2.72-2.81h1.42a0.16,0.16,0,0,1,.19.17c0,0.23-1.42,3.72-1.42,4.33,0,0.1,0,.14.06,0.14s0.13-.1.52-0.79c2.08-3.75,2.66-4,3.75-4,0.54,0,1.54.08,1.54,1,0,1.58-2.35,6-2.35,6.76a0.23,0.23,0,0,0,.19.15c0.91,0,1.94-2,2.16-2a0.25,0.25,0,0,1,.19.17c0,0.25-1.5,2.6-3.08,2.6H18Z" transform="translate(-0.2 -0.31)"/><path class="b3530a5e-bc85-48f4-a908-244d7f39225a" d="M23.88,28.37a0.22,0.22,0,0,1-.14-0.21c0-.19,1.7-2.29,3.14-2.29a0.56,0.56,0,0,1,.6.56c0,0.81-2.45,6.49-2.45,6.82,0,0.13,0,.23.14,0.23,0.46,0,1.79-1.39,1.89-1.39a0.17,0.17,0,0,1,.21.19c0,0.1-2,2.54-3.39,2.45A0.6,0.6,0,0,1,23.32,34c0-.54,2.54-6.57,2.54-6.66s0-.29-0.15-0.29c-0.5,0-1.21.85-1.68,1.27A0.37,0.37,0,0,1,23.88,28.37Zm3.5-7.16a0.92,0.92,0,1,1-.92.92A0.91,0.91,0,0,1,27.39,21.21Z" transform="translate(-0.2 -0.31)"/><path class="b3530a5e-bc85-48f4-a908-244d7f39225a" d="M32.33,25.95a1.52,1.52,0,0,0,.27,0,1.9,1.9,0,0,1,.37,0,0.22,0.22,0,0,1,.21.21c0,0.9-2.18,3.14-2.18,5.64,0,0.81.31,1.85,1.31,1.85,2.08,0,3.64-3.64,3.64-5.39,0-.77-0.92-0.77-0.92-1.46a0.92,0.92,0,0,1,.87-1c0.83,0,1,.56,1,1.31,0,1.81-2,7.7-5.45,7.7a1.81,1.81,0,0,1-1.77-2.08c0-2.21,2.54-5.2,2.54-5.41s0-.13-0.35-0.13h-2c-0.5,0-.79.79-0.92,1.23a0.19,0.19,0,0,1-.23.17,0.23,0.23,0,0,1-.21-0.15c0-.23.64-2.41,0.94-2.41h2.95Z" transform="translate(-0.2 -0.31)"/><path class="b3530a5e-bc85-48f4-a908-244d7f39225a" d="M43.95,27.35c0,0.92-.81,2.43-4.43,3.12a10.34,10.34,0,0,0-.23,1.58c0,0.81.29,1.62,1.23,1.62s2-1.46,2.1-1.46a0.23,0.23,0,0,1,.23.25c0,0.15-1.5,2.27-3.14,2.27-1.46,0-1.85-1.17-1.85-2.43,0-3.64,2.37-6.28,4.49-6.28A1.35,1.35,0,0,1,43.95,27.35Zm-1.31,0A0.72,0.72,0,0,0,42,26.52c-1,0-1.89,1.42-2.44,3.47C42,29.7,42.64,28,42.64,27.33Z" transform="translate(-0.2 -0.31)"/><path class="b3530a5e-bc85-48f4-a908-244d7f39225a" d="M44.95,34.5a0.13,0.13,0,0,1-.13-0.12c0-.37,2.62-7.59,2.62-7.7s-0.1-.23-0.39-0.23c-1.12,0-1.93,2.66-2.14,2.66s-0.21,0-.21-0.14a2.87,2.87,0,0,1,2.85-3h1c0.21,0,.33.08,0.33,0.15s-1.56,4.58-1.56,4.76a0.13,0.13,0,0,0,.1.13,4.48,4.48,0,0,0,.87-1.39c1.52-2.62,2.39-3.74,3.52-3.74a1,1,0,0,1,1,1,1,1,0,0,1-1,1c-0.94,0-.89-0.62-1.35-0.62a2.18,2.18,0,0,0-.83.85,32.08,32.08,0,0,0-3.39,6.24,0.24,0.24,0,0,1-.23.19H44.95Z" transform="translate(-0.2 -0.31)"/><path class="b3530a5e-bc85-48f4-a908-244d7f39225a" d="M52.05,32.82c1,0,.83,1.27,1.81,1.27a1.26,1.26,0,0,0,1.06-1.23A7.84,7.84,0,0,0,54,30.43a5.1,5.1,0,0,1-.75-2.14,2.57,2.57,0,0,1,2.79-2.35c0.9,0,1.87.29,1.87,1.17a0.81,0.81,0,0,1-.83.73c-0.89,0-.81-1.35-1.71-1.35a0.94,0.94,0,0,0-1,.94,6.56,6.56,0,0,0,.85,2.16,6,6,0,0,1,.87,2.54c0,1.48-1.94,2.58-3.27,2.58a1.3,1.3,0,0,1-1.48-1.19A0.76,0.76,0,0,1,52.05,32.82Z" transform="translate(-0.2 -0.31)"/><path class="b3530a5e-bc85-48f4-a908-244d7f39225a" d="M58.69,28.37a0.22,0.22,0,0,1-.14-0.21c0-.19,1.7-2.29,3.14-2.29a0.56,0.56,0,0,1,.6.56c0,0.81-2.45,6.49-2.45,6.82,0,0.13,0,.23.14,0.23,0.46,0,1.79-1.39,1.89-1.39a0.17,0.17,0,0,1,.21.19c0,0.1-2,2.54-3.39,2.45A0.6,0.6,0,0,1,58.14,34c0-.54,2.54-6.57,2.54-6.66s0-.29-0.15-0.29c-0.5,0-1.21.85-1.68,1.27A0.37,0.37,0,0,1,58.69,28.37Zm3.5-7.16a0.92,0.92,0,1,1-.92.92A0.91,0.91,0,0,1,62.2,21.21Z" transform="translate(-0.2 -0.31)"/><path class="b3530a5e-bc85-48f4-a908-244d7f39225a" d="M64,27.24c-0.17,0-.23,0-0.23-0.13a0.9,0.9,0,0,1,.46-0.67h1.54a0.32,0.32,0,0,0,.21,0,15.65,15.65,0,0,0,.67-2,0.22,0.22,0,0,1,.23-0.14h0.89a0.14,0.14,0,0,1,.17.17c0,0.1-.52,1.62-0.52,1.83a0.16,0.16,0,0,0,.19.15h1.66c0.14,0,.19,0,0.19.23a0.87,0.87,0,0,1-.39.64c-0.33,0-.64,0-0.92,0l-0.87,0a0.85,0.85,0,0,0-.39.69c-0.15.54-1.66,5.62-1.66,5.68a0.27,0.27,0,0,0,.27.33c0.77,0,2.54-1.83,2.64-1.83a0.15,0.15,0,0,1,.17.15,5.61,5.61,0,0,1-4,2.46A0.61,0.61,0,0,1,63.7,34c0-.27,1.94-6.41,1.94-6.64s-0.1-.14-0.29-0.14H64Z" transform="translate(-0.2 -0.31)"/><path class="b3530a5e-bc85-48f4-a908-244d7f39225a" d="M75.33,26.37A0.33,0.33,0,0,1,75.66,26a0.86,0.86,0,0,1,.92.6c0,0.79-2.35,6.93-4.53,10.15-1.17,1.73-2.14,2.93-4.27,2.93-0.67,0-1.14-.19-1.14-0.85a0.85,0.85,0,0,1,.81-0.73c0.77,0,.69.73,1.89,0.73C70,38.85,72,37.08,72,33.26c0-1.23-.42-6-1.39-6s-0.85,2.2-1.15,2.2-0.27-.14-0.27-0.42c0-.73.79-3,2.16-3,1.71,0,1.94,6.18,1.94,6.66a3.56,3.56,0,0,0,0,.94,7.64,7.64,0,0,0,.89-2A25.5,25.5,0,0,0,75.33,26.37Z" transform="translate(-0.2 -0.31)"/><path class="b3530a5e-bc85-48f4-a908-244d7f39225a" d="M84.55,34.73c-1.68,0-2.19-1.81-2.19-2.93,0-2.66,1.69-5.85,4-5.85,1.54,0,2.33,1.16,2.33,2.93C88.65,31.43,87,34.73,84.55,34.73Zm1.83-8.28c-1.25,0-2.77,3.95-2.77,5.74,0,0.71,0,2,1,2s2.75-3.77,2.75-5.74C87.4,27.06,87.17,26.45,86.38,26.45Z" transform="translate(-0.2 -0.31)"/><path class="b3530a5e-bc85-48f4-a908-244d7f39225a" d="M90,27.16c-0.12,0-.17,0-0.17-0.08a0.65,0.65,0,0,1,.19-0.5c1.93-.15,2-0.15,2.1-0.48A24.29,24.29,0,0,1,93,23.19a4.87,4.87,0,0,1,4.33-2.89c0.56,0,1.64.29,1.64,1a0.84,0.84,0,0,1-.87,1c-1.27,0-.79-1.35-1.77-1.35-0.4,0-1.66,0-2.5,4.16-0.1.48-.29,1.08-0.29,1.23s0.08,0.1.13,0.1h2.06c0.12,0,.15,0,0.15.12a1.09,1.09,0,0,1-.21.62H93.6c-0.21,0-.29.13-0.35,0.4-1.91,8.67-2.39,10.15-3.64,11.21a3.57,3.57,0,0,1-2.23.92,1,1,0,0,1-1.21-.85,0.74,0.74,0,0,1,.73-0.69c0.71,0,1.15.69,1.66,0.69,0.35,0,.77-0.33,1.17-2.16,1.48-6.68,2.08-9.13,2.08-9.34a0.19,0.19,0,0,0-.17-0.19H90Z" transform="translate(-0.2 -0.31)"/><path class="b3530a5e-bc85-48f4-a908-244d7f39225a" d="M102.21,33.15c0,0.73.33,0.79,1.27,0.87a0.44,0.44,0,0,1,.39.12c0,0.15,0,.4-0.21.4s-0.37,0-2.66,0c-1.14,0-1.29,0-1.52,0s-0.1-.08-0.1-0.17a0.28,0.28,0,0,1,.19-0.31,3.3,3.3,0,0,0,1.1-.23c0.42-.17.92-1,1.31-2.48,0.75-2.75,2.19-7.3,2.46-8.24,0-.14.31-0.94,0.31-1.06a0.6,0.6,0,0,0-.58-0.52l-1.48-.29A0.2,0.2,0,0,1,102.5,21a0.19,0.19,0,0,1,.21-0.21c0.23,0,1.41.08,2,.08,0.29,0,1.64-.08,1.93-0.08a0.26,0.26,0,0,1,.27.19c0.73,3.93,1.14,8.07,1.29,9.44,0.1,0.9.15,1,.23,1a0.51,0.51,0,0,0,.27-0.23c1.41-2,5.66-8.55,6.87-10.11a0.53,0.53,0,0,1,.39-0.29c0.12,0,1.25.08,1.52,0.08s1.23-.08,1.79-0.08c0.12,0,.12.06,0.12,0.21s0,0.31-.19.33a8.06,8.06,0,0,0-1.16.19,1.63,1.63,0,0,0-.77,1.37c-1.21,6-2.16,9.61-2.16,10.34a0.66,0.66,0,0,0,.73.71l1,0.12c0.1,0,.15,0,0.15.19a0.35,0.35,0,0,1-.21.31c-0.23,0-.35,0-1.77,0-2.6,0-3.1,0-3.43,0-0.17,0-.21-0.08-0.21-0.17s0-.27.4-0.33l0.89-.14a0.65,0.65,0,0,0,.56-0.5c0.9-3.37,1.79-8.22,2.54-10.8a4.6,4.6,0,0,0,.12-0.64,0.08,0.08,0,0,0-.1-0.1,6,6,0,0,0-.71.85c-2.85,4-5.83,8.78-7.55,11.55a0.79,0.79,0,0,1-.4.42c-0.06,0-.15,0-0.23-0.73-0.52-5.51-1.23-10.67-1.41-11.17a0.17,0.17,0,0,0-.15-0.15c-0.1,0-.15.08-0.83,2.16C102.58,30.61,102.21,32.86,102.21,33.15Z" transform="translate(-0.2 -0.31)"/><path class="b3530a5e-bc85-48f4-a908-244d7f39225a" d="M119.29,28.37a0.22,0.22,0,0,1-.14-0.21c0-.19,1.7-2.29,3.14-2.29a0.56,0.56,0,0,1,.6.56c0,0.81-2.45,6.49-2.45,6.82,0,0.13,0,.23.14,0.23,0.46,0,1.79-1.39,1.89-1.39a0.17,0.17,0,0,1,.21.19c0,0.1-2,2.54-3.39,2.45a0.6,0.6,0,0,1-.56-0.77c0-.54,2.54-6.57,2.54-6.66s0-.29-0.15-0.29c-0.5,0-1.21.85-1.68,1.27A0.37,0.37,0,0,1,119.29,28.37Zm3.5-7.16a0.92,0.92,0,1,1-.92.92A0.91,0.91,0,0,1,122.79,21.21Z" transform="translate(-0.2 -0.31)"/><path class="b3530a5e-bc85-48f4-a908-244d7f39225a" d="M123.7,32.82c1,0,.83,1.27,1.81,1.27a1.26,1.26,0,0,0,1.06-1.23,7.84,7.84,0,0,0-.89-2.43,5.1,5.1,0,0,1-.75-2.14,2.57,2.57,0,0,1,2.79-2.35c0.9,0,1.87.29,1.87,1.17a0.81,0.81,0,0,1-.83.73c-0.89,0-.81-1.35-1.71-1.35a0.94,0.94,0,0,0-1,.94,6.56,6.56,0,0,0,.85,2.16,6,6,0,0,1,.87,2.54c0,1.48-1.94,2.58-3.27,2.58A1.3,1.3,0,0,1,123,33.53,0.76,0.76,0,0,1,123.7,32.82Z" transform="translate(-0.2 -0.31)"/><path class="b3530a5e-bc85-48f4-a908-244d7f39225a" d="M129.4,32.82c1,0,.83,1.27,1.81,1.27a1.26,1.26,0,0,0,1.06-1.23,7.84,7.84,0,0,0-.89-2.43,5.11,5.11,0,0,1-.75-2.14,2.57,2.57,0,0,1,2.79-2.35c0.9,0,1.87.29,1.87,1.17a0.81,0.81,0,0,1-.83.73c-0.89,0-.81-1.35-1.71-1.35a0.94,0.94,0,0,0-1,.94,6.56,6.56,0,0,0,.85,2.16,6,6,0,0,1,.87,2.54c0,1.48-1.94,2.58-3.27,2.58a1.3,1.3,0,0,1-1.48-1.19A0.76,0.76,0,0,1,129.4,32.82Z" transform="translate(-0.2 -0.31)"/><path class="b3530a5e-bc85-48f4-a908-244d7f39225a" d="M137.66,34.73c-1.68,0-2.19-1.81-2.19-2.93,0-2.66,1.69-5.85,4-5.85,1.54,0,2.33,1.16,2.33,2.93C141.76,31.43,140.12,34.73,137.66,34.73Zm1.83-8.28c-1.25,0-2.77,3.95-2.77,5.74,0,0.71,0,2,1,2s2.75-3.77,2.75-5.74C140.51,27.06,140.28,26.45,139.49,26.45Z" transform="translate(-0.2 -0.31)"/><path class="b3530a5e-bc85-48f4-a908-244d7f39225a" d="M148,34.5a0.2,0.2,0,0,1-.25-0.19c0-.35,1.08-3.49,1.08-3.7a0.1,0.1,0,0,0-.06-0.12,32.46,32.46,0,0,1-2.95,3.58,2.6,2.6,0,0,1-1.75.65c-0.46,0-.81-0.31-0.81-1.16s2.52-6.43,2.52-7.09a0.23,0.23,0,0,0-.23-0.21,3.7,3.7,0,0,0-2.35,2.64c0,0.08-.08.08-0.17,0.08a0.19,0.19,0,0,1-.15-0.23,4.23,4.23,0,0,1,1.6-2.46,4.6,4.6,0,0,1,2.7-.58,0.32,0.32,0,0,1,.35.33c0,0.37-2.75,6.41-2.75,7.3a0.38,0.38,0,0,0,.37.39c0.65,0,1.33-.64,2.79-2.7a10.4,10.4,0,0,0,1.35-2.21c0.89-2.41.85-2.95,1.14-2.95h1.14a0.23,0.23,0,0,1,.25.13c0,0.33-2.43,7-2.43,7.41a0.22,0.22,0,0,0,.15.25c0.89,0,2.08-2.21,2.16-2.21s0.27,0,.27.15c0,0.39-1.54,2.89-3.18,2.89H148Z" transform="translate(-0.2 -0.31)"/><path class="b3530a5e-bc85-48f4-a908-244d7f39225a" d="M153.08,34.5a0.13,0.13,0,0,1-.13-0.12c0-.37,2.62-7.59,2.62-7.7s-0.1-.23-0.39-0.23c-1.12,0-1.93,2.66-2.14,2.66s-0.21,0-.21-0.14a2.87,2.87,0,0,1,2.85-3h1c0.21,0,.33.08,0.33,0.15s-1.56,4.58-1.56,4.76a0.13,0.13,0,0,0,.1.13,4.48,4.48,0,0,0,.87-1.39c1.52-2.62,2.39-3.74,3.52-3.74a1,1,0,0,1,1,1,1,1,0,0,1-1,1c-0.94,0-.89-0.62-1.35-0.62a2.18,2.18,0,0,0-.83.85,32.08,32.08,0,0,0-3.39,6.24,0.24,0.24,0,0,1-.23.19h-1.06Z" transform="translate(-0.2 -0.31)"/><path class="b3530a5e-bc85-48f4-a908-244d7f39225a" d="M161.36,28.37a0.22,0.22,0,0,1-.13-0.21c0-.19,1.69-2.29,3.14-2.29a0.56,0.56,0,0,1,.6.56c0,0.81-2.44,6.49-2.44,6.82,0,0.13,0,.23.13,0.23,0.46,0,1.79-1.39,1.89-1.39a0.17,0.17,0,0,1,.21.19c0,0.1-2,2.54-3.39,2.45A0.6,0.6,0,0,1,160.8,34c0-.54,2.54-6.57,2.54-6.66s0-.29-0.15-0.29c-0.5,0-1.21.85-1.68,1.27A0.37,0.37,0,0,1,161.36,28.37Zm3.5-7.16a0.92,0.92,0,1,1-.92.92A0.91,0.91,0,0,1,164.86,21.21Z" transform="translate(-0.2 -0.31)"/><path class="b3530a5e-bc85-48f4-a908-244d7f39225a" d="M182.12,27c0.29,0,.29,0,0.37-0.37a46,46,0,0,0,1.12-4.68c0-.21,0-0.62-1.27-0.62-0.46,0-.48-0.17-0.48-0.27a0.25,0.25,0,0,1,.23-0.29c0.23,0,.75.08,2.48,0.08a23.39,23.39,0,0,0,2.41-.08c0.17,0,.21,0,0.21.12s0,0.44-.73.44a1,1,0,0,0-1.1,1c-2.41,9.42-2.62,10.49-2.62,11s0.4,0.65,1.62.65c0.17,0,.19.06,0.19,0.13s0,0.37-.27.37-0.27,0-2.19,0c-2.46,0-2.81,0-3,0a0.15,0.15,0,0,1-.15-0.17,0.28,0.28,0,0,1,.17-0.33c1.43,0,1.58-.25,1.85-1.35,1.06-4.35,1.23-4.85,1.23-4.91s-0.19-.15-0.39-0.15h-6.08a0.3,0.3,0,0,0-.35.29c-1,4.45-1.19,5.28-1.19,5.47,0,0.39.27,0.65,1.66,0.65,0.12,0,.19,0,0.19.25s0,0.25-.27.25-0.54,0-2.73,0c-1.75,0-2.14,0-2.41,0s-0.19,0-.19-0.15c0-.29.06-0.31,0.46-0.35,1.12-.1,1.23-0.1,1.5-1.21,2.1-8.43,2.6-10,2.6-10.84,0-.54-0.35-0.65-1.31-0.65-0.35,0-.41-0.1-0.41-0.23a0.36,0.36,0,0,1,.19-0.33c0.37,0,1.6.08,2.6,0.08s2.1-.08,2.37-0.08c0.12,0,.15,0,0.15.29a0.22,0.22,0,0,1-.27.27,1.23,1.23,0,0,0-1.48.89c-0.19.67-1.17,4.27-1.17,4.62,0,0.15.13,0.15,0.27,0.15h6.16Z" transform="translate(-0.2 -0.31)"/><path class="b3530a5e-bc85-48f4-a908-244d7f39225a" d="M192.71,27.35c0,0.92-.81,2.43-4.43,3.12a10.53,10.53,0,0,0-.23,1.58c0,0.81.29,1.62,1.23,1.62s2-1.46,2.1-1.46a0.23,0.23,0,0,1,.23.25c0,0.15-1.5,2.27-3.14,2.27-1.46,0-1.85-1.17-1.85-2.43,0-3.64,2.37-6.28,4.49-6.28A1.35,1.35,0,0,1,192.71,27.35Zm-1.31,0a0.72,0.72,0,0,0-.62-0.81c-1,0-1.89,1.42-2.45,3.47C190.74,29.7,191.4,28,191.4,27.33Z" transform="translate(-0.2 -0.31)"/><path class="b3530a5e-bc85-48f4-a908-244d7f39225a" d="M201.45,25.72a0.09,0.09,0,0,1,.12.12c0,0.42-2.72,6.7-2.72,7.36a0.21,0.21,0,0,0,.19.25c0.56,0,1.89-2.06,2.12-2.06a0.19,0.19,0,0,1,.17.15c0,0.15-2.18,3.2-3.52,3.2a0.5,0.5,0,0,1-.6-0.44,30.58,30.58,0,0,1,1.21-3.41,0.08,0.08,0,0,0-.08-0.1,4.23,4.23,0,0,0-.77,1c-1,1.31-2.33,2.91-3.75,2.91a0.76,0.76,0,0,1-.77-1c0-1.5,1.81-5.2,3.54-6.82a3.07,3.07,0,0,1,2.35-1,1,1,0,0,1,.87.27,1.25,1.25,0,0,0,.23.27c0.15,0,.25-0.77.48-0.77h0.92Zm-2,1.43c0-.4-0.12-0.69-0.79-0.69-1.94,0-3.91,5.3-3.91,6.72,0,0.31.12,0.48,0.29,0.48C196.31,33.65,199.41,28.76,199.41,27.14Z" transform="translate(-0.2 -0.31)"/><path class="b3530a5e-bc85-48f4-a908-244d7f39225a" d="M206.07,22c0-.5-0.27-0.52-0.65-0.52s-0.6,0-.6-0.29,0.23-.29.6-0.33c1.17-.12,2-0.27,2.16-0.27s0.29,0,.29.17c0,0.75-3.77,11.44-3.77,11.86a0.29,0.29,0,0,0,.33.33c0.42,0,1.83-1.81,2.06-1.81s0.17,0.08.17,0.25-2.58,3.35-3.83,3.35a0.61,0.61,0,0,1-.65-0.65C202.16,33.53,206.07,22.17,206.07,22Z" transform="translate(-0.2 -0.31)"/><path class="b3530a5e-bc85-48f4-a908-244d7f39225a" d="M208,27.24c-0.17,0-.23,0-0.23-0.13a0.9,0.9,0,0,1,.46-0.67h1.54a0.32,0.32,0,0,0,.21,0,15.46,15.46,0,0,0,.67-2,0.22,0.22,0,0,1,.23-0.14h0.89a0.14,0.14,0,0,1,.17.17c0,0.1-.52,1.62-0.52,1.83a0.16,0.16,0,0,0,.19.15h1.65c0.14,0,.19,0,0.19.23a0.87,0.87,0,0,1-.38.64c-0.33,0-.64,0-0.93,0l-0.87,0a0.85,0.85,0,0,0-.38.69c-0.15.54-1.66,5.62-1.66,5.68a0.27,0.27,0,0,0,.27.33c0.77,0,2.54-1.83,2.64-1.83a0.15,0.15,0,0,1,.17.15,5.61,5.61,0,0,1-4,2.46,0.61,0.61,0,0,1-.64-0.71c0-.27,1.94-6.41,1.94-6.64s-0.1-.14-0.29-0.14H208Z" transform="translate(-0.2 -0.31)"/><path class="b3530a5e-bc85-48f4-a908-244d7f39225a" d="M213.62,34.5a0.24,0.24,0,0,1-.25-0.29c0-.19,3.72-12.09,3.72-12.23,0-.5-0.27-0.52-0.65-0.52s-0.6,0-.6-0.29,0.23-.29.6-0.33c1.17-.12,2-0.27,2.16-0.27s0.29,0,.29.17-2.39,8.16-2.39,8.28a0.07,0.07,0,0,0,.06.08,0.38,0.38,0,0,0,.17-0.21c1.62-2.23,3.06-2.87,3.81-2.87a1.18,1.18,0,0,1,1.27,1.29c0,2.56-2.41,7.41-4.56,7.41a0.7,0.7,0,0,1-.81-0.77,0.93,0.93,0,0,1,.81-0.94c0.65,0,.46.71,1,0.71,1,0,2.08-4.53,2.08-5.41a0.92,0.92,0,0,0-.85-1.14c-0.56,0-1.69.87-3,2.83-0.85,1.27-.89,2.1-1.64,4.22a0.29,0.29,0,0,1-.23.27h-0.94Z" transform="translate(-0.2 -0.31)"/><path class="9528e15d-8504-47e3-9f2d-966494c4e249" d="M1.68,43.37a8,8,0,0,0,.27-1.54c0-.27-0.17-0.52-1.44-0.56-0.25,0-.25-0.08-0.25-0.27s0.08-.23.15-0.23,1.75,0.08,2.41.08c1.16,0,2.27-.08,2.62-0.08,0.12,0,.14.15,0.14,0.29a0.26,0.26,0,0,1-.21.27,2.62,2.62,0,0,0-1.23.23,4.46,4.46,0,0,0-.65,1.93C2.53,47.56,2,49.68,2,50.91,2,53.57,4.34,53.8,5.2,53.8c1.91,0,4-1.06,5-4.6,1.29-4.85,1.44-5.95,1.44-6.78a1,1,0,0,0-1-1,5.23,5.23,0,0,0-.9-0.14,0.29,0.29,0,0,1-.12-0.23,0.28,0.28,0,0,1,.25-0.29c0.21,0,1.5.08,1.87,0.08,0.64,0,2.39-.08,2.75-0.08,0.08,0,.14.1,0.14,0.25a0.27,0.27,0,0,1-.17.21l-0.67.1a1.74,1.74,0,0,0-1.37,1.48C11.75,44.87,11,49.47,10,51.53c-1.1,2.21-2.81,3.12-5.37,3.12S0.2,53.44.2,50.93C0.2,49.45.95,47,1.68,43.37Z" transform="translate(-0.2 -0.31)"/><path class="9528e15d-8504-47e3-9f2d-966494c4e249" d="M18,54.5c-0.12,0-.13,0-0.13-0.15,0-.71,2.54-6.16,2.54-7.16a0.51,0.51,0,0,0-.5-0.56c-1.27,0-2.21,2.14-4.06,5.3-0.1.17-.33,0.75-1,2.41a0.21,0.21,0,0,1-.21.17H13.44a0.13,0.13,0,0,1-.15-0.15c0-.31,2.62-7,2.62-7.53a0.19,0.19,0,0,0-.15-0.23c-1.48,0-2.31,1.93-2.31,2.33a0.18,0.18,0,0,1-.17.1,0.16,0.16,0,0,1-.17-0.17c0-.46.64-2.81,2.72-2.81h1.42a0.16,0.16,0,0,1,.19.17c0,0.23-1.42,3.72-1.42,4.33,0,0.1,0,.14.06,0.14s0.13-.1.52-0.79c2.08-3.75,2.66-4,3.75-4,0.54,0,1.54.08,1.54,1,0,1.58-2.35,6-2.35,6.76a0.23,0.23,0,0,0,.19.15c0.91,0,1.94-2,2.16-2a0.25,0.25,0,0,1,.19.17c0,0.25-1.5,2.6-3.08,2.6H18Z" transform="translate(-0.2 -0.31)"/><path class="9528e15d-8504-47e3-9f2d-966494c4e249" d="M23.88,48.37a0.22,0.22,0,0,1-.14-0.21c0-.19,1.7-2.29,3.14-2.29a0.56,0.56,0,0,1,.6.56c0,0.81-2.45,6.49-2.45,6.82,0,0.13,0,.23.14,0.23,0.46,0,1.79-1.39,1.89-1.39a0.17,0.17,0,0,1,.21.19c0,0.1-2,2.54-3.39,2.45A0.6,0.6,0,0,1,23.32,54c0-.54,2.54-6.57,2.54-6.66s0-.29-0.15-0.29c-0.5,0-1.21.85-1.68,1.27A0.37,0.37,0,0,1,23.88,48.37Zm3.5-7.16a0.92,0.92,0,1,1-.92.92A0.91,0.91,0,0,1,27.39,41.21Z" transform="translate(-0.2 -0.31)"/><path class="9528e15d-8504-47e3-9f2d-966494c4e249" d="M32.33,45.95a1.52,1.52,0,0,0,.27,0,1.9,1.9,0,0,1,.37,0,0.22,0.22,0,0,1,.21.21c0,0.9-2.18,3.14-2.18,5.64,0,0.81.31,1.85,1.31,1.85,2.08,0,3.64-3.64,3.64-5.39,0-.77-0.92-0.77-0.92-1.46a0.92,0.92,0,0,1,.87-1c0.83,0,1,.56,1,1.31,0,1.81-2,7.7-5.45,7.7a1.81,1.81,0,0,1-1.77-2.08c0-2.21,2.54-5.2,2.54-5.41s0-.13-0.35-0.13h-2c-0.5,0-.79.79-0.92,1.23a0.19,0.19,0,0,1-.23.17,0.23,0.23,0,0,1-.21-0.15c0-.23.64-2.41,0.94-2.41h2.95Z" transform="translate(-0.2 -0.31)"/><path class="9528e15d-8504-47e3-9f2d-966494c4e249" d="M43.95,47.35c0,0.92-.81,2.43-4.43,3.12a10.34,10.34,0,0,0-.23,1.58c0,0.81.29,1.62,1.23,1.62s2-1.46,2.1-1.46a0.23,0.23,0,0,1,.23.25c0,0.15-1.5,2.27-3.14,2.27-1.46,0-1.85-1.17-1.85-2.43,0-3.64,2.37-6.28,4.49-6.28A1.35,1.35,0,0,1,43.95,47.35Zm-1.31,0A0.72,0.72,0,0,0,42,46.52c-1,0-1.89,1.42-2.44,3.47C42,49.7,42.64,48,42.64,47.33Z" transform="translate(-0.2 -0.31)"/><path class="9528e15d-8504-47e3-9f2d-966494c4e249" d="M44.95,54.5a0.13,0.13,0,0,1-.13-0.12c0-.37,2.62-7.59,2.62-7.7s-0.1-.23-0.39-0.23c-1.12,0-1.93,2.66-2.14,2.66s-0.21,0-.21-0.14a2.87,2.87,0,0,1,2.85-3h1c0.21,0,.33.08,0.33,0.15s-1.56,4.58-1.56,4.76a0.13,0.13,0,0,0,.1.13,4.48,4.48,0,0,0,.87-1.39c1.52-2.62,2.39-3.74,3.52-3.74a1,1,0,0,1,1,1,1,1,0,0,1-1,1c-0.94,0-.89-0.62-1.35-0.62a2.18,2.18,0,0,0-.83.85,32.08,32.08,0,0,0-3.39,6.24,0.24,0.24,0,0,1-.23.19H44.95Z" transform="translate(-0.2 -0.31)"/><path class="9528e15d-8504-47e3-9f2d-966494c4e249" d="M52.05,52.82c1,0,.83,1.27,1.81,1.27a1.26,1.26,0,0,0,1.06-1.23A7.84,7.84,0,0,0,54,50.43a5.1,5.1,0,0,1-.75-2.14,2.57,2.57,0,0,1,2.79-2.35c0.9,0,1.87.29,1.87,1.17a0.81,0.81,0,0,1-.83.73c-0.89,0-.81-1.35-1.71-1.35a0.94,0.94,0,0,0-1,.94,6.56,6.56,0,0,0,.85,2.16,6,6,0,0,1,.87,2.54c0,1.48-1.94,2.58-3.27,2.58a1.3,1.3,0,0,1-1.48-1.19A0.76,0.76,0,0,1,52.05,52.82Z" transform="translate(-0.2 -0.31)"/><path class="9528e15d-8504-47e3-9f2d-966494c4e249" d="M58.69,48.37a0.22,0.22,0,0,1-.14-0.21c0-.19,1.7-2.29,3.14-2.29a0.56,0.56,0,0,1,.6.56c0,0.81-2.45,6.49-2.45,6.82,0,0.13,0,.23.14,0.23,0.46,0,1.79-1.39,1.89-1.39a0.17,0.17,0,0,1,.21.19c0,0.1-2,2.54-3.39,2.45A0.6,0.6,0,0,1,58.14,54c0-.54,2.54-6.57,2.54-6.66s0-.29-0.15-0.29c-0.5,0-1.21.85-1.68,1.27A0.37,0.37,0,0,1,58.69,48.37Zm3.5-7.16a0.92,0.92,0,1,1-.92.92A0.91,0.91,0,0,1,62.2,41.21Z" transform="translate(-0.2 -0.31)"/><path class="9528e15d-8504-47e3-9f2d-966494c4e249" d="M64,47.24c-0.17,0-.23,0-0.23-0.13a0.9,0.9,0,0,1,.46-0.67h1.54a0.32,0.32,0,0,0,.21,0,15.65,15.65,0,0,0,.67-2,0.22,0.22,0,0,1,.23-0.14h0.89a0.14,0.14,0,0,1,.17.17c0,0.1-.52,1.62-0.52,1.83a0.16,0.16,0,0,0,.19.15h1.66c0.14,0,.19,0,0.19.23a0.87,0.87,0,0,1-.39.64c-0.33,0-.64,0-0.92,0l-0.87,0a0.85,0.85,0,0,0-.39.69c-0.15.54-1.66,5.62-1.66,5.68a0.27,0.27,0,0,0,.27.33c0.77,0,2.54-1.83,2.64-1.83a0.15,0.15,0,0,1,.17.15,5.61,5.61,0,0,1-4,2.46A0.61,0.61,0,0,1,63.7,54c0-.27,1.94-6.41,1.94-6.64s-0.1-.14-0.29-0.14H64Z" transform="translate(-0.2 -0.31)"/><path class="9528e15d-8504-47e3-9f2d-966494c4e249" d="M75.33,46.37A0.33,0.33,0,0,1,75.66,46a0.86,0.86,0,0,1,.92.6c0,0.79-2.35,6.93-4.53,10.15-1.17,1.73-2.14,2.93-4.27,2.93-0.67,0-1.14-.19-1.14-0.85a0.85,0.85,0,0,1,.81-0.73c0.77,0,.69.73,1.89,0.73C70,58.85,72,57.08,72,53.26c0-1.23-.42-6-1.39-6s-0.85,2.2-1.15,2.2-0.27-.14-0.27-0.42c0-.73.79-3,2.16-3,1.71,0,1.94,6.18,1.94,6.66a3.56,3.56,0,0,0,0,.94,7.64,7.64,0,0,0,.89-2A25.5,25.5,0,0,0,75.33,46.37Z" transform="translate(-0.2 -0.31)"/><path class="9528e15d-8504-47e3-9f2d-966494c4e249" d="M84.55,54.73c-1.68,0-2.19-1.81-2.19-2.93,0-2.66,1.69-5.85,4-5.85,1.54,0,2.33,1.16,2.33,2.93C88.65,51.43,87,54.73,84.55,54.73Zm1.83-8.28c-1.25,0-2.77,3.95-2.77,5.74,0,0.71,0,2,1,2s2.75-3.77,2.75-5.74C87.4,47.06,87.17,46.45,86.38,46.45Z" transform="translate(-0.2 -0.31)"/><path class="9528e15d-8504-47e3-9f2d-966494c4e249" d="M90,47.16c-0.12,0-.17,0-0.17-0.08a0.65,0.65,0,0,1,.19-0.5c1.93-.15,2-0.15,2.1-0.48A24.29,24.29,0,0,1,93,43.19a4.87,4.87,0,0,1,4.33-2.89c0.56,0,1.64.29,1.64,1a0.84,0.84,0,0,1-.87,1c-1.27,0-.79-1.35-1.77-1.35-0.4,0-1.66,0-2.5,4.16-0.1.48-.29,1.08-0.29,1.23s0.08,0.1.13,0.1h2.06c0.12,0,.15,0,0.15.12a1.09,1.09,0,0,1-.21.62H93.6c-0.21,0-.29.13-0.35,0.4-1.91,8.67-2.39,10.15-3.64,11.21a3.57,3.57,0,0,1-2.23.92,1,1,0,0,1-1.21-.85,0.74,0.74,0,0,1,.73-0.69c0.71,0,1.15.69,1.66,0.69,0.35,0,.77-0.33,1.17-2.16,1.48-6.68,2.08-9.13,2.08-9.34a0.19,0.19,0,0,0-.17-0.19H90Z" transform="translate(-0.2 -0.31)"/><path class="9528e15d-8504-47e3-9f2d-966494c4e249" d="M102.21,53.15c0,0.73.33,0.79,1.27,0.87a0.44,0.44,0,0,1,.39.12c0,0.15,0,.4-0.21.4s-0.37,0-2.66,0c-1.14,0-1.29,0-1.52,0s-0.1-.08-0.1-0.17a0.28,0.28,0,0,1,.19-0.31,3.3,3.3,0,0,0,1.1-.23c0.42-.17.92-1,1.31-2.48,0.75-2.75,2.19-7.3,2.46-8.24,0-.14.31-0.94,0.31-1.06a0.6,0.6,0,0,0-.58-0.52l-1.48-.29A0.2,0.2,0,0,1,102.5,41a0.19,0.19,0,0,1,.21-0.21c0.23,0,1.41.08,2,.08,0.29,0,1.64-.08,1.93-0.08a0.26,0.26,0,0,1,.27.19c0.73,3.93,1.14,8.07,1.29,9.44,0.1,0.9.15,1,.23,1a0.51,0.51,0,0,0,.27-0.23c1.41-2,5.66-8.55,6.87-10.11a0.53,0.53,0,0,1,.39-0.29c0.12,0,1.25.08,1.52,0.08s1.23-.08,1.79-0.08c0.12,0,.12.06,0.12,0.21s0,0.31-.19.33a8.06,8.06,0,0,0-1.16.19,1.63,1.63,0,0,0-.77,1.37c-1.21,6-2.16,9.61-2.16,10.34a0.66,0.66,0,0,0,.73.71l1,0.12c0.1,0,.15,0,0.15.19a0.35,0.35,0,0,1-.21.31c-0.23,0-.35,0-1.77,0-2.6,0-3.1,0-3.43,0-0.17,0-.21-0.08-0.21-0.17s0-.27.4-0.33l0.89-.14a0.65,0.65,0,0,0,.56-0.5c0.9-3.37,1.79-8.22,2.54-10.8a4.6,4.6,0,0,0,.12-0.64,0.08,0.08,0,0,0-.1-0.1,6,6,0,0,0-.71.85c-2.85,4-5.83,8.78-7.55,11.55a0.79,0.79,0,0,1-.4.42c-0.06,0-.15,0-0.23-0.73-0.52-5.51-1.23-10.67-1.41-11.17a0.17,0.17,0,0,0-.15-0.15c-0.1,0-.15.08-0.83,2.16C102.58,50.61,102.21,52.86,102.21,53.15Z" transform="translate(-0.2 -0.31)"/><path class="9528e15d-8504-47e3-9f2d-966494c4e249" d="M119.29,48.37a0.22,0.22,0,0,1-.14-0.21c0-.19,1.7-2.29,3.14-2.29a0.56,0.56,0,0,1,.6.56c0,0.81-2.45,6.49-2.45,6.82,0,0.13,0,.23.14,0.23,0.46,0,1.79-1.39,1.89-1.39a0.17,0.17,0,0,1,.21.19c0,0.1-2,2.54-3.39,2.45a0.6,0.6,0,0,1-.56-0.77c0-.54,2.54-6.57,2.54-6.66s0-.29-0.15-0.29c-0.5,0-1.21.85-1.68,1.27A0.37,0.37,0,0,1,119.29,48.37Zm3.5-7.16a0.92,0.92,0,1,1-.92.92A0.91,0.91,0,0,1,122.79,41.21Z" transform="translate(-0.2 -0.31)"/><path class="9528e15d-8504-47e3-9f2d-966494c4e249" d="M123.7,52.82c1,0,.83,1.27,1.81,1.27a1.26,1.26,0,0,0,1.06-1.23,7.84,7.84,0,0,0-.89-2.43,5.1,5.1,0,0,1-.75-2.14,2.57,2.57,0,0,1,2.79-2.35c0.9,0,1.87.29,1.87,1.17a0.81,0.81,0,0,1-.83.73c-0.89,0-.81-1.35-1.71-1.35a0.94,0.94,0,0,0-1,.94,6.56,6.56,0,0,0,.85,2.16,6,6,0,0,1,.87,2.54c0,1.48-1.94,2.58-3.27,2.58A1.3,1.3,0,0,1,123,53.53,0.76,0.76,0,0,1,123.7,52.82Z" transform="translate(-0.2 -0.31)"/><path class="9528e15d-8504-47e3-9f2d-966494c4e249" d="M129.4,52.82c1,0,.83,1.27,1.81,1.27a1.26,1.26,0,0,0,1.06-1.23,7.84,7.84,0,0,0-.89-2.43,5.11,5.11,0,0,1-.75-2.14,2.57,2.57,0,0,1,2.79-2.35c0.9,0,1.87.29,1.87,1.17a0.81,0.81,0,0,1-.83.73c-0.89,0-.81-1.35-1.71-1.35a0.94,0.94,0,0,0-1,.94,6.56,6.56,0,0,0,.85,2.16,6,6,0,0,1,.87,2.54c0,1.48-1.94,2.58-3.27,2.58a1.3,1.3,0,0,1-1.48-1.19A0.76,0.76,0,0,1,129.4,52.82Z" transform="translate(-0.2 -0.31)"/><path class="9528e15d-8504-47e3-9f2d-966494c4e249" d="M137.66,54.73c-1.68,0-2.19-1.81-2.19-2.93,0-2.66,1.69-5.85,4-5.85,1.54,0,2.33,1.16,2.33,2.93C141.76,51.43,140.12,54.73,137.66,54.73Zm1.83-8.28c-1.25,0-2.77,3.95-2.77,5.74,0,0.71,0,2,1,2s2.75-3.77,2.75-5.74C140.51,47.06,140.28,46.45,139.49,46.45Z" transform="translate(-0.2 -0.31)"/><path class="9528e15d-8504-47e3-9f2d-966494c4e249" d="M148,54.5a0.2,0.2,0,0,1-.25-0.19c0-.35,1.08-3.49,1.08-3.7a0.1,0.1,0,0,0-.06-0.12,32.46,32.46,0,0,1-2.95,3.58,2.6,2.6,0,0,1-1.75.65c-0.46,0-.81-0.31-0.81-1.16s2.52-6.43,2.52-7.09a0.23,0.23,0,0,0-.23-0.21,3.7,3.7,0,0,0-2.35,2.64c0,0.08-.08.08-0.17,0.08a0.19,0.19,0,0,1-.15-0.23,4.23,4.23,0,0,1,1.6-2.46,4.6,4.6,0,0,1,2.7-.58,0.32,0.32,0,0,1,.35.33c0,0.37-2.75,6.41-2.75,7.3a0.38,0.38,0,0,0,.37.39c0.65,0,1.33-.64,2.79-2.7a10.4,10.4,0,0,0,1.35-2.21c0.89-2.41.85-2.95,1.14-2.95h1.14a0.23,0.23,0,0,1,.25.13c0,0.33-2.43,7-2.43,7.41a0.22,0.22,0,0,0,.15.25c0.89,0,2.08-2.21,2.16-2.21s0.27,0,.27.15c0,0.39-1.54,2.89-3.18,2.89H148Z" transform="translate(-0.2 -0.31)"/><path class="9528e15d-8504-47e3-9f2d-966494c4e249" d="M153.08,54.5a0.13,0.13,0,0,1-.13-0.12c0-.37,2.62-7.59,2.62-7.7s-0.1-.23-0.39-0.23c-1.12,0-1.93,2.66-2.14,2.66s-0.21,0-.21-0.14a2.87,2.87,0,0,1,2.85-3h1c0.21,0,.33.08,0.33,0.15s-1.56,4.58-1.56,4.76a0.13,0.13,0,0,0,.1.13,4.48,4.48,0,0,0,.87-1.39c1.52-2.62,2.39-3.74,3.52-3.74a1,1,0,0,1,1,1,1,1,0,0,1-1,1c-0.94,0-.89-0.62-1.35-0.62a2.18,2.18,0,0,0-.83.85,32.08,32.08,0,0,0-3.39,6.24,0.24,0.24,0,0,1-.23.19h-1.06Z" transform="translate(-0.2 -0.31)"/><path class="9528e15d-8504-47e3-9f2d-966494c4e249" d="M161.36,48.37a0.22,0.22,0,0,1-.13-0.21c0-.19,1.69-2.29,3.14-2.29a0.56,0.56,0,0,1,.6.56c0,0.81-2.44,6.49-2.44,6.82,0,0.13,0,.23.13,0.23,0.46,0,1.79-1.39,1.89-1.39a0.17,0.17,0,0,1,.21.19c0,0.1-2,2.54-3.39,2.45A0.6,0.6,0,0,1,160.8,54c0-.54,2.54-6.57,2.54-6.66s0-.29-0.15-0.29c-0.5,0-1.21.85-1.68,1.27A0.37,0.37,0,0,1,161.36,48.37Zm3.5-7.16a0.92,0.92,0,1,1-.92.92A0.91,0.91,0,0,1,164.86,41.21Z" transform="translate(-0.2 -0.31)"/><path class="9528e15d-8504-47e3-9f2d-966494c4e249" d="M182.12,47c0.29,0,.29,0,0.37-0.37a46,46,0,0,0,1.12-4.68c0-.21,0-0.62-1.27-0.62-0.46,0-.48-0.17-0.48-0.27a0.25,0.25,0,0,1,.23-0.29c0.23,0,.75.08,2.48,0.08a23.39,23.39,0,0,0,2.41-.08c0.17,0,.21,0,0.21.12s0,0.44-.73.44a1,1,0,0,0-1.1,1c-2.41,9.42-2.62,10.49-2.62,11s0.4,0.65,1.62.65c0.17,0,.19.06,0.19,0.13s0,0.37-.27.37-0.27,0-2.19,0c-2.46,0-2.81,0-3,0a0.15,0.15,0,0,1-.15-0.17,0.28,0.28,0,0,1,.17-0.33c1.43,0,1.58-.25,1.85-1.35,1.06-4.35,1.23-4.85,1.23-4.91s-0.19-.15-0.39-0.15h-6.08a0.3,0.3,0,0,0-.35.29c-1,4.45-1.19,5.28-1.19,5.47,0,0.39.27,0.65,1.66,0.65,0.12,0,.19,0,0.19.25s0,0.25-.27.25-0.54,0-2.73,0c-1.75,0-2.14,0-2.41,0s-0.19,0-.19-0.15c0-.29.06-0.31,0.46-0.35,1.12-.1,1.23-0.1,1.5-1.21,2.1-8.43,2.6-10,2.6-10.84,0-.54-0.35-0.65-1.31-0.65-0.35,0-.41-0.1-0.41-0.23a0.36,0.36,0,0,1,.19-0.33c0.37,0,1.6.08,2.6,0.08s2.1-.08,2.37-0.08c0.12,0,.15,0,0.15.29a0.22,0.22,0,0,1-.27.27,1.23,1.23,0,0,0-1.48.89c-0.19.67-1.17,4.27-1.17,4.62,0,0.15.13,0.15,0.27,0.15h6.16Z" transform="translate(-0.2 -0.31)"/><path class="9528e15d-8504-47e3-9f2d-966494c4e249" d="M192.71,47.35c0,0.92-.81,2.43-4.43,3.12a10.53,10.53,0,0,0-.23,1.58c0,0.81.29,1.62,1.23,1.62s2-1.46,2.1-1.46a0.23,0.23,0,0,1,.23.25c0,0.15-1.5,2.27-3.14,2.27-1.46,0-1.85-1.17-1.85-2.43,0-3.64,2.37-6.28,4.49-6.28A1.35,1.35,0,0,1,192.71,47.35Zm-1.31,0a0.72,0.72,0,0,0-.62-0.81c-1,0-1.89,1.42-2.45,3.47C190.74,49.7,191.4,48,191.4,47.33Z" transform="translate(-0.2 -0.31)"/><path class="9528e15d-8504-47e3-9f2d-966494c4e249" d="M201.45,45.72a0.09,0.09,0,0,1,.12.12c0,0.42-2.72,6.7-2.72,7.36a0.21,0.21,0,0,0,.19.25c0.56,0,1.89-2.06,2.12-2.06a0.19,0.19,0,0,1,.17.15c0,0.15-2.18,3.2-3.52,3.2a0.5,0.5,0,0,1-.6-0.44,30.58,30.58,0,0,1,1.21-3.41,0.08,0.08,0,0,0-.08-0.1,4.23,4.23,0,0,0-.77,1c-1,1.31-2.33,2.91-3.75,2.91a0.76,0.76,0,0,1-.77-1c0-1.5,1.81-5.2,3.54-6.82a3.07,3.07,0,0,1,2.35-1,1,1,0,0,1,.87.27,1.25,1.25,0,0,0,.23.27c0.15,0,.25-0.77.48-0.77h0.92Zm-2,1.43c0-.4-0.12-0.69-0.79-0.69-1.94,0-3.91,5.3-3.91,6.72,0,0.31.12,0.48,0.29,0.48C196.31,53.65,199.41,48.76,199.41,47.14Z" transform="translate(-0.2 -0.31)"/><path class="9528e15d-8504-47e3-9f2d-966494c4e249" d="M206.07,42c0-.5-0.27-0.52-0.65-0.52s-0.6,0-.6-0.29,0.23-.29.6-0.33c1.17-.12,2-0.27,2.16-0.27s0.29,0,.29.17c0,0.75-3.77,11.44-3.77,11.86a0.29,0.29,0,0,0,.33.33c0.42,0,1.83-1.81,2.06-1.81s0.17,0.08.17,0.25-2.58,3.35-3.83,3.35a0.61,0.61,0,0,1-.65-0.65C202.16,53.53,206.07,42.17,206.07,42Z" transform="translate(-0.2 -0.31)"/><path class="9528e15d-8504-47e3-9f2d-966494c4e249" d="M208,47.24c-0.17,0-.23,0-0.23-0.13a0.9,0.9,0,0,1,.46-0.67h1.54a0.32,0.32,0,0,0,.21,0,15.46,15.46,0,0,0,.67-2,0.22,0.22,0,0,1,.23-0.14h0.89a0.14,0.14,0,0,1,.17.17c0,0.1-.52,1.62-0.52,1.83a0.16,0.16,0,0,0,.19.15h1.65c0.14,0,.19,0,0.19.23a0.87,0.87,0,0,1-.38.64c-0.33,0-.64,0-0.93,0l-0.87,0a0.85,0.85,0,0,0-.38.69c-0.15.54-1.66,5.62-1.66,5.68a0.27,0.27,0,0,0,.27.33c0.77,0,2.54-1.83,2.64-1.83a0.15,0.15,0,0,1,.17.15,5.61,5.61,0,0,1-4,2.46,0.61,0.61,0,0,1-.64-0.71c0-.27,1.94-6.41,1.94-6.64s-0.1-.14-0.29-0.14H208Z" transform="translate(-0.2 -0.31)"/><path class="9528e15d-8504-47e3-9f2d-966494c4e249" d="M213.62,54.5a0.24,0.24,0,0,1-.25-0.29c0-.19,3.72-12.09,3.72-12.23,0-.5-0.27-0.52-0.65-0.52s-0.6,0-.6-0.29,0.23-.29.6-0.33c1.17-.12,2-0.27,2.16-0.27s0.29,0,.29.17-2.39,8.16-2.39,8.28a0.07,0.07,0,0,0,.06.08,0.38,0.38,0,0,0,.17-0.21c1.62-2.23,3.06-2.87,3.81-2.87a1.18,1.18,0,0,1,1.27,1.29c0,2.56-2.41,7.41-4.56,7.41a0.7,0.7,0,0,1-.81-0.77,0.93,0.93,0,0,1,.81-0.94c0.65,0,.46.71,1,0.71,1,0,2.08-4.53,2.08-5.41a0.92,0.92,0,0,0-.85-1.14c-0.56,0-1.69.87-3,2.83-0.85,1.27-.89,2.1-1.64,4.22a0.29,0.29,0,0,1-.23.27h-0.94Z" transform="translate(-0.2 -0.31)"/><path class="64f7e2a7-fed9-4a6a-a21f-f802acbff92e" d="M1.68,63.37a8,8,0,0,0,.27-1.54c0-.27-0.17-0.52-1.44-0.56-0.25,0-.25-0.08-0.25-0.27s0.08-.23.15-0.23,1.75,0.08,2.41.08c1.16,0,2.27-.08,2.62-0.08,0.12,0,.14.15,0.14,0.29a0.26,0.26,0,0,1-.21.27,2.62,2.62,0,0,0-1.23.23,4.46,4.46,0,0,0-.65,1.93C2.53,67.56,2,69.68,2,70.91,2,73.57,4.34,73.8,5.2,73.8c1.91,0,4-1.06,5-4.6,1.29-4.85,1.44-5.95,1.44-6.78a1,1,0,0,0-1-1,5.23,5.23,0,0,0-.9-0.14,0.29,0.29,0,0,1-.12-0.23,0.28,0.28,0,0,1,.25-0.29c0.21,0,1.5.08,1.87,0.08,0.64,0,2.39-.08,2.75-0.08,0.08,0,.14.1,0.14,0.25a0.27,0.27,0,0,1-.17.21l-0.67.1a1.74,1.74,0,0,0-1.37,1.48C11.75,64.87,11,69.47,10,71.53c-1.1,2.21-2.81,3.12-5.37,3.12S0.2,73.44.2,70.93C0.2,69.45.95,67,1.68,63.37Z" transform="translate(-0.2 -0.31)"/><path class="64f7e2a7-fed9-4a6a-a21f-f802acbff92e" d="M18,74.5c-0.12,0-.13,0-0.13-0.15,0-.71,2.54-6.16,2.54-7.16a0.51,0.51,0,0,0-.5-0.56c-1.27,0-2.21,2.14-4.06,5.3-0.1.17-.33,0.75-1,2.41a0.21,0.21,0,0,1-.21.17H13.44a0.13,0.13,0,0,1-.15-0.15c0-.31,2.62-7,2.62-7.53a0.19,0.19,0,0,0-.15-0.23c-1.48,0-2.31,1.93-2.31,2.33a0.18,0.18,0,0,1-.17.1,0.16,0.16,0,0,1-.17-0.17c0-.46.64-2.81,2.72-2.81h1.42a0.16,0.16,0,0,1,.19.17c0,0.23-1.42,3.72-1.42,4.33,0,0.1,0,.14.06,0.14s0.13-.1.52-0.79c2.08-3.75,2.66-4,3.75-4,0.54,0,1.54.08,1.54,1,0,1.58-2.35,6-2.35,6.76a0.23,0.23,0,0,0,.19.15c0.91,0,1.94-2,2.16-2a0.25,0.25,0,0,1,.19.17c0,0.25-1.5,2.6-3.08,2.6H18Z" transform="translate(-0.2 -0.31)"/><path class="64f7e2a7-fed9-4a6a-a21f-f802acbff92e" d="M23.88,68.37a0.22,0.22,0,0,1-.14-0.21c0-.19,1.7-2.29,3.14-2.29a0.56,0.56,0,0,1,.6.56c0,0.81-2.45,6.49-2.45,6.82,0,0.13,0,.23.14,0.23,0.46,0,1.79-1.39,1.89-1.39a0.17,0.17,0,0,1,.21.19c0,0.1-2,2.54-3.39,2.45A0.6,0.6,0,0,1,23.32,74c0-.54,2.54-6.57,2.54-6.66s0-.29-0.15-0.29c-0.5,0-1.21.85-1.68,1.27A0.37,0.37,0,0,1,23.88,68.37Zm3.5-7.16a0.92,0.92,0,1,1-.92.92A0.91,0.91,0,0,1,27.39,61.21Z" transform="translate(-0.2 -0.31)"/><path class="64f7e2a7-fed9-4a6a-a21f-f802acbff92e" d="M32.33,65.95a1.52,1.52,0,0,0,.27,0,1.9,1.9,0,0,1,.37,0,0.22,0.22,0,0,1,.21.21c0,0.9-2.18,3.14-2.18,5.64,0,0.81.31,1.85,1.31,1.85,2.08,0,3.64-3.64,3.64-5.39,0-.77-0.92-0.77-0.92-1.46a0.92,0.92,0,0,1,.87-1c0.83,0,1,.56,1,1.31,0,1.81-2,7.7-5.45,7.7a1.81,1.81,0,0,1-1.77-2.08c0-2.21,2.54-5.2,2.54-5.41s0-.13-0.35-0.13h-2c-0.5,0-.79.79-0.92,1.23a0.19,0.19,0,0,1-.23.17,0.23,0.23,0,0,1-.21-0.15c0-.23.64-2.41,0.94-2.41h2.95Z" transform="translate(-0.2 -0.31)"/><path class="64f7e2a7-fed9-4a6a-a21f-f802acbff92e" d="M43.95,67.35c0,0.92-.81,2.43-4.43,3.12a10.34,10.34,0,0,0-.23,1.58c0,0.81.29,1.62,1.23,1.62s2-1.46,2.1-1.46a0.23,0.23,0,0,1,.23.25c0,0.15-1.5,2.27-3.14,2.27-1.46,0-1.85-1.17-1.85-2.43,0-3.64,2.37-6.28,4.49-6.28A1.35,1.35,0,0,1,43.95,67.35Zm-1.31,0A0.72,0.72,0,0,0,42,66.52c-1,0-1.89,1.42-2.44,3.47C42,69.7,42.64,68,42.64,67.33Z" transform="translate(-0.2 -0.31)"/><path class="64f7e2a7-fed9-4a6a-a21f-f802acbff92e" d="M44.95,74.5a0.13,0.13,0,0,1-.13-0.12c0-.37,2.62-7.59,2.62-7.7s-0.1-.23-0.39-0.23c-1.12,0-1.93,2.66-2.14,2.66s-0.21,0-.21-0.14a2.87,2.87,0,0,1,2.85-3h1c0.21,0,.33.08,0.33,0.15s-1.56,4.58-1.56,4.76a0.13,0.13,0,0,0,.1.13,4.48,4.48,0,0,0,.87-1.39c1.52-2.62,2.39-3.74,3.52-3.74a1,1,0,0,1,1,1,1,1,0,0,1-1,1c-0.94,0-.89-0.62-1.35-0.62a2.18,2.18,0,0,0-.83.85,32.08,32.08,0,0,0-3.39,6.24,0.24,0.24,0,0,1-.23.19H44.95Z" transform="translate(-0.2 -0.31)"/><path class="64f7e2a7-fed9-4a6a-a21f-f802acbff92e" d="M52.05,72.82c1,0,.83,1.27,1.81,1.27a1.26,1.26,0,0,0,1.06-1.23A7.84,7.84,0,0,0,54,70.43a5.1,5.1,0,0,1-.75-2.14,2.57,2.57,0,0,1,2.79-2.35c0.9,0,1.87.29,1.87,1.17a0.81,0.81,0,0,1-.83.73c-0.89,0-.81-1.35-1.71-1.35a0.94,0.94,0,0,0-1,.94,6.56,6.56,0,0,0,.85,2.16,6,6,0,0,1,.87,2.54c0,1.48-1.94,2.58-3.27,2.58a1.3,1.3,0,0,1-1.48-1.19A0.76,0.76,0,0,1,52.05,72.82Z" transform="translate(-0.2 -0.31)"/><path class="64f7e2a7-fed9-4a6a-a21f-f802acbff92e" d="M58.69,68.37a0.22,0.22,0,0,1-.14-0.21c0-.19,1.7-2.29,3.14-2.29a0.56,0.56,0,0,1,.6.56c0,0.81-2.45,6.49-2.45,6.82,0,0.13,0,.23.14,0.23,0.46,0,1.79-1.39,1.89-1.39a0.17,0.17,0,0,1,.21.19c0,0.1-2,2.54-3.39,2.45A0.6,0.6,0,0,1,58.14,74c0-.54,2.54-6.57,2.54-6.66s0-.29-0.15-0.29c-0.5,0-1.21.85-1.68,1.27A0.37,0.37,0,0,1,58.69,68.37Zm3.5-7.16a0.92,0.92,0,1,1-.92.92A0.91,0.91,0,0,1,62.2,61.21Z" transform="translate(-0.2 -0.31)"/><path class="64f7e2a7-fed9-4a6a-a21f-f802acbff92e" d="M64,67.24c-0.17,0-.23,0-0.23-0.13a0.9,0.9,0,0,1,.46-0.67h1.54a0.32,0.32,0,0,0,.21,0,15.65,15.65,0,0,0,.67-2,0.22,0.22,0,0,1,.23-0.14h0.89a0.14,0.14,0,0,1,.17.17c0,0.1-.52,1.62-0.52,1.83a0.16,0.16,0,0,0,.19.15h1.66c0.14,0,.19,0,0.19.23a0.87,0.87,0,0,1-.39.64c-0.33,0-.64,0-0.92,0l-0.87,0a0.85,0.85,0,0,0-.39.69c-0.15.54-1.66,5.62-1.66,5.68a0.27,0.27,0,0,0,.27.33c0.77,0,2.54-1.83,2.64-1.83a0.15,0.15,0,0,1,.17.15,5.61,5.61,0,0,1-4,2.46A0.61,0.61,0,0,1,63.7,74c0-.27,1.94-6.41,1.94-6.64s-0.1-.14-0.29-0.14H64Z" transform="translate(-0.2 -0.31)"/><path class="64f7e2a7-fed9-4a6a-a21f-f802acbff92e" d="M75.33,66.37A0.33,0.33,0,0,1,75.66,66a0.86,0.86,0,0,1,.92.6c0,0.79-2.35,6.93-4.53,10.15-1.17,1.73-2.14,2.93-4.27,2.93-0.67,0-1.14-.19-1.14-0.85a0.85,0.85,0,0,1,.81-0.73c0.77,0,.69.73,1.89,0.73C70,78.85,72,77.08,72,73.26c0-1.23-.42-6-1.39-6s-0.85,2.2-1.15,2.2-0.27-.14-0.27-0.42c0-.73.79-3,2.16-3,1.71,0,1.94,6.18,1.94,6.66a3.56,3.56,0,0,0,0,.94,7.64,7.64,0,0,0,.89-2A25.5,25.5,0,0,0,75.33,66.37Z" transform="translate(-0.2 -0.31)"/><path class="64f7e2a7-fed9-4a6a-a21f-f802acbff92e" d="M84.55,74.73c-1.68,0-2.19-1.81-2.19-2.93,0-2.66,1.69-5.85,4-5.85,1.54,0,2.33,1.16,2.33,2.93C88.65,71.43,87,74.73,84.55,74.73Zm1.83-8.28c-1.25,0-2.77,3.95-2.77,5.74,0,0.71,0,2,1,2s2.75-3.77,2.75-5.74C87.4,67.06,87.17,66.45,86.38,66.45Z" transform="translate(-0.2 -0.31)"/><path class="64f7e2a7-fed9-4a6a-a21f-f802acbff92e" d="M90,67.16c-0.12,0-.17,0-0.17-0.08a0.65,0.65,0,0,1,.19-0.5c1.93-.15,2-0.15,2.1-0.48A24.29,24.29,0,0,1,93,63.19a4.87,4.87,0,0,1,4.33-2.89c0.56,0,1.64.29,1.64,1a0.84,0.84,0,0,1-.87,1c-1.27,0-.79-1.35-1.77-1.35-0.4,0-1.66,0-2.5,4.16-0.1.48-.29,1.08-0.29,1.23s0.08,0.1.13,0.1h2.06c0.12,0,.15,0,0.15.12a1.09,1.09,0,0,1-.21.62H93.6c-0.21,0-.29.13-0.35,0.4-1.91,8.67-2.39,10.15-3.64,11.21a3.57,3.57,0,0,1-2.23.92,1,1,0,0,1-1.21-.85,0.74,0.74,0,0,1,.73-0.69c0.71,0,1.15.69,1.66,0.69,0.35,0,.77-0.33,1.17-2.16,1.48-6.68,2.08-9.13,2.08-9.34a0.19,0.19,0,0,0-.17-0.19H90Z" transform="translate(-0.2 -0.31)"/><path class="64f7e2a7-fed9-4a6a-a21f-f802acbff92e" d="M102.21,73.15c0,0.73.33,0.79,1.27,0.87a0.44,0.44,0,0,1,.39.12c0,0.15,0,.4-0.21.4s-0.37,0-2.66,0c-1.14,0-1.29,0-1.52,0s-0.1-.08-0.1-0.17a0.28,0.28,0,0,1,.19-0.31,3.3,3.3,0,0,0,1.1-.23c0.42-.17.92-1,1.31-2.48,0.75-2.75,2.19-7.3,2.46-8.24,0-.14.31-0.94,0.31-1.06a0.6,0.6,0,0,0-.58-0.52l-1.48-.29A0.2,0.2,0,0,1,102.5,61a0.19,0.19,0,0,1,.21-0.21c0.23,0,1.41.08,2,.08,0.29,0,1.64-.08,1.93-0.08a0.26,0.26,0,0,1,.27.19c0.73,3.93,1.14,8.07,1.29,9.44,0.1,0.9.15,1,.23,1a0.51,0.51,0,0,0,.27-0.23c1.41-2,5.66-8.55,6.87-10.11a0.53,0.53,0,0,1,.39-0.29c0.12,0,1.25.08,1.52,0.08s1.23-.08,1.79-0.08c0.12,0,.12.06,0.12,0.21s0,0.31-.19.33a8.06,8.06,0,0,0-1.16.19,1.63,1.63,0,0,0-.77,1.37c-1.21,6-2.16,9.61-2.16,10.34a0.66,0.66,0,0,0,.73.71l1,0.12c0.1,0,.15,0,0.15.19a0.35,0.35,0,0,1-.21.31c-0.23,0-.35,0-1.77,0-2.6,0-3.1,0-3.43,0-0.17,0-.21-0.08-0.21-0.17s0-.27.4-0.33l0.89-.14a0.65,0.65,0,0,0,.56-0.5c0.9-3.37,1.79-8.22,2.54-10.8a4.6,4.6,0,0,0,.12-0.64,0.08,0.08,0,0,0-.1-0.1,6,6,0,0,0-.71.85c-2.85,4-5.83,8.78-7.55,11.55a0.79,0.79,0,0,1-.4.42c-0.06,0-.15,0-0.23-0.73-0.52-5.51-1.23-10.67-1.41-11.17a0.17,0.17,0,0,0-.15-0.15c-0.1,0-.15.08-0.83,2.16C102.58,70.61,102.21,72.86,102.21,73.15Z" transform="translate(-0.2 -0.31)"/><path class="64f7e2a7-fed9-4a6a-a21f-f802acbff92e" d="M119.29,68.37a0.22,0.22,0,0,1-.14-0.21c0-.19,1.7-2.29,3.14-2.29a0.56,0.56,0,0,1,.6.56c0,0.81-2.45,6.49-2.45,6.82,0,0.13,0,.23.14,0.23,0.46,0,1.79-1.39,1.89-1.39a0.17,0.17,0,0,1,.21.19c0,0.1-2,2.54-3.39,2.45a0.6,0.6,0,0,1-.56-0.77c0-.54,2.54-6.57,2.54-6.66s0-.29-0.15-0.29c-0.5,0-1.21.85-1.68,1.27A0.37,0.37,0,0,1,119.29,68.37Zm3.5-7.16a0.92,0.92,0,1,1-.92.92A0.91,0.91,0,0,1,122.79,61.21Z" transform="translate(-0.2 -0.31)"/><path class="64f7e2a7-fed9-4a6a-a21f-f802acbff92e" d="M123.7,72.82c1,0,.83,1.27,1.81,1.27a1.26,1.26,0,0,0,1.06-1.23,7.84,7.84,0,0,0-.89-2.43,5.1,5.1,0,0,1-.75-2.14,2.57,2.57,0,0,1,2.79-2.35c0.9,0,1.87.29,1.87,1.17a0.81,0.81,0,0,1-.83.73c-0.89,0-.81-1.35-1.71-1.35a0.94,0.94,0,0,0-1,.94,6.56,6.56,0,0,0,.85,2.16,6,6,0,0,1,.87,2.54c0,1.48-1.94,2.58-3.27,2.58A1.3,1.3,0,0,1,123,73.53,0.76,0.76,0,0,1,123.7,72.82Z" transform="translate(-0.2 -0.31)"/><path class="64f7e2a7-fed9-4a6a-a21f-f802acbff92e" d="M129.4,72.82c1,0,.83,1.27,1.81,1.27a1.26,1.26,0,0,0,1.06-1.23,7.84,7.84,0,0,0-.89-2.43,5.11,5.11,0,0,1-.75-2.14,2.57,2.57,0,0,1,2.79-2.35c0.9,0,1.87.29,1.87,1.17a0.81,0.81,0,0,1-.83.73c-0.89,0-.81-1.35-1.71-1.35a0.94,0.94,0,0,0-1,.94,6.56,6.56,0,0,0,.85,2.16,6,6,0,0,1,.87,2.54c0,1.48-1.94,2.58-3.27,2.58a1.3,1.3,0,0,1-1.48-1.19A0.76,0.76,0,0,1,129.4,72.82Z" transform="translate(-0.2 -0.31)"/><path class="64f7e2a7-fed9-4a6a-a21f-f802acbff92e" d="M137.66,74.73c-1.68,0-2.19-1.81-2.19-2.93,0-2.66,1.69-5.85,4-5.85,1.54,0,2.33,1.16,2.33,2.93C141.76,71.43,140.12,74.73,137.66,74.73Zm1.83-8.28c-1.25,0-2.77,3.95-2.77,5.74,0,0.71,0,2,1,2s2.75-3.77,2.75-5.74C140.51,67.06,140.28,66.45,139.49,66.45Z" transform="translate(-0.2 -0.31)"/><path class="64f7e2a7-fed9-4a6a-a21f-f802acbff92e" d="M148,74.5a0.2,0.2,0,0,1-.25-0.19c0-.35,1.08-3.49,1.08-3.7a0.1,0.1,0,0,0-.06-0.12,32.46,32.46,0,0,1-2.95,3.58,2.6,2.6,0,0,1-1.75.65c-0.46,0-.81-0.31-0.81-1.16s2.52-6.43,2.52-7.09a0.23,0.23,0,0,0-.23-0.21,3.7,3.7,0,0,0-2.35,2.64c0,0.08-.08.08-0.17,0.08a0.19,0.19,0,0,1-.15-0.23,4.23,4.23,0,0,1,1.6-2.46,4.6,4.6,0,0,1,2.7-.58,0.32,0.32,0,0,1,.35.33c0,0.37-2.75,6.41-2.75,7.3a0.38,0.38,0,0,0,.37.39c0.65,0,1.33-.64,2.79-2.7a10.4,10.4,0,0,0,1.35-2.21c0.89-2.41.85-2.95,1.14-2.95h1.14a0.23,0.23,0,0,1,.25.13c0,0.33-2.43,7-2.43,7.41a0.22,0.22,0,0,0,.15.25c0.89,0,2.08-2.21,2.16-2.21s0.27,0,.27.15c0,0.39-1.54,2.89-3.18,2.89H148Z" transform="translate(-0.2 -0.31)"/><path class="64f7e2a7-fed9-4a6a-a21f-f802acbff92e" d="M153.08,74.5a0.13,0.13,0,0,1-.13-0.12c0-.37,2.62-7.59,2.62-7.7s-0.1-.23-0.39-0.23c-1.12,0-1.93,2.66-2.14,2.66s-0.21,0-.21-0.14a2.87,2.87,0,0,1,2.85-3h1c0.21,0,.33.08,0.33,0.15s-1.56,4.58-1.56,4.76a0.13,0.13,0,0,0,.1.13,4.48,4.48,0,0,0,.87-1.39c1.52-2.62,2.39-3.74,3.52-3.74a1,1,0,0,1,1,1,1,1,0,0,1-1,1c-0.94,0-.89-0.62-1.35-0.62a2.18,2.18,0,0,0-.83.85,32.08,32.08,0,0,0-3.39,6.24,0.24,0.24,0,0,1-.23.19h-1.06Z" transform="translate(-0.2 -0.31)"/><path class="64f7e2a7-fed9-4a6a-a21f-f802acbff92e" d="M161.36,68.37a0.22,0.22,0,0,1-.13-0.21c0-.19,1.69-2.29,3.14-2.29a0.56,0.56,0,0,1,.6.56c0,0.81-2.44,6.49-2.44,6.82,0,0.13,0,.23.13,0.23,0.46,0,1.79-1.39,1.89-1.39a0.17,0.17,0,0,1,.21.19c0,0.1-2,2.54-3.39,2.45A0.6,0.6,0,0,1,160.8,74c0-.54,2.54-6.57,2.54-6.66s0-.29-0.15-0.29c-0.5,0-1.21.85-1.68,1.27A0.37,0.37,0,0,1,161.36,68.37Zm3.5-7.16a0.92,0.92,0,1,1-.92.92A0.91,0.91,0,0,1,164.86,61.21Z" transform="translate(-0.2 -0.31)"/><path class="64f7e2a7-fed9-4a6a-a21f-f802acbff92e" d="M182.12,67c0.29,0,.29,0,0.37-0.37a46,46,0,0,0,1.12-4.68c0-.21,0-0.62-1.27-0.62-0.46,0-.48-0.17-0.48-0.27a0.25,0.25,0,0,1,.23-0.29c0.23,0,.75.08,2.48,0.08a23.39,23.39,0,0,0,2.41-.08c0.17,0,.21,0,0.21.12s0,0.44-.73.44a1,1,0,0,0-1.1,1c-2.41,9.42-2.62,10.49-2.62,11s0.4,0.65,1.62.65c0.17,0,.19.06,0.19,0.13s0,0.37-.27.37-0.27,0-2.19,0c-2.46,0-2.81,0-3,0a0.15,0.15,0,0,1-.15-0.17,0.28,0.28,0,0,1,.17-0.33c1.43,0,1.58-.25,1.85-1.35,1.06-4.35,1.23-4.85,1.23-4.91s-0.19-.15-0.39-0.15h-6.08a0.3,0.3,0,0,0-.35.29c-1,4.45-1.19,5.28-1.19,5.47,0,0.39.27,0.65,1.66,0.65,0.12,0,.19,0,0.19.25s0,0.25-.27.25-0.54,0-2.73,0c-1.75,0-2.14,0-2.41,0s-0.19,0-.19-0.15c0-.29.06-0.31,0.46-0.35,1.12-.1,1.23-0.1,1.5-1.21,2.1-8.43,2.6-10,2.6-10.84,0-.54-0.35-0.65-1.31-0.65-0.35,0-.41-0.1-0.41-0.23a0.36,0.36,0,0,1,.19-0.33c0.37,0,1.6.08,2.6,0.08s2.1-.08,2.37-0.08c0.12,0,.15,0,0.15.29a0.22,0.22,0,0,1-.27.27,1.23,1.23,0,0,0-1.48.89c-0.19.67-1.17,4.27-1.17,4.62,0,0.15.13,0.15,0.27,0.15h6.16Z" transform="translate(-0.2 -0.31)"/><path class="64f7e2a7-fed9-4a6a-a21f-f802acbff92e" d="M192.71,67.35c0,0.92-.81,2.43-4.43,3.12a10.53,10.53,0,0,0-.23,1.58c0,0.81.29,1.62,1.23,1.62s2-1.46,2.1-1.46a0.23,0.23,0,0,1,.23.25c0,0.15-1.5,2.27-3.14,2.27-1.46,0-1.85-1.17-1.85-2.43,0-3.64,2.37-6.28,4.49-6.28A1.35,1.35,0,0,1,192.71,67.35Zm-1.31,0a0.72,0.72,0,0,0-.62-0.81c-1,0-1.89,1.42-2.45,3.47C190.74,69.7,191.4,68,191.4,67.33Z" transform="translate(-0.2 -0.31)"/><path class="64f7e2a7-fed9-4a6a-a21f-f802acbff92e" d="M201.45,65.72a0.09,0.09,0,0,1,.12.12c0,0.42-2.72,6.7-2.72,7.36a0.21,0.21,0,0,0,.19.25c0.56,0,1.89-2.06,2.12-2.06a0.19,0.19,0,0,1,.17.15c0,0.15-2.18,3.2-3.52,3.2a0.5,0.5,0,0,1-.6-0.44,30.58,30.58,0,0,1,1.21-3.41,0.08,0.08,0,0,0-.08-0.1,4.23,4.23,0,0,0-.77,1c-1,1.31-2.33,2.91-3.75,2.91a0.76,0.76,0,0,1-.77-1c0-1.5,1.81-5.2,3.54-6.82a3.07,3.07,0,0,1,2.35-1,1,1,0,0,1,.87.27,1.25,1.25,0,0,0,.23.27c0.15,0,.25-0.77.48-0.77h0.92Zm-2,1.43c0-.4-0.12-0.69-0.79-0.69-1.94,0-3.91,5.3-3.91,6.72,0,0.31.12,0.48,0.29,0.48C196.31,73.65,199.41,68.76,199.41,67.14Z" transform="translate(-0.2 -0.31)"/><path class="64f7e2a7-fed9-4a6a-a21f-f802acbff92e" d="M206.07,62c0-.5-0.27-0.52-0.65-0.52s-0.6,0-.6-0.29,0.23-.29.6-0.33c1.17-.12,2-0.27,2.16-0.27s0.29,0,.29.17c0,0.75-3.77,11.44-3.77,11.86a0.29,0.29,0,0,0,.33.33c0.42,0,1.83-1.81,2.06-1.81s0.17,0.08.17,0.25-2.58,3.35-3.83,3.35a0.61,0.61,0,0,1-.65-0.65C202.16,73.53,206.07,62.17,206.07,62Z" transform="translate(-0.2 -0.31)"/><path class="64f7e2a7-fed9-4a6a-a21f-f802acbff92e" d="M208,67.24c-0.17,0-.23,0-0.23-0.13a0.9,0.9,0,0,1,.46-0.67h1.54a0.32,0.32,0,0,0,.21,0,15.46,15.46,0,0,0,.67-2,0.22,0.22,0,0,1,.23-0.14h0.89a0.14,0.14,0,0,1,.17.17c0,0.1-.52,1.62-0.52,1.83a0.16,0.16,0,0,0,.19.15h1.65c0.14,0,.19,0,0.19.23a0.87,0.87,0,0,1-.38.64c-0.33,0-.64,0-0.93,0l-0.87,0a0.85,0.85,0,0,0-.38.69c-0.15.54-1.66,5.62-1.66,5.68a0.27,0.27,0,0,0,.27.33c0.77,0,2.54-1.83,2.64-1.83a0.15,0.15,0,0,1,.17.15,5.61,5.61,0,0,1-4,2.46,0.61,0.61,0,0,1-.64-0.71c0-.27,1.94-6.41,1.94-6.64s-0.1-.14-0.29-0.14H208Z" transform="translate(-0.2 -0.31)"/><path class="64f7e2a7-fed9-4a6a-a21f-f802acbff92e" d="M213.62,74.5a0.24,0.24,0,0,1-.25-0.29c0-.19,3.72-12.09,3.72-12.23,0-.5-0.27-0.52-0.65-0.52s-0.6,0-.6-0.29,0.23-.29.6-0.33c1.17-.12,2-0.27,2.16-0.27s0.29,0,.29.17-2.39,8.16-2.39,8.28a0.07,0.07,0,0,0,.06.08,0.38,0.38,0,0,0,.17-0.21c1.62-2.23,3.06-2.87,3.81-2.87a1.18,1.18,0,0,1,1.27,1.29c0,2.56-2.41,7.41-4.56,7.41a0.7,0.7,0,0,1-.81-0.77,0.93,0.93,0,0,1,.81-0.94c0.65,0,.46.71,1,0.71,1,0,2.08-4.53,2.08-5.41a0.92,0.92,0,0,0-.85-1.14c-0.56,0-1.69.87-3,2.83-0.85,1.27-.89,2.1-1.64,4.22a0.29,0.29,0,0,1-.23.27h-0.94Z" transform="translate(-0.2 -0.31)"/></svg>