<svg id="2e35b59c-f46b-4070-90f0-4875fb894e5b" data-name="Layer 1" xmlns="http://www.w3.org/2000/svg" width="179.48" height="66.7" viewBox="0 0 179.48 66.7"><defs><style>.\37 83abe20-088a-4f55-be7e-6d7f7454b03c{fill:#900000;}.bc86e4f0-3b1d-4fd1-a6a1-00eedcbf41f4{fill:#fff;}.b206b83a-b476-44c2-a706-88c81646d10b{fill:#f1b82d;}</style></defs><title>health-wordmark-small</title><path d="M1.46,3.63a6.47,6.47,0,0,0,.22-1.25C1.68,2.16,1.54,2,.51,1.93c-0.2,0-.2-0.06-0.2-0.22s0.06-.19.12-0.19,1.42,0.06,1.95.06c0.94,0,1.84-.06,2.12-0.06,0.09,0,.11.12,0.11,0.23A0.21,0.21,0,0,1,4.44,2a2.12,2.12,0,0,0-1,.19,3.61,3.61,0,0,0-.53,1.56,37,37,0,0,0-1.17,6,2.29,2.29,0,0,0,2.57,2.34c1.54,0,3.26-.86,4-3.73,1-3.93,1.17-4.82,1.17-5.49A0.78,0.78,0,0,0,8.7,2.05,4.23,4.23,0,0,0,8,1.94a0.24,0.24,0,0,1-.09-0.19,0.23,0.23,0,0,1,.2-0.23c0.17,0,1.22.06,1.51,0.06,0.52,0,1.93-.06,2.23-0.06,0.06,0,.11.08,0.11,0.2a0.22,0.22,0,0,1-.14.17L11.24,2a1.41,1.41,0,0,0-1.11,1.2C9.62,4.84,9,8.57,8.18,10.24a4.33,4.33,0,0,1-4.35,2.53c-2,0-3.57-1-3.57-3A49.86,49.86,0,0,1,1.46,3.63Z" transform="translate(-0.26 -1.15)"/><path d="M14.67,12.64c-0.09,0-.11,0-0.11-0.12,0-.58,2.06-5,2.06-5.8a0.41,0.41,0,0,0-.41-0.45c-1,0-1.79,1.73-3.29,4.29-0.08.14-.27,0.61-0.84,1.95a0.17,0.17,0,0,1-.17.14H11a0.1,0.1,0,0,1-.12-0.12c0-.25,2.12-5.65,2.12-6.1a0.15,0.15,0,0,0-.12-0.19C11.66,6.23,11,7.79,11,8.12a0.15,0.15,0,0,1-.14.08,0.13,0.13,0,0,1-.14-0.14c0-.37.51-2.28,2.2-2.28h1.15a0.13,0.13,0,0,1,.16.14c0,0.19-1.15,3-1.15,3.51,0,0.08,0,.11,0,0.11a1.08,1.08,0,0,0,.42-0.64c1.68-3,2.15-3.24,3-3.24,0.44,0,1.25.06,1.25,0.78,0,1.28-1.9,4.87-1.9,5.47a0.19,0.19,0,0,0,.16.12c0.73,0,1.58-1.64,1.75-1.64a0.21,0.21,0,0,1,.16.14c0,0.2-1.22,2.11-2.5,2.11H14.67Z" transform="translate(-0.26 -1.15)"/><path d="M19.44,7.68a0.18,0.18,0,0,1-.11-0.17c0-.16,1.37-1.86,2.54-1.86a0.45,0.45,0,0,1,.48.45c0,0.65-2,5.26-2,5.52,0,0.11,0,.19.11,0.19A6.79,6.79,0,0,0,22,10.69a0.14,0.14,0,0,1,.17.16c0,0.08-1.65,2.06-2.74,2A0.49,0.49,0,0,1,19,12.2C19,11.77,21,6.89,21,6.81s0-.23-0.12-0.23a3.34,3.34,0,0,0-1.36,1A0.3,0.3,0,0,1,19.44,7.68Zm2.84-5.8a0.75,0.75,0,1,1-.75.75A0.74,0.74,0,0,1,22.28,1.88Z" transform="translate(-0.26 -1.15)"/><path d="M26.29,5.72l0.22,0a1.54,1.54,0,0,1,.3,0,0.18,0.18,0,0,1,.17.17c0,0.73-1.76,2.54-1.76,4.57a1.27,1.27,0,0,0,1.06,1.5c1.68,0,2.95-2.95,2.95-4.37,0-.62-0.75-0.62-0.75-1.19a0.74,0.74,0,0,1,.7-0.81c0.67,0,.8.45,0.8,1.06,0,1.47-1.61,6.24-4.41,6.24a1.47,1.47,0,0,1-1.43-1.68c0-1.79,2.06-4.21,2.06-4.38s0-.11-0.28-0.11H24.25a1.23,1.23,0,0,0-.75,1,0.15,0.15,0,0,1-.19.14,0.19,0.19,0,0,1-.17-0.12,4.91,4.91,0,0,1,.76-1.95h2.39Z" transform="translate(-0.26 -1.15)"/><path d="M35.69,6.86c0,0.75-.66,2-3.59,2.53a8.38,8.38,0,0,0-.19,1.28,1.09,1.09,0,0,0,1,1.31c0.86,0,1.59-1.19,1.7-1.19a0.18,0.18,0,0,1,.19.2c0,0.12-1.22,1.84-2.54,1.84s-1.5-1-1.5-2c0-2.95,1.92-5.08,3.63-5.08A1.09,1.09,0,0,1,35.69,6.86Zm-1.06,0a0.58,0.58,0,0,0-.5-0.65c-0.84,0-1.53,1.15-2,2.81A2.49,2.49,0,0,0,34.63,6.84Z" transform="translate(-0.26 -1.15)"/><path d="M36.5,12.64a0.1,0.1,0,0,1-.11-0.09c0-.3,2.12-6.14,2.12-6.24s-0.08-.19-0.31-0.19c-0.9,0-1.56,2.15-1.73,2.15s-0.17,0-.17-0.11a2.32,2.32,0,0,1,2.31-2.45h0.8c0.17,0,.27.06,0.27,0.12S38.4,9.55,38.4,9.69a0.11,0.11,0,0,0,.08.11,3.63,3.63,0,0,0,.7-1.12c1.23-2.12,1.93-3,2.85-3a0.79,0.79,0,0,1,.83.8,0.81,0.81,0,0,1-.81.8c-0.76,0-.72-0.5-1.09-0.5a1.77,1.77,0,0,0-.67.69,26,26,0,0,0-2.75,5.05,0.19,0.19,0,0,1-.19.16H36.5Z" transform="translate(-0.26 -1.15)"/><path d="M42.26,11.28c0.8,0,.67,1,1.47,1a1,1,0,0,0,.86-1,6.35,6.35,0,0,0-.72-2,4.13,4.13,0,0,1-.61-1.73,2.08,2.08,0,0,1,2.26-1.9c0.73,0,1.51.23,1.51,1a0.65,0.65,0,0,1-.67.59c-0.72,0-.66-1.09-1.39-1.09a0.76,0.76,0,0,0-.81.76,5.31,5.31,0,0,0,.69,1.75,4.84,4.84,0,0,1,.7,2.06c0,1.2-1.58,2.09-2.65,2.09a1.06,1.06,0,0,1-1.2-1A0.62,0.62,0,0,1,42.26,11.28Z" transform="translate(-0.26 -1.15)"/><path d="M47.64,7.68a0.18,0.18,0,0,1-.11-0.17c0-.16,1.37-1.86,2.54-1.86a0.45,0.45,0,0,1,.48.45c0,0.65-2,5.26-2,5.52,0,0.11,0,.19.11,0.19a6.8,6.8,0,0,0,1.53-1.12,0.14,0.14,0,0,1,.17.16c0,0.08-1.65,2.06-2.74,2a0.49,0.49,0,0,1-.45-0.62c0-.44,2.06-5.32,2.06-5.4s0-.23-0.12-0.23a3.34,3.34,0,0,0-1.36,1A0.3,0.3,0,0,1,47.64,7.68Zm2.84-5.8a0.75,0.75,0,1,1-.75.75A0.74,0.74,0,0,1,50.47,1.88Z" transform="translate(-0.26 -1.15)"/><path d="M51.93,6.76c-0.14,0-.19,0-0.19-0.11a0.73,0.73,0,0,1,.37-0.55h1.25a0.26,0.26,0,0,0,.17,0,12.68,12.68,0,0,0,.55-1.61,0.18,0.18,0,0,1,.19-0.11H55a0.11,0.11,0,0,1,.14.14c0,0.08-.42,1.31-0.42,1.48a0.13,0.13,0,0,0,.16.12H56.2c0.11,0,.16,0,0.16.19a0.71,0.71,0,0,1-.31.51c-0.27,0-.51,0-0.75,0l-0.7,0a0.69,0.69,0,0,0-.31.56c-0.12.44-1.34,4.55-1.34,4.6a0.22,0.22,0,0,0,.22.27c0.62,0,2.06-1.48,2.14-1.48a0.12,0.12,0,0,1,.14.12,4.54,4.54,0,0,1-3.23,2,0.5,0.5,0,0,1-.51-0.58c0-.22,1.58-5.19,1.58-5.38S53.19,6.76,53,6.76H51.93Z" transform="translate(-0.26 -1.15)"/><path d="M61.11,6.06a0.27,0.27,0,0,1,.27-0.28,0.7,0.7,0,0,1,.75.48,32.07,32.07,0,0,1-3.66,8.22c-1,1.4-1.73,2.37-3.46,2.37-0.55,0-.92-0.16-0.92-0.69a0.69,0.69,0,0,1,.66-0.59c0.62,0,.56.59,1.53,0.59,0.53,0,2.15-1.43,2.15-4.52,0-1-.34-4.87-1.12-4.83s-0.69,1.78-.94,1.78-0.22-.11-0.22-0.34c0-.59.64-2.46,1.75-2.46,1.39,0,1.58,5,1.58,5.4a2.88,2.88,0,0,0,0,.76,6.19,6.19,0,0,0,.72-1.59A20.65,20.65,0,0,0,61.11,6.06Z" transform="translate(-0.26 -1.15)"/><path d="M68.58,12.83c-1.36,0-1.78-1.47-1.78-2.37,0-2.15,1.37-4.74,3.21-4.74,1.25,0,1.89.94,1.89,2.37C71.9,10.16,70.58,12.83,68.58,12.83Zm1.48-6.71c-1,0-2.25,3.2-2.25,4.65,0,0.58,0,1.65.84,1.65s2.23-3.06,2.23-4.65C70.89,6.62,70.7,6.12,70.06,6.12Z" transform="translate(-0.26 -1.15)"/><path d="M73,6.7c-0.09,0-.14,0-0.14-0.06A0.53,0.53,0,0,1,73,6.23c1.56-.12,1.61-0.12,1.7-0.39a19.67,19.67,0,0,1,.76-2.35A3.94,3.94,0,0,1,79,1.15c0.45,0,1.33.23,1.33,0.81a0.68,0.68,0,0,1-.7.8c-1,0-.64-1.09-1.43-1.09-0.33,0-1.34,0-2,3.37-0.08.39-.23,0.87-0.23,1s0.06,0.08.11,0.08h1.67c0.09,0,.12,0,0.12.09a0.88,0.88,0,0,1-.17.5h-1.7c-0.17,0-.23.11-0.28,0.33-1.54,7-1.93,8.22-2.95,9.08a2.89,2.89,0,0,1-1.81.75,0.79,0.79,0,0,1-1-.69,0.6,0.6,0,0,1,.59-0.56c0.58,0,.94.56,1.34,0.56s0.62-.27,1-1.75C74,9,74.46,7,74.46,6.86a0.15,0.15,0,0,0-.14-0.16H73Z" transform="translate(-0.26 -1.15)"/><path d="M82.88,11.55c0,0.59.27,0.64,1,.7a0.35,0.35,0,0,1,.31.09c0,0.12,0,.33-0.17.33s-0.3,0-2.15,0c-0.92,0-1,0-1.23,0s-0.08-.06-0.08-0.14a0.23,0.23,0,0,1,.16-0.25,2.68,2.68,0,0,0,.89-0.19,3.16,3.16,0,0,0,1.06-2c0.61-2.23,1.78-5.91,2-6.67,0-.11.25-0.76,0.25-0.86a0.48,0.48,0,0,0-.47-0.42l-1.2-.23a0.16,0.16,0,0,1-.16-0.2,0.16,0.16,0,0,1,.17-0.17c0.19,0,1.14.06,1.62,0.06l1.56-.06a0.21,0.21,0,0,1,.22.16c0.59,3.18.92,6.53,1,7.64,0.08,0.73.12,0.81,0.19,0.81a0.41,0.41,0,0,0,.22-0.19C89.27,8.35,92.72,3,93.7,1.76A0.43,0.43,0,0,1,94,1.52c0.09,0,1,.06,1.23.06s1-.06,1.45-0.06c0.09,0,.09,0,0.09.17s0,0.25-.16.27a6.52,6.52,0,0,0-.94.16,1.32,1.32,0,0,0-.62,1.11c-1,4.85-1.75,7.78-1.75,8.37a0.53,0.53,0,0,0,.59.58l0.78,0.09c0.08,0,.12,0,0.12.16a0.28,0.28,0,0,1-.17.25c-0.19,0-.28,0-1.43,0-2.11,0-2.51,0-2.78,0s-0.17-.06-0.17-0.14,0-.22.33-0.27l0.72-.11a0.53,0.53,0,0,0,.45-0.41C92.5,9,93.22,5.09,93.83,3a3.72,3.72,0,0,0,.09-0.51,0.07,0.07,0,0,0-.08-0.08,4.86,4.86,0,0,0-.58.69c-2.31,3.27-4.73,7.11-6.11,9.36a0.64,0.64,0,0,1-.33.34s-0.12,0-.19-0.59c-0.42-4.46-1-8.64-1.14-9A0.13,0.13,0,0,0,85.38,3c-0.08,0-.12.06-0.67,1.75A39.36,39.36,0,0,0,82.88,11.55Z" transform="translate(-0.26 -1.15)"/><path d="M96.71,7.68a0.18,0.18,0,0,1-.11-0.17c0-.16,1.37-1.86,2.54-1.86a0.45,0.45,0,0,1,.48.45c0,0.65-2,5.26-2,5.52,0,0.11,0,.19.11,0.19a6.79,6.79,0,0,0,1.53-1.12,0.14,0.14,0,0,1,.17.16c0,0.08-1.65,2.06-2.74,2a0.49,0.49,0,0,1-.45-0.62c0-.44,2.06-5.32,2.06-5.4s0-.23-0.12-0.23a3.34,3.34,0,0,0-1.36,1A0.3,0.3,0,0,1,96.71,7.68Zm2.84-5.8a0.75,0.75,0,1,1-.75.75A0.74,0.74,0,0,1,99.55,1.88Z" transform="translate(-0.26 -1.15)"/><path d="M100.28,11.28c0.8,0,.67,1,1.47,1a1,1,0,0,0,.86-1,6.35,6.35,0,0,0-.72-2,4.13,4.13,0,0,1-.61-1.73,2.08,2.08,0,0,1,2.26-1.9c0.73,0,1.51.23,1.51,1a0.65,0.65,0,0,1-.67.59c-0.72,0-.66-1.09-1.39-1.09a0.76,0.76,0,0,0-.81.76,5.31,5.31,0,0,0,.69,1.75,4.84,4.84,0,0,1,.7,2.06c0,1.2-1.58,2.09-2.65,2.09a1.06,1.06,0,0,1-1.2-1A0.62,0.62,0,0,1,100.28,11.28Z" transform="translate(-0.26 -1.15)"/><path d="M104.9,11.28c0.8,0,.67,1,1.47,1a1,1,0,0,0,.86-1,6.35,6.35,0,0,0-.72-2,4.14,4.14,0,0,1-.61-1.73,2.08,2.08,0,0,1,2.26-1.9c0.73,0,1.51.23,1.51,1a0.65,0.65,0,0,1-.67.59c-0.72,0-.65-1.09-1.39-1.09a0.76,0.76,0,0,0-.81.76,5.31,5.31,0,0,0,.69,1.75,4.84,4.84,0,0,1,.7,2.06c0,1.2-1.57,2.09-2.65,2.09a1.06,1.06,0,0,1-1.2-1A0.62,0.62,0,0,1,104.9,11.28Z" transform="translate(-0.26 -1.15)"/><path d="M111.59,12.83c-1.36,0-1.78-1.47-1.78-2.37,0-2.15,1.37-4.74,3.21-4.74,1.25,0,1.89.94,1.89,2.37C114.91,10.16,113.59,12.83,111.59,12.83Zm1.48-6.71c-1,0-2.25,3.2-2.25,4.65,0,0.58,0,1.65.84,1.65s2.23-3.06,2.23-4.65C113.9,6.62,113.71,6.12,113.07,6.12Z" transform="translate(-0.26 -1.15)"/><path d="M120,12.64a0.16,0.16,0,0,1-.2-0.16c0-.28.87-2.82,0.87-3a0.08,0.08,0,0,0,0-.09,26.29,26.29,0,0,1-2.39,2.9,2.1,2.1,0,0,1-1.42.53c-0.37,0-.65-0.25-0.65-0.94s2-5.21,2-5.74A0.19,0.19,0,0,0,118,6a3,3,0,0,0-1.9,2.14c0,0.06-.06.06-0.14,0.06A0.16,0.16,0,0,1,115.82,8a3.43,3.43,0,0,1,1.29-2,3.73,3.73,0,0,1,2.18-.47,0.26,0.26,0,0,1,.28.27c0,0.3-2.23,5.19-2.23,5.91a0.31,0.31,0,0,0,.3.31c0.53,0,1.08-.51,2.26-2.18A8.43,8.43,0,0,0,121,8c0.72-1.95.69-2.39,0.92-2.39h0.92a0.18,0.18,0,0,1,.2.11c0,0.27-2,5.66-2,6a0.18,0.18,0,0,0,.12.2c0.72,0,1.68-1.79,1.75-1.79s0.22,0,.22.12c0,0.31-1.25,2.34-2.57,2.34H120Z" transform="translate(-0.26 -1.15)"/><path d="M124.08,12.64a0.1,0.1,0,0,1-.11-0.09c0-.3,2.12-6.14,2.12-6.24s-0.08-.19-0.31-0.19c-0.9,0-1.56,2.15-1.73,2.15s-0.17,0-.17-0.11a2.32,2.32,0,0,1,2.31-2.45H127c0.17,0,.27.06,0.27,0.12S126,9.55,126,9.69a0.11,0.11,0,0,0,.08.11,3.63,3.63,0,0,0,.7-1.12c1.23-2.12,1.93-3,2.85-3a0.79,0.79,0,0,1,.83.8,0.81,0.81,0,0,1-.81.8c-0.76,0-.72-0.5-1.09-0.5a1.77,1.77,0,0,0-.67.69,26,26,0,0,0-2.74,5.05,0.19,0.19,0,0,1-.19.16h-0.86Z" transform="translate(-0.26 -1.15)"/><path d="M130.79,7.68a0.18,0.18,0,0,1-.11-0.17c0-.16,1.37-1.86,2.54-1.86a0.45,0.45,0,0,1,.48.45c0,0.65-2,5.26-2,5.52,0,0.11,0,.19.11,0.19a6.83,6.83,0,0,0,1.53-1.12,0.14,0.14,0,0,1,.17.16c0,0.08-1.65,2.06-2.74,2a0.49,0.49,0,0,1-.45-0.62c0-.44,2.06-5.32,2.06-5.4s0-.23-0.12-0.23a3.34,3.34,0,0,0-1.36,1A0.3,0.3,0,0,1,130.79,7.68Zm2.84-5.8a0.75,0.75,0,1,1-.75.75A0.74,0.74,0,0,1,133.63,1.88Z" transform="translate(-0.26 -1.15)"/><path d="M147.6,6.56c0.23,0,.23,0,0.3-0.3a37.22,37.22,0,0,0,.9-3.79c0-.17,0-0.5-1-0.5-0.38,0-.39-0.14-0.39-0.22a0.21,0.21,0,0,1,.19-0.23c0.19,0,.61.06,2,0.06a19,19,0,0,0,1.95-.06c0.14,0,.17,0,0.17.09s0,0.36-.59.36a0.83,0.83,0,0,0-.89.83c-1.95,7.63-2.12,8.5-2.12,8.94s0.33,0.53,1.31.53c0.14,0,.16,0,0.16.11s0,0.3-.22.3-0.22,0-1.78,0c-2,0-2.28,0-2.4,0a0.12,0.12,0,0,1-.12-0.14,0.23,0.23,0,0,1,.14-0.27c1.15,0,1.28-.2,1.5-1.09,0.86-3.52,1-3.93,1-4s-0.16-.12-0.31-0.12h-4.93a0.24,0.24,0,0,0-.28.23c-0.83,3.6-1,4.27-1,4.43,0,0.31.22,0.53,1.34,0.53,0.09,0,.16,0,0.16.2s0,0.2-.22.2-0.44,0-2.21,0c-1.42,0-1.73,0-1.95,0s-0.16,0-.16-0.12,0-.25.37-0.28c0.9-.08,1-0.08,1.22-1,1.7-6.83,2.1-8.12,2.1-8.78,0-.44-0.28-0.53-1.06-0.53-0.28,0-.33-0.08-0.33-0.19a0.29,0.29,0,0,1,.16-0.27c0.3,0,1.29.06,2.11,0.06s1.7-.06,1.92-0.06,0.12,0,.12.23a0.18,0.18,0,0,1-.22.22,1,1,0,0,0-1.2.72c-0.16.55-1,3.46-1,3.74,0,0.12.11,0.12,0.22,0.12h5Z" transform="translate(-0.26 -1.15)"/><path d="M156.18,6.86c0,0.75-.65,2-3.59,2.53a8.53,8.53,0,0,0-.19,1.28,1.09,1.09,0,0,0,1,1.31c0.86,0,1.59-1.19,1.7-1.19a0.18,0.18,0,0,1,.19.2c0,0.12-1.22,1.84-2.54,1.84s-1.5-1-1.5-2c0-2.95,1.92-5.08,3.63-5.08A1.09,1.09,0,0,1,156.18,6.86Zm-1.06,0a0.58,0.58,0,0,0-.5-0.65c-0.84,0-1.53,1.15-2,2.81A2.49,2.49,0,0,0,155.12,6.84Z" transform="translate(-0.26 -1.15)"/><path d="M163.26,5.53a0.08,0.08,0,0,1,.09.09c0,0.34-2.2,5.43-2.2,6a0.17,0.17,0,0,0,.16.2c0.45,0,1.53-1.67,1.72-1.67a0.15,0.15,0,0,1,.14.12c0,0.12-1.76,2.59-2.85,2.59a0.41,0.41,0,0,1-.48-0.36,24.77,24.77,0,0,1,1-2.76,0.06,0.06,0,0,0-.06-0.08,3.43,3.43,0,0,0-.62.84c-0.8,1.06-1.89,2.35-3,2.35a0.62,0.62,0,0,1-.62-0.78c0-1.22,1.47-4.21,2.87-5.52a2.48,2.48,0,0,1,1.9-.81,0.84,0.84,0,0,1,.7.22,1,1,0,0,0,.19.22,3.4,3.4,0,0,1,.39-0.62h0.75ZM161.6,6.68c0-.33-0.09-0.56-0.64-0.56-1.58,0-3.17,4.29-3.17,5.44,0,0.25.09,0.39,0.23,0.39C159.09,12,161.6,8,161.6,6.68Z" transform="translate(-0.26 -1.15)"/><path d="M167,2.5c0-.41-0.22-0.42-0.53-0.42s-0.48,0-.48-0.23,0.19-.23.48-0.27c1-.09,1.64-0.22,1.75-0.22s0.24,0,.24.14c0,0.61-3.06,9.26-3.06,9.61a0.23,0.23,0,0,0,.26.27c0.34,0,1.48-1.47,1.67-1.47s0.14,0.06.14,0.2-2.09,2.71-3.1,2.71a0.49,0.49,0,0,1-.53-0.53C163.83,11.86,167,2.66,167,2.5Z" transform="translate(-0.26 -1.15)"/><path d="M168.56,6.76c-0.14,0-.19,0-0.19-0.11a0.73,0.73,0,0,1,.37-0.55H170a0.26,0.26,0,0,0,.17,0,12.52,12.52,0,0,0,.55-1.61,0.18,0.18,0,0,1,.19-0.11h0.72a0.11,0.11,0,0,1,.14.14c0,0.08-.42,1.31-0.42,1.48a0.13,0.13,0,0,0,.16.12h1.34c0.11,0,.16,0,0.16.19a0.71,0.71,0,0,1-.31.51c-0.27,0-.52,0-0.75,0l-0.7,0a0.69,0.69,0,0,0-.31.56c-0.13.44-1.34,4.55-1.34,4.6a0.22,0.22,0,0,0,.22.27c0.62,0,2.06-1.48,2.14-1.48a0.12,0.12,0,0,1,.14.12,4.54,4.54,0,0,1-3.23,2,0.5,0.5,0,0,1-.51-0.58c0-.22,1.58-5.19,1.58-5.38s-0.08-.11-0.23-0.11h-1.11Z" transform="translate(-0.26 -1.15)"/><path d="M173.11,12.64a0.2,0.2,0,0,1-.2-0.23c0-.16,3-9.79,3-9.9,0-.41-0.22-0.42-0.53-0.42s-0.48,0-.48-0.23,0.19-.23.48-0.27c1-.09,1.64-0.22,1.75-0.22s0.23,0,.23.14-1.93,6.61-1.93,6.71a0.06,0.06,0,0,0,0,.06,0.31,0.31,0,0,0,.14-0.17c1.31-1.81,2.48-2.32,3.09-2.32a1,1,0,0,1,1,1c0,2.07-1.95,6-3.7,6a0.57,0.57,0,0,1-.66-0.62,0.75,0.75,0,0,1,.66-0.76c0.53,0,.37.58,0.78,0.58,0.8,0,1.68-3.66,1.68-4.38a0.75,0.75,0,0,0-.69-0.92c-0.45,0-1.37.7-2.43,2.29a13.8,13.8,0,0,0-1.33,3.42,0.23,0.23,0,0,1-.19.22h-0.76Z" transform="translate(-0.26 -1.15)"/><path class="783abe20-088a-4f55-be7e-6d7f7454b03c" d="M1.46,20.63a6.47,6.47,0,0,0,.22-1.25c0-.22-0.14-0.42-1.17-0.45-0.2,0-.2-0.06-0.2-0.22s0.06-.19.12-0.19,1.42,0.06,1.95.06c0.94,0,1.84-.06,2.12-0.06,0.09,0,.11.12,0.11,0.23a0.21,0.21,0,0,1-.17.22,2.12,2.12,0,0,0-1,.19,3.61,3.61,0,0,0-.53,1.56,37,37,0,0,0-1.17,6,2.29,2.29,0,0,0,2.57,2.34c1.54,0,3.26-.86,4-3.73,1-3.93,1.17-4.82,1.17-5.49a0.78,0.78,0,0,0-.81-0.81A4.23,4.23,0,0,0,8,18.94a0.24,0.24,0,0,1-.09-0.19,0.23,0.23,0,0,1,.2-0.23c0.17,0,1.22.06,1.51,0.06,0.52,0,1.93-.06,2.23-0.06,0.06,0,.11.08,0.11,0.2a0.22,0.22,0,0,1-.14.17L11.24,19a1.41,1.41,0,0,0-1.11,1.2C9.62,21.84,9,25.57,8.18,27.24a4.33,4.33,0,0,1-4.35,2.53c-2,0-3.57-1-3.57-3A49.86,49.86,0,0,1,1.46,20.63Z" transform="translate(-0.26 -1.15)"/><path class="783abe20-088a-4f55-be7e-6d7f7454b03c" d="M14.67,29.64c-0.09,0-.11,0-0.11-0.12,0-.58,2.06-5,2.06-5.8a0.41,0.41,0,0,0-.41-0.45c-1,0-1.79,1.73-3.29,4.29-0.08.14-.27,0.61-0.84,1.95a0.17,0.17,0,0,1-.17.14H11a0.1,0.1,0,0,1-.12-0.12c0-.25,2.12-5.65,2.12-6.1a0.15,0.15,0,0,0-.12-0.19c-1.2,0-1.87,1.56-1.87,1.89a0.15,0.15,0,0,1-.14.08,0.13,0.13,0,0,1-.14-0.14c0-.37.51-2.28,2.2-2.28h1.15a0.13,0.13,0,0,1,.16.14c0,0.19-1.15,3-1.15,3.51,0,0.08,0,.11,0,0.11a1.08,1.08,0,0,0,.42-0.64c1.68-3,2.15-3.24,3-3.24,0.44,0,1.25.06,1.25,0.78,0,1.28-1.9,4.87-1.9,5.47a0.19,0.19,0,0,0,.16.12c0.73,0,1.58-1.64,1.75-1.64a0.21,0.21,0,0,1,.16.14c0,0.2-1.22,2.11-2.5,2.11H14.67Z" transform="translate(-0.26 -1.15)"/><path class="783abe20-088a-4f55-be7e-6d7f7454b03c" d="M19.44,24.68a0.18,0.18,0,0,1-.11-0.17c0-.16,1.37-1.86,2.54-1.86a0.45,0.45,0,0,1,.48.45c0,0.65-2,5.26-2,5.52,0,0.11,0,.19.11,0.19A6.79,6.79,0,0,0,22,27.69a0.14,0.14,0,0,1,.17.16c0,0.08-1.65,2.06-2.74,2A0.49,0.49,0,0,1,19,29.2c0-.44,2.06-5.32,2.06-5.4s0-.23-0.12-0.23a3.34,3.34,0,0,0-1.36,1A0.3,0.3,0,0,1,19.44,24.68Zm2.84-5.8a0.75,0.75,0,1,1-.75.75A0.74,0.74,0,0,1,22.28,18.88Z" transform="translate(-0.26 -1.15)"/><path class="783abe20-088a-4f55-be7e-6d7f7454b03c" d="M26.29,22.72l0.22,0a1.54,1.54,0,0,1,.3,0,0.18,0.18,0,0,1,.17.17c0,0.73-1.76,2.54-1.76,4.57a1.27,1.27,0,0,0,1.06,1.5c1.68,0,2.95-2.95,2.95-4.37,0-.62-0.75-0.62-0.75-1.19a0.74,0.74,0,0,1,.7-0.81c0.67,0,.8.45,0.8,1.06,0,1.47-1.61,6.24-4.41,6.24a1.47,1.47,0,0,1-1.43-1.68c0-1.79,2.06-4.21,2.06-4.38s0-.11-0.28-0.11H24.25a1.23,1.23,0,0,0-.75,1,0.15,0.15,0,0,1-.19.14,0.19,0.19,0,0,1-.17-0.12,4.91,4.91,0,0,1,.76-1.95h2.39Z" transform="translate(-0.26 -1.15)"/><path class="783abe20-088a-4f55-be7e-6d7f7454b03c" d="M35.69,23.86c0,0.75-.66,2-3.59,2.53a8.38,8.38,0,0,0-.19,1.28,1.09,1.09,0,0,0,1,1.31c0.86,0,1.59-1.19,1.7-1.19a0.18,0.18,0,0,1,.19.2c0,0.12-1.22,1.84-2.54,1.84s-1.5-1-1.5-2c0-2.95,1.92-5.08,3.63-5.08A1.09,1.09,0,0,1,35.69,23.86Zm-1.06,0a0.58,0.58,0,0,0-.5-0.65c-0.84,0-1.53,1.15-2,2.81A2.49,2.49,0,0,0,34.63,23.84Z" transform="translate(-0.26 -1.15)"/><path class="783abe20-088a-4f55-be7e-6d7f7454b03c" d="M36.5,29.64a0.1,0.1,0,0,1-.11-0.09c0-.3,2.12-6.14,2.12-6.24s-0.08-.19-0.31-0.19c-0.9,0-1.56,2.15-1.73,2.15s-0.17,0-.17-0.11a2.32,2.32,0,0,1,2.31-2.45h0.8c0.17,0,.27.06,0.27,0.12s-1.26,3.71-1.26,3.85a0.11,0.11,0,0,0,.08.11,3.63,3.63,0,0,0,.7-1.12c1.23-2.12,1.93-3,2.85-3a0.79,0.79,0,0,1,.83.8,0.81,0.81,0,0,1-.81.8c-0.76,0-.72-0.5-1.09-0.5a1.77,1.77,0,0,0-.67.69,26,26,0,0,0-2.75,5.05,0.19,0.19,0,0,1-.19.16H36.5Z" transform="translate(-0.26 -1.15)"/><path class="783abe20-088a-4f55-be7e-6d7f7454b03c" d="M42.26,28.28c0.8,0,.67,1,1.47,1a1,1,0,0,0,.86-1,6.35,6.35,0,0,0-.72-2,4.13,4.13,0,0,1-.61-1.73,2.08,2.08,0,0,1,2.26-1.9c0.73,0,1.51.23,1.51,1a0.65,0.65,0,0,1-.67.59c-0.72,0-.66-1.09-1.39-1.09a0.76,0.76,0,0,0-.81.76,5.31,5.31,0,0,0,.69,1.75,4.84,4.84,0,0,1,.7,2.06c0,1.2-1.58,2.09-2.65,2.09a1.06,1.06,0,0,1-1.2-1A0.62,0.62,0,0,1,42.26,28.28Z" transform="translate(-0.26 -1.15)"/><path class="783abe20-088a-4f55-be7e-6d7f7454b03c" d="M47.64,24.68a0.18,0.18,0,0,1-.11-0.17c0-.16,1.37-1.86,2.54-1.86a0.45,0.45,0,0,1,.48.45c0,0.65-2,5.26-2,5.52,0,0.11,0,.19.11,0.19a6.8,6.8,0,0,0,1.53-1.12,0.14,0.14,0,0,1,.17.16c0,0.08-1.65,2.06-2.74,2a0.49,0.49,0,0,1-.45-0.62c0-.44,2.06-5.32,2.06-5.4s0-.23-0.12-0.23a3.34,3.34,0,0,0-1.36,1A0.3,0.3,0,0,1,47.64,24.68Zm2.84-5.8a0.75,0.75,0,1,1-.75.75A0.74,0.74,0,0,1,50.47,18.88Z" transform="translate(-0.26 -1.15)"/><path class="783abe20-088a-4f55-be7e-6d7f7454b03c" d="M51.93,23.76c-0.14,0-.19,0-0.19-0.11a0.73,0.73,0,0,1,.37-0.55h1.25a0.26,0.26,0,0,0,.17,0,12.68,12.68,0,0,0,.55-1.61,0.18,0.18,0,0,1,.19-0.11H55a0.11,0.11,0,0,1,.14.14c0,0.08-.42,1.31-0.42,1.48a0.13,0.13,0,0,0,.16.12H56.2c0.11,0,.16,0,0.16.19a0.71,0.71,0,0,1-.31.51c-0.27,0-.51,0-0.75,0l-0.7,0a0.69,0.69,0,0,0-.31.56c-0.12.44-1.34,4.55-1.34,4.6a0.22,0.22,0,0,0,.22.27c0.62,0,2.06-1.48,2.14-1.48a0.12,0.12,0,0,1,.14.12,4.54,4.54,0,0,1-3.23,2,0.5,0.5,0,0,1-.51-0.58c0-.22,1.58-5.19,1.58-5.38s-0.08-.11-0.23-0.11H51.93Z" transform="translate(-0.26 -1.15)"/><path class="783abe20-088a-4f55-be7e-6d7f7454b03c" d="M61.11,23.06a0.27,0.27,0,0,1,.27-0.28,0.7,0.7,0,0,1,.75.48,32.07,32.07,0,0,1-3.66,8.22c-1,1.4-1.73,2.37-3.46,2.37-0.55,0-.92-0.16-0.92-0.69a0.69,0.69,0,0,1,.66-0.59c0.62,0,.56.59,1.53,0.59,0.53,0,2.15-1.43,2.15-4.52,0-1-.34-4.87-1.12-4.83s-0.69,1.78-.94,1.78-0.22-.11-0.22-0.34c0-.59.64-2.46,1.75-2.46,1.39,0,1.58,5,1.58,5.4a2.88,2.88,0,0,0,0,.76,6.19,6.19,0,0,0,.72-1.59A20.65,20.65,0,0,0,61.11,23.06Z" transform="translate(-0.26 -1.15)"/><path class="783abe20-088a-4f55-be7e-6d7f7454b03c" d="M68.58,29.83c-1.36,0-1.78-1.47-1.78-2.37,0-2.15,1.37-4.74,3.21-4.74,1.25,0,1.89.94,1.89,2.37C71.9,27.16,70.58,29.83,68.58,29.83Zm1.48-6.71c-1,0-2.25,3.2-2.25,4.65,0,0.58,0,1.65.84,1.65s2.23-3.06,2.23-4.65C70.89,23.62,70.7,23.12,70.06,23.12Z" transform="translate(-0.26 -1.15)"/><path class="783abe20-088a-4f55-be7e-6d7f7454b03c" d="M73,23.7c-0.09,0-.14,0-0.14-0.06A0.53,0.53,0,0,1,73,23.23c1.56-.12,1.61-0.12,1.7-0.39a19.67,19.67,0,0,1,.76-2.35A3.94,3.94,0,0,1,79,18.15c0.45,0,1.33.23,1.33,0.81a0.68,0.68,0,0,1-.7.8c-1,0-.64-1.09-1.43-1.09-0.33,0-1.34,0-2,3.37-0.08.39-.23,0.87-0.23,1s0.06,0.08.11,0.08h1.67c0.09,0,.12,0,0.12.09a0.88,0.88,0,0,1-.17.5h-1.7c-0.17,0-.23.11-0.28,0.33-1.54,7-1.93,8.22-2.95,9.08a2.89,2.89,0,0,1-1.81.75,0.79,0.79,0,0,1-1-.69,0.6,0.6,0,0,1,.59-0.56c0.58,0,.94.56,1.34,0.56s0.62-.27,1-1.75C74,26,74.46,24,74.46,23.86a0.15,0.15,0,0,0-.14-0.16H73Z" transform="translate(-0.26 -1.15)"/><path class="783abe20-088a-4f55-be7e-6d7f7454b03c" d="M82.88,28.55c0,0.59.27,0.64,1,.7a0.35,0.35,0,0,1,.31.09c0,0.12,0,.33-0.17.33s-0.3,0-2.15,0c-0.92,0-1,0-1.23,0s-0.08-.06-0.08-0.14a0.23,0.23,0,0,1,.16-0.25,2.68,2.68,0,0,0,.89-0.19,3.16,3.16,0,0,0,1.06-2c0.61-2.23,1.78-5.91,2-6.67,0-.11.25-0.76,0.25-0.86a0.48,0.48,0,0,0-.47-0.42l-1.2-.23a0.16,0.16,0,0,1-.16-0.2,0.16,0.16,0,0,1,.17-0.17c0.19,0,1.14.06,1.62,0.06l1.56-.06a0.21,0.21,0,0,1,.22.16c0.59,3.18.92,6.53,1,7.64,0.08,0.73.12,0.81,0.19,0.81a0.41,0.41,0,0,0,.22-0.19c1.14-1.59,4.58-6.92,5.57-8.19A0.43,0.43,0,0,1,94,18.52c0.09,0,1,.06,1.23.06s1-.06,1.45-0.06c0.09,0,.09,0,0.09.17s0,0.25-.16.27a6.52,6.52,0,0,0-.94.16,1.32,1.32,0,0,0-.62,1.11c-1,4.85-1.75,7.78-1.75,8.37a0.53,0.53,0,0,0,.59.58l0.78,0.09c0.08,0,.12,0,0.12.16a0.28,0.28,0,0,1-.17.25c-0.19,0-.28,0-1.43,0-2.11,0-2.51,0-2.78,0s-0.17-.06-0.17-0.14,0-.22.33-0.27l0.72-.11a0.53,0.53,0,0,0,.45-0.41C92.5,26,93.22,22.09,93.83,20a3.72,3.72,0,0,0,.09-0.51,0.07,0.07,0,0,0-.08-0.08,4.86,4.86,0,0,0-.58.69c-2.31,3.27-4.73,7.11-6.11,9.36a0.64,0.64,0,0,1-.33.34s-0.12,0-.19-0.59c-0.42-4.46-1-8.64-1.14-9A0.13,0.13,0,0,0,85.38,20c-0.08,0-.12.06-0.67,1.75A39.36,39.36,0,0,0,82.88,28.55Z" transform="translate(-0.26 -1.15)"/><path class="783abe20-088a-4f55-be7e-6d7f7454b03c" d="M96.71,24.68a0.18,0.18,0,0,1-.11-0.17c0-.16,1.37-1.86,2.54-1.86a0.45,0.45,0,0,1,.48.45c0,0.65-2,5.26-2,5.52,0,0.11,0,.19.11,0.19a6.79,6.79,0,0,0,1.53-1.12,0.14,0.14,0,0,1,.17.16c0,0.08-1.65,2.06-2.74,2a0.49,0.49,0,0,1-.45-0.62c0-.44,2.06-5.32,2.06-5.4s0-.23-0.12-0.23a3.34,3.34,0,0,0-1.36,1A0.3,0.3,0,0,1,96.71,24.68Zm2.84-5.8a0.75,0.75,0,1,1-.75.75A0.74,0.74,0,0,1,99.55,18.88Z" transform="translate(-0.26 -1.15)"/><path class="783abe20-088a-4f55-be7e-6d7f7454b03c" d="M100.28,28.28c0.8,0,.67,1,1.47,1a1,1,0,0,0,.86-1,6.35,6.35,0,0,0-.72-2,4.13,4.13,0,0,1-.61-1.73,2.08,2.08,0,0,1,2.26-1.9c0.73,0,1.51.23,1.51,1a0.65,0.65,0,0,1-.67.59c-0.72,0-.66-1.09-1.39-1.09a0.76,0.76,0,0,0-.81.76,5.31,5.31,0,0,0,.69,1.75,4.84,4.84,0,0,1,.7,2.06c0,1.2-1.58,2.09-2.65,2.09a1.06,1.06,0,0,1-1.2-1A0.62,0.62,0,0,1,100.28,28.28Z" transform="translate(-0.26 -1.15)"/><path class="783abe20-088a-4f55-be7e-6d7f7454b03c" d="M104.9,28.28c0.8,0,.67,1,1.47,1a1,1,0,0,0,.86-1,6.35,6.35,0,0,0-.72-2,4.14,4.14,0,0,1-.61-1.73,2.08,2.08,0,0,1,2.26-1.9c0.73,0,1.51.23,1.51,1a0.65,0.65,0,0,1-.67.59c-0.72,0-.65-1.09-1.39-1.09a0.76,0.76,0,0,0-.81.76,5.31,5.31,0,0,0,.69,1.75,4.84,4.84,0,0,1,.7,2.06c0,1.2-1.57,2.09-2.65,2.09a1.06,1.06,0,0,1-1.2-1A0.62,0.62,0,0,1,104.9,28.28Z" transform="translate(-0.26 -1.15)"/><path class="783abe20-088a-4f55-be7e-6d7f7454b03c" d="M111.59,29.83c-1.36,0-1.78-1.47-1.78-2.37,0-2.15,1.37-4.74,3.21-4.74,1.25,0,1.89.94,1.89,2.37C114.91,27.16,113.59,29.83,111.59,29.83Zm1.48-6.71c-1,0-2.25,3.2-2.25,4.65,0,0.58,0,1.65.84,1.65s2.23-3.06,2.23-4.65C113.9,23.62,113.71,23.12,113.07,23.12Z" transform="translate(-0.26 -1.15)"/><path class="783abe20-088a-4f55-be7e-6d7f7454b03c" d="M120,29.64a0.16,0.16,0,0,1-.2-0.16c0-.28.87-2.82,0.87-3a0.08,0.08,0,0,0,0-.09,26.29,26.29,0,0,1-2.39,2.9,2.1,2.1,0,0,1-1.42.53c-0.37,0-.65-0.25-0.65-0.94s2-5.21,2-5.74A0.19,0.19,0,0,0,118,23a3,3,0,0,0-1.9,2.14c0,0.06-.06.06-0.14,0.06a0.16,0.16,0,0,1-.12-0.19,3.43,3.43,0,0,1,1.29-2,3.73,3.73,0,0,1,2.18-.47,0.26,0.26,0,0,1,.28.27c0,0.3-2.23,5.19-2.23,5.91a0.31,0.31,0,0,0,.3.31c0.53,0,1.08-.51,2.26-2.18A8.43,8.43,0,0,0,121,25c0.72-1.95.69-2.39,0.92-2.39h0.92a0.18,0.18,0,0,1,.2.11c0,0.27-2,5.66-2,6a0.18,0.18,0,0,0,.12.2c0.72,0,1.68-1.79,1.75-1.79s0.22,0,.22.12c0,0.31-1.25,2.34-2.57,2.34H120Z" transform="translate(-0.26 -1.15)"/><path class="783abe20-088a-4f55-be7e-6d7f7454b03c" d="M124.08,29.64a0.1,0.1,0,0,1-.11-0.09c0-.3,2.12-6.14,2.12-6.24s-0.08-.19-0.31-0.19c-0.9,0-1.56,2.15-1.73,2.15s-0.17,0-.17-0.11a2.32,2.32,0,0,1,2.31-2.45H127c0.17,0,.27.06,0.27,0.12S126,26.55,126,26.69a0.11,0.11,0,0,0,.08.11,3.63,3.63,0,0,0,.7-1.12c1.23-2.12,1.93-3,2.85-3a0.79,0.79,0,0,1,.83.8,0.81,0.81,0,0,1-.81.8c-0.76,0-.72-0.5-1.09-0.5a1.77,1.77,0,0,0-.67.69,26,26,0,0,0-2.74,5.05,0.19,0.19,0,0,1-.19.16h-0.86Z" transform="translate(-0.26 -1.15)"/><path class="783abe20-088a-4f55-be7e-6d7f7454b03c" d="M130.79,24.68a0.18,0.18,0,0,1-.11-0.17c0-.16,1.37-1.86,2.54-1.86a0.45,0.45,0,0,1,.48.45c0,0.65-2,5.26-2,5.52,0,0.11,0,.19.11,0.19a6.83,6.83,0,0,0,1.53-1.12,0.14,0.14,0,0,1,.17.16c0,0.08-1.65,2.06-2.74,2a0.49,0.49,0,0,1-.45-0.62c0-.44,2.06-5.32,2.06-5.4s0-.23-0.12-0.23a3.34,3.34,0,0,0-1.36,1A0.3,0.3,0,0,1,130.79,24.68Zm2.84-5.8a0.75,0.75,0,1,1-.75.75A0.74,0.74,0,0,1,133.63,18.88Z" transform="translate(-0.26 -1.15)"/><path class="783abe20-088a-4f55-be7e-6d7f7454b03c" d="M147.6,23.56c0.23,0,.23,0,0.3-0.3a37.22,37.22,0,0,0,.9-3.79c0-.17,0-0.5-1-0.5-0.38,0-.39-0.14-0.39-0.22a0.21,0.21,0,0,1,.19-0.23c0.19,0,.61.06,2,0.06a19,19,0,0,0,1.95-.06c0.14,0,.17,0,0.17.09s0,0.36-.59.36a0.83,0.83,0,0,0-.89.83c-1.95,7.63-2.12,8.5-2.12,8.94s0.33,0.53,1.31.53c0.14,0,.16,0,0.16.11s0,0.3-.22.3-0.22,0-1.78,0c-2,0-2.28,0-2.4,0a0.12,0.12,0,0,1-.12-0.14,0.23,0.23,0,0,1,.14-0.27c1.15,0,1.28-.2,1.5-1.09,0.86-3.52,1-3.93,1-4s-0.16-.12-0.31-0.12h-4.93a0.24,0.24,0,0,0-.28.23c-0.83,3.6-1,4.27-1,4.43,0,0.31.22,0.53,1.34,0.53,0.09,0,.16,0,0.16.2s0,0.2-.22.2-0.44,0-2.21,0c-1.42,0-1.73,0-1.95,0s-0.16,0-.16-0.12,0-.25.37-0.28c0.9-.08,1-0.08,1.22-1,1.7-6.83,2.1-8.12,2.1-8.78,0-.44-0.28-0.53-1.06-0.53-0.28,0-.33-0.08-0.33-0.19a0.29,0.29,0,0,1,.16-0.27c0.3,0,1.29.06,2.11,0.06s1.7-.06,1.92-0.06,0.12,0,.12.23a0.18,0.18,0,0,1-.22.22,1,1,0,0,0-1.2.72c-0.16.55-1,3.46-1,3.74,0,0.12.11,0.12,0.22,0.12h5Z" transform="translate(-0.26 -1.15)"/><path class="783abe20-088a-4f55-be7e-6d7f7454b03c" d="M156.18,23.86c0,0.75-.65,2-3.59,2.53a8.53,8.53,0,0,0-.19,1.28,1.09,1.09,0,0,0,1,1.31c0.86,0,1.59-1.19,1.7-1.19a0.18,0.18,0,0,1,.19.2c0,0.12-1.22,1.84-2.54,1.84s-1.5-1-1.5-2c0-2.95,1.92-5.08,3.63-5.08A1.09,1.09,0,0,1,156.18,23.86Zm-1.06,0a0.58,0.58,0,0,0-.5-0.65c-0.84,0-1.53,1.15-2,2.81A2.49,2.49,0,0,0,155.12,23.84Z" transform="translate(-0.26 -1.15)"/><path class="783abe20-088a-4f55-be7e-6d7f7454b03c" d="M163.26,22.53a0.08,0.08,0,0,1,.09.09c0,0.34-2.2,5.43-2.2,6a0.17,0.17,0,0,0,.16.2c0.45,0,1.53-1.67,1.72-1.67a0.15,0.15,0,0,1,.14.12c0,0.12-1.76,2.59-2.85,2.59a0.41,0.41,0,0,1-.48-0.36,24.77,24.77,0,0,1,1-2.76,0.06,0.06,0,0,0-.06-0.08,3.43,3.43,0,0,0-.62.84c-0.8,1.06-1.89,2.35-3,2.35a0.62,0.62,0,0,1-.62-0.78c0-1.22,1.47-4.21,2.87-5.52a2.48,2.48,0,0,1,1.9-.81,0.84,0.84,0,0,1,.7.22,1,1,0,0,0,.19.22,3.4,3.4,0,0,1,.39-0.62h0.75Zm-1.65,1.15c0-.33-0.09-0.56-0.64-0.56-1.58,0-3.17,4.29-3.17,5.44,0,0.25.09,0.39,0.23,0.39C159.09,29,161.6,25,161.6,23.68Z" transform="translate(-0.26 -1.15)"/><path class="783abe20-088a-4f55-be7e-6d7f7454b03c" d="M167,19.5c0-.41-0.22-0.42-0.53-0.42s-0.48,0-.48-0.23,0.19-.23.48-0.27c1-.09,1.64-0.22,1.75-0.22s0.24,0,.24.14c0,0.61-3.06,9.26-3.06,9.61a0.23,0.23,0,0,0,.26.27c0.34,0,1.48-1.47,1.67-1.47s0.14,0.06.14,0.2-2.09,2.71-3.1,2.71a0.49,0.49,0,0,1-.53-0.53C163.83,28.86,167,19.66,167,19.5Z" transform="translate(-0.26 -1.15)"/><path class="783abe20-088a-4f55-be7e-6d7f7454b03c" d="M168.56,23.76c-0.14,0-.19,0-0.19-0.11a0.73,0.73,0,0,1,.37-0.55H170a0.26,0.26,0,0,0,.17,0,12.52,12.52,0,0,0,.55-1.61,0.18,0.18,0,0,1,.19-0.11h0.72a0.11,0.11,0,0,1,.14.14c0,0.08-.42,1.31-0.42,1.48a0.13,0.13,0,0,0,.16.12h1.34c0.11,0,.16,0,0.16.19a0.71,0.71,0,0,1-.31.51c-0.27,0-.52,0-0.75,0l-0.7,0a0.69,0.69,0,0,0-.31.56c-0.13.44-1.34,4.55-1.34,4.6a0.22,0.22,0,0,0,.22.27c0.62,0,2.06-1.48,2.14-1.48a0.12,0.12,0,0,1,.14.12,4.54,4.54,0,0,1-3.23,2,0.5,0.5,0,0,1-.51-0.58c0-.22,1.58-5.19,1.58-5.38s-0.08-.11-0.23-0.11h-1.11Z" transform="translate(-0.26 -1.15)"/><path class="783abe20-088a-4f55-be7e-6d7f7454b03c" d="M173.11,29.64a0.2,0.2,0,0,1-.2-0.23c0-.16,3-9.79,3-9.9,0-.41-0.22-0.42-0.53-0.42s-0.48,0-.48-0.23,0.19-.23.48-0.27c1-.09,1.64-0.22,1.75-0.22s0.23,0,.23.14-1.93,6.61-1.93,6.71a0.06,0.06,0,0,0,0,.06,0.31,0.31,0,0,0,.14-0.17c1.31-1.81,2.48-2.32,3.09-2.32a1,1,0,0,1,1,1c0,2.07-1.95,6-3.7,6a0.57,0.57,0,0,1-.66-0.62,0.75,0.75,0,0,1,.66-0.76c0.53,0,.37.58,0.78,0.58,0.8,0,1.68-3.66,1.68-4.38a0.75,0.75,0,0,0-.69-0.92c-0.45,0-1.37.7-2.43,2.29a13.8,13.8,0,0,0-1.33,3.42,0.23,0.23,0,0,1-.19.22h-0.76Z" transform="translate(-0.26 -1.15)"/><path class="bc86e4f0-3b1d-4fd1-a6a1-00eedcbf41f4" d="M1.46,37.63a6.47,6.47,0,0,0,.22-1.25c0-.22-0.14-0.42-1.17-0.45-0.2,0-.2-0.06-0.2-0.22s0.06-.19.12-0.19,1.42,0.06,1.95.06c0.94,0,1.84-.06,2.12-0.06,0.09,0,.11.12,0.11,0.23a0.21,0.21,0,0,1-.17.22,2.12,2.12,0,0,0-1,.19,3.61,3.61,0,0,0-.53,1.56,37,37,0,0,0-1.17,6,2.29,2.29,0,0,0,2.57,2.34c1.54,0,3.26-.86,4-3.73,1-3.93,1.17-4.82,1.17-5.49a0.78,0.78,0,0,0-.81-0.81A4.23,4.23,0,0,0,8,35.94a0.24,0.24,0,0,1-.09-0.19,0.23,0.23,0,0,1,.2-0.23c0.17,0,1.22.06,1.51,0.06,0.52,0,1.93-.06,2.23-0.06,0.06,0,.11.08,0.11,0.2a0.22,0.22,0,0,1-.14.17L11.24,36a1.41,1.41,0,0,0-1.11,1.2C9.62,38.84,9,42.57,8.18,44.24a4.33,4.33,0,0,1-4.35,2.53c-2,0-3.57-1-3.57-3A49.86,49.86,0,0,1,1.46,37.63Z" transform="translate(-0.26 -1.15)"/><path class="bc86e4f0-3b1d-4fd1-a6a1-00eedcbf41f4" d="M14.67,46.64c-0.09,0-.11,0-0.11-0.12,0-.58,2.06-5,2.06-5.8a0.41,0.41,0,0,0-.41-0.45c-1,0-1.79,1.73-3.29,4.29-0.08.14-.27,0.61-0.84,1.95a0.17,0.17,0,0,1-.17.14H11a0.1,0.1,0,0,1-.12-0.12c0-.25,2.12-5.65,2.12-6.1a0.15,0.15,0,0,0-.12-0.19c-1.2,0-1.87,1.56-1.87,1.89a0.15,0.15,0,0,1-.14.08,0.13,0.13,0,0,1-.14-0.14c0-.37.51-2.28,2.2-2.28h1.15a0.13,0.13,0,0,1,.16.14c0,0.19-1.15,3-1.15,3.51,0,0.08,0,.11,0,0.11a1.08,1.08,0,0,0,.42-0.64c1.68-3,2.15-3.24,3-3.24,0.44,0,1.25.06,1.25,0.78,0,1.28-1.9,4.87-1.9,5.47a0.19,0.19,0,0,0,.16.12c0.73,0,1.58-1.64,1.75-1.64a0.21,0.21,0,0,1,.16.14c0,0.2-1.22,2.11-2.5,2.11H14.67Z" transform="translate(-0.26 -1.15)"/><path class="bc86e4f0-3b1d-4fd1-a6a1-00eedcbf41f4" d="M19.44,41.68a0.18,0.18,0,0,1-.11-0.17c0-.16,1.37-1.86,2.54-1.86a0.45,0.45,0,0,1,.48.45c0,0.65-2,5.26-2,5.52,0,0.11,0,.19.11,0.19A6.79,6.79,0,0,0,22,44.69a0.14,0.14,0,0,1,.17.16c0,0.08-1.65,2.06-2.74,2A0.49,0.49,0,0,1,19,46.2c0-.44,2.06-5.32,2.06-5.4s0-.23-0.12-0.23a3.34,3.34,0,0,0-1.36,1A0.3,0.3,0,0,1,19.44,41.68Zm2.84-5.8a0.75,0.75,0,1,1-.75.75A0.74,0.74,0,0,1,22.28,35.88Z" transform="translate(-0.26 -1.15)"/><path class="bc86e4f0-3b1d-4fd1-a6a1-00eedcbf41f4" d="M26.29,39.72l0.22,0a1.54,1.54,0,0,1,.3,0,0.18,0.18,0,0,1,.17.17c0,0.73-1.76,2.54-1.76,4.57a1.27,1.27,0,0,0,1.06,1.5c1.68,0,2.95-2.95,2.95-4.37,0-.62-0.75-0.62-0.75-1.19a0.74,0.74,0,0,1,.7-0.81c0.67,0,.8.45,0.8,1.06,0,1.47-1.61,6.24-4.41,6.24a1.47,1.47,0,0,1-1.43-1.68c0-1.79,2.06-4.21,2.06-4.38s0-.11-0.28-0.11H24.25a1.23,1.23,0,0,0-.75,1,0.15,0.15,0,0,1-.19.14,0.19,0.19,0,0,1-.17-0.12,4.91,4.91,0,0,1,.76-1.95h2.39Z" transform="translate(-0.26 -1.15)"/><path class="bc86e4f0-3b1d-4fd1-a6a1-00eedcbf41f4" d="M35.69,40.86c0,0.75-.66,2-3.59,2.53a8.38,8.38,0,0,0-.19,1.28,1.09,1.09,0,0,0,1,1.31c0.86,0,1.59-1.19,1.7-1.19a0.18,0.18,0,0,1,.19.2c0,0.12-1.22,1.84-2.54,1.84s-1.5-1-1.5-2c0-2.95,1.92-5.08,3.63-5.08A1.09,1.09,0,0,1,35.69,40.86Zm-1.06,0a0.58,0.58,0,0,0-.5-0.65c-0.84,0-1.53,1.15-2,2.81A2.49,2.49,0,0,0,34.63,40.84Z" transform="translate(-0.26 -1.15)"/><path class="bc86e4f0-3b1d-4fd1-a6a1-00eedcbf41f4" d="M36.5,46.64a0.1,0.1,0,0,1-.11-0.09c0-.3,2.12-6.14,2.12-6.24s-0.08-.19-0.31-0.19c-0.9,0-1.56,2.15-1.73,2.15s-0.17,0-.17-0.11a2.32,2.32,0,0,1,2.31-2.45h0.8c0.17,0,.27.06,0.27,0.12s-1.26,3.71-1.26,3.85a0.11,0.11,0,0,0,.08.11,3.63,3.63,0,0,0,.7-1.12c1.23-2.12,1.93-3,2.85-3a0.79,0.79,0,0,1,.83.8,0.81,0.81,0,0,1-.81.8c-0.76,0-.72-0.5-1.09-0.5a1.77,1.77,0,0,0-.67.69,26,26,0,0,0-2.75,5.05,0.19,0.19,0,0,1-.19.16H36.5Z" transform="translate(-0.26 -1.15)"/><path class="bc86e4f0-3b1d-4fd1-a6a1-00eedcbf41f4" d="M42.26,45.28c0.8,0,.67,1,1.47,1a1,1,0,0,0,.86-1,6.35,6.35,0,0,0-.72-2,4.13,4.13,0,0,1-.61-1.73,2.08,2.08,0,0,1,2.26-1.9c0.73,0,1.51.23,1.51,1a0.65,0.65,0,0,1-.67.59c-0.72,0-.66-1.09-1.39-1.09a0.76,0.76,0,0,0-.81.76,5.31,5.31,0,0,0,.69,1.75,4.84,4.84,0,0,1,.7,2.06c0,1.2-1.58,2.09-2.65,2.09a1.06,1.06,0,0,1-1.2-1A0.62,0.62,0,0,1,42.26,45.28Z" transform="translate(-0.26 -1.15)"/><path class="bc86e4f0-3b1d-4fd1-a6a1-00eedcbf41f4" d="M47.64,41.68a0.18,0.18,0,0,1-.11-0.17c0-.16,1.37-1.86,2.54-1.86a0.45,0.45,0,0,1,.48.45c0,0.65-2,5.26-2,5.52,0,0.11,0,.19.11,0.19a6.8,6.8,0,0,0,1.53-1.12,0.14,0.14,0,0,1,.17.16c0,0.08-1.65,2.06-2.74,2a0.49,0.49,0,0,1-.45-0.62c0-.44,2.06-5.32,2.06-5.4s0-.23-0.12-0.23a3.34,3.34,0,0,0-1.36,1A0.3,0.3,0,0,1,47.64,41.68Zm2.84-5.8a0.75,0.75,0,1,1-.75.75A0.74,0.74,0,0,1,50.47,35.88Z" transform="translate(-0.26 -1.15)"/><path class="bc86e4f0-3b1d-4fd1-a6a1-00eedcbf41f4" d="M51.93,40.76c-0.14,0-.19,0-0.19-0.11a0.73,0.73,0,0,1,.37-0.55h1.25a0.26,0.26,0,0,0,.17,0,12.68,12.68,0,0,0,.55-1.61,0.18,0.18,0,0,1,.19-0.11H55a0.11,0.11,0,0,1,.14.14c0,0.08-.42,1.31-0.42,1.48a0.13,0.13,0,0,0,.16.12H56.2c0.11,0,.16,0,0.16.19a0.71,0.71,0,0,1-.31.51c-0.27,0-.51,0-0.75,0l-0.7,0a0.69,0.69,0,0,0-.31.56c-0.12.44-1.34,4.55-1.34,4.6a0.22,0.22,0,0,0,.22.27c0.62,0,2.06-1.48,2.14-1.48a0.12,0.12,0,0,1,.14.12,4.54,4.54,0,0,1-3.23,2,0.5,0.5,0,0,1-.51-0.58c0-.22,1.58-5.19,1.58-5.38s-0.08-.11-0.23-0.11H51.93Z" transform="translate(-0.26 -1.15)"/><path class="bc86e4f0-3b1d-4fd1-a6a1-00eedcbf41f4" d="M61.11,40.06a0.27,0.27,0,0,1,.27-0.28,0.7,0.7,0,0,1,.75.48,32.07,32.07,0,0,1-3.66,8.22c-1,1.4-1.73,2.37-3.46,2.37-0.55,0-.92-0.16-0.92-0.69a0.69,0.69,0,0,1,.66-0.59c0.62,0,.56.59,1.53,0.59,0.53,0,2.15-1.43,2.15-4.52,0-1-.34-4.87-1.12-4.83s-0.69,1.78-.94,1.78-0.22-.11-0.22-0.34c0-.59.64-2.46,1.75-2.46,1.39,0,1.58,5,1.58,5.4a2.88,2.88,0,0,0,0,.76,6.19,6.19,0,0,0,.72-1.59A20.65,20.65,0,0,0,61.11,40.06Z" transform="translate(-0.26 -1.15)"/><path class="bc86e4f0-3b1d-4fd1-a6a1-00eedcbf41f4" d="M68.58,46.83c-1.36,0-1.78-1.47-1.78-2.37,0-2.15,1.37-4.74,3.21-4.74,1.25,0,1.89.94,1.89,2.37C71.9,44.16,70.58,46.83,68.58,46.83Zm1.48-6.71c-1,0-2.25,3.2-2.25,4.65,0,0.58,0,1.65.84,1.65s2.23-3.06,2.23-4.65C70.89,40.62,70.7,40.12,70.06,40.12Z" transform="translate(-0.26 -1.15)"/><path class="bc86e4f0-3b1d-4fd1-a6a1-00eedcbf41f4" d="M73,40.7c-0.09,0-.14,0-0.14-0.06A0.53,0.53,0,0,1,73,40.23c1.56-.12,1.61-0.12,1.7-0.39a19.67,19.67,0,0,1,.76-2.35A3.94,3.94,0,0,1,79,35.15c0.45,0,1.33.23,1.33,0.81a0.68,0.68,0,0,1-.7.8c-1,0-.64-1.09-1.43-1.09-0.33,0-1.34,0-2,3.37-0.08.39-.23,0.87-0.23,1s0.06,0.08.11,0.08h1.67c0.09,0,.12,0,0.12.09a0.88,0.88,0,0,1-.17.5h-1.7c-0.17,0-.23.11-0.28,0.33-1.54,7-1.93,8.22-2.95,9.08a2.89,2.89,0,0,1-1.81.75,0.79,0.79,0,0,1-1-.69,0.6,0.6,0,0,1,.59-0.56c0.58,0,.94.56,1.34,0.56s0.62-.27,1-1.75C74,43,74.46,41,74.46,40.86a0.15,0.15,0,0,0-.14-0.16H73Z" transform="translate(-0.26 -1.15)"/><path class="bc86e4f0-3b1d-4fd1-a6a1-00eedcbf41f4" d="M82.88,45.55c0,0.59.27,0.64,1,.7a0.35,0.35,0,0,1,.31.09c0,0.12,0,.33-0.17.33s-0.3,0-2.15,0c-0.92,0-1,0-1.23,0s-0.08-.06-0.08-0.14a0.23,0.23,0,0,1,.16-0.25,2.68,2.68,0,0,0,.89-0.19,3.16,3.16,0,0,0,1.06-2c0.61-2.23,1.78-5.91,2-6.67,0-.11.25-0.76,0.25-0.86a0.48,0.48,0,0,0-.47-0.42l-1.2-.23a0.16,0.16,0,0,1-.16-0.2,0.16,0.16,0,0,1,.17-0.17c0.19,0,1.14.06,1.62,0.06l1.56-.06a0.21,0.21,0,0,1,.22.16c0.59,3.18.92,6.53,1,7.64,0.08,0.73.12,0.81,0.19,0.81a0.41,0.41,0,0,0,.22-0.19c1.14-1.59,4.58-6.92,5.57-8.19A0.43,0.43,0,0,1,94,35.52c0.09,0,1,.06,1.23.06s1-.06,1.45-0.06c0.09,0,.09,0,0.09.17s0,0.25-.16.27a6.52,6.52,0,0,0-.94.16,1.32,1.32,0,0,0-.62,1.11c-1,4.85-1.75,7.78-1.75,8.37a0.53,0.53,0,0,0,.59.58l0.78,0.09c0.08,0,.12,0,0.12.16a0.28,0.28,0,0,1-.17.25c-0.19,0-.28,0-1.43,0-2.11,0-2.51,0-2.78,0s-0.17-.06-0.17-0.14,0-.22.33-0.27l0.72-.11a0.53,0.53,0,0,0,.45-0.41C92.5,43,93.22,39.09,93.83,37a3.72,3.72,0,0,0,.09-0.51,0.07,0.07,0,0,0-.08-0.08,4.86,4.86,0,0,0-.58.69c-2.31,3.27-4.73,7.11-6.11,9.36a0.64,0.64,0,0,1-.33.34s-0.12,0-.19-0.59c-0.42-4.46-1-8.64-1.14-9A0.13,0.13,0,0,0,85.38,37c-0.08,0-.12.06-0.67,1.75A39.36,39.36,0,0,0,82.88,45.55Z" transform="translate(-0.26 -1.15)"/><path class="bc86e4f0-3b1d-4fd1-a6a1-00eedcbf41f4" d="M96.71,41.68a0.18,0.18,0,0,1-.11-0.17c0-.16,1.37-1.86,2.54-1.86a0.45,0.45,0,0,1,.48.45c0,0.65-2,5.26-2,5.52,0,0.11,0,.19.11,0.19a6.79,6.79,0,0,0,1.53-1.12,0.14,0.14,0,0,1,.17.16c0,0.08-1.65,2.06-2.74,2a0.49,0.49,0,0,1-.45-0.62c0-.44,2.06-5.32,2.06-5.4s0-.23-0.12-0.23a3.34,3.34,0,0,0-1.36,1A0.3,0.3,0,0,1,96.71,41.68Zm2.84-5.8a0.75,0.75,0,1,1-.75.75A0.74,0.74,0,0,1,99.55,35.88Z" transform="translate(-0.26 -1.15)"/><path class="bc86e4f0-3b1d-4fd1-a6a1-00eedcbf41f4" d="M100.28,45.28c0.8,0,.67,1,1.47,1a1,1,0,0,0,.86-1,6.35,6.35,0,0,0-.72-2,4.13,4.13,0,0,1-.61-1.73,2.08,2.08,0,0,1,2.26-1.9c0.73,0,1.51.23,1.51,1a0.65,0.65,0,0,1-.67.59c-0.72,0-.66-1.09-1.39-1.09a0.76,0.76,0,0,0-.81.76,5.31,5.31,0,0,0,.69,1.75,4.84,4.84,0,0,1,.7,2.06c0,1.2-1.58,2.09-2.65,2.09a1.06,1.06,0,0,1-1.2-1A0.62,0.62,0,0,1,100.28,45.28Z" transform="translate(-0.26 -1.15)"/><path class="bc86e4f0-3b1d-4fd1-a6a1-00eedcbf41f4" d="M104.9,45.28c0.8,0,.67,1,1.47,1a1,1,0,0,0,.86-1,6.35,6.35,0,0,0-.72-2,4.14,4.14,0,0,1-.61-1.73,2.08,2.08,0,0,1,2.26-1.9c0.73,0,1.51.23,1.51,1a0.65,0.65,0,0,1-.67.59c-0.72,0-.65-1.09-1.39-1.09a0.76,0.76,0,0,0-.81.76,5.31,5.31,0,0,0,.69,1.75,4.84,4.84,0,0,1,.7,2.06c0,1.2-1.57,2.09-2.65,2.09a1.06,1.06,0,0,1-1.2-1A0.62,0.62,0,0,1,104.9,45.28Z" transform="translate(-0.26 -1.15)"/><path class="bc86e4f0-3b1d-4fd1-a6a1-00eedcbf41f4" d="M111.59,46.83c-1.36,0-1.78-1.47-1.78-2.37,0-2.15,1.37-4.74,3.21-4.74,1.25,0,1.89.94,1.89,2.37C114.91,44.16,113.59,46.83,111.59,46.83Zm1.48-6.71c-1,0-2.25,3.2-2.25,4.65,0,0.58,0,1.65.84,1.65s2.23-3.06,2.23-4.65C113.9,40.62,113.71,40.12,113.07,40.12Z" transform="translate(-0.26 -1.15)"/><path class="bc86e4f0-3b1d-4fd1-a6a1-00eedcbf41f4" d="M120,46.64a0.16,0.16,0,0,1-.2-0.16c0-.28.87-2.82,0.87-3a0.08,0.08,0,0,0,0-.09,26.29,26.29,0,0,1-2.39,2.9,2.1,2.1,0,0,1-1.42.53c-0.37,0-.65-0.25-0.65-0.94s2-5.21,2-5.74A0.19,0.19,0,0,0,118,40a3,3,0,0,0-1.9,2.14c0,0.06-.06.06-0.14,0.06a0.16,0.16,0,0,1-.12-0.19,3.43,3.43,0,0,1,1.29-2,3.73,3.73,0,0,1,2.18-.47,0.26,0.26,0,0,1,.28.27c0,0.3-2.23,5.19-2.23,5.91a0.31,0.31,0,0,0,.3.31c0.53,0,1.08-.51,2.26-2.18A8.43,8.43,0,0,0,121,42c0.72-1.95.69-2.39,0.92-2.39h0.92a0.18,0.18,0,0,1,.2.11c0,0.27-2,5.66-2,6a0.18,0.18,0,0,0,.12.2c0.72,0,1.68-1.79,1.75-1.79s0.22,0,.22.12c0,0.31-1.25,2.34-2.57,2.34H120Z" transform="translate(-0.26 -1.15)"/><path class="bc86e4f0-3b1d-4fd1-a6a1-00eedcbf41f4" d="M124.08,46.64a0.1,0.1,0,0,1-.11-0.09c0-.3,2.12-6.14,2.12-6.24s-0.08-.19-0.31-0.19c-0.9,0-1.56,2.15-1.73,2.15s-0.17,0-.17-0.11a2.32,2.32,0,0,1,2.31-2.45H127c0.17,0,.27.06,0.27,0.12S126,43.55,126,43.69a0.11,0.11,0,0,0,.08.11,3.63,3.63,0,0,0,.7-1.12c1.23-2.12,1.93-3,2.85-3a0.79,0.79,0,0,1,.83.8,0.81,0.81,0,0,1-.81.8c-0.76,0-.72-0.5-1.09-0.5a1.77,1.77,0,0,0-.67.69,26,26,0,0,0-2.74,5.05,0.19,0.19,0,0,1-.19.16h-0.86Z" transform="translate(-0.26 -1.15)"/><path class="bc86e4f0-3b1d-4fd1-a6a1-00eedcbf41f4" d="M130.79,41.68a0.18,0.18,0,0,1-.11-0.17c0-.16,1.37-1.86,2.54-1.86a0.45,0.45,0,0,1,.48.45c0,0.65-2,5.26-2,5.52,0,0.11,0,.19.11,0.19a6.83,6.83,0,0,0,1.53-1.12,0.14,0.14,0,0,1,.17.16c0,0.08-1.65,2.06-2.74,2a0.49,0.49,0,0,1-.45-0.62c0-.44,2.06-5.32,2.06-5.4s0-.23-0.12-0.23a3.34,3.34,0,0,0-1.36,1A0.3,0.3,0,0,1,130.79,41.68Zm2.84-5.8a0.75,0.75,0,1,1-.75.75A0.74,0.74,0,0,1,133.63,35.88Z" transform="translate(-0.26 -1.15)"/><path class="bc86e4f0-3b1d-4fd1-a6a1-00eedcbf41f4" d="M147.6,40.56c0.23,0,.23,0,0.3-0.3a37.22,37.22,0,0,0,.9-3.79c0-.17,0-0.5-1-0.5-0.38,0-.39-0.14-0.39-0.22a0.21,0.21,0,0,1,.19-0.23c0.19,0,.61.06,2,0.06a19,19,0,0,0,1.95-.06c0.14,0,.17,0,0.17.09s0,0.36-.59.36a0.83,0.83,0,0,0-.89.83c-1.95,7.63-2.12,8.5-2.12,8.94s0.33,0.53,1.31.53c0.14,0,.16,0,0.16.11s0,0.3-.22.3-0.22,0-1.78,0c-2,0-2.28,0-2.4,0a0.12,0.12,0,0,1-.12-0.14,0.23,0.23,0,0,1,.14-0.27c1.15,0,1.28-.2,1.5-1.09,0.86-3.52,1-3.93,1-4s-0.16-.12-0.31-0.12h-4.93a0.24,0.24,0,0,0-.28.23c-0.83,3.6-1,4.27-1,4.43,0,0.31.22,0.53,1.34,0.53,0.09,0,.16,0,0.16.2s0,0.2-.22.2-0.44,0-2.21,0c-1.42,0-1.73,0-1.95,0s-0.16,0-.16-0.12,0-.25.37-0.28c0.9-.08,1-0.08,1.22-1,1.7-6.83,2.1-8.12,2.1-8.78,0-.44-0.28-0.53-1.06-0.53-0.28,0-.33-0.08-0.33-0.19a0.29,0.29,0,0,1,.16-0.27c0.3,0,1.29.06,2.11,0.06s1.7-.06,1.92-0.06,0.12,0,.12.23a0.18,0.18,0,0,1-.22.22,1,1,0,0,0-1.2.72c-0.16.55-1,3.46-1,3.74,0,0.12.11,0.12,0.22,0.12h5Z" transform="translate(-0.26 -1.15)"/><path class="bc86e4f0-3b1d-4fd1-a6a1-00eedcbf41f4" d="M156.18,40.86c0,0.75-.65,2-3.59,2.53a8.53,8.53,0,0,0-.19,1.28,1.09,1.09,0,0,0,1,1.31c0.86,0,1.59-1.19,1.7-1.19a0.18,0.18,0,0,1,.19.2c0,0.12-1.22,1.84-2.54,1.84s-1.5-1-1.5-2c0-2.95,1.92-5.08,3.63-5.08A1.09,1.09,0,0,1,156.18,40.86Zm-1.06,0a0.58,0.58,0,0,0-.5-0.65c-0.84,0-1.53,1.15-2,2.81A2.49,2.49,0,0,0,155.12,40.84Z" transform="translate(-0.26 -1.15)"/><path class="bc86e4f0-3b1d-4fd1-a6a1-00eedcbf41f4" d="M163.26,39.53a0.08,0.08,0,0,1,.09.09c0,0.34-2.2,5.43-2.2,6a0.17,0.17,0,0,0,.16.2c0.45,0,1.53-1.67,1.72-1.67a0.15,0.15,0,0,1,.14.12c0,0.12-1.76,2.59-2.85,2.59a0.41,0.41,0,0,1-.48-0.36,24.77,24.77,0,0,1,1-2.76,0.06,0.06,0,0,0-.06-0.08,3.43,3.43,0,0,0-.62.84c-0.8,1.06-1.89,2.35-3,2.35a0.62,0.62,0,0,1-.62-0.78c0-1.22,1.47-4.21,2.87-5.52a2.48,2.48,0,0,1,1.9-.81,0.84,0.84,0,0,1,.7.22,1,1,0,0,0,.19.22,3.4,3.4,0,0,1,.39-0.62h0.75Zm-1.65,1.15c0-.33-0.09-0.56-0.64-0.56-1.58,0-3.17,4.29-3.17,5.44,0,0.25.09,0.39,0.23,0.39C159.09,46,161.6,42,161.6,40.68Z" transform="translate(-0.26 -1.15)"/><path class="bc86e4f0-3b1d-4fd1-a6a1-00eedcbf41f4" d="M167,36.5c0-.41-0.22-0.42-0.53-0.42s-0.48,0-.48-0.23,0.19-.23.48-0.27c1-.09,1.64-0.22,1.75-0.22s0.24,0,.24.14c0,0.61-3.06,9.26-3.06,9.61a0.23,0.23,0,0,0,.26.27c0.34,0,1.48-1.47,1.67-1.47s0.14,0.06.14,0.2-2.09,2.71-3.1,2.71a0.49,0.49,0,0,1-.53-0.53C163.83,45.86,167,36.66,167,36.5Z" transform="translate(-0.26 -1.15)"/><path class="bc86e4f0-3b1d-4fd1-a6a1-00eedcbf41f4" d="M168.56,40.76c-0.14,0-.19,0-0.19-0.11a0.73,0.73,0,0,1,.37-0.55H170a0.26,0.26,0,0,0,.17,0,12.52,12.52,0,0,0,.55-1.61,0.18,0.18,0,0,1,.19-0.11h0.72a0.11,0.11,0,0,1,.14.14c0,0.08-.42,1.31-0.42,1.48a0.13,0.13,0,0,0,.16.12h1.34c0.11,0,.16,0,0.16.19a0.71,0.71,0,0,1-.31.51c-0.27,0-.52,0-0.75,0l-0.7,0a0.69,0.69,0,0,0-.31.56c-0.13.44-1.34,4.55-1.34,4.6a0.22,0.22,0,0,0,.22.27c0.62,0,2.06-1.48,2.14-1.48a0.12,0.12,0,0,1,.14.12,4.54,4.54,0,0,1-3.23,2,0.5,0.5,0,0,1-.51-0.58c0-.22,1.58-5.19,1.58-5.38s-0.08-.11-0.23-0.11h-1.11Z" transform="translate(-0.26 -1.15)"/><path class="bc86e4f0-3b1d-4fd1-a6a1-00eedcbf41f4" d="M173.11,46.64a0.2,0.2,0,0,1-.2-0.23c0-.16,3-9.79,3-9.9,0-.41-0.22-0.42-0.53-0.42s-0.48,0-.48-0.23,0.19-.23.48-0.27c1-.09,1.64-0.22,1.75-0.22s0.23,0,.23.14-1.93,6.61-1.93,6.71a0.06,0.06,0,0,0,0,.06,0.31,0.31,0,0,0,.14-0.17c1.31-1.81,2.48-2.32,3.09-2.32a1,1,0,0,1,1,1c0,2.07-1.95,6-3.7,6a0.57,0.57,0,0,1-.66-0.62,0.75,0.75,0,0,1,.66-0.76c0.53,0,.37.58,0.78,0.58,0.8,0,1.68-3.66,1.68-4.38a0.75,0.75,0,0,0-.69-0.92c-0.45,0-1.37.7-2.43,2.29a13.8,13.8,0,0,0-1.33,3.42,0.23,0.23,0,0,1-.19.22h-0.76Z" transform="translate(-0.26 -1.15)"/><path class="b206b83a-b476-44c2-a706-88c81646d10b" d="M1.46,54.63a6.47,6.47,0,0,0,.22-1.25c0-.22-0.14-0.42-1.17-0.45-0.2,0-.2-0.06-0.2-0.22s0.06-.19.12-0.19,1.42,0.06,1.95.06c0.94,0,1.84-.06,2.12-0.06,0.09,0,.11.12,0.11,0.23a0.21,0.21,0,0,1-.17.22,2.12,2.12,0,0,0-1,.19,3.61,3.61,0,0,0-.53,1.56,37,37,0,0,0-1.17,6,2.29,2.29,0,0,0,2.57,2.34c1.54,0,3.26-.86,4-3.73,1-3.93,1.17-4.82,1.17-5.49a0.78,0.78,0,0,0-.81-0.81A4.23,4.23,0,0,0,8,52.94a0.24,0.24,0,0,1-.09-0.19,0.23,0.23,0,0,1,.2-0.23c0.17,0,1.22.06,1.51,0.06,0.52,0,1.93-.06,2.23-0.06,0.06,0,.11.08,0.11,0.2a0.22,0.22,0,0,1-.14.17L11.24,53a1.41,1.41,0,0,0-1.11,1.2C9.62,55.84,9,59.57,8.18,61.24a4.33,4.33,0,0,1-4.35,2.53c-2,0-3.57-1-3.57-3A49.86,49.86,0,0,1,1.46,54.63Z" transform="translate(-0.26 -1.15)"/><path class="b206b83a-b476-44c2-a706-88c81646d10b" d="M14.67,63.64c-0.09,0-.11,0-0.11-0.12,0-.58,2.06-5,2.06-5.8a0.41,0.41,0,0,0-.41-0.45c-1,0-1.79,1.73-3.29,4.29-0.08.14-.27,0.61-0.84,1.95a0.17,0.17,0,0,1-.17.14H11a0.1,0.1,0,0,1-.12-0.12c0-.25,2.12-5.65,2.12-6.1a0.15,0.15,0,0,0-.12-0.19c-1.2,0-1.87,1.56-1.87,1.89a0.15,0.15,0,0,1-.14.08,0.13,0.13,0,0,1-.14-0.14c0-.37.51-2.28,2.2-2.28h1.15a0.13,0.13,0,0,1,.16.14c0,0.19-1.15,3-1.15,3.51,0,0.08,0,.11,0,0.11a1.08,1.08,0,0,0,.42-0.64c1.68-3,2.15-3.24,3-3.24,0.44,0,1.25.06,1.25,0.78,0,1.28-1.9,4.87-1.9,5.47a0.19,0.19,0,0,0,.16.12c0.73,0,1.58-1.64,1.75-1.64a0.21,0.21,0,0,1,.16.14c0,0.2-1.22,2.11-2.5,2.11H14.67Z" transform="translate(-0.26 -1.15)"/><path class="b206b83a-b476-44c2-a706-88c81646d10b" d="M19.44,58.68a0.18,0.18,0,0,1-.11-0.17c0-.16,1.37-1.86,2.54-1.86a0.45,0.45,0,0,1,.48.45c0,0.65-2,5.26-2,5.52,0,0.11,0,.19.11,0.19A6.79,6.79,0,0,0,22,61.69a0.14,0.14,0,0,1,.17.16c0,0.08-1.65,2.06-2.74,2A0.49,0.49,0,0,1,19,63.2c0-.44,2.06-5.32,2.06-5.4s0-.23-0.12-0.23a3.34,3.34,0,0,0-1.36,1A0.3,0.3,0,0,1,19.44,58.68Zm2.84-5.8a0.75,0.75,0,1,1-.75.75A0.74,0.74,0,0,1,22.28,52.88Z" transform="translate(-0.26 -1.15)"/><path class="b206b83a-b476-44c2-a706-88c81646d10b" d="M26.29,56.72l0.22,0a1.54,1.54,0,0,1,.3,0,0.18,0.18,0,0,1,.17.17c0,0.73-1.76,2.54-1.76,4.57a1.27,1.27,0,0,0,1.06,1.5c1.68,0,2.95-2.95,2.95-4.37,0-.62-0.75-0.62-0.75-1.19a0.74,0.74,0,0,1,.7-0.81c0.67,0,.8.45,0.8,1.06,0,1.47-1.61,6.24-4.41,6.24a1.47,1.47,0,0,1-1.43-1.68c0-1.79,2.06-4.21,2.06-4.38s0-.11-0.28-0.11H24.25a1.23,1.23,0,0,0-.75,1,0.15,0.15,0,0,1-.19.14,0.19,0.19,0,0,1-.17-0.12,4.91,4.91,0,0,1,.76-1.95h2.39Z" transform="translate(-0.26 -1.15)"/><path class="b206b83a-b476-44c2-a706-88c81646d10b" d="M35.69,57.86c0,0.75-.66,2-3.59,2.53a8.38,8.38,0,0,0-.19,1.28,1.09,1.09,0,0,0,1,1.31c0.86,0,1.59-1.19,1.7-1.19a0.18,0.18,0,0,1,.19.2c0,0.12-1.22,1.84-2.54,1.84s-1.5-1-1.5-2c0-2.95,1.92-5.08,3.63-5.08A1.09,1.09,0,0,1,35.69,57.86Zm-1.06,0a0.58,0.58,0,0,0-.5-0.65c-0.84,0-1.53,1.15-2,2.81A2.49,2.49,0,0,0,34.63,57.84Z" transform="translate(-0.26 -1.15)"/><path class="b206b83a-b476-44c2-a706-88c81646d10b" d="M36.5,63.64a0.1,0.1,0,0,1-.11-0.09c0-.3,2.12-6.14,2.12-6.24s-0.08-.19-0.31-0.19c-0.9,0-1.56,2.15-1.73,2.15s-0.17,0-.17-0.11a2.32,2.32,0,0,1,2.31-2.45h0.8c0.17,0,.27.06,0.27,0.12s-1.26,3.71-1.26,3.85a0.11,0.11,0,0,0,.08.11,3.63,3.63,0,0,0,.7-1.12c1.23-2.12,1.93-3,2.85-3a0.79,0.79,0,0,1,.83.8,0.81,0.81,0,0,1-.81.8c-0.76,0-.72-0.5-1.09-0.5a1.77,1.77,0,0,0-.67.69,26,26,0,0,0-2.75,5.05,0.19,0.19,0,0,1-.19.16H36.5Z" transform="translate(-0.26 -1.15)"/><path class="b206b83a-b476-44c2-a706-88c81646d10b" d="M42.26,62.28c0.8,0,.67,1,1.47,1a1,1,0,0,0,.86-1,6.35,6.35,0,0,0-.72-2,4.13,4.13,0,0,1-.61-1.73,2.08,2.08,0,0,1,2.26-1.9c0.73,0,1.51.23,1.51,1a0.65,0.65,0,0,1-.67.59c-0.72,0-.66-1.09-1.39-1.09a0.76,0.76,0,0,0-.81.76,5.31,5.31,0,0,0,.69,1.75,4.84,4.84,0,0,1,.7,2.06c0,1.2-1.58,2.09-2.65,2.09a1.06,1.06,0,0,1-1.2-1A0.62,0.62,0,0,1,42.26,62.28Z" transform="translate(-0.26 -1.15)"/><path class="b206b83a-b476-44c2-a706-88c81646d10b" d="M47.64,58.68a0.18,0.18,0,0,1-.11-0.17c0-.16,1.37-1.86,2.54-1.86a0.45,0.45,0,0,1,.48.45c0,0.65-2,5.26-2,5.52,0,0.11,0,.19.11,0.19a6.8,6.8,0,0,0,1.53-1.12,0.14,0.14,0,0,1,.17.16c0,0.08-1.65,2.06-2.74,2a0.49,0.49,0,0,1-.45-0.62c0-.44,2.06-5.32,2.06-5.4s0-.23-0.12-0.23a3.34,3.34,0,0,0-1.36,1A0.3,0.3,0,0,1,47.64,58.68Zm2.84-5.8a0.75,0.75,0,1,1-.75.75A0.74,0.74,0,0,1,50.47,52.88Z" transform="translate(-0.26 -1.15)"/><path class="b206b83a-b476-44c2-a706-88c81646d10b" d="M51.93,57.76c-0.14,0-.19,0-0.19-0.11a0.73,0.73,0,0,1,.37-0.55h1.25a0.26,0.26,0,0,0,.17,0,12.68,12.68,0,0,0,.55-1.61,0.18,0.18,0,0,1,.19-0.11H55a0.11,0.11,0,0,1,.14.14c0,0.08-.42,1.31-0.42,1.48a0.13,0.13,0,0,0,.16.12H56.2c0.11,0,.16,0,0.16.19a0.71,0.71,0,0,1-.31.51c-0.27,0-.51,0-0.75,0l-0.7,0a0.69,0.69,0,0,0-.31.56c-0.12.44-1.34,4.55-1.34,4.6a0.22,0.22,0,0,0,.22.27c0.62,0,2.06-1.48,2.14-1.48a0.12,0.12,0,0,1,.14.12,4.54,4.54,0,0,1-3.23,2,0.5,0.5,0,0,1-.51-0.58c0-.22,1.58-5.19,1.58-5.38s-0.08-.11-0.23-0.11H51.93Z" transform="translate(-0.26 -1.15)"/><path class="b206b83a-b476-44c2-a706-88c81646d10b" d="M61.11,57.06a0.27,0.27,0,0,1,.27-0.28,0.7,0.7,0,0,1,.75.48,32.07,32.07,0,0,1-3.66,8.22c-1,1.4-1.73,2.37-3.46,2.37-0.55,0-.92-0.16-0.92-0.69a0.69,0.69,0,0,1,.66-0.59c0.62,0,.56.59,1.53,0.59,0.53,0,2.15-1.43,2.15-4.52,0-1-.34-4.87-1.12-4.83s-0.69,1.78-.94,1.78-0.22-.11-0.22-0.34c0-.59.64-2.46,1.75-2.46,1.39,0,1.58,5,1.58,5.4a2.88,2.88,0,0,0,0,.76,6.19,6.19,0,0,0,.72-1.59A20.65,20.65,0,0,0,61.11,57.06Z" transform="translate(-0.26 -1.15)"/><path class="b206b83a-b476-44c2-a706-88c81646d10b" d="M68.58,63.83c-1.36,0-1.78-1.47-1.78-2.37,0-2.15,1.37-4.74,3.21-4.74,1.25,0,1.89.94,1.89,2.37C71.9,61.16,70.58,63.83,68.58,63.83Zm1.48-6.71c-1,0-2.25,3.2-2.25,4.65,0,0.58,0,1.65.84,1.65s2.23-3.06,2.23-4.65C70.89,57.62,70.7,57.12,70.06,57.12Z" transform="translate(-0.26 -1.15)"/><path class="b206b83a-b476-44c2-a706-88c81646d10b" d="M73,57.7c-0.09,0-.14,0-0.14-0.06A0.53,0.53,0,0,1,73,57.23c1.56-.12,1.61-0.12,1.7-0.39a19.67,19.67,0,0,1,.76-2.35A3.94,3.94,0,0,1,79,52.15c0.45,0,1.33.23,1.33,0.81a0.68,0.68,0,0,1-.7.8c-1,0-.64-1.09-1.43-1.09-0.33,0-1.34,0-2,3.37-0.08.39-.23,0.87-0.23,1s0.06,0.08.11,0.08h1.67c0.09,0,.12,0,0.12.09a0.88,0.88,0,0,1-.17.5h-1.7c-0.17,0-.23.11-0.28,0.33-1.54,7-1.93,8.22-2.95,9.08a2.89,2.89,0,0,1-1.81.75,0.79,0.79,0,0,1-1-.69,0.6,0.6,0,0,1,.59-0.56c0.58,0,.94.56,1.34,0.56s0.62-.27,1-1.75C74,60,74.46,58,74.46,57.86a0.15,0.15,0,0,0-.14-0.16H73Z" transform="translate(-0.26 -1.15)"/><path class="b206b83a-b476-44c2-a706-88c81646d10b" d="M82.88,62.55c0,0.59.27,0.64,1,.7a0.35,0.35,0,0,1,.31.09c0,0.12,0,.33-0.17.33s-0.3,0-2.15,0c-0.92,0-1,0-1.23,0s-0.08-.06-0.08-0.14a0.23,0.23,0,0,1,.16-0.25,2.68,2.68,0,0,0,.89-0.19,3.16,3.16,0,0,0,1.06-2c0.61-2.23,1.78-5.91,2-6.67,0-.11.25-0.76,0.25-0.86a0.48,0.48,0,0,0-.47-0.42l-1.2-.23a0.16,0.16,0,0,1-.16-0.2,0.16,0.16,0,0,1,.17-0.17c0.19,0,1.14.06,1.62,0.06l1.56-.06a0.21,0.21,0,0,1,.22.16c0.59,3.18.92,6.53,1,7.64,0.08,0.73.12,0.81,0.19,0.81a0.41,0.41,0,0,0,.22-0.19c1.14-1.59,4.58-6.92,5.57-8.19A0.43,0.43,0,0,1,94,52.52c0.09,0,1,.06,1.23.06s1-.06,1.45-0.06c0.09,0,.09,0,0.09.17s0,0.25-.16.27a6.52,6.52,0,0,0-.94.16,1.32,1.32,0,0,0-.62,1.11c-1,4.85-1.75,7.78-1.75,8.37a0.53,0.53,0,0,0,.59.58l0.78,0.09c0.08,0,.12,0,0.12.16a0.28,0.28,0,0,1-.17.25c-0.19,0-.28,0-1.43,0-2.11,0-2.51,0-2.78,0s-0.17-.06-0.17-0.14,0-.22.33-0.27l0.72-.11a0.53,0.53,0,0,0,.45-0.41C92.5,60,93.22,56.09,93.83,54a3.72,3.72,0,0,0,.09-0.51,0.07,0.07,0,0,0-.08-0.08,4.86,4.86,0,0,0-.58.69c-2.31,3.27-4.73,7.11-6.11,9.36a0.64,0.64,0,0,1-.33.34s-0.12,0-.19-0.59c-0.42-4.46-1-8.64-1.14-9A0.13,0.13,0,0,0,85.38,54c-0.08,0-.12.06-0.67,1.75A39.36,39.36,0,0,0,82.88,62.55Z" transform="translate(-0.26 -1.15)"/><path class="b206b83a-b476-44c2-a706-88c81646d10b" d="M96.71,58.68a0.18,0.18,0,0,1-.11-0.17c0-.16,1.37-1.86,2.54-1.86a0.45,0.45,0,0,1,.48.45c0,0.65-2,5.26-2,5.52,0,0.11,0,.19.11,0.19a6.79,6.79,0,0,0,1.53-1.12,0.14,0.14,0,0,1,.17.16c0,0.08-1.65,2.06-2.74,2a0.49,0.49,0,0,1-.45-0.62c0-.44,2.06-5.32,2.06-5.4s0-.23-0.12-0.23a3.34,3.34,0,0,0-1.36,1A0.3,0.3,0,0,1,96.71,58.68Zm2.84-5.8a0.75,0.75,0,1,1-.75.75A0.74,0.74,0,0,1,99.55,52.88Z" transform="translate(-0.26 -1.15)"/><path class="b206b83a-b476-44c2-a706-88c81646d10b" d="M100.28,62.28c0.8,0,.67,1,1.47,1a1,1,0,0,0,.86-1,6.35,6.35,0,0,0-.72-2,4.13,4.13,0,0,1-.61-1.73,2.08,2.08,0,0,1,2.26-1.9c0.73,0,1.51.23,1.51,1a0.65,0.65,0,0,1-.67.59c-0.72,0-.66-1.09-1.39-1.09a0.76,0.76,0,0,0-.81.76,5.31,5.31,0,0,0,.69,1.75,4.84,4.84,0,0,1,.7,2.06c0,1.2-1.58,2.09-2.65,2.09a1.06,1.06,0,0,1-1.2-1A0.62,0.62,0,0,1,100.28,62.28Z" transform="translate(-0.26 -1.15)"/><path class="b206b83a-b476-44c2-a706-88c81646d10b" d="M104.9,62.28c0.8,0,.67,1,1.47,1a1,1,0,0,0,.86-1,6.35,6.35,0,0,0-.72-2,4.14,4.14,0,0,1-.61-1.73,2.08,2.08,0,0,1,2.26-1.9c0.73,0,1.51.23,1.51,1a0.65,0.65,0,0,1-.67.59c-0.72,0-.65-1.09-1.39-1.09a0.76,0.76,0,0,0-.81.76,5.31,5.31,0,0,0,.69,1.75,4.84,4.84,0,0,1,.7,2.06c0,1.2-1.57,2.09-2.65,2.09a1.06,1.06,0,0,1-1.2-1A0.62,0.62,0,0,1,104.9,62.28Z" transform="translate(-0.26 -1.15)"/><path class="b206b83a-b476-44c2-a706-88c81646d10b" d="M111.59,63.83c-1.36,0-1.78-1.47-1.78-2.37,0-2.15,1.37-4.74,3.21-4.74,1.25,0,1.89.94,1.89,2.37C114.91,61.16,113.59,63.83,111.59,63.83Zm1.48-6.71c-1,0-2.25,3.2-2.25,4.65,0,0.58,0,1.65.84,1.65s2.23-3.06,2.23-4.65C113.9,57.62,113.71,57.12,113.07,57.12Z" transform="translate(-0.26 -1.15)"/><path class="b206b83a-b476-44c2-a706-88c81646d10b" d="M120,63.64a0.16,0.16,0,0,1-.2-0.16c0-.28.87-2.82,0.87-3a0.08,0.08,0,0,0,0-.09,26.29,26.29,0,0,1-2.39,2.9,2.1,2.1,0,0,1-1.42.53c-0.37,0-.65-0.25-0.65-0.94s2-5.21,2-5.74A0.19,0.19,0,0,0,118,57a3,3,0,0,0-1.9,2.14c0,0.06-.06.06-0.14,0.06a0.16,0.16,0,0,1-.12-0.19,3.43,3.43,0,0,1,1.29-2,3.73,3.73,0,0,1,2.18-.47,0.26,0.26,0,0,1,.28.27c0,0.3-2.23,5.19-2.23,5.91a0.31,0.31,0,0,0,.3.31c0.53,0,1.08-.51,2.26-2.18A8.43,8.43,0,0,0,121,59c0.72-1.95.69-2.39,0.92-2.39h0.92a0.18,0.18,0,0,1,.2.11c0,0.27-2,5.66-2,6a0.18,0.18,0,0,0,.12.2c0.72,0,1.68-1.79,1.75-1.79s0.22,0,.22.12c0,0.31-1.25,2.34-2.57,2.34H120Z" transform="translate(-0.26 -1.15)"/><path class="b206b83a-b476-44c2-a706-88c81646d10b" d="M124.08,63.64a0.1,0.1,0,0,1-.11-0.09c0-.3,2.12-6.14,2.12-6.24s-0.08-.19-0.31-0.19c-0.9,0-1.56,2.15-1.73,2.15s-0.17,0-.17-0.11a2.32,2.32,0,0,1,2.31-2.45H127c0.17,0,.27.06,0.27,0.12S126,60.55,126,60.69a0.11,0.11,0,0,0,.08.11,3.63,3.63,0,0,0,.7-1.12c1.23-2.12,1.93-3,2.85-3a0.79,0.79,0,0,1,.83.8,0.81,0.81,0,0,1-.81.8c-0.76,0-.72-0.5-1.09-0.5a1.77,1.77,0,0,0-.67.69,26,26,0,0,0-2.74,5.05,0.19,0.19,0,0,1-.19.16h-0.86Z" transform="translate(-0.26 -1.15)"/><path class="b206b83a-b476-44c2-a706-88c81646d10b" d="M130.79,58.68a0.18,0.18,0,0,1-.11-0.17c0-.16,1.37-1.86,2.54-1.86a0.45,0.45,0,0,1,.48.45c0,0.65-2,5.26-2,5.52,0,0.11,0,.19.11,0.19a6.83,6.83,0,0,0,1.53-1.12,0.14,0.14,0,0,1,.17.16c0,0.08-1.65,2.06-2.74,2a0.49,0.49,0,0,1-.45-0.62c0-.44,2.06-5.32,2.06-5.4s0-.23-0.12-0.23a3.34,3.34,0,0,0-1.36,1A0.3,0.3,0,0,1,130.79,58.68Zm2.84-5.8a0.75,0.75,0,1,1-.75.75A0.74,0.74,0,0,1,133.63,52.88Z" transform="translate(-0.26 -1.15)"/><path class="b206b83a-b476-44c2-a706-88c81646d10b" d="M147.6,57.56c0.23,0,.23,0,0.3-0.3a37.22,37.22,0,0,0,.9-3.79c0-.17,0-0.5-1-0.5-0.38,0-.39-0.14-0.39-0.22a0.21,0.21,0,0,1,.19-0.23c0.19,0,.61.06,2,0.06a19,19,0,0,0,1.95-.06c0.14,0,.17,0,0.17.09s0,0.36-.59.36a0.83,0.83,0,0,0-.89.83c-1.95,7.63-2.12,8.5-2.12,8.94s0.33,0.53,1.31.53c0.14,0,.16,0,0.16.11s0,0.3-.22.3-0.22,0-1.78,0c-2,0-2.28,0-2.4,0a0.12,0.12,0,0,1-.12-0.14,0.23,0.23,0,0,1,.14-0.27c1.15,0,1.28-.2,1.5-1.09,0.86-3.52,1-3.93,1-4s-0.16-.12-0.31-0.12h-4.93a0.24,0.24,0,0,0-.28.23c-0.83,3.6-1,4.27-1,4.43,0,0.31.22,0.53,1.34,0.53,0.09,0,.16,0,0.16.2s0,0.2-.22.2-0.44,0-2.21,0c-1.42,0-1.73,0-1.95,0s-0.16,0-.16-0.12,0-.25.37-0.28c0.9-.08,1-0.08,1.22-1,1.7-6.83,2.1-8.12,2.1-8.78,0-.44-0.28-0.53-1.06-0.53-0.28,0-.33-0.08-0.33-0.19a0.29,0.29,0,0,1,.16-0.27c0.3,0,1.29.06,2.11,0.06s1.7-.06,1.92-0.06,0.12,0,.12.23a0.18,0.18,0,0,1-.22.22,1,1,0,0,0-1.2.72c-0.16.55-1,3.46-1,3.74,0,0.12.11,0.12,0.22,0.12h5Z" transform="translate(-0.26 -1.15)"/><path class="b206b83a-b476-44c2-a706-88c81646d10b" d="M156.18,57.86c0,0.75-.65,2-3.59,2.53a8.53,8.53,0,0,0-.19,1.28,1.09,1.09,0,0,0,1,1.31c0.86,0,1.59-1.19,1.7-1.19a0.18,0.18,0,0,1,.19.2c0,0.12-1.22,1.84-2.54,1.84s-1.5-1-1.5-2c0-2.95,1.92-5.08,3.63-5.08A1.09,1.09,0,0,1,156.18,57.86Zm-1.06,0a0.58,0.58,0,0,0-.5-0.65c-0.84,0-1.53,1.15-2,2.81A2.49,2.49,0,0,0,155.12,57.84Z" transform="translate(-0.26 -1.15)"/><path class="b206b83a-b476-44c2-a706-88c81646d10b" d="M163.26,56.53a0.08,0.08,0,0,1,.09.09c0,0.34-2.2,5.43-2.2,6a0.17,0.17,0,0,0,.16.2c0.45,0,1.53-1.67,1.72-1.67a0.15,0.15,0,0,1,.14.12c0,0.12-1.76,2.59-2.85,2.59a0.41,0.41,0,0,1-.48-0.36,24.77,24.77,0,0,1,1-2.76,0.06,0.06,0,0,0-.06-0.08,3.43,3.43,0,0,0-.62.84c-0.8,1.06-1.89,2.35-3,2.35a0.62,0.62,0,0,1-.62-0.78c0-1.22,1.47-4.21,2.87-5.52a2.48,2.48,0,0,1,1.9-.81,0.84,0.84,0,0,1,.7.22,1,1,0,0,0,.19.22,3.4,3.4,0,0,1,.39-0.62h0.75Zm-1.65,1.15c0-.33-0.09-0.56-0.64-0.56-1.58,0-3.17,4.29-3.17,5.44,0,0.25.09,0.39,0.23,0.39C159.09,63,161.6,59,161.6,57.68Z" transform="translate(-0.26 -1.15)"/><path class="b206b83a-b476-44c2-a706-88c81646d10b" d="M167,53.5c0-.41-0.22-0.42-0.53-0.42s-0.48,0-.48-0.23,0.19-.23.48-0.27c1-.09,1.64-0.22,1.75-0.22s0.24,0,.24.14c0,0.61-3.06,9.26-3.06,9.61a0.23,0.23,0,0,0,.26.27c0.34,0,1.48-1.47,1.67-1.47s0.14,0.06.14,0.2-2.09,2.71-3.1,2.71a0.49,0.49,0,0,1-.53-0.53C163.83,62.86,167,53.66,167,53.5Z" transform="translate(-0.26 -1.15)"/><path class="b206b83a-b476-44c2-a706-88c81646d10b" d="M168.56,57.76c-0.14,0-.19,0-0.19-0.11a0.73,0.73,0,0,1,.37-0.55H170a0.26,0.26,0,0,0,.17,0,12.52,12.52,0,0,0,.55-1.61,0.18,0.18,0,0,1,.19-0.11h0.72a0.11,0.11,0,0,1,.14.14c0,0.08-.42,1.31-0.42,1.48a0.13,0.13,0,0,0,.16.12h1.34c0.11,0,.16,0,0.16.19a0.71,0.71,0,0,1-.31.51c-0.27,0-.52,0-0.75,0l-0.7,0a0.69,0.69,0,0,0-.31.56c-0.13.44-1.34,4.55-1.34,4.6a0.22,0.22,0,0,0,.22.27c0.62,0,2.06-1.48,2.14-1.48a0.12,0.12,0,0,1,.14.12,4.54,4.54,0,0,1-3.23,2,0.5,0.5,0,0,1-.51-0.58c0-.22,1.58-5.19,1.58-5.38s-0.08-.11-0.23-0.11h-1.11Z" transform="translate(-0.26 -1.15)"/><path class="b206b83a-b476-44c2-a706-88c81646d10b" d="M173.11,63.64a0.2,0.2,0,0,1-.2-0.23c0-.16,3-9.79,3-9.9,0-.41-0.22-0.42-0.53-0.42s-0.48,0-.48-0.23,0.19-.23.48-0.27c1-.09,1.64-0.22,1.75-0.22s0.23,0,.23.14-1.93,6.61-1.93,6.71a0.06,0.06,0,0,0,0,.06,0.31,0.31,0,0,0,.14-0.17c1.31-1.81,2.48-2.32,3.09-2.32a1,1,0,0,1,1,1c0,2.07-1.95,6-3.7,6a0.57,0.57,0,0,1-.66-0.62,0.75,0.75,0,0,1,.66-0.76c0.53,0,.37.58,0.78,0.58,0.8,0,1.68-3.66,1.68-4.38a0.75,0.75,0,0,0-.69-0.92c-0.45,0-1.37.7-2.43,2.29a13.8,13.8,0,0,0-1.33,3.42,0.23,0.23,0,0,1-.19.22h-0.76Z" transform="translate(-0.26 -1.15)"/></svg>