<?xml version="1.0" encoding="utf-8"?>
<!-- Generator: Adobe Illustrator 19.1.0, SVG Export Plug-In . SVG Version: 6.00 Build 0)  -->
<svg version="1.0" id="Layer_1" xmlns="http://www.w3.org/2000/svg" xmlns:xlink="http://www.w3.org/1999/xlink" x="0px" y="0px"
	 width="295px" height="52px" viewBox="0 0 295 52" enable-background="new 0 0 295 52" xml:space="preserve">
<g>
	<path fill="#FFFFFF" d="M2.697,4.243c0.229-1.118,0.356-1.474,0.356-2.033c0-0.356-0.229-0.686-1.907-0.737
		c-0.33,0-0.33-0.102-0.33-0.356c0-0.229,0.101-0.305,0.204-0.305c0.254,0,2.313,0.101,3.176,0.101c1.525,0,3-0.101,3.457-0.101
		c0.152,0,0.178,0.204,0.178,0.381c0,0.204-0.152,0.356-0.28,0.356c-0.636,0-1.449,0.127-1.627,0.305
		C5.697,2.083,5.493,2.54,5.061,4.396c-1.246,5.389-1.907,8.185-1.907,9.811c0,3.507,3.051,3.813,4.194,3.813
		c2.516,0,5.312-1.398,6.558-6.075c1.703-6.404,1.907-7.853,1.907-8.947c0-1.042-0.636-1.143-1.322-1.321
		c-0.508-0.127-1.093-0.178-1.194-0.178c-0.051,0-0.153-0.178-0.153-0.305c0-0.101,0.077-0.381,0.331-0.381
		c0.28,0,1.983,0.101,2.465,0.101c0.839,0,3.152-0.101,3.634-0.101c0.102,0,0.178,0.127,0.178,0.33
		c-0.025,0.076-0.076,0.255-0.229,0.28l-0.89,0.127c-0.509,0.076-1.322,0.381-1.805,1.957c-0.838,2.72-1.829,8.794-3.177,11.514
		c-1.448,2.923-3.711,4.118-7.091,4.118c-3.227,0-5.82-1.602-5.82-4.906C0.74,12.275,1.731,9.022,2.697,4.243z"/>
	<path fill="#FFFFFF" d="M24.225,18.935c-0.152,0-0.178-0.051-0.178-0.204c0-0.94,3.355-8.133,3.355-9.455
		c0-0.585-0.431-0.737-0.661-0.737c-1.677,0-2.922,2.822-5.362,6.99c-0.127,0.229-0.432,0.991-1.373,3.177
		c-0.05,0.127-0.101,0.229-0.279,0.229h-1.5c-0.126,0-0.203-0.025-0.203-0.204c0-0.406,3.456-9.2,3.456-9.937
		c0-0.127-0.025-0.305-0.203-0.305c-1.958,0-3.051,2.541-3.051,3.075c0,0.076-0.153,0.127-0.229,0.127
		c-0.101,0-0.229-0.051-0.229-0.229c0-0.61,0.838-3.711,3.584-3.711h1.88c0.152,0,0.254,0.05,0.254,0.229
		c0,0.305-1.88,4.905-1.88,5.718c0,0.127,0,0.179,0.076,0.179c0.152,0,0.177-0.127,0.686-1.043c2.745-4.956,3.508-5.286,4.956-5.286
		c0.712,0,2.034,0.101,2.034,1.271c0,2.084-3.101,7.93-3.101,8.922c0,0.101,0.177,0.204,0.254,0.204
		c1.195,0,2.567-2.669,2.847-2.669c0.101,0,0.254,0.152,0.254,0.229c0,0.33-1.983,3.431-4.067,3.431H24.225z"/>
	<path fill="#FFFFFF" d="M32.003,10.852c-0.076,0-0.178-0.152-0.178-0.28c0-0.255,2.237-3.025,4.143-3.025
		c0.178,0,0.788,0.076,0.788,0.737c0,1.067-3.228,8.566-3.228,8.998c0,0.177,0.051,0.305,0.178,0.305c0.61,0,2.364-1.83,2.49-1.83
		c0.127,0,0.28,0,0.28,0.254c0,0.127-2.694,3.356-4.473,3.228c-0.737,0-0.737-0.635-0.737-1.017c0-0.711,3.355-8.667,3.355-8.794
		c0-0.076,0-0.381-0.204-0.381c-0.661,0-1.601,1.118-2.211,1.678C32.104,10.801,32.053,10.852,32.003,10.852z M36.628,1.397
		c0.687,0,1.221,0.534,1.221,1.22c0,0.687-0.534,1.221-1.221,1.221c-0.686,0-1.22-0.534-1.22-1.221
		C35.409,1.931,35.943,1.397,36.628,1.397z"/>
	<path fill="#FFFFFF" d="M43.161,7.649c0.101,0,0.229-0.025,0.355-0.05C43.644,7.573,43.821,7.548,44,7.548
		c0.204,0,0.28,0.204,0.28,0.28c0,1.194-2.872,4.143-2.872,7.447c0,1.067,0.406,2.439,1.728,2.439c2.745,0,4.804-4.803,4.804-7.116
		c0-1.017-1.219-1.017-1.219-1.932c0-0.661,0.406-1.322,1.143-1.322c1.093,0,1.297,0.737,1.297,1.729
		c0,2.389-2.619,10.166-7.194,10.166c-0.559,0-2.338-0.305-2.338-2.745c0-2.923,3.355-6.863,3.355-7.143
		c0-0.126,0-0.177-0.457-0.177h-2.694c-0.661,0-1.043,1.042-1.221,1.627c-0.051,0.178-0.101,0.229-0.305,0.229
		c-0.101,0-0.28-0.101-0.28-0.204c0-0.305,0.839-3.177,1.246-3.177H43.161z"/>
	<path fill="#FFFFFF" d="M58.487,9.504c0,1.221-1.068,3.203-5.846,4.118c-0.102,0.56-0.306,1.474-0.306,2.084
		c0,1.068,0.382,2.135,1.627,2.135c1.398,0,2.592-1.931,2.771-1.931c0.229,0,0.305,0.177,0.305,0.331
		c0,0.203-1.983,2.999-4.143,2.999c-1.932,0-2.44-1.55-2.44-3.202c0-4.804,3.126-8.286,5.922-8.286
		C57.572,7.751,58.487,8.26,58.487,9.504z M56.758,9.479c0-0.457-0.229-1.067-0.813-1.067c-1.372,0-2.49,1.88-3.227,4.575
		C55.895,12.605,56.758,10.395,56.758,9.479z"/>
	<path fill="#FFFFFF" d="M59.808,18.935c-0.126,0-0.177-0.101-0.177-0.153c0-0.483,3.457-10.014,3.457-10.167
		c0-0.177-0.127-0.305-0.508-0.305c-1.474,0-2.542,3.508-2.821,3.508c-0.204,0-0.28-0.051-0.28-0.178
		c0-2.033,1.372-3.991,3.762-3.991h1.296c0.28,0,0.432,0.102,0.432,0.204c0,0.204-2.059,6.049-2.059,6.278
		c0,0.101,0.076,0.178,0.127,0.178c0.177,0,0.432-0.584,1.143-1.829c2.009-3.457,3.152-4.931,4.651-4.931
		c0.763,0,1.348,0.534,1.348,1.297c0,0.711-0.611,1.296-1.322,1.296c-1.246,0-1.169-0.813-1.779-0.813
		c-0.28,0-0.864,0.762-1.093,1.118c-2.771,4.448-3.126,4.982-4.474,8.236c-0.076,0.177-0.152,0.254-0.305,0.254H59.808z"/>
	<path fill="#FFFFFF" d="M69.187,16.723c1.297,0,1.093,1.678,2.39,1.678c0.355,0,1.398-0.508,1.398-1.627
		c0-0.89-0.89-2.644-1.169-3.203c-0.483-0.89-0.992-1.957-0.992-2.821c0-1.957,1.855-3.101,3.686-3.101
		c1.194,0,2.466,0.382,2.466,1.55c0,0.458-0.458,0.966-1.093,0.966c-1.169,0-1.068-1.779-2.262-1.779
		c-0.737,0-1.322,0.483-1.322,1.246c0,0.763,0.661,1.906,1.118,2.847c0.585,1.194,1.144,2.211,1.144,3.355
		c0,1.958-2.567,3.406-4.321,3.406c-1.016,0-1.957-0.534-1.957-1.575C68.272,17.207,68.73,16.723,69.187,16.723z"/>
	<path fill="#FFFFFF" d="M77.956,10.852c-0.076,0-0.178-0.152-0.178-0.28c0-0.255,2.237-3.025,4.143-3.025
		c0.179,0,0.788,0.076,0.788,0.737c0,1.067-3.228,8.566-3.228,8.998c0,0.177,0.051,0.305,0.178,0.305c0.61,0,2.364-1.83,2.49-1.83
		c0.127,0,0.28,0,0.28,0.254c0,0.127-2.694,3.356-4.473,3.228c-0.737,0-0.737-0.635-0.737-1.017c0-0.711,3.355-8.667,3.355-8.794
		c0-0.076,0-0.381-0.204-0.381c-0.661,0-1.601,1.118-2.211,1.678C78.057,10.801,78.006,10.852,77.956,10.852z M82.581,1.397
		c0.687,0,1.221,0.534,1.221,1.22c0,0.687-0.534,1.221-1.221,1.221c-0.686,0-1.22-0.534-1.22-1.221
		C81.362,1.931,81.895,1.397,82.581,1.397z"/>
	<path fill="#FFFFFF" d="M84.945,9.352c-0.229,0-0.305-0.05-0.305-0.177c0-0.127,0.28-0.89,0.61-0.89h2.034
		c0.152,0,0.204,0,0.28-0.051c0.076-0.101,0.101-0.203,0.89-2.617c0.025-0.127,0.177-0.178,0.305-0.178h1.169
		c0.178,0,0.229,0.051,0.229,0.23c0,0.126-0.687,2.134-0.687,2.414c0,0.152,0.127,0.204,0.255,0.204h2.185
		c0.178,0,0.255,0.051,0.255,0.305c0,0.101-0.229,0.838-0.508,0.838c-0.432,0-0.838-0.025-1.22-0.05
		c-0.381,0-0.762-0.026-1.143-0.026c-0.254,0-0.356,0.432-0.508,0.916c-0.204,0.711-2.185,7.421-2.185,7.498
		c0,0.305,0.152,0.432,0.355,0.432c1.017,0,3.356-2.415,3.482-2.415c0.127,0,0.23,0.051,0.23,0.204c0,0.381-2.644,3.253-5.262,3.253
		c-0.534,0-0.838-0.33-0.838-0.941c0-0.355,2.567-8.463,2.567-8.768c0-0.127-0.127-0.178-0.381-0.178H84.945z"/>
	<path fill="#FFFFFF" d="M99.915,8.209c0.051-0.28,0.152-0.457,0.432-0.457c0.636,0,1.221,0.381,1.221,0.787
		c0,1.042-3.101,9.15-5.973,13.396c-1.55,2.287-2.821,3.863-5.642,3.863c-0.89,0-1.5-0.255-1.5-1.118
		c0-0.356,0.432-0.966,1.068-0.966c1.017,0,0.915,0.966,2.49,0.966c0.864,0,3.508-2.339,3.508-7.371c0-1.627-0.56-7.93-1.83-7.88
		c-1.372,0.051-1.118,2.898-1.524,2.898c-0.356,0-0.356-0.178-0.356-0.56c0-0.966,1.042-4.016,2.846-4.016
		c2.262,0,2.567,8.159,2.567,8.794c0,0.482-0.101,1.246,0,1.246c0.076,0,0.61-0.992,1.169-2.593
		C98.924,13.673,99.305,12.3,99.915,8.209z"/>
	<path fill="#FFFFFF" d="M112.09,19.239c-2.211,0-2.897-2.389-2.897-3.863c0-3.508,2.236-7.727,5.236-7.727
		c2.033,0,3.075,1.525,3.075,3.864C117.504,14.893,115.344,19.239,112.09,19.239z M114.505,8.31c-1.653,0-3.66,5.211-3.66,7.575
		c0,0.94-0.05,2.694,1.373,2.694c1.322,0,3.634-4.981,3.634-7.574C115.852,9.123,115.547,8.31,114.505,8.31z"/>
	<path fill="#FFFFFF" d="M119.232,9.251c-0.153,0-0.229-0.051-0.229-0.101c0-0.127,0.076-0.636,0.255-0.661
		c2.541-0.204,2.617-0.204,2.77-0.636c0.28-0.788,0.585-2.415,1.246-3.838c1.017-2.211,3.228-3.812,5.718-3.812
		c0.737,0,2.161,0.381,2.161,1.322c0,0.737-0.331,1.296-1.144,1.296c-1.677,0-1.042-1.779-2.338-1.779c-0.535,0-2.186,0-3.304,5.49
		c-0.127,0.636-0.381,1.423-0.381,1.627c0,0.127,0.101,0.127,0.177,0.127h2.72c0.152,0,0.204,0,0.204,0.153
		c0,0.025-0.102,0.813-0.28,0.813h-2.771c-0.279,0-0.381,0.177-0.457,0.534c-2.516,11.438-3.151,13.395-4.804,14.792
		c-0.813,0.687-1.855,1.221-2.948,1.221c-0.762,0-1.601-0.204-1.601-1.118c0-0.508,0.482-0.916,0.966-0.916
		c0.941,0,1.524,0.916,2.185,0.916c0.458,0,1.017-0.432,1.55-2.847c1.958-8.819,2.745-12.048,2.745-12.328
		c0-0.126-0.101-0.254-0.229-0.254H119.232z"/>
	<path fill="#FFFFFF" d="M135.397,17.155c0,0.966,0.432,1.042,1.677,1.143c0.28,0.026,0.508,0.051,0.508,0.153
		c0,0.204-0.025,0.535-0.279,0.535c-0.23,0-0.483-0.051-3.508-0.051c-1.499,0-1.703,0.051-2.008,0.051
		c-0.127,0-0.127-0.102-0.127-0.229c0-0.229,0.127-0.407,0.255-0.407c0.356,0,1.067-0.127,1.448-0.305
		c0.56-0.229,1.221-1.347,1.729-3.278c0.991-3.636,2.897-9.634,3.253-10.878c0.05-0.178,0.406-1.246,0.406-1.398
		c0-0.127-0.076-0.535-0.762-0.687l-1.958-0.381c-0.203-0.051-0.254-0.101-0.254-0.33c0-0.204,0.127-0.28,0.28-0.28
		c0.305,0,1.855,0.101,2.643,0.101c0.382,0,2.161-0.101,2.542-0.101c0.204,0,0.33,0.127,0.356,0.254
		c0.966,5.185,1.499,10.65,1.703,12.455c0.126,1.194,0.203,1.322,0.305,1.322c0.127,0,0.254-0.178,0.356-0.305
		c1.855-2.593,7.472-11.285,9.073-13.344c0.178-0.229,0.305-0.381,0.508-0.381c0.152,0,1.653,0.101,2.008,0.101
		c0.306,0,1.627-0.101,2.364-0.101c0.152,0,0.152,0.076,0.152,0.28c0,0.254-0.05,0.406-0.254,0.432
		c-0.356,0.025-1.169,0.153-1.525,0.254c-0.61,0.178-0.863,1.017-1.016,1.804c-1.602,7.905-2.847,12.683-2.847,13.649
		c0,0.788,0.508,0.89,0.966,0.941l1.271,0.152c0.127,0.025,0.204,0.025,0.204,0.254c0,0.076-0.101,0.407-0.28,0.407
		c-0.305,0-0.457-0.051-2.338-0.051c-3.432,0-4.093,0.051-4.524,0.051c-0.23,0-0.28-0.102-0.28-0.229
		c0-0.306,0.05-0.356,0.534-0.432l1.169-0.178c0.356-0.025,0.635-0.305,0.737-0.661c1.194-4.448,2.364-10.852,3.355-14.258
		c0.076-0.28,0.152-0.763,0.152-0.839c0-0.076-0.025-0.126-0.127-0.126c-0.076,0-0.787,0.89-0.94,1.118
		c-3.762,5.337-7.701,11.589-9.964,15.25c-0.051,0.101-0.305,0.559-0.533,0.559c-0.076,0-0.204-0.05-0.305-0.966
		c-0.687-7.269-1.627-14.08-1.855-14.741c-0.026-0.076-0.051-0.204-0.204-0.204c-0.127,0-0.204,0.102-1.093,2.847
		C135.88,13.801,135.397,16.774,135.397,17.155z"/>
	<path fill="#FFFFFF" d="M157.942,10.852c-0.076,0-0.178-0.152-0.178-0.28c0-0.255,2.237-3.025,4.143-3.025
		c0.178,0,0.788,0.076,0.788,0.737c0,1.067-3.228,8.566-3.228,8.998c0,0.177,0.051,0.305,0.178,0.305c0.61,0,2.364-1.83,2.49-1.83
		c0.127,0,0.28,0,0.28,0.254c0,0.127-2.694,3.356-4.473,3.228c-0.737,0-0.737-0.635-0.737-1.017c0-0.711,3.355-8.667,3.355-8.794
		c0-0.076,0-0.381-0.204-0.381c-0.661,0-1.601,1.118-2.211,1.678C158.043,10.801,157.992,10.852,157.942,10.852z M162.567,1.397
		c0.687,0,1.221,0.534,1.221,1.22c0,0.687-0.533,1.221-1.221,1.221c-0.686,0-1.22-0.534-1.22-1.221
		C161.348,1.931,161.881,1.397,162.567,1.397z"/>
	<path fill="#FFFFFF" d="M163.762,16.723c1.297,0,1.093,1.678,2.39,1.678c0.355,0,1.398-0.508,1.398-1.627
		c0-0.89-0.89-2.644-1.169-3.203c-0.483-0.89-0.992-1.957-0.992-2.821c0-1.957,1.855-3.101,3.686-3.101
		c1.194,0,2.466,0.382,2.466,1.55c0,0.458-0.458,0.966-1.093,0.966c-1.169,0-1.068-1.779-2.263-1.779
		c-0.737,0-1.322,0.483-1.322,1.246c0,0.763,0.661,1.906,1.118,2.847c0.585,1.194,1.144,2.211,1.144,3.355
		c0,1.958-2.567,3.406-4.322,3.406c-1.016,0-1.957-0.534-1.957-1.575C162.847,17.207,163.304,16.723,163.762,16.723z"/>
	<path fill="#FFFFFF" d="M171.285,16.723c1.296,0,1.093,1.678,2.389,1.678c0.356,0,1.398-0.508,1.398-1.627
		c0-0.89-0.89-2.644-1.169-3.203c-0.482-0.89-0.991-1.957-0.991-2.821c0-1.957,1.855-3.101,3.686-3.101
		c1.194,0,2.465,0.382,2.465,1.55c0,0.458-0.457,0.966-1.093,0.966c-1.169,0-1.067-1.779-2.262-1.779
		c-0.737,0-1.322,0.483-1.322,1.246c0,0.763,0.661,1.906,1.118,2.847c0.585,1.194,1.143,2.211,1.143,3.355
		c0,1.958-2.566,3.406-4.32,3.406c-1.017,0-1.958-0.534-1.958-1.575C170.37,17.207,170.828,16.723,171.285,16.723z"/>
	<path fill="#FFFFFF" d="M182.189,19.239c-2.211,0-2.897-2.389-2.897-3.863c0-3.508,2.236-7.727,5.236-7.727
		c2.033,0,3.075,1.525,3.075,3.864C187.602,14.893,185.442,19.239,182.189,19.239z M184.604,8.31c-1.653,0-3.66,5.211-3.66,7.575
		c0,0.94-0.05,2.694,1.373,2.694c1.322,0,3.634-4.981,3.634-7.574C185.95,9.123,185.646,8.31,184.604,8.31z"/>
	<path fill="#FFFFFF" d="M195.837,18.935c-0.178,0-0.33-0.051-0.33-0.254c0-0.458,1.423-4.601,1.423-4.88
		c0-0.076-0.025-0.152-0.076-0.152c-0.101,0-2.364,3.431-3.888,4.727c-0.788,0.661-1.55,0.864-2.314,0.864
		c-0.61,0-1.067-0.406-1.067-1.525c0-1.118,3.33-8.488,3.33-9.353c0-0.153-0.152-0.28-0.305-0.28c-0.508,0-2.39,1.093-3.101,3.482
		c-0.025,0.102-0.102,0.102-0.229,0.102c-0.127,0-0.204-0.127-0.204-0.305c0-0.636,0.991-2.567,2.11-3.253
		c0.507-0.306,1.321-0.763,3.558-0.763c0.153,0,0.457,0.076,0.457,0.432c0,0.483-3.634,8.464-3.634,9.633
		c0,0.356,0.305,0.508,0.482,0.508c0.864,0,1.754-0.838,3.686-3.558c1.194-1.602,1.678-2.644,1.779-2.922
		c1.169-3.177,1.118-3.889,1.499-3.889h1.5c0.203,0,0.33,0.101,0.33,0.177c0,0.432-3.202,9.227-3.202,9.786
		c0,0.126,0.051,0.33,0.204,0.33c1.168,0,2.745-2.922,2.846-2.922c0.153,0,0.356,0.025,0.356,0.203c0,0.508-2.034,3.813-4.194,3.813
		H195.837z"/>
	<path fill="#FFFFFF" d="M202.547,18.935c-0.126,0-0.178-0.101-0.178-0.153c0-0.483,3.457-10.014,3.457-10.167
		c0-0.177-0.127-0.305-0.508-0.305c-1.474,0-2.542,3.508-2.821,3.508c-0.204,0-0.28-0.051-0.28-0.178
		c0-2.033,1.372-3.991,3.762-3.991h1.296c0.28,0,0.432,0.102,0.432,0.204c0,0.204-2.059,6.049-2.059,6.278
		c0,0.101,0.076,0.178,0.127,0.178c0.178,0,0.432-0.584,1.143-1.829c2.009-3.457,3.152-4.931,4.652-4.931
		c0.762,0,1.347,0.534,1.347,1.297c0,0.711-0.61,1.296-1.322,1.296c-1.246,0-1.169-0.813-1.779-0.813
		c-0.28,0-0.864,0.762-1.093,1.118c-2.771,4.448-3.126,4.982-4.474,8.236c-0.076,0.177-0.152,0.254-0.305,0.254H202.547z"/>
	<path fill="#FFFFFF" d="M213.477,10.852c-0.076,0-0.178-0.152-0.178-0.28c0-0.255,2.236-3.025,4.143-3.025
		c0.177,0,0.786,0.076,0.786,0.737c0,1.067-3.226,8.566-3.226,8.998c0,0.177,0.05,0.305,0.178,0.305c0.61,0,2.363-1.83,2.491-1.83
		c0.126,0,0.279,0,0.279,0.254c0,0.127-2.694,3.356-4.473,3.228c-0.737,0-0.737-0.635-0.737-1.017c0-0.711,3.355-8.667,3.355-8.794
		c0-0.076,0-0.381-0.203-0.381c-0.661,0-1.602,1.118-2.211,1.678C213.578,10.801,213.528,10.852,213.477,10.852z M218.102,1.397
		c0.686,0,1.219,0.534,1.219,1.22c0,0.687-0.534,1.221-1.219,1.221c-0.686,0-1.219-0.534-1.219-1.221
		C216.882,1.931,217.416,1.397,218.102,1.397z"/>
	<path fill="#FFFFFF" d="M240.875,9.022c0.381,0,0.381-0.051,0.483-0.483c1.195-4.753,1.474-5.744,1.474-6.176
		c0-0.28,0-0.813-1.677-0.813c-0.612,0-0.636-0.229-0.636-0.356s0.05-0.381,0.305-0.381c0.305,0,0.991,0.101,3.279,0.101
		c2.541,0,2.999-0.101,3.177-0.101c0.229,0,0.279,0,0.279,0.152c0,0.305-0.026,0.585-0.967,0.585c-0.762,0-1.169,0.254-1.448,1.347
		c-3.177,12.429-3.456,13.852-3.456,14.564c0,0.636,0.534,0.864,2.134,0.864c0.229,0,0.255,0.076,0.255,0.178
		c0,0.255-0.05,0.483-0.357,0.483c-0.177,0-0.355-0.051-2.896-0.051c-3.253,0-3.711,0.051-3.915,0.051
		c-0.203,0-0.203-0.179-0.203-0.229c0-0.28,0.126-0.432,0.229-0.432c1.881,0,2.084-0.331,2.441-1.779
		c1.398-5.745,1.627-6.405,1.627-6.482c0-0.204-0.255-0.204-0.509-0.204h-8.031c-0.229,0-0.381,0.051-0.457,0.381
		c-1.348,5.872-1.576,6.965-1.576,7.219c0,0.508,0.355,0.864,2.186,0.864c0.152,0,0.255,0.05,0.255,0.33
		c0,0.28-0.052,0.331-0.357,0.331c-0.229,0-0.712-0.051-3.608-0.051c-2.313,0-2.822,0.051-3.177,0.051
		c-0.205,0-0.255-0.026-0.255-0.204c0-0.381,0.076-0.407,0.61-0.457c1.474-0.127,1.627-0.127,1.984-1.602
		c2.77-11.132,3.43-13.242,3.43-14.309c0-0.712-0.457-0.864-1.727-0.864c-0.459,0-0.536-0.127-0.536-0.305
		c0-0.076,0.076-0.432,0.255-0.432c0.483,0,2.11,0.101,3.432,0.101c1.322,0,2.77-0.101,3.127-0.101c0.152,0,0.203,0.025,0.203,0.381
		c0,0.28-0.076,0.356-0.355,0.356c-1.043,0-1.679,0.177-1.958,1.169c-0.255,0.89-1.55,5.642-1.55,6.1
		c0,0.204,0.177,0.204,0.355,0.204H240.875z"/>
	<path fill="#FFFFFF" d="M254.855,9.504c0,1.221-1.067,3.203-5.847,4.118c-0.1,0.56-0.305,1.474-0.305,2.084
		c0,1.068,0.381,2.135,1.627,2.135c1.398,0,2.593-1.931,2.772-1.931c0.229,0,0.305,0.177,0.305,0.331
		c0,0.203-1.984,2.999-4.144,2.999c-1.932,0-2.439-1.55-2.439-3.202c0-4.804,3.125-8.286,5.921-8.286
		C253.941,7.751,254.855,8.26,254.855,9.504z M253.126,9.479c0-0.457-0.229-1.067-0.812-1.067c-1.374,0-2.491,1.88-3.229,4.575
		C252.262,12.605,253.126,10.395,253.126,9.479z"/>
	<path fill="#FFFFFF" d="M266.394,7.344c0.076,0,0.152,0,0.152,0.153c0,0.56-3.584,8.845-3.584,9.71c0,0.153,0.05,0.33,0.255,0.33
		c0.736,0,2.491-2.72,2.796-2.72c0.1,0,0.229,0.102,0.229,0.204c0,0.204-2.872,4.219-4.651,4.219c-0.56,0-0.788-0.305-0.788-0.585
		c0-0.661,1.601-4.397,1.601-4.499c0-0.076-0.024-0.126-0.1-0.126c-0.229,0-0.738,1.016-1.017,1.372
		c-1.296,1.729-3.075,3.838-4.956,3.838c-0.865,0-1.017-0.585-1.017-1.271c0-1.983,2.389-6.863,4.677-8.998
		c1.32-1.22,2.236-1.322,3.101-1.322c0.736,0,0.965,0.178,1.143,0.356c0.177,0.178,0.229,0.356,0.305,0.356
		c0.203,0,0.331-1.017,0.636-1.017H266.394z M263.701,9.226c0-0.535-0.152-0.916-1.043-0.916c-2.567,0-5.159,6.99-5.159,8.87
		c0,0.407,0.152,0.636,0.381,0.636C259.607,17.816,263.701,11.361,263.701,9.226z"/>
	<path fill="#FFFFFF" d="M272.494,2.414c0-0.661-0.355-0.687-0.865-0.687c-0.407,0-0.788,0-0.788-0.381
		c0-0.305,0.305-0.381,0.788-0.432c1.551-0.152,2.67-0.356,2.846-0.356c0.152,0,0.383,0,0.383,0.23
		c0,0.991-4.982,15.097-4.982,15.656c0,0.305,0.152,0.432,0.431,0.432c0.56,0,2.415-2.389,2.72-2.389
		c0.126,0,0.229,0.101,0.229,0.33s-3.406,4.423-5.059,4.423c-0.558,0-0.862-0.356-0.862-0.864
		C267.335,17.664,272.494,2.668,272.494,2.414z"/>
	<path fill="#FFFFFF" d="M275.035,9.352c-0.229,0-0.305-0.05-0.305-0.177c0-0.127,0.281-0.89,0.61-0.89h2.034
		c0.152,0,0.203,0,0.279-0.051c0.076-0.101,0.102-0.203,0.891-2.617c0.026-0.127,0.179-0.178,0.305-0.178h1.169
		c0.178,0,0.229,0.051,0.229,0.23c0,0.126-0.686,2.134-0.686,2.414c0,0.152,0.126,0.204,0.255,0.204h2.184
		c0.178,0,0.255,0.051,0.255,0.305c0,0.101-0.229,0.838-0.507,0.838c-0.433,0-0.84-0.025-1.222-0.05
		c-0.381,0-0.762-0.026-1.143-0.026c-0.255,0-0.355,0.432-0.507,0.916c-0.205,0.711-2.186,7.421-2.186,7.498
		c0,0.305,0.152,0.432,0.355,0.432c1.017,0,3.356-2.415,3.482-2.415c0.128,0,0.229,0.051,0.229,0.204
		c0,0.381-2.644,3.253-5.261,3.253c-0.533,0-0.838-0.33-0.838-0.941c0-0.355,2.567-8.463,2.567-8.768
		c0-0.127-0.126-0.178-0.381-0.178H275.035z"/>
	<path fill="#FFFFFF" d="M282.457,18.935c-0.203,0-0.329-0.127-0.329-0.381c0-0.255,4.904-15.962,4.904-16.139
		c0-0.661-0.355-0.687-0.865-0.687c-0.405,0-0.786,0-0.786-0.381c0-0.305,0.305-0.381,0.786-0.432
		c1.55-0.152,2.67-0.356,2.848-0.356c0.152,0,0.381,0,0.381,0.23c0,0.305-3.153,10.776-3.153,10.928
		c0,0.051,0.026,0.102,0.076,0.102c0.102,0,0.178-0.204,0.229-0.28c2.136-2.948,4.042-3.787,5.032-3.787
		c1.043,0,1.679,0.635,1.679,1.703c0,3.38-3.177,9.785-6.023,9.785c-0.662,0-1.069-0.305-1.069-1.017
		c0-0.61,0.483-1.245,1.069-1.245c0.862,0,0.61,0.94,1.27,0.94c1.296,0,2.746-5.973,2.746-7.142c0-0.916-0.357-1.5-1.119-1.5
		c-0.736,0-2.236,1.144-3.965,3.737c-1.117,1.678-1.169,2.77-2.16,5.566c-0.05,0.152-0.1,0.356-0.305,0.356H282.457z"/>
</g>
<g>
	<path fill="#F1B82D" d="M2.697,30.243c0.229-1.118,0.356-1.474,0.356-2.033c0-0.356-0.229-0.686-1.907-0.737
		c-0.33,0-0.33-0.102-0.33-0.356c0-0.229,0.101-0.305,0.204-0.305c0.254,0,2.313,0.101,3.176,0.101c1.525,0,3-0.101,3.457-0.101
		c0.152,0,0.178,0.204,0.178,0.381c0,0.204-0.152,0.356-0.28,0.356c-0.636,0-1.449,0.127-1.627,0.305
		c-0.229,0.229-0.432,0.686-0.864,2.541c-1.246,5.389-1.907,8.185-1.907,9.811c0,3.507,3.051,3.813,4.194,3.813
		c2.516,0,5.312-1.398,6.558-6.075c1.703-6.404,1.907-7.853,1.907-8.947c0-1.042-0.636-1.143-1.322-1.321
		c-0.508-0.127-1.093-0.178-1.194-0.178c-0.051,0-0.153-0.178-0.153-0.305c0-0.101,0.077-0.381,0.331-0.381
		c0.28,0,1.983,0.101,2.465,0.101c0.839,0,3.152-0.101,3.634-0.101c0.102,0,0.178,0.127,0.178,0.33
		c-0.025,0.076-0.076,0.255-0.229,0.28l-0.89,0.127c-0.509,0.076-1.322,0.381-1.805,1.957c-0.838,2.72-1.829,8.794-3.177,11.514
		c-1.448,2.923-3.711,4.118-7.091,4.118c-3.227,0-5.82-1.602-5.82-4.906C0.74,38.275,1.731,35.022,2.697,30.243z"/>
	<path fill="#F1B82D" d="M24.225,44.935c-0.152,0-0.178-0.051-0.178-0.204c0-0.94,3.355-8.133,3.355-9.455
		c0-0.585-0.431-0.737-0.661-0.737c-1.677,0-2.922,2.822-5.362,6.99c-0.127,0.229-0.432,0.991-1.373,3.177
		c-0.05,0.127-0.101,0.229-0.279,0.229h-1.5c-0.126,0-0.203-0.025-0.203-0.204c0-0.406,3.456-9.2,3.456-9.937
		c0-0.127-0.025-0.305-0.203-0.305c-1.958,0-3.051,2.541-3.051,3.075c0,0.076-0.153,0.127-0.229,0.127
		c-0.101,0-0.229-0.051-0.229-0.229c0-0.61,0.838-3.711,3.584-3.711h1.88c0.152,0,0.254,0.05,0.254,0.229
		c0,0.305-1.88,4.905-1.88,5.718c0,0.127,0,0.179,0.076,0.179c0.152,0,0.177-0.127,0.686-1.043c2.745-4.956,3.508-5.286,4.956-5.286
		c0.712,0,2.034,0.101,2.034,1.271c0,2.084-3.101,7.93-3.101,8.922c0,0.101,0.177,0.204,0.254,0.204
		c1.195,0,2.567-2.669,2.847-2.669c0.101,0,0.254,0.152,0.254,0.229c0,0.33-1.983,3.431-4.067,3.431H24.225z"/>
	<path fill="#F1B82D" d="M32.003,36.852c-0.076,0-0.178-0.152-0.178-0.28c0-0.255,2.237-3.025,4.143-3.025
		c0.178,0,0.788,0.076,0.788,0.737c0,1.067-3.228,8.566-3.228,8.998c0,0.177,0.051,0.305,0.178,0.305c0.61,0,2.364-1.83,2.49-1.83
		c0.127,0,0.28,0,0.28,0.254c0,0.127-2.694,3.356-4.473,3.228c-0.737,0-0.737-0.635-0.737-1.017c0-0.711,3.355-8.667,3.355-8.794
		c0-0.076,0-0.381-0.204-0.381c-0.661,0-1.601,1.118-2.211,1.678C32.104,36.801,32.053,36.852,32.003,36.852z M36.628,27.397
		c0.687,0,1.221,0.534,1.221,1.22c0,0.687-0.534,1.221-1.221,1.221c-0.686,0-1.22-0.534-1.22-1.221
		C35.409,27.931,35.943,27.397,36.628,27.397z"/>
	<path fill="#F1B82D" d="M43.161,33.649c0.101,0,0.229-0.025,0.355-0.05c0.127-0.026,0.305-0.051,0.483-0.051
		c0.204,0,0.28,0.204,0.28,0.28c0,1.194-2.872,4.143-2.872,7.447c0,1.067,0.406,2.439,1.728,2.439c2.745,0,4.804-4.803,4.804-7.116
		c0-1.017-1.219-1.017-1.219-1.932c0-0.661,0.406-1.322,1.143-1.322c1.093,0,1.297,0.737,1.297,1.729
		c0,2.389-2.619,10.166-7.194,10.166c-0.559,0-2.338-0.305-2.338-2.745c0-2.923,3.355-6.863,3.355-7.143
		c0-0.126,0-0.177-0.457-0.177h-2.694c-0.661,0-1.043,1.042-1.221,1.627c-0.051,0.178-0.101,0.229-0.305,0.229
		c-0.101,0-0.28-0.101-0.28-0.204c0-0.305,0.839-3.177,1.246-3.177H43.161z"/>
	<path fill="#F1B82D" d="M58.487,35.504c0,1.221-1.068,3.203-5.846,4.118c-0.102,0.56-0.306,1.474-0.306,2.084
		c0,1.068,0.382,2.135,1.627,2.135c1.398,0,2.592-1.931,2.771-1.931c0.229,0,0.305,0.177,0.305,0.331
		c0,0.203-1.983,2.999-4.143,2.999c-1.932,0-2.44-1.55-2.44-3.202c0-4.804,3.126-8.286,5.922-8.286
		C57.572,33.751,58.487,34.26,58.487,35.504z M56.758,35.479c0-0.457-0.229-1.067-0.813-1.067c-1.372,0-2.49,1.88-3.227,4.575
		C55.895,38.605,56.758,36.395,56.758,35.479z"/>
	<path fill="#F1B82D" d="M59.808,44.935c-0.126,0-0.177-0.101-0.177-0.153c0-0.483,3.457-10.014,3.457-10.167
		c0-0.177-0.127-0.305-0.508-0.305c-1.474,0-2.542,3.508-2.821,3.508c-0.204,0-0.28-0.051-0.28-0.178
		c0-2.033,1.372-3.991,3.762-3.991h1.296c0.28,0,0.432,0.102,0.432,0.204c0,0.204-2.059,6.049-2.059,6.278
		c0,0.101,0.076,0.178,0.127,0.178c0.177,0,0.432-0.584,1.143-1.829c2.009-3.457,3.152-4.931,4.651-4.931
		c0.763,0,1.348,0.534,1.348,1.297c0,0.711-0.611,1.296-1.322,1.296c-1.246,0-1.169-0.813-1.779-0.813
		c-0.28,0-0.864,0.762-1.093,1.118c-2.771,4.448-3.126,4.982-4.474,8.236c-0.076,0.177-0.152,0.254-0.305,0.254H59.808z"/>
	<path fill="#F1B82D" d="M69.187,42.723c1.297,0,1.093,1.678,2.39,1.678c0.355,0,1.398-0.508,1.398-1.627
		c0-0.89-0.89-2.644-1.169-3.203c-0.483-0.89-0.992-1.957-0.992-2.821c0-1.957,1.855-3.101,3.686-3.101
		c1.194,0,2.466,0.382,2.466,1.55c0,0.458-0.458,0.966-1.093,0.966c-1.169,0-1.068-1.779-2.262-1.779
		c-0.737,0-1.322,0.483-1.322,1.246c0,0.763,0.661,1.906,1.118,2.847c0.585,1.194,1.144,2.211,1.144,3.355
		c0,1.958-2.567,3.406-4.321,3.406c-1.016,0-1.957-0.534-1.957-1.575C68.272,43.207,68.73,42.723,69.187,42.723z"/>
	<path fill="#F1B82D" d="M77.956,36.852c-0.076,0-0.178-0.152-0.178-0.28c0-0.255,2.237-3.025,4.143-3.025
		c0.179,0,0.788,0.076,0.788,0.737c0,1.067-3.228,8.566-3.228,8.998c0,0.177,0.051,0.305,0.178,0.305c0.61,0,2.364-1.83,2.49-1.83
		c0.127,0,0.28,0,0.28,0.254c0,0.127-2.694,3.356-4.473,3.228c-0.737,0-0.737-0.635-0.737-1.017c0-0.711,3.355-8.667,3.355-8.794
		c0-0.076,0-0.381-0.204-0.381c-0.661,0-1.601,1.118-2.211,1.678C78.057,36.801,78.006,36.852,77.956,36.852z M82.581,27.397
		c0.687,0,1.221,0.534,1.221,1.22c0,0.687-0.534,1.221-1.221,1.221c-0.686,0-1.22-0.534-1.22-1.221
		C81.362,27.931,81.895,27.397,82.581,27.397z"/>
	<path fill="#F1B82D" d="M84.945,35.352c-0.229,0-0.305-0.05-0.305-0.177c0-0.127,0.28-0.89,0.61-0.89h2.034
		c0.152,0,0.204,0,0.28-0.051c0.076-0.101,0.101-0.203,0.89-2.617c0.025-0.127,0.177-0.178,0.305-0.178h1.169
		c0.178,0,0.229,0.051,0.229,0.23c0,0.126-0.687,2.134-0.687,2.414c0,0.152,0.127,0.204,0.255,0.204h2.185
		c0.178,0,0.255,0.051,0.255,0.305c0,0.101-0.229,0.838-0.508,0.838c-0.432,0-0.838-0.025-1.22-0.05
		c-0.381,0-0.762-0.026-1.143-0.026c-0.254,0-0.356,0.432-0.508,0.916c-0.204,0.711-2.185,7.421-2.185,7.498
		c0,0.305,0.152,0.432,0.355,0.432c1.017,0,3.356-2.415,3.482-2.415c0.127,0,0.23,0.051,0.23,0.204c0,0.381-2.644,3.253-5.262,3.253
		c-0.534,0-0.838-0.33-0.838-0.941c0-0.355,2.567-8.463,2.567-8.768c0-0.127-0.127-0.178-0.381-0.178H84.945z"/>
	<path fill="#F1B82D" d="M99.915,34.209c0.051-0.28,0.152-0.457,0.432-0.457c0.636,0,1.221,0.381,1.221,0.787
		c0,1.042-3.101,9.15-5.973,13.396c-1.55,2.287-2.821,3.863-5.642,3.863c-0.89,0-1.5-0.255-1.5-1.118
		c0-0.356,0.432-0.966,1.068-0.966c1.017,0,0.915,0.966,2.49,0.966c0.864,0,3.508-2.339,3.508-7.371c0-1.627-0.56-7.93-1.83-7.88
		c-1.372,0.051-1.118,2.898-1.524,2.898c-0.356,0-0.356-0.178-0.356-0.56c0-0.966,1.042-4.016,2.846-4.016
		c2.262,0,2.567,8.159,2.567,8.794c0,0.482-0.101,1.246,0,1.246c0.076,0,0.61-0.992,1.169-2.593
		C98.924,39.673,99.305,38.3,99.915,34.209z"/>
	<path fill="#F1B82D" d="M112.09,45.239c-2.211,0-2.897-2.389-2.897-3.863c0-3.508,2.236-7.727,5.236-7.727
		c2.033,0,3.075,1.525,3.075,3.864C117.504,40.893,115.344,45.239,112.09,45.239z M114.505,34.31c-1.653,0-3.66,5.211-3.66,7.575
		c0,0.94-0.05,2.694,1.373,2.694c1.322,0,3.634-4.981,3.634-7.574C115.852,35.123,115.547,34.31,114.505,34.31z"/>
	<path fill="#F1B82D" d="M119.232,35.251c-0.153,0-0.229-0.051-0.229-0.101c0-0.127,0.076-0.636,0.255-0.661
		c2.541-0.204,2.617-0.204,2.77-0.636c0.28-0.788,0.585-2.415,1.246-3.838c1.017-2.211,3.228-3.812,5.718-3.812
		c0.737,0,2.161,0.381,2.161,1.322c0,0.737-0.331,1.296-1.144,1.296c-1.677,0-1.042-1.779-2.338-1.779c-0.535,0-2.186,0-3.304,5.49
		c-0.127,0.636-0.381,1.423-0.381,1.627c0,0.127,0.101,0.127,0.177,0.127h2.72c0.152,0,0.204,0,0.204,0.153
		c0,0.025-0.102,0.813-0.28,0.813h-2.771c-0.279,0-0.381,0.177-0.457,0.534c-2.516,11.438-3.151,13.395-4.804,14.792
		c-0.813,0.687-1.855,1.221-2.948,1.221c-0.762,0-1.601-0.204-1.601-1.118c0-0.508,0.482-0.916,0.966-0.916
		c0.941,0,1.524,0.916,2.185,0.916c0.458,0,1.017-0.432,1.55-2.847c1.958-8.819,2.745-12.048,2.745-12.328
		c0-0.126-0.101-0.254-0.229-0.254H119.232z"/>
	<path fill="#F1B82D" d="M135.397,43.155c0,0.966,0.432,1.042,1.677,1.143c0.28,0.026,0.508,0.051,0.508,0.153
		c0,0.204-0.025,0.535-0.279,0.535c-0.23,0-0.483-0.051-3.508-0.051c-1.499,0-1.703,0.051-2.008,0.051
		c-0.127,0-0.127-0.102-0.127-0.229c0-0.229,0.127-0.407,0.255-0.407c0.356,0,1.067-0.127,1.448-0.305
		c0.56-0.229,1.221-1.347,1.729-3.278c0.991-3.636,2.897-9.634,3.253-10.878c0.05-0.178,0.406-1.246,0.406-1.398
		c0-0.127-0.076-0.535-0.762-0.687l-1.958-0.381c-0.203-0.051-0.254-0.101-0.254-0.33c0-0.204,0.127-0.28,0.28-0.28
		c0.305,0,1.855,0.101,2.643,0.101c0.382,0,2.161-0.101,2.542-0.101c0.204,0,0.33,0.127,0.356,0.254
		c0.966,5.185,1.499,10.65,1.703,12.455c0.126,1.194,0.203,1.322,0.305,1.322c0.127,0,0.254-0.178,0.356-0.305
		c1.855-2.593,7.472-11.285,9.073-13.344c0.178-0.229,0.305-0.381,0.508-0.381c0.152,0,1.653,0.101,2.008,0.101
		c0.306,0,1.627-0.101,2.364-0.101c0.152,0,0.152,0.076,0.152,0.28c0,0.254-0.05,0.406-0.254,0.432
		c-0.356,0.025-1.169,0.153-1.525,0.254c-0.61,0.178-0.863,1.017-1.016,1.804c-1.602,7.905-2.847,12.683-2.847,13.649
		c0,0.788,0.508,0.89,0.966,0.941l1.271,0.152c0.127,0.025,0.204,0.025,0.204,0.254c0,0.076-0.101,0.407-0.28,0.407
		c-0.305,0-0.457-0.051-2.338-0.051c-3.432,0-4.093,0.051-4.524,0.051c-0.23,0-0.28-0.102-0.28-0.229
		c0-0.306,0.05-0.356,0.534-0.432l1.169-0.178c0.356-0.025,0.635-0.305,0.737-0.661c1.194-4.448,2.364-10.852,3.355-14.258
		c0.076-0.28,0.152-0.763,0.152-0.839c0-0.076-0.025-0.126-0.127-0.126c-0.076,0-0.787,0.89-0.94,1.118
		c-3.762,5.337-7.701,11.589-9.964,15.25c-0.051,0.101-0.305,0.559-0.533,0.559c-0.076,0-0.204-0.05-0.305-0.966
		c-0.687-7.269-1.627-14.08-1.855-14.741c-0.026-0.076-0.051-0.204-0.204-0.204c-0.127,0-0.204,0.102-1.093,2.847
		C135.88,39.801,135.397,42.774,135.397,43.155z"/>
	<path fill="#F1B82D" d="M157.942,36.852c-0.076,0-0.178-0.152-0.178-0.28c0-0.255,2.237-3.025,4.143-3.025
		c0.178,0,0.788,0.076,0.788,0.737c0,1.067-3.228,8.566-3.228,8.998c0,0.177,0.051,0.305,0.178,0.305c0.61,0,2.364-1.83,2.49-1.83
		c0.127,0,0.28,0,0.28,0.254c0,0.127-2.694,3.356-4.473,3.228c-0.737,0-0.737-0.635-0.737-1.017c0-0.711,3.355-8.667,3.355-8.794
		c0-0.076,0-0.381-0.204-0.381c-0.661,0-1.601,1.118-2.211,1.678C158.043,36.801,157.992,36.852,157.942,36.852z M162.567,27.397
		c0.687,0,1.221,0.534,1.221,1.22c0,0.687-0.533,1.221-1.221,1.221c-0.686,0-1.22-0.534-1.22-1.221
		C161.348,27.931,161.881,27.397,162.567,27.397z"/>
	<path fill="#F1B82D" d="M163.762,42.723c1.297,0,1.093,1.678,2.39,1.678c0.355,0,1.398-0.508,1.398-1.627
		c0-0.89-0.89-2.644-1.169-3.203c-0.483-0.89-0.992-1.957-0.992-2.821c0-1.957,1.855-3.101,3.686-3.101
		c1.194,0,2.466,0.382,2.466,1.55c0,0.458-0.458,0.966-1.093,0.966c-1.169,0-1.068-1.779-2.263-1.779
		c-0.737,0-1.322,0.483-1.322,1.246c0,0.763,0.661,1.906,1.118,2.847c0.585,1.194,1.144,2.211,1.144,3.355
		c0,1.958-2.567,3.406-4.322,3.406c-1.016,0-1.957-0.534-1.957-1.575C162.847,43.207,163.304,42.723,163.762,42.723z"/>
	<path fill="#F1B82D" d="M171.285,42.723c1.296,0,1.093,1.678,2.389,1.678c0.356,0,1.398-0.508,1.398-1.627
		c0-0.89-0.89-2.644-1.169-3.203c-0.482-0.89-0.991-1.957-0.991-2.821c0-1.957,1.855-3.101,3.686-3.101
		c1.194,0,2.465,0.382,2.465,1.55c0,0.458-0.457,0.966-1.093,0.966c-1.169,0-1.067-1.779-2.262-1.779
		c-0.737,0-1.322,0.483-1.322,1.246c0,0.763,0.661,1.906,1.118,2.847c0.585,1.194,1.143,2.211,1.143,3.355
		c0,1.958-2.566,3.406-4.32,3.406c-1.017,0-1.958-0.534-1.958-1.575C170.37,43.207,170.828,42.723,171.285,42.723z"/>
	<path fill="#F1B82D" d="M182.189,45.239c-2.211,0-2.897-2.389-2.897-3.863c0-3.508,2.236-7.727,5.236-7.727
		c2.033,0,3.075,1.525,3.075,3.864C187.602,40.893,185.442,45.239,182.189,45.239z M184.604,34.31c-1.653,0-3.66,5.211-3.66,7.575
		c0,0.94-0.05,2.694,1.373,2.694c1.322,0,3.634-4.981,3.634-7.574C185.95,35.123,185.646,34.31,184.604,34.31z"/>
	<path fill="#F1B82D" d="M195.837,44.935c-0.178,0-0.33-0.051-0.33-0.254c0-0.458,1.423-4.601,1.423-4.88
		c0-0.076-0.025-0.152-0.076-0.152c-0.101,0-2.364,3.431-3.888,4.727c-0.788,0.661-1.55,0.864-2.314,0.864
		c-0.61,0-1.067-0.406-1.067-1.525c0-1.118,3.33-8.488,3.33-9.353c0-0.153-0.152-0.28-0.305-0.28c-0.508,0-2.39,1.093-3.101,3.482
		c-0.025,0.102-0.102,0.102-0.229,0.102c-0.127,0-0.204-0.127-0.204-0.305c0-0.636,0.991-2.567,2.11-3.253
		c0.507-0.306,1.321-0.763,3.558-0.763c0.153,0,0.457,0.076,0.457,0.432c0,0.483-3.634,8.464-3.634,9.633
		c0,0.356,0.305,0.508,0.482,0.508c0.864,0,1.754-0.838,3.686-3.558c1.194-1.602,1.678-2.644,1.779-2.922
		c1.169-3.177,1.118-3.889,1.499-3.889h1.5c0.203,0,0.33,0.101,0.33,0.177c0,0.432-3.202,9.227-3.202,9.786
		c0,0.126,0.051,0.33,0.204,0.33c1.168,0,2.745-2.922,2.846-2.922c0.153,0,0.356,0.025,0.356,0.203c0,0.508-2.034,3.813-4.194,3.813
		H195.837z"/>
	<path fill="#F1B82D" d="M202.547,44.935c-0.126,0-0.178-0.101-0.178-0.153c0-0.483,3.457-10.014,3.457-10.167
		c0-0.177-0.127-0.305-0.508-0.305c-1.474,0-2.542,3.508-2.821,3.508c-0.204,0-0.28-0.051-0.28-0.178
		c0-2.033,1.372-3.991,3.762-3.991h1.296c0.28,0,0.432,0.102,0.432,0.204c0,0.204-2.059,6.049-2.059,6.278
		c0,0.101,0.076,0.178,0.127,0.178c0.178,0,0.432-0.584,1.143-1.829c2.009-3.457,3.152-4.931,4.652-4.931
		c0.762,0,1.347,0.534,1.347,1.297c0,0.711-0.61,1.296-1.322,1.296c-1.246,0-1.169-0.813-1.779-0.813
		c-0.28,0-0.864,0.762-1.093,1.118c-2.771,4.448-3.126,4.982-4.474,8.236c-0.076,0.177-0.152,0.254-0.305,0.254H202.547z"/>
	<path fill="#F1B82D" d="M213.477,36.852c-0.076,0-0.178-0.152-0.178-0.28c0-0.255,2.236-3.025,4.143-3.025
		c0.177,0,0.786,0.076,0.786,0.737c0,1.067-3.226,8.566-3.226,8.998c0,0.177,0.05,0.305,0.178,0.305c0.61,0,2.363-1.83,2.491-1.83
		c0.126,0,0.279,0,0.279,0.254c0,0.127-2.694,3.356-4.473,3.228c-0.737,0-0.737-0.635-0.737-1.017c0-0.711,3.355-8.667,3.355-8.794
		c0-0.076,0-0.381-0.203-0.381c-0.661,0-1.602,1.118-2.211,1.678C213.578,36.801,213.528,36.852,213.477,36.852z M218.102,27.397
		c0.686,0,1.219,0.534,1.219,1.22c0,0.687-0.534,1.221-1.219,1.221c-0.686,0-1.219-0.534-1.219-1.221
		C216.882,27.931,217.416,27.397,218.102,27.397z"/>
	<path fill="#F1B82D" d="M240.875,35.022c0.381,0,0.381-0.051,0.483-0.483c1.195-4.753,1.474-5.744,1.474-6.176
		c0-0.28,0-0.813-1.677-0.813c-0.612,0-0.636-0.229-0.636-0.356c0-0.127,0.05-0.381,0.305-0.381c0.305,0,0.991,0.101,3.279,0.101
		c2.541,0,2.999-0.101,3.177-0.101c0.229,0,0.279,0,0.279,0.152c0,0.305-0.026,0.585-0.967,0.585c-0.762,0-1.169,0.254-1.448,1.347
		c-3.177,12.429-3.456,13.852-3.456,14.564c0,0.636,0.534,0.864,2.134,0.864c0.229,0,0.255,0.076,0.255,0.178
		c0,0.255-0.05,0.483-0.357,0.483c-0.177,0-0.355-0.051-2.896-0.051c-3.253,0-3.711,0.051-3.915,0.051
		c-0.203,0-0.203-0.179-0.203-0.229c0-0.28,0.126-0.432,0.229-0.432c1.881,0,2.084-0.331,2.441-1.779
		c1.398-5.745,1.627-6.405,1.627-6.482c0-0.204-0.255-0.204-0.509-0.204h-8.031c-0.229,0-0.381,0.051-0.457,0.381
		c-1.348,5.872-1.576,6.965-1.576,7.219c0,0.508,0.355,0.864,2.186,0.864c0.152,0,0.255,0.05,0.255,0.33
		c0,0.28-0.052,0.331-0.357,0.331c-0.229,0-0.712-0.051-3.608-0.051c-2.313,0-2.822,0.051-3.177,0.051
		c-0.205,0-0.255-0.026-0.255-0.204c0-0.381,0.076-0.407,0.61-0.457c1.474-0.127,1.627-0.127,1.984-1.602
		c2.77-11.132,3.43-13.242,3.43-14.309c0-0.712-0.457-0.864-1.727-0.864c-0.459,0-0.536-0.127-0.536-0.305
		c0-0.076,0.076-0.432,0.255-0.432c0.483,0,2.11,0.101,3.432,0.101c1.322,0,2.77-0.101,3.127-0.101c0.152,0,0.203,0.025,0.203,0.381
		c0,0.28-0.076,0.356-0.355,0.356c-1.043,0-1.679,0.177-1.958,1.169c-0.255,0.89-1.55,5.642-1.55,6.1
		c0,0.204,0.177,0.204,0.355,0.204H240.875z"/>
	<path fill="#F1B82D" d="M254.855,35.504c0,1.221-1.067,3.203-5.847,4.118c-0.1,0.56-0.305,1.474-0.305,2.084
		c0,1.068,0.381,2.135,1.627,2.135c1.398,0,2.593-1.931,2.772-1.931c0.229,0,0.305,0.177,0.305,0.331
		c0,0.203-1.984,2.999-4.144,2.999c-1.932,0-2.439-1.55-2.439-3.202c0-4.804,3.125-8.286,5.921-8.286
		C253.941,33.751,254.855,34.26,254.855,35.504z M253.126,35.479c0-0.457-0.229-1.067-0.812-1.067c-1.374,0-2.491,1.88-3.229,4.575
		C252.262,38.605,253.126,36.395,253.126,35.479z"/>
	<path fill="#F1B82D" d="M266.394,33.344c0.076,0,0.152,0,0.152,0.153c0,0.56-3.584,8.845-3.584,9.71c0,0.153,0.05,0.33,0.255,0.33
		c0.736,0,2.491-2.72,2.796-2.72c0.1,0,0.229,0.102,0.229,0.204c0,0.204-2.872,4.219-4.651,4.219c-0.56,0-0.788-0.305-0.788-0.585
		c0-0.661,1.601-4.397,1.601-4.499c0-0.076-0.024-0.126-0.1-0.126c-0.229,0-0.738,1.016-1.017,1.372
		c-1.296,1.729-3.075,3.838-4.956,3.838c-0.865,0-1.017-0.585-1.017-1.271c0-1.983,2.389-6.863,4.677-8.998
		c1.32-1.22,2.236-1.322,3.101-1.322c0.736,0,0.965,0.178,1.143,0.356c0.177,0.178,0.229,0.356,0.305,0.356
		c0.203,0,0.331-1.017,0.636-1.017H266.394z M263.701,35.226c0-0.535-0.152-0.916-1.043-0.916c-2.567,0-5.159,6.99-5.159,8.87
		c0,0.407,0.152,0.636,0.381,0.636C259.607,43.816,263.701,37.361,263.701,35.226z"/>
	<path fill="#F1B82D" d="M272.494,28.414c0-0.661-0.355-0.687-0.865-0.687c-0.407,0-0.788,0-0.788-0.381
		c0-0.305,0.305-0.381,0.788-0.432c1.551-0.152,2.67-0.356,2.846-0.356c0.152,0,0.383,0,0.383,0.23
		c0,0.991-4.982,15.097-4.982,15.656c0,0.305,0.152,0.432,0.431,0.432c0.56,0,2.415-2.389,2.72-2.389
		c0.126,0,0.229,0.101,0.229,0.33s-3.406,4.423-5.059,4.423c-0.558,0-0.862-0.356-0.862-0.864
		C267.335,43.664,272.494,28.668,272.494,28.414z"/>
	<path fill="#F1B82D" d="M275.035,35.352c-0.229,0-0.305-0.05-0.305-0.177c0-0.127,0.281-0.89,0.61-0.89h2.034
		c0.152,0,0.203,0,0.279-0.051c0.076-0.101,0.102-0.203,0.891-2.617c0.026-0.127,0.179-0.178,0.305-0.178h1.169
		c0.178,0,0.229,0.051,0.229,0.23c0,0.126-0.686,2.134-0.686,2.414c0,0.152,0.126,0.204,0.255,0.204h2.184
		c0.178,0,0.255,0.051,0.255,0.305c0,0.101-0.229,0.838-0.507,0.838c-0.433,0-0.84-0.025-1.222-0.05
		c-0.381,0-0.762-0.026-1.143-0.026c-0.255,0-0.355,0.432-0.507,0.916c-0.205,0.711-2.186,7.421-2.186,7.498
		c0,0.305,0.152,0.432,0.355,0.432c1.017,0,3.356-2.415,3.482-2.415c0.128,0,0.229,0.051,0.229,0.204
		c0,0.381-2.644,3.253-5.261,3.253c-0.533,0-0.838-0.33-0.838-0.941c0-0.355,2.567-8.463,2.567-8.768
		c0-0.127-0.126-0.178-0.381-0.178H275.035z"/>
	<path fill="#F1B82D" d="M282.457,44.935c-0.203,0-0.329-0.127-0.329-0.381c0-0.255,4.904-15.962,4.904-16.139
		c0-0.661-0.355-0.687-0.865-0.687c-0.405,0-0.786,0-0.786-0.381c0-0.305,0.305-0.381,0.786-0.432
		c1.55-0.152,2.67-0.356,2.848-0.356c0.152,0,0.381,0,0.381,0.23c0,0.305-3.153,10.776-3.153,10.928
		c0,0.051,0.026,0.102,0.076,0.102c0.102,0,0.178-0.204,0.229-0.28c2.136-2.948,4.042-3.787,5.032-3.787
		c1.043,0,1.679,0.635,1.679,1.703c0,3.38-3.177,9.785-6.023,9.785c-0.662,0-1.069-0.305-1.069-1.017
		c0-0.61,0.483-1.245,1.069-1.245c0.862,0,0.61,0.94,1.27,0.94c1.296,0,2.746-5.973,2.746-7.142c0-0.916-0.357-1.5-1.119-1.5
		c-0.736,0-2.236,1.144-3.965,3.737c-1.117,1.678-1.169,2.77-2.16,5.566c-0.05,0.152-0.1,0.356-0.305,0.356H282.457z"/>
</g>
<g>
</g>
<g>
</g>
<g>
</g>
<g>
</g>
<g>
</g>
<g>
</g>
<g>
</g>
<g>
</g>
<g>
</g>
<g>
</g>
<g>
</g>
<g>
</g>
<g>
</g>
<g>
</g>
<g>
</g>
</svg>
