<?xml version="1.0" encoding="utf-8"?>
<!-- Generator: Adobe Illustrator 19.1.0, SVG Export Plug-In . SVG Version: 6.00 Build 0)  -->
<svg version="1.0" id="Layer_1" xmlns="http://www.w3.org/2000/svg" xmlns:xlink="http://www.w3.org/1999/xlink" x="0px" y="0px"
	 width="180px" height="34px" viewBox="0 0 180 34" enable-background="new 0 0 180 34" xml:space="preserve">
<g>
	<path fill="#FFFFFF" d="M1.46,3.627c0.14-0.686,0.218-0.905,0.218-1.247c0-0.218-0.14-0.421-1.17-0.452
		c-0.202,0-0.202-0.063-0.202-0.218c0-0.14,0.062-0.187,0.125-0.187c0.156,0,1.419,0.062,1.949,0.062
		c0.936,0,1.84-0.062,2.121-0.062c0.094,0,0.11,0.125,0.11,0.234c0,0.125-0.094,0.218-0.172,0.218c-0.39,0-0.889,0.078-0.998,0.187
		c-0.14,0.14-0.265,0.421-0.53,1.559c-0.764,3.306-1.17,5.022-1.17,6.02c0,2.152,1.872,2.339,2.573,2.339
		c1.544,0,3.259-0.858,4.024-3.728c1.045-3.93,1.17-4.819,1.17-5.489c0-0.639-0.39-0.701-0.811-0.81
		c-0.312-0.078-0.671-0.11-0.733-0.11c-0.031,0-0.094-0.109-0.094-0.187c0-0.062,0.047-0.234,0.203-0.234
		c0.172,0,1.217,0.062,1.512,0.062c0.515,0,1.934-0.062,2.23-0.062c0.063,0,0.11,0.078,0.11,0.202
		c-0.015,0.047-0.047,0.156-0.14,0.172l-0.546,0.078c-0.312,0.047-0.811,0.234-1.108,1.2C9.617,4.844,9.009,8.571,8.182,10.24
		c-0.889,1.794-2.277,2.527-4.351,2.527c-1.98,0-3.571-0.983-3.571-3.01C0.26,8.555,0.868,6.559,1.46,3.627z"/>
	<path fill="#FFFFFF" d="M14.669,12.641c-0.094,0-0.109-0.031-0.109-0.125c0-0.577,2.058-4.99,2.058-5.801
		c0-0.359-0.265-0.452-0.405-0.452c-1.029,0-1.793,1.732-3.29,4.289c-0.078,0.14-0.265,0.608-0.842,1.949
		c-0.031,0.078-0.062,0.14-0.171,0.14h-0.921c-0.078,0-0.124-0.015-0.124-0.125c0-0.249,2.12-5.645,2.12-6.097
		c0-0.078-0.015-0.187-0.124-0.187c-1.201,0-1.872,1.559-1.872,1.887c0,0.047-0.094,0.078-0.14,0.078c-0.062,0-0.14-0.031-0.14-0.14
		c0-0.374,0.514-2.277,2.199-2.277h1.154c0.094,0,0.156,0.031,0.156,0.14c0,0.187-1.154,3.01-1.154,3.509c0,0.078,0,0.11,0.047,0.11
		c0.094,0,0.109-0.078,0.421-0.64c1.684-3.041,2.152-3.243,3.041-3.243c0.437,0,1.248,0.062,1.248,0.78
		c0,1.279-1.903,4.865-1.903,5.474c0,0.062,0.109,0.125,0.156,0.125c0.734,0,1.575-1.637,1.747-1.637
		c0.062,0,0.156,0.094,0.156,0.14c0,0.202-1.217,2.105-2.495,2.105H14.669z"/>
	<path fill="#FFFFFF" d="M19.442,7.682c-0.047,0-0.11-0.094-0.11-0.172c0-0.156,1.373-1.856,2.542-1.856
		c0.11,0,0.484,0.047,0.484,0.452c0,0.655-1.981,5.256-1.981,5.521c0,0.109,0.031,0.187,0.11,0.187c0.374,0,1.45-1.123,1.528-1.123
		c0.078,0,0.172,0,0.172,0.156c0,0.078-1.653,2.059-2.744,1.981c-0.452,0-0.452-0.389-0.452-0.624c0-0.436,2.058-5.318,2.058-5.396
		c0-0.047,0-0.234-0.125-0.234c-0.406,0-0.982,0.686-1.357,1.029C19.504,7.651,19.472,7.682,19.442,7.682z M22.28,1.881
		c0.422,0,0.749,0.327,0.749,0.748c0,0.422-0.327,0.749-0.749,0.749c-0.421,0-0.748-0.327-0.748-0.749
		C21.531,2.208,21.859,1.881,22.28,1.881z"/>
	<path fill="#FFFFFF" d="M26.288,5.717c0.062,0,0.14-0.015,0.218-0.031c0.078-0.016,0.187-0.031,0.297-0.031
		c0.125,0,0.172,0.125,0.172,0.172c0,0.733-1.762,2.542-1.762,4.57c0,0.655,0.249,1.496,1.06,1.496c1.684,0,2.947-2.947,2.947-4.366
		c0-0.624-0.748-0.624-0.748-1.185c0-0.405,0.249-0.811,0.701-0.811c0.671,0,0.796,0.452,0.796,1.061
		c0,1.466-1.607,6.238-4.414,6.238c-0.343,0-1.434-0.187-1.434-1.684c0-1.794,2.058-4.211,2.058-4.382c0-0.078,0-0.109-0.281-0.109
		h-1.653c-0.406,0-0.64,0.639-0.749,0.998c-0.031,0.109-0.062,0.14-0.187,0.14c-0.062,0-0.172-0.062-0.172-0.125
		c0-0.187,0.514-1.949,0.764-1.949H26.288z"/>
	<path fill="#FFFFFF" d="M35.691,6.855c0,0.749-0.655,1.965-3.587,2.527c-0.063,0.343-0.188,0.905-0.188,1.279
		c0,0.655,0.234,1.31,0.998,1.31c0.858,0,1.591-1.185,1.7-1.185c0.14,0,0.187,0.109,0.187,0.203c0,0.124-1.216,1.84-2.542,1.84
		c-1.185,0-1.497-0.951-1.497-1.965c0-2.947,1.918-5.084,3.634-5.084C35.13,5.78,35.691,6.092,35.691,6.855z M34.631,6.84
		c0-0.281-0.14-0.655-0.499-0.655c-0.842,0-1.528,1.154-1.98,2.807C34.101,8.758,34.631,7.402,34.631,6.84z"/>
	<path fill="#FFFFFF" d="M36.502,12.641c-0.078,0-0.109-0.062-0.109-0.094c0-0.297,2.121-6.144,2.121-6.238
		c0-0.109-0.078-0.187-0.312-0.187c-0.905,0-1.56,2.152-1.731,2.152c-0.125,0-0.172-0.031-0.172-0.11
		c0-1.247,0.842-2.448,2.308-2.448h0.795c0.172,0,0.265,0.063,0.265,0.125c0,0.125-1.263,3.712-1.263,3.852
		c0,0.062,0.047,0.109,0.078,0.109c0.109,0,0.265-0.358,0.701-1.122c1.233-2.121,1.934-3.026,2.854-3.026
		c0.468,0,0.827,0.327,0.827,0.796c0,0.436-0.375,0.795-0.811,0.795c-0.764,0-0.717-0.499-1.092-0.499
		c-0.172,0-0.53,0.468-0.671,0.686c-1.7,2.729-1.918,3.057-2.745,5.053c-0.047,0.109-0.094,0.156-0.187,0.156H36.502z"/>
	<path fill="#FFFFFF" d="M42.256,11.284c0.796,0,0.671,1.029,1.466,1.029c0.218,0,0.858-0.312,0.858-0.998
		c0-0.546-0.546-1.622-0.717-1.965c-0.297-0.546-0.609-1.201-0.609-1.731c0-1.2,1.138-1.903,2.261-1.903
		c0.733,0,1.513,0.234,1.513,0.951c0,0.281-0.281,0.593-0.671,0.593c-0.717,0-0.655-1.092-1.388-1.092
		c-0.452,0-0.811,0.297-0.811,0.764c0,0.468,0.405,1.17,0.686,1.747c0.359,0.733,0.702,1.357,0.702,2.058
		c0,1.201-1.575,2.09-2.651,2.09c-0.623,0-1.201-0.327-1.201-0.967C41.695,11.581,41.976,11.284,42.256,11.284z"/>
	<path fill="#FFFFFF" d="M47.637,7.682c-0.047,0-0.11-0.094-0.11-0.172c0-0.156,1.373-1.856,2.542-1.856
		c0.11,0,0.484,0.047,0.484,0.452c0,0.655-1.981,5.256-1.981,5.521c0,0.109,0.031,0.187,0.11,0.187c0.374,0,1.45-1.123,1.528-1.123
		c0.078,0,0.172,0,0.172,0.156c0,0.078-1.653,2.059-2.744,1.981c-0.452,0-0.452-0.389-0.452-0.624c0-0.436,2.058-5.318,2.058-5.396
		c0-0.047,0-0.234-0.125-0.234c-0.406,0-0.982,0.686-1.357,1.029C47.699,7.651,47.668,7.682,47.637,7.682z M50.475,1.881
		c0.421,0,0.749,0.327,0.749,0.748c0,0.422-0.327,0.749-0.749,0.749c-0.421,0-0.748-0.327-0.748-0.749
		C49.727,2.208,50.054,1.881,50.475,1.881z"/>
	<path fill="#FFFFFF" d="M51.925,6.762c-0.14,0-0.187-0.031-0.187-0.109c0-0.078,0.172-0.546,0.374-0.546h1.248
		c0.094,0,0.125,0,0.172-0.031c0.047-0.062,0.062-0.124,0.546-1.606c0.015-0.078,0.109-0.11,0.187-0.11h0.717
		c0.109,0,0.14,0.031,0.14,0.141c0,0.078-0.422,1.309-0.422,1.481c0,0.094,0.078,0.125,0.156,0.125h1.341
		c0.11,0,0.156,0.031,0.156,0.187c0,0.062-0.14,0.514-0.312,0.514c-0.265,0-0.514-0.015-0.749-0.031
		c-0.234,0-0.468-0.016-0.701-0.016c-0.156,0-0.218,0.265-0.312,0.562c-0.125,0.436-1.341,4.554-1.341,4.6
		c0,0.187,0.094,0.265,0.218,0.265c0.624,0,2.059-1.482,2.136-1.482c0.078,0,0.141,0.031,0.141,0.125
		c0,0.234-1.622,1.996-3.229,1.996c-0.327,0-0.514-0.202-0.514-0.577c0-0.218,1.575-5.193,1.575-5.38c0-0.078-0.078-0.11-0.234-0.11
		H51.925z"/>
	<path fill="#FFFFFF" d="M61.11,6.06c0.031-0.172,0.094-0.281,0.265-0.281c0.39,0,0.749,0.234,0.749,0.483
		c0,0.639-1.903,5.614-3.665,8.219c-0.951,1.403-1.731,2.37-3.462,2.37c-0.546,0-0.921-0.156-0.921-0.686
		c0-0.218,0.265-0.593,0.655-0.593c0.624,0,0.561,0.593,1.528,0.593c0.53,0,2.152-1.435,2.152-4.523
		c0-0.998-0.343-4.865-1.123-4.835c-0.842,0.031-0.686,1.778-0.935,1.778c-0.218,0-0.218-0.11-0.218-0.343
		c0-0.593,0.639-2.464,1.746-2.464c1.388,0,1.575,5.006,1.575,5.396c0,0.296-0.062,0.764,0,0.764c0.047,0,0.374-0.609,0.717-1.591
		C60.502,9.413,60.736,8.571,61.11,6.06z"/>
	<path fill="#FFFFFF" d="M68.581,12.828c-1.357,0-1.778-1.466-1.778-2.37c0-2.152,1.372-4.741,3.213-4.741
		c1.247,0,1.887,0.936,1.887,2.371C71.902,10.161,70.577,12.828,68.581,12.828z M70.062,6.122c-1.014,0-2.246,3.197-2.246,4.648
		c0,0.577-0.031,1.653,0.842,1.653c0.811,0,2.23-3.056,2.23-4.647C70.889,6.621,70.702,6.122,70.062,6.122z"/>
	<path fill="#FFFFFF" d="M72.962,6.7c-0.094,0-0.14-0.031-0.14-0.062c0-0.078,0.047-0.39,0.156-0.405
		c1.559-0.125,1.606-0.125,1.7-0.39c0.172-0.484,0.359-1.482,0.764-2.355c0.624-1.357,1.981-2.339,3.509-2.339
		c0.452,0,1.326,0.234,1.326,0.811c0,0.452-0.203,0.795-0.702,0.795c-1.029,0-0.639-1.092-1.434-1.092c-0.328,0-1.341,0-2.027,3.368
		c-0.078,0.39-0.234,0.873-0.234,0.998c0,0.078,0.062,0.078,0.109,0.078h1.669c0.094,0,0.125,0,0.125,0.094
		c0,0.015-0.063,0.499-0.172,0.499h-1.7c-0.171,0-0.234,0.109-0.281,0.327c-1.544,7.018-1.933,8.218-2.947,9.076
		c-0.499,0.422-1.138,0.749-1.809,0.749c-0.468,0-0.982-0.125-0.982-0.686c0-0.312,0.296-0.562,0.593-0.562
		c0.577,0,0.935,0.562,1.341,0.562c0.281,0,0.624-0.265,0.951-1.747c1.201-5.411,1.684-7.392,1.684-7.564
		c0-0.078-0.062-0.156-0.14-0.156H72.962z"/>
	<path fill="#FFFFFF" d="M82.881,11.55c0,0.593,0.265,0.639,1.029,0.701c0.172,0.016,0.312,0.031,0.312,0.094
		c0,0.125-0.015,0.328-0.171,0.328c-0.141,0-0.297-0.031-2.152-0.031c-0.92,0-1.045,0.031-1.232,0.031
		c-0.078,0-0.078-0.063-0.078-0.14c0-0.14,0.078-0.25,0.156-0.25c0.218,0,0.655-0.078,0.889-0.187
		c0.343-0.14,0.749-0.826,1.061-2.012c0.608-2.231,1.778-5.911,1.996-6.675c0.031-0.11,0.249-0.764,0.249-0.858
		c0-0.078-0.047-0.328-0.468-0.422L83.27,1.896c-0.124-0.031-0.156-0.062-0.156-0.202c0-0.125,0.078-0.172,0.172-0.172
		c0.187,0,1.138,0.062,1.621,0.062c0.234,0,1.326-0.062,1.56-0.062c0.125,0,0.202,0.078,0.218,0.156
		c0.593,3.181,0.92,6.534,1.045,7.642c0.078,0.733,0.124,0.811,0.187,0.811c0.078,0,0.156-0.11,0.218-0.187
		c1.138-1.591,4.585-6.924,5.567-8.188c0.11-0.14,0.187-0.234,0.312-0.234c0.094,0,1.014,0.062,1.232,0.062
		c0.188,0,0.998-0.062,1.45-0.062c0.094,0,0.094,0.047,0.094,0.172c0,0.156-0.031,0.249-0.156,0.265
		c-0.218,0.015-0.717,0.094-0.936,0.156c-0.374,0.109-0.53,0.624-0.623,1.107c-0.983,4.85-1.747,7.782-1.747,8.375
		c0,0.484,0.312,0.546,0.593,0.577l0.78,0.094c0.078,0.015,0.125,0.015,0.125,0.156c0,0.047-0.062,0.25-0.172,0.25
		c-0.187,0-0.281-0.031-1.434-0.031c-2.106,0-2.511,0.031-2.776,0.031c-0.141,0-0.172-0.063-0.172-0.14
		c0-0.188,0.031-0.218,0.327-0.265l0.717-0.11c0.218-0.015,0.39-0.187,0.452-0.406c0.733-2.729,1.45-6.658,2.058-8.748
		c0.047-0.172,0.094-0.468,0.094-0.515c0-0.047-0.015-0.078-0.078-0.078c-0.047,0-0.483,0.546-0.577,0.686
		c-2.308,3.275-4.725,7.111-6.113,9.357c-0.031,0.062-0.187,0.343-0.327,0.343c-0.047,0-0.125-0.031-0.187-0.593
		c-0.421-4.46-0.998-8.639-1.138-9.045c-0.016-0.047-0.031-0.125-0.125-0.125c-0.078,0-0.125,0.063-0.671,1.747
		C83.177,9.491,82.881,11.316,82.881,11.55z"/>
	<path fill="#FFFFFF" d="M96.714,7.682c-0.047,0-0.11-0.094-0.11-0.172c0-0.156,1.373-1.856,2.542-1.856
		c0.11,0,0.484,0.047,0.484,0.452c0,0.655-1.981,5.256-1.981,5.521c0,0.109,0.031,0.187,0.11,0.187c0.374,0,1.45-1.123,1.528-1.123
		c0.078,0,0.172,0,0.172,0.156c0,0.078-1.653,2.059-2.744,1.981c-0.452,0-0.452-0.389-0.452-0.624c0-0.436,2.058-5.318,2.058-5.396
		c0-0.047,0-0.234-0.125-0.234c-0.406,0-0.982,0.686-1.357,1.029C96.776,7.651,96.744,7.682,96.714,7.682z M99.552,1.881
		c0.422,0,0.749,0.327,0.749,0.748c0,0.422-0.327,0.749-0.749,0.749c-0.421,0-0.748-0.327-0.748-0.749
		C98.803,2.208,99.131,1.881,99.552,1.881z"/>
	<path fill="#FFFFFF" d="M100.284,11.284c0.796,0,0.671,1.029,1.466,1.029c0.218,0,0.858-0.312,0.858-0.998
		c0-0.546-0.546-1.622-0.717-1.965c-0.297-0.546-0.609-1.201-0.609-1.731c0-1.2,1.138-1.903,2.261-1.903
		c0.733,0,1.513,0.234,1.513,0.951c0,0.281-0.281,0.593-0.671,0.593c-0.717,0-0.655-1.092-1.388-1.092
		c-0.452,0-0.811,0.297-0.811,0.764c0,0.468,0.406,1.17,0.686,1.747c0.359,0.733,0.702,1.357,0.702,2.058
		c0,1.201-1.575,2.09-2.652,2.09c-0.623,0-1.2-0.327-1.2-0.967C99.723,11.581,100.004,11.284,100.284,11.284z"/>
	<path fill="#FFFFFF" d="M104.901,11.284c0.795,0,0.671,1.029,1.466,1.029c0.218,0,0.858-0.312,0.858-0.998
		c0-0.546-0.546-1.622-0.717-1.965c-0.296-0.546-0.608-1.201-0.608-1.731c0-1.2,1.138-1.903,2.261-1.903
		c0.733,0,1.512,0.234,1.512,0.951c0,0.281-0.281,0.593-0.671,0.593c-0.717,0-0.655-1.092-1.388-1.092
		c-0.452,0-0.811,0.297-0.811,0.764c0,0.468,0.406,1.17,0.686,1.747c0.359,0.733,0.701,1.357,0.701,2.058
		c0,1.201-1.575,2.09-2.651,2.09c-0.624,0-1.201-0.327-1.201-0.967C104.339,11.581,104.62,11.284,104.901,11.284z"/>
	<path fill="#FFFFFF" d="M111.591,12.828c-1.357,0-1.778-1.466-1.778-2.37c0-2.152,1.372-4.741,3.213-4.741
		c1.247,0,1.887,0.936,1.887,2.371C114.912,10.161,113.587,12.828,111.591,12.828z M113.072,6.122c-1.014,0-2.246,3.197-2.246,4.648
		c0,0.577-0.031,1.653,0.842,1.653c0.811,0,2.23-3.056,2.23-4.647C113.899,6.621,113.712,6.122,113.072,6.122z"/>
	<path fill="#FFFFFF" d="M119.965,12.641c-0.109,0-0.202-0.031-0.202-0.156c0-0.281,0.873-2.823,0.873-2.994
		c0-0.047-0.015-0.094-0.047-0.094c-0.062,0-1.45,2.105-2.386,2.9c-0.484,0.406-0.951,0.53-1.42,0.53
		c-0.374,0-0.655-0.249-0.655-0.936c0-0.686,2.043-5.208,2.043-5.739c0-0.094-0.093-0.172-0.187-0.172
		c-0.312,0-1.466,0.671-1.903,2.136c-0.015,0.063-0.063,0.063-0.14,0.063c-0.078,0-0.125-0.078-0.125-0.187
		c0-0.39,0.608-1.575,1.295-1.996c0.311-0.188,0.81-0.468,2.183-0.468c0.094,0,0.281,0.047,0.281,0.265
		c0,0.297-2.23,5.193-2.23,5.91c0,0.218,0.187,0.312,0.296,0.312c0.53,0,1.076-0.514,2.261-2.183
		c0.733-0.983,1.029-1.622,1.092-1.793c0.717-1.949,0.686-2.386,0.92-2.386h0.921c0.124,0,0.202,0.062,0.202,0.109
		c0,0.265-1.965,5.661-1.965,6.004c0,0.078,0.031,0.202,0.125,0.202c0.717,0,1.684-1.793,1.746-1.793
		c0.094,0,0.218,0.015,0.218,0.124c0,0.312-1.248,2.34-2.573,2.34H119.965z"/>
	<path fill="#FFFFFF" d="M124.082,12.641c-0.078,0-0.109-0.062-0.109-0.094c0-0.297,2.121-6.144,2.121-6.238
		c0-0.109-0.078-0.187-0.312-0.187c-0.905,0-1.56,2.152-1.731,2.152c-0.125,0-0.172-0.031-0.172-0.11
		c0-1.247,0.842-2.448,2.308-2.448h0.795c0.172,0,0.265,0.063,0.265,0.125c0,0.125-1.263,3.712-1.263,3.852
		c0,0.062,0.047,0.109,0.078,0.109c0.109,0,0.265-0.358,0.701-1.122c1.233-2.121,1.934-3.026,2.855-3.026
		c0.468,0,0.826,0.327,0.826,0.796c0,0.436-0.374,0.795-0.811,0.795c-0.764,0-0.717-0.499-1.092-0.499
		c-0.172,0-0.53,0.468-0.671,0.686c-1.7,2.729-1.918,3.057-2.745,5.053c-0.047,0.109-0.094,0.156-0.187,0.156H124.082z"/>
	<path fill="#FFFFFF" d="M130.788,7.682c-0.047,0-0.109-0.094-0.109-0.172c0-0.156,1.372-1.856,2.542-1.856
		c0.108,0,0.482,0.047,0.482,0.452c0,0.655-1.98,5.256-1.98,5.521c0,0.109,0.031,0.187,0.109,0.187c0.374,0,1.45-1.123,1.528-1.123
		c0.078,0,0.171,0,0.171,0.156c0,0.078-1.653,2.059-2.744,1.981c-0.452,0-0.452-0.389-0.452-0.624c0-0.436,2.058-5.318,2.058-5.396
		c0-0.047,0-0.234-0.124-0.234c-0.405,0-0.983,0.686-1.357,1.029C130.85,7.651,130.819,7.682,130.788,7.682z M133.626,1.881
		c0.421,0,0.748,0.327,0.748,0.748c0,0.422-0.327,0.749-0.748,0.749c-0.421,0-0.748-0.327-0.748-0.749
		C132.878,2.208,133.205,1.881,133.626,1.881z"/>
	<path fill="#FFFFFF" d="M147.599,6.559c0.234,0,0.234-0.031,0.297-0.297c0.733-2.916,0.905-3.524,0.905-3.789
		c0-0.172,0-0.499-1.029-0.499c-0.375,0-0.39-0.14-0.39-0.218c0-0.078,0.031-0.234,0.187-0.234c0.187,0,0.608,0.062,2.012,0.062
		c1.559,0,1.84-0.062,1.949-0.062c0.14,0,0.171,0,0.171,0.094c0,0.187-0.016,0.359-0.593,0.359c-0.468,0-0.717,0.156-0.889,0.826
		c-1.949,7.626-2.12,8.499-2.12,8.936c0,0.39,0.327,0.53,1.309,0.53c0.14,0,0.156,0.047,0.156,0.109
		c0,0.156-0.031,0.297-0.219,0.297c-0.108,0-0.218-0.031-1.777-0.031c-1.996,0-2.277,0.031-2.402,0.031
		c-0.124,0-0.124-0.11-0.124-0.14c0-0.172,0.078-0.265,0.14-0.265c1.154,0,1.279-0.203,1.498-1.092
		c0.858-3.525,0.998-3.93,0.998-3.977c0-0.125-0.156-0.125-0.313-0.125h-4.928c-0.14,0-0.234,0.031-0.281,0.234
		c-0.827,3.603-0.967,4.273-0.967,4.429c0,0.312,0.218,0.53,1.341,0.53c0.094,0,0.156,0.031,0.156,0.202s-0.032,0.203-0.219,0.203
		c-0.14,0-0.437-0.031-2.214-0.031c-1.419,0-1.732,0.031-1.949,0.031c-0.126,0-0.156-0.016-0.156-0.125
		c0-0.234,0.047-0.25,0.374-0.281c0.905-0.078,0.998-0.078,1.217-0.983c1.7-6.83,2.104-8.125,2.104-8.78
		c0-0.437-0.281-0.53-1.06-0.53c-0.282,0-0.329-0.078-0.329-0.187c0-0.047,0.047-0.265,0.156-0.265c0.297,0,1.295,0.062,2.106,0.062
		c0.811,0,1.7-0.062,1.919-0.062c0.094,0,0.124,0.015,0.124,0.234c0,0.172-0.047,0.218-0.218,0.218c-0.64,0-1.03,0.109-1.201,0.717
		c-0.156,0.546-0.951,3.462-0.951,3.742c0,0.125,0.108,0.125,0.218,0.125H147.599z"/>
	<path fill="#FFFFFF" d="M156.177,6.855c0,0.749-0.655,1.965-3.587,2.527c-0.062,0.343-0.187,0.905-0.187,1.279
		c0,0.655,0.234,1.31,0.998,1.31c0.858,0,1.591-1.185,1.701-1.185c0.14,0,0.187,0.109,0.187,0.203c0,0.124-1.217,1.84-2.543,1.84
		c-1.185,0-1.496-0.951-1.496-1.965c0-2.947,1.917-5.084,3.633-5.084C155.615,5.78,156.177,6.092,156.177,6.855z M155.116,6.84
		c0-0.281-0.14-0.655-0.498-0.655c-0.843,0-1.529,1.154-1.981,2.807C154.585,8.758,155.116,7.402,155.116,6.84z"/>
	<path fill="#FFFFFF" d="M163.257,5.53c0.047,0,0.094,0,0.094,0.094c0,0.343-2.199,5.427-2.199,5.958
		c0,0.094,0.031,0.202,0.156,0.202c0.452,0,1.529-1.669,1.716-1.669c0.062,0,0.14,0.063,0.14,0.125c0,0.125-1.762,2.589-2.854,2.589
		c-0.343,0-0.484-0.187-0.484-0.359c0-0.405,0.982-2.698,0.982-2.76c0-0.047-0.015-0.078-0.062-0.078
		c-0.14,0-0.453,0.623-0.624,0.842c-0.795,1.061-1.887,2.355-3.041,2.355c-0.53,0-0.624-0.359-0.624-0.78
		c0-1.216,1.466-4.211,2.87-5.521c0.81-0.748,1.372-0.811,1.903-0.811c0.452,0,0.592,0.11,0.701,0.218
		c0.108,0.11,0.14,0.218,0.187,0.218c0.124,0,0.203-0.624,0.39-0.624H163.257z M161.604,6.684c0-0.328-0.094-0.562-0.64-0.562
		c-1.575,0-3.165,4.289-3.165,5.443c0,0.25,0.094,0.39,0.234,0.39C159.092,11.955,161.604,7.994,161.604,6.684z"/>
	<path fill="#FFFFFF" d="M166.999,2.505c0-0.406-0.218-0.422-0.53-0.422c-0.25,0-0.484,0-0.484-0.234
		c0-0.187,0.187-0.234,0.484-0.265c0.951-0.094,1.638-0.218,1.746-0.218c0.094,0,0.235,0,0.235,0.141
		c0,0.608-3.057,9.263-3.057,9.606c0,0.187,0.094,0.265,0.265,0.265c0.343,0,1.482-1.466,1.669-1.466c0.078,0,0.14,0.062,0.14,0.202
		s-2.09,2.714-3.104,2.714c-0.342,0-0.529-0.218-0.529-0.53C163.834,11.862,166.999,2.66,166.999,2.505z"/>
	<path fill="#FFFFFF" d="M168.558,6.762c-0.14,0-0.187-0.031-0.187-0.109c0-0.078,0.172-0.546,0.374-0.546h1.248
		c0.094,0,0.124,0,0.171-0.031c0.047-0.062,0.063-0.124,0.546-1.606c0.016-0.078,0.11-0.11,0.187-0.11h0.717
		c0.11,0,0.14,0.031,0.14,0.141c0,0.078-0.421,1.309-0.421,1.481c0,0.094,0.077,0.125,0.156,0.125h1.34
		c0.11,0,0.156,0.031,0.156,0.187c0,0.062-0.14,0.514-0.311,0.514c-0.266,0-0.516-0.015-0.75-0.031
		c-0.234,0-0.468-0.016-0.701-0.016c-0.156,0-0.218,0.265-0.311,0.562c-0.126,0.436-1.341,4.554-1.341,4.6
		c0,0.187,0.094,0.265,0.218,0.265c0.624,0,2.059-1.482,2.136-1.482c0.079,0,0.14,0.031,0.14,0.125c0,0.234-1.622,1.996-3.228,1.996
		c-0.327,0-0.514-0.202-0.514-0.577c0-0.218,1.575-5.193,1.575-5.38c0-0.078-0.077-0.11-0.234-0.11H168.558z"/>
	<path fill="#FFFFFF" d="M173.112,12.641c-0.124,0-0.202-0.078-0.202-0.234c0-0.156,3.009-9.794,3.009-9.903
		c0-0.406-0.218-0.422-0.53-0.422c-0.249,0-0.482,0-0.482-0.234c0-0.187,0.187-0.234,0.482-0.265
		c0.951-0.094,1.638-0.218,1.748-0.218c0.094,0,0.234,0,0.234,0.141c0,0.187-1.935,6.612-1.935,6.705
		c0,0.031,0.016,0.063,0.047,0.063c0.063,0,0.11-0.125,0.14-0.172c1.311-1.809,2.48-2.324,3.088-2.324c0.64,0,1.03,0.39,1.03,1.045
		c0,2.074-1.949,6.004-3.696,6.004c-0.406,0-0.656-0.187-0.656-0.624c0-0.374,0.297-0.764,0.656-0.764
		c0.529,0,0.374,0.577,0.779,0.577c0.795,0,1.685-3.665,1.685-4.382c0-0.562-0.219-0.921-0.687-0.921
		c-0.452,0-1.372,0.702-2.433,2.293c-0.685,1.029-0.717,1.7-1.325,3.415c-0.031,0.094-0.061,0.218-0.187,0.218H173.112z"/>
</g>
<g>
	<path fill="#F1B82D" d="M1.46,20.627c0.14-0.686,0.218-0.905,0.218-1.247c0-0.218-0.14-0.421-1.17-0.452
		c-0.202,0-0.202-0.063-0.202-0.218c0-0.14,0.062-0.187,0.125-0.187c0.156,0,1.419,0.062,1.949,0.062
		c0.936,0,1.84-0.062,2.121-0.062c0.094,0,0.11,0.125,0.11,0.234c0,0.125-0.094,0.218-0.172,0.218c-0.39,0-0.889,0.078-0.998,0.187
		c-0.14,0.14-0.265,0.421-0.53,1.559c-0.764,3.306-1.17,5.022-1.17,6.02c0,2.152,1.872,2.339,2.573,2.339
		c1.544,0,3.259-0.858,4.024-3.728c1.045-3.93,1.17-4.819,1.17-5.489c0-0.639-0.39-0.701-0.811-0.81
		c-0.312-0.078-0.671-0.11-0.733-0.11c-0.031,0-0.094-0.109-0.094-0.187c0-0.062,0.047-0.234,0.203-0.234
		c0.172,0,1.217,0.062,1.512,0.062c0.515,0,1.934-0.062,2.23-0.062c0.063,0,0.11,0.078,0.11,0.202
		c-0.015,0.047-0.047,0.156-0.14,0.172l-0.546,0.078c-0.312,0.047-0.811,0.234-1.108,1.2c-0.514,1.669-1.122,5.396-1.949,7.065
		c-0.889,1.794-2.277,2.527-4.351,2.527c-1.98,0-3.571-0.983-3.571-3.01C0.26,25.555,0.868,23.559,1.46,20.627z"/>
	<path fill="#F1B82D" d="M14.669,29.641c-0.094,0-0.109-0.031-0.109-0.125c0-0.577,2.058-4.99,2.058-5.801
		c0-0.359-0.265-0.452-0.405-0.452c-1.029,0-1.793,1.732-3.29,4.289c-0.078,0.14-0.265,0.608-0.842,1.949
		c-0.031,0.078-0.062,0.14-0.171,0.14h-0.921c-0.078,0-0.124-0.015-0.124-0.125c0-0.249,2.12-5.645,2.12-6.097
		c0-0.078-0.015-0.187-0.124-0.187c-1.201,0-1.872,1.559-1.872,1.887c0,0.047-0.094,0.078-0.14,0.078c-0.062,0-0.14-0.031-0.14-0.14
		c0-0.374,0.514-2.277,2.199-2.277h1.154c0.094,0,0.156,0.031,0.156,0.14c0,0.187-1.154,3.01-1.154,3.509c0,0.078,0,0.11,0.047,0.11
		c0.094,0,0.109-0.078,0.421-0.64c1.684-3.041,2.152-3.243,3.041-3.243c0.437,0,1.248,0.062,1.248,0.78
		c0,1.279-1.903,4.865-1.903,5.474c0,0.062,0.109,0.125,0.156,0.125c0.734,0,1.575-1.637,1.747-1.637
		c0.062,0,0.156,0.094,0.156,0.14c0,0.202-1.217,2.105-2.495,2.105H14.669z"/>
	<path fill="#F1B82D" d="M19.442,24.682c-0.047,0-0.11-0.094-0.11-0.172c0-0.156,1.373-1.856,2.542-1.856
		c0.11,0,0.484,0.047,0.484,0.452c0,0.655-1.981,5.256-1.981,5.521c0,0.109,0.031,0.187,0.11,0.187c0.374,0,1.45-1.123,1.528-1.123
		c0.078,0,0.172,0,0.172,0.156c0,0.078-1.653,2.059-2.744,1.981c-0.452,0-0.452-0.389-0.452-0.624c0-0.436,2.058-5.318,2.058-5.396
		c0-0.047,0-0.234-0.125-0.234c-0.406,0-0.982,0.686-1.357,1.029C19.504,24.651,19.472,24.682,19.442,24.682z M22.28,18.881
		c0.422,0,0.749,0.327,0.749,0.748c0,0.422-0.327,0.749-0.749,0.749c-0.421,0-0.748-0.327-0.748-0.749
		C21.531,19.208,21.859,18.881,22.28,18.881z"/>
	<path fill="#F1B82D" d="M26.288,22.717c0.062,0,0.14-0.015,0.218-0.031c0.078-0.016,0.187-0.031,0.297-0.031
		c0.125,0,0.172,0.125,0.172,0.172c0,0.733-1.762,2.542-1.762,4.57c0,0.655,0.249,1.496,1.06,1.496c1.684,0,2.947-2.947,2.947-4.366
		c0-0.624-0.748-0.624-0.748-1.185c0-0.405,0.249-0.811,0.701-0.811c0.671,0,0.796,0.452,0.796,1.061
		c0,1.466-1.607,6.238-4.414,6.238c-0.343,0-1.434-0.187-1.434-1.684c0-1.794,2.058-4.211,2.058-4.382c0-0.078,0-0.109-0.281-0.109
		h-1.653c-0.406,0-0.64,0.639-0.749,0.998c-0.031,0.109-0.062,0.14-0.187,0.14c-0.062,0-0.172-0.062-0.172-0.125
		c0-0.187,0.514-1.949,0.764-1.949H26.288z"/>
	<path fill="#F1B82D" d="M35.691,23.855c0,0.749-0.655,1.965-3.587,2.527c-0.063,0.343-0.188,0.905-0.188,1.279
		c0,0.655,0.234,1.31,0.998,1.31c0.858,0,1.591-1.185,1.7-1.185c0.14,0,0.187,0.109,0.187,0.203c0,0.124-1.216,1.84-2.542,1.84
		c-1.185,0-1.497-0.951-1.497-1.965c0-2.947,1.918-5.084,3.634-5.084C35.13,22.78,35.691,23.092,35.691,23.855z M34.631,23.84
		c0-0.281-0.14-0.655-0.499-0.655c-0.842,0-1.528,1.154-1.98,2.807C34.101,25.758,34.631,24.402,34.631,23.84z"/>
	<path fill="#F1B82D" d="M36.502,29.641c-0.078,0-0.109-0.062-0.109-0.094c0-0.297,2.121-6.144,2.121-6.238
		c0-0.109-0.078-0.187-0.312-0.187c-0.905,0-1.56,2.152-1.731,2.152c-0.125,0-0.172-0.031-0.172-0.11
		c0-1.247,0.842-2.448,2.308-2.448h0.795c0.172,0,0.265,0.063,0.265,0.125c0,0.125-1.263,3.712-1.263,3.852
		c0,0.062,0.047,0.109,0.078,0.109c0.109,0,0.265-0.358,0.701-1.122c1.233-2.121,1.934-3.026,2.854-3.026
		c0.468,0,0.827,0.327,0.827,0.796c0,0.436-0.375,0.795-0.811,0.795c-0.764,0-0.717-0.499-1.092-0.499
		c-0.172,0-0.53,0.468-0.671,0.686c-1.7,2.729-1.918,3.057-2.745,5.053c-0.047,0.109-0.094,0.156-0.187,0.156H36.502z"/>
	<path fill="#F1B82D" d="M42.256,28.284c0.796,0,0.671,1.029,1.466,1.029c0.218,0,0.858-0.312,0.858-0.998
		c0-0.546-0.546-1.622-0.717-1.965c-0.297-0.546-0.609-1.201-0.609-1.731c0-1.2,1.138-1.903,2.261-1.903
		c0.733,0,1.513,0.234,1.513,0.951c0,0.281-0.281,0.593-0.671,0.593c-0.717,0-0.655-1.092-1.388-1.092
		c-0.452,0-0.811,0.297-0.811,0.764c0,0.468,0.405,1.17,0.686,1.747c0.359,0.733,0.702,1.357,0.702,2.058
		c0,1.201-1.575,2.09-2.651,2.09c-0.623,0-1.201-0.327-1.201-0.967C41.695,28.581,41.976,28.284,42.256,28.284z"/>
	<path fill="#F1B82D" d="M47.637,24.682c-0.047,0-0.11-0.094-0.11-0.172c0-0.156,1.373-1.856,2.542-1.856
		c0.11,0,0.484,0.047,0.484,0.452c0,0.655-1.981,5.256-1.981,5.521c0,0.109,0.031,0.187,0.11,0.187c0.374,0,1.45-1.123,1.528-1.123
		c0.078,0,0.172,0,0.172,0.156c0,0.078-1.653,2.059-2.744,1.981c-0.452,0-0.452-0.389-0.452-0.624c0-0.436,2.058-5.318,2.058-5.396
		c0-0.047,0-0.234-0.125-0.234c-0.406,0-0.982,0.686-1.357,1.029C47.699,24.651,47.668,24.682,47.637,24.682z M50.475,18.881
		c0.421,0,0.749,0.327,0.749,0.748c0,0.422-0.327,0.749-0.749,0.749c-0.421,0-0.748-0.327-0.748-0.749
		C49.727,19.208,50.054,18.881,50.475,18.881z"/>
	<path fill="#F1B82D" d="M51.925,23.762c-0.14,0-0.187-0.031-0.187-0.109c0-0.078,0.172-0.546,0.374-0.546h1.248
		c0.094,0,0.125,0,0.172-0.031c0.047-0.062,0.062-0.124,0.546-1.606c0.015-0.078,0.109-0.11,0.187-0.11h0.717
		c0.109,0,0.14,0.031,0.14,0.141c0,0.078-0.422,1.309-0.422,1.481c0,0.094,0.078,0.125,0.156,0.125h1.341
		c0.11,0,0.156,0.031,0.156,0.187c0,0.062-0.14,0.514-0.312,0.514c-0.265,0-0.514-0.015-0.749-0.031
		c-0.234,0-0.468-0.016-0.701-0.016c-0.156,0-0.218,0.265-0.312,0.562c-0.125,0.436-1.341,4.554-1.341,4.6
		c0,0.187,0.094,0.265,0.218,0.265c0.624,0,2.059-1.482,2.136-1.482c0.078,0,0.141,0.031,0.141,0.125
		c0,0.234-1.622,1.996-3.229,1.996c-0.327,0-0.514-0.202-0.514-0.577c0-0.218,1.575-5.193,1.575-5.38c0-0.078-0.078-0.11-0.234-0.11
		H51.925z"/>
	<path fill="#F1B82D" d="M61.11,23.06c0.031-0.172,0.094-0.281,0.265-0.281c0.39,0,0.749,0.234,0.749,0.483
		c0,0.639-1.903,5.614-3.665,8.219c-0.951,1.403-1.731,2.37-3.462,2.37c-0.546,0-0.921-0.156-0.921-0.686
		c0-0.218,0.265-0.593,0.655-0.593c0.624,0,0.561,0.593,1.528,0.593c0.53,0,2.152-1.435,2.152-4.523
		c0-0.998-0.343-4.865-1.123-4.835c-0.842,0.031-0.686,1.778-0.935,1.778c-0.218,0-0.218-0.11-0.218-0.343
		c0-0.593,0.639-2.464,1.746-2.464c1.388,0,1.575,5.006,1.575,5.396c0,0.296-0.062,0.764,0,0.764c0.047,0,0.374-0.609,0.717-1.591
		C60.502,26.413,60.736,25.571,61.11,23.06z"/>
	<path fill="#F1B82D" d="M68.581,29.828c-1.357,0-1.778-1.466-1.778-2.37c0-2.152,1.372-4.741,3.213-4.741
		c1.247,0,1.887,0.936,1.887,2.371C71.902,27.161,70.577,29.828,68.581,29.828z M70.062,23.122c-1.014,0-2.246,3.197-2.246,4.648
		c0,0.577-0.031,1.653,0.842,1.653c0.811,0,2.23-3.056,2.23-4.647C70.889,23.621,70.702,23.122,70.062,23.122z"/>
	<path fill="#F1B82D" d="M72.962,23.7c-0.094,0-0.14-0.031-0.14-0.062c0-0.078,0.047-0.39,0.156-0.405
		c1.559-0.125,1.606-0.125,1.7-0.39c0.172-0.484,0.359-1.482,0.764-2.355c0.624-1.357,1.981-2.339,3.509-2.339
		c0.452,0,1.326,0.234,1.326,0.811c0,0.452-0.203,0.795-0.702,0.795c-1.029,0-0.639-1.092-1.434-1.092c-0.328,0-1.341,0-2.027,3.368
		c-0.078,0.39-0.234,0.873-0.234,0.998c0,0.078,0.062,0.078,0.109,0.078h1.669c0.094,0,0.125,0,0.125,0.094
		c0,0.015-0.063,0.499-0.172,0.499h-1.7c-0.171,0-0.234,0.109-0.281,0.327c-1.544,7.018-1.933,8.218-2.947,9.076
		c-0.499,0.422-1.138,0.749-1.809,0.749c-0.468,0-0.982-0.125-0.982-0.686c0-0.312,0.296-0.562,0.593-0.562
		c0.577,0,0.935,0.562,1.341,0.562c0.281,0,0.624-0.265,0.951-1.747c1.201-5.411,1.684-7.392,1.684-7.564
		c0-0.078-0.062-0.156-0.14-0.156H72.962z"/>
	<path fill="#F1B82D" d="M82.881,28.55c0,0.593,0.265,0.639,1.029,0.701c0.172,0.016,0.312,0.031,0.312,0.094
		c0,0.125-0.015,0.328-0.171,0.328c-0.141,0-0.297-0.031-2.152-0.031c-0.92,0-1.045,0.031-1.232,0.031
		c-0.078,0-0.078-0.063-0.078-0.14c0-0.14,0.078-0.25,0.156-0.25c0.218,0,0.655-0.078,0.889-0.187
		c0.343-0.14,0.749-0.826,1.061-2.012c0.608-2.231,1.778-5.911,1.996-6.675c0.031-0.11,0.249-0.764,0.249-0.858
		c0-0.078-0.047-0.328-0.468-0.422l-1.201-0.234c-0.124-0.031-0.156-0.062-0.156-0.202c0-0.125,0.078-0.172,0.172-0.172
		c0.187,0,1.138,0.062,1.621,0.062c0.234,0,1.326-0.062,1.56-0.062c0.125,0,0.202,0.078,0.218,0.156
		c0.593,3.181,0.92,6.534,1.045,7.642c0.078,0.733,0.124,0.811,0.187,0.811c0.078,0,0.156-0.11,0.218-0.187
		c1.138-1.591,4.585-6.924,5.567-8.188c0.11-0.14,0.187-0.234,0.312-0.234c0.094,0,1.014,0.062,1.232,0.062
		c0.188,0,0.998-0.062,1.45-0.062c0.094,0,0.094,0.047,0.094,0.172c0,0.156-0.031,0.249-0.156,0.265
		c-0.218,0.015-0.717,0.094-0.936,0.156c-0.374,0.109-0.53,0.624-0.623,1.107c-0.983,4.85-1.747,7.782-1.747,8.375
		c0,0.484,0.312,0.546,0.593,0.577l0.78,0.094c0.078,0.015,0.125,0.015,0.125,0.156c0,0.047-0.062,0.25-0.172,0.25
		c-0.187,0-0.281-0.031-1.434-0.031c-2.106,0-2.511,0.031-2.776,0.031c-0.141,0-0.172-0.063-0.172-0.14
		c0-0.188,0.031-0.218,0.327-0.265l0.717-0.11c0.218-0.015,0.39-0.187,0.452-0.406c0.733-2.729,1.45-6.658,2.058-8.748
		c0.047-0.172,0.094-0.468,0.094-0.515c0-0.047-0.015-0.078-0.078-0.078c-0.047,0-0.483,0.546-0.577,0.686
		c-2.308,3.275-4.725,7.111-6.113,9.357c-0.031,0.062-0.187,0.343-0.327,0.343c-0.047,0-0.125-0.031-0.187-0.593
		c-0.421-4.46-0.998-8.639-1.138-9.045c-0.016-0.047-0.031-0.125-0.125-0.125c-0.078,0-0.125,0.063-0.671,1.747
		C83.177,26.491,82.881,28.316,82.881,28.55z"/>
	<path fill="#F1B82D" d="M96.714,24.682c-0.047,0-0.11-0.094-0.11-0.172c0-0.156,1.373-1.856,2.542-1.856
		c0.11,0,0.484,0.047,0.484,0.452c0,0.655-1.981,5.256-1.981,5.521c0,0.109,0.031,0.187,0.11,0.187c0.374,0,1.45-1.123,1.528-1.123
		c0.078,0,0.172,0,0.172,0.156c0,0.078-1.653,2.059-2.744,1.981c-0.452,0-0.452-0.389-0.452-0.624c0-0.436,2.058-5.318,2.058-5.396
		c0-0.047,0-0.234-0.125-0.234c-0.406,0-0.982,0.686-1.357,1.029C96.776,24.651,96.744,24.682,96.714,24.682z M99.552,18.881
		c0.422,0,0.749,0.327,0.749,0.748c0,0.422-0.327,0.749-0.749,0.749c-0.421,0-0.748-0.327-0.748-0.749
		C98.803,19.208,99.131,18.881,99.552,18.881z"/>
	<path fill="#F1B82D" d="M100.284,28.284c0.796,0,0.671,1.029,1.466,1.029c0.218,0,0.858-0.312,0.858-0.998
		c0-0.546-0.546-1.622-0.717-1.965c-0.297-0.546-0.609-1.201-0.609-1.731c0-1.2,1.138-1.903,2.261-1.903
		c0.733,0,1.513,0.234,1.513,0.951c0,0.281-0.281,0.593-0.671,0.593c-0.717,0-0.655-1.092-1.388-1.092
		c-0.452,0-0.811,0.297-0.811,0.764c0,0.468,0.406,1.17,0.686,1.747c0.359,0.733,0.702,1.357,0.702,2.058
		c0,1.201-1.575,2.09-2.652,2.09c-0.623,0-1.2-0.327-1.2-0.967C99.723,28.581,100.004,28.284,100.284,28.284z"/>
	<path fill="#F1B82D" d="M104.901,28.284c0.795,0,0.671,1.029,1.466,1.029c0.218,0,0.858-0.312,0.858-0.998
		c0-0.546-0.546-1.622-0.717-1.965c-0.296-0.546-0.608-1.201-0.608-1.731c0-1.2,1.138-1.903,2.261-1.903
		c0.733,0,1.512,0.234,1.512,0.951c0,0.281-0.281,0.593-0.671,0.593c-0.717,0-0.655-1.092-1.388-1.092
		c-0.452,0-0.811,0.297-0.811,0.764c0,0.468,0.406,1.17,0.686,1.747c0.359,0.733,0.701,1.357,0.701,2.058
		c0,1.201-1.575,2.09-2.651,2.09c-0.624,0-1.201-0.327-1.201-0.967C104.339,28.581,104.62,28.284,104.901,28.284z"/>
	<path fill="#F1B82D" d="M111.591,29.828c-1.357,0-1.778-1.466-1.778-2.37c0-2.152,1.372-4.741,3.213-4.741
		c1.247,0,1.887,0.936,1.887,2.371C114.912,27.161,113.587,29.828,111.591,29.828z M113.072,23.122
		c-1.014,0-2.246,3.197-2.246,4.648c0,0.577-0.031,1.653,0.842,1.653c0.811,0,2.23-3.056,2.23-4.647
		C113.899,23.621,113.712,23.122,113.072,23.122z"/>
	<path fill="#F1B82D" d="M119.965,29.641c-0.109,0-0.202-0.031-0.202-0.156c0-0.281,0.873-2.823,0.873-2.994
		c0-0.047-0.015-0.094-0.047-0.094c-0.062,0-1.45,2.105-2.386,2.9c-0.484,0.406-0.951,0.53-1.42,0.53
		c-0.374,0-0.655-0.249-0.655-0.936c0-0.686,2.043-5.208,2.043-5.739c0-0.094-0.093-0.172-0.187-0.172
		c-0.312,0-1.466,0.671-1.903,2.136c-0.015,0.063-0.063,0.063-0.14,0.063c-0.078,0-0.125-0.078-0.125-0.187
		c0-0.39,0.608-1.575,1.295-1.996c0.311-0.188,0.81-0.468,2.183-0.468c0.094,0,0.281,0.047,0.281,0.265
		c0,0.297-2.23,5.193-2.23,5.91c0,0.218,0.187,0.312,0.296,0.312c0.53,0,1.076-0.514,2.261-2.183
		c0.733-0.983,1.029-1.622,1.092-1.793c0.717-1.949,0.686-2.386,0.92-2.386h0.921c0.124,0,0.202,0.062,0.202,0.109
		c0,0.265-1.965,5.661-1.965,6.004c0,0.078,0.031,0.202,0.125,0.202c0.717,0,1.684-1.793,1.746-1.793
		c0.094,0,0.218,0.015,0.218,0.124c0,0.312-1.248,2.34-2.573,2.34H119.965z"/>
	<path fill="#F1B82D" d="M124.082,29.641c-0.078,0-0.109-0.062-0.109-0.094c0-0.297,2.121-6.144,2.121-6.238
		c0-0.109-0.078-0.187-0.312-0.187c-0.905,0-1.56,2.152-1.731,2.152c-0.125,0-0.172-0.031-0.172-0.11
		c0-1.247,0.842-2.448,2.308-2.448h0.795c0.172,0,0.265,0.063,0.265,0.125c0,0.125-1.263,3.712-1.263,3.852
		c0,0.062,0.047,0.109,0.078,0.109c0.109,0,0.265-0.358,0.701-1.122c1.233-2.121,1.934-3.026,2.855-3.026
		c0.468,0,0.826,0.327,0.826,0.796c0,0.436-0.374,0.795-0.811,0.795c-0.764,0-0.717-0.499-1.092-0.499
		c-0.172,0-0.53,0.468-0.671,0.686c-1.7,2.729-1.918,3.057-2.745,5.053c-0.047,0.109-0.094,0.156-0.187,0.156H124.082z"/>
	<path fill="#F1B82D" d="M130.788,24.682c-0.047,0-0.109-0.094-0.109-0.172c0-0.156,1.372-1.856,2.542-1.856
		c0.108,0,0.482,0.047,0.482,0.452c0,0.655-1.98,5.256-1.98,5.521c0,0.109,0.031,0.187,0.109,0.187c0.374,0,1.45-1.123,1.528-1.123
		c0.078,0,0.171,0,0.171,0.156c0,0.078-1.653,2.059-2.744,1.981c-0.452,0-0.452-0.389-0.452-0.624c0-0.436,2.058-5.318,2.058-5.396
		c0-0.047,0-0.234-0.124-0.234c-0.405,0-0.983,0.686-1.357,1.029C130.85,24.651,130.819,24.682,130.788,24.682z M133.626,18.881
		c0.421,0,0.748,0.327,0.748,0.748c0,0.422-0.327,0.749-0.748,0.749c-0.421,0-0.748-0.327-0.748-0.749
		C132.878,19.208,133.205,18.881,133.626,18.881z"/>
	<path fill="#F1B82D" d="M147.599,23.559c0.234,0,0.234-0.031,0.297-0.297c0.733-2.916,0.905-3.524,0.905-3.789
		c0-0.172,0-0.499-1.029-0.499c-0.375,0-0.39-0.14-0.39-0.218s0.031-0.234,0.187-0.234c0.187,0,0.608,0.062,2.012,0.062
		c1.559,0,1.84-0.062,1.949-0.062c0.14,0,0.171,0,0.171,0.094c0,0.187-0.016,0.359-0.593,0.359c-0.468,0-0.717,0.156-0.889,0.826
		c-1.949,7.626-2.12,8.499-2.12,8.936c0,0.39,0.327,0.53,1.309,0.53c0.14,0,0.156,0.047,0.156,0.109
		c0,0.156-0.031,0.297-0.219,0.297c-0.108,0-0.218-0.031-1.777-0.031c-1.996,0-2.277,0.031-2.402,0.031
		c-0.124,0-0.124-0.11-0.124-0.14c0-0.172,0.078-0.265,0.14-0.265c1.154,0,1.279-0.203,1.498-1.092
		c0.858-3.525,0.998-3.93,0.998-3.977c0-0.125-0.156-0.125-0.313-0.125h-4.928c-0.14,0-0.234,0.031-0.281,0.234
		c-0.827,3.603-0.967,4.273-0.967,4.429c0,0.312,0.218,0.53,1.341,0.53c0.094,0,0.156,0.031,0.156,0.202s-0.032,0.203-0.219,0.203
		c-0.14,0-0.437-0.031-2.214-0.031c-1.419,0-1.732,0.031-1.949,0.031c-0.126,0-0.156-0.016-0.156-0.125
		c0-0.234,0.047-0.25,0.374-0.281c0.905-0.078,0.998-0.078,1.217-0.983c1.7-6.83,2.104-8.125,2.104-8.78
		c0-0.437-0.281-0.53-1.06-0.53c-0.282,0-0.329-0.078-0.329-0.187c0-0.047,0.047-0.265,0.156-0.265c0.297,0,1.295,0.062,2.106,0.062
		c0.811,0,1.7-0.062,1.919-0.062c0.094,0,0.124,0.015,0.124,0.234c0,0.172-0.047,0.218-0.218,0.218c-0.64,0-1.03,0.109-1.201,0.717
		c-0.156,0.546-0.951,3.462-0.951,3.742c0,0.125,0.108,0.125,0.218,0.125H147.599z"/>
	<path fill="#F1B82D" d="M156.177,23.855c0,0.749-0.655,1.965-3.587,2.527c-0.062,0.343-0.187,0.905-0.187,1.279
		c0,0.655,0.234,1.31,0.998,1.31c0.858,0,1.591-1.185,1.701-1.185c0.14,0,0.187,0.109,0.187,0.203c0,0.124-1.217,1.84-2.543,1.84
		c-1.185,0-1.496-0.951-1.496-1.965c0-2.947,1.917-5.084,3.633-5.084C155.615,22.78,156.177,23.092,156.177,23.855z M155.116,23.84
		c0-0.281-0.14-0.655-0.498-0.655c-0.843,0-1.529,1.154-1.981,2.807C154.585,25.758,155.116,24.402,155.116,23.84z"/>
	<path fill="#F1B82D" d="M163.257,22.53c0.047,0,0.094,0,0.094,0.094c0,0.343-2.199,5.427-2.199,5.958
		c0,0.094,0.031,0.202,0.156,0.202c0.452,0,1.529-1.669,1.716-1.669c0.062,0,0.14,0.063,0.14,0.125c0,0.125-1.762,2.589-2.854,2.589
		c-0.343,0-0.484-0.187-0.484-0.359c0-0.405,0.982-2.698,0.982-2.76c0-0.047-0.015-0.078-0.062-0.078
		c-0.14,0-0.453,0.623-0.624,0.842c-0.795,1.061-1.887,2.355-3.041,2.355c-0.53,0-0.624-0.359-0.624-0.78
		c0-1.216,1.466-4.211,2.87-5.521c0.81-0.748,1.372-0.811,1.903-0.811c0.452,0,0.592,0.11,0.701,0.218
		c0.108,0.11,0.14,0.218,0.187,0.218c0.124,0,0.203-0.624,0.39-0.624H163.257z M161.604,23.684c0-0.328-0.094-0.562-0.64-0.562
		c-1.575,0-3.165,4.289-3.165,5.443c0,0.25,0.094,0.39,0.234,0.39C159.092,28.955,161.604,24.994,161.604,23.684z"/>
	<path fill="#F1B82D" d="M166.999,19.505c0-0.406-0.218-0.422-0.53-0.422c-0.25,0-0.484,0-0.484-0.234
		c0-0.187,0.187-0.234,0.484-0.265c0.951-0.094,1.638-0.218,1.746-0.218c0.094,0,0.235,0,0.235,0.141
		c0,0.608-3.057,9.263-3.057,9.606c0,0.187,0.094,0.265,0.265,0.265c0.343,0,1.482-1.466,1.669-1.466c0.078,0,0.14,0.062,0.14,0.202
		c0,0.14-2.09,2.714-3.104,2.714c-0.342,0-0.529-0.218-0.529-0.53C163.834,28.862,166.999,19.66,166.999,19.505z"/>
	<path fill="#F1B82D" d="M168.558,23.762c-0.14,0-0.187-0.031-0.187-0.109c0-0.078,0.172-0.546,0.374-0.546h1.248
		c0.094,0,0.124,0,0.171-0.031c0.047-0.062,0.063-0.124,0.546-1.606c0.016-0.078,0.11-0.11,0.187-0.11h0.717
		c0.11,0,0.14,0.031,0.14,0.141c0,0.078-0.421,1.309-0.421,1.481c0,0.094,0.077,0.125,0.156,0.125h1.34
		c0.11,0,0.156,0.031,0.156,0.187c0,0.062-0.14,0.514-0.311,0.514c-0.266,0-0.516-0.015-0.75-0.031
		c-0.234,0-0.468-0.016-0.701-0.016c-0.156,0-0.218,0.265-0.311,0.562c-0.126,0.436-1.341,4.554-1.341,4.6
		c0,0.187,0.094,0.265,0.218,0.265c0.624,0,2.059-1.482,2.136-1.482c0.079,0,0.14,0.031,0.14,0.125c0,0.234-1.622,1.996-3.228,1.996
		c-0.327,0-0.514-0.202-0.514-0.577c0-0.218,1.575-5.193,1.575-5.38c0-0.078-0.077-0.11-0.234-0.11H168.558z"/>
	<path fill="#F1B82D" d="M173.112,29.641c-0.124,0-0.202-0.078-0.202-0.234c0-0.156,3.009-9.794,3.009-9.903
		c0-0.406-0.218-0.422-0.53-0.422c-0.249,0-0.482,0-0.482-0.234c0-0.187,0.187-0.234,0.482-0.265
		c0.951-0.094,1.638-0.218,1.748-0.218c0.094,0,0.234,0,0.234,0.141c0,0.187-1.935,6.612-1.935,6.705
		c0,0.031,0.016,0.063,0.047,0.063c0.063,0,0.11-0.125,0.14-0.172c1.311-1.809,2.48-2.324,3.088-2.324c0.64,0,1.03,0.39,1.03,1.045
		c0,2.074-1.949,6.004-3.696,6.004c-0.406,0-0.656-0.187-0.656-0.624c0-0.374,0.297-0.764,0.656-0.764
		c0.529,0,0.374,0.577,0.779,0.577c0.795,0,1.685-3.665,1.685-4.382c0-0.562-0.219-0.921-0.687-0.921
		c-0.452,0-1.372,0.702-2.433,2.293c-0.685,1.029-0.717,1.7-1.325,3.415c-0.031,0.094-0.061,0.218-0.187,0.218H173.112z"/>
</g>
<g>
</g>
<g>
</g>
<g>
</g>
<g>
</g>
<g>
</g>
<g>
</g>
<g>
</g>
<g>
</g>
<g>
</g>
<g>
</g>
<g>
</g>
<g>
</g>
<g>
</g>
<g>
</g>
<g>
</g>
</svg>
