<?xml version="1.0" encoding="utf-8"?>
<!-- Generator: Adobe Illustrator 19.1.0, SVG Export Plug-In . SVG Version: 6.00 Build 0)  -->
<svg version="1.0" id="Layer_1" xmlns="http://www.w3.org/2000/svg" xmlns:xlink="http://www.w3.org/1999/xlink" x="0px" y="0px"
	 width="223px" height="40px" viewBox="0 0 223 40" enable-background="new 0 0 223 40" xml:space="preserve">
<g>
	<path fill="#231F20" d="M1.68,3.366c0.173-0.847,0.27-1.117,0.27-1.54c0-0.27-0.173-0.52-1.444-0.558c-0.25,0-0.25-0.077-0.25-0.27
		c0-0.173,0.077-0.231,0.154-0.231c0.192,0,1.752,0.077,2.406,0.077c1.156,0,2.272-0.077,2.619-0.077
		c0.115,0,0.135,0.154,0.135,0.289c0,0.154-0.115,0.27-0.212,0.27c-0.482,0-1.098,0.096-1.232,0.231
		C3.952,1.73,3.798,2.076,3.471,3.482c-0.944,4.082-1.444,6.2-1.444,7.433c0,2.657,2.311,2.889,3.177,2.889
		c1.906,0,4.024-1.059,4.968-4.603c1.29-4.852,1.444-5.95,1.444-6.778c0-0.789-0.482-0.866-1.001-1.001
		C10.229,1.326,9.786,1.287,9.71,1.287c-0.039,0-0.116-0.135-0.116-0.231c0-0.077,0.059-0.289,0.251-0.289
		c0.212,0,1.502,0.077,1.867,0.077c0.636,0,2.388-0.077,2.753-0.077c0.077,0,0.135,0.096,0.135,0.25
		c-0.019,0.058-0.058,0.193-0.173,0.212l-0.674,0.097c-0.385,0.058-1.001,0.289-1.368,1.482C11.75,4.868,11,9.47,9.979,11.531
		c-1.097,2.215-2.811,3.12-5.372,3.12c-2.445,0-4.409-1.213-4.409-3.717C0.198,9.451,0.948,6.986,1.68,3.366z"/>
	<path fill="#231F20" d="M17.989,14.496c-0.115,0-0.135-0.039-0.135-0.154c0-0.712,2.541-6.162,2.541-7.163
		c0-0.443-0.327-0.558-0.501-0.558c-1.27,0-2.214,2.138-4.062,5.296c-0.096,0.173-0.327,0.751-1.04,2.407
		c-0.038,0.096-0.077,0.173-0.211,0.173h-1.137c-0.096,0-0.153-0.019-0.153-0.154c0-0.308,2.618-6.97,2.618-7.528
		c0-0.097-0.019-0.231-0.153-0.231c-1.483,0-2.311,1.925-2.311,2.329c0,0.058-0.116,0.097-0.173,0.097
		c-0.077,0-0.173-0.039-0.173-0.173c0-0.462,0.635-2.811,2.715-2.811h1.425c0.115,0,0.192,0.038,0.192,0.173
		c0,0.231-1.424,3.716-1.424,4.332c0,0.097,0,0.135,0.058,0.135c0.115,0,0.134-0.097,0.52-0.79c2.079-3.755,2.658-4.005,3.755-4.005
		c0.539,0,1.541,0.077,1.541,0.963c0,1.579-2.349,6.007-2.349,6.759c0,0.077,0.134,0.154,0.192,0.154
		c0.906,0,1.945-2.022,2.157-2.022c0.077,0,0.192,0.115,0.192,0.173c0,0.25-1.502,2.599-3.081,2.599H17.989z"/>
	<path fill="#231F20" d="M23.881,8.373c-0.058,0-0.135-0.115-0.135-0.212c0-0.193,1.695-2.291,3.139-2.291
		c0.135,0,0.597,0.058,0.597,0.558c0,0.808-2.446,6.489-2.446,6.817c0,0.134,0.039,0.231,0.135,0.231
		c0.462,0,1.791-1.387,1.886-1.387c0.096,0,0.212,0,0.212,0.192c0,0.096-2.041,2.542-3.389,2.446c-0.558,0-0.558-0.481-0.558-0.77
		c0-0.539,2.541-6.566,2.541-6.662c0-0.058,0-0.289-0.154-0.289c-0.501,0-1.213,0.847-1.675,1.271
		C23.958,8.334,23.919,8.373,23.881,8.373z M27.385,1.21c0.52,0,0.925,0.404,0.925,0.924c0,0.52-0.404,0.925-0.925,0.925
		c-0.52,0-0.924-0.404-0.924-0.925C26.462,1.614,26.866,1.21,27.385,1.21z"/>
	<path fill="#231F20" d="M32.334,5.946c0.077,0,0.173-0.019,0.269-0.038C32.7,5.889,32.834,5.87,32.97,5.87
		c0.154,0,0.212,0.154,0.212,0.212c0,0.905-2.176,3.139-2.176,5.642c0,0.808,0.308,1.848,1.309,1.848
		c2.079,0,3.639-3.639,3.639-5.391c0-0.77-0.924-0.77-0.924-1.463c0-0.501,0.308-1.001,0.866-1.001c0.828,0,0.982,0.558,0.982,1.31
		c0,1.81-1.984,7.702-5.45,7.702c-0.423,0-1.771-0.231-1.771-2.079c0-2.215,2.541-5.199,2.541-5.411c0-0.096,0-0.134-0.346-0.134
		h-2.041c-0.501,0-0.79,0.789-0.925,1.232c-0.039,0.135-0.077,0.173-0.231,0.173c-0.077,0-0.212-0.077-0.212-0.154
		c0-0.231,0.635-2.407,0.944-2.407H32.334z"/>
	<path fill="#231F20" d="M43.945,7.352c0,0.925-0.809,2.427-4.429,3.12c-0.077,0.424-0.232,1.117-0.232,1.579
		c0,0.809,0.289,1.618,1.232,1.618c1.059,0,1.964-1.463,2.099-1.463c0.173,0,0.231,0.134,0.231,0.251
		c0,0.153-1.502,2.272-3.138,2.272c-1.463,0-1.849-1.175-1.849-2.426c0-3.639,2.368-6.277,4.486-6.277
		C43.251,6.024,43.945,6.409,43.945,7.352z M42.635,7.333c0-0.346-0.173-0.808-0.616-0.808c-1.039,0-1.886,1.424-2.445,3.466
		C41.981,9.701,42.635,8.027,42.635,7.333z"/>
	<path fill="#231F20" d="M44.946,14.496c-0.096,0-0.134-0.077-0.134-0.116c0-0.366,2.619-7.586,2.619-7.702
		c0-0.134-0.097-0.231-0.385-0.231c-1.117,0-1.926,2.658-2.137,2.658c-0.154,0-0.212-0.039-0.212-0.135
		c0-1.54,1.039-3.023,2.85-3.023h0.982c0.212,0,0.327,0.077,0.327,0.154c0,0.154-1.56,4.583-1.56,4.756
		c0,0.077,0.058,0.135,0.097,0.135c0.134,0,0.327-0.442,0.866-1.386c1.522-2.619,2.388-3.736,3.524-3.736
		c0.578,0,1.021,0.404,1.021,0.982c0,0.539-0.463,0.982-1.001,0.982c-0.944,0-0.886-0.616-1.348-0.616
		c-0.212,0-0.655,0.577-0.828,0.847c-2.099,3.369-2.368,3.774-3.389,6.239c-0.058,0.134-0.115,0.192-0.231,0.192H44.946z"/>
	<path fill="#231F20" d="M52.051,12.821c0.982,0,0.828,1.271,1.811,1.271c0.269,0,1.059-0.385,1.059-1.232
		c0-0.674-0.674-2.003-0.886-2.427c-0.366-0.674-0.751-1.482-0.751-2.137c0-1.482,1.406-2.349,2.792-2.349
		c0.905,0,1.868,0.289,1.868,1.175c0,0.347-0.347,0.732-0.828,0.732c-0.886,0-0.809-1.348-1.714-1.348
		c-0.558,0-1.001,0.366-1.001,0.944c0,0.578,0.501,1.444,0.847,2.157c0.443,0.905,0.867,1.675,0.867,2.541
		c0,1.483-1.945,2.58-3.274,2.58c-0.77,0-1.482-0.404-1.482-1.194C51.358,13.187,51.704,12.821,52.051,12.821z"/>
	<path fill="#231F20" d="M58.694,8.373c-0.058,0-0.135-0.115-0.135-0.212c0-0.193,1.695-2.291,3.138-2.291
		c0.135,0,0.597,0.058,0.597,0.558c0,0.808-2.446,6.489-2.446,6.817c0,0.134,0.039,0.231,0.135,0.231
		c0.462,0,1.791-1.387,1.886-1.387c0.096,0,0.212,0,0.212,0.192c0,0.096-2.041,2.542-3.389,2.446c-0.558,0-0.558-0.481-0.558-0.77
		c0-0.539,2.541-6.566,2.541-6.662c0-0.058,0-0.289-0.154-0.289c-0.501,0-1.213,0.847-1.675,1.271
		C58.771,8.334,58.732,8.373,58.694,8.373z M62.198,1.21c0.52,0,0.925,0.404,0.925,0.924c0,0.52-0.404,0.925-0.925,0.925
		c-0.52,0-0.924-0.404-0.924-0.925C61.274,1.614,61.679,1.21,62.198,1.21z"/>
	<path fill="#231F20" d="M63.989,7.236c-0.173,0-0.231-0.038-0.231-0.134c0-0.097,0.212-0.674,0.462-0.674h1.541
		c0.115,0,0.154,0,0.212-0.039c0.058-0.077,0.077-0.153,0.674-1.983c0.019-0.096,0.134-0.135,0.231-0.135h0.886
		c0.135,0,0.173,0.039,0.173,0.174c0,0.096-0.52,1.617-0.52,1.829c0,0.115,0.096,0.154,0.193,0.154h1.655
		c0.135,0,0.193,0.039,0.193,0.231c0,0.077-0.173,0.635-0.385,0.635c-0.327,0-0.635-0.019-0.925-0.038
		c-0.289,0-0.577-0.02-0.866-0.02c-0.192,0-0.27,0.327-0.385,0.694c-0.154,0.539-1.656,5.622-1.656,5.68
		c0,0.231,0.116,0.327,0.269,0.327c0.77,0,2.542-1.83,2.638-1.83c0.096,0,0.174,0.039,0.174,0.154c0,0.289-2.003,2.465-3.986,2.465
		c-0.404,0-0.635-0.25-0.635-0.713c0-0.269,1.945-6.412,1.945-6.643c0-0.096-0.097-0.135-0.289-0.135H63.989z"/>
	<path fill="#231F20" d="M75.33,6.37c0.039-0.212,0.115-0.346,0.327-0.346c0.482,0,0.925,0.289,0.925,0.596
		c0,0.789-2.349,6.932-4.525,10.148c-1.175,1.732-2.137,2.927-4.274,2.927c-0.674,0-1.137-0.193-1.137-0.847
		c0-0.27,0.327-0.732,0.809-0.732c0.77,0,0.693,0.732,1.886,0.732c0.655,0,2.658-1.772,2.658-5.584c0-1.232-0.424-6.007-1.387-5.969
		c-1.039,0.039-0.847,2.196-1.155,2.196c-0.27,0-0.27-0.135-0.27-0.424c0-0.732,0.789-3.042,2.156-3.042
		c1.714,0,1.945,6.181,1.945,6.662c0,0.365-0.077,0.944,0,0.944c0.058,0,0.462-0.751,0.886-1.965
		C74.579,10.51,74.868,9.47,75.33,6.37z"/>
	<path fill="#231F20" d="M84.553,14.727c-1.675,0-2.195-1.81-2.195-2.927c0-2.658,1.694-5.854,3.967-5.854
		c1.54,0,2.329,1.156,2.329,2.927C88.654,11.434,87.018,14.727,84.553,14.727z M86.383,6.447c-1.252,0-2.773,3.948-2.773,5.738
		c0,0.712-0.038,2.041,1.04,2.041c1.001,0,2.753-3.774,2.753-5.738C87.403,7.063,87.172,6.447,86.383,6.447z"/>
	<path fill="#231F20" d="M89.964,7.16c-0.116,0-0.173-0.039-0.173-0.077c0-0.096,0.058-0.482,0.193-0.501
		c1.925-0.154,1.983-0.154,2.098-0.482c0.212-0.597,0.443-1.83,0.944-2.908c0.77-1.675,2.446-2.888,4.332-2.888
		c0.558,0,1.637,0.289,1.637,1.001c0,0.558-0.251,0.982-0.867,0.982c-1.27,0-0.789-1.348-1.771-1.348c-0.405,0-1.656,0-2.503,4.159
		c-0.097,0.482-0.289,1.078-0.289,1.232c0,0.096,0.077,0.096,0.134,0.096h2.061c0.115,0,0.154,0,0.154,0.116
		c0,0.019-0.077,0.616-0.212,0.616h-2.099c-0.211,0-0.289,0.134-0.346,0.404c-1.906,8.665-2.387,10.147-3.639,11.206
		c-0.616,0.52-1.406,0.925-2.234,0.925c-0.577,0-1.213-0.154-1.213-0.847c0-0.385,0.365-0.694,0.732-0.694
		c0.713,0,1.155,0.694,1.655,0.694c0.347,0,0.77-0.327,1.175-2.157c1.483-6.681,2.079-9.127,2.079-9.339
		c0-0.096-0.077-0.192-0.173-0.192H89.964z"/>
	<path fill="#231F20" d="M102.21,13.148c0,0.732,0.327,0.789,1.27,0.866c0.212,0.02,0.385,0.039,0.385,0.116
		c0,0.154-0.019,0.405-0.211,0.405c-0.174,0-0.366-0.039-2.658-0.039c-1.136,0-1.29,0.039-1.521,0.039
		c-0.096,0-0.096-0.077-0.096-0.173c0-0.173,0.096-0.308,0.193-0.308c0.27,0,0.808-0.096,1.097-0.231
		c0.424-0.173,0.925-1.02,1.31-2.484c0.751-2.754,2.195-7.298,2.465-8.241c0.038-0.135,0.308-0.944,0.308-1.059
		c0-0.097-0.058-0.405-0.577-0.52l-1.483-0.289c-0.153-0.039-0.192-0.077-0.192-0.25c0-0.154,0.096-0.212,0.212-0.212
		c0.231,0,1.406,0.077,2.002,0.077c0.289,0,1.637-0.077,1.926-0.077c0.154,0,0.25,0.096,0.27,0.192
		c0.732,3.928,1.136,8.068,1.29,9.435c0.096,0.905,0.153,1.001,0.231,1.001c0.096,0,0.192-0.135,0.27-0.231
		c1.406-1.965,5.661-8.549,6.874-10.109c0.135-0.173,0.231-0.289,0.385-0.289c0.115,0,1.252,0.077,1.521,0.077
		c0.232,0,1.232-0.077,1.791-0.077c0.116,0,0.116,0.058,0.116,0.212c0,0.192-0.038,0.308-0.192,0.327
		c-0.27,0.019-0.886,0.116-1.156,0.192c-0.462,0.135-0.654,0.77-0.77,1.367c-1.213,5.988-2.157,9.609-2.157,10.34
		c0,0.597,0.385,0.674,0.732,0.713l0.963,0.115c0.097,0.019,0.154,0.019,0.154,0.192c0,0.058-0.077,0.308-0.212,0.308
		c-0.231,0-0.346-0.039-1.771-0.039c-2.6,0-3.101,0.039-3.427,0.039c-0.174,0-0.212-0.077-0.212-0.173
		c0-0.232,0.038-0.27,0.404-0.327l0.886-0.135c0.27-0.019,0.481-0.231,0.558-0.501c0.905-3.369,1.791-8.221,2.541-10.801
		c0.058-0.212,0.115-0.578,0.115-0.636c0-0.058-0.019-0.096-0.096-0.096c-0.058,0-0.596,0.674-0.712,0.847
		c-2.85,4.043-5.834,8.78-7.548,11.553c-0.039,0.077-0.231,0.423-0.404,0.423c-0.058,0-0.154-0.038-0.231-0.732
		c-0.52-5.507-1.232-10.667-1.406-11.168c-0.02-0.058-0.039-0.154-0.154-0.154c-0.096,0-0.154,0.077-0.828,2.157
		C102.575,10.607,102.21,12.859,102.21,13.148z"/>
	<path fill="#231F20" d="M119.289,8.373c-0.058,0-0.135-0.115-0.135-0.212c0-0.193,1.695-2.291,3.139-2.291
		c0.135,0,0.597,0.058,0.597,0.558c0,0.808-2.446,6.489-2.446,6.817c0,0.134,0.039,0.231,0.135,0.231
		c0.462,0,1.791-1.387,1.886-1.387c0.096,0,0.212,0,0.212,0.192c0,0.096-2.041,2.542-3.389,2.446c-0.558,0-0.558-0.481-0.558-0.77
		c0-0.539,2.541-6.566,2.541-6.662c0-0.058,0-0.289-0.154-0.289c-0.501,0-1.213,0.847-1.675,1.271
		C119.366,8.334,119.327,8.373,119.289,8.373z M122.793,1.21c0.52,0,0.925,0.404,0.925,0.924c0,0.52-0.404,0.925-0.925,0.925
		c-0.52,0-0.924-0.404-0.924-0.925C121.869,1.614,122.274,1.21,122.793,1.21z"/>
	<path fill="#231F20" d="M123.698,12.821c0.982,0,0.828,1.271,1.81,1.271c0.269,0,1.059-0.385,1.059-1.232
		c0-0.674-0.674-2.003-0.886-2.427c-0.366-0.674-0.751-1.482-0.751-2.137c0-1.482,1.406-2.349,2.792-2.349
		c0.905,0,1.868,0.289,1.868,1.175c0,0.347-0.347,0.732-0.828,0.732c-0.886,0-0.809-1.348-1.714-1.348
		c-0.558,0-1.001,0.366-1.001,0.944c0,0.578,0.501,1.444,0.847,2.157c0.443,0.905,0.867,1.675,0.867,2.541
		c0,1.483-1.945,2.58-3.274,2.58c-0.77,0-1.482-0.404-1.482-1.194C123.005,13.187,123.352,12.821,123.698,12.821z"/>
	<path fill="#231F20" d="M129.398,12.821c0.982,0,0.828,1.271,1.81,1.271c0.27,0,1.059-0.385,1.059-1.232
		c0-0.674-0.674-2.003-0.886-2.427c-0.365-0.674-0.751-1.482-0.751-2.137c0-1.482,1.406-2.349,2.792-2.349
		c0.905,0,1.867,0.289,1.867,1.175c0,0.347-0.346,0.732-0.828,0.732c-0.886,0-0.808-1.348-1.713-1.348
		c-0.558,0-1.001,0.366-1.001,0.944c0,0.578,0.501,1.444,0.847,2.157c0.443,0.905,0.866,1.675,0.866,2.541
		c0,1.483-1.944,2.58-3.273,2.58c-0.77,0-1.483-0.404-1.483-1.194C128.704,13.187,129.051,12.821,129.398,12.821z"/>
	<path fill="#231F20" d="M137.658,14.727c-1.675,0-2.195-1.81-2.195-2.927c0-2.658,1.694-5.854,3.967-5.854
		c1.54,0,2.329,1.156,2.329,2.927C141.759,11.434,140.123,14.727,137.658,14.727z M139.487,6.447c-1.252,0-2.773,3.948-2.773,5.738
		c0,0.712-0.038,2.041,1.04,2.041c1.001,0,2.753-3.774,2.753-5.738C140.508,7.063,140.277,6.447,139.487,6.447z"/>
	<path fill="#231F20" d="M147.997,14.496c-0.135,0-0.25-0.039-0.25-0.192c0-0.347,1.078-3.486,1.078-3.697
		c0-0.058-0.019-0.115-0.058-0.115c-0.077,0-1.791,2.599-2.946,3.581c-0.597,0.501-1.175,0.655-1.753,0.655
		c-0.462,0-0.808-0.308-0.808-1.156c0-0.847,2.522-6.431,2.522-7.085c0-0.116-0.115-0.212-0.231-0.212
		c-0.385,0-1.81,0.828-2.349,2.638c-0.019,0.077-0.077,0.077-0.173,0.077c-0.096,0-0.154-0.096-0.154-0.231
		c0-0.482,0.751-1.945,1.599-2.465c0.384-0.232,1.001-0.578,2.696-0.578c0.116,0,0.346,0.058,0.346,0.327
		c0,0.366-2.753,6.412-2.753,7.297c0,0.27,0.231,0.385,0.365,0.385c0.655,0,1.329-0.635,2.792-2.696
		c0.905-1.213,1.271-2.003,1.348-2.214c0.886-2.407,0.847-2.946,1.136-2.946h1.137c0.153,0,0.25,0.077,0.25,0.134
		c0,0.327-2.426,6.99-2.426,7.414c0,0.096,0.039,0.25,0.154,0.25c0.885,0,2.079-2.214,2.156-2.214c0.116,0,0.27,0.019,0.27,0.153
		c0,0.385-1.541,2.889-3.177,2.889H147.997z"/>
	<path fill="#231F20" d="M153.081,14.496c-0.096,0-0.135-0.077-0.135-0.116c0-0.366,2.619-7.586,2.619-7.702
		c0-0.134-0.096-0.231-0.385-0.231c-1.117,0-1.926,2.658-2.137,2.658c-0.154,0-0.212-0.039-0.212-0.135
		c0-1.54,1.039-3.023,2.85-3.023h0.982c0.212,0,0.327,0.077,0.327,0.154c0,0.154-1.56,4.583-1.56,4.756
		c0,0.077,0.058,0.135,0.096,0.135c0.135,0,0.327-0.442,0.866-1.386c1.522-2.619,2.388-3.736,3.525-3.736
		c0.577,0,1.02,0.404,1.02,0.982c0,0.539-0.462,0.982-1.001,0.982c-0.944,0-0.886-0.616-1.348-0.616
		c-0.212,0-0.655,0.577-0.828,0.847c-2.099,3.369-2.368,3.774-3.389,6.239c-0.058,0.134-0.116,0.192-0.231,0.192H153.081z"/>
	<path fill="#231F20" d="M161.361,8.373c-0.058,0-0.135-0.115-0.135-0.212c0-0.193,1.694-2.291,3.139-2.291
		c0.134,0,0.596,0.058,0.596,0.558c0,0.808-2.444,6.489-2.444,6.817c0,0.134,0.038,0.231,0.135,0.231
		c0.462,0,1.79-1.387,1.887-1.387c0.096,0,0.211,0,0.211,0.192c0,0.096-2.041,2.542-3.388,2.446c-0.558,0-0.558-0.481-0.558-0.77
		c0-0.539,2.541-6.566,2.541-6.662c0-0.058,0-0.289-0.154-0.289c-0.501,0-1.213,0.847-1.675,1.271
		C161.438,8.334,161.4,8.373,161.361,8.373z M164.865,1.21c0.52,0,0.924,0.404,0.924,0.924c0,0.52-0.404,0.925-0.924,0.925
		c-0.52,0-0.924-0.404-0.924-0.925C163.941,1.614,164.345,1.21,164.865,1.21z"/>
	<path fill="#231F20" d="M182.117,6.986c0.289,0,0.289-0.039,0.366-0.366c0.906-3.6,1.117-4.351,1.117-4.679
		c0-0.212,0-0.616-1.27-0.616c-0.463,0-0.482-0.173-0.482-0.27c0-0.096,0.038-0.289,0.231-0.289c0.231,0,0.751,0.077,2.484,0.077
		c1.925,0,2.272-0.077,2.407-0.077c0.173,0,0.211,0,0.211,0.115c0,0.231-0.02,0.443-0.732,0.443c-0.577,0-0.886,0.192-1.097,1.02
		c-2.407,9.416-2.618,10.494-2.618,11.033c0,0.482,0.404,0.655,1.617,0.655c0.173,0,0.193,0.058,0.193,0.135
		c0,0.193-0.038,0.366-0.271,0.366c-0.134,0-0.269-0.039-2.194-0.039c-2.465,0-2.811,0.039-2.966,0.039
		c-0.153,0-0.153-0.135-0.153-0.173c0-0.212,0.096-0.327,0.173-0.327c1.425,0,1.579-0.251,1.849-1.348
		c1.059-4.352,1.232-4.853,1.232-4.91c0-0.154-0.193-0.154-0.386-0.154h-6.084c-0.173,0-0.289,0.039-0.346,0.289
		c-1.021,4.448-1.194,5.276-1.194,5.469c0,0.385,0.269,0.655,1.656,0.655c0.115,0,0.193,0.038,0.193,0.25
		c0,0.212-0.04,0.251-0.27,0.251c-0.173,0-0.539-0.039-2.734-0.039c-1.752,0-2.138,0.039-2.407,0.039
		c-0.155,0-0.193-0.02-0.193-0.154c0-0.289,0.058-0.308,0.462-0.346c1.117-0.096,1.232-0.096,1.503-1.213
		c2.098-8.433,2.598-10.032,2.598-10.84c0-0.539-0.346-0.655-1.308-0.655c-0.348,0-0.406-0.097-0.406-0.231
		c0-0.058,0.058-0.327,0.193-0.327c0.366,0,1.599,0.077,2.6,0.077c1.001,0,2.098-0.077,2.369-0.077c0.115,0,0.153,0.019,0.153,0.289
		c0,0.212-0.058,0.27-0.269,0.27c-0.79,0-1.272,0.134-1.483,0.886c-0.193,0.674-1.175,4.274-1.175,4.621
		c0,0.154,0.134,0.154,0.269,0.154H182.117z"/>
	<path fill="#231F20" d="M192.708,7.352c0,0.925-0.808,2.427-4.429,3.12c-0.076,0.424-0.231,1.117-0.231,1.579
		c0,0.809,0.289,1.618,1.232,1.618c1.059,0,1.965-1.463,2.1-1.463c0.173,0,0.231,0.134,0.231,0.251c0,0.153-1.503,2.272-3.139,2.272
		c-1.463,0-1.848-1.175-1.848-2.426c0-3.639,2.367-6.277,4.486-6.277C192.015,6.024,192.708,6.409,192.708,7.352z M191.398,7.333
		c0-0.346-0.173-0.808-0.615-0.808c-1.041,0-1.887,1.424-2.446,3.466C190.744,9.701,191.398,8.027,191.398,7.333z"/>
	<path fill="#231F20" d="M201.45,5.715c0.058,0,0.116,0,0.116,0.116c0,0.424-2.715,6.701-2.715,7.356c0,0.116,0.038,0.25,0.193,0.25
		c0.558,0,1.887-2.06,2.118-2.06c0.076,0,0.173,0.077,0.173,0.154c0,0.154-2.176,3.196-3.524,3.196
		c-0.424,0-0.597-0.231-0.597-0.443c0-0.501,1.213-3.331,1.213-3.408c0-0.058-0.018-0.096-0.076-0.096
		c-0.173,0-0.559,0.77-0.77,1.039c-0.982,1.31-2.329,2.908-3.755,2.908c-0.655,0-0.77-0.443-0.77-0.963
		c0-1.502,1.81-5.199,3.544-6.817c1-0.924,1.694-1.001,2.349-1.001c0.558,0,0.731,0.135,0.866,0.27
		c0.134,0.135,0.173,0.27,0.231,0.27c0.154,0,0.251-0.77,0.482-0.77H201.45z M199.409,7.141c0-0.405-0.115-0.694-0.79-0.694
		c-1.945,0-3.908,5.295-3.908,6.72c0,0.308,0.116,0.482,0.289,0.482C196.308,13.649,199.409,8.758,199.409,7.141z"/>
	<path fill="#231F20" d="M206.071,1.98c0-0.501-0.269-0.52-0.655-0.52c-0.308,0-0.597,0-0.597-0.289
		c0-0.231,0.231-0.289,0.597-0.327c1.175-0.115,2.022-0.27,2.156-0.27c0.115,0,0.29,0,0.29,0.174c0,0.751-3.774,11.437-3.774,11.861
		c0,0.231,0.115,0.327,0.327,0.327c0.424,0,1.83-1.81,2.06-1.81c0.096,0,0.173,0.077,0.173,0.25c0,0.173-2.58,3.35-3.832,3.35
		c-0.422,0-0.653-0.27-0.653-0.655C202.163,13.533,206.071,2.173,206.071,1.98z"/>
	<path fill="#231F20" d="M207.996,7.236c-0.173,0-0.231-0.038-0.231-0.134c0-0.097,0.213-0.674,0.462-0.674h1.541
		c0.115,0,0.153,0,0.211-0.039c0.058-0.077,0.077-0.153,0.675-1.983c0.02-0.096,0.135-0.135,0.231-0.135h0.886
		c0.135,0,0.173,0.039,0.173,0.174c0,0.096-0.52,1.617-0.52,1.829c0,0.115,0.096,0.154,0.193,0.154h1.655
		c0.135,0,0.193,0.039,0.193,0.231c0,0.077-0.173,0.635-0.384,0.635c-0.328,0-0.637-0.019-0.925-0.038
		c-0.289,0-0.577-0.02-0.866-0.02c-0.193,0-0.269,0.327-0.384,0.694c-0.155,0.539-1.656,5.622-1.656,5.68
		c0,0.231,0.115,0.327,0.269,0.327c0.77,0,2.542-1.83,2.638-1.83c0.097,0,0.173,0.039,0.173,0.154c0,0.289-2.003,2.465-3.986,2.465
		c-0.404,0-0.635-0.25-0.635-0.713c0-0.269,1.945-6.412,1.945-6.643c0-0.096-0.096-0.135-0.289-0.135H207.996z"/>
	<path fill="#231F20" d="M213.618,14.496c-0.154,0-0.249-0.097-0.249-0.289c0-0.193,3.715-12.092,3.715-12.227
		c0-0.501-0.269-0.52-0.655-0.52c-0.307,0-0.596,0-0.596-0.289c0-0.231,0.231-0.289,0.596-0.327c1.175-0.115,2.022-0.27,2.158-0.27
		c0.115,0,0.289,0,0.289,0.174c0,0.231-2.389,8.164-2.389,8.279c0,0.039,0.02,0.077,0.058,0.077c0.077,0,0.135-0.154,0.173-0.212
		c1.618-2.234,3.062-2.869,3.812-2.869c0.79,0,1.272,0.481,1.272,1.29c0,2.56-2.407,7.413-4.563,7.413
		c-0.501,0-0.81-0.231-0.81-0.77c0-0.462,0.366-0.943,0.81-0.943c0.653,0,0.462,0.712,0.962,0.712c0.982,0,2.08-4.525,2.08-5.41
		c0-0.694-0.27-1.137-0.848-1.137c-0.558,0-1.694,0.867-3.004,2.831c-0.846,1.271-0.886,2.098-1.637,4.217
		c-0.038,0.115-0.076,0.27-0.231,0.27H213.618z"/>
</g>
<g>
	<path fill="#900000" d="M1.68,23.366c0.173-0.847,0.27-1.117,0.27-1.54c0-0.27-0.173-0.52-1.444-0.558
		c-0.25,0-0.25-0.077-0.25-0.27c0-0.173,0.077-0.231,0.154-0.231c0.192,0,1.752,0.077,2.406,0.077c1.156,0,2.272-0.077,2.619-0.077
		c0.115,0,0.135,0.154,0.135,0.289c0,0.154-0.115,0.27-0.212,0.27c-0.482,0-1.098,0.096-1.232,0.231
		c-0.173,0.173-0.327,0.52-0.655,1.925c-0.944,4.082-1.444,6.2-1.444,7.433c0,2.657,2.311,2.889,3.177,2.889
		c1.906,0,4.024-1.059,4.968-4.603c1.29-4.852,1.444-5.95,1.444-6.778c0-0.789-0.482-0.866-1.001-1.001
		c-0.385-0.096-0.828-0.135-0.905-0.135c-0.039,0-0.116-0.135-0.116-0.231c0-0.077,0.059-0.289,0.251-0.289
		c0.212,0,1.502,0.077,1.867,0.077c0.636,0,2.388-0.077,2.753-0.077c0.077,0,0.135,0.096,0.135,0.25
		c-0.019,0.058-0.058,0.193-0.173,0.212l-0.674,0.097c-0.385,0.058-1.001,0.289-1.368,1.482C11.75,24.868,11,29.47,9.979,31.531
		c-1.097,2.215-2.811,3.12-5.372,3.12c-2.445,0-4.409-1.213-4.409-3.717C0.198,29.451,0.948,26.986,1.68,23.366z"/>
	<path fill="#900000" d="M17.989,34.496c-0.115,0-0.135-0.039-0.135-0.154c0-0.712,2.541-6.162,2.541-7.163
		c0-0.443-0.327-0.558-0.501-0.558c-1.27,0-2.214,2.138-4.062,5.296c-0.096,0.173-0.327,0.751-1.04,2.407
		c-0.038,0.096-0.077,0.173-0.211,0.173h-1.137c-0.096,0-0.153-0.019-0.153-0.154c0-0.308,2.618-6.97,2.618-7.528
		c0-0.097-0.019-0.231-0.153-0.231c-1.483,0-2.311,1.925-2.311,2.329c0,0.058-0.116,0.097-0.173,0.097
		c-0.077,0-0.173-0.039-0.173-0.173c0-0.462,0.635-2.811,2.715-2.811h1.425c0.115,0,0.192,0.038,0.192,0.173
		c0,0.231-1.424,3.716-1.424,4.332c0,0.097,0,0.135,0.058,0.135c0.115,0,0.134-0.097,0.52-0.79c2.079-3.755,2.658-4.005,3.755-4.005
		c0.539,0,1.541,0.077,1.541,0.963c0,1.579-2.349,6.007-2.349,6.759c0,0.077,0.134,0.154,0.192,0.154
		c0.906,0,1.945-2.022,2.157-2.022c0.077,0,0.192,0.115,0.192,0.173c0,0.25-1.502,2.599-3.081,2.599H17.989z"/>
	<path fill="#900000" d="M23.881,28.373c-0.058,0-0.135-0.115-0.135-0.212c0-0.193,1.695-2.291,3.139-2.291
		c0.135,0,0.597,0.058,0.597,0.558c0,0.808-2.446,6.489-2.446,6.817c0,0.134,0.039,0.231,0.135,0.231
		c0.462,0,1.791-1.387,1.886-1.387c0.096,0,0.212,0,0.212,0.192c0,0.096-2.041,2.542-3.389,2.446c-0.558,0-0.558-0.481-0.558-0.77
		c0-0.539,2.541-6.566,2.541-6.662c0-0.058,0-0.289-0.154-0.289c-0.501,0-1.213,0.847-1.675,1.271
		C23.958,28.334,23.919,28.373,23.881,28.373z M27.385,21.21c0.52,0,0.925,0.404,0.925,0.924c0,0.52-0.404,0.925-0.925,0.925
		c-0.52,0-0.924-0.404-0.924-0.925C26.462,21.614,26.866,21.21,27.385,21.21z"/>
	<path fill="#900000" d="M32.334,25.946c0.077,0,0.173-0.019,0.269-0.038c0.096-0.02,0.231-0.039,0.366-0.039
		c0.154,0,0.212,0.154,0.212,0.212c0,0.905-2.176,3.139-2.176,5.642c0,0.808,0.308,1.848,1.309,1.848
		c2.079,0,3.639-3.639,3.639-5.391c0-0.77-0.924-0.77-0.924-1.463c0-0.501,0.308-1.001,0.866-1.001c0.828,0,0.982,0.558,0.982,1.31
		c0,1.81-1.984,7.702-5.45,7.702c-0.423,0-1.771-0.231-1.771-2.079c0-2.215,2.541-5.199,2.541-5.411c0-0.096,0-0.134-0.346-0.134
		h-2.041c-0.501,0-0.79,0.789-0.925,1.232c-0.039,0.135-0.077,0.173-0.231,0.173c-0.077,0-0.212-0.077-0.212-0.154
		c0-0.231,0.635-2.407,0.944-2.407H32.334z"/>
	<path fill="#900000" d="M43.945,27.352c0,0.925-0.809,2.427-4.429,3.12c-0.077,0.424-0.232,1.117-0.232,1.579
		c0,0.809,0.289,1.618,1.232,1.618c1.059,0,1.964-1.463,2.099-1.463c0.173,0,0.231,0.134,0.231,0.251
		c0,0.153-1.502,2.272-3.138,2.272c-1.463,0-1.849-1.175-1.849-2.426c0-3.639,2.368-6.277,4.486-6.277
		C43.251,26.024,43.945,26.409,43.945,27.352z M42.635,27.333c0-0.346-0.173-0.808-0.616-0.808c-1.039,0-1.886,1.424-2.445,3.466
		C41.981,29.701,42.635,28.027,42.635,27.333z"/>
	<path fill="#900000" d="M44.946,34.496c-0.096,0-0.134-0.077-0.134-0.116c0-0.366,2.619-7.586,2.619-7.702
		c0-0.134-0.097-0.231-0.385-0.231c-1.117,0-1.926,2.658-2.137,2.658c-0.154,0-0.212-0.039-0.212-0.135
		c0-1.54,1.039-3.023,2.85-3.023h0.982c0.212,0,0.327,0.077,0.327,0.154c0,0.154-1.56,4.583-1.56,4.756
		c0,0.077,0.058,0.135,0.097,0.135c0.134,0,0.327-0.442,0.866-1.386c1.522-2.619,2.388-3.736,3.524-3.736
		c0.578,0,1.021,0.404,1.021,0.982c0,0.539-0.463,0.982-1.001,0.982c-0.944,0-0.886-0.616-1.348-0.616
		c-0.212,0-0.655,0.577-0.828,0.847c-2.099,3.369-2.368,3.774-3.389,6.239c-0.058,0.134-0.115,0.192-0.231,0.192H44.946z"/>
	<path fill="#900000" d="M52.051,32.821c0.982,0,0.828,1.271,1.811,1.271c0.269,0,1.059-0.385,1.059-1.232
		c0-0.674-0.674-2.003-0.886-2.427c-0.366-0.674-0.751-1.482-0.751-2.137c0-1.482,1.406-2.349,2.792-2.349
		c0.905,0,1.868,0.289,1.868,1.175c0,0.347-0.347,0.732-0.828,0.732c-0.886,0-0.809-1.348-1.714-1.348
		c-0.558,0-1.001,0.366-1.001,0.944c0,0.578,0.501,1.444,0.847,2.157c0.443,0.905,0.867,1.675,0.867,2.541
		c0,1.483-1.945,2.58-3.274,2.58c-0.77,0-1.482-0.404-1.482-1.194C51.358,33.187,51.704,32.821,52.051,32.821z"/>
	<path fill="#900000" d="M58.694,28.373c-0.058,0-0.135-0.115-0.135-0.212c0-0.193,1.695-2.291,3.138-2.291
		c0.135,0,0.597,0.058,0.597,0.558c0,0.808-2.446,6.489-2.446,6.817c0,0.134,0.039,0.231,0.135,0.231
		c0.462,0,1.791-1.387,1.886-1.387c0.096,0,0.212,0,0.212,0.192c0,0.096-2.041,2.542-3.389,2.446c-0.558,0-0.558-0.481-0.558-0.77
		c0-0.539,2.541-6.566,2.541-6.662c0-0.058,0-0.289-0.154-0.289c-0.501,0-1.213,0.847-1.675,1.271
		C58.771,28.334,58.732,28.373,58.694,28.373z M62.198,21.21c0.52,0,0.925,0.404,0.925,0.924c0,0.52-0.404,0.925-0.925,0.925
		c-0.52,0-0.924-0.404-0.924-0.925C61.274,21.614,61.679,21.21,62.198,21.21z"/>
	<path fill="#900000" d="M63.989,27.236c-0.173,0-0.231-0.038-0.231-0.134c0-0.097,0.212-0.674,0.462-0.674h1.541
		c0.115,0,0.154,0,0.212-0.039c0.058-0.077,0.077-0.153,0.674-1.983c0.019-0.096,0.134-0.135,0.231-0.135h0.886
		c0.135,0,0.173,0.039,0.173,0.174c0,0.096-0.52,1.617-0.52,1.829c0,0.115,0.096,0.154,0.193,0.154h1.655
		c0.135,0,0.193,0.039,0.193,0.231c0,0.077-0.173,0.635-0.385,0.635c-0.327,0-0.635-0.019-0.925-0.038
		c-0.289,0-0.577-0.02-0.866-0.02c-0.192,0-0.27,0.327-0.385,0.694c-0.154,0.539-1.656,5.622-1.656,5.68
		c0,0.231,0.116,0.327,0.269,0.327c0.77,0,2.542-1.83,2.638-1.83c0.096,0,0.174,0.039,0.174,0.154c0,0.289-2.003,2.465-3.986,2.465
		c-0.404,0-0.635-0.25-0.635-0.713c0-0.269,1.945-6.412,1.945-6.643c0-0.096-0.097-0.135-0.289-0.135H63.989z"/>
	<path fill="#900000" d="M75.33,26.37c0.039-0.212,0.115-0.346,0.327-0.346c0.482,0,0.925,0.289,0.925,0.596
		c0,0.789-2.349,6.932-4.525,10.148c-1.175,1.732-2.137,2.927-4.274,2.927c-0.674,0-1.137-0.193-1.137-0.847
		c0-0.27,0.327-0.732,0.809-0.732c0.77,0,0.693,0.732,1.886,0.732c0.655,0,2.658-1.772,2.658-5.584c0-1.232-0.424-6.007-1.387-5.969
		c-1.039,0.039-0.847,2.196-1.155,2.196c-0.27,0-0.27-0.135-0.27-0.424c0-0.732,0.789-3.042,2.156-3.042
		c1.714,0,1.945,6.181,1.945,6.662c0,0.365-0.077,0.944,0,0.944c0.058,0,0.462-0.751,0.886-1.965
		C74.579,30.51,74.868,29.47,75.33,26.37z"/>
	<path fill="#900000" d="M84.553,34.727c-1.675,0-2.195-1.81-2.195-2.927c0-2.658,1.694-5.854,3.967-5.854
		c1.54,0,2.329,1.156,2.329,2.927C88.654,31.434,87.018,34.727,84.553,34.727z M86.383,26.447c-1.252,0-2.773,3.948-2.773,5.738
		c0,0.712-0.038,2.041,1.04,2.041c1.001,0,2.753-3.774,2.753-5.738C87.403,27.063,87.172,26.447,86.383,26.447z"/>
	<path fill="#900000" d="M89.964,27.16c-0.116,0-0.173-0.039-0.173-0.077c0-0.096,0.058-0.482,0.193-0.501
		c1.925-0.154,1.983-0.154,2.098-0.482c0.212-0.597,0.443-1.83,0.944-2.908c0.77-1.675,2.446-2.888,4.332-2.888
		c0.558,0,1.637,0.289,1.637,1.001c0,0.558-0.251,0.982-0.867,0.982c-1.27,0-0.789-1.348-1.771-1.348c-0.405,0-1.656,0-2.503,4.159
		c-0.097,0.482-0.289,1.078-0.289,1.232c0,0.096,0.077,0.096,0.134,0.096h2.061c0.115,0,0.154,0,0.154,0.116
		c0,0.019-0.077,0.616-0.212,0.616h-2.099c-0.211,0-0.289,0.134-0.346,0.404c-1.906,8.665-2.387,10.147-3.639,11.206
		c-0.616,0.52-1.406,0.925-2.234,0.925c-0.577,0-1.213-0.154-1.213-0.847c0-0.385,0.365-0.694,0.732-0.694
		c0.713,0,1.155,0.694,1.655,0.694c0.347,0,0.77-0.327,1.175-2.157c1.483-6.681,2.079-9.127,2.079-9.339
		c0-0.096-0.077-0.192-0.173-0.192H89.964z"/>
	<path fill="#900000" d="M102.21,33.148c0,0.732,0.327,0.789,1.27,0.866c0.212,0.02,0.385,0.039,0.385,0.116
		c0,0.154-0.019,0.405-0.211,0.405c-0.174,0-0.366-0.039-2.658-0.039c-1.136,0-1.29,0.039-1.521,0.039
		c-0.096,0-0.096-0.077-0.096-0.173c0-0.173,0.096-0.308,0.193-0.308c0.27,0,0.808-0.096,1.097-0.231
		c0.424-0.173,0.925-1.02,1.31-2.484c0.751-2.754,2.195-7.298,2.465-8.241c0.038-0.135,0.308-0.944,0.308-1.059
		c0-0.097-0.058-0.405-0.577-0.52l-1.483-0.289c-0.153-0.039-0.192-0.077-0.192-0.25c0-0.154,0.096-0.212,0.212-0.212
		c0.231,0,1.406,0.077,2.002,0.077c0.289,0,1.637-0.077,1.926-0.077c0.154,0,0.25,0.096,0.27,0.192
		c0.732,3.928,1.136,8.068,1.29,9.435c0.096,0.905,0.153,1.001,0.231,1.001c0.096,0,0.192-0.135,0.27-0.231
		c1.406-1.965,5.661-8.549,6.874-10.109c0.135-0.173,0.231-0.289,0.385-0.289c0.115,0,1.252,0.077,1.521,0.077
		c0.232,0,1.232-0.077,1.791-0.077c0.116,0,0.116,0.058,0.116,0.212c0,0.192-0.038,0.308-0.192,0.327
		c-0.27,0.019-0.886,0.116-1.156,0.192c-0.462,0.135-0.654,0.77-0.77,1.367c-1.213,5.988-2.157,9.609-2.157,10.34
		c0,0.597,0.385,0.674,0.732,0.713l0.963,0.115c0.097,0.019,0.154,0.019,0.154,0.192c0,0.058-0.077,0.308-0.212,0.308
		c-0.231,0-0.346-0.039-1.771-0.039c-2.6,0-3.101,0.039-3.427,0.039c-0.174,0-0.212-0.077-0.212-0.173
		c0-0.232,0.038-0.27,0.404-0.327l0.886-0.135c0.27-0.019,0.481-0.231,0.558-0.501c0.905-3.369,1.791-8.221,2.541-10.801
		c0.058-0.212,0.115-0.578,0.115-0.636c0-0.058-0.019-0.096-0.096-0.096c-0.058,0-0.596,0.674-0.712,0.847
		c-2.85,4.043-5.834,8.78-7.548,11.553c-0.039,0.077-0.231,0.423-0.404,0.423c-0.058,0-0.154-0.038-0.231-0.732
		c-0.52-5.507-1.232-10.667-1.406-11.168c-0.02-0.058-0.039-0.154-0.154-0.154c-0.096,0-0.154,0.077-0.828,2.157
		C102.575,30.607,102.21,32.859,102.21,33.148z"/>
	<path fill="#900000" d="M119.289,28.373c-0.058,0-0.135-0.115-0.135-0.212c0-0.193,1.695-2.291,3.139-2.291
		c0.135,0,0.597,0.058,0.597,0.558c0,0.808-2.446,6.489-2.446,6.817c0,0.134,0.039,0.231,0.135,0.231
		c0.462,0,1.791-1.387,1.886-1.387c0.096,0,0.212,0,0.212,0.192c0,0.096-2.041,2.542-3.389,2.446c-0.558,0-0.558-0.481-0.558-0.77
		c0-0.539,2.541-6.566,2.541-6.662c0-0.058,0-0.289-0.154-0.289c-0.501,0-1.213,0.847-1.675,1.271
		C119.366,28.334,119.327,28.373,119.289,28.373z M122.793,21.21c0.52,0,0.925,0.404,0.925,0.924c0,0.52-0.404,0.925-0.925,0.925
		c-0.52,0-0.924-0.404-0.924-0.925C121.869,21.614,122.274,21.21,122.793,21.21z"/>
	<path fill="#900000" d="M123.698,32.821c0.982,0,0.828,1.271,1.81,1.271c0.269,0,1.059-0.385,1.059-1.232
		c0-0.674-0.674-2.003-0.886-2.427c-0.366-0.674-0.751-1.482-0.751-2.137c0-1.482,1.406-2.349,2.792-2.349
		c0.905,0,1.868,0.289,1.868,1.175c0,0.347-0.347,0.732-0.828,0.732c-0.886,0-0.809-1.348-1.714-1.348
		c-0.558,0-1.001,0.366-1.001,0.944c0,0.578,0.501,1.444,0.847,2.157c0.443,0.905,0.867,1.675,0.867,2.541
		c0,1.483-1.945,2.58-3.274,2.58c-0.77,0-1.482-0.404-1.482-1.194C123.005,33.187,123.352,32.821,123.698,32.821z"/>
	<path fill="#900000" d="M129.398,32.821c0.982,0,0.828,1.271,1.81,1.271c0.27,0,1.059-0.385,1.059-1.232
		c0-0.674-0.674-2.003-0.886-2.427c-0.365-0.674-0.751-1.482-0.751-2.137c0-1.482,1.406-2.349,2.792-2.349
		c0.905,0,1.867,0.289,1.867,1.175c0,0.347-0.346,0.732-0.828,0.732c-0.886,0-0.808-1.348-1.713-1.348
		c-0.558,0-1.001,0.366-1.001,0.944c0,0.578,0.501,1.444,0.847,2.157c0.443,0.905,0.866,1.675,0.866,2.541
		c0,1.483-1.944,2.58-3.273,2.58c-0.77,0-1.483-0.404-1.483-1.194C128.704,33.187,129.051,32.821,129.398,32.821z"/>
	<path fill="#900000" d="M137.658,34.727c-1.675,0-2.195-1.81-2.195-2.927c0-2.658,1.694-5.854,3.967-5.854
		c1.54,0,2.329,1.156,2.329,2.927C141.759,31.434,140.123,34.727,137.658,34.727z M139.487,26.447c-1.252,0-2.773,3.948-2.773,5.738
		c0,0.712-0.038,2.041,1.04,2.041c1.001,0,2.753-3.774,2.753-5.738C140.508,27.063,140.277,26.447,139.487,26.447z"/>
	<path fill="#900000" d="M147.997,34.496c-0.135,0-0.25-0.039-0.25-0.192c0-0.347,1.078-3.486,1.078-3.697
		c0-0.058-0.019-0.115-0.058-0.115c-0.077,0-1.791,2.599-2.946,3.581c-0.597,0.501-1.175,0.655-1.753,0.655
		c-0.462,0-0.808-0.308-0.808-1.156c0-0.847,2.522-6.431,2.522-7.085c0-0.116-0.115-0.212-0.231-0.212
		c-0.385,0-1.81,0.828-2.349,2.638c-0.019,0.077-0.077,0.077-0.173,0.077c-0.096,0-0.154-0.096-0.154-0.231
		c0-0.482,0.751-1.945,1.599-2.465c0.384-0.232,1.001-0.578,2.696-0.578c0.116,0,0.346,0.058,0.346,0.327
		c0,0.366-2.753,6.412-2.753,7.297c0,0.27,0.231,0.385,0.365,0.385c0.655,0,1.329-0.635,2.792-2.696
		c0.905-1.213,1.271-2.003,1.348-2.214c0.886-2.407,0.847-2.946,1.136-2.946h1.137c0.153,0,0.25,0.077,0.25,0.134
		c0,0.327-2.426,6.99-2.426,7.414c0,0.096,0.039,0.25,0.154,0.25c0.885,0,2.079-2.214,2.156-2.214c0.116,0,0.27,0.019,0.27,0.153
		c0,0.385-1.541,2.889-3.177,2.889H147.997z"/>
	<path fill="#900000" d="M153.081,34.496c-0.096,0-0.135-0.077-0.135-0.116c0-0.366,2.619-7.586,2.619-7.702
		c0-0.134-0.096-0.231-0.385-0.231c-1.117,0-1.926,2.658-2.137,2.658c-0.154,0-0.212-0.039-0.212-0.135
		c0-1.54,1.039-3.023,2.85-3.023h0.982c0.212,0,0.327,0.077,0.327,0.154c0,0.154-1.56,4.583-1.56,4.756
		c0,0.077,0.058,0.135,0.096,0.135c0.135,0,0.327-0.442,0.866-1.386c1.522-2.619,2.388-3.736,3.525-3.736
		c0.577,0,1.02,0.404,1.02,0.982c0,0.539-0.462,0.982-1.001,0.982c-0.944,0-0.886-0.616-1.348-0.616
		c-0.212,0-0.655,0.577-0.828,0.847c-2.099,3.369-2.368,3.774-3.389,6.239c-0.058,0.134-0.116,0.192-0.231,0.192H153.081z"/>
	<path fill="#900000" d="M161.361,28.373c-0.058,0-0.135-0.115-0.135-0.212c0-0.193,1.694-2.291,3.139-2.291
		c0.134,0,0.596,0.058,0.596,0.558c0,0.808-2.444,6.489-2.444,6.817c0,0.134,0.038,0.231,0.135,0.231
		c0.462,0,1.79-1.387,1.887-1.387c0.096,0,0.211,0,0.211,0.192c0,0.096-2.041,2.542-3.388,2.446c-0.558,0-0.558-0.481-0.558-0.77
		c0-0.539,2.541-6.566,2.541-6.662c0-0.058,0-0.289-0.154-0.289c-0.501,0-1.213,0.847-1.675,1.271
		C161.438,28.334,161.4,28.373,161.361,28.373z M164.865,21.21c0.52,0,0.924,0.404,0.924,0.924c0,0.52-0.404,0.925-0.924,0.925
		c-0.52,0-0.924-0.404-0.924-0.925C163.941,21.614,164.345,21.21,164.865,21.21z"/>
	<path fill="#900000" d="M182.117,26.986c0.289,0,0.289-0.039,0.366-0.366c0.906-3.6,1.117-4.351,1.117-4.679
		c0-0.212,0-0.616-1.27-0.616c-0.463,0-0.482-0.173-0.482-0.27c0-0.096,0.038-0.289,0.231-0.289c0.231,0,0.751,0.077,2.484,0.077
		c1.925,0,2.272-0.077,2.407-0.077c0.173,0,0.211,0,0.211,0.115c0,0.231-0.02,0.443-0.732,0.443c-0.577,0-0.886,0.192-1.097,1.02
		c-2.407,9.416-2.618,10.494-2.618,11.033c0,0.482,0.404,0.655,1.617,0.655c0.173,0,0.193,0.058,0.193,0.135
		c0,0.193-0.038,0.366-0.271,0.366c-0.134,0-0.269-0.039-2.194-0.039c-2.465,0-2.811,0.039-2.966,0.039
		c-0.153,0-0.153-0.135-0.153-0.173c0-0.212,0.096-0.327,0.173-0.327c1.425,0,1.579-0.251,1.849-1.348
		c1.059-4.352,1.232-4.853,1.232-4.91c0-0.154-0.193-0.154-0.386-0.154h-6.084c-0.173,0-0.289,0.039-0.346,0.289
		c-1.021,4.448-1.194,5.276-1.194,5.469c0,0.385,0.269,0.655,1.656,0.655c0.115,0,0.193,0.038,0.193,0.25s-0.04,0.251-0.27,0.251
		c-0.173,0-0.539-0.039-2.734-0.039c-1.752,0-2.138,0.039-2.407,0.039c-0.155,0-0.193-0.02-0.193-0.154
		c0-0.289,0.058-0.308,0.462-0.346c1.117-0.096,1.232-0.096,1.503-1.213c2.098-8.433,2.598-10.032,2.598-10.84
		c0-0.539-0.346-0.655-1.308-0.655c-0.348,0-0.406-0.097-0.406-0.231c0-0.058,0.058-0.327,0.193-0.327
		c0.366,0,1.599,0.077,2.6,0.077c1.001,0,2.098-0.077,2.369-0.077c0.115,0,0.153,0.019,0.153,0.289c0,0.212-0.058,0.27-0.269,0.27
		c-0.79,0-1.272,0.134-1.483,0.886c-0.193,0.674-1.175,4.274-1.175,4.621c0,0.154,0.134,0.154,0.269,0.154H182.117z"/>
	<path fill="#900000" d="M192.708,27.352c0,0.925-0.808,2.427-4.429,3.12c-0.076,0.424-0.231,1.117-0.231,1.579
		c0,0.809,0.289,1.618,1.232,1.618c1.059,0,1.965-1.463,2.1-1.463c0.173,0,0.231,0.134,0.231,0.251c0,0.153-1.503,2.272-3.139,2.272
		c-1.463,0-1.848-1.175-1.848-2.426c0-3.639,2.367-6.277,4.486-6.277C192.015,26.024,192.708,26.409,192.708,27.352z
		 M191.398,27.333c0-0.346-0.173-0.808-0.615-0.808c-1.041,0-1.887,1.424-2.446,3.466C190.744,29.701,191.398,28.027,191.398,27.333
		z"/>
	<path fill="#900000" d="M201.45,25.715c0.058,0,0.116,0,0.116,0.116c0,0.424-2.715,6.701-2.715,7.356
		c0,0.116,0.038,0.25,0.193,0.25c0.558,0,1.887-2.06,2.118-2.06c0.076,0,0.173,0.077,0.173,0.154c0,0.154-2.176,3.196-3.524,3.196
		c-0.424,0-0.597-0.231-0.597-0.443c0-0.501,1.213-3.331,1.213-3.408c0-0.058-0.018-0.096-0.076-0.096
		c-0.173,0-0.559,0.77-0.77,1.039c-0.982,1.31-2.329,2.908-3.755,2.908c-0.655,0-0.77-0.443-0.77-0.963
		c0-1.502,1.81-5.199,3.544-6.817c1-0.924,1.694-1.001,2.349-1.001c0.558,0,0.731,0.135,0.866,0.27
		c0.134,0.135,0.173,0.27,0.231,0.27c0.154,0,0.251-0.77,0.482-0.77H201.45z M199.409,27.141c0-0.405-0.115-0.694-0.79-0.694
		c-1.945,0-3.908,5.295-3.908,6.72c0,0.308,0.116,0.482,0.289,0.482C196.308,33.649,199.409,28.758,199.409,27.141z"/>
	<path fill="#900000" d="M206.071,21.98c0-0.501-0.269-0.52-0.655-0.52c-0.308,0-0.597,0-0.597-0.289
		c0-0.231,0.231-0.289,0.597-0.327c1.175-0.115,2.022-0.27,2.156-0.27c0.115,0,0.29,0,0.29,0.174c0,0.751-3.774,11.437-3.774,11.861
		c0,0.231,0.115,0.327,0.327,0.327c0.424,0,1.83-1.81,2.06-1.81c0.096,0,0.173,0.077,0.173,0.25c0,0.173-2.58,3.35-3.832,3.35
		c-0.422,0-0.653-0.27-0.653-0.655C202.163,33.533,206.071,22.173,206.071,21.98z"/>
	<path fill="#900000" d="M207.996,27.236c-0.173,0-0.231-0.038-0.231-0.134c0-0.097,0.213-0.674,0.462-0.674h1.541
		c0.115,0,0.153,0,0.211-0.039c0.058-0.077,0.077-0.153,0.675-1.983c0.02-0.096,0.135-0.135,0.231-0.135h0.886
		c0.135,0,0.173,0.039,0.173,0.174c0,0.096-0.52,1.617-0.52,1.829c0,0.115,0.096,0.154,0.193,0.154h1.655
		c0.135,0,0.193,0.039,0.193,0.231c0,0.077-0.173,0.635-0.384,0.635c-0.328,0-0.637-0.019-0.925-0.038
		c-0.289,0-0.577-0.02-0.866-0.02c-0.193,0-0.269,0.327-0.384,0.694c-0.155,0.539-1.656,5.622-1.656,5.68
		c0,0.231,0.115,0.327,0.269,0.327c0.77,0,2.542-1.83,2.638-1.83c0.097,0,0.173,0.039,0.173,0.154c0,0.289-2.003,2.465-3.986,2.465
		c-0.404,0-0.635-0.25-0.635-0.713c0-0.269,1.945-6.412,1.945-6.643c0-0.096-0.096-0.135-0.289-0.135H207.996z"/>
	<path fill="#900000" d="M213.618,34.496c-0.154,0-0.249-0.097-0.249-0.289c0-0.193,3.715-12.092,3.715-12.227
		c0-0.501-0.269-0.52-0.655-0.52c-0.307,0-0.596,0-0.596-0.289c0-0.231,0.231-0.289,0.596-0.327c1.175-0.115,2.022-0.27,2.158-0.27
		c0.115,0,0.289,0,0.289,0.174c0,0.231-2.389,8.164-2.389,8.279c0,0.039,0.02,0.077,0.058,0.077c0.077,0,0.135-0.154,0.173-0.212
		c1.618-2.234,3.062-2.869,3.812-2.869c0.79,0,1.272,0.481,1.272,1.29c0,2.56-2.407,7.413-4.563,7.413
		c-0.501,0-0.81-0.231-0.81-0.77c0-0.462,0.366-0.943,0.81-0.943c0.653,0,0.462,0.712,0.962,0.712c0.982,0,2.08-4.525,2.08-5.41
		c0-0.694-0.27-1.137-0.848-1.137c-0.558,0-1.694,0.867-3.004,2.831c-0.846,1.271-0.886,2.098-1.637,4.217
		c-0.038,0.115-0.076,0.27-0.231,0.27H213.618z"/>
</g>
<g>
</g>
<g>
</g>
<g>
</g>
<g>
</g>
<g>
</g>
<g>
</g>
<g>
</g>
<g>
</g>
<g>
</g>
<g>
</g>
<g>
</g>
<g>
</g>
<g>
</g>
<g>
</g>
<g>
</g>
</svg>
