<svg id="3ade3e2a-68e8-4482-8c55-18366334895d" data-name="Layer 1" xmlns="http://www.w3.org/2000/svg" width="292.52" height="103.59" viewBox="0 0 292.52 103.59"><defs><style>.\34 eb932a0-b9bf-4ff4-b829-6d90edc1ccd0{fill:#900000;}.\35 0449f3e-04c7-496a-8baf-80bd7c83b006{fill:#fff;}.\39 010d6f4-0b36-4cbf-8dde-4d30baa77c55{fill:#f1b82d;}</style></defs><title>health-wordmark-large</title><path d="M2.7,4.24a10.55,10.55,0,0,0,.36-2c0-.36-0.23-0.69-1.91-0.74-0.33,0-.33-0.1-0.33-0.36s0.1-.3.2-0.3c0.25,0,2.31.1,3.18,0.1,1.53,0,3-.1,3.46-0.1,0.15,0,.18.2,0.18,0.38a0.34,0.34,0,0,1-.28.36,3.45,3.45,0,0,0-1.63.3C5.7,2.08,5.49,2.54,5.06,4.4c-1.25,5.39-1.91,8.18-1.91,9.81C3.15,17.71,6.21,18,7.35,18c2.52,0,5.31-1.4,6.56-6.08,1.7-6.4,1.91-7.85,1.91-8.95s-0.64-1.14-1.32-1.32A6.9,6.9,0,0,0,13.3,1.5a0.38,0.38,0,0,1-.15-0.3A0.37,0.37,0,0,1,13.47.81c0.28,0,2,.1,2.47.1,0.84,0,3.15-.1,3.63-0.1,0.1,0,.18.13,0.18,0.33a0.35,0.35,0,0,1-.23.28l-0.89.13c-0.51.08-1.32,0.38-1.81,2C16,6.23,15,12.3,13.65,15c-1.45,2.92-3.71,4.12-7.09,4.12-3.23,0-5.82-1.6-5.82-4.91C0.74,12.28,1.73,9,2.7,4.24Z" transform="translate(-0.74 -0.2)"/><path d="M24.22,18.93c-0.15,0-.18-0.05-0.18-0.2,0-.94,3.35-8.13,3.35-9.46a0.67,0.67,0,0,0-.66-0.74c-1.68,0-2.92,2.82-5.36,7-0.13.23-.43,1-1.37,3.18a0.28,0.28,0,0,1-.28.23h-1.5a0.17,0.17,0,0,1-.2-0.2c0-.41,3.46-9.2,3.46-9.94a0.25,0.25,0,0,0-.2-0.3c-2,0-3.05,2.54-3.05,3.07a0.24,0.24,0,0,1-.23.13,0.21,0.21,0,0,1-.23-0.23c0-.61.84-3.71,3.58-3.71h1.88a0.21,0.21,0,0,1,.25.23c0,0.3-1.88,4.91-1.88,5.72,0,0.13,0,.18.08,0.18s0.18-.13.69-1c2.74-5,3.51-5.29,5-5.29,0.71,0,2,.1,2,1.27,0,2.08-3.1,7.93-3.1,8.92a0.3,0.3,0,0,0,.25.2c1.2,0,2.57-2.67,2.85-2.67a0.34,0.34,0,0,1,.25.23c0,0.33-2,3.43-4.07,3.43H24.22Z" transform="translate(-0.74 -0.2)"/><path d="M32,10.85a0.3,0.3,0,0,1-.18-0.28c0-.25,2.24-3,4.14-3a0.73,0.73,0,0,1,.79.74c0,1.07-3.23,8.57-3.23,9,0,0.18.05,0.3,0.18,0.3,0.61,0,2.36-1.83,2.49-1.83a0.22,0.22,0,0,1,.28.25c0,0.13-2.69,3.36-4.47,3.23a0.79,0.79,0,0,1-.74-1c0-.71,3.35-8.67,3.35-8.79s0-.38-0.2-0.38c-0.66,0-1.6,1.12-2.21,1.68A0.49,0.49,0,0,1,32,10.85ZM36.63,1.4a1.2,1.2,0,0,1,1.22,1.22,1.22,1.22,0,1,1-2.44,0A1.2,1.2,0,0,1,36.63,1.4Z" transform="translate(-0.74 -0.2)"/><path d="M43.16,7.65a2,2,0,0,0,.36-0.05A2.51,2.51,0,0,1,44,7.55a0.3,0.3,0,0,1,.28.28c0,1.19-2.87,4.14-2.87,7.45,0,1.07.41,2.44,1.73,2.44,2.74,0,4.8-4.8,4.8-7.12,0-1-1.22-1-1.22-1.93a1.21,1.21,0,0,1,1.14-1.32c1.09,0,1.3.74,1.3,1.73,0,2.39-2.62,10.17-7.19,10.17-0.56,0-2.34-.3-2.34-2.74,0-2.92,3.35-6.86,3.35-7.14,0-.13,0-0.18-0.46-0.18H39.83c-0.66,0-1,1-1.22,1.63a0.25,0.25,0,0,1-.3.23,0.31,0.31,0,0,1-.28-0.2c0-.3.84-3.18,1.25-3.18h3.89Z" transform="translate(-0.74 -0.2)"/><path d="M58.49,9.5c0,1.22-1.07,3.2-5.85,4.12a13.65,13.65,0,0,0-.31,2.08c0,1.07.38,2.14,1.63,2.14,1.4,0,2.59-1.93,2.77-1.93a0.3,0.3,0,0,1,.3.33c0,0.2-2,3-4.14,3-1.93,0-2.44-1.55-2.44-3.2,0-4.8,3.13-8.29,5.92-8.29C57.57,7.75,58.49,8.26,58.49,9.5Zm-1.73,0a1,1,0,0,0-.81-1.07c-1.37,0-2.49,1.88-3.23,4.58C55.89,12.61,56.76,10.39,56.76,9.48Z" transform="translate(-0.74 -0.2)"/><path d="M59.81,18.93a0.17,0.17,0,0,1-.18-0.15c0-.48,3.46-10,3.46-10.17s-0.13-.3-0.51-0.3c-1.47,0-2.54,3.51-2.82,3.51s-0.28-.05-0.28-0.18a3.79,3.79,0,0,1,3.76-4h1.3c0.28,0,.43.1,0.43,0.2s-2.06,6-2.06,6.28a0.17,0.17,0,0,0,.13.18c0.18,0,.43-0.58,1.14-1.83,2-3.46,3.15-4.93,4.65-4.93a1.28,1.28,0,0,1,1.35,1.3,1.32,1.32,0,0,1-1.32,1.3c-1.25,0-1.17-.81-1.78-0.81A2.88,2.88,0,0,0,66,10.45c-2.77,4.45-3.13,5-4.47,8.24a0.32,0.32,0,0,1-.3.25h-1.4Z" transform="translate(-0.74 -0.2)"/><path d="M69.19,16.72c1.3,0,1.09,1.68,2.39,1.68A1.67,1.67,0,0,0,73,16.77a10.36,10.36,0,0,0-1.17-3.2,6.73,6.73,0,0,1-1-2.82c0-2,1.86-3.1,3.69-3.1C75.69,7.65,77,8,77,9.2a1.07,1.07,0,0,1-1.09,1c-1.17,0-1.07-1.78-2.26-1.78a1.24,1.24,0,0,0-1.32,1.25,8.66,8.66,0,0,0,1.12,2.85,7.88,7.88,0,0,1,1.14,3.35c0,2-2.57,3.41-4.32,3.41a1.72,1.72,0,0,1-2-1.58A1,1,0,0,1,69.19,16.72Z" transform="translate(-0.74 -0.2)"/><path d="M78,10.85a0.3,0.3,0,0,1-.18-0.28c0-.25,2.24-3,4.14-3a0.73,0.73,0,0,1,.79.74c0,1.07-3.23,8.57-3.23,9,0,0.18.05,0.3,0.18,0.3,0.61,0,2.36-1.83,2.49-1.83a0.22,0.22,0,0,1,.28.25c0,0.13-2.69,3.36-4.47,3.23a0.79,0.79,0,0,1-.74-1c0-.71,3.35-8.67,3.35-8.79s0-.38-0.2-0.38c-0.66,0-1.6,1.12-2.21,1.68A0.49,0.49,0,0,1,78,10.85ZM82.58,1.4A1.2,1.2,0,0,1,83.8,2.62a1.22,1.22,0,1,1-2.44,0A1.2,1.2,0,0,1,82.58,1.4Z" transform="translate(-0.74 -0.2)"/><path d="M84.95,9.35c-0.23,0-.3-0.05-0.3-0.18a1.19,1.19,0,0,1,.61-0.89h2a0.42,0.42,0,0,0,.28-0.05,20.66,20.66,0,0,0,.89-2.62,0.29,0.29,0,0,1,.3-0.18h1.17a0.19,0.19,0,0,1,.23.23c0,0.13-.69,2.13-0.69,2.41a0.22,0.22,0,0,0,.25.2h2.19c0.18,0,.25.05,0.25,0.3a1.15,1.15,0,0,1-.51.84c-0.43,0-.84,0-1.22-0.05l-1.14,0a1.12,1.12,0,0,0-.51.92c-0.2.71-2.19,7.42-2.19,7.5a0.36,0.36,0,0,0,.36.43c1,0,3.36-2.41,3.48-2.41a0.2,0.2,0,0,1,.23.2c0,0.38-2.64,3.25-5.26,3.25a0.81,0.81,0,0,1-.84-0.94c0-.36,2.57-8.46,2.57-8.77,0-.13-0.13-0.18-0.38-0.18H84.95Z" transform="translate(-0.74 -0.2)"/><path d="M99.92,8.21a0.43,0.43,0,0,1,.43-0.46,1.13,1.13,0,0,1,1.22.79c0,1-3.1,9.15-6,13.4C94,24.22,92.77,25.8,90,25.8c-0.89,0-1.5-.25-1.5-1.12a1.12,1.12,0,0,1,1.07-1c1,0,.91,1,2.49,1,0.86,0,3.51-2.34,3.51-7.37,0-1.63-.56-7.93-1.83-7.88s-1.12,2.9-1.52,2.9-0.36-.18-0.36-0.56c0-1,1-4,2.85-4,2.26,0,2.57,8.16,2.57,8.79a4.69,4.69,0,0,0,0,1.25,10.09,10.09,0,0,0,1.17-2.59A33.66,33.66,0,0,0,99.92,8.21Z" transform="translate(-0.74 -0.2)"/><path d="M112.09,19.24c-2.21,0-2.9-2.39-2.9-3.86,0-3.51,2.24-7.73,5.24-7.73,2,0,3.07,1.53,3.07,3.86C117.5,14.89,115.34,19.24,112.09,19.24Zm2.41-10.93c-1.65,0-3.66,5.21-3.66,7.57,0,0.94-.05,2.69,1.37,2.69s3.63-5,3.63-7.57C115.85,9.12,115.55,8.31,114.51,8.31Z" transform="translate(-0.74 -0.2)"/><path d="M119.23,9.25c-0.15,0-.23-0.05-0.23-0.1a0.86,0.86,0,0,1,.25-0.66c2.54-.2,2.62-0.2,2.77-0.64A32.06,32.06,0,0,1,123.27,4,6.42,6.42,0,0,1,129,.2c0.74,0,2.16.38,2.16,1.32A1.11,1.11,0,0,1,130,2.82c-1.68,0-1-1.78-2.34-1.78-0.53,0-2.19,0-3.3,5.49C124.24,7.17,124,8,124,8.16s0.1,0.13.18,0.13h2.72c0.15,0,.2,0,0.2.15a1.43,1.43,0,0,1-.28.81H124c-0.28,0-.38.18-0.46,0.53-2.52,11.44-3.15,13.39-4.8,14.79a4.72,4.72,0,0,1-2.95,1.22c-0.76,0-1.6-.2-1.6-1.12a1,1,0,0,1,1-.92c0.94,0,1.52.92,2.19,0.92,0.46,0,1-.43,1.55-2.85,2-8.82,2.74-12,2.74-12.33a0.25,0.25,0,0,0-.23-0.25h-2.21Z" transform="translate(-0.74 -0.2)"/><path d="M135.4,17.16c0,1,.43,1,1.68,1.14a0.58,0.58,0,0,1,.51.15c0,0.2,0,.53-0.28.53s-0.48-.05-3.51-0.05c-1.5,0-1.7.05-2,.05-0.13,0-.13-0.1-0.13-0.23a0.37,0.37,0,0,1,.25-0.41,4.36,4.36,0,0,0,1.45-.3c0.56-.23,1.22-1.35,1.73-3.28,1-3.64,2.9-9.63,3.25-10.88,0.05-.18.41-1.25,0.41-1.4A0.79,0.79,0,0,0,138,1.8l-2-.38a0.27,0.27,0,0,1-.25-0.33,0.25,0.25,0,0,1,.28-0.28c0.3,0,1.86.1,2.64,0.1,0.38,0,2.16-.1,2.54-0.1a0.34,0.34,0,0,1,.36.25c1,5.18,1.5,10.65,1.7,12.45,0.13,1.19.2,1.32,0.3,1.32a0.67,0.67,0,0,0,.36-0.3c1.86-2.59,7.47-11.29,9.07-13.34a0.7,0.7,0,0,1,.51-0.38c0.15,0,1.65.1,2,.1s1.63-.1,2.36-0.1c0.15,0,.15.08,0.15,0.28s-0.05.41-.25,0.43a10.63,10.63,0,0,0-1.53.25c-0.61.18-.86,1-1,1.8-1.6,7.9-2.85,12.68-2.85,13.65a0.87,0.87,0,0,0,1,.94l1.27,0.15c0.13,0,.2,0,0.2.25a0.46,0.46,0,0,1-.28.41c-0.3,0-.46-0.05-2.34-0.05-3.43,0-4.09.05-4.52,0.05-0.23,0-.28-0.1-0.28-0.23,0-.31.05-0.36,0.53-0.43l1.17-.18a0.86,0.86,0,0,0,.74-0.66c1.19-4.45,2.36-10.85,3.35-14.26a6.07,6.07,0,0,0,.15-0.84,0.11,0.11,0,0,0-.13-0.13,7.92,7.92,0,0,0-.94,1.12c-3.76,5.34-7.7,11.59-10,15.25a1,1,0,0,1-.53.56c-0.08,0-.2-0.05-0.3-1C140.84,11,139.9,4.14,139.67,3.48a0.22,0.22,0,0,0-.2-0.2c-0.13,0-.2.1-1.09,2.85C135.88,13.8,135.4,16.77,135.4,17.16Z" transform="translate(-0.74 -0.2)"/><path d="M157.94,10.85a0.3,0.3,0,0,1-.18-0.28c0-.25,2.24-3,4.14-3a0.73,0.73,0,0,1,.79.74c0,1.07-3.23,8.57-3.23,9,0,0.18.05,0.3,0.18,0.3,0.61,0,2.36-1.83,2.49-1.83a0.22,0.22,0,0,1,.28.25c0,0.13-2.69,3.36-4.47,3.23a0.79,0.79,0,0,1-.74-1c0-.71,3.35-8.67,3.35-8.79s0-.38-0.2-0.38c-0.66,0-1.6,1.12-2.21,1.68A0.49,0.49,0,0,1,157.94,10.85Zm4.63-9.46a1.2,1.2,0,0,1,1.22,1.22,1.22,1.22,0,1,1-2.44,0A1.2,1.2,0,0,1,162.57,1.4Z" transform="translate(-0.74 -0.2)"/><path d="M163.76,16.72c1.3,0,1.09,1.68,2.39,1.68a1.67,1.67,0,0,0,1.4-1.63,10.35,10.35,0,0,0-1.17-3.2,6.73,6.73,0,0,1-1-2.82c0-2,1.86-3.1,3.69-3.1,1.19,0,2.47.38,2.47,1.55a1.07,1.07,0,0,1-1.09,1c-1.17,0-1.07-1.78-2.26-1.78a1.24,1.24,0,0,0-1.32,1.25A8.66,8.66,0,0,0,168,12.48a7.88,7.88,0,0,1,1.14,3.35c0,2-2.57,3.41-4.32,3.41a1.72,1.72,0,0,1-2-1.58A1,1,0,0,1,163.76,16.72Z" transform="translate(-0.74 -0.2)"/><path d="M171.29,16.72c1.3,0,1.09,1.68,2.39,1.68a1.67,1.67,0,0,0,1.4-1.63,10.36,10.36,0,0,0-1.17-3.2,6.74,6.74,0,0,1-1-2.82c0-2,1.86-3.1,3.69-3.1,1.19,0,2.47.38,2.47,1.55a1.07,1.07,0,0,1-1.09,1c-1.17,0-1.07-1.78-2.26-1.78a1.24,1.24,0,0,0-1.32,1.25,8.66,8.66,0,0,0,1.12,2.85,7.88,7.88,0,0,1,1.14,3.35c0,2-2.57,3.41-4.32,3.41a1.72,1.72,0,0,1-2-1.58A1,1,0,0,1,171.29,16.72Z" transform="translate(-0.74 -0.2)"/><path d="M182.19,19.24c-2.21,0-2.9-2.39-2.9-3.86,0-3.51,2.24-7.73,5.24-7.73,2,0,3.07,1.53,3.07,3.86C187.6,14.89,185.44,19.24,182.19,19.24ZM184.6,8.31c-1.65,0-3.66,5.21-3.66,7.57,0,0.94-.05,2.69,1.37,2.69S186,13.6,186,11C186,9.12,185.65,8.31,184.6,8.31Z" transform="translate(-0.74 -0.2)"/><path d="M195.84,18.93a0.27,0.27,0,0,1-.33-0.25c0-.46,1.42-4.6,1.42-4.88a0.13,0.13,0,0,0-.08-0.15c-0.1,0-2.36,3.43-3.89,4.73a3.43,3.43,0,0,1-2.31.86c-0.61,0-1.07-.41-1.07-1.53s3.33-8.49,3.33-9.35a0.31,0.31,0,0,0-.3-0.28,4.88,4.88,0,0,0-3.1,3.48c0,0.1-.1.1-0.23,0.1a0.25,0.25,0,0,1-.2-0.3,5.59,5.59,0,0,1,2.11-3.25,6.07,6.07,0,0,1,3.56-.76,0.43,0.43,0,0,1,.46.43c0,0.48-3.63,8.46-3.63,9.63a0.5,0.5,0,0,0,.48.51c0.86,0,1.75-.84,3.69-3.56a13.73,13.73,0,0,0,1.78-2.92c1.17-3.18,1.12-3.89,1.5-3.89h1.5a0.3,0.3,0,0,1,.33.18c0,0.43-3.2,9.23-3.2,9.79a0.29,0.29,0,0,0,.2.33c1.17,0,2.74-2.92,2.85-2.92s0.36,0,.36.2c0,0.51-2,3.81-4.19,3.81h-1Z" transform="translate(-0.74 -0.2)"/><path d="M202.55,18.93a0.17,0.17,0,0,1-.18-0.15c0-.48,3.46-10,3.46-10.17s-0.13-.3-0.51-0.3c-1.47,0-2.54,3.51-2.82,3.51s-0.28-.05-0.28-0.18a3.79,3.79,0,0,1,3.76-4h1.3c0.28,0,.43.1,0.43,0.2s-2.06,6-2.06,6.28a0.17,0.17,0,0,0,.13.18c0.18,0,.43-0.58,1.14-1.83,2-3.46,3.15-4.93,4.65-4.93a1.28,1.28,0,0,1,1.35,1.3,1.32,1.32,0,0,1-1.32,1.3c-1.25,0-1.17-.81-1.78-0.81a2.88,2.88,0,0,0-1.09,1.12c-2.77,4.45-3.13,5-4.47,8.24a0.32,0.32,0,0,1-.3.25h-1.4Z" transform="translate(-0.74 -0.2)"/><path d="M213.48,10.85a0.3,0.3,0,0,1-.18-0.28c0-.25,2.24-3,4.14-3a0.73,0.73,0,0,1,.79.74c0,1.07-3.23,8.57-3.23,9,0,0.18.05,0.3,0.18,0.3,0.61,0,2.36-1.83,2.49-1.83a0.22,0.22,0,0,1,.28.25c0,0.13-2.69,3.36-4.47,3.23a0.79,0.79,0,0,1-.74-1c0-.71,3.35-8.67,3.35-8.79s0-.38-0.2-0.38c-0.66,0-1.6,1.12-2.21,1.68A0.49,0.49,0,0,1,213.48,10.85ZM218.1,1.4a1.2,1.2,0,0,1,1.22,1.22,1.22,1.22,0,1,1-2.44,0A1.2,1.2,0,0,1,218.1,1.4Z" transform="translate(-0.74 -0.2)"/><path d="M240.88,9c0.38,0,.38-0.05.48-0.48a60.67,60.67,0,0,0,1.47-6.18c0-.28,0-0.81-1.68-0.81-0.61,0-.64-0.23-0.64-0.36a0.34,0.34,0,0,1,.3-0.38c0.3,0,1,.1,3.28.1a30.88,30.88,0,0,0,3.18-.1c0.23,0,.28,0,0.28.15,0,0.3,0,.58-1,0.58-0.76,0-1.17.25-1.45,1.35-3.18,12.43-3.46,13.85-3.46,14.56s0.53,0.86,2.13.86c0.23,0,.25.08,0.25,0.18,0,0.25-.05.48-0.36,0.48s-0.36-.05-2.9-0.05c-3.25,0-3.71.05-3.92,0.05a0.2,0.2,0,0,1-.2-0.23,0.38,0.38,0,0,1,.23-0.43c1.88,0,2.08-.33,2.44-1.78,1.4-5.74,1.63-6.41,1.63-6.48s-0.25-.2-0.51-0.2h-8a0.4,0.4,0,0,0-.46.38c-1.35,5.87-1.58,7-1.58,7.22,0,0.51.36,0.86,2.19,0.86,0.15,0,.25.05,0.25,0.33s-0.05.33-.36,0.33-0.71-.05-3.61-0.05c-2.31,0-2.82.05-3.18,0.05-0.2,0-.25,0-0.25-0.2,0-.38.08-0.41,0.61-0.46,1.47-.13,1.63-0.13,2-1.6,2.77-11.13,3.43-13.24,3.43-14.31,0-.71-0.46-0.86-1.73-0.86-0.46,0-.54-0.13-0.54-0.3a0.47,0.47,0,0,1,.25-0.43c0.48,0,2.11.1,3.43,0.1s2.77-.1,3.13-0.1c0.15,0,.2,0,0.2.38a0.29,0.29,0,0,1-.36.36c-1,0-1.68.18-2,1.17s-1.55,5.64-1.55,6.1c0,0.2.18,0.2,0.36,0.2h8.13Z" transform="translate(-0.74 -0.2)"/><path d="M254.86,9.5c0,1.22-1.07,3.2-5.85,4.12a13.9,13.9,0,0,0-.3,2.08c0,1.07.38,2.14,1.63,2.14,1.4,0,2.59-1.93,2.77-1.93a0.3,0.3,0,0,1,.3.33c0,0.2-2,3-4.14,3-1.93,0-2.44-1.55-2.44-3.2,0-4.8,3.13-8.29,5.92-8.29C253.94,7.75,254.86,8.26,254.86,9.5Zm-1.73,0a1,1,0,0,0-.81-1.07c-1.37,0-2.49,1.88-3.23,4.58C252.26,12.61,253.13,10.39,253.13,9.48Z" transform="translate(-0.74 -0.2)"/><path d="M266.39,7.34a0.12,0.12,0,0,1,.15.15c0,0.56-3.58,8.85-3.58,9.71a0.27,0.27,0,0,0,.25.33c0.74,0,2.49-2.72,2.8-2.72a0.25,0.25,0,0,1,.23.2c0,0.2-2.87,4.22-4.65,4.22a0.66,0.66,0,0,1-.79-0.58,40.36,40.36,0,0,1,1.6-4.5,0.1,0.1,0,0,0-.1-0.13,5.59,5.59,0,0,0-1,1.37c-1.3,1.73-3.07,3.84-5,3.84a1,1,0,0,1-1-1.27c0-2,2.39-6.86,4.68-9a4,4,0,0,1,3.1-1.32,1.37,1.37,0,0,1,1.14.36,1.66,1.66,0,0,0,.3.36c0.2,0,.33-1,0.64-1h1.22ZM263.7,9.23c0-.53-0.15-0.92-1-0.92-2.57,0-5.16,7-5.16,8.87,0,0.41.15,0.64,0.38,0.64C259.61,17.82,263.7,11.36,263.7,9.23Z" transform="translate(-0.74 -0.2)"/><path d="M272.49,2.41c0-.66-0.36-0.69-0.86-0.69s-0.79,0-.79-0.38,0.3-.38.79-0.43c1.55-.15,2.67-0.36,2.85-0.36s0.38,0,.38.23c0,1-5,15.1-5,15.66a0.38,0.38,0,0,0,.43.43c0.56,0,2.41-2.39,2.72-2.39,0.13,0,.23.1,0.23,0.33s-3.41,4.42-5.06,4.42a0.8,0.8,0,0,1-.86-0.86C267.34,17.66,272.49,2.67,272.49,2.41Z" transform="translate(-0.74 -0.2)"/><path d="M275,9.35c-0.23,0-.3-0.05-0.3-0.18a1.19,1.19,0,0,1,.61-0.89h2a0.42,0.42,0,0,0,.28-0.05,20.4,20.4,0,0,0,.89-2.62,0.29,0.29,0,0,1,.3-0.18H280a0.19,0.19,0,0,1,.23.23c0,0.13-.69,2.13-0.69,2.41a0.22,0.22,0,0,0,.25.2H282c0.18,0,.25.05,0.25,0.3a1.15,1.15,0,0,1-.51.84c-0.43,0-.84,0-1.22-0.05l-1.14,0a1.12,1.12,0,0,0-.51.92c-0.2.71-2.19,7.42-2.19,7.5a0.36,0.36,0,0,0,.36.43c1,0,3.36-2.41,3.48-2.41a0.19,0.19,0,0,1,.23.2c0,0.38-2.64,3.25-5.26,3.25a0.81,0.81,0,0,1-.84-0.94c0-.36,2.57-8.46,2.57-8.77,0-.13-0.13-0.18-0.38-0.18H275Z" transform="translate(-0.74 -0.2)"/><path d="M282.46,18.93a0.32,0.32,0,0,1-.33-0.38c0-.25,4.9-16,4.9-16.14,0-.66-0.36-0.69-0.86-0.69s-0.79,0-.79-0.38,0.3-.38.79-0.43c1.55-.15,2.67-0.36,2.85-0.36s0.38,0,.38.23-3.15,10.78-3.15,10.93a0.09,0.09,0,0,0,.08.1,0.51,0.51,0,0,0,.23-0.28c2.14-2.95,4-3.79,5-3.79a1.56,1.56,0,0,1,1.68,1.7c0,3.38-3.18,9.79-6,9.79a0.93,0.93,0,0,1-1.07-1A1.22,1.22,0,0,1,287.24,17c0.86,0,.61.94,1.27,0.94,1.3,0,2.75-6,2.75-7.14,0-.92-0.36-1.5-1.12-1.5s-2.24,1.14-4,3.74c-1.12,1.68-1.17,2.77-2.16,5.57a0.38,0.38,0,0,1-.3.36h-1.25Z" transform="translate(-0.74 -0.2)"/><path class="4eb932a0-b9bf-4ff4-b829-6d90edc1ccd0" d="M2.7,30.24a10.55,10.55,0,0,0,.36-2c0-.36-0.23-0.69-1.91-0.74-0.33,0-.33-0.1-0.33-0.36s0.1-.3.2-0.3c0.25,0,2.31.1,3.18,0.1,1.53,0,3-.1,3.46-0.1,0.15,0,.18.2,0.18,0.38a0.34,0.34,0,0,1-.28.36,3.45,3.45,0,0,0-1.63.3c-0.23.23-.43,0.69-0.86,2.54-1.25,5.39-1.91,8.18-1.91,9.81C3.15,43.71,6.21,44,7.35,44c2.52,0,5.31-1.4,6.56-6.08,1.7-6.4,1.91-7.85,1.91-8.95s-0.64-1.14-1.32-1.32a6.9,6.9,0,0,0-1.19-.18,0.38,0.38,0,0,1-.15-0.3,0.37,0.37,0,0,1,.33-0.38c0.28,0,2,.1,2.47.1,0.84,0,3.15-.1,3.63-0.1,0.1,0,.18.13,0.18,0.33a0.35,0.35,0,0,1-.23.28l-0.89.13c-0.51.08-1.32,0.38-1.81,2C16,32.23,15,38.3,13.65,41c-1.45,2.92-3.71,4.12-7.09,4.12-3.23,0-5.82-1.6-5.82-4.91C0.74,38.28,1.73,35,2.7,30.24Z" transform="translate(-0.74 -0.2)"/><path class="4eb932a0-b9bf-4ff4-b829-6d90edc1ccd0" d="M24.22,44.93c-0.15,0-.18-0.05-0.18-0.2,0-.94,3.35-8.13,3.35-9.46a0.67,0.67,0,0,0-.66-0.74c-1.68,0-2.92,2.82-5.36,7-0.13.23-.43,1-1.37,3.18a0.28,0.28,0,0,1-.28.23h-1.5a0.17,0.17,0,0,1-.2-0.2c0-.41,3.46-9.2,3.46-9.94a0.25,0.25,0,0,0-.2-0.3c-2,0-3.05,2.54-3.05,3.07a0.24,0.24,0,0,1-.23.13,0.21,0.21,0,0,1-.23-0.23c0-.61.84-3.71,3.58-3.71h1.88a0.21,0.21,0,0,1,.25.23c0,0.3-1.88,4.91-1.88,5.72,0,0.13,0,.18.08,0.18s0.18-.13.69-1c2.74-5,3.51-5.29,5-5.29,0.71,0,2,.1,2,1.27,0,2.08-3.1,7.93-3.1,8.92a0.3,0.3,0,0,0,.25.2c1.2,0,2.57-2.67,2.85-2.67a0.34,0.34,0,0,1,.25.23c0,0.33-2,3.43-4.07,3.43H24.22Z" transform="translate(-0.74 -0.2)"/><path class="4eb932a0-b9bf-4ff4-b829-6d90edc1ccd0" d="M32,36.85a0.3,0.3,0,0,1-.18-0.28c0-.25,2.24-3,4.14-3a0.73,0.73,0,0,1,.79.74c0,1.07-3.23,8.57-3.23,9,0,0.18.05,0.3,0.18,0.3,0.61,0,2.36-1.83,2.49-1.83a0.22,0.22,0,0,1,.28.25c0,0.13-2.69,3.36-4.47,3.23a0.79,0.79,0,0,1-.74-1c0-.71,3.35-8.67,3.35-8.79s0-.38-0.2-0.38c-0.66,0-1.6,1.12-2.21,1.68A0.49,0.49,0,0,1,32,36.85Zm4.63-9.46a1.22,1.22,0,1,1-1.22,1.22A1.2,1.2,0,0,1,36.63,27.4Z" transform="translate(-0.74 -0.2)"/><path class="4eb932a0-b9bf-4ff4-b829-6d90edc1ccd0" d="M43.16,33.65a2,2,0,0,0,.36-0.05A2.51,2.51,0,0,1,44,33.55a0.3,0.3,0,0,1,.28.28c0,1.19-2.87,4.14-2.87,7.45,0,1.07.41,2.44,1.73,2.44,2.74,0,4.8-4.8,4.8-7.12,0-1-1.22-1-1.22-1.93a1.21,1.21,0,0,1,1.14-1.32c1.09,0,1.3.74,1.3,1.73,0,2.39-2.62,10.17-7.19,10.17-0.56,0-2.34-.3-2.34-2.74,0-2.92,3.35-6.86,3.35-7.14,0-.13,0-0.18-0.46-0.18H39.83c-0.66,0-1,1-1.22,1.63a0.25,0.25,0,0,1-.3.23,0.31,0.31,0,0,1-.28-0.2c0-.3.84-3.18,1.25-3.18h3.89Z" transform="translate(-0.74 -0.2)"/><path class="4eb932a0-b9bf-4ff4-b829-6d90edc1ccd0" d="M58.49,35.5c0,1.22-1.07,3.2-5.85,4.12a13.65,13.65,0,0,0-.31,2.08c0,1.07.38,2.14,1.63,2.14,1.4,0,2.59-1.93,2.77-1.93a0.3,0.3,0,0,1,.3.33c0,0.2-2,3-4.14,3-1.93,0-2.44-1.55-2.44-3.2,0-4.8,3.13-8.29,5.92-8.29C57.57,33.75,58.49,34.26,58.49,35.5Zm-1.73,0a1,1,0,0,0-.81-1.07c-1.37,0-2.49,1.88-3.23,4.58C55.89,38.61,56.76,36.39,56.76,35.48Z" transform="translate(-0.74 -0.2)"/><path class="4eb932a0-b9bf-4ff4-b829-6d90edc1ccd0" d="M59.81,44.93a0.17,0.17,0,0,1-.18-0.15c0-.48,3.46-10,3.46-10.17s-0.13-.3-0.51-0.3c-1.47,0-2.54,3.51-2.82,3.51s-0.28-.05-0.28-0.18a3.79,3.79,0,0,1,3.76-4h1.3c0.28,0,.43.1,0.43,0.2s-2.06,6-2.06,6.28a0.17,0.17,0,0,0,.13.18c0.18,0,.43-0.58,1.14-1.83,2-3.46,3.15-4.93,4.65-4.93a1.28,1.28,0,0,1,1.35,1.3,1.32,1.32,0,0,1-1.32,1.3c-1.25,0-1.17-.81-1.78-0.81A2.88,2.88,0,0,0,66,36.45c-2.77,4.45-3.13,5-4.47,8.24a0.32,0.32,0,0,1-.3.25h-1.4Z" transform="translate(-0.74 -0.2)"/><path class="4eb932a0-b9bf-4ff4-b829-6d90edc1ccd0" d="M69.19,42.72c1.3,0,1.09,1.68,2.39,1.68A1.67,1.67,0,0,0,73,42.77a10.36,10.36,0,0,0-1.17-3.2,6.73,6.73,0,0,1-1-2.82c0-2,1.86-3.1,3.69-3.1,1.19,0,2.47.38,2.47,1.55a1.07,1.07,0,0,1-1.09,1c-1.17,0-1.07-1.78-2.26-1.78a1.24,1.24,0,0,0-1.32,1.25,8.66,8.66,0,0,0,1.12,2.85,7.88,7.88,0,0,1,1.14,3.35c0,2-2.57,3.41-4.32,3.41a1.72,1.72,0,0,1-2-1.58A1,1,0,0,1,69.19,42.72Z" transform="translate(-0.74 -0.2)"/><path class="4eb932a0-b9bf-4ff4-b829-6d90edc1ccd0" d="M78,36.85a0.3,0.3,0,0,1-.18-0.28c0-.25,2.24-3,4.14-3a0.73,0.73,0,0,1,.79.74c0,1.07-3.23,8.57-3.23,9,0,0.18.05,0.3,0.18,0.3,0.61,0,2.36-1.83,2.49-1.83a0.22,0.22,0,0,1,.28.25c0,0.13-2.69,3.36-4.47,3.23a0.79,0.79,0,0,1-.74-1c0-.71,3.35-8.67,3.35-8.79s0-.38-0.2-0.38c-0.66,0-1.6,1.12-2.21,1.68A0.49,0.49,0,0,1,78,36.85Zm4.63-9.46a1.22,1.22,0,1,1-1.22,1.22A1.2,1.2,0,0,1,82.58,27.4Z" transform="translate(-0.74 -0.2)"/><path class="4eb932a0-b9bf-4ff4-b829-6d90edc1ccd0" d="M84.95,35.35c-0.23,0-.3-0.05-0.3-0.18a1.19,1.19,0,0,1,.61-0.89h2a0.42,0.42,0,0,0,.28-0.05,20.66,20.66,0,0,0,.89-2.62,0.29,0.29,0,0,1,.3-0.18h1.17a0.19,0.19,0,0,1,.23.23c0,0.13-.69,2.13-0.69,2.41a0.22,0.22,0,0,0,.25.2h2.19c0.18,0,.25.05,0.25,0.3a1.15,1.15,0,0,1-.51.84c-0.43,0-.84,0-1.22-0.05l-1.14,0a1.12,1.12,0,0,0-.51.92c-0.2.71-2.19,7.42-2.19,7.5a0.36,0.36,0,0,0,.36.43c1,0,3.36-2.41,3.48-2.41a0.2,0.2,0,0,1,.23.2c0,0.38-2.64,3.25-5.26,3.25a0.81,0.81,0,0,1-.84-0.94c0-.36,2.57-8.46,2.57-8.77,0-.13-0.13-0.18-0.38-0.18H84.95Z" transform="translate(-0.74 -0.2)"/><path class="4eb932a0-b9bf-4ff4-b829-6d90edc1ccd0" d="M99.92,34.21a0.43,0.43,0,0,1,.43-0.46,1.13,1.13,0,0,1,1.22.79c0,1-3.1,9.15-6,13.4C94,50.22,92.77,51.8,90,51.8c-0.89,0-1.5-.25-1.5-1.12a1.12,1.12,0,0,1,1.07-1c1,0,.91,1,2.49,1,0.86,0,3.51-2.34,3.51-7.37,0-1.63-.56-7.93-1.83-7.88s-1.12,2.9-1.52,2.9-0.36-.18-0.36-0.56c0-1,1-4,2.85-4,2.26,0,2.57,8.16,2.57,8.79a4.69,4.69,0,0,0,0,1.25,10.09,10.09,0,0,0,1.17-2.59A33.66,33.66,0,0,0,99.92,34.21Z" transform="translate(-0.74 -0.2)"/><path class="4eb932a0-b9bf-4ff4-b829-6d90edc1ccd0" d="M112.09,45.24c-2.21,0-2.9-2.39-2.9-3.86,0-3.51,2.24-7.73,5.24-7.73,2,0,3.07,1.53,3.07,3.86C117.5,40.89,115.34,45.24,112.09,45.24Zm2.41-10.93c-1.65,0-3.66,5.21-3.66,7.57,0,0.94-.05,2.69,1.37,2.69s3.63-5,3.63-7.57C115.85,35.12,115.55,34.31,114.51,34.31Z" transform="translate(-0.74 -0.2)"/><path class="4eb932a0-b9bf-4ff4-b829-6d90edc1ccd0" d="M119.23,35.25c-0.15,0-.23-0.05-0.23-0.1a0.86,0.86,0,0,1,.25-0.66c2.54-.2,2.62-0.2,2.77-0.64A32.06,32.06,0,0,1,123.27,30,6.42,6.42,0,0,1,129,26.2c0.74,0,2.16.38,2.16,1.32a1.11,1.11,0,0,1-1.14,1.3c-1.68,0-1-1.78-2.34-1.78-0.53,0-2.19,0-3.3,5.49-0.13.64-.38,1.42-0.38,1.63s0.1,0.13.18,0.13h2.72c0.15,0,.2,0,0.2.15a1.43,1.43,0,0,1-.28.81H124c-0.28,0-.38.18-0.46,0.53-2.52,11.44-3.15,13.39-4.8,14.79a4.72,4.72,0,0,1-2.95,1.22c-0.76,0-1.6-.2-1.6-1.12a1,1,0,0,1,1-.92c0.94,0,1.52.92,2.19,0.92,0.46,0,1-.43,1.55-2.85,2-8.82,2.74-12,2.74-12.33a0.25,0.25,0,0,0-.23-0.25h-2.21Z" transform="translate(-0.74 -0.2)"/><path class="4eb932a0-b9bf-4ff4-b829-6d90edc1ccd0" d="M135.4,43.16c0,1,.43,1,1.68,1.14a0.58,0.58,0,0,1,.51.15c0,0.2,0,.53-0.28.53s-0.48-.05-3.51-0.05c-1.5,0-1.7.05-2,.05-0.13,0-.13-0.1-0.13-0.23a0.37,0.37,0,0,1,.25-0.41,4.36,4.36,0,0,0,1.45-.3c0.56-.23,1.22-1.35,1.73-3.28,1-3.64,2.9-9.63,3.25-10.88,0.05-.18.41-1.25,0.41-1.4A0.79,0.79,0,0,0,138,27.8l-2-.38a0.27,0.27,0,0,1-.25-0.33,0.25,0.25,0,0,1,.28-0.28c0.3,0,1.86.1,2.64,0.1,0.38,0,2.16-.1,2.54-0.1a0.34,0.34,0,0,1,.36.25c1,5.18,1.5,10.65,1.7,12.45,0.13,1.19.2,1.32,0.3,1.32a0.67,0.67,0,0,0,.36-0.3c1.86-2.59,7.47-11.29,9.07-13.34a0.7,0.7,0,0,1,.51-0.38c0.15,0,1.65.1,2,.1s1.63-.1,2.36-0.1c0.15,0,.15.08,0.15,0.28s-0.05.41-.25,0.43a10.63,10.63,0,0,0-1.53.25c-0.61.18-.86,1-1,1.8-1.6,7.9-2.85,12.68-2.85,13.65a0.87,0.87,0,0,0,1,.94l1.27,0.15c0.13,0,.2,0,0.2.25a0.46,0.46,0,0,1-.28.41c-0.3,0-.46-0.05-2.34-0.05-3.43,0-4.09.05-4.52,0.05-0.23,0-.28-0.1-0.28-0.23,0-.31.05-0.36,0.53-0.43l1.17-.18a0.86,0.86,0,0,0,.74-0.66c1.19-4.45,2.36-10.85,3.35-14.26a6.07,6.07,0,0,0,.15-0.84,0.11,0.11,0,0,0-.13-0.13,7.92,7.92,0,0,0-.94,1.12c-3.76,5.34-7.7,11.59-10,15.25a1,1,0,0,1-.53.56c-0.08,0-.2-0.05-0.3-1-0.69-7.27-1.63-14.08-1.86-14.74a0.22,0.22,0,0,0-.2-0.2c-0.13,0-.2.1-1.09,2.85C135.88,39.8,135.4,42.77,135.4,43.16Z" transform="translate(-0.74 -0.2)"/><path class="4eb932a0-b9bf-4ff4-b829-6d90edc1ccd0" d="M157.94,36.85a0.3,0.3,0,0,1-.18-0.28c0-.25,2.24-3,4.14-3a0.73,0.73,0,0,1,.79.74c0,1.07-3.23,8.57-3.23,9,0,0.18.05,0.3,0.18,0.3,0.61,0,2.36-1.83,2.49-1.83a0.22,0.22,0,0,1,.28.25c0,0.13-2.69,3.36-4.47,3.23a0.79,0.79,0,0,1-.74-1c0-.71,3.35-8.67,3.35-8.79s0-.38-0.2-0.38c-0.66,0-1.6,1.12-2.21,1.68A0.49,0.49,0,0,1,157.94,36.85Zm4.63-9.46a1.22,1.22,0,1,1-1.22,1.22A1.2,1.2,0,0,1,162.57,27.4Z" transform="translate(-0.74 -0.2)"/><path class="4eb932a0-b9bf-4ff4-b829-6d90edc1ccd0" d="M163.76,42.72c1.3,0,1.09,1.68,2.39,1.68a1.67,1.67,0,0,0,1.4-1.63,10.35,10.35,0,0,0-1.17-3.2,6.73,6.73,0,0,1-1-2.82c0-2,1.86-3.1,3.69-3.1,1.19,0,2.47.38,2.47,1.55a1.07,1.07,0,0,1-1.09,1c-1.17,0-1.07-1.78-2.26-1.78a1.24,1.24,0,0,0-1.32,1.25A8.66,8.66,0,0,0,168,38.48a7.88,7.88,0,0,1,1.14,3.35c0,2-2.57,3.41-4.32,3.41a1.72,1.72,0,0,1-2-1.58A1,1,0,0,1,163.76,42.72Z" transform="translate(-0.74 -0.2)"/><path class="4eb932a0-b9bf-4ff4-b829-6d90edc1ccd0" d="M171.29,42.72c1.3,0,1.09,1.68,2.39,1.68a1.67,1.67,0,0,0,1.4-1.63,10.36,10.36,0,0,0-1.17-3.2,6.74,6.74,0,0,1-1-2.82c0-2,1.86-3.1,3.69-3.1,1.19,0,2.47.38,2.47,1.55a1.07,1.07,0,0,1-1.09,1c-1.17,0-1.07-1.78-2.26-1.78a1.24,1.24,0,0,0-1.32,1.25,8.66,8.66,0,0,0,1.12,2.85,7.88,7.88,0,0,1,1.14,3.35c0,2-2.57,3.41-4.32,3.41a1.72,1.72,0,0,1-2-1.58A1,1,0,0,1,171.29,42.72Z" transform="translate(-0.74 -0.2)"/><path class="4eb932a0-b9bf-4ff4-b829-6d90edc1ccd0" d="M182.19,45.24c-2.21,0-2.9-2.39-2.9-3.86,0-3.51,2.24-7.73,5.24-7.73,2,0,3.07,1.53,3.07,3.86C187.6,40.89,185.44,45.24,182.19,45.24Zm2.41-10.93c-1.65,0-3.66,5.21-3.66,7.57,0,0.94-.05,2.69,1.37,2.69S186,39.6,186,37C186,35.12,185.65,34.31,184.6,34.31Z" transform="translate(-0.74 -0.2)"/><path class="4eb932a0-b9bf-4ff4-b829-6d90edc1ccd0" d="M195.84,44.93a0.27,0.27,0,0,1-.33-0.25c0-.46,1.42-4.6,1.42-4.88a0.13,0.13,0,0,0-.08-0.15c-0.1,0-2.36,3.43-3.89,4.73a3.43,3.43,0,0,1-2.31.86c-0.61,0-1.07-.41-1.07-1.53s3.33-8.49,3.33-9.35a0.31,0.31,0,0,0-.3-0.28,4.88,4.88,0,0,0-3.1,3.48c0,0.1-.1.1-0.23,0.1a0.25,0.25,0,0,1-.2-0.3,5.59,5.59,0,0,1,2.11-3.25,6.07,6.07,0,0,1,3.56-.76,0.43,0.43,0,0,1,.46.43c0,0.48-3.63,8.46-3.63,9.63a0.5,0.5,0,0,0,.48.51c0.86,0,1.75-.84,3.69-3.56a13.73,13.73,0,0,0,1.78-2.92c1.17-3.18,1.12-3.89,1.5-3.89h1.5a0.3,0.3,0,0,1,.33.18c0,0.43-3.2,9.23-3.2,9.79a0.29,0.29,0,0,0,.2.33c1.17,0,2.74-2.92,2.85-2.92s0.36,0,.36.2c0,0.51-2,3.81-4.19,3.81h-1Z" transform="translate(-0.74 -0.2)"/><path class="4eb932a0-b9bf-4ff4-b829-6d90edc1ccd0" d="M202.55,44.93a0.17,0.17,0,0,1-.18-0.15c0-.48,3.46-10,3.46-10.17s-0.13-.3-0.51-0.3c-1.47,0-2.54,3.51-2.82,3.51s-0.28-.05-0.28-0.18a3.79,3.79,0,0,1,3.76-4h1.3c0.28,0,.43.1,0.43,0.2s-2.06,6-2.06,6.28a0.17,0.17,0,0,0,.13.18c0.18,0,.43-0.58,1.14-1.83,2-3.46,3.15-4.93,4.65-4.93a1.28,1.28,0,0,1,1.35,1.3,1.32,1.32,0,0,1-1.32,1.3c-1.25,0-1.17-.81-1.78-0.81a2.88,2.88,0,0,0-1.09,1.12c-2.77,4.45-3.13,5-4.47,8.24a0.32,0.32,0,0,1-.3.25h-1.4Z" transform="translate(-0.74 -0.2)"/><path class="4eb932a0-b9bf-4ff4-b829-6d90edc1ccd0" d="M213.48,36.85a0.3,0.3,0,0,1-.18-0.28c0-.25,2.24-3,4.14-3a0.73,0.73,0,0,1,.79.74c0,1.07-3.23,8.57-3.23,9,0,0.18.05,0.3,0.18,0.3,0.61,0,2.36-1.83,2.49-1.83a0.22,0.22,0,0,1,.28.25c0,0.13-2.69,3.36-4.47,3.23a0.79,0.79,0,0,1-.74-1c0-.71,3.35-8.67,3.35-8.79s0-.38-0.2-0.38c-0.66,0-1.6,1.12-2.21,1.68A0.49,0.49,0,0,1,213.48,36.85Zm4.63-9.46a1.22,1.22,0,1,1-1.22,1.22A1.2,1.2,0,0,1,218.1,27.4Z" transform="translate(-0.74 -0.2)"/><path class="4eb932a0-b9bf-4ff4-b829-6d90edc1ccd0" d="M240.88,35c0.38,0,.38-0.05.48-0.48a60.67,60.67,0,0,0,1.47-6.18c0-.28,0-0.81-1.68-0.81-0.61,0-.64-0.23-0.64-0.36a0.34,0.34,0,0,1,.3-0.38c0.3,0,1,.1,3.28.1a30.88,30.88,0,0,0,3.18-.1c0.23,0,.28,0,0.28.15,0,0.3,0,.58-1,0.58-0.76,0-1.17.25-1.45,1.35-3.18,12.43-3.46,13.85-3.46,14.56s0.53,0.86,2.13.86c0.23,0,.25.08,0.25,0.18,0,0.25-.05.48-0.36,0.48s-0.36-.05-2.9-0.05c-3.25,0-3.71.05-3.92,0.05a0.2,0.2,0,0,1-.2-0.23,0.38,0.38,0,0,1,.23-0.43c1.88,0,2.08-.33,2.44-1.78,1.4-5.74,1.63-6.41,1.63-6.48s-0.25-.2-0.51-0.2h-8a0.4,0.4,0,0,0-.46.38c-1.35,5.87-1.58,7-1.58,7.22,0,0.51.36,0.86,2.19,0.86,0.15,0,.25.05,0.25,0.33s-0.05.33-.36,0.33-0.71-.05-3.61-0.05c-2.31,0-2.82.05-3.18,0.05-0.2,0-.25,0-0.25-0.2,0-.38.08-0.41,0.61-0.46,1.47-.13,1.63-0.13,2-1.6,2.77-11.13,3.43-13.24,3.43-14.31,0-.71-0.46-0.86-1.73-0.86-0.46,0-.54-0.13-0.54-0.3a0.47,0.47,0,0,1,.25-0.43c0.48,0,2.11.1,3.43,0.1s2.77-.1,3.13-0.1c0.15,0,.2,0,0.2.38a0.29,0.29,0,0,1-.36.36c-1,0-1.68.18-2,1.17s-1.55,5.64-1.55,6.1c0,0.2.18,0.2,0.36,0.2h8.13Z" transform="translate(-0.74 -0.2)"/><path class="4eb932a0-b9bf-4ff4-b829-6d90edc1ccd0" d="M254.86,35.5c0,1.22-1.07,3.2-5.85,4.12a13.9,13.9,0,0,0-.3,2.08c0,1.07.38,2.14,1.63,2.14,1.4,0,2.59-1.93,2.77-1.93a0.3,0.3,0,0,1,.3.33c0,0.2-2,3-4.14,3-1.93,0-2.44-1.55-2.44-3.2,0-4.8,3.13-8.29,5.92-8.29C253.94,33.75,254.86,34.26,254.86,35.5Zm-1.73,0a1,1,0,0,0-.81-1.07c-1.37,0-2.49,1.88-3.23,4.58C252.26,38.61,253.13,36.39,253.13,35.48Z" transform="translate(-0.74 -0.2)"/><path class="4eb932a0-b9bf-4ff4-b829-6d90edc1ccd0" d="M266.39,33.34a0.12,0.12,0,0,1,.15.15c0,0.56-3.58,8.85-3.58,9.71a0.27,0.27,0,0,0,.25.33c0.74,0,2.49-2.72,2.8-2.72a0.25,0.25,0,0,1,.23.2c0,0.2-2.87,4.22-4.65,4.22a0.66,0.66,0,0,1-.79-0.58,40.36,40.36,0,0,1,1.6-4.5,0.1,0.1,0,0,0-.1-0.13,5.59,5.59,0,0,0-1,1.37c-1.3,1.73-3.07,3.84-5,3.84a1,1,0,0,1-1-1.27c0-2,2.39-6.86,4.68-9a4,4,0,0,1,3.1-1.32,1.37,1.37,0,0,1,1.14.36,1.66,1.66,0,0,0,.3.36c0.2,0,.33-1,0.64-1h1.22Zm-2.69,1.88c0-.53-0.15-0.92-1-0.92-2.57,0-5.16,7-5.16,8.87,0,0.41.15,0.64,0.38,0.64C259.61,43.82,263.7,37.36,263.7,35.23Z" transform="translate(-0.74 -0.2)"/><path class="4eb932a0-b9bf-4ff4-b829-6d90edc1ccd0" d="M272.49,28.41c0-.66-0.36-0.69-0.86-0.69s-0.79,0-.79-0.38,0.3-.38.79-0.43c1.55-.15,2.67-0.36,2.85-0.36s0.38,0,.38.23c0,1-5,15.1-5,15.66a0.38,0.38,0,0,0,.43.43c0.56,0,2.41-2.39,2.72-2.39,0.13,0,.23.1,0.23,0.33s-3.41,4.42-5.06,4.42a0.8,0.8,0,0,1-.86-0.86C267.34,43.66,272.49,28.67,272.49,28.41Z" transform="translate(-0.74 -0.2)"/><path class="4eb932a0-b9bf-4ff4-b829-6d90edc1ccd0" d="M275,35.35c-0.23,0-.3-0.05-0.3-0.18a1.19,1.19,0,0,1,.61-0.89h2a0.42,0.42,0,0,0,.28-0.05,20.4,20.4,0,0,0,.89-2.62,0.29,0.29,0,0,1,.3-0.18H280a0.19,0.19,0,0,1,.23.23c0,0.13-.69,2.13-0.69,2.41a0.22,0.22,0,0,0,.25.2H282c0.18,0,.25.05,0.25,0.3a1.15,1.15,0,0,1-.51.84c-0.43,0-.84,0-1.22-0.05l-1.14,0a1.12,1.12,0,0,0-.51.92c-0.2.71-2.19,7.42-2.19,7.5a0.36,0.36,0,0,0,.36.43c1,0,3.36-2.41,3.48-2.41a0.19,0.19,0,0,1,.23.2c0,0.38-2.64,3.25-5.26,3.25a0.81,0.81,0,0,1-.84-0.94c0-.36,2.57-8.46,2.57-8.77,0-.13-0.13-0.18-0.38-0.18H275Z" transform="translate(-0.74 -0.2)"/><path class="4eb932a0-b9bf-4ff4-b829-6d90edc1ccd0" d="M282.46,44.93a0.32,0.32,0,0,1-.33-0.38c0-.25,4.9-16,4.9-16.14,0-.66-0.36-0.69-0.86-0.69s-0.79,0-.79-0.38,0.3-.38.79-0.43c1.55-.15,2.67-0.36,2.85-0.36s0.38,0,.38.23-3.15,10.78-3.15,10.93a0.09,0.09,0,0,0,.08.1,0.51,0.51,0,0,0,.23-0.28c2.14-2.95,4-3.79,5-3.79a1.56,1.56,0,0,1,1.68,1.7c0,3.38-3.18,9.79-6,9.79a0.93,0.93,0,0,1-1.07-1A1.22,1.22,0,0,1,287.24,43c0.86,0,.61.94,1.27,0.94,1.3,0,2.75-6,2.75-7.14,0-.92-0.36-1.5-1.12-1.5s-2.24,1.14-4,3.74c-1.12,1.68-1.17,2.77-2.16,5.57a0.38,0.38,0,0,1-.3.36h-1.25Z" transform="translate(-0.74 -0.2)"/><path class="50449f3e-04c7-496a-8baf-80bd7c83b006" d="M2.7,56.24a10.55,10.55,0,0,0,.36-2c0-.36-0.23-0.69-1.91-0.74-0.33,0-.33-0.1-0.33-0.36s0.1-.3.2-0.3c0.25,0,2.31.1,3.18,0.1,1.53,0,3-.1,3.46-0.1,0.15,0,.18.2,0.18,0.38a0.34,0.34,0,0,1-.28.36,3.45,3.45,0,0,0-1.63.3c-0.23.23-.43,0.69-0.86,2.54-1.25,5.39-1.91,8.18-1.91,9.81C3.15,69.71,6.21,70,7.35,70c2.52,0,5.31-1.4,6.56-6.08,1.7-6.4,1.91-7.85,1.91-8.95s-0.64-1.14-1.32-1.32a6.9,6.9,0,0,0-1.19-.18,0.38,0.38,0,0,1-.15-0.3,0.37,0.37,0,0,1,.33-0.38c0.28,0,2,.1,2.47.1,0.84,0,3.15-.1,3.63-0.1,0.1,0,.18.13,0.18,0.33a0.35,0.35,0,0,1-.23.28l-0.89.13c-0.51.08-1.32,0.38-1.81,2C16,58.23,15,64.3,13.65,67c-1.45,2.92-3.71,4.12-7.09,4.12-3.23,0-5.82-1.6-5.82-4.91C0.74,64.28,1.73,61,2.7,56.24Z" transform="translate(-0.74 -0.2)"/><path class="50449f3e-04c7-496a-8baf-80bd7c83b006" d="M24.22,70.93c-0.15,0-.18-0.05-0.18-0.2,0-.94,3.35-8.13,3.35-9.46a0.67,0.67,0,0,0-.66-0.74c-1.68,0-2.92,2.82-5.36,7-0.13.23-.43,1-1.37,3.18a0.28,0.28,0,0,1-.28.23h-1.5a0.17,0.17,0,0,1-.2-0.2c0-.41,3.46-9.2,3.46-9.94a0.25,0.25,0,0,0-.2-0.3c-2,0-3.05,2.54-3.05,3.07a0.24,0.24,0,0,1-.23.13,0.21,0.21,0,0,1-.23-0.23c0-.61.84-3.71,3.58-3.71h1.88a0.21,0.21,0,0,1,.25.23c0,0.3-1.88,4.91-1.88,5.72,0,0.13,0,.18.08,0.18s0.18-.13.69-1c2.74-5,3.51-5.29,5-5.29,0.71,0,2,.1,2,1.27,0,2.08-3.1,7.93-3.1,8.92a0.3,0.3,0,0,0,.25.2c1.2,0,2.57-2.67,2.85-2.67a0.34,0.34,0,0,1,.25.23c0,0.33-2,3.43-4.07,3.43H24.22Z" transform="translate(-0.74 -0.2)"/><path class="50449f3e-04c7-496a-8baf-80bd7c83b006" d="M32,62.85a0.3,0.3,0,0,1-.18-0.28c0-.25,2.24-3,4.14-3a0.73,0.73,0,0,1,.79.74c0,1.07-3.23,8.57-3.23,9,0,0.18.05,0.3,0.18,0.3,0.61,0,2.36-1.83,2.49-1.83a0.22,0.22,0,0,1,.28.25c0,0.13-2.69,3.36-4.47,3.23a0.79,0.79,0,0,1-.74-1c0-.71,3.35-8.67,3.35-8.79s0-.38-0.2-0.38c-0.66,0-1.6,1.12-2.21,1.68A0.49,0.49,0,0,1,32,62.85Zm4.63-9.46a1.22,1.22,0,1,1-1.22,1.22A1.2,1.2,0,0,1,36.63,53.4Z" transform="translate(-0.74 -0.2)"/><path class="50449f3e-04c7-496a-8baf-80bd7c83b006" d="M43.16,59.65a2,2,0,0,0,.36-0.05A2.51,2.51,0,0,1,44,59.55a0.3,0.3,0,0,1,.28.28c0,1.19-2.87,4.14-2.87,7.45,0,1.07.41,2.44,1.73,2.44,2.74,0,4.8-4.8,4.8-7.12,0-1-1.22-1-1.22-1.93a1.21,1.21,0,0,1,1.14-1.32c1.09,0,1.3.74,1.3,1.73,0,2.39-2.62,10.17-7.19,10.17-0.56,0-2.34-.3-2.34-2.74,0-2.92,3.35-6.86,3.35-7.14,0-.13,0-0.18-0.46-0.18H39.83c-0.66,0-1,1-1.22,1.63a0.25,0.25,0,0,1-.3.23,0.31,0.31,0,0,1-.28-0.2c0-.3.84-3.18,1.25-3.18h3.89Z" transform="translate(-0.74 -0.2)"/><path class="50449f3e-04c7-496a-8baf-80bd7c83b006" d="M58.49,61.5c0,1.22-1.07,3.2-5.85,4.12a13.65,13.65,0,0,0-.31,2.08c0,1.07.38,2.14,1.63,2.14,1.4,0,2.59-1.93,2.77-1.93a0.3,0.3,0,0,1,.3.33c0,0.2-2,3-4.14,3-1.93,0-2.44-1.55-2.44-3.2,0-4.8,3.13-8.29,5.92-8.29C57.57,59.75,58.49,60.26,58.49,61.5Zm-1.73,0a1,1,0,0,0-.81-1.07c-1.37,0-2.49,1.88-3.23,4.58C55.89,64.61,56.76,62.39,56.76,61.48Z" transform="translate(-0.74 -0.2)"/><path class="50449f3e-04c7-496a-8baf-80bd7c83b006" d="M59.81,70.93a0.17,0.17,0,0,1-.18-0.15c0-.48,3.46-10,3.46-10.17s-0.13-.3-0.51-0.3c-1.47,0-2.54,3.51-2.82,3.51s-0.28-.05-0.28-0.18a3.79,3.79,0,0,1,3.76-4h1.3c0.28,0,.43.1,0.43,0.2s-2.06,6-2.06,6.28a0.17,0.17,0,0,0,.13.18c0.18,0,.43-0.58,1.14-1.83,2-3.46,3.15-4.93,4.65-4.93a1.28,1.28,0,0,1,1.35,1.3,1.32,1.32,0,0,1-1.32,1.3c-1.25,0-1.17-.81-1.78-0.81A2.88,2.88,0,0,0,66,62.45c-2.77,4.45-3.13,5-4.47,8.24a0.32,0.32,0,0,1-.3.25h-1.4Z" transform="translate(-0.74 -0.2)"/><path class="50449f3e-04c7-496a-8baf-80bd7c83b006" d="M69.19,68.72c1.3,0,1.09,1.68,2.39,1.68A1.67,1.67,0,0,0,73,68.77a10.36,10.36,0,0,0-1.17-3.2,6.73,6.73,0,0,1-1-2.82c0-2,1.86-3.1,3.69-3.1,1.19,0,2.47.38,2.47,1.55a1.07,1.07,0,0,1-1.09,1c-1.17,0-1.07-1.78-2.26-1.78a1.24,1.24,0,0,0-1.32,1.25,8.66,8.66,0,0,0,1.12,2.85,7.88,7.88,0,0,1,1.14,3.35c0,2-2.57,3.41-4.32,3.41a1.72,1.72,0,0,1-2-1.58A1,1,0,0,1,69.19,68.72Z" transform="translate(-0.74 -0.2)"/><path class="50449f3e-04c7-496a-8baf-80bd7c83b006" d="M78,62.85a0.3,0.3,0,0,1-.18-0.28c0-.25,2.24-3,4.14-3a0.73,0.73,0,0,1,.79.74c0,1.07-3.23,8.57-3.23,9,0,0.18.05,0.3,0.18,0.3,0.61,0,2.36-1.83,2.49-1.83a0.22,0.22,0,0,1,.28.25c0,0.13-2.69,3.36-4.47,3.23a0.79,0.79,0,0,1-.74-1c0-.71,3.35-8.67,3.35-8.79s0-.38-0.2-0.38c-0.66,0-1.6,1.12-2.21,1.68A0.49,0.49,0,0,1,78,62.85Zm4.63-9.46a1.22,1.22,0,1,1-1.22,1.22A1.2,1.2,0,0,1,82.58,53.4Z" transform="translate(-0.74 -0.2)"/><path class="50449f3e-04c7-496a-8baf-80bd7c83b006" d="M84.95,61.35c-0.23,0-.3-0.05-0.3-0.18a1.19,1.19,0,0,1,.61-0.89h2a0.42,0.42,0,0,0,.28-0.05,20.66,20.66,0,0,0,.89-2.62,0.29,0.29,0,0,1,.3-0.18h1.17a0.19,0.19,0,0,1,.23.23c0,0.13-.69,2.13-0.69,2.41a0.22,0.22,0,0,0,.25.2h2.19c0.18,0,.25.05,0.25,0.3a1.15,1.15,0,0,1-.51.84c-0.43,0-.84,0-1.22-0.05l-1.14,0a1.12,1.12,0,0,0-.51.92c-0.2.71-2.19,7.42-2.19,7.5a0.36,0.36,0,0,0,.36.43c1,0,3.36-2.41,3.48-2.41a0.2,0.2,0,0,1,.23.2c0,0.38-2.64,3.25-5.26,3.25a0.81,0.81,0,0,1-.84-0.94c0-.36,2.57-8.46,2.57-8.77,0-.13-0.13-0.18-0.38-0.18H84.95Z" transform="translate(-0.74 -0.2)"/><path class="50449f3e-04c7-496a-8baf-80bd7c83b006" d="M99.92,60.21a0.43,0.43,0,0,1,.43-0.46,1.13,1.13,0,0,1,1.22.79c0,1-3.1,9.15-6,13.4C94,76.22,92.77,77.8,90,77.8c-0.89,0-1.5-.25-1.5-1.12a1.12,1.12,0,0,1,1.07-1c1,0,.91,1,2.49,1,0.86,0,3.51-2.34,3.51-7.37,0-1.63-.56-7.93-1.83-7.88s-1.12,2.9-1.52,2.9-0.36-.18-0.36-0.56c0-1,1-4,2.85-4,2.26,0,2.57,8.16,2.57,8.79a4.69,4.69,0,0,0,0,1.25,10.09,10.09,0,0,0,1.17-2.59A33.66,33.66,0,0,0,99.92,60.21Z" transform="translate(-0.74 -0.2)"/><path class="50449f3e-04c7-496a-8baf-80bd7c83b006" d="M112.09,71.24c-2.21,0-2.9-2.39-2.9-3.86,0-3.51,2.24-7.73,5.24-7.73,2,0,3.07,1.53,3.07,3.86C117.5,66.89,115.34,71.24,112.09,71.24Zm2.41-10.93c-1.65,0-3.66,5.21-3.66,7.57,0,0.94-.05,2.69,1.37,2.69s3.63-5,3.63-7.57C115.85,61.12,115.55,60.31,114.51,60.31Z" transform="translate(-0.74 -0.2)"/><path class="50449f3e-04c7-496a-8baf-80bd7c83b006" d="M119.23,61.25c-0.15,0-.23-0.05-0.23-0.1a0.86,0.86,0,0,1,.25-0.66c2.54-.2,2.62-0.2,2.77-0.64A32.06,32.06,0,0,1,123.27,56,6.42,6.42,0,0,1,129,52.2c0.74,0,2.16.38,2.16,1.32a1.11,1.11,0,0,1-1.14,1.3c-1.68,0-1-1.78-2.34-1.78-0.53,0-2.19,0-3.3,5.49-0.13.64-.38,1.42-0.38,1.63s0.1,0.13.18,0.13h2.72c0.15,0,.2,0,0.2.15a1.43,1.43,0,0,1-.28.81H124c-0.28,0-.38.18-0.46,0.53-2.52,11.44-3.15,13.39-4.8,14.79a4.72,4.72,0,0,1-2.95,1.22c-0.76,0-1.6-.2-1.6-1.12a1,1,0,0,1,1-.92c0.94,0,1.52.92,2.19,0.92,0.46,0,1-.43,1.55-2.85,2-8.82,2.74-12,2.74-12.33a0.25,0.25,0,0,0-.23-0.25h-2.21Z" transform="translate(-0.74 -0.2)"/><path class="50449f3e-04c7-496a-8baf-80bd7c83b006" d="M135.4,69.16c0,1,.43,1,1.68,1.14a0.58,0.58,0,0,1,.51.15c0,0.2,0,.53-0.28.53s-0.48-.05-3.51-0.05c-1.5,0-1.7.05-2,.05-0.13,0-.13-0.1-0.13-0.23a0.37,0.37,0,0,1,.25-0.41,4.36,4.36,0,0,0,1.45-.3c0.56-.23,1.22-1.35,1.73-3.28,1-3.64,2.9-9.63,3.25-10.88,0.05-.18.41-1.25,0.41-1.4A0.79,0.79,0,0,0,138,53.8l-2-.38a0.27,0.27,0,0,1-.25-0.33,0.25,0.25,0,0,1,.28-0.28c0.3,0,1.86.1,2.64,0.1,0.38,0,2.16-.1,2.54-0.1a0.34,0.34,0,0,1,.36.25c1,5.18,1.5,10.65,1.7,12.45,0.13,1.19.2,1.32,0.3,1.32a0.67,0.67,0,0,0,.36-0.3c1.86-2.59,7.47-11.29,9.07-13.34a0.7,0.7,0,0,1,.51-0.38c0.15,0,1.65.1,2,.1s1.63-.1,2.36-0.1c0.15,0,.15.08,0.15,0.28s-0.05.41-.25,0.43a10.63,10.63,0,0,0-1.53.25c-0.61.18-.86,1-1,1.8-1.6,7.9-2.85,12.68-2.85,13.65a0.87,0.87,0,0,0,1,.94l1.27,0.15c0.13,0,.2,0,0.2.25a0.46,0.46,0,0,1-.28.41c-0.3,0-.46-0.05-2.34-0.05-3.43,0-4.09.05-4.52,0.05-0.23,0-.28-0.1-0.28-0.23,0-.31.05-0.36,0.53-0.43l1.17-.18a0.86,0.86,0,0,0,.74-0.66c1.19-4.45,2.36-10.85,3.35-14.26a6.07,6.07,0,0,0,.15-0.84,0.11,0.11,0,0,0-.13-0.13,7.92,7.92,0,0,0-.94,1.12c-3.76,5.34-7.7,11.59-10,15.25a1,1,0,0,1-.53.56c-0.08,0-.2-0.05-0.3-1-0.69-7.27-1.63-14.08-1.86-14.74a0.22,0.22,0,0,0-.2-0.2c-0.13,0-.2.1-1.09,2.85C135.88,65.8,135.4,68.77,135.4,69.16Z" transform="translate(-0.74 -0.2)"/><path class="50449f3e-04c7-496a-8baf-80bd7c83b006" d="M157.94,62.85a0.3,0.3,0,0,1-.18-0.28c0-.25,2.24-3,4.14-3a0.73,0.73,0,0,1,.79.74c0,1.07-3.23,8.57-3.23,9,0,0.18.05,0.3,0.18,0.3,0.61,0,2.36-1.83,2.49-1.83a0.22,0.22,0,0,1,.28.25c0,0.13-2.69,3.36-4.47,3.23a0.79,0.79,0,0,1-.74-1c0-.71,3.35-8.67,3.35-8.79s0-.38-0.2-0.38c-0.66,0-1.6,1.12-2.21,1.68A0.49,0.49,0,0,1,157.94,62.85Zm4.63-9.46a1.22,1.22,0,1,1-1.22,1.22A1.2,1.2,0,0,1,162.57,53.4Z" transform="translate(-0.74 -0.2)"/><path class="50449f3e-04c7-496a-8baf-80bd7c83b006" d="M163.76,68.72c1.3,0,1.09,1.68,2.39,1.68a1.67,1.67,0,0,0,1.4-1.63,10.35,10.35,0,0,0-1.17-3.2,6.73,6.73,0,0,1-1-2.82c0-2,1.86-3.1,3.69-3.1,1.19,0,2.47.38,2.47,1.55a1.07,1.07,0,0,1-1.09,1c-1.17,0-1.07-1.78-2.26-1.78a1.24,1.24,0,0,0-1.32,1.25A8.66,8.66,0,0,0,168,64.48a7.88,7.88,0,0,1,1.14,3.35c0,2-2.57,3.41-4.32,3.41a1.72,1.72,0,0,1-2-1.58A1,1,0,0,1,163.76,68.72Z" transform="translate(-0.74 -0.2)"/><path class="50449f3e-04c7-496a-8baf-80bd7c83b006" d="M171.29,68.72c1.3,0,1.09,1.68,2.39,1.68a1.67,1.67,0,0,0,1.4-1.63,10.36,10.36,0,0,0-1.17-3.2,6.74,6.74,0,0,1-1-2.82c0-2,1.86-3.1,3.69-3.1,1.19,0,2.47.38,2.47,1.55a1.07,1.07,0,0,1-1.09,1c-1.17,0-1.07-1.78-2.26-1.78a1.24,1.24,0,0,0-1.32,1.25,8.66,8.66,0,0,0,1.12,2.85,7.88,7.88,0,0,1,1.14,3.35c0,2-2.57,3.41-4.32,3.41a1.72,1.72,0,0,1-2-1.58A1,1,0,0,1,171.29,68.72Z" transform="translate(-0.74 -0.2)"/><path class="50449f3e-04c7-496a-8baf-80bd7c83b006" d="M182.19,71.24c-2.21,0-2.9-2.39-2.9-3.86,0-3.51,2.24-7.73,5.24-7.73,2,0,3.07,1.53,3.07,3.86C187.6,66.89,185.44,71.24,182.19,71.24Zm2.41-10.93c-1.65,0-3.66,5.21-3.66,7.57,0,0.94-.05,2.69,1.37,2.69S186,65.6,186,63C186,61.12,185.65,60.31,184.6,60.31Z" transform="translate(-0.74 -0.2)"/><path class="50449f3e-04c7-496a-8baf-80bd7c83b006" d="M195.84,70.93a0.27,0.27,0,0,1-.33-0.25c0-.46,1.42-4.6,1.42-4.88a0.13,0.13,0,0,0-.08-0.15c-0.1,0-2.36,3.43-3.89,4.73a3.43,3.43,0,0,1-2.31.86c-0.61,0-1.07-.41-1.07-1.53s3.33-8.49,3.33-9.35a0.31,0.31,0,0,0-.3-0.28,4.88,4.88,0,0,0-3.1,3.48c0,0.1-.1.1-0.23,0.1a0.25,0.25,0,0,1-.2-0.3,5.59,5.59,0,0,1,2.11-3.25,6.07,6.07,0,0,1,3.56-.76,0.43,0.43,0,0,1,.46.43c0,0.48-3.63,8.46-3.63,9.63a0.5,0.5,0,0,0,.48.51c0.86,0,1.75-.84,3.69-3.56a13.73,13.73,0,0,0,1.78-2.92c1.17-3.18,1.12-3.89,1.5-3.89h1.5a0.3,0.3,0,0,1,.33.18c0,0.43-3.2,9.23-3.2,9.79a0.29,0.29,0,0,0,.2.33c1.17,0,2.74-2.92,2.85-2.92s0.36,0,.36.2c0,0.51-2,3.81-4.19,3.81h-1Z" transform="translate(-0.74 -0.2)"/><path class="50449f3e-04c7-496a-8baf-80bd7c83b006" d="M202.55,70.93a0.17,0.17,0,0,1-.18-0.15c0-.48,3.46-10,3.46-10.17s-0.13-.3-0.51-0.3c-1.47,0-2.54,3.51-2.82,3.51s-0.28-.05-0.28-0.18a3.79,3.79,0,0,1,3.76-4h1.3c0.28,0,.43.1,0.43,0.2s-2.06,6-2.06,6.28a0.17,0.17,0,0,0,.13.18c0.18,0,.43-0.58,1.14-1.83,2-3.46,3.15-4.93,4.65-4.93a1.28,1.28,0,0,1,1.35,1.3,1.32,1.32,0,0,1-1.32,1.3c-1.25,0-1.17-.81-1.78-0.81a2.88,2.88,0,0,0-1.09,1.12c-2.77,4.45-3.13,5-4.47,8.24a0.32,0.32,0,0,1-.3.25h-1.4Z" transform="translate(-0.74 -0.2)"/><path class="50449f3e-04c7-496a-8baf-80bd7c83b006" d="M213.48,62.85a0.3,0.3,0,0,1-.18-0.28c0-.25,2.24-3,4.14-3a0.73,0.73,0,0,1,.79.74c0,1.07-3.23,8.57-3.23,9,0,0.18.05,0.3,0.18,0.3,0.61,0,2.36-1.83,2.49-1.83a0.22,0.22,0,0,1,.28.25c0,0.13-2.69,3.36-4.47,3.23a0.79,0.79,0,0,1-.74-1c0-.71,3.35-8.67,3.35-8.79s0-.38-0.2-0.38c-0.66,0-1.6,1.12-2.21,1.68A0.49,0.49,0,0,1,213.48,62.85Zm4.63-9.46a1.22,1.22,0,1,1-1.22,1.22A1.2,1.2,0,0,1,218.1,53.4Z" transform="translate(-0.74 -0.2)"/><path class="50449f3e-04c7-496a-8baf-80bd7c83b006" d="M240.88,61c0.38,0,.38-0.05.48-0.48a60.67,60.67,0,0,0,1.47-6.18c0-.28,0-0.81-1.68-0.81-0.61,0-.64-0.23-0.64-0.36a0.34,0.34,0,0,1,.3-0.38c0.3,0,1,.1,3.28.1a30.88,30.88,0,0,0,3.18-.1c0.23,0,.28,0,0.28.15,0,0.3,0,.58-1,0.58-0.76,0-1.17.25-1.45,1.35-3.18,12.43-3.46,13.85-3.46,14.56s0.53,0.86,2.13.86c0.23,0,.25.08,0.25,0.18,0,0.25-.05.48-0.36,0.48s-0.36-.05-2.9-0.05c-3.25,0-3.71.05-3.92,0.05a0.2,0.2,0,0,1-.2-0.23,0.38,0.38,0,0,1,.23-0.43c1.88,0,2.08-.33,2.44-1.78,1.4-5.74,1.63-6.41,1.63-6.48s-0.25-.2-0.51-0.2h-8a0.4,0.4,0,0,0-.46.38c-1.35,5.87-1.58,7-1.58,7.22,0,0.51.36,0.86,2.19,0.86,0.15,0,.25.05,0.25,0.33s-0.05.33-.36,0.33-0.71-.05-3.61-0.05c-2.31,0-2.82.05-3.18,0.05-0.2,0-.25,0-0.25-0.2,0-.38.08-0.41,0.61-0.46,1.47-.13,1.63-0.13,2-1.6,2.77-11.13,3.43-13.24,3.43-14.31,0-.71-0.46-0.86-1.73-0.86-0.46,0-.54-0.13-0.54-0.3a0.47,0.47,0,0,1,.25-0.43c0.48,0,2.11.1,3.43,0.1s2.77-.1,3.13-0.1c0.15,0,.2,0,0.2.38a0.29,0.29,0,0,1-.36.36c-1,0-1.68.18-2,1.17s-1.55,5.64-1.55,6.1c0,0.2.18,0.2,0.36,0.2h8.13Z" transform="translate(-0.74 -0.2)"/><path class="50449f3e-04c7-496a-8baf-80bd7c83b006" d="M254.86,61.5c0,1.22-1.07,3.2-5.85,4.12a13.9,13.9,0,0,0-.3,2.08c0,1.07.38,2.14,1.63,2.14,1.4,0,2.59-1.93,2.77-1.93a0.3,0.3,0,0,1,.3.33c0,0.2-2,3-4.14,3-1.93,0-2.44-1.55-2.44-3.2,0-4.8,3.13-8.29,5.92-8.29C253.94,59.75,254.86,60.26,254.86,61.5Zm-1.73,0a1,1,0,0,0-.81-1.07c-1.37,0-2.49,1.88-3.23,4.58C252.26,64.61,253.13,62.39,253.13,61.48Z" transform="translate(-0.74 -0.2)"/><path class="50449f3e-04c7-496a-8baf-80bd7c83b006" d="M266.39,59.34a0.12,0.12,0,0,1,.15.15c0,0.56-3.58,8.85-3.58,9.71a0.27,0.27,0,0,0,.25.33c0.74,0,2.49-2.72,2.8-2.72a0.25,0.25,0,0,1,.23.2c0,0.2-2.87,4.22-4.65,4.22a0.66,0.66,0,0,1-.79-0.58,40.36,40.36,0,0,1,1.6-4.5,0.1,0.1,0,0,0-.1-0.13,5.59,5.59,0,0,0-1,1.37c-1.3,1.73-3.07,3.84-5,3.84a1,1,0,0,1-1-1.27c0-2,2.39-6.86,4.68-9a4,4,0,0,1,3.1-1.32,1.37,1.37,0,0,1,1.14.36,1.66,1.66,0,0,0,.3.36c0.2,0,.33-1,0.64-1h1.22Zm-2.69,1.88c0-.53-0.15-0.92-1-0.92-2.57,0-5.16,7-5.16,8.87,0,0.41.15,0.64,0.38,0.64C259.61,69.82,263.7,63.36,263.7,61.23Z" transform="translate(-0.74 -0.2)"/><path class="50449f3e-04c7-496a-8baf-80bd7c83b006" d="M272.49,54.41c0-.66-0.36-0.69-0.86-0.69s-0.79,0-.79-0.38,0.3-.38.79-0.43c1.55-.15,2.67-0.36,2.85-0.36s0.38,0,.38.23c0,1-5,15.1-5,15.66a0.38,0.38,0,0,0,.43.43c0.56,0,2.41-2.39,2.72-2.39,0.13,0,.23.1,0.23,0.33s-3.41,4.42-5.06,4.42a0.8,0.8,0,0,1-.86-0.86C267.34,69.66,272.49,54.67,272.49,54.41Z" transform="translate(-0.74 -0.2)"/><path class="50449f3e-04c7-496a-8baf-80bd7c83b006" d="M275,61.35c-0.23,0-.3-0.05-0.3-0.18a1.19,1.19,0,0,1,.61-0.89h2a0.42,0.42,0,0,0,.28-0.05,20.4,20.4,0,0,0,.89-2.62,0.29,0.29,0,0,1,.3-0.18H280a0.19,0.19,0,0,1,.23.23c0,0.13-.69,2.13-0.69,2.41a0.22,0.22,0,0,0,.25.2H282c0.18,0,.25.05,0.25,0.3a1.15,1.15,0,0,1-.51.84c-0.43,0-.84,0-1.22-0.05l-1.14,0a1.12,1.12,0,0,0-.51.92c-0.2.71-2.19,7.42-2.19,7.5a0.36,0.36,0,0,0,.36.43c1,0,3.36-2.41,3.48-2.41a0.19,0.19,0,0,1,.23.2c0,0.38-2.64,3.25-5.26,3.25a0.81,0.81,0,0,1-.84-0.94c0-.36,2.57-8.46,2.57-8.77,0-.13-0.13-0.18-0.38-0.18H275Z" transform="translate(-0.74 -0.2)"/><path class="50449f3e-04c7-496a-8baf-80bd7c83b006" d="M282.46,70.93a0.32,0.32,0,0,1-.33-0.38c0-.25,4.9-16,4.9-16.14,0-.66-0.36-0.69-0.86-0.69s-0.79,0-.79-0.38,0.3-.38.79-0.43c1.55-.15,2.67-0.36,2.85-0.36s0.38,0,.38.23-3.15,10.78-3.15,10.93a0.09,0.09,0,0,0,.08.1,0.51,0.51,0,0,0,.23-0.28c2.14-2.95,4-3.79,5-3.79a1.56,1.56,0,0,1,1.68,1.7c0,3.38-3.18,9.79-6,9.79a0.93,0.93,0,0,1-1.07-1A1.22,1.22,0,0,1,287.24,69c0.86,0,.61.94,1.27,0.94,1.3,0,2.75-6,2.75-7.14,0-.92-0.36-1.5-1.12-1.5s-2.24,1.14-4,3.74c-1.12,1.68-1.17,2.77-2.16,5.57a0.38,0.38,0,0,1-.3.36h-1.25Z" transform="translate(-0.74 -0.2)"/><path class="9010d6f4-0b36-4cbf-8dde-4d30baa77c55" d="M2.7,82.24a10.55,10.55,0,0,0,.36-2c0-.36-0.23-0.69-1.91-0.74-0.33,0-.33-0.1-0.33-0.36s0.1-.3.2-0.3c0.25,0,2.31.1,3.18,0.1,1.53,0,3-.1,3.46-0.1,0.15,0,.18.2,0.18,0.38a0.34,0.34,0,0,1-.28.36,3.45,3.45,0,0,0-1.63.3c-0.23.23-.43,0.69-0.86,2.54-1.25,5.39-1.91,8.18-1.91,9.81C3.15,95.71,6.21,96,7.35,96c2.52,0,5.31-1.4,6.56-6.08,1.7-6.4,1.91-7.85,1.91-8.95s-0.64-1.14-1.32-1.32a6.9,6.9,0,0,0-1.19-.18,0.38,0.38,0,0,1-.15-0.3,0.37,0.37,0,0,1,.33-0.38c0.28,0,2,.1,2.47.1,0.84,0,3.15-.1,3.63-0.1,0.1,0,.18.13,0.18,0.33a0.35,0.35,0,0,1-.23.28l-0.89.13c-0.51.08-1.32,0.38-1.81,2C16,84.23,15,90.3,13.65,93c-1.45,2.92-3.71,4.12-7.09,4.12-3.23,0-5.82-1.6-5.82-4.91C0.74,90.28,1.73,87,2.7,82.24Z" transform="translate(-0.74 -0.2)"/><path class="9010d6f4-0b36-4cbf-8dde-4d30baa77c55" d="M24.22,96.93c-0.15,0-.18-0.05-0.18-0.2,0-.94,3.35-8.13,3.35-9.46a0.67,0.67,0,0,0-.66-0.74c-1.68,0-2.92,2.82-5.36,7-0.13.23-.43,1-1.37,3.18a0.28,0.28,0,0,1-.28.23h-1.5a0.17,0.17,0,0,1-.2-0.2c0-.41,3.46-9.2,3.46-9.94a0.25,0.25,0,0,0-.2-0.3c-2,0-3.05,2.54-3.05,3.07a0.24,0.24,0,0,1-.23.13,0.21,0.21,0,0,1-.23-0.23c0-.61.84-3.71,3.58-3.71h1.88a0.21,0.21,0,0,1,.25.23c0,0.3-1.88,4.91-1.88,5.72,0,0.13,0,.18.08,0.18s0.18-.13.69-1c2.74-5,3.51-5.29,5-5.29,0.71,0,2,.1,2,1.27,0,2.08-3.1,7.93-3.1,8.92a0.3,0.3,0,0,0,.25.2c1.2,0,2.57-2.67,2.85-2.67a0.34,0.34,0,0,1,.25.23c0,0.33-2,3.43-4.07,3.43H24.22Z" transform="translate(-0.74 -0.2)"/><path class="9010d6f4-0b36-4cbf-8dde-4d30baa77c55" d="M32,88.85a0.3,0.3,0,0,1-.18-0.28c0-.25,2.24-3,4.14-3a0.73,0.73,0,0,1,.79.74c0,1.07-3.23,8.57-3.23,9,0,0.18.05,0.3,0.18,0.3,0.61,0,2.36-1.83,2.49-1.83a0.22,0.22,0,0,1,.28.25c0,0.13-2.69,3.36-4.47,3.23a0.79,0.79,0,0,1-.74-1c0-.71,3.35-8.67,3.35-8.79s0-.38-0.2-0.38c-0.66,0-1.6,1.12-2.21,1.68A0.49,0.49,0,0,1,32,88.85Zm4.63-9.46a1.22,1.22,0,1,1-1.22,1.22A1.2,1.2,0,0,1,36.63,79.4Z" transform="translate(-0.74 -0.2)"/><path class="9010d6f4-0b36-4cbf-8dde-4d30baa77c55" d="M43.16,85.65a2,2,0,0,0,.36-0.05A2.51,2.51,0,0,1,44,85.55a0.3,0.3,0,0,1,.28.28c0,1.19-2.87,4.14-2.87,7.45,0,1.07.41,2.44,1.73,2.44,2.74,0,4.8-4.8,4.8-7.12,0-1-1.22-1-1.22-1.93a1.21,1.21,0,0,1,1.14-1.32c1.09,0,1.3.74,1.3,1.73,0,2.39-2.62,10.17-7.19,10.17-0.56,0-2.34-.3-2.34-2.74,0-2.92,3.35-6.86,3.35-7.14,0-.13,0-0.18-0.46-0.18H39.83c-0.66,0-1,1-1.22,1.63a0.25,0.25,0,0,1-.3.23,0.31,0.31,0,0,1-.28-0.2c0-.3.84-3.18,1.25-3.18h3.89Z" transform="translate(-0.74 -0.2)"/><path class="9010d6f4-0b36-4cbf-8dde-4d30baa77c55" d="M58.49,87.5c0,1.22-1.07,3.2-5.85,4.12a13.65,13.65,0,0,0-.31,2.08c0,1.07.38,2.14,1.63,2.14,1.4,0,2.59-1.93,2.77-1.93a0.3,0.3,0,0,1,.3.33c0,0.2-2,3-4.14,3-1.93,0-2.44-1.55-2.44-3.2,0-4.8,3.13-8.29,5.92-8.29C57.57,85.75,58.49,86.26,58.49,87.5Zm-1.73,0a1,1,0,0,0-.81-1.07c-1.37,0-2.49,1.88-3.23,4.58C55.89,90.61,56.76,88.39,56.76,87.48Z" transform="translate(-0.74 -0.2)"/><path class="9010d6f4-0b36-4cbf-8dde-4d30baa77c55" d="M59.81,96.93a0.17,0.17,0,0,1-.18-0.15c0-.48,3.46-10,3.46-10.17s-0.13-.3-0.51-0.3c-1.47,0-2.54,3.51-2.82,3.51s-0.28-.05-0.28-0.18a3.79,3.79,0,0,1,3.76-4h1.3c0.28,0,.43.1,0.43,0.2s-2.06,6-2.06,6.28a0.17,0.17,0,0,0,.13.18c0.18,0,.43-0.58,1.14-1.83,2-3.46,3.15-4.93,4.65-4.93a1.28,1.28,0,0,1,1.35,1.3,1.32,1.32,0,0,1-1.32,1.3c-1.25,0-1.17-.81-1.78-0.81A2.88,2.88,0,0,0,66,88.45c-2.77,4.45-3.13,5-4.47,8.24a0.32,0.32,0,0,1-.3.25h-1.4Z" transform="translate(-0.74 -0.2)"/><path class="9010d6f4-0b36-4cbf-8dde-4d30baa77c55" d="M69.19,94.72c1.3,0,1.09,1.68,2.39,1.68A1.67,1.67,0,0,0,73,94.77a10.36,10.36,0,0,0-1.17-3.2,6.73,6.73,0,0,1-1-2.82c0-2,1.86-3.1,3.69-3.1,1.19,0,2.47.38,2.47,1.55a1.07,1.07,0,0,1-1.09,1c-1.17,0-1.07-1.78-2.26-1.78a1.24,1.24,0,0,0-1.32,1.25,8.66,8.66,0,0,0,1.12,2.85,7.88,7.88,0,0,1,1.14,3.35c0,2-2.57,3.41-4.32,3.41a1.72,1.72,0,0,1-2-1.58A1,1,0,0,1,69.19,94.72Z" transform="translate(-0.74 -0.2)"/><path class="9010d6f4-0b36-4cbf-8dde-4d30baa77c55" d="M78,88.85a0.3,0.3,0,0,1-.18-0.28c0-.25,2.24-3,4.14-3a0.73,0.73,0,0,1,.79.74c0,1.07-3.23,8.57-3.23,9,0,0.18.05,0.3,0.18,0.3,0.61,0,2.36-1.83,2.49-1.83a0.22,0.22,0,0,1,.28.25c0,0.13-2.69,3.36-4.47,3.23a0.79,0.79,0,0,1-.74-1c0-.71,3.35-8.67,3.35-8.79s0-.38-0.2-0.38c-0.66,0-1.6,1.12-2.21,1.68A0.49,0.49,0,0,1,78,88.85Zm4.63-9.46a1.22,1.22,0,1,1-1.22,1.22A1.2,1.2,0,0,1,82.58,79.4Z" transform="translate(-0.74 -0.2)"/><path class="9010d6f4-0b36-4cbf-8dde-4d30baa77c55" d="M84.95,87.35c-0.23,0-.3-0.05-0.3-0.18a1.19,1.19,0,0,1,.61-0.89h2a0.42,0.42,0,0,0,.28-0.05,20.66,20.66,0,0,0,.89-2.62,0.29,0.29,0,0,1,.3-0.18h1.17a0.19,0.19,0,0,1,.23.23c0,0.13-.69,2.13-0.69,2.41a0.22,0.22,0,0,0,.25.2h2.19c0.18,0,.25.05,0.25,0.3a1.15,1.15,0,0,1-.51.84c-0.43,0-.84,0-1.22-0.05l-1.14,0a1.12,1.12,0,0,0-.51.92c-0.2.71-2.19,7.42-2.19,7.5a0.36,0.36,0,0,0,.36.43c1,0,3.36-2.41,3.48-2.41a0.2,0.2,0,0,1,.23.2c0,0.38-2.64,3.25-5.26,3.25a0.81,0.81,0,0,1-.84-0.94c0-.36,2.57-8.46,2.57-8.77,0-.13-0.13-0.18-0.38-0.18H84.95Z" transform="translate(-0.74 -0.2)"/><path class="9010d6f4-0b36-4cbf-8dde-4d30baa77c55" d="M99.92,86.21a0.43,0.43,0,0,1,.43-0.46,1.13,1.13,0,0,1,1.22.79c0,1-3.1,9.15-6,13.4C94,102.22,92.77,103.8,90,103.8c-0.89,0-1.5-.25-1.5-1.12a1.12,1.12,0,0,1,1.07-1c1,0,.91,1,2.49,1,0.86,0,3.51-2.34,3.51-7.37,0-1.63-.56-7.93-1.83-7.88s-1.12,2.9-1.52,2.9-0.36-.18-0.36-0.56c0-1,1-4,2.85-4,2.26,0,2.57,8.16,2.57,8.79a4.69,4.69,0,0,0,0,1.25,10.09,10.09,0,0,0,1.17-2.59A33.66,33.66,0,0,0,99.92,86.21Z" transform="translate(-0.74 -0.2)"/><path class="9010d6f4-0b36-4cbf-8dde-4d30baa77c55" d="M112.09,97.24c-2.21,0-2.9-2.39-2.9-3.86,0-3.51,2.24-7.73,5.24-7.73,2,0,3.07,1.53,3.07,3.86C117.5,92.89,115.34,97.24,112.09,97.24Zm2.41-10.93c-1.65,0-3.66,5.21-3.66,7.57,0,0.94-.05,2.69,1.37,2.69s3.63-5,3.63-7.57C115.85,87.12,115.55,86.31,114.51,86.31Z" transform="translate(-0.74 -0.2)"/><path class="9010d6f4-0b36-4cbf-8dde-4d30baa77c55" d="M119.23,87.25c-0.15,0-.23-0.05-0.23-0.1a0.86,0.86,0,0,1,.25-0.66c2.54-.2,2.62-0.2,2.77-0.64A32.06,32.06,0,0,1,123.27,82,6.42,6.42,0,0,1,129,78.2c0.74,0,2.16.38,2.16,1.32a1.11,1.11,0,0,1-1.14,1.3c-1.68,0-1-1.78-2.34-1.78-0.53,0-2.19,0-3.3,5.49-0.13.64-.38,1.42-0.38,1.63s0.1,0.13.18,0.13h2.72c0.15,0,.2,0,0.2.15a1.43,1.43,0,0,1-.28.81H124c-0.28,0-.38.18-0.46,0.53-2.52,11.44-3.15,13.39-4.8,14.79a4.72,4.72,0,0,1-2.95,1.22c-0.76,0-1.6-.2-1.6-1.12a1,1,0,0,1,1-.92c0.94,0,1.52.92,2.19,0.92,0.46,0,1-.43,1.55-2.85,2-8.82,2.74-12,2.74-12.33a0.25,0.25,0,0,0-.23-0.25h-2.21Z" transform="translate(-0.74 -0.2)"/><path class="9010d6f4-0b36-4cbf-8dde-4d30baa77c55" d="M135.4,95.16c0,1,.43,1,1.68,1.14a0.58,0.58,0,0,1,.51.15c0,0.2,0,.53-0.28.53s-0.48-.05-3.51-0.05c-1.5,0-1.7.05-2,.05-0.13,0-.13-0.1-0.13-0.23a0.37,0.37,0,0,1,.25-0.41,4.36,4.36,0,0,0,1.45-.3c0.56-.23,1.22-1.35,1.73-3.28,1-3.64,2.9-9.63,3.25-10.88,0.05-.18.41-1.25,0.41-1.4A0.79,0.79,0,0,0,138,79.8l-2-.38a0.27,0.27,0,0,1-.25-0.33,0.25,0.25,0,0,1,.28-0.28c0.3,0,1.86.1,2.64,0.1,0.38,0,2.16-.1,2.54-0.1a0.34,0.34,0,0,1,.36.25c1,5.18,1.5,10.65,1.7,12.45,0.13,1.19.2,1.32,0.3,1.32a0.67,0.67,0,0,0,.36-0.3c1.86-2.59,7.47-11.29,9.07-13.34a0.7,0.7,0,0,1,.51-0.38c0.15,0,1.65.1,2,.1s1.63-.1,2.36-0.1c0.15,0,.15.08,0.15,0.28s-0.05.41-.25,0.43a10.63,10.63,0,0,0-1.53.25c-0.61.18-.86,1-1,1.8-1.6,7.9-2.85,12.68-2.85,13.65a0.87,0.87,0,0,0,1,.94l1.27,0.15c0.13,0,.2,0,0.2.25a0.46,0.46,0,0,1-.28.41c-0.3,0-.46-0.05-2.34-0.05-3.43,0-4.09.05-4.52,0.05-0.23,0-.28-0.1-0.28-0.23,0-.31.05-0.36,0.53-0.43l1.17-.18a0.86,0.86,0,0,0,.74-0.66c1.19-4.45,2.36-10.85,3.35-14.26a6.07,6.07,0,0,0,.15-0.84,0.11,0.11,0,0,0-.13-0.13,7.92,7.92,0,0,0-.94,1.12c-3.76,5.34-7.7,11.59-10,15.25a1,1,0,0,1-.53.56c-0.08,0-.2-0.05-0.3-1-0.69-7.27-1.63-14.08-1.86-14.74a0.22,0.22,0,0,0-.2-0.2c-0.13,0-.2.1-1.09,2.85C135.88,91.8,135.4,94.77,135.4,95.16Z" transform="translate(-0.74 -0.2)"/><path class="9010d6f4-0b36-4cbf-8dde-4d30baa77c55" d="M157.94,88.85a0.3,0.3,0,0,1-.18-0.28c0-.25,2.24-3,4.14-3a0.73,0.73,0,0,1,.79.74c0,1.07-3.23,8.57-3.23,9,0,0.18.05,0.3,0.18,0.3,0.61,0,2.36-1.83,2.49-1.83a0.22,0.22,0,0,1,.28.25c0,0.13-2.69,3.36-4.47,3.23a0.79,0.79,0,0,1-.74-1c0-.71,3.35-8.67,3.35-8.79s0-.38-0.2-0.38c-0.66,0-1.6,1.12-2.21,1.68A0.49,0.49,0,0,1,157.94,88.85Zm4.63-9.46a1.22,1.22,0,1,1-1.22,1.22A1.2,1.2,0,0,1,162.57,79.4Z" transform="translate(-0.74 -0.2)"/><path class="9010d6f4-0b36-4cbf-8dde-4d30baa77c55" d="M163.76,94.72c1.3,0,1.09,1.68,2.39,1.68a1.67,1.67,0,0,0,1.4-1.63,10.35,10.35,0,0,0-1.17-3.2,6.73,6.73,0,0,1-1-2.82c0-2,1.86-3.1,3.69-3.1,1.19,0,2.47.38,2.47,1.55a1.07,1.07,0,0,1-1.09,1c-1.17,0-1.07-1.78-2.26-1.78a1.24,1.24,0,0,0-1.32,1.25A8.66,8.66,0,0,0,168,90.48a7.88,7.88,0,0,1,1.14,3.35c0,2-2.57,3.41-4.32,3.41a1.72,1.72,0,0,1-2-1.58A1,1,0,0,1,163.76,94.72Z" transform="translate(-0.74 -0.2)"/><path class="9010d6f4-0b36-4cbf-8dde-4d30baa77c55" d="M171.29,94.72c1.3,0,1.09,1.68,2.39,1.68a1.67,1.67,0,0,0,1.4-1.63,10.36,10.36,0,0,0-1.17-3.2,6.74,6.74,0,0,1-1-2.82c0-2,1.86-3.1,3.69-3.1,1.19,0,2.47.38,2.47,1.55a1.07,1.07,0,0,1-1.09,1c-1.17,0-1.07-1.78-2.26-1.78a1.24,1.24,0,0,0-1.32,1.25,8.66,8.66,0,0,0,1.12,2.85,7.88,7.88,0,0,1,1.14,3.35c0,2-2.57,3.41-4.32,3.41a1.72,1.72,0,0,1-2-1.58A1,1,0,0,1,171.29,94.72Z" transform="translate(-0.74 -0.2)"/><path class="9010d6f4-0b36-4cbf-8dde-4d30baa77c55" d="M182.19,97.24c-2.21,0-2.9-2.39-2.9-3.86,0-3.51,2.24-7.73,5.24-7.73,2,0,3.07,1.53,3.07,3.86C187.6,92.89,185.44,97.24,182.19,97.24Zm2.41-10.93c-1.65,0-3.66,5.21-3.66,7.57,0,0.94-.05,2.69,1.37,2.69S186,91.6,186,89C186,87.12,185.65,86.31,184.6,86.31Z" transform="translate(-0.74 -0.2)"/><path class="9010d6f4-0b36-4cbf-8dde-4d30baa77c55" d="M195.84,96.93a0.27,0.27,0,0,1-.33-0.25c0-.46,1.42-4.6,1.42-4.88a0.13,0.13,0,0,0-.08-0.15c-0.1,0-2.36,3.43-3.89,4.73a3.43,3.43,0,0,1-2.31.86c-0.61,0-1.07-.41-1.07-1.53s3.33-8.49,3.33-9.35a0.31,0.31,0,0,0-.3-0.28,4.88,4.88,0,0,0-3.1,3.48c0,0.1-.1.1-0.23,0.1a0.25,0.25,0,0,1-.2-0.3,5.59,5.59,0,0,1,2.11-3.25,6.07,6.07,0,0,1,3.56-.76,0.43,0.43,0,0,1,.46.43c0,0.48-3.63,8.46-3.63,9.63a0.5,0.5,0,0,0,.48.51c0.86,0,1.75-.84,3.69-3.56a13.73,13.73,0,0,0,1.78-2.92c1.17-3.18,1.12-3.89,1.5-3.89h1.5a0.3,0.3,0,0,1,.33.18c0,0.43-3.2,9.23-3.2,9.79a0.29,0.29,0,0,0,.2.33c1.17,0,2.74-2.92,2.85-2.92s0.36,0,.36.2c0,0.51-2,3.81-4.19,3.81h-1Z" transform="translate(-0.74 -0.2)"/><path class="9010d6f4-0b36-4cbf-8dde-4d30baa77c55" d="M202.55,96.93a0.17,0.17,0,0,1-.18-0.15c0-.48,3.46-10,3.46-10.17s-0.13-.3-0.51-0.3c-1.47,0-2.54,3.51-2.82,3.51s-0.28-.05-0.28-0.18a3.79,3.79,0,0,1,3.76-4h1.3c0.28,0,.43.1,0.43,0.2s-2.06,6-2.06,6.28a0.17,0.17,0,0,0,.13.18c0.18,0,.43-0.58,1.14-1.83,2-3.46,3.15-4.93,4.65-4.93a1.28,1.28,0,0,1,1.35,1.3,1.32,1.32,0,0,1-1.32,1.3c-1.25,0-1.17-.81-1.78-0.81a2.88,2.88,0,0,0-1.09,1.12c-2.77,4.45-3.13,5-4.47,8.24a0.32,0.32,0,0,1-.3.25h-1.4Z" transform="translate(-0.74 -0.2)"/><path class="9010d6f4-0b36-4cbf-8dde-4d30baa77c55" d="M213.48,88.85a0.3,0.3,0,0,1-.18-0.28c0-.25,2.24-3,4.14-3a0.73,0.73,0,0,1,.79.74c0,1.07-3.23,8.57-3.23,9,0,0.18.05,0.3,0.18,0.3,0.61,0,2.36-1.83,2.49-1.83a0.22,0.22,0,0,1,.28.25c0,0.13-2.69,3.36-4.47,3.23a0.79,0.79,0,0,1-.74-1c0-.71,3.35-8.67,3.35-8.79s0-.38-0.2-0.38c-0.66,0-1.6,1.12-2.21,1.68A0.49,0.49,0,0,1,213.48,88.85Zm4.63-9.46a1.22,1.22,0,1,1-1.22,1.22A1.2,1.2,0,0,1,218.1,79.4Z" transform="translate(-0.74 -0.2)"/><path class="9010d6f4-0b36-4cbf-8dde-4d30baa77c55" d="M240.88,87c0.38,0,.38-0.05.48-0.48a60.67,60.67,0,0,0,1.47-6.18c0-.28,0-0.81-1.68-0.81-0.61,0-.64-0.23-0.64-0.36a0.34,0.34,0,0,1,.3-0.38c0.3,0,1,.1,3.28.1a30.88,30.88,0,0,0,3.18-.1c0.23,0,.28,0,0.28.15,0,0.3,0,.58-1,0.58-0.76,0-1.17.25-1.45,1.35-3.18,12.43-3.46,13.85-3.46,14.56s0.53,0.86,2.13.86c0.23,0,.25.08,0.25,0.18,0,0.25-.05.48-0.36,0.48s-0.36-.05-2.9-0.05c-3.25,0-3.71.05-3.92,0.05a0.2,0.2,0,0,1-.2-0.23,0.38,0.38,0,0,1,.23-0.43c1.88,0,2.08-.33,2.44-1.78,1.4-5.74,1.63-6.41,1.63-6.48s-0.25-.2-0.51-0.2h-8a0.4,0.4,0,0,0-.46.38c-1.35,5.87-1.58,7-1.58,7.22,0,0.51.36,0.86,2.19,0.86,0.15,0,.25.05,0.25,0.33s-0.05.33-.36,0.33-0.71-.05-3.61-0.05c-2.31,0-2.82.05-3.18,0.05-0.2,0-.25,0-0.25-0.2,0-.38.08-0.41,0.61-0.46,1.47-.13,1.63-0.13,2-1.6,2.77-11.13,3.43-13.24,3.43-14.31,0-.71-0.46-0.86-1.73-0.86-0.46,0-.54-0.13-0.54-0.3a0.47,0.47,0,0,1,.25-0.43c0.48,0,2.11.1,3.43,0.1s2.77-.1,3.13-0.1c0.15,0,.2,0,0.2.38a0.29,0.29,0,0,1-.36.36c-1,0-1.68.18-2,1.17s-1.55,5.64-1.55,6.1c0,0.2.18,0.2,0.36,0.2h8.13Z" transform="translate(-0.74 -0.2)"/><path class="9010d6f4-0b36-4cbf-8dde-4d30baa77c55" d="M254.86,87.5c0,1.22-1.07,3.2-5.85,4.12a13.9,13.9,0,0,0-.3,2.08c0,1.07.38,2.14,1.63,2.14,1.4,0,2.59-1.93,2.77-1.93a0.3,0.3,0,0,1,.3.33c0,0.2-2,3-4.14,3-1.93,0-2.44-1.55-2.44-3.2,0-4.8,3.13-8.29,5.92-8.29C253.94,85.75,254.86,86.26,254.86,87.5Zm-1.73,0a1,1,0,0,0-.81-1.07c-1.37,0-2.49,1.88-3.23,4.58C252.26,90.61,253.13,88.39,253.13,87.48Z" transform="translate(-0.74 -0.2)"/><path class="9010d6f4-0b36-4cbf-8dde-4d30baa77c55" d="M266.39,85.34a0.12,0.12,0,0,1,.15.15c0,0.56-3.58,8.85-3.58,9.71a0.27,0.27,0,0,0,.25.33c0.74,0,2.49-2.72,2.8-2.72a0.25,0.25,0,0,1,.23.2c0,0.2-2.87,4.22-4.65,4.22a0.66,0.66,0,0,1-.79-0.58,40.36,40.36,0,0,1,1.6-4.5,0.1,0.1,0,0,0-.1-0.13,5.59,5.59,0,0,0-1,1.37c-1.3,1.73-3.07,3.84-5,3.84a1,1,0,0,1-1-1.27c0-2,2.39-6.86,4.68-9a4,4,0,0,1,3.1-1.32,1.37,1.37,0,0,1,1.14.36,1.66,1.66,0,0,0,.3.36c0.2,0,.33-1,0.64-1h1.22Zm-2.69,1.88c0-.53-0.15-0.92-1-0.92-2.57,0-5.16,7-5.16,8.87,0,0.41.15,0.64,0.38,0.64C259.61,95.82,263.7,89.36,263.7,87.23Z" transform="translate(-0.74 -0.2)"/><path class="9010d6f4-0b36-4cbf-8dde-4d30baa77c55" d="M272.49,80.41c0-.66-0.36-0.69-0.86-0.69s-0.79,0-.79-0.38,0.3-.38.79-0.43c1.55-.15,2.67-0.36,2.85-0.36s0.38,0,.38.23c0,1-5,15.1-5,15.66a0.38,0.38,0,0,0,.43.43c0.56,0,2.41-2.39,2.72-2.39,0.13,0,.23.1,0.23,0.33s-3.41,4.42-5.06,4.42a0.8,0.8,0,0,1-.86-0.86C267.34,95.66,272.49,80.67,272.49,80.41Z" transform="translate(-0.74 -0.2)"/><path class="9010d6f4-0b36-4cbf-8dde-4d30baa77c55" d="M275,87.35c-0.23,0-.3-0.05-0.3-0.18a1.19,1.19,0,0,1,.61-0.89h2a0.42,0.42,0,0,0,.28-0.05,20.4,20.4,0,0,0,.89-2.62,0.29,0.29,0,0,1,.3-0.18H280a0.19,0.19,0,0,1,.23.23c0,0.13-.69,2.13-0.69,2.41a0.22,0.22,0,0,0,.25.2H282c0.18,0,.25.05,0.25,0.3a1.15,1.15,0,0,1-.51.84c-0.43,0-.84,0-1.22-0.05l-1.14,0a1.12,1.12,0,0,0-.51.92c-0.2.71-2.19,7.42-2.19,7.5a0.36,0.36,0,0,0,.36.43c1,0,3.36-2.41,3.48-2.41a0.19,0.19,0,0,1,.23.2c0,0.38-2.64,3.25-5.26,3.25a0.81,0.81,0,0,1-.84-0.94c0-.36,2.57-8.46,2.57-8.77,0-.13-0.13-0.18-0.38-0.18H275Z" transform="translate(-0.74 -0.2)"/><path class="9010d6f4-0b36-4cbf-8dde-4d30baa77c55" d="M282.46,96.93a0.32,0.32,0,0,1-.33-0.38c0-.25,4.9-16,4.9-16.14,0-.66-0.36-0.69-0.86-0.69s-0.79,0-.79-0.38,0.3-.38.79-0.43c1.55-.15,2.67-0.36,2.85-0.36s0.38,0,.38.23-3.15,10.78-3.15,10.93a0.09,0.09,0,0,0,.08.1,0.51,0.51,0,0,0,.23-0.28c2.14-2.95,4-3.79,5-3.79a1.56,1.56,0,0,1,1.68,1.7c0,3.38-3.18,9.79-6,9.79a0.93,0.93,0,0,1-1.07-1A1.22,1.22,0,0,1,287.24,95c0.86,0,.61.94,1.27,0.94,1.3,0,2.75-6,2.75-7.14,0-.92-0.36-1.5-1.12-1.5s-2.24,1.14-4,3.74c-1.12,1.68-1.17,2.77-2.16,5.57a0.38,0.38,0,0,1-.3.36h-1.25Z" transform="translate(-0.74 -0.2)"/></svg>