<svg id="6f960178-2b1b-4017-ba5e-e4237af9dd88" data-name="default" xmlns="http://www.w3.org/2000/svg" width="34" height="38" viewBox="0 0 34 38"><defs><style>.bd2b66f6-a8cf-45e0-b539-d4a65155d287{fill:#fff;}.c20b3bc9-4616-4122-886a-fd641d40c013{fill:#f1b82d;}</style></defs><title>mu-logo-small</title><path d="M17,37.5C1.69,37.5.5,30.89,0.5,28.864V0.5H15.2L17,4.56,18.8,0.5H33.5V28.864C33.5,30.89,32.31,37.5,17,37.5Z"/><path class="bd2b66f6-a8cf-45e0-b539-d4a65155d287" d="M33,1V28.864C33,30.722,31.961,37,17,37S1,30.722,1,28.864V1H14.875L17,5.794,19.124,1H33m1-1H18.473l-0.264.595L17,3.325l-1.21-2.73L15.526,0H0V28.864C0,31.007,1.226,38,17,38c6.63,0,11.426-1.214,14.256-3.608A7.183,7.183,0,0,0,34,28.864V0h0Z"/><path class="c20b3bc9-4616-4122-886a-fd641d40c013" d="M22,26.408V23.743c0-.539-1.328-0.959-2-1.318V20h9v2.41a1.521,1.521,0,0,0-1,1.319v2.379C27.97,27.846,28.606,33,16.992,33S6.031,27.846,6,26.108V23.729A1.52,1.52,0,0,0,5,22.41V20h9v2.425c-0.673.359-2,.779-2,1.318v2.664C12.03,26.827,12.184,29,16.992,29S21.969,26.827,22,26.408Z"/><path class="c20b3bc9-4616-4122-886a-fd641d40c013" d="M16.992,12.284L21,5h8V7c-0.673.36-1,.461-1,1v6a1.52,1.52,0,0,0,1,1.319V17H21V15.3c0.672-.36,2-0.779,2-1.319V9.677L17.917,17H16.067L11,9.677v4.308c0,0.54,1.327.959,2,1.319V17H5V15.319A1.521,1.521,0,0,0,6,14V8c0-.539-0.328-0.64-1-1V5h8l3.992,7.284"/></svg>