<svg id="5f34630b-673d-4ffd-b0d1-2ff0a7259c2d" data-name="Layer 1" xmlns="http://www.w3.org/2000/svg" width="50" height="56" viewBox="0 0 50 56"><defs><style>.d47fca64-fc62-4ec5-a38c-b915a9e7f2b5{fill:#fff;}.d91e6657-5ac9-4590-9f86-038e31f91dd3{fill:#f1b82d;}</style></defs><title>mu-logo-medium</title><path d="M25,55.5C2.267,55.5.5,45.776,0.5,42.8V0.5H22.138L25,6.956,27.86,0.5H49.5V42.8C49.5,45.776,47.733,55.5,25,55.5Z"/><path class="d47fca64-fc62-4ec5-a38c-b915a9e7f2b5" d="M49,1V42.8C49,45.583,47.441,55,25,55S1,45.583,1,42.8V1H21.813L25,8.191,28.186,1H49m1-1H27.535l-0.264.595L25,5.722,22.727,0.595,22.464,0H0V42.8a10.283,10.283,0,0,0,3.939,7.911C8.091,54.219,15.177,56,25,56s16.909-1.781,21.061-5.293A10.283,10.283,0,0,0,50,42.8V0h0Z"/><path class="d91e6657-5ac9-4590-9f86-038e31f91dd3" d="M32,39V35c0-.809-0.992-1.652-2-2.191V30H43v2.786c-1.008.539-2,.835-2,1.645V38c-0.132,2.562,1,9.948-16.012,9.921C8.105,47.895,9.047,40.606,9,38V34.431c0-.81-0.991-1.106-2-1.645V30H20v2.809c-1.009.539-2,1.382-2,2.191v4c0.046,0.629-.224,2.925,6.988,2.925S31.953,39.625,32,39Z"/><path class="d91e6657-5ac9-4590-9f86-038e31f91dd3" d="M24.988,18.071L30.925,7H43v3.067c-1.009.547-2,1.113-2,1.933v8.6c0,0.82.991,1.54,2,2.087V26H32V22.662c1.009-.547,2-1.293,2-2.114V14L26.375,26H23.6L16,14v6.548c0,0.82.991,1.567,2,2.114V26H7V22.685C8.008,22.138,9,21.82,9,21V12.4c0-.82-0.992-1.788-2-2.335V7H19.052l5.936,11.071"/></svg>