<svg id="2ef59fb6-576d-47ed-97af-739b0bc8ed9c" data-name="default" xmlns="http://www.w3.org/2000/svg" width="66" height="74" viewBox="0 0 66 74"><defs><style>.a0421430-18ff-4b5f-9033-44fcb384432d{fill:#fff;}.b74c552d-6d84-443e-a166-84d7de5ea892{fill:#f1b82d;}</style></defs><title>mu-logo-large</title><path d="M33,73.5c-12.9,0-22.162-2.308-27.543-6.861A12.89,12.89,0,0,1,.5,56.728V0.5H29.076L33,9.353,36.922,0.5H65.5V56.728C65.5,60.663,63.156,73.5,33,73.5Z"/><path class="a0421430-18ff-4b5f-9033-44fcb384432d" d="M65,1V56.728C65,60.444,62.922,73,33,73S1,60.444,1,56.728V1H28.751L33,10.588,37.247,1H65m1-1H36.6l-0.264.595L33,8.119,29.665,0.595,29.4,0H0V56.728A13.382,13.382,0,0,0,5.133,67.021C10.608,71.652,19.983,74,33,74s22.392-2.348,27.867-6.979A13.382,13.382,0,0,0,66,56.728V0h0Z"/><path class="b74c552d-6d84-443e-a166-84d7de5ea892" d="M42,51.816V46.487c0-1.078-.657-1.918-2-2.637V40H57v3.82c-1.344.718-2,1.558-2,2.638v4.758C54.833,54.958,56.058,64,33,64c-22.958,0-21.875-9.042-22-12.784V46.458c0-1.079-.655-1.919-2-2.638V40H26v3.85c-1.345.718-2,1.558-2,2.637v5.329C24.061,52.654,23.368,56,32.984,56S41.938,52.654,42,51.816Z"/><path class="b74c552d-6d84-443e-a166-84d7de5ea892" d="M32.984,23.567L40.9,9H57v4.036c-1.345.719-2,1.573-2,2.652V27c0,1.079.655,1.918,2,2.637V34H42V29.608c1.345-.719,2-1.558,2-2.638V18.354L34.833,34h-3.7L22,18.354V26.97c0,1.079.655,1.918,2,2.638V34H9V29.638c1.344-.719,2-1.558,2-2.637V15.687c0-1.079-.656-1.932-2-2.652V9H25.069l7.915,14.567"/></svg>