<svg id="f3f3bf45-32f2-4a0f-81e1-3b66fdd04965" data-name="Layer 1" xmlns="http://www.w3.org/2000/svg" width="475" height="218.17" viewBox="0 0 475 218.17"><defs><style>.d1251214-b1d2-4fcd-9cc4-667fe43ddda6{fill:#900000;}.e5bd3892-7be1-4b3a-8e49-0ebf18425033{fill:#fff;}.\32 c1f812e-ce1a-4143-b46e-0013ff7952ba{fill:#f1b82d;}</style></defs><title>mu-wordmark-large</title><path d="M11.68,24.3c0,6.6,2.76,12.36,11,12.36,5.76,0,10.73-3.2,10.73-14.92V12c0-6.84-1.43-6.84-6.5-6.84-0.39,0-.39-0.3-0.39-0.74s0.15-.74.39-0.74c0.84,0,4,.2,7.24.2,1.53,0,5.71-.2,6.4-0.2,0.49,0,.69.1,0.69,0.84a0.54,0.54,0,0,1-.44.64c-4.73,0-5.71,0-5.71,5.81V22.63c0,13.29-8.47,16.84-14.18,16.84-11,0-14.13-7.38-14.13-12.8V15.39c0-3.49,0-4.68-.1-6.94,0-2.91-.88-3.3-5.17-3.3C1,5.15,1,4.76,1,4.32a0.53,0.53,0,0,1,.44-0.64c0.39,0,4.68.2,7.78,0.2s7.43-.2,7.83-0.2a0.53,0.53,0,0,1,.44.64c0,0.44,0,.84-0.54.84-4.28,0-5.12.39-5.17,3.3-0.05,2.26-.1,3.45-0.1,6.94V24.3Z" transform="translate(-1 -2)"/><path d="M49.63,34.2c0,2.81.1,3.4,2.27,3.4,1.33,0,1.43,0,1.43.64,0,0.29,0,.64-0.49.64-0.25,0-.89-0.1-4.33-0.1-4.63,0-5.91.1-6.65,0.1-0.39,0-.39-0.29-0.39-0.54,0-.64,0-0.74,1.87-0.74a1.84,1.84,0,0,0,2-1.18,49.64,49.64,0,0,0,.3-7.09V22.58c0-1.72-.44-2.71-2.91-3A0.46,0.46,0,0,1,42.3,19a0.61,0.61,0,0,1,.39-0.69c5.61-1.13,6.3-2.41,6.89-2.41,0.1,0,.15.15,0.15,0.54s-0.1,1.38-.1,3.55c2.56-1.72,5.07-3.4,7.73-3.4,1.67,0,6.5.34,6.5,7.39V35.82c0,0.84.15,1.77,3.2,1.77,0.49,0,.49.3,0.49,0.64s0,0.64-.69.64c-1.48,0-2.36-.1-5-0.1-4,0-4.78.1-5.17,0.1s-0.34-.34-0.34-0.59a0.63,0.63,0,0,1,.69-0.69c2.36,0,2.81-.2,2.81-1.82V27c0-4.58-.39-7.63-5.51-7.63-1.87,0-4.53,1.67-4.73,2.26V34.2Z" transform="translate(-1 -2)"/><path d="M77.25,34.2c0,2.81.1,3.4,2.27,3.4,1.08,0,1.18,0,1.18.64,0,0.29,0,.64-0.49.64-0.25,0-.89-0.1-4.09-0.1-4.63,0-5.91.1-6.65,0.1-0.39,0-.39-0.29-0.39-0.54,0-.64.05-0.74,1.87-0.74a1.84,1.84,0,0,0,2-1.18,49.67,49.67,0,0,0,.3-7.09V22.58c0-1.72-.44-2.71-2.91-3A0.46,0.46,0,0,1,69.91,19a0.61,0.61,0,0,1,.39-0.69c5.61-1.13,6.3-2.41,6.89-2.41,0.2,0,.3.25,0.3,0.54s-0.25.69-.25,7.09V34.2ZM72.67,6.48a2.56,2.56,0,1,1,2.56,2.61A2.62,2.62,0,0,1,72.67,6.48Z" transform="translate(-1 -2)"/><path d="M99.84,20.17c0-1.43-2.56-1.43-3.3-1.43a0.56,0.56,0,0,1-.44-0.69,0.61,0.61,0,0,1,.64-0.59c1.33,0,2.86.1,4.23,0.1s2.9-.1,4.33-0.1a0.51,0.51,0,0,1,.44.59,0.45,0.45,0,0,1-.49.54c-2.85.44-3,.64-4.58,4.48C99,27.31,96,33.51,95.12,35.58c-1.38,3.3-1.82,3.89-2.21,3.89S92,38.43,91,36.32c-1.72-3.69-5.81-15.71-6.5-16.69a1.69,1.69,0,0,0-1.72-.79c-1.33,0-1.53-.15-1.53-0.84a0.52,0.52,0,0,1,.54-0.54c1.57,0,3.1.1,4.68,0.1,1,0,4.87-.1,5.86-0.1,0.34,0,.39.44,0.39,0.69a0.59,0.59,0,0,1-.49.59c-1.48,0-2.86.15-2.86,1.18,0,1.62,4,11.57,5,13.74C99.06,23.37,99.84,21.5,99.84,20.17Z" transform="translate(-1 -2)"/><path d="M109.44,25.48a17.84,17.84,0,0,0-.2,2.81c0,3.2,2.71,8.12,8.07,8.12a6.42,6.42,0,0,0,5.76-3,1.79,1.79,0,0,1,.74-0.84,1,1,0,0,1,.79.59c0,0.15-2,6.25-8.47,6.25-7,0-10.73-4.33-10.73-11.22s4.78-11.82,9.85-11.82c8.17,0,8.81,7,8.81,8.52,0,0.49-.2.54-0.59,0.54h-14ZM117.91,24a1.41,1.41,0,0,0,1.67-1.63c0-3.84-2.66-4.68-4.33-4.68-3.54,0-5,3-5.51,6.3h8.17Z" transform="translate(-1 -2)"/><path d="M131,22.58c0-1.72-.44-2.71-2.9-3A0.46,0.46,0,0,1,127.6,19a0.61,0.61,0,0,1,.39-0.69c5.61-1.13,6.3-2.41,6.89-2.41a0.57,0.57,0,0,1,.2.49c0,0.59-.25,1.82-0.25,4.48,1.62-1.82,4.28-4.28,6.89-4.28,1.72,0,3.15.94,3.15,2.76a2.42,2.42,0,0,1-2.41,2.46c-2,0-2.31-1.87-3.79-1.87a5.53,5.53,0,0,0-3.4,2.12,2.07,2.07,0,0,0-.34,1.43V34.69c0,1.82,0,2.91,2.46,2.91,1.82,0,2,0,2,.59s-0.2.69-.74,0.69c-1.77,0-3.35-.1-5.61-0.1-3.94,0-4.78.1-5.71,0.1-0.35,0-.44-0.29-0.44-0.64s0.59-.64,1.53-0.64c2.12,0,2.51-.39,2.51-2.51V22.58Z" transform="translate(-1 -2)"/><path d="M161.67,32.77c0,2.41-1.28,6.7-8,6.7-0.89,0-3.74-.39-5.66-0.39a0.31,0.31,0,0,1-.25-0.25c0-.49-1.13-4.82-1.13-5.32,0-.3.69-0.3,0.88-0.3,1.18,0,1.48,5,6.2,5a4.19,4.19,0,0,0,4.48-4.38c0-5.17-11-3.5-11-10.49,0-4,3.35-6.7,7.48-6.7a39.71,39.71,0,0,1,5.32.44,1.4,1.4,0,0,1,.74,1.38c0.1,2,.54,3.3.54,3.94a0.46,0.46,0,0,1-.54.39,0.87,0.87,0,0,1-1-.69c-0.34-.84-1.62-4.18-5.12-4.18-2.31,0-3.94,1.33-3.94,3.69a3.74,3.74,0,0,0,2.32,3.3C158.12,27.35,161.67,27.21,161.67,32.77Z" transform="translate(-1 -2)"/><path d="M172.3,34.2c0,2.81.1,3.4,2.26,3.4,1.08,0,1.18,0,1.18.64,0,0.29,0,.64-0.49.64-0.25,0-.89-0.1-4.09-0.1-4.63,0-5.91.1-6.65,0.1-0.39,0-.39-0.29-0.39-0.54,0-.64,0-0.74,1.87-0.74a1.84,1.84,0,0,0,2-1.18,50,50,0,0,0,.29-7.09V22.58c0-1.72-.44-2.71-2.9-3A0.46,0.46,0,0,1,165,19a0.61,0.61,0,0,1,.39-0.69c5.61-1.13,6.3-2.41,6.89-2.41a0.45,0.45,0,0,1,.3.54c0,0.2-.25.69-0.25,7.09V34.2ZM167.72,6.48a2.56,2.56,0,1,1,2.56,2.61A2.62,2.62,0,0,1,167.72,6.48Z" transform="translate(-1 -2)"/><path d="M184.21,30.11c0,5.22.44,7.09,4.33,7.09a8.11,8.11,0,0,0,3.35-1.13,1,1,0,0,1,.54.79c0,0.29-2.07,2.61-6.55,2.61-5.66,0-5.66-4.87-5.66-6.1V20.41a0.52,0.52,0,0,0-.49-0.64h-2.46a0.37,0.37,0,0,1-.29-0.44,0.86,0.86,0,0,1,.29-0.69c4.58-3.45,5.51-6.06,6.5-6.06a0.58,0.58,0,0,1,.59.64c0,0.89-.15,1.72-0.15,4.53h7.58c0.34,0,.49.34,0.49,1A1.14,1.14,0,0,1,191,20c-0.34,0-2.66-.25-6.74-0.25V30.11Z" transform="translate(-1 -2)"/><path d="M213.94,20.41c0-1.62-2.32-1.67-3.79-1.67-0.44,0-.49-0.25-0.49-0.64a0.57,0.57,0,0,1,.44-0.64c1.57,0,3.2.1,4.77,0.1s3.05-.1,4.58-0.1c0.34,0,.34.44,0.34,0.64,0,0.44-.15.59-0.84,0.64-1.67.15-2.36,0.44-3.1,2.17C214.09,25,207.3,39.27,206.21,42c-3.79,9.5-5.42,10.14-7,10.14a2.78,2.78,0,1,1,.1-5.56c1.23,0,1.87.84,2.46,0.84,0.88,0,3.2-4.72,3.2-7,0-1.23-1.18-4.13-1.72-5.51-3.1-8-4-12.26-5.07-15-0.44-1.13-2.9-1.13-3.54-1.13a0.56,0.56,0,0,1-.44-0.69,0.53,0.53,0,0,1,.54-0.59c0.59,0,3.69.1,5.46,0.1s3.4-.1,4.88-0.1a0.54,0.54,0,0,1,.59.64,0.59,0.59,0,0,1-.49.64c-0.29,0-2.41,0-2.41,1.08,0,2.36,1.67,7.24,4.87,15.46C209.86,30.6,213.94,21.94,213.94,20.41Z" transform="translate(-1 -2)"/><path d="M244.75,39.47A11,11,0,0,1,233.33,28a11.45,11.45,0,0,1,22.89,0C256.22,34.94,251.65,39.47,244.75,39.47Zm0-21.56C239.63,17.9,238,23.22,238,28c0,4.19,1,10.14,6.74,10.14s6.79-6,6.79-10.14C251.55,23.22,249.92,17.9,244.75,17.9Z" transform="translate(-1 -2)"/><path d="M267.44,34.69c0,1.82,0,2.91,2.46,2.91,1.82,0,2,0,2,.59s-0.2.69-.74,0.69c-1.77,0-3.35-.1-5.61-0.1-3.94,0-4.77.1-5.22,0.1s-0.44-.29-0.44-0.64,0.1-.64,1-0.64c2.12,0,2.51-.39,2.51-2.51V21.35c0-.59,0-1.57-0.94-1.57h-2.71c-0.35,0-.59,0-0.59-0.64,0-.39.34-0.59,1.53-0.84,1.92-.44,2.41-0.54,2.56-2.76C263.8,8.06,266,3.92,271.83,2.39a14.77,14.77,0,0,1,3-.39c1.28,0,3.1.49,3.1,2.12a2.2,2.2,0,0,1-2.31,2.41,4.4,4.4,0,0,1-2.71-1.13,4.54,4.54,0,0,0-2.17-1.13c-2.81,0-3.3,4.09-3.3,7.14v6.35h6.11c0.35,0,.49.34,0.49,1A1.14,1.14,0,0,1,272.71,20c-0.34,0-4.14-.25-5.27-0.25V34.69Z" transform="translate(-1 -2)"/><path d="M328.53,4.22a0.61,0.61,0,0,1,.59-0.54c0.25,0,3.84.2,5,.2,0.84,0,5-.2,5.37-0.2S340,4.07,340,4.51a0.54,0.54,0,0,1-.59.64c-4.43,0-5,.34-5,2.61,0,3.2.54,13.54,1,27.32a2.43,2.43,0,0,0,2.71,2.32c2.76,0,2.8.29,2.8,0.64,0,0.74-.25.84-0.54,0.84s-1-.1-7.83-0.1c-6.4,0-6.7.1-7.09,0.1S325,38.53,325,38.09s0.1-.69,2.36-0.69c3.25,0,3.3-.79,3.3-2.76,0-3-.74-18.86-1.13-28.06h-0.1C325.82,15.79,321.3,26.37,318,34.3c-1.87,4.53-1.87,5.07-2.51,5.07s-0.74-.44-1.77-3.84-9.11-25.31-9.31-25.31c-0.84,3.59-4.08,19.94-4.08,24.86,0,1.53.84,2.32,2.46,2.32,1.23,0,2.66.1,2.66,0.39,0,0.94,0,1.08-.54,1.08s-0.89-.1-6-0.1c-4.48,0-4.83.1-5.12,0.1s-0.54-.05-0.54-0.84c0-.49.25-0.64,2.61-0.64,1.72,0,2.07-.64,2.61-3.45,1.33-7.09,2.51-14.23,4-21.32A21.58,21.58,0,0,0,303.23,8a5.17,5.17,0,0,0-1.28-2.46,16.7,16.7,0,0,0-4.23-.39c-0.59,0-.59-0.39-0.59-0.74s0.1-.74.54-0.74c0.94,0,5.17.2,5.71,0.2,1.28,0,3.35-.2,4-0.2s0.69,0.54,1.18,2.31c1,3.69,8.17,23.63,9.06,25.45C321.3,22.73,325,13.72,328.53,4.22Z" transform="translate(-1 -2)"/><path d="M350.43,34.2c0,2.81.1,3.4,2.26,3.4,1.08,0,1.18,0,1.18.64,0,0.29,0,.64-0.49.64-0.25,0-.89-0.1-4.08-0.1-4.63,0-5.91.1-6.65,0.1-0.39,0-.39-0.29-0.39-0.54,0-.64,0-0.74,1.87-0.74a1.84,1.84,0,0,0,2-1.18,49.51,49.51,0,0,0,.3-7.09V22.58c0-1.72-.44-2.71-2.91-3A0.46,0.46,0,0,1,343.1,19a0.61,0.61,0,0,1,.39-0.69c5.61-1.13,6.3-2.41,6.89-2.41,0.2,0,.3.25,0.3,0.54s-0.25.69-.25,7.09V34.2ZM345.85,6.48a2.56,2.56,0,1,1,2.56,2.61A2.62,2.62,0,0,1,345.85,6.48Z" transform="translate(-1 -2)"/><path d="M371.7,32.77c0,2.41-1.28,6.7-8,6.7-0.88,0-3.74-.39-5.66-0.39a0.31,0.31,0,0,1-.25-0.25c0-.49-1.13-4.82-1.13-5.32,0-.3.69-0.3,0.88-0.3,1.18,0,1.48,5,6.21,5a4.19,4.19,0,0,0,4.48-4.38c0-5.17-11-3.5-11-10.49,0-4,3.35-6.7,7.48-6.7a39.66,39.66,0,0,1,5.32.44,1.4,1.4,0,0,1,.74,1.38c0.1,2,.54,3.3.54,3.94a0.46,0.46,0,0,1-.54.39,0.87,0.87,0,0,1-1-.69c-0.34-.84-1.62-4.18-5.12-4.18-2.31,0-3.94,1.33-3.94,3.69a3.74,3.74,0,0,0,2.31,3.3C368.15,27.35,371.7,27.21,371.7,32.77Z" transform="translate(-1 -2)"/><path d="M389.91,32.77c0,2.41-1.28,6.7-8,6.7-0.89,0-3.74-.39-5.66-0.39a0.32,0.32,0,0,1-.25-0.25c0-.49-1.13-4.82-1.13-5.32,0-.3.69-0.3,0.88-0.3,1.18,0,1.48,5,6.2,5a4.19,4.19,0,0,0,4.48-4.38c0-5.17-11-3.5-11-10.49,0-4,3.35-6.7,7.48-6.7a39.61,39.61,0,0,1,5.32.44,1.4,1.4,0,0,1,.74,1.38c0.1,2,.54,3.3.54,3.94a0.46,0.46,0,0,1-.54.39,0.87,0.87,0,0,1-1-.69c-0.34-.84-1.62-4.18-5.12-4.18-2.31,0-3.94,1.33-3.94,3.69a3.74,3.74,0,0,0,2.31,3.3C386.37,27.35,389.91,27.21,389.91,32.77Z" transform="translate(-1 -2)"/><path d="M404.92,39.47A11,11,0,0,1,393.5,28a11.45,11.45,0,0,1,22.89,0C416.39,34.94,411.81,39.47,404.92,39.47Zm0-21.56c-5.12,0-6.74,5.32-6.74,10.14,0,4.19,1,10.14,6.74,10.14s6.79-6,6.79-10.14C411.72,23.22,410.09,17.9,404.92,17.9Z" transform="translate(-1 -2)"/><path d="M422.54,23.52c0-4.33-.49-4.63-3.05-4.63-0.39,0-1.08,0-1.08-.49s0-1,.54-1,1.28,0.15,2.91.15,3.59-.15,4.28-0.15c0.3,0,.4,0,0.4.69V31.39c0,3.69,1.18,5.81,4.82,5.81,1.77,0,4.87-1.08,4.87-2.61V21.84c0-2.66-.49-3-3.05-3-0.89,0-1.58,0-1.58-.49,0-.74,0-1,0.35-1,0.69,0,1.28.15,4.28,0.15,1.23,0,2.51-.15,3.74-0.15a0.6,0.6,0,0,1,.69.69c0,0.2-.44,4-0.44,7.48v9.25c0,0.79,0,1.82,1.23,1.82,0.69,0,1.77-.2,2.12-0.2,0.19,0,.29,0,0.29.94,0,0.29,0,.39-1.63.64a45.21,45.21,0,0,0-5.66,1.28,0.66,0.66,0,0,1-.59-0.69c0-.59.1-1.38,0.15-1.87a13.65,13.65,0,0,1-7.33,2.71c-4.88,0-6.25-3.15-6.25-8.27V23.52Z" transform="translate(-1 -2)"/><path d="M449.42,22.58c0-1.72-.44-2.71-2.9-3a0.46,0.46,0,0,1-.44-0.59,0.61,0.61,0,0,1,.39-0.69c5.61-1.13,6.3-2.41,6.89-2.41a0.58,0.58,0,0,1,.2.49c0,0.59-.25,1.82-0.25,4.48,1.62-1.82,4.28-4.28,6.89-4.28,1.72,0,3.15.94,3.15,2.76a2.43,2.43,0,0,1-2.41,2.46c-2,0-2.31-1.87-3.79-1.87a5.53,5.53,0,0,0-3.4,2.12,2.08,2.08,0,0,0-.34,1.43V34.69c0,1.82,0,2.91,2.46,2.91,1.82,0,2,0,2,.59s-0.2.69-.74,0.69c-1.77,0-3.35-.1-5.61-0.1-3.94,0-4.78.1-5.71,0.1-0.35,0-.45-0.29-0.45-0.64s0.59-.64,1.53-0.64c2.12,0,2.51-.39,2.51-2.51V22.58Z" transform="translate(-1 -2)"/><path d="M472.55,34.2c0,2.81.1,3.4,2.26,3.4,1.08,0,1.18,0,1.18.64,0,0.29,0,.64-0.49.64-0.25,0-.88-0.1-4.08-0.1-4.63,0-5.91.1-6.65,0.1-0.39,0-.39-0.29-0.39-0.54,0-.64.05-0.74,1.87-0.74a1.84,1.84,0,0,0,2-1.18,50,50,0,0,0,.29-7.09V22.58c0-1.72-.44-2.71-2.9-3a0.46,0.46,0,0,1-.44-0.59,0.61,0.61,0,0,1,.39-0.69c5.61-1.13,6.3-2.41,6.89-2.41,0.2,0,.29.25,0.29,0.54s-0.25.69-.25,7.09V34.2ZM468,6.48a2.56,2.56,0,1,1,2.56,2.61A2.62,2.62,0,0,1,468,6.48Z" transform="translate(-1 -2)"/><path class="d1251214-b1d2-4fcd-9cc4-667fe43ddda6" d="M11.68,80.3c0,6.6,2.76,12.36,11,12.36,5.76,0,10.73-3.2,10.73-14.92V68c0-6.84-1.43-6.84-6.5-6.84-0.39,0-.39-0.3-0.39-0.74s0.15-.74.39-0.74c0.84,0,4,.2,7.24.2,1.53,0,5.71-.2,6.4-0.2,0.49,0,.69.1,0.69,0.84a0.54,0.54,0,0,1-.44.64c-4.73,0-5.71,0-5.71,5.81V78.63c0,13.29-8.47,16.84-14.18,16.84-11,0-14.13-7.38-14.13-12.8V71.39c0-3.49,0-4.68-.1-6.94,0-2.91-.88-3.3-5.17-3.3C1,61.15,1,60.76,1,60.32a0.53,0.53,0,0,1,.44-0.64c0.39,0,4.68.2,7.78,0.2s7.43-.2,7.83-0.2a0.53,0.53,0,0,1,.44.64c0,0.44,0,.84-0.54.84-4.28,0-5.12.39-5.17,3.3-0.05,2.26-.1,3.45-0.1,6.94V80.3Z" transform="translate(-1 -2)"/><path class="d1251214-b1d2-4fcd-9cc4-667fe43ddda6" d="M49.63,90.2c0,2.81.1,3.4,2.27,3.4,1.33,0,1.43,0,1.43.64,0,0.29,0,.64-0.49.64-0.25,0-.89-0.1-4.33-0.1-4.63,0-5.91.1-6.65,0.1-0.39,0-.39-0.29-0.39-0.54,0-.64,0-0.74,1.87-0.74a1.84,1.84,0,0,0,2-1.18,49.64,49.64,0,0,0,.3-7.09V78.58c0-1.72-.44-2.71-2.91-3A0.46,0.46,0,0,1,42.3,75a0.61,0.61,0,0,1,.39-0.69c5.61-1.13,6.3-2.41,6.89-2.41,0.1,0,.15.15,0.15,0.54s-0.1,1.38-.1,3.55c2.56-1.72,5.07-3.4,7.73-3.4,1.67,0,6.5.34,6.5,7.39V91.82c0,0.84.15,1.77,3.2,1.77,0.49,0,.49.3,0.49,0.64s0,0.64-.69.64c-1.48,0-2.36-.1-5-0.1-4,0-4.78.1-5.17,0.1s-0.34-.34-0.34-0.59a0.63,0.63,0,0,1,.69-0.69c2.36,0,2.81-.2,2.81-1.82V83c0-4.58-.39-7.63-5.51-7.63-1.87,0-4.53,1.67-4.73,2.26V90.2Z" transform="translate(-1 -2)"/><path class="d1251214-b1d2-4fcd-9cc4-667fe43ddda6" d="M77.25,90.2c0,2.81.1,3.4,2.27,3.4,1.08,0,1.18,0,1.18.64,0,0.29,0,.64-0.49.64-0.25,0-.89-0.1-4.09-0.1-4.63,0-5.91.1-6.65,0.1-0.39,0-.39-0.29-0.39-0.54,0-.64.05-0.74,1.87-0.74a1.84,1.84,0,0,0,2-1.18,49.67,49.67,0,0,0,.3-7.09V78.58c0-1.72-.44-2.71-2.91-3A0.46,0.46,0,0,1,69.91,75a0.61,0.61,0,0,1,.39-0.69c5.61-1.13,6.3-2.41,6.89-2.41,0.2,0,.3.25,0.3,0.54s-0.25.69-.25,7.09V90.2ZM72.67,62.48a2.56,2.56,0,1,1,2.56,2.61A2.62,2.62,0,0,1,72.67,62.48Z" transform="translate(-1 -2)"/><path class="d1251214-b1d2-4fcd-9cc4-667fe43ddda6" d="M99.84,76.17c0-1.43-2.56-1.43-3.3-1.43a0.56,0.56,0,0,1-.44-0.69,0.61,0.61,0,0,1,.64-0.59c1.33,0,2.86.1,4.23,0.1s2.9-.1,4.33-0.1a0.51,0.51,0,0,1,.44.59,0.45,0.45,0,0,1-.49.54c-2.85.44-3,.64-4.58,4.48C99,83.31,96,89.51,95.12,91.58c-1.38,3.3-1.82,3.89-2.21,3.89S92,94.43,91,92.32c-1.72-3.69-5.81-15.71-6.5-16.69a1.69,1.69,0,0,0-1.72-.79c-1.33,0-1.53-.15-1.53-0.84a0.52,0.52,0,0,1,.54-0.54c1.57,0,3.1.1,4.68,0.1,1,0,4.87-.1,5.86-0.1,0.34,0,.39.44,0.39,0.69a0.59,0.59,0,0,1-.49.59c-1.48,0-2.86.15-2.86,1.18,0,1.62,4,11.57,5,13.74C99.06,79.37,99.84,77.5,99.84,76.17Z" transform="translate(-1 -2)"/><path class="d1251214-b1d2-4fcd-9cc4-667fe43ddda6" d="M109.44,81.48a17.84,17.84,0,0,0-.2,2.81c0,3.2,2.71,8.12,8.07,8.12a6.42,6.42,0,0,0,5.76-3,1.79,1.79,0,0,1,.74-0.84,1,1,0,0,1,.79.59c0,0.15-2,6.25-8.47,6.25-7,0-10.73-4.33-10.73-11.22s4.78-11.82,9.85-11.82c8.17,0,8.81,7,8.81,8.52,0,0.49-.2.54-0.59,0.54h-14ZM117.91,80a1.41,1.41,0,0,0,1.67-1.63c0-3.84-2.66-4.68-4.33-4.68-3.54,0-5,3-5.51,6.3h8.17Z" transform="translate(-1 -2)"/><path class="d1251214-b1d2-4fcd-9cc4-667fe43ddda6" d="M131,78.58c0-1.72-.44-2.71-2.9-3A0.46,0.46,0,0,1,127.6,75a0.61,0.61,0,0,1,.39-0.69c5.61-1.13,6.3-2.41,6.89-2.41a0.57,0.57,0,0,1,.2.49c0,0.59-.25,1.82-0.25,4.48,1.62-1.82,4.28-4.28,6.89-4.28,1.72,0,3.15.94,3.15,2.76a2.42,2.42,0,0,1-2.41,2.46c-2,0-2.31-1.87-3.79-1.87a5.53,5.53,0,0,0-3.4,2.12,2.07,2.07,0,0,0-.34,1.43V90.69c0,1.82,0,2.91,2.46,2.91,1.82,0,2,0,2,.59s-0.2.69-.74,0.69c-1.77,0-3.35-.1-5.61-0.1-3.94,0-4.78.1-5.71,0.1-0.35,0-.44-0.29-0.44-0.64s0.59-.64,1.53-0.64c2.12,0,2.51-.39,2.51-2.51V78.58Z" transform="translate(-1 -2)"/><path class="d1251214-b1d2-4fcd-9cc4-667fe43ddda6" d="M161.67,88.77c0,2.41-1.28,6.7-8,6.7-0.89,0-3.74-.39-5.66-0.39a0.31,0.31,0,0,1-.25-0.25c0-.49-1.13-4.82-1.13-5.32,0-.3.69-0.3,0.88-0.3,1.18,0,1.48,5,6.2,5a4.19,4.19,0,0,0,4.48-4.38c0-5.17-11-3.5-11-10.49,0-4,3.35-6.7,7.48-6.7a39.71,39.71,0,0,1,5.32.44,1.4,1.4,0,0,1,.74,1.38c0.1,2,.54,3.3.54,3.94a0.46,0.46,0,0,1-.54.39,0.87,0.87,0,0,1-1-.69c-0.34-.84-1.62-4.18-5.12-4.18-2.31,0-3.94,1.33-3.94,3.69a3.74,3.74,0,0,0,2.32,3.3C158.12,83.35,161.67,83.21,161.67,88.77Z" transform="translate(-1 -2)"/><path class="d1251214-b1d2-4fcd-9cc4-667fe43ddda6" d="M172.3,90.2c0,2.81.1,3.4,2.26,3.4,1.08,0,1.18,0,1.18.64,0,0.29,0,.64-0.49.64-0.25,0-.89-0.1-4.09-0.1-4.63,0-5.91.1-6.65,0.1-0.39,0-.39-0.29-0.39-0.54,0-.64,0-0.74,1.87-0.74a1.84,1.84,0,0,0,2-1.18,50,50,0,0,0,.29-7.09V78.58c0-1.72-.44-2.71-2.9-3A0.46,0.46,0,0,1,165,75a0.61,0.61,0,0,1,.39-0.69c5.61-1.13,6.3-2.41,6.89-2.41a0.45,0.45,0,0,1,.3.54c0,0.2-.25.69-0.25,7.09V90.2Zm-4.58-27.72a2.56,2.56,0,1,1,2.56,2.61A2.62,2.62,0,0,1,167.72,62.48Z" transform="translate(-1 -2)"/><path class="d1251214-b1d2-4fcd-9cc4-667fe43ddda6" d="M184.21,86.11c0,5.22.44,7.09,4.33,7.09a8.11,8.11,0,0,0,3.35-1.13,1,1,0,0,1,.54.79c0,0.29-2.07,2.61-6.55,2.61-5.66,0-5.66-4.87-5.66-6.1V76.41a0.52,0.52,0,0,0-.49-0.64h-2.46a0.37,0.37,0,0,1-.29-0.44,0.86,0.86,0,0,1,.29-0.69c4.58-3.45,5.51-6.06,6.5-6.06a0.58,0.58,0,0,1,.59.64c0,0.89-.15,1.72-0.15,4.53h7.58c0.34,0,.49.34,0.49,1A1.14,1.14,0,0,1,191,76c-0.34,0-2.66-.25-6.74-0.25V86.11Z" transform="translate(-1 -2)"/><path class="d1251214-b1d2-4fcd-9cc4-667fe43ddda6" d="M213.94,76.41c0-1.62-2.32-1.67-3.79-1.67-0.44,0-.49-0.25-0.49-0.64a0.57,0.57,0,0,1,.44-0.64c1.57,0,3.2.1,4.77,0.1s3.05-.1,4.58-0.1c0.34,0,.34.44,0.34,0.64,0,0.44-.15.59-0.84,0.64-1.67.15-2.36,0.44-3.1,2.17C214.09,81,207.3,95.27,206.21,98c-3.79,9.5-5.42,10.14-7,10.14a2.78,2.78,0,1,1,.1-5.56c1.23,0,1.87.84,2.46,0.84,0.88,0,3.2-4.72,3.2-7,0-1.23-1.18-4.13-1.72-5.51-3.1-8-4-12.26-5.07-15-0.44-1.13-2.9-1.13-3.54-1.13a0.56,0.56,0,0,1-.44-0.69,0.53,0.53,0,0,1,.54-0.59c0.59,0,3.69.1,5.46,0.1s3.4-.1,4.88-0.1a0.54,0.54,0,0,1,.59.64,0.59,0.59,0,0,1-.49.64c-0.29,0-2.41,0-2.41,1.08,0,2.36,1.67,7.24,4.87,15.46C209.86,86.6,213.94,77.94,213.94,76.41Z" transform="translate(-1 -2)"/><path class="d1251214-b1d2-4fcd-9cc4-667fe43ddda6" d="M244.75,95.47A11,11,0,0,1,233.33,84a11.45,11.45,0,0,1,22.89,0C256.22,90.94,251.65,95.47,244.75,95.47Zm0-21.56C239.63,73.9,238,79.22,238,84c0,4.19,1,10.14,6.74,10.14s6.79-6,6.79-10.14C251.55,79.22,249.92,73.9,244.75,73.9Z" transform="translate(-1 -2)"/><path class="d1251214-b1d2-4fcd-9cc4-667fe43ddda6" d="M267.44,90.69c0,1.82,0,2.91,2.46,2.91,1.82,0,2,0,2,.59s-0.2.69-.74,0.69c-1.77,0-3.35-.1-5.61-0.1-3.94,0-4.77.1-5.22,0.1s-0.44-.29-0.44-0.64,0.1-.64,1-0.64c2.12,0,2.51-.39,2.51-2.51V77.35c0-.59,0-1.57-0.94-1.57h-2.71c-0.35,0-.59,0-0.59-0.64,0-.39.34-0.59,1.53-0.84,1.92-.44,2.41-0.54,2.56-2.76,0.49-7.48,2.71-11.62,8.52-13.14a14.77,14.77,0,0,1,3-.39c1.28,0,3.1.49,3.1,2.12a2.2,2.2,0,0,1-2.31,2.41,4.4,4.4,0,0,1-2.71-1.13,4.54,4.54,0,0,0-2.17-1.13c-2.81,0-3.3,4.09-3.3,7.14v6.35h6.11c0.35,0,.49.34,0.49,1A1.14,1.14,0,0,1,272.71,76c-0.34,0-4.14-.25-5.27-0.25V90.69Z" transform="translate(-1 -2)"/><path class="d1251214-b1d2-4fcd-9cc4-667fe43ddda6" d="M328.53,60.22a0.61,0.61,0,0,1,.59-0.54c0.25,0,3.84.2,5,.2,0.84,0,5-.2,5.37-0.2s0.54,0.39.54,0.84a0.54,0.54,0,0,1-.59.64c-4.43,0-5,.34-5,2.61,0,3.2.54,13.54,1,27.32a2.43,2.43,0,0,0,2.71,2.32c2.76,0,2.8.29,2.8,0.64,0,0.74-.25.84-0.54,0.84s-1-.1-7.83-0.1c-6.4,0-6.7.1-7.09,0.1S325,94.53,325,94.09s0.1-.69,2.36-0.69c3.25,0,3.3-.79,3.3-2.76,0-3-.74-18.86-1.13-28.06h-0.1C325.82,71.79,321.3,82.37,318,90.3c-1.87,4.53-1.87,5.07-2.51,5.07s-0.74-.44-1.77-3.84-9.11-25.31-9.31-25.31c-0.84,3.59-4.08,19.94-4.08,24.86,0,1.53.84,2.32,2.46,2.32,1.23,0,2.66.1,2.66,0.39,0,0.94,0,1.08-.54,1.08s-0.89-.1-6-0.1c-4.48,0-4.83.1-5.12,0.1s-0.54-.05-0.54-0.84c0-.49.25-0.64,2.61-0.64,1.72,0,2.07-.64,2.61-3.45,1.33-7.09,2.51-14.23,4-21.32a21.58,21.58,0,0,0,.64-4.63,5.17,5.17,0,0,0-1.28-2.46,16.7,16.7,0,0,0-4.23-.39c-0.59,0-.59-0.39-0.59-0.74s0.1-.74.54-0.74c0.94,0,5.17.2,5.71,0.2,1.28,0,3.35-.2,4-0.2s0.69,0.54,1.18,2.31c1,3.69,8.17,23.63,9.06,25.45C321.3,78.73,325,69.72,328.53,60.22Z" transform="translate(-1 -2)"/><path class="d1251214-b1d2-4fcd-9cc4-667fe43ddda6" d="M350.43,90.2c0,2.81.1,3.4,2.26,3.4,1.08,0,1.18,0,1.18.64,0,0.29,0,.64-0.49.64-0.25,0-.89-0.1-4.08-0.1-4.63,0-5.91.1-6.65,0.1-0.39,0-.39-0.29-0.39-0.54,0-.64,0-0.74,1.87-0.74a1.84,1.84,0,0,0,2-1.18,49.51,49.51,0,0,0,.3-7.09V78.58c0-1.72-.44-2.71-2.91-3A0.46,0.46,0,0,1,343.1,75a0.61,0.61,0,0,1,.39-0.69c5.61-1.13,6.3-2.41,6.89-2.41,0.2,0,.3.25,0.3,0.54s-0.25.69-.25,7.09V90.2Zm-4.58-27.72a2.56,2.56,0,1,1,2.56,2.61A2.62,2.62,0,0,1,345.85,62.48Z" transform="translate(-1 -2)"/><path class="d1251214-b1d2-4fcd-9cc4-667fe43ddda6" d="M371.7,88.77c0,2.41-1.28,6.7-8,6.7-0.88,0-3.74-.39-5.66-0.39a0.31,0.31,0,0,1-.25-0.25c0-.49-1.13-4.82-1.13-5.32,0-.3.69-0.3,0.88-0.3,1.18,0,1.48,5,6.21,5a4.19,4.19,0,0,0,4.48-4.38c0-5.17-11-3.5-11-10.49,0-4,3.35-6.7,7.48-6.7a39.66,39.66,0,0,1,5.32.44,1.4,1.4,0,0,1,.74,1.38c0.1,2,.54,3.3.54,3.94a0.46,0.46,0,0,1-.54.39,0.87,0.87,0,0,1-1-.69c-0.34-.84-1.62-4.18-5.12-4.18-2.31,0-3.94,1.33-3.94,3.69a3.74,3.74,0,0,0,2.31,3.3C368.15,83.35,371.7,83.21,371.7,88.77Z" transform="translate(-1 -2)"/><path class="d1251214-b1d2-4fcd-9cc4-667fe43ddda6" d="M389.91,88.77c0,2.41-1.28,6.7-8,6.7-0.89,0-3.74-.39-5.66-0.39a0.32,0.32,0,0,1-.25-0.25c0-.49-1.13-4.82-1.13-5.32,0-.3.69-0.3,0.88-0.3,1.18,0,1.48,5,6.2,5a4.19,4.19,0,0,0,4.48-4.38c0-5.17-11-3.5-11-10.49,0-4,3.35-6.7,7.48-6.7a39.61,39.61,0,0,1,5.32.44,1.4,1.4,0,0,1,.74,1.38c0.1,2,.54,3.3.54,3.94a0.46,0.46,0,0,1-.54.39,0.87,0.87,0,0,1-1-.69c-0.34-.84-1.62-4.18-5.12-4.18-2.31,0-3.94,1.33-3.94,3.69a3.74,3.74,0,0,0,2.31,3.3C386.37,83.35,389.91,83.21,389.91,88.77Z" transform="translate(-1 -2)"/><path class="d1251214-b1d2-4fcd-9cc4-667fe43ddda6" d="M404.92,95.47A11,11,0,0,1,393.5,84a11.45,11.45,0,0,1,22.89,0C416.39,90.94,411.81,95.47,404.92,95.47Zm0-21.56c-5.12,0-6.74,5.32-6.74,10.14,0,4.19,1,10.14,6.74,10.14s6.79-6,6.79-10.14C411.72,79.22,410.09,73.9,404.92,73.9Z" transform="translate(-1 -2)"/><path class="d1251214-b1d2-4fcd-9cc4-667fe43ddda6" d="M422.54,79.52c0-4.33-.49-4.63-3.05-4.63-0.39,0-1.08,0-1.08-.49s0-1,.54-1,1.28,0.15,2.91.15,3.59-.15,4.28-0.15c0.3,0,.4,0,0.4.69V87.39c0,3.69,1.18,5.81,4.82,5.81,1.77,0,4.87-1.08,4.87-2.61V77.84c0-2.66-.49-3-3.05-3-0.89,0-1.58,0-1.58-.49,0-.74,0-1,0.35-1,0.69,0,1.28.15,4.28,0.15,1.23,0,2.51-.15,3.74-0.15a0.6,0.6,0,0,1,.69.69c0,0.2-.44,4-0.44,7.48v9.25c0,0.79,0,1.82,1.23,1.82,0.69,0,1.77-.2,2.12-0.2,0.19,0,.29,0,0.29.94,0,0.29,0,.39-1.63.64a45.21,45.21,0,0,0-5.66,1.28,0.66,0.66,0,0,1-.59-0.69c0-.59.1-1.38,0.15-1.87a13.65,13.65,0,0,1-7.33,2.71c-4.88,0-6.25-3.15-6.25-8.27V79.52Z" transform="translate(-1 -2)"/><path class="d1251214-b1d2-4fcd-9cc4-667fe43ddda6" d="M449.42,78.58c0-1.72-.44-2.71-2.9-3a0.46,0.46,0,0,1-.44-0.59,0.61,0.61,0,0,1,.39-0.69c5.61-1.13,6.3-2.41,6.89-2.41a0.58,0.58,0,0,1,.2.49c0,0.59-.25,1.82-0.25,4.48,1.62-1.82,4.28-4.28,6.89-4.28,1.72,0,3.15.94,3.15,2.76a2.43,2.43,0,0,1-2.41,2.46c-2,0-2.31-1.87-3.79-1.87a5.53,5.53,0,0,0-3.4,2.12,2.08,2.08,0,0,0-.34,1.43V90.69c0,1.82,0,2.91,2.46,2.91,1.82,0,2,0,2,.59s-0.2.69-.74,0.69c-1.77,0-3.35-.1-5.61-0.1-3.94,0-4.78.1-5.71,0.1-0.35,0-.45-0.29-0.45-0.64s0.59-.64,1.53-0.64c2.12,0,2.51-.39,2.51-2.51V78.58Z" transform="translate(-1 -2)"/><path class="d1251214-b1d2-4fcd-9cc4-667fe43ddda6" d="M472.55,90.2c0,2.81.1,3.4,2.26,3.4,1.08,0,1.18,0,1.18.64,0,0.29,0,.64-0.49.64-0.25,0-.88-0.1-4.08-0.1-4.63,0-5.91.1-6.65,0.1-0.39,0-.39-0.29-0.39-0.54,0-.64.05-0.74,1.87-0.74a1.84,1.84,0,0,0,2-1.18,50,50,0,0,0,.29-7.09V78.58c0-1.72-.44-2.71-2.9-3a0.46,0.46,0,0,1-.44-0.59,0.61,0.61,0,0,1,.39-0.69c5.61-1.13,6.3-2.41,6.89-2.41,0.2,0,.29.25,0.29,0.54s-0.25.69-.25,7.09V90.2ZM468,62.48a2.56,2.56,0,1,1,2.56,2.61A2.62,2.62,0,0,1,468,62.48Z" transform="translate(-1 -2)"/><path class="e5bd3892-7be1-4b3a-8e49-0ebf18425033" d="M11.68,136.3c0,6.6,2.76,12.36,11,12.36,5.76,0,10.73-3.2,10.73-14.92V124c0-6.84-1.43-6.84-6.5-6.84-0.39,0-.39-0.3-0.39-0.74s0.15-.74.39-0.74c0.84,0,4,.2,7.24.2,1.53,0,5.71-.2,6.4-0.2,0.49,0,.69.1,0.69,0.84a0.54,0.54,0,0,1-.44.64c-4.73,0-5.71,0-5.71,5.81v11.67c0,13.29-8.47,16.84-14.18,16.84-11,0-14.13-7.38-14.13-12.8V127.39c0-3.49,0-4.68-.1-6.94,0-2.91-.88-3.3-5.17-3.3C1,117.15,1,116.76,1,116.32a0.53,0.53,0,0,1,.44-0.64c0.39,0,4.68.2,7.78,0.2s7.43-.2,7.83-0.2a0.53,0.53,0,0,1,.44.64c0,0.44,0,.84-0.54.84-4.28,0-5.12.39-5.17,3.3-0.05,2.26-.1,3.45-0.1,6.94v8.91Z" transform="translate(-1 -2)"/><path class="e5bd3892-7be1-4b3a-8e49-0ebf18425033" d="M49.63,146.2c0,2.81.1,3.4,2.27,3.4,1.33,0,1.43,0,1.43.64,0,0.29,0,.64-0.49.64-0.25,0-.89-0.1-4.33-0.1-4.63,0-5.91.1-6.65,0.1-0.39,0-.39-0.29-0.39-0.54,0-.64,0-0.74,1.87-0.74a1.84,1.84,0,0,0,2-1.18,49.64,49.64,0,0,0,.3-7.09v-6.74c0-1.72-.44-2.71-2.91-3A0.46,0.46,0,0,1,42.3,131a0.61,0.61,0,0,1,.39-0.69c5.61-1.13,6.3-2.41,6.89-2.41,0.1,0,.15.15,0.15,0.54s-0.1,1.38-.1,3.55c2.56-1.72,5.07-3.4,7.73-3.4,1.67,0,6.5.34,6.5,7.39v11.81c0,0.84.15,1.77,3.2,1.77,0.49,0,.49.3,0.49,0.64s0,0.64-.69.64c-1.48,0-2.36-.1-5-0.1-4,0-4.78.1-5.17,0.1s-0.34-.34-0.34-0.59a0.63,0.63,0,0,1,.69-0.69c2.36,0,2.81-.2,2.81-1.82V139c0-4.58-.39-7.63-5.51-7.63-1.87,0-4.53,1.67-4.73,2.26v12.6Z" transform="translate(-1 -2)"/><path class="e5bd3892-7be1-4b3a-8e49-0ebf18425033" d="M77.25,146.2c0,2.81.1,3.4,2.27,3.4,1.08,0,1.18,0,1.18.64,0,0.29,0,.64-0.49.64-0.25,0-.89-0.1-4.09-0.1-4.63,0-5.91.1-6.65,0.1-0.39,0-.39-0.29-0.39-0.54,0-.64.05-0.74,1.87-0.74a1.84,1.84,0,0,0,2-1.18,49.67,49.67,0,0,0,.3-7.09v-6.74c0-1.72-.44-2.71-2.91-3a0.46,0.46,0,0,1-.44-0.59,0.61,0.61,0,0,1,.39-0.69c5.61-1.13,6.3-2.41,6.89-2.41,0.2,0,.3.25,0.3,0.54s-0.25.69-.25,7.09V146.2Zm-4.58-27.72a2.56,2.56,0,1,1,2.56,2.61A2.62,2.62,0,0,1,72.67,118.48Z" transform="translate(-1 -2)"/><path class="e5bd3892-7be1-4b3a-8e49-0ebf18425033" d="M99.84,132.17c0-1.43-2.56-1.43-3.3-1.43a0.56,0.56,0,0,1-.44-0.69,0.61,0.61,0,0,1,.64-0.59c1.33,0,2.86.1,4.23,0.1s2.9-.1,4.33-0.1a0.51,0.51,0,0,1,.44.59,0.45,0.45,0,0,1-.49.54c-2.85.44-3,.64-4.58,4.48C99,139.31,96,145.51,95.12,147.58c-1.38,3.3-1.82,3.89-2.21,3.89s-0.89-1-1.87-3.15c-1.72-3.69-5.81-15.71-6.5-16.69a1.69,1.69,0,0,0-1.72-.79c-1.33,0-1.53-.15-1.53-0.84a0.52,0.52,0,0,1,.54-0.54c1.57,0,3.1.1,4.68,0.1,1,0,4.87-.1,5.86-0.1,0.34,0,.39.44,0.39,0.69a0.59,0.59,0,0,1-.49.59c-1.48,0-2.86.15-2.86,1.18,0,1.62,4,11.57,5,13.74C99.06,135.37,99.84,133.5,99.84,132.17Z" transform="translate(-1 -2)"/><path class="e5bd3892-7be1-4b3a-8e49-0ebf18425033" d="M109.44,137.48a17.84,17.84,0,0,0-.2,2.81c0,3.2,2.71,8.12,8.07,8.12a6.42,6.42,0,0,0,5.76-3,1.79,1.79,0,0,1,.74-0.84,1,1,0,0,1,.79.59c0,0.15-2,6.25-8.47,6.25-7,0-10.73-4.33-10.73-11.22s4.78-11.82,9.85-11.82c8.17,0,8.81,7,8.81,8.52,0,0.49-.2.54-0.59,0.54h-14Zm8.47-1.48a1.41,1.41,0,0,0,1.67-1.63c0-3.84-2.66-4.68-4.33-4.68-3.54,0-5,3-5.51,6.3h8.17Z" transform="translate(-1 -2)"/><path class="e5bd3892-7be1-4b3a-8e49-0ebf18425033" d="M131,134.58c0-1.72-.44-2.71-2.9-3a0.46,0.46,0,0,1-.44-0.59,0.61,0.61,0,0,1,.39-0.69c5.61-1.13,6.3-2.41,6.89-2.41a0.57,0.57,0,0,1,.2.49c0,0.59-.25,1.82-0.25,4.48,1.62-1.82,4.28-4.28,6.89-4.28,1.72,0,3.15.94,3.15,2.76a2.42,2.42,0,0,1-2.41,2.46c-2,0-2.31-1.87-3.79-1.87a5.53,5.53,0,0,0-3.4,2.12,2.07,2.07,0,0,0-.34,1.43v11.17c0,1.82,0,2.91,2.46,2.91,1.82,0,2,0,2,.59s-0.2.69-.74,0.69c-1.77,0-3.35-.1-5.61-0.1-3.94,0-4.78.1-5.71,0.1-0.35,0-.44-0.29-0.44-0.64s0.59-.64,1.53-0.64c2.12,0,2.51-.39,2.51-2.51v-12.5Z" transform="translate(-1 -2)"/><path class="e5bd3892-7be1-4b3a-8e49-0ebf18425033" d="M161.67,144.77c0,2.41-1.28,6.7-8,6.7-0.89,0-3.74-.39-5.66-0.39a0.31,0.31,0,0,1-.25-0.25c0-.49-1.13-4.82-1.13-5.32,0-.3.69-0.3,0.88-0.3,1.18,0,1.48,5,6.2,5a4.19,4.19,0,0,0,4.48-4.38c0-5.17-11-3.5-11-10.49,0-4,3.35-6.7,7.48-6.7a39.71,39.71,0,0,1,5.32.44,1.4,1.4,0,0,1,.74,1.38c0.1,2,.54,3.3.54,3.94a0.46,0.46,0,0,1-.54.39,0.87,0.87,0,0,1-1-.69c-0.34-.84-1.62-4.18-5.12-4.18-2.31,0-3.94,1.33-3.94,3.69a3.74,3.74,0,0,0,2.32,3.3C158.12,139.36,161.67,139.21,161.67,144.77Z" transform="translate(-1 -2)"/><path class="e5bd3892-7be1-4b3a-8e49-0ebf18425033" d="M172.3,146.2c0,2.81.1,3.4,2.26,3.4,1.08,0,1.18,0,1.18.64,0,0.29,0,.64-0.49.64-0.25,0-.89-0.1-4.09-0.1-4.63,0-5.91.1-6.65,0.1-0.39,0-.39-0.29-0.39-0.54,0-.64,0-0.74,1.87-0.74a1.84,1.84,0,0,0,2-1.18,50,50,0,0,0,.29-7.09v-6.74c0-1.72-.44-2.71-2.9-3A0.46,0.46,0,0,1,165,131a0.61,0.61,0,0,1,.39-0.69c5.61-1.13,6.3-2.41,6.89-2.41a0.45,0.45,0,0,1,.3.54c0,0.2-.25.69-0.25,7.09V146.2Zm-4.58-27.72a2.56,2.56,0,1,1,2.56,2.61A2.62,2.62,0,0,1,167.72,118.48Z" transform="translate(-1 -2)"/><path class="e5bd3892-7be1-4b3a-8e49-0ebf18425033" d="M184.21,142.11c0,5.22.44,7.09,4.33,7.09a8.11,8.11,0,0,0,3.35-1.13,1,1,0,0,1,.54.79c0,0.29-2.07,2.61-6.55,2.61-5.66,0-5.66-4.87-5.66-6.1V132.41a0.52,0.52,0,0,0-.49-0.64h-2.46a0.37,0.37,0,0,1-.29-0.44,0.86,0.86,0,0,1,.29-0.69c4.58-3.45,5.51-6.06,6.5-6.06a0.58,0.58,0,0,1,.59.64c0,0.89-.15,1.72-0.15,4.53h7.58c0.34,0,.49.34,0.49,1A1.14,1.14,0,0,1,191,132c-0.34,0-2.66-.25-6.74-0.25v10.34Z" transform="translate(-1 -2)"/><path class="e5bd3892-7be1-4b3a-8e49-0ebf18425033" d="M213.94,132.41c0-1.62-2.32-1.67-3.79-1.67-0.44,0-.49-0.25-0.49-0.64a0.57,0.57,0,0,1,.44-0.64c1.57,0,3.2.1,4.77,0.1s3.05-.1,4.58-0.1c0.34,0,.34.44,0.34,0.64,0,0.44-.15.59-0.84,0.64-1.67.15-2.36,0.44-3.1,2.17-1.77,4.09-8.57,18.36-9.65,21.12-3.79,9.5-5.42,10.14-7,10.14a2.78,2.78,0,1,1,.1-5.56c1.23,0,1.87.84,2.46,0.84,0.88,0,3.2-4.72,3.2-7,0-1.23-1.18-4.13-1.72-5.51-3.1-8-4-12.26-5.07-15-0.44-1.13-2.9-1.13-3.54-1.13a0.56,0.56,0,0,1-.44-0.69,0.53,0.53,0,0,1,.54-0.59c0.59,0,3.69.1,5.46,0.1s3.4-.1,4.88-0.1a0.54,0.54,0,0,1,.59.64,0.59,0.59,0,0,1-.49.64c-0.29,0-2.41,0-2.41,1.08,0,2.36,1.67,7.24,4.87,15.46C209.86,142.6,213.94,133.94,213.94,132.41Z" transform="translate(-1 -2)"/><path class="e5bd3892-7be1-4b3a-8e49-0ebf18425033" d="M244.75,151.47A11,11,0,0,1,233.33,140a11.45,11.45,0,0,1,22.89,0C256.22,146.94,251.65,151.47,244.75,151.47Zm0-21.56c-5.12,0-6.74,5.32-6.74,10.14,0,4.19,1,10.14,6.74,10.14s6.79-6,6.79-10.14C251.55,135.22,249.92,129.9,244.75,129.9Z" transform="translate(-1 -2)"/><path class="e5bd3892-7be1-4b3a-8e49-0ebf18425033" d="M267.44,146.69c0,1.82,0,2.91,2.46,2.91,1.82,0,2,0,2,.59s-0.2.69-.74,0.69c-1.77,0-3.35-.1-5.61-0.1-3.94,0-4.77.1-5.22,0.1s-0.44-.29-0.44-0.64,0.1-.64,1-0.64c2.12,0,2.51-.39,2.51-2.51V133.35c0-.59,0-1.57-0.94-1.57h-2.71c-0.35,0-.59,0-0.59-0.64,0-.39.34-0.59,1.53-0.84,1.92-.44,2.41-0.54,2.56-2.76,0.49-7.48,2.71-11.62,8.52-13.14a14.77,14.77,0,0,1,3-.39c1.28,0,3.1.49,3.1,2.12a2.2,2.2,0,0,1-2.31,2.41,4.4,4.4,0,0,1-2.71-1.13,4.54,4.54,0,0,0-2.17-1.13c-2.81,0-3.3,4.09-3.3,7.14v6.35h6.11c0.35,0,.49.34,0.49,1a1.14,1.14,0,0,1-1.33,1.23c-0.34,0-4.14-.25-5.27-0.25v14.91Z" transform="translate(-1 -2)"/><path class="e5bd3892-7be1-4b3a-8e49-0ebf18425033" d="M328.53,116.22a0.61,0.61,0,0,1,.59-0.54c0.25,0,3.84.2,5,.2,0.84,0,5-.2,5.37-0.2s0.54,0.39.54,0.84a0.54,0.54,0,0,1-.59.64c-4.43,0-5,.34-5,2.61,0,3.2.54,13.54,1,27.32a2.43,2.43,0,0,0,2.71,2.32c2.76,0,2.8.29,2.8,0.64,0,0.74-.25.84-0.54,0.84s-1-.1-7.83-0.1c-6.4,0-6.7.1-7.09,0.1s-0.54-.34-0.54-0.79,0.1-.69,2.36-0.69c3.25,0,3.3-.79,3.3-2.76,0-3-.74-18.86-1.13-28.06h-0.1c-3.59,9.21-8.12,19.79-11.37,27.72-1.87,4.53-1.87,5.07-2.51,5.07s-0.74-.44-1.77-3.84-9.11-25.31-9.31-25.31c-0.84,3.59-4.08,19.94-4.08,24.86,0,1.53.84,2.32,2.46,2.32,1.23,0,2.66.1,2.66,0.39,0,0.94,0,1.08-.54,1.08s-0.89-.1-6-0.1c-4.48,0-4.83.1-5.12,0.1s-0.54-.05-0.54-0.84c0-.49.25-0.64,2.61-0.64,1.72,0,2.07-.64,2.61-3.45,1.33-7.09,2.51-14.23,4-21.32a21.58,21.58,0,0,0,.64-4.63,5.17,5.17,0,0,0-1.28-2.46,16.7,16.7,0,0,0-4.23-.39c-0.59,0-.59-0.39-0.59-0.74s0.1-.74.54-0.74c0.94,0,5.17.2,5.71,0.2,1.28,0,3.35-.2,4-0.2s0.69,0.54,1.18,2.31c1,3.69,8.17,23.63,9.06,25.45C321.3,134.73,325,125.72,328.53,116.22Z" transform="translate(-1 -2)"/><path class="e5bd3892-7be1-4b3a-8e49-0ebf18425033" d="M350.43,146.2c0,2.81.1,3.4,2.26,3.4,1.08,0,1.18,0,1.18.64,0,0.29,0,.64-0.49.64-0.25,0-.89-0.1-4.08-0.1-4.63,0-5.91.1-6.65,0.1-0.39,0-.39-0.29-0.39-0.54,0-.64,0-0.74,1.87-0.74a1.84,1.84,0,0,0,2-1.18,49.51,49.51,0,0,0,.3-7.09v-6.74c0-1.72-.44-2.71-2.91-3a0.46,0.46,0,0,1-.44-0.59,0.61,0.61,0,0,1,.39-0.69c5.61-1.13,6.3-2.41,6.89-2.41,0.2,0,.3.25,0.3,0.54s-0.25.69-.25,7.09V146.2Zm-4.58-27.72a2.56,2.56,0,1,1,2.56,2.61A2.62,2.62,0,0,1,345.85,118.48Z" transform="translate(-1 -2)"/><path class="e5bd3892-7be1-4b3a-8e49-0ebf18425033" d="M371.7,144.77c0,2.41-1.28,6.7-8,6.7-0.88,0-3.74-.39-5.66-0.39a0.31,0.31,0,0,1-.25-0.25c0-.49-1.13-4.82-1.13-5.32,0-.3.69-0.3,0.88-0.3,1.18,0,1.48,5,6.21,5a4.19,4.19,0,0,0,4.48-4.38c0-5.17-11-3.5-11-10.49,0-4,3.35-6.7,7.48-6.7a39.66,39.66,0,0,1,5.32.44,1.4,1.4,0,0,1,.74,1.38c0.1,2,.54,3.3.54,3.94a0.46,0.46,0,0,1-.54.39,0.87,0.87,0,0,1-1-.69c-0.34-.84-1.62-4.18-5.12-4.18-2.31,0-3.94,1.33-3.94,3.69a3.74,3.74,0,0,0,2.31,3.3C368.15,139.36,371.7,139.21,371.7,144.77Z" transform="translate(-1 -2)"/><path class="e5bd3892-7be1-4b3a-8e49-0ebf18425033" d="M389.91,144.77c0,2.41-1.28,6.7-8,6.7-0.89,0-3.74-.39-5.66-0.39a0.32,0.32,0,0,1-.25-0.25c0-.49-1.13-4.82-1.13-5.32,0-.3.69-0.3,0.88-0.3,1.18,0,1.48,5,6.2,5a4.19,4.19,0,0,0,4.48-4.38c0-5.17-11-3.5-11-10.49,0-4,3.35-6.7,7.48-6.7a39.61,39.61,0,0,1,5.32.44,1.4,1.4,0,0,1,.74,1.38c0.1,2,.54,3.3.54,3.94a0.46,0.46,0,0,1-.54.39,0.87,0.87,0,0,1-1-.69c-0.34-.84-1.62-4.18-5.12-4.18-2.31,0-3.94,1.33-3.94,3.69a3.74,3.74,0,0,0,2.31,3.3C386.37,139.36,389.91,139.21,389.91,144.77Z" transform="translate(-1 -2)"/><path class="e5bd3892-7be1-4b3a-8e49-0ebf18425033" d="M404.92,151.47A11,11,0,0,1,393.5,140a11.45,11.45,0,0,1,22.89,0C416.39,146.94,411.81,151.47,404.92,151.47Zm0-21.56c-5.12,0-6.74,5.32-6.74,10.14,0,4.19,1,10.14,6.74,10.14s6.79-6,6.79-10.14C411.72,135.22,410.09,129.9,404.92,129.9Z" transform="translate(-1 -2)"/><path class="e5bd3892-7be1-4b3a-8e49-0ebf18425033" d="M422.54,135.52c0-4.33-.49-4.63-3.05-4.63-0.39,0-1.08,0-1.08-.49s0-1,.54-1,1.28,0.15,2.91.15,3.59-.15,4.28-0.15c0.3,0,.4,0,0.4.69v13.29c0,3.69,1.18,5.81,4.82,5.81,1.77,0,4.87-1.08,4.87-2.61V133.84c0-2.66-.49-3-3.05-3-0.89,0-1.58,0-1.58-.49,0-.74,0-1,0.35-1,0.69,0,1.28.15,4.28,0.15,1.23,0,2.51-.15,3.74-0.15a0.6,0.6,0,0,1,.69.69c0,0.2-.44,4-0.44,7.48v9.25c0,0.79,0,1.82,1.23,1.82,0.69,0,1.77-.2,2.12-0.2,0.19,0,.29,0,0.29.94,0,0.29,0,.39-1.63.64a45.21,45.21,0,0,0-5.66,1.28,0.66,0.66,0,0,1-.59-0.69c0-.59.1-1.38,0.15-1.87a13.65,13.65,0,0,1-7.33,2.71c-4.88,0-6.25-3.15-6.25-8.27v-7.68Z" transform="translate(-1 -2)"/><path class="e5bd3892-7be1-4b3a-8e49-0ebf18425033" d="M449.42,134.58c0-1.72-.44-2.71-2.9-3a0.46,0.46,0,0,1-.44-0.59,0.61,0.61,0,0,1,.39-0.69c5.61-1.13,6.3-2.41,6.89-2.41a0.58,0.58,0,0,1,.2.49c0,0.59-.25,1.82-0.25,4.48,1.62-1.82,4.28-4.28,6.89-4.28,1.72,0,3.15.94,3.15,2.76a2.43,2.43,0,0,1-2.41,2.46c-2,0-2.31-1.87-3.79-1.87a5.53,5.53,0,0,0-3.4,2.12,2.08,2.08,0,0,0-.34,1.43v11.17c0,1.82,0,2.91,2.46,2.91,1.82,0,2,0,2,.59s-0.2.69-.74,0.69c-1.77,0-3.35-.1-5.61-0.1-3.94,0-4.78.1-5.71,0.1-0.35,0-.45-0.29-0.45-0.64s0.59-.64,1.53-0.64c2.12,0,2.51-.39,2.51-2.51v-12.5Z" transform="translate(-1 -2)"/><path class="e5bd3892-7be1-4b3a-8e49-0ebf18425033" d="M472.55,146.2c0,2.81.1,3.4,2.26,3.4,1.08,0,1.18,0,1.18.64,0,0.29,0,.64-0.49.64-0.25,0-.88-0.1-4.08-0.1-4.63,0-5.91.1-6.65,0.1-0.39,0-.39-0.29-0.39-0.54,0-.64.05-0.74,1.87-0.74a1.84,1.84,0,0,0,2-1.18,50,50,0,0,0,.29-7.09v-6.74c0-1.72-.44-2.71-2.9-3a0.46,0.46,0,0,1-.44-0.59,0.61,0.61,0,0,1,.39-0.69c5.61-1.13,6.3-2.41,6.89-2.41,0.2,0,.29.25,0.29,0.54s-0.25.69-.25,7.09V146.2ZM468,118.48a2.56,2.56,0,1,1,2.56,2.61A2.62,2.62,0,0,1,468,118.48Z" transform="translate(-1 -2)"/><path class="2c1f812e-ce1a-4143-b46e-0013ff7952ba" d="M11.68,192.3c0,6.6,2.76,12.36,11,12.36,5.76,0,10.73-3.2,10.73-14.92V180c0-6.84-1.43-6.84-6.5-6.84-0.39,0-.39-0.3-0.39-0.74s0.15-.74.39-0.74c0.84,0,4,.2,7.24.2,1.53,0,5.71-.2,6.4-0.2,0.49,0,.69.1,0.69,0.84a0.54,0.54,0,0,1-.44.64c-4.73,0-5.71,0-5.71,5.81v11.67c0,13.29-8.47,16.84-14.18,16.84-11,0-14.13-7.38-14.13-12.8V183.39c0-3.49,0-4.68-.1-6.94,0-2.91-.88-3.3-5.17-3.3C1,173.15,1,172.76,1,172.32a0.53,0.53,0,0,1,.44-0.64c0.39,0,4.68.2,7.78,0.2s7.43-.2,7.83-0.2a0.53,0.53,0,0,1,.44.64c0,0.44,0,.84-0.54.84-4.28,0-5.12.39-5.17,3.3-0.05,2.26-.1,3.45-0.1,6.94v8.91Z" transform="translate(-1 -2)"/><path class="2c1f812e-ce1a-4143-b46e-0013ff7952ba" d="M49.63,202.2c0,2.81.1,3.4,2.27,3.4,1.33,0,1.43,0,1.43.64,0,0.29,0,.64-0.49.64-0.25,0-.89-0.1-4.33-0.1-4.63,0-5.91.1-6.65,0.1-0.39,0-.39-0.29-0.39-0.54,0-.64,0-0.74,1.87-0.74a1.84,1.84,0,0,0,2-1.18,49.64,49.64,0,0,0,.3-7.09v-6.74c0-1.72-.44-2.71-2.91-3A0.46,0.46,0,0,1,42.3,187a0.61,0.61,0,0,1,.39-0.69c5.61-1.13,6.3-2.41,6.89-2.41,0.1,0,.15.15,0.15,0.54s-0.1,1.38-.1,3.55c2.56-1.72,5.07-3.4,7.73-3.4,1.67,0,6.5.34,6.5,7.39v11.81c0,0.84.15,1.77,3.2,1.77,0.49,0,.49.3,0.49,0.64s0,0.64-.69.64c-1.48,0-2.36-.1-5-0.1-4,0-4.78.1-5.17,0.1s-0.34-.34-0.34-0.59a0.63,0.63,0,0,1,.69-0.69c2.36,0,2.81-.2,2.81-1.82V195c0-4.58-.39-7.63-5.51-7.63-1.87,0-4.53,1.67-4.73,2.26v12.6Z" transform="translate(-1 -2)"/><path class="2c1f812e-ce1a-4143-b46e-0013ff7952ba" d="M77.25,202.2c0,2.81.1,3.4,2.27,3.4,1.08,0,1.18,0,1.18.64,0,0.29,0,.64-0.49.64-0.25,0-.89-0.1-4.09-0.1-4.63,0-5.91.1-6.65,0.1-0.39,0-.39-0.29-0.39-0.54,0-.64.05-0.74,1.87-0.74a1.84,1.84,0,0,0,2-1.18,49.67,49.67,0,0,0,.3-7.09v-6.74c0-1.72-.44-2.71-2.91-3a0.46,0.46,0,0,1-.44-0.59,0.61,0.61,0,0,1,.39-0.69c5.61-1.13,6.3-2.41,6.89-2.41,0.2,0,.3.25,0.3,0.54s-0.25.69-.25,7.09V202.2Zm-4.58-27.72a2.56,2.56,0,1,1,2.56,2.61A2.62,2.62,0,0,1,72.67,174.48Z" transform="translate(-1 -2)"/><path class="2c1f812e-ce1a-4143-b46e-0013ff7952ba" d="M99.84,188.17c0-1.43-2.56-1.43-3.3-1.43a0.56,0.56,0,0,1-.44-0.69,0.61,0.61,0,0,1,.64-0.59c1.33,0,2.86.1,4.23,0.1s2.9-.1,4.33-0.1a0.51,0.51,0,0,1,.44.59,0.45,0.45,0,0,1-.49.54c-2.85.44-3,.64-4.58,4.48C99,195.31,96,201.51,95.12,203.58c-1.38,3.3-1.82,3.89-2.21,3.89s-0.89-1-1.87-3.15c-1.72-3.69-5.81-15.71-6.5-16.69a1.69,1.69,0,0,0-1.72-.79c-1.33,0-1.53-.15-1.53-0.84a0.52,0.52,0,0,1,.54-0.54c1.57,0,3.1.1,4.68,0.1,1,0,4.87-.1,5.86-0.1,0.34,0,.39.44,0.39,0.69a0.59,0.59,0,0,1-.49.59c-1.48,0-2.86.15-2.86,1.18,0,1.62,4,11.57,5,13.74C99.06,191.37,99.84,189.5,99.84,188.17Z" transform="translate(-1 -2)"/><path class="2c1f812e-ce1a-4143-b46e-0013ff7952ba" d="M109.44,193.48a17.84,17.84,0,0,0-.2,2.81c0,3.2,2.71,8.12,8.07,8.12a6.42,6.42,0,0,0,5.76-3,1.79,1.79,0,0,1,.74-0.84,1,1,0,0,1,.79.59c0,0.15-2,6.25-8.47,6.25-7,0-10.73-4.33-10.73-11.22s4.78-11.82,9.85-11.82c8.17,0,8.81,7,8.81,8.52,0,0.49-.2.54-0.59,0.54h-14Zm8.47-1.48a1.41,1.41,0,0,0,1.67-1.63c0-3.84-2.66-4.68-4.33-4.68-3.54,0-5,3-5.51,6.3h8.17Z" transform="translate(-1 -2)"/><path class="2c1f812e-ce1a-4143-b46e-0013ff7952ba" d="M131,190.58c0-1.72-.44-2.71-2.9-3a0.46,0.46,0,0,1-.44-0.59,0.61,0.61,0,0,1,.39-0.69c5.61-1.13,6.3-2.41,6.89-2.41a0.57,0.57,0,0,1,.2.49c0,0.59-.25,1.82-0.25,4.48,1.62-1.82,4.28-4.28,6.89-4.28,1.72,0,3.15.94,3.15,2.76a2.42,2.42,0,0,1-2.41,2.46c-2,0-2.31-1.87-3.79-1.87a5.53,5.53,0,0,0-3.4,2.12,2.07,2.07,0,0,0-.34,1.43v11.17c0,1.82,0,2.91,2.46,2.91,1.82,0,2,0,2,.59s-0.2.69-.74,0.69c-1.77,0-3.35-.1-5.61-0.1-3.94,0-4.78.1-5.71,0.1-0.35,0-.44-0.29-0.44-0.64s0.59-.64,1.53-0.64c2.12,0,2.51-.39,2.51-2.51v-12.5Z" transform="translate(-1 -2)"/><path class="2c1f812e-ce1a-4143-b46e-0013ff7952ba" d="M161.67,200.77c0,2.41-1.28,6.7-8,6.7-0.89,0-3.74-.39-5.66-0.39a0.31,0.31,0,0,1-.25-0.25c0-.49-1.13-4.82-1.13-5.32,0-.3.69-0.3,0.88-0.3,1.18,0,1.48,5,6.2,5a4.19,4.19,0,0,0,4.48-4.38c0-5.17-11-3.5-11-10.49,0-4,3.35-6.7,7.48-6.7a39.71,39.71,0,0,1,5.32.44,1.4,1.4,0,0,1,.74,1.38c0.1,2,.54,3.3.54,3.94a0.46,0.46,0,0,1-.54.39,0.87,0.87,0,0,1-1-.69c-0.34-.84-1.62-4.18-5.12-4.18-2.31,0-3.94,1.33-3.94,3.69a3.74,3.74,0,0,0,2.32,3.3C158.12,195.36,161.67,195.21,161.67,200.77Z" transform="translate(-1 -2)"/><path class="2c1f812e-ce1a-4143-b46e-0013ff7952ba" d="M172.3,202.2c0,2.81.1,3.4,2.26,3.4,1.08,0,1.18,0,1.18.64,0,0.29,0,.64-0.49.64-0.25,0-.89-0.1-4.09-0.1-4.63,0-5.91.1-6.65,0.1-0.39,0-.39-0.29-0.39-0.54,0-.64,0-0.74,1.87-0.74a1.84,1.84,0,0,0,2-1.18,50,50,0,0,0,.29-7.09v-6.74c0-1.72-.44-2.71-2.9-3A0.46,0.46,0,0,1,165,187a0.61,0.61,0,0,1,.39-0.69c5.61-1.13,6.3-2.41,6.89-2.41a0.45,0.45,0,0,1,.3.54c0,0.2-.25.69-0.25,7.09V202.2Zm-4.58-27.72a2.56,2.56,0,1,1,2.56,2.61A2.62,2.62,0,0,1,167.72,174.48Z" transform="translate(-1 -2)"/><path class="2c1f812e-ce1a-4143-b46e-0013ff7952ba" d="M184.21,198.11c0,5.22.44,7.09,4.33,7.09a8.11,8.11,0,0,0,3.35-1.13,1,1,0,0,1,.54.79c0,0.29-2.07,2.61-6.55,2.61-5.66,0-5.66-4.87-5.66-6.1V188.41a0.52,0.52,0,0,0-.49-0.64h-2.46a0.37,0.37,0,0,1-.29-0.44,0.86,0.86,0,0,1,.29-0.69c4.58-3.45,5.51-6.06,6.5-6.06a0.58,0.58,0,0,1,.59.64c0,0.89-.15,1.72-0.15,4.53h7.58c0.34,0,.49.34,0.49,1A1.14,1.14,0,0,1,191,188c-0.34,0-2.66-.25-6.74-0.25v10.34Z" transform="translate(-1 -2)"/><path class="2c1f812e-ce1a-4143-b46e-0013ff7952ba" d="M213.94,188.41c0-1.62-2.32-1.67-3.79-1.67-0.44,0-.49-0.25-0.49-0.64a0.57,0.57,0,0,1,.44-0.64c1.57,0,3.2.1,4.77,0.1s3.05-.1,4.58-0.1c0.34,0,.34.44,0.34,0.64,0,0.44-.15.59-0.84,0.64-1.67.15-2.36,0.44-3.1,2.17-1.77,4.09-8.57,18.36-9.65,21.12-3.79,9.5-5.42,10.14-7,10.14a2.78,2.78,0,1,1,.1-5.56c1.23,0,1.87.84,2.46,0.84,0.88,0,3.2-4.72,3.2-7,0-1.23-1.18-4.13-1.72-5.51-3.1-8-4-12.26-5.07-15-0.44-1.13-2.9-1.13-3.54-1.13a0.56,0.56,0,0,1-.44-0.69,0.53,0.53,0,0,1,.54-0.59c0.59,0,3.69.1,5.46,0.1s3.4-.1,4.88-0.1a0.54,0.54,0,0,1,.59.64,0.59,0.59,0,0,1-.49.64c-0.29,0-2.41,0-2.41,1.08,0,2.36,1.67,7.24,4.87,15.46C209.86,198.6,213.94,189.94,213.94,188.41Z" transform="translate(-1 -2)"/><path class="2c1f812e-ce1a-4143-b46e-0013ff7952ba" d="M244.75,207.47A11,11,0,0,1,233.33,196a11.45,11.45,0,0,1,22.89,0C256.22,202.94,251.65,207.47,244.75,207.47Zm0-21.56c-5.12,0-6.74,5.32-6.74,10.14,0,4.19,1,10.14,6.74,10.14s6.79-6,6.79-10.14C251.55,191.22,249.92,185.9,244.75,185.9Z" transform="translate(-1 -2)"/><path class="2c1f812e-ce1a-4143-b46e-0013ff7952ba" d="M267.44,202.69c0,1.82,0,2.91,2.46,2.91,1.82,0,2,0,2,.59s-0.2.69-.74,0.69c-1.77,0-3.35-.1-5.61-0.1-3.94,0-4.77.1-5.22,0.1s-0.44-.29-0.44-0.64,0.1-.64,1-0.64c2.12,0,2.51-.39,2.51-2.51V189.35c0-.59,0-1.57-0.94-1.57h-2.71c-0.35,0-.59,0-0.59-0.64,0-.39.34-0.59,1.53-0.84,1.92-.44,2.41-0.54,2.56-2.76,0.49-7.48,2.71-11.62,8.52-13.14a14.77,14.77,0,0,1,3-.39c1.28,0,3.1.49,3.1,2.12a2.2,2.2,0,0,1-2.31,2.41,4.4,4.4,0,0,1-2.71-1.13,4.54,4.54,0,0,0-2.17-1.13c-2.81,0-3.3,4.09-3.3,7.14v6.35h6.11c0.35,0,.49.34,0.49,1a1.14,1.14,0,0,1-1.33,1.23c-0.34,0-4.14-.25-5.27-0.25v14.91Z" transform="translate(-1 -2)"/><path class="2c1f812e-ce1a-4143-b46e-0013ff7952ba" d="M328.53,172.22a0.61,0.61,0,0,1,.59-0.54c0.25,0,3.84.2,5,.2,0.84,0,5-.2,5.37-0.2s0.54,0.39.54,0.84a0.54,0.54,0,0,1-.59.64c-4.43,0-5,.34-5,2.61,0,3.2.54,13.54,1,27.32a2.43,2.43,0,0,0,2.71,2.32c2.76,0,2.8.29,2.8,0.64,0,0.74-.25.84-0.54,0.84s-1-.1-7.83-0.1c-6.4,0-6.7.1-7.09,0.1s-0.54-.34-0.54-0.79,0.1-.69,2.36-0.69c3.25,0,3.3-.79,3.3-2.76,0-3-.74-18.86-1.13-28.06h-0.1c-3.59,9.21-8.12,19.79-11.37,27.72-1.87,4.53-1.87,5.07-2.51,5.07s-0.74-.44-1.77-3.84-9.11-25.31-9.31-25.31c-0.84,3.59-4.08,19.94-4.08,24.86,0,1.53.84,2.32,2.46,2.32,1.23,0,2.66.1,2.66,0.39,0,0.94,0,1.08-.54,1.08s-0.89-.1-6-0.1c-4.48,0-4.83.1-5.12,0.1s-0.54-.05-0.54-0.84c0-.49.25-0.64,2.61-0.64,1.72,0,2.07-.64,2.61-3.45,1.33-7.09,2.51-14.23,4-21.32a21.58,21.58,0,0,0,.64-4.63,5.17,5.17,0,0,0-1.28-2.46,16.7,16.7,0,0,0-4.23-.39c-0.59,0-.59-0.39-0.59-0.74s0.1-.74.54-0.74c0.94,0,5.17.2,5.71,0.2,1.28,0,3.35-.2,4-0.2s0.69,0.54,1.18,2.31c1,3.69,8.17,23.63,9.06,25.45C321.3,190.73,325,181.72,328.53,172.22Z" transform="translate(-1 -2)"/><path class="2c1f812e-ce1a-4143-b46e-0013ff7952ba" d="M350.43,202.2c0,2.81.1,3.4,2.26,3.4,1.08,0,1.18,0,1.18.64,0,0.29,0,.64-0.49.64-0.25,0-.89-0.1-4.08-0.1-4.63,0-5.91.1-6.65,0.1-0.39,0-.39-0.29-0.39-0.54,0-.64,0-0.74,1.87-0.74a1.84,1.84,0,0,0,2-1.18,49.51,49.51,0,0,0,.3-7.09v-6.74c0-1.72-.44-2.71-2.91-3a0.46,0.46,0,0,1-.44-0.59,0.61,0.61,0,0,1,.39-0.69c5.61-1.13,6.3-2.41,6.89-2.41,0.2,0,.3.25,0.3,0.54s-0.25.69-.25,7.09V202.2Zm-4.58-27.72a2.56,2.56,0,1,1,2.56,2.61A2.62,2.62,0,0,1,345.85,174.48Z" transform="translate(-1 -2)"/><path class="2c1f812e-ce1a-4143-b46e-0013ff7952ba" d="M371.7,200.77c0,2.41-1.28,6.7-8,6.7-0.88,0-3.74-.39-5.66-0.39a0.31,0.31,0,0,1-.25-0.25c0-.49-1.13-4.82-1.13-5.32,0-.3.69-0.3,0.88-0.3,1.18,0,1.48,5,6.21,5a4.19,4.19,0,0,0,4.48-4.38c0-5.17-11-3.5-11-10.49,0-4,3.35-6.7,7.48-6.7a39.66,39.66,0,0,1,5.32.44,1.4,1.4,0,0,1,.74,1.38c0.1,2,.54,3.3.54,3.94a0.46,0.46,0,0,1-.54.39,0.87,0.87,0,0,1-1-.69c-0.34-.84-1.62-4.18-5.12-4.18-2.31,0-3.94,1.33-3.94,3.69a3.74,3.74,0,0,0,2.31,3.3C368.15,195.36,371.7,195.21,371.7,200.77Z" transform="translate(-1 -2)"/><path class="2c1f812e-ce1a-4143-b46e-0013ff7952ba" d="M389.91,200.77c0,2.41-1.28,6.7-8,6.7-0.89,0-3.74-.39-5.66-0.39a0.32,0.32,0,0,1-.25-0.25c0-.49-1.13-4.82-1.13-5.32,0-.3.69-0.3,0.88-0.3,1.18,0,1.48,5,6.2,5a4.19,4.19,0,0,0,4.48-4.38c0-5.17-11-3.5-11-10.49,0-4,3.35-6.7,7.48-6.7a39.61,39.61,0,0,1,5.32.44,1.4,1.4,0,0,1,.74,1.38c0.1,2,.54,3.3.54,3.94a0.46,0.46,0,0,1-.54.39,0.87,0.87,0,0,1-1-.69c-0.34-.84-1.62-4.18-5.12-4.18-2.31,0-3.94,1.33-3.94,3.69a3.74,3.74,0,0,0,2.31,3.3C386.37,195.36,389.91,195.21,389.91,200.77Z" transform="translate(-1 -2)"/><path class="2c1f812e-ce1a-4143-b46e-0013ff7952ba" d="M404.92,207.47A11,11,0,0,1,393.5,196a11.45,11.45,0,0,1,22.89,0C416.39,202.94,411.81,207.47,404.92,207.47Zm0-21.56c-5.12,0-6.74,5.32-6.74,10.14,0,4.19,1,10.14,6.74,10.14s6.79-6,6.79-10.14C411.72,191.22,410.09,185.9,404.92,185.9Z" transform="translate(-1 -2)"/><path class="2c1f812e-ce1a-4143-b46e-0013ff7952ba" d="M422.54,191.52c0-4.33-.49-4.63-3.05-4.63-0.39,0-1.08,0-1.08-.49s0-1,.54-1,1.28,0.15,2.91.15,3.59-.15,4.28-0.15c0.3,0,.4,0,0.4.69v13.29c0,3.69,1.18,5.81,4.82,5.81,1.77,0,4.87-1.08,4.87-2.61V189.84c0-2.66-.49-3-3.05-3-0.89,0-1.58,0-1.58-.49,0-.74,0-1,0.35-1,0.69,0,1.28.15,4.28,0.15,1.23,0,2.51-.15,3.74-0.15a0.6,0.6,0,0,1,.69.69c0,0.2-.44,4-0.44,7.48v9.25c0,0.79,0,1.82,1.23,1.82,0.69,0,1.77-.2,2.12-0.2,0.19,0,.29,0,0.29.94,0,0.29,0,.39-1.63.64a45.21,45.21,0,0,0-5.66,1.28,0.66,0.66,0,0,1-.59-0.69c0-.59.1-1.38,0.15-1.87a13.65,13.65,0,0,1-7.33,2.71c-4.88,0-6.25-3.15-6.25-8.27v-7.68Z" transform="translate(-1 -2)"/><path class="2c1f812e-ce1a-4143-b46e-0013ff7952ba" d="M449.42,190.58c0-1.72-.44-2.71-2.9-3a0.46,0.46,0,0,1-.44-0.59,0.61,0.61,0,0,1,.39-0.69c5.61-1.13,6.3-2.41,6.89-2.41a0.58,0.58,0,0,1,.2.49c0,0.59-.25,1.82-0.25,4.48,1.62-1.82,4.28-4.28,6.89-4.28,1.72,0,3.15.94,3.15,2.76a2.43,2.43,0,0,1-2.41,2.46c-2,0-2.31-1.87-3.79-1.87a5.53,5.53,0,0,0-3.4,2.12,2.08,2.08,0,0,0-.34,1.43v11.17c0,1.82,0,2.91,2.46,2.91,1.82,0,2,0,2,.59s-0.2.69-.74,0.69c-1.77,0-3.35-.1-5.61-0.1-3.94,0-4.78.1-5.71,0.1-0.35,0-.45-0.29-0.45-0.64s0.59-.64,1.53-0.64c2.12,0,2.51-.39,2.51-2.51v-12.5Z" transform="translate(-1 -2)"/><path class="2c1f812e-ce1a-4143-b46e-0013ff7952ba" d="M472.55,202.2c0,2.81.1,3.4,2.26,3.4,1.08,0,1.18,0,1.18.64,0,0.29,0,.64-0.49.64-0.25,0-.88-0.1-4.08-0.1-4.63,0-5.91.1-6.65,0.1-0.39,0-.39-0.29-0.39-0.54,0-.64.05-0.74,1.87-0.74a1.84,1.84,0,0,0,2-1.18,50,50,0,0,0,.29-7.09v-6.74c0-1.72-.44-2.71-2.9-3a0.46,0.46,0,0,1-.44-0.59,0.61,0.61,0,0,1,.39-0.69c5.61-1.13,6.3-2.41,6.89-2.41,0.2,0,.29.25,0.29,0.54s-0.25.69-.25,7.09V202.2ZM468,174.48a2.56,2.56,0,1,1,2.56,2.61A2.62,2.62,0,0,1,468,174.48Z" transform="translate(-1 -2)"/></svg>