<svg id="9aa62b75-1b8e-48b1-8c17-9909cb21e25a" data-name="Layer 1" xmlns="http://www.w3.org/2000/svg" width="333" height="152.17" viewBox="0 0 333 152.17"><defs><style>.\32 ee348fd-3681-4cc5-bd7c-d2ee431fdf4c{fill:#900000;}.\34 1d0bb17-ace8-43de-8252-c38ccf847a4a{fill:#fff;}.\37 7bae08f-b0cb-4de9-9881-98f978905342{fill:#f1b82d;}</style></defs><title>mu-wordmark-medium</title><path d="M7.49,17.64c0,4.63,1.93,8.66,7.73,8.66,4,0,7.52-2.24,7.52-10.46V9c0-4.8-1-4.8-4.56-4.8-0.28,0-.28-0.21-0.28-0.52s0.1-.52.28-0.52c0.59,0,2.83.14,5.07,0.14,1.07,0,4-.14,4.49-0.14s0.48,0.07.48,0.59a0.38,0.38,0,0,1-.31.45c-3.31,0-4,0-4,4.07v8.18c0,9.32-5.94,11.8-9.94,11.8-7.73,0-9.91-5.18-9.91-9v-7.9c0-2.45,0-3.28-.07-4.87,0-2-.62-2.31-3.62-2.31C0,4.21,0,3.93,0,3.62A0.37,0.37,0,0,1,.31,3.17c0.28,0,3.28.14,5.45,0.14S11,3.17,11.25,3.17a0.37,0.37,0,0,1,.31.45c0,0.31,0,.59-0.38.59-3,0-3.59.28-3.62,2.31,0,1.59-.07,2.42-0.07,4.87v6.25Z" transform="translate(0 -2)"/><path d="M34.1,24.57c0,2,.07,2.38,1.59,2.38,0.93,0,1,0,1,.45,0,0.21,0,.45-0.35.45-0.17,0-.62-0.07-3-0.07-3.24,0-4.14.07-4.66,0.07-0.28,0-.28-0.21-0.28-0.38,0-.45,0-0.52,1.31-0.52a1.29,1.29,0,0,0,1.41-.83,34.8,34.8,0,0,0,.21-5V16.43c0-1.21-.31-1.9-2-2.07A0.32,0.32,0,0,1,29,13.94a0.43,0.43,0,0,1,.28-0.48,15.39,15.39,0,0,0,4.83-1.69c0.07,0,.1.1,0.1,0.38s-0.07,1-.07,2.49c1.79-1.21,3.56-2.38,5.42-2.38,1.17,0,4.56.24,4.56,5.18v8.28c0,0.59.1,1.24,2.24,1.24,0.35,0,.35.21,0.35,0.45s0,0.45-.48.45c-1,0-1.66-.07-3.49-0.07-2.8,0-3.35.07-3.62,0.07s-0.24-.24-0.24-0.41A0.44,0.44,0,0,1,39.31,27c1.66,0,2-.14,2-1.28V19.5c0-3.21-.28-5.35-3.87-5.35a5.12,5.12,0,0,0-3.31,1.59v8.84Z" transform="translate(0 -2)"/><path d="M53.45,24.57c0,2,.07,2.38,1.59,2.38,0.76,0,.83,0,0.83.45,0,0.21,0,.45-0.35.45-0.17,0-.62-0.07-2.86-0.07-3.24,0-4.14.07-4.66,0.07-0.28,0-.28-0.21-0.28-0.38,0-.45,0-0.52,1.31-0.52a1.29,1.29,0,0,0,1.41-.83,34.82,34.82,0,0,0,.21-5V16.43c0-1.21-.31-1.9-2-2.07a0.32,0.32,0,0,1-.31-0.41,0.43,0.43,0,0,1,.28-0.48,15.41,15.41,0,0,0,4.83-1.69c0.14,0,.21.17,0.21,0.38a31.19,31.19,0,0,0-.17,5v7.46ZM50.24,5.14A1.8,1.8,0,1,1,52,7,1.83,1.83,0,0,1,50.24,5.14Z" transform="translate(0 -2)"/><path d="M69.29,14.74c0-1-1.79-1-2.31-1a0.39,0.39,0,0,1-.31-0.48,0.43,0.43,0,0,1,.45-0.41c0.93,0,2,.07,3,0.07s2-.07,3-0.07a0.36,0.36,0,0,1,.31.41,0.32,0.32,0,0,1-.35.38c-2,.31-2.1.45-3.21,3.14-1.21,3-3.28,7.32-3.9,8.77-1,2.31-1.28,2.73-1.55,2.73s-0.62-.72-1.31-2.21c-1.21-2.59-4.07-11-4.56-11.7a1.18,1.18,0,0,0-1.21-.55c-0.93,0-1.07-.1-1.07-0.59a0.36,0.36,0,0,1,.38-0.38c1.1,0,2.17.07,3.28,0.07,0.69,0,3.42-.07,4.11-0.07,0.24,0,.28.31,0.28,0.48a0.41,0.41,0,0,1-.35.41c-1,0-2,.1-2,0.83,0,1.14,2.8,8.11,3.52,9.63C68.74,17,69.29,15.67,69.29,14.74Z" transform="translate(0 -2)"/><path d="M76,18.46a12.5,12.5,0,0,0-.14,2,5.82,5.82,0,0,0,5.66,5.69,4.5,4.5,0,0,0,4-2.07,1.26,1.26,0,0,1,.52-0.59,0.72,0.72,0,0,1,.55.41,6.3,6.3,0,0,1-5.94,4.38c-4.94,0-7.52-3-7.52-7.87s3.35-8.28,6.9-8.28a5.78,5.78,0,0,1,6.18,6c0,0.35-.14.38-0.41,0.38H76Zm5.94-1a1,1,0,0,0,1.17-1.14c0-2.69-1.86-3.28-3-3.28-2.48,0-3.52,2.07-3.87,4.42H82Z" transform="translate(0 -2)"/><path d="M91.1,16.43c0-1.21-.31-1.9-2-2.07a0.32,0.32,0,0,1-.31-0.41A0.43,0.43,0,0,1,89,13.46a15.38,15.38,0,0,0,4.83-1.69,0.4,0.4,0,0,1,.14.35c0,0.41-.17,1.28-0.17,3.14,1.14-1.28,3-3,4.83-3a2,2,0,0,1,2.21,1.93,1.7,1.7,0,0,1-1.69,1.73c-1.41,0-1.62-1.31-2.66-1.31a3.87,3.87,0,0,0-2.38,1.48,1.45,1.45,0,0,0-.24,1v7.83c0,1.28,0,2,1.73,2,1.28,0,1.42,0,1.42.41s-0.14.48-.52,0.48c-1.24,0-2.35-.07-3.93-0.07-2.76,0-3.35.07-4,.07-0.24,0-.31-0.21-0.31-0.45S88.69,27,89.34,27c1.48,0,1.76-.28,1.76-1.76V16.43Z" transform="translate(0 -2)"/><path d="M112.64,23.57c0,1.69-.9,4.69-5.63,4.69-0.62,0-2.62-.28-4-0.28a0.22,0.22,0,0,1-.17-0.17c0-.34-0.79-3.38-0.79-3.73s0.48-.21.62-0.21c0.83,0,1,3.49,4.35,3.49a2.94,2.94,0,0,0,3.14-3.07c0-3.62-7.73-2.45-7.73-7.35,0-2.83,2.35-4.69,5.25-4.69a27.84,27.84,0,0,1,3.73.31,1,1,0,0,1,.52,1c0.07,1.41.38,2.31,0.38,2.76a0.32,0.32,0,0,1-.38.28,0.61,0.61,0,0,1-.69-0.48c-0.24-.59-1.14-2.93-3.59-2.93a2.49,2.49,0,0,0-2.76,2.59A2.62,2.62,0,0,0,106.53,18C110.15,19.78,112.64,19.67,112.64,23.57Z" transform="translate(0 -2)"/><path d="M120.09,24.57c0,2,.07,2.38,1.59,2.38,0.76,0,.83,0,0.83.45,0,0.21,0,.45-0.35.45-0.17,0-.62-0.07-2.87-0.07-3.24,0-4.14.07-4.66,0.07-0.28,0-.28-0.21-0.28-0.38,0-.45,0-0.52,1.31-0.52a1.29,1.29,0,0,0,1.42-.83,35.06,35.06,0,0,0,.21-5V16.43c0-1.21-.31-1.9-2-2.07a0.32,0.32,0,0,1-.31-0.41,0.43,0.43,0,0,1,.28-0.48,15.41,15.41,0,0,0,4.83-1.69,0.32,0.32,0,0,1,.21.38,31.25,31.25,0,0,0-.17,5v7.46ZM116.88,5.14A1.79,1.79,0,1,1,118.67,7,1.83,1.83,0,0,1,116.88,5.14Z" transform="translate(0 -2)"/><path d="M128.44,21.71c0,3.66.31,5,3,5a5.68,5.68,0,0,0,2.35-.79,0.68,0.68,0,0,1,.38.55c0,0.21-1.45,1.83-4.59,1.83-4,0-4-3.42-4-4.28V14.91a0.36,0.36,0,0,0-.35-0.45h-1.73a0.26,0.26,0,0,1-.21-0.31,0.6,0.6,0,0,1,.21-0.48c3.21-2.42,3.87-4.25,4.56-4.25a0.41,0.41,0,0,1,.41.45c0,0.62-.1,1.21-0.1,3.18h5.31c0.24,0,.35.24,0.35,0.72a0.8,0.8,0,0,1-.93.86c-0.24,0-1.86-.17-4.73-0.17v7.25Z" transform="translate(0 -2)"/><path d="M149.29,14.91c0-1.14-1.62-1.17-2.66-1.17-0.31,0-.34-0.17-0.34-0.45a0.4,0.4,0,0,1,.31-0.45c1.1,0,2.24.07,3.35,0.07s2.14-.07,3.21-0.07c0.24,0,.24.31,0.24,0.45,0,0.31-.1.41-0.59,0.45a2.07,2.07,0,0,0-2.17,1.52c-1.24,2.86-6,12.87-6.76,14.81-2.66,6.66-3.8,7.11-4.93,7.11a1.95,1.95,0,1,1,.07-3.9c0.86,0,1.31.59,1.73,0.59,0.62,0,2.24-3.31,2.24-4.94a16.55,16.55,0,0,0-1.21-3.86c-2.17-5.59-2.83-8.59-3.56-10.53-0.31-.79-2-0.79-2.48-0.79a0.39,0.39,0,0,1-.31-0.48,0.37,0.37,0,0,1,.38-0.41c0.41,0,2.59.07,3.83,0.07s2.38-.07,3.42-0.07a0.38,0.38,0,0,1,.41.45,0.42,0.42,0,0,1-.35.45c-0.21,0-1.69,0-1.69.76,0,1.66,1.17,5.07,3.42,10.84C146.42,22.05,149.29,16,149.29,14.91Z" transform="translate(0 -2)"/><path d="M170.88,28.27a7.72,7.72,0,0,1-8-8,8,8,0,0,1,16,0C178.93,25.09,175.72,28.27,170.88,28.27Zm0-15.12c-3.59,0-4.73,3.73-4.73,7.11,0,2.93.69,7.11,4.73,7.11s4.76-4.18,4.76-7.11C175.65,16.88,174.51,13.15,170.88,13.15Z" transform="translate(0 -2)"/><path d="M186.79,24.92c0,1.28,0,2,1.73,2,1.28,0,1.42,0,1.42.41s-0.14.48-.52,0.48c-1.24,0-2.35-.07-3.93-0.07-2.76,0-3.35.07-3.66,0.07s-0.31-.21-0.31-0.45,0.07-.45.72-0.45c1.48,0,1.76-.28,1.76-1.76V15.56c0-.41,0-1.1-0.66-1.1h-1.9c-0.24,0-.41,0-0.41-0.45,0-.28.24-0.41,1.07-0.59,1.35-.31,1.69-0.38,1.79-1.93,0.35-5.25,1.9-8.15,6-9.21A10.35,10.35,0,0,1,192,2c0.9,0,2.17.35,2.17,1.48a1.54,1.54,0,0,1-1.62,1.69,3.09,3.09,0,0,1-1.9-.79,3.18,3.18,0,0,0-1.52-.79c-2,0-2.31,2.86-2.31,5V13h4.28c0.24,0,.34.24,0.34,0.72a0.8,0.8,0,0,1-.93.86c-0.24,0-2.9-.17-3.69-0.17V24.92Z" transform="translate(0 -2)"/><path d="M229.62,3.55A0.43,0.43,0,0,1,230,3.17c0.17,0,2.69.14,3.49,0.14,0.59,0,3.52-.14,3.76-0.14s0.38,0.28.38,0.59a0.38,0.38,0,0,1-.41.45c-3.11,0-3.49.24-3.49,1.83,0,2.24.38,9.49,0.72,19.15a1.7,1.7,0,0,0,1.9,1.62c1.93,0,2,.21,2,0.45,0,0.52-.17.59-0.38,0.59s-0.69-.07-5.49-0.07c-4.49,0-4.69.07-5,.07s-0.38-.24-0.38-0.55,0.07-.48,1.66-0.48c2.28,0,2.31-.55,2.31-1.93,0-2.07-.52-13.22-0.8-19.67h-0.07c-2.52,6.45-5.69,13.88-8,19.43C221,27.82,221,28.2,220.51,28.2s-0.52-.31-1.24-2.69-6.38-17.74-6.52-17.74c-0.59,2.52-2.86,14-2.86,17.43a1.49,1.49,0,0,0,1.73,1.62c0.86,0,1.86.07,1.86,0.28,0,0.66,0,.76-0.38.76s-0.62-.07-4.18-0.07c-3.14,0-3.38.07-3.59,0.07s-0.38,0-.38-0.59c0-.35.17-0.45,1.83-0.45,1.21,0,1.45-.45,1.83-2.42,0.93-5,1.76-10,2.83-14.94a15.13,15.13,0,0,0,.45-3.24,3.63,3.63,0,0,0-.9-1.73,11.71,11.71,0,0,0-3-.28c-0.41,0-.41-0.28-0.41-0.52s0.07-.52.38-0.52c0.66,0,3.62.14,4,.14,0.9,0,2.35-.14,2.8-0.14s0.48,0.38.83,1.62c0.72,2.59,5.73,16.57,6.35,17.84C224.54,16.53,227.17,10.22,229.62,3.55Z" transform="translate(0 -2)"/><path d="M245,24.57c0,2,.07,2.38,1.59,2.38,0.76,0,.83,0,0.83.45,0,0.21,0,.45-0.35.45-0.17,0-.62-0.07-2.86-0.07-3.25,0-4.14.07-4.66,0.07-0.28,0-.28-0.21-0.28-0.38,0-.45,0-0.52,1.31-0.52a1.29,1.29,0,0,0,1.41-.83,34.71,34.71,0,0,0,.21-5V16.43c0-1.21-.31-1.9-2-2.07a0.32,0.32,0,0,1-.31-0.41,0.43,0.43,0,0,1,.28-0.48,15.4,15.4,0,0,0,4.83-1.69c0.14,0,.21.17,0.21,0.38a31.32,31.32,0,0,0-.17,5v7.46ZM241.76,5.14A1.8,1.8,0,1,1,243.56,7,1.84,1.84,0,0,1,241.76,5.14Z" transform="translate(0 -2)"/><path d="M259.88,23.57c0,1.69-.9,4.69-5.63,4.69-0.62,0-2.62-.28-4-0.28a0.22,0.22,0,0,1-.17-0.17c0-.34-0.79-3.38-0.79-3.73s0.48-.21.62-0.21c0.83,0,1,3.49,4.35,3.49a2.94,2.94,0,0,0,3.14-3.07c0-3.62-7.73-2.45-7.73-7.35,0-2.83,2.35-4.69,5.25-4.69a27.8,27.8,0,0,1,3.73.31,1,1,0,0,1,.52,1c0.07,1.41.38,2.31,0.38,2.76a0.32,0.32,0,0,1-.38.28,0.61,0.61,0,0,1-.69-0.48c-0.24-.59-1.14-2.93-3.59-2.93a2.49,2.49,0,0,0-2.76,2.59A2.62,2.62,0,0,0,253.77,18C257.39,19.78,259.88,19.67,259.88,23.57Z" transform="translate(0 -2)"/><path d="M272.65,23.57c0,1.69-.9,4.69-5.63,4.69-0.62,0-2.62-.28-4-0.28a0.22,0.22,0,0,1-.17-0.17c0-.34-0.79-3.38-0.79-3.73s0.48-.21.62-0.21c0.83,0,1,3.49,4.35,3.49a2.94,2.94,0,0,0,3.14-3.07c0-3.62-7.73-2.45-7.73-7.35,0-2.83,2.35-4.69,5.25-4.69a27.77,27.77,0,0,1,3.73.31,1,1,0,0,1,.52,1c0.07,1.41.38,2.31,0.38,2.76a0.32,0.32,0,0,1-.38.28,0.61,0.61,0,0,1-.69-0.48c-0.24-.59-1.14-2.93-3.59-2.93a2.49,2.49,0,0,0-2.76,2.59A2.62,2.62,0,0,0,266.54,18C270.16,19.78,272.65,19.67,272.65,23.57Z" transform="translate(0 -2)"/><path d="M283.17,28.27a7.72,7.72,0,0,1-8-8,8,8,0,0,1,16,0C291.21,25.09,288,28.27,283.17,28.27Zm0-15.12c-3.59,0-4.73,3.73-4.73,7.11,0,2.93.69,7.11,4.73,7.11s4.76-4.18,4.76-7.11C287.93,16.88,286.8,13.15,283.17,13.15Z" transform="translate(0 -2)"/><path d="M295.52,17.08c0-3-.34-3.24-2.14-3.24-0.28,0-.76,0-0.76-0.35s0-.69.38-0.69,0.9,0.1,2,.1,2.52-.1,3-0.1c0.21,0,.28,0,0.28.48v9.32c0,2.59.83,4.07,3.38,4.07,1.24,0,3.42-.76,3.42-1.83V15.91c0-1.86-.35-2.07-2.14-2.07-0.62,0-1.11,0-1.11-.35,0-.52,0-0.69.24-0.69,0.48,0,.9.1,3,0.1,0.86,0,1.76-.1,2.62-0.1a0.42,0.42,0,0,1,.48.48c0,0.14-.31,2.8-0.31,5.25V25c0,0.55,0,1.28.86,1.28,0.48,0,1.24-.14,1.48-0.14s0.21,0,.21.66c0,0.21,0,.28-1.14.45a31.69,31.69,0,0,0-4,.9,0.46,0.46,0,0,1-.41-0.48c0-.41.07-1,0.1-1.31a9.57,9.57,0,0,1-5.14,1.9c-3.42,0-4.38-2.21-4.38-5.8V17.08Z" transform="translate(0 -2)"/><path d="M314.36,16.43c0-1.21-.31-1.9-2-2.07a0.32,0.32,0,0,1-.31-0.41,0.43,0.43,0,0,1,.28-0.48,15.42,15.42,0,0,0,4.83-1.69,0.41,0.41,0,0,1,.14.35c0,0.41-.17,1.28-0.17,3.14,1.14-1.28,3-3,4.83-3a2,2,0,0,1,2.21,1.93,1.7,1.7,0,0,1-1.69,1.73c-1.41,0-1.62-1.31-2.66-1.31a3.88,3.88,0,0,0-2.38,1.48,1.46,1.46,0,0,0-.24,1v7.83c0,1.28,0,2,1.73,2,1.28,0,1.42,0,1.42.41s-0.14.48-.52,0.48c-1.24,0-2.35-.07-3.93-0.07-2.76,0-3.35.07-4,.07-0.24,0-.31-0.21-0.31-0.45S311.95,27,312.6,27c1.48,0,1.76-.28,1.76-1.76V16.43Z" transform="translate(0 -2)"/><path d="M330.58,24.57c0,2,.07,2.38,1.59,2.38,0.76,0,.83,0,0.83.45,0,0.21,0,.45-0.35.45-0.17,0-.62-0.07-2.86-0.07-3.25,0-4.14.07-4.66,0.07-0.28,0-.28-0.21-0.28-0.38,0-.45,0-0.52,1.31-0.52a1.29,1.29,0,0,0,1.42-.83,35,35,0,0,0,.21-5V16.43c0-1.21-.31-1.9-2-2.07a0.32,0.32,0,0,1-.31-0.41,0.43,0.43,0,0,1,.28-0.48,15.45,15.45,0,0,0,4.83-1.69c0.14,0,.21.17,0.21,0.38a31.32,31.32,0,0,0-.17,5v7.46ZM327.37,5.14A1.8,1.8,0,1,1,329.17,7,1.84,1.84,0,0,1,327.37,5.14Z" transform="translate(0 -2)"/><path class="2ee348fd-3681-4cc5-bd7c-d2ee431fdf4c" d="M7.49,56.64c0,4.63,1.93,8.66,7.73,8.66,4,0,7.52-2.24,7.52-10.46V48c0-4.8-1-4.8-4.56-4.8-0.28,0-.28-0.21-0.28-0.52s0.1-.52.28-0.52c0.59,0,2.83.14,5.07,0.14,1.07,0,4-.14,4.49-0.14s0.48,0.07.48,0.59a0.38,0.38,0,0,1-.31.45c-3.31,0-4,0-4,4.07v8.18c0,9.32-5.94,11.8-9.94,11.8-7.73,0-9.91-5.18-9.91-9v-7.9c0-2.45,0-3.28-.07-4.87,0-2-.62-2.31-3.62-2.31C0,43.21,0,42.93,0,42.62a0.37,0.37,0,0,1,.31-0.45c0.28,0,3.28.14,5.45,0.14s5.21-.14,5.49-0.14a0.37,0.37,0,0,1,.31.45c0,0.31,0,.59-0.38.59-3,0-3.59.28-3.62,2.31,0,1.59-.07,2.42-0.07,4.87v6.25Z" transform="translate(0 -2)"/><path class="2ee348fd-3681-4cc5-bd7c-d2ee431fdf4c" d="M34.1,63.57c0,2,.07,2.38,1.59,2.38,0.93,0,1,0,1,.45,0,0.21,0,.45-0.35.45-0.17,0-.62-0.07-3-0.07-3.24,0-4.14.07-4.66,0.07-0.28,0-.28-0.21-0.28-0.38,0-.45,0-0.52,1.31-0.52a1.29,1.29,0,0,0,1.41-.83,34.8,34.8,0,0,0,.21-5V55.43c0-1.21-.31-1.9-2-2.07A0.32,0.32,0,0,1,29,52.94a0.43,0.43,0,0,1,.28-0.48,15.39,15.39,0,0,0,4.83-1.69c0.07,0,.1.1,0.1,0.38s-0.07,1-.07,2.49c1.79-1.21,3.56-2.38,5.42-2.38,1.17,0,4.56.24,4.56,5.18v8.28c0,0.59.1,1.24,2.24,1.24,0.35,0,.35.21,0.35,0.45s0,0.45-.48.45c-1,0-1.66-.07-3.49-0.07-2.8,0-3.35.07-3.62,0.07s-0.24-.24-0.24-0.41A0.44,0.44,0,0,1,39.31,66c1.66,0,2-.14,2-1.28V58.5c0-3.21-.28-5.35-3.87-5.35a5.12,5.12,0,0,0-3.31,1.59v8.84Z" transform="translate(0 -2)"/><path class="2ee348fd-3681-4cc5-bd7c-d2ee431fdf4c" d="M53.45,63.57c0,2,.07,2.38,1.59,2.38,0.76,0,.83,0,0.83.45,0,0.21,0,.45-0.35.45-0.17,0-.62-0.07-2.86-0.07-3.24,0-4.14.07-4.66,0.07-0.28,0-.28-0.21-0.28-0.38,0-.45,0-0.52,1.31-0.52a1.29,1.29,0,0,0,1.41-.83,34.82,34.82,0,0,0,.21-5V55.43c0-1.21-.31-1.9-2-2.07a0.32,0.32,0,0,1-.31-0.41,0.43,0.43,0,0,1,.28-0.48,15.41,15.41,0,0,0,4.83-1.69c0.14,0,.21.17,0.21,0.38a31.19,31.19,0,0,0-.17,5v7.46ZM50.24,44.14A1.8,1.8,0,1,1,52,46,1.83,1.83,0,0,1,50.24,44.14Z" transform="translate(0 -2)"/><path class="2ee348fd-3681-4cc5-bd7c-d2ee431fdf4c" d="M69.29,53.74c0-1-1.79-1-2.31-1a0.39,0.39,0,0,1-.31-0.48,0.43,0.43,0,0,1,.45-0.41c0.93,0,2,.07,3,0.07s2-.07,3-0.07a0.36,0.36,0,0,1,.31.41,0.32,0.32,0,0,1-.35.38c-2,.31-2.1.45-3.21,3.14-1.21,3-3.28,7.32-3.9,8.77-1,2.31-1.28,2.73-1.55,2.73s-0.62-.72-1.31-2.21c-1.21-2.59-4.07-11-4.56-11.7a1.18,1.18,0,0,0-1.21-.55c-0.93,0-1.07-.1-1.07-0.59a0.36,0.36,0,0,1,.38-0.38c1.1,0,2.17.07,3.28,0.07,0.69,0,3.42-.07,4.11-0.07,0.24,0,.28.31,0.28,0.48a0.41,0.41,0,0,1-.35.41c-1,0-2,.1-2,0.83,0,1.14,2.8,8.11,3.52,9.63C68.74,56,69.29,54.67,69.29,53.74Z" transform="translate(0 -2)"/><path class="2ee348fd-3681-4cc5-bd7c-d2ee431fdf4c" d="M76,57.46a12.5,12.5,0,0,0-.14,2,5.82,5.82,0,0,0,5.66,5.69,4.5,4.5,0,0,0,4-2.07,1.26,1.26,0,0,1,.52-0.59,0.72,0.72,0,0,1,.55.41,6.3,6.3,0,0,1-5.94,4.38c-4.94,0-7.52-3-7.52-7.87s3.35-8.28,6.9-8.28a5.78,5.78,0,0,1,6.18,6c0,0.35-.14.38-0.41,0.38H76Zm5.94-1a1,1,0,0,0,1.17-1.14c0-2.69-1.86-3.28-3-3.28-2.48,0-3.52,2.07-3.87,4.42H82Z" transform="translate(0 -2)"/><path class="2ee348fd-3681-4cc5-bd7c-d2ee431fdf4c" d="M91.1,55.43c0-1.21-.31-1.9-2-2.07a0.32,0.32,0,0,1-.31-0.41A0.43,0.43,0,0,1,89,52.46a15.38,15.38,0,0,0,4.83-1.69,0.4,0.4,0,0,1,.14.35c0,0.41-.17,1.28-0.17,3.14,1.14-1.28,3-3,4.83-3a2,2,0,0,1,2.21,1.93,1.7,1.7,0,0,1-1.69,1.73c-1.41,0-1.62-1.31-2.66-1.31a3.87,3.87,0,0,0-2.38,1.48,1.45,1.45,0,0,0-.24,1v7.83c0,1.28,0,2,1.73,2,1.28,0,1.42,0,1.42.41s-0.14.48-.52,0.48c-1.24,0-2.35-.07-3.93-0.07-2.76,0-3.35.07-4,.07-0.24,0-.31-0.21-0.31-0.45S88.69,66,89.34,66c1.48,0,1.76-.28,1.76-1.76V55.43Z" transform="translate(0 -2)"/><path class="2ee348fd-3681-4cc5-bd7c-d2ee431fdf4c" d="M112.64,62.57c0,1.69-.9,4.69-5.63,4.69-0.62,0-2.62-.28-4-0.28a0.22,0.22,0,0,1-.17-0.17c0-.34-0.79-3.38-0.79-3.73s0.48-.21.62-0.21c0.83,0,1,3.49,4.35,3.49a2.94,2.94,0,0,0,3.14-3.07c0-3.62-7.73-2.45-7.73-7.35,0-2.83,2.35-4.69,5.25-4.69a27.84,27.84,0,0,1,3.73.31,1,1,0,0,1,.52,1c0.07,1.41.38,2.31,0.38,2.76a0.32,0.32,0,0,1-.38.28,0.61,0.61,0,0,1-.69-0.48c-0.24-.59-1.14-2.93-3.59-2.93a2.49,2.49,0,0,0-2.76,2.59A2.62,2.62,0,0,0,106.53,57C110.15,58.78,112.64,58.67,112.64,62.57Z" transform="translate(0 -2)"/><path class="2ee348fd-3681-4cc5-bd7c-d2ee431fdf4c" d="M120.09,63.57c0,2,.07,2.38,1.59,2.38,0.76,0,.83,0,0.83.45,0,0.21,0,.45-0.35.45-0.17,0-.62-0.07-2.87-0.07-3.24,0-4.14.07-4.66,0.07-0.28,0-.28-0.21-0.28-0.38,0-.45,0-0.52,1.31-0.52a1.29,1.29,0,0,0,1.42-.83,35.06,35.06,0,0,0,.21-5V55.43c0-1.21-.31-1.9-2-2.07a0.32,0.32,0,0,1-.31-0.41,0.43,0.43,0,0,1,.28-0.48,15.41,15.41,0,0,0,4.83-1.69,0.32,0.32,0,0,1,.21.38,31.25,31.25,0,0,0-.17,5v7.46Zm-3.21-19.43A1.79,1.79,0,1,1,118.67,46,1.83,1.83,0,0,1,116.88,44.14Z" transform="translate(0 -2)"/><path class="2ee348fd-3681-4cc5-bd7c-d2ee431fdf4c" d="M128.44,60.71c0,3.66.31,5,3,5a5.68,5.68,0,0,0,2.35-.79,0.68,0.68,0,0,1,.38.55c0,0.21-1.45,1.83-4.59,1.83-4,0-4-3.42-4-4.28V53.91a0.36,0.36,0,0,0-.35-0.45h-1.73a0.26,0.26,0,0,1-.21-0.31,0.6,0.6,0,0,1,.21-0.48c3.21-2.42,3.87-4.25,4.56-4.25a0.41,0.41,0,0,1,.41.45c0,0.62-.1,1.21-0.1,3.18h5.31c0.24,0,.35.24,0.35,0.72a0.8,0.8,0,0,1-.93.86c-0.24,0-1.86-.17-4.73-0.17v7.25Z" transform="translate(0 -2)"/><path class="2ee348fd-3681-4cc5-bd7c-d2ee431fdf4c" d="M149.29,53.91c0-1.14-1.62-1.17-2.66-1.17-0.31,0-.34-0.17-0.34-0.45a0.4,0.4,0,0,1,.31-0.45c1.1,0,2.24.07,3.35,0.07s2.14-.07,3.21-0.07c0.24,0,.24.31,0.24,0.45,0,0.31-.1.41-0.59,0.45a2.07,2.07,0,0,0-2.17,1.52c-1.24,2.86-6,12.87-6.76,14.81-2.66,6.66-3.8,7.11-4.93,7.11a1.95,1.95,0,1,1,.07-3.9c0.86,0,1.31.59,1.73,0.59,0.62,0,2.24-3.31,2.24-4.94a16.55,16.55,0,0,0-1.21-3.86c-2.17-5.59-2.83-8.59-3.56-10.53-0.31-.79-2-0.79-2.48-0.79a0.39,0.39,0,0,1-.31-0.48,0.37,0.37,0,0,1,.38-0.41c0.41,0,2.59.07,3.83,0.07s2.38-.07,3.42-0.07a0.38,0.38,0,0,1,.41.45,0.42,0.42,0,0,1-.35.45c-0.21,0-1.69,0-1.69.76,0,1.66,1.17,5.07,3.42,10.84C146.42,61.05,149.29,55,149.29,53.91Z" transform="translate(0 -2)"/><path class="2ee348fd-3681-4cc5-bd7c-d2ee431fdf4c" d="M170.88,67.27a7.72,7.72,0,0,1-8-8,8,8,0,0,1,16,0C178.93,64.09,175.72,67.27,170.88,67.27Zm0-15.12c-3.59,0-4.73,3.73-4.73,7.11,0,2.93.69,7.11,4.73,7.11s4.76-4.18,4.76-7.11C175.65,55.88,174.51,52.15,170.88,52.15Z" transform="translate(0 -2)"/><path class="2ee348fd-3681-4cc5-bd7c-d2ee431fdf4c" d="M186.79,63.92c0,1.28,0,2,1.73,2,1.28,0,1.42,0,1.42.41s-0.14.48-.52,0.48c-1.24,0-2.35-.07-3.93-0.07-2.76,0-3.35.07-3.66,0.07s-0.31-.21-0.31-0.45,0.07-.45.72-0.45c1.48,0,1.76-.28,1.76-1.76V54.56c0-.41,0-1.1-0.66-1.1h-1.9c-0.24,0-.41,0-0.41-0.45,0-.28.24-0.41,1.07-0.59,1.35-.31,1.69-0.38,1.79-1.93,0.35-5.25,1.9-8.15,6-9.21A10.35,10.35,0,0,1,192,41c0.9,0,2.17.35,2.17,1.48a1.54,1.54,0,0,1-1.62,1.69,3.09,3.09,0,0,1-1.9-.79,3.18,3.18,0,0,0-1.52-.79c-2,0-2.31,2.86-2.31,5V52h4.28c0.24,0,.34.24,0.34,0.72a0.8,0.8,0,0,1-.93.86c-0.24,0-2.9-.17-3.69-0.17V63.92Z" transform="translate(0 -2)"/><path class="2ee348fd-3681-4cc5-bd7c-d2ee431fdf4c" d="M229.62,42.55a0.43,0.43,0,0,1,.41-0.38c0.17,0,2.69.14,3.49,0.14,0.59,0,3.52-.14,3.76-0.14s0.38,0.28.38,0.59a0.38,0.38,0,0,1-.41.45c-3.11,0-3.49.24-3.49,1.83,0,2.24.38,9.49,0.72,19.15a1.7,1.7,0,0,0,1.9,1.62c1.93,0,2,.21,2,0.45,0,0.52-.17.59-0.38,0.59s-0.69-.07-5.49-0.07c-4.49,0-4.69.07-5,.07s-0.38-.24-0.38-0.55,0.07-.48,1.66-0.48c2.28,0,2.31-.55,2.31-1.93,0-2.07-.52-13.22-0.8-19.67h-0.07c-2.52,6.45-5.69,13.88-8,19.43C221,66.82,221,67.2,220.51,67.2s-0.52-.31-1.24-2.69-6.38-17.74-6.52-17.74c-0.59,2.52-2.86,14-2.86,17.43a1.49,1.49,0,0,0,1.73,1.62c0.86,0,1.86.07,1.86,0.28,0,0.66,0,.76-0.38.76s-0.62-.07-4.18-0.07c-3.14,0-3.38.07-3.59,0.07s-0.38,0-.38-0.59c0-.35.17-0.45,1.83-0.45,1.21,0,1.45-.45,1.83-2.42,0.93-5,1.76-10,2.83-14.94a15.13,15.13,0,0,0,.45-3.24,3.63,3.63,0,0,0-.9-1.73,11.71,11.71,0,0,0-3-.28c-0.41,0-.41-0.28-0.41-0.52s0.07-.52.38-0.52c0.66,0,3.62.14,4,.14,0.9,0,2.35-.14,2.8-0.14s0.48,0.38.83,1.62c0.72,2.59,5.73,16.57,6.35,17.84C224.54,55.53,227.17,49.22,229.62,42.55Z" transform="translate(0 -2)"/><path class="2ee348fd-3681-4cc5-bd7c-d2ee431fdf4c" d="M245,63.57c0,2,.07,2.38,1.59,2.38,0.76,0,.83,0,0.83.45,0,0.21,0,.45-0.35.45-0.17,0-.62-0.07-2.86-0.07-3.25,0-4.14.07-4.66,0.07-0.28,0-.28-0.21-0.28-0.38,0-.45,0-0.52,1.31-0.52a1.29,1.29,0,0,0,1.41-.83,34.71,34.71,0,0,0,.21-5V55.43c0-1.21-.31-1.9-2-2.07a0.32,0.32,0,0,1-.31-0.41,0.43,0.43,0,0,1,.28-0.48,15.4,15.4,0,0,0,4.83-1.69c0.14,0,.21.17,0.21,0.38a31.32,31.32,0,0,0-.17,5v7.46Zm-3.21-19.43a1.8,1.8,0,1,1,1.8,1.83A1.84,1.84,0,0,1,241.76,44.14Z" transform="translate(0 -2)"/><path class="2ee348fd-3681-4cc5-bd7c-d2ee431fdf4c" d="M259.88,62.57c0,1.69-.9,4.69-5.63,4.69-0.62,0-2.62-.28-4-0.28a0.22,0.22,0,0,1-.17-0.17c0-.34-0.79-3.38-0.79-3.73s0.48-.21.62-0.21c0.83,0,1,3.49,4.35,3.49a2.94,2.94,0,0,0,3.14-3.07c0-3.62-7.73-2.45-7.73-7.35,0-2.83,2.35-4.69,5.25-4.69a27.8,27.8,0,0,1,3.73.31,1,1,0,0,1,.52,1c0.07,1.41.38,2.31,0.38,2.76a0.32,0.32,0,0,1-.38.28,0.61,0.61,0,0,1-.69-0.48c-0.24-.59-1.14-2.93-3.59-2.93a2.49,2.49,0,0,0-2.76,2.59A2.62,2.62,0,0,0,253.77,57C257.39,58.78,259.88,58.67,259.88,62.57Z" transform="translate(0 -2)"/><path class="2ee348fd-3681-4cc5-bd7c-d2ee431fdf4c" d="M272.65,62.57c0,1.69-.9,4.69-5.63,4.69-0.62,0-2.62-.28-4-0.28a0.22,0.22,0,0,1-.17-0.17c0-.34-0.79-3.38-0.79-3.73s0.48-.21.62-0.21c0.83,0,1,3.49,4.35,3.49a2.94,2.94,0,0,0,3.14-3.07c0-3.62-7.73-2.45-7.73-7.35,0-2.83,2.35-4.69,5.25-4.69a27.77,27.77,0,0,1,3.73.31,1,1,0,0,1,.52,1c0.07,1.41.38,2.31,0.38,2.76a0.32,0.32,0,0,1-.38.28,0.61,0.61,0,0,1-.69-0.48c-0.24-.59-1.14-2.93-3.59-2.93a2.49,2.49,0,0,0-2.76,2.59A2.62,2.62,0,0,0,266.54,57C270.16,58.78,272.65,58.67,272.65,62.57Z" transform="translate(0 -2)"/><path class="2ee348fd-3681-4cc5-bd7c-d2ee431fdf4c" d="M283.17,67.27a7.72,7.72,0,0,1-8-8,8,8,0,0,1,16,0C291.21,64.09,288,67.27,283.17,67.27Zm0-15.12c-3.59,0-4.73,3.73-4.73,7.11,0,2.93.69,7.11,4.73,7.11s4.76-4.18,4.76-7.11C287.93,55.88,286.8,52.15,283.17,52.15Z" transform="translate(0 -2)"/><path class="2ee348fd-3681-4cc5-bd7c-d2ee431fdf4c" d="M295.52,56.08c0-3-.34-3.24-2.14-3.24-0.28,0-.76,0-0.76-0.35s0-.69.38-0.69,0.9,0.1,2,.1,2.52-.1,3-0.1c0.21,0,.28,0,0.28.48v9.32c0,2.59.83,4.07,3.38,4.07,1.24,0,3.42-.76,3.42-1.83V54.91c0-1.86-.35-2.07-2.14-2.07-0.62,0-1.11,0-1.11-.35,0-.52,0-0.69.24-0.69,0.48,0,.9.1,3,0.1,0.86,0,1.76-.1,2.62-0.1a0.42,0.42,0,0,1,.48.48c0,0.14-.31,2.8-0.31,5.25V64c0,0.55,0,1.28.86,1.28,0.48,0,1.24-.14,1.48-0.14s0.21,0,.21.66c0,0.21,0,.28-1.14.45a31.69,31.69,0,0,0-4,.9,0.46,0.46,0,0,1-.41-0.48c0-.41.07-1,0.1-1.31a9.57,9.57,0,0,1-5.14,1.9c-3.42,0-4.38-2.21-4.38-5.8V56.08Z" transform="translate(0 -2)"/><path class="2ee348fd-3681-4cc5-bd7c-d2ee431fdf4c" d="M314.36,55.43c0-1.21-.31-1.9-2-2.07a0.32,0.32,0,0,1-.31-0.41,0.43,0.43,0,0,1,.28-0.48,15.42,15.42,0,0,0,4.83-1.69,0.41,0.41,0,0,1,.14.35c0,0.41-.17,1.28-0.17,3.14,1.14-1.28,3-3,4.83-3a2,2,0,0,1,2.21,1.93,1.7,1.7,0,0,1-1.69,1.73c-1.41,0-1.62-1.31-2.66-1.31a3.88,3.88,0,0,0-2.38,1.48,1.46,1.46,0,0,0-.24,1v7.83c0,1.28,0,2,1.73,2,1.28,0,1.42,0,1.42.41s-0.14.48-.52,0.48c-1.24,0-2.35-.07-3.93-0.07-2.76,0-3.35.07-4,.07-0.24,0-.31-0.21-0.31-0.45S311.95,66,312.6,66c1.48,0,1.76-.28,1.76-1.76V55.43Z" transform="translate(0 -2)"/><path class="2ee348fd-3681-4cc5-bd7c-d2ee431fdf4c" d="M330.58,63.57c0,2,.07,2.38,1.59,2.38,0.76,0,.83,0,0.83.45,0,0.21,0,.45-0.35.45-0.17,0-.62-0.07-2.86-0.07-3.25,0-4.14.07-4.66,0.07-0.28,0-.28-0.21-0.28-0.38,0-.45,0-0.52,1.31-0.52a1.29,1.29,0,0,0,1.42-.83,35,35,0,0,0,.21-5V55.43c0-1.21-.31-1.9-2-2.07a0.32,0.32,0,0,1-.31-0.41,0.43,0.43,0,0,1,.28-0.48,15.45,15.45,0,0,0,4.83-1.69c0.14,0,.21.17,0.21,0.38a31.32,31.32,0,0,0-.17,5v7.46Zm-3.21-19.43a1.8,1.8,0,1,1,1.8,1.83A1.84,1.84,0,0,1,327.37,44.14Z" transform="translate(0 -2)"/><path class="41d0bb17-ace8-43de-8252-c38ccf847a4a" d="M7.49,95.64c0,4.63,1.93,8.66,7.73,8.66,4,0,7.52-2.24,7.52-10.46V87c0-4.8-1-4.8-4.56-4.8-0.28,0-.28-0.21-0.28-0.52s0.1-.52.28-0.52c0.59,0,2.83.14,5.07,0.14,1.07,0,4-.14,4.49-0.14s0.48,0.07.48,0.59a0.38,0.38,0,0,1-.31.45c-3.31,0-4,0-4,4.07v8.18c0,9.32-5.94,11.8-9.94,11.8-7.73,0-9.91-5.18-9.91-9v-7.9c0-2.45,0-3.28-.07-4.87,0-2-.62-2.31-3.62-2.31C0,82.21,0,81.93,0,81.62a0.37,0.37,0,0,1,.31-0.45c0.28,0,3.28.14,5.45,0.14s5.21-.14,5.49-0.14a0.37,0.37,0,0,1,.31.45c0,0.31,0,.59-0.38.59-3,0-3.59.28-3.62,2.31,0,1.59-.07,2.42-0.07,4.87v6.25Z" transform="translate(0 -2)"/><path class="41d0bb17-ace8-43de-8252-c38ccf847a4a" d="M34.1,102.57c0,2,.07,2.38,1.59,2.38,0.93,0,1,0,1,.45,0,0.21,0,.45-0.35.45-0.17,0-.62-0.07-3-0.07-3.24,0-4.14.07-4.66,0.07-0.28,0-.28-0.21-0.28-0.38,0-.45,0-0.52,1.31-0.52a1.29,1.29,0,0,0,1.41-.83,34.8,34.8,0,0,0,.21-5V94.43c0-1.21-.31-1.9-2-2.07A0.32,0.32,0,0,1,29,91.94a0.43,0.43,0,0,1,.28-0.48,15.39,15.39,0,0,0,4.83-1.69c0.07,0,.1.1,0.1,0.38s-0.07,1-.07,2.49c1.79-1.21,3.56-2.38,5.42-2.38,1.17,0,4.56.24,4.56,5.18v8.28c0,0.59.1,1.24,2.24,1.24,0.35,0,.35.21,0.35,0.45s0,0.45-.48.45c-1,0-1.66-.07-3.49-0.07-2.8,0-3.35.07-3.62,0.07s-0.24-.24-0.24-0.41a0.44,0.44,0,0,1,.48-0.48c1.66,0,2-.14,2-1.28V97.5c0-3.21-.28-5.35-3.87-5.35a5.12,5.12,0,0,0-3.31,1.59v8.84Z" transform="translate(0 -2)"/><path class="41d0bb17-ace8-43de-8252-c38ccf847a4a" d="M53.45,102.57c0,2,.07,2.38,1.59,2.38,0.76,0,.83,0,0.83.45,0,0.21,0,.45-0.35.45-0.17,0-.62-0.07-2.86-0.07-3.24,0-4.14.07-4.66,0.07-0.28,0-.28-0.21-0.28-0.38,0-.45,0-0.52,1.31-0.52a1.29,1.29,0,0,0,1.41-.83,34.82,34.82,0,0,0,.21-5V94.43c0-1.21-.31-1.9-2-2.07a0.32,0.32,0,0,1-.31-0.41,0.43,0.43,0,0,1,.28-0.48,15.41,15.41,0,0,0,4.83-1.69c0.14,0,.21.17,0.21,0.38a31.19,31.19,0,0,0-.17,5v7.46ZM50.24,83.14A1.8,1.8,0,1,1,52,85,1.83,1.83,0,0,1,50.24,83.14Z" transform="translate(0 -2)"/><path class="41d0bb17-ace8-43de-8252-c38ccf847a4a" d="M69.29,92.74c0-1-1.79-1-2.31-1a0.39,0.39,0,0,1-.31-0.48,0.43,0.43,0,0,1,.45-0.41c0.93,0,2,.07,3,0.07s2-.07,3-0.07a0.36,0.36,0,0,1,.31.41,0.32,0.32,0,0,1-.35.38c-2,.31-2.1.45-3.21,3.14-1.21,3-3.28,7.32-3.9,8.77-1,2.31-1.28,2.73-1.55,2.73s-0.62-.72-1.31-2.21c-1.21-2.59-4.07-11-4.56-11.7a1.18,1.18,0,0,0-1.21-.55c-0.93,0-1.07-.1-1.07-0.59a0.36,0.36,0,0,1,.38-0.38c1.1,0,2.17.07,3.28,0.07,0.69,0,3.42-.07,4.11-0.07,0.24,0,.28.31,0.28,0.48a0.41,0.41,0,0,1-.35.41c-1,0-2,.1-2,0.83,0,1.14,2.8,8.11,3.52,9.63C68.74,95,69.29,93.67,69.29,92.74Z" transform="translate(0 -2)"/><path class="41d0bb17-ace8-43de-8252-c38ccf847a4a" d="M76,96.46a12.5,12.5,0,0,0-.14,2,5.82,5.82,0,0,0,5.66,5.69,4.5,4.5,0,0,0,4-2.07,1.26,1.26,0,0,1,.52-0.59,0.72,0.72,0,0,1,.55.41,6.3,6.3,0,0,1-5.94,4.38c-4.94,0-7.52-3-7.52-7.87s3.35-8.28,6.9-8.28a5.78,5.78,0,0,1,6.18,6c0,0.35-.14.38-0.41,0.38H76Zm5.94-1a1,1,0,0,0,1.17-1.14c0-2.69-1.86-3.28-3-3.28-2.48,0-3.52,2.07-3.87,4.42H82Z" transform="translate(0 -2)"/><path class="41d0bb17-ace8-43de-8252-c38ccf847a4a" d="M91.1,94.43c0-1.21-.31-1.9-2-2.07a0.32,0.32,0,0,1-.31-0.41A0.43,0.43,0,0,1,89,91.46a15.38,15.38,0,0,0,4.83-1.69,0.4,0.4,0,0,1,.14.35c0,0.41-.17,1.28-0.17,3.14,1.14-1.28,3-3,4.83-3a2,2,0,0,1,2.21,1.93,1.7,1.7,0,0,1-1.69,1.73c-1.41,0-1.62-1.31-2.66-1.31a3.87,3.87,0,0,0-2.38,1.48,1.45,1.45,0,0,0-.24,1v7.83c0,1.28,0,2,1.73,2,1.28,0,1.42,0,1.42.41s-0.14.48-.52,0.48c-1.24,0-2.35-.07-3.93-0.07-2.76,0-3.35.07-4,.07-0.24,0-.31-0.21-0.31-0.45s0.41-.45,1.07-0.45c1.48,0,1.76-.28,1.76-1.76V94.43Z" transform="translate(0 -2)"/><path class="41d0bb17-ace8-43de-8252-c38ccf847a4a" d="M112.64,101.57c0,1.69-.9,4.69-5.63,4.69-0.62,0-2.62-.28-4-0.28a0.22,0.22,0,0,1-.17-0.17c0-.34-0.79-3.38-0.79-3.73s0.48-.21.62-0.21c0.83,0,1,3.49,4.35,3.49a2.94,2.94,0,0,0,3.14-3.07c0-3.62-7.73-2.45-7.73-7.35,0-2.83,2.35-4.69,5.25-4.69a27.84,27.84,0,0,1,3.73.31,1,1,0,0,1,.52,1c0.07,1.41.38,2.31,0.38,2.76a0.32,0.32,0,0,1-.38.28,0.61,0.61,0,0,1-.69-0.48c-0.24-.59-1.14-2.93-3.59-2.93a2.49,2.49,0,0,0-2.76,2.59A2.62,2.62,0,0,0,106.53,96C110.15,97.78,112.64,97.67,112.64,101.57Z" transform="translate(0 -2)"/><path class="41d0bb17-ace8-43de-8252-c38ccf847a4a" d="M120.09,102.57c0,2,.07,2.38,1.59,2.38,0.76,0,.83,0,0.83.45,0,0.21,0,.45-0.35.45-0.17,0-.62-0.07-2.87-0.07-3.24,0-4.14.07-4.66,0.07-0.28,0-.28-0.21-0.28-0.38,0-.45,0-0.52,1.31-0.52a1.29,1.29,0,0,0,1.42-.83,35.06,35.06,0,0,0,.21-5V94.43c0-1.21-.31-1.9-2-2.07a0.32,0.32,0,0,1-.31-0.41,0.43,0.43,0,0,1,.28-0.48,15.41,15.41,0,0,0,4.83-1.69,0.32,0.32,0,0,1,.21.38,31.25,31.25,0,0,0-.17,5v7.46Zm-3.21-19.43A1.79,1.79,0,1,1,118.67,85,1.83,1.83,0,0,1,116.88,83.14Z" transform="translate(0 -2)"/><path class="41d0bb17-ace8-43de-8252-c38ccf847a4a" d="M128.44,99.71c0,3.66.31,5,3,5a5.68,5.68,0,0,0,2.35-.79,0.68,0.68,0,0,1,.38.55c0,0.21-1.45,1.83-4.59,1.83-4,0-4-3.42-4-4.28V92.91a0.36,0.36,0,0,0-.35-0.45h-1.73a0.26,0.26,0,0,1-.21-0.31,0.6,0.6,0,0,1,.21-0.48c3.21-2.42,3.87-4.25,4.56-4.25a0.41,0.41,0,0,1,.41.45c0,0.62-.1,1.21-0.1,3.18h5.31c0.24,0,.35.24,0.35,0.72a0.8,0.8,0,0,1-.93.86c-0.24,0-1.86-.17-4.73-0.17v7.25Z" transform="translate(0 -2)"/><path class="41d0bb17-ace8-43de-8252-c38ccf847a4a" d="M149.29,92.91c0-1.14-1.62-1.17-2.66-1.17-0.31,0-.34-0.17-0.34-0.45a0.4,0.4,0,0,1,.31-0.45c1.1,0,2.24.07,3.35,0.07s2.14-.07,3.21-0.07c0.24,0,.24.31,0.24,0.45,0,0.31-.1.41-0.59,0.45a2.07,2.07,0,0,0-2.17,1.52c-1.24,2.86-6,12.87-6.76,14.81-2.66,6.66-3.8,7.11-4.93,7.11a1.95,1.95,0,1,1,.07-3.9c0.86,0,1.31.59,1.73,0.59,0.62,0,2.24-3.31,2.24-4.94a16.55,16.55,0,0,0-1.21-3.86c-2.17-5.59-2.83-8.59-3.56-10.53-0.31-.79-2-0.79-2.48-0.79a0.39,0.39,0,0,1-.31-0.48,0.37,0.37,0,0,1,.38-0.41c0.41,0,2.59.07,3.83,0.07s2.38-.07,3.42-0.07a0.38,0.38,0,0,1,.41.45,0.42,0.42,0,0,1-.35.45c-0.21,0-1.69,0-1.69.76,0,1.66,1.17,5.07,3.42,10.84C146.42,100.05,149.29,94,149.29,92.91Z" transform="translate(0 -2)"/><path class="41d0bb17-ace8-43de-8252-c38ccf847a4a" d="M170.88,106.27a7.72,7.72,0,0,1-8-8,8,8,0,0,1,16,0C178.93,103.09,175.72,106.27,170.88,106.27Zm0-15.12c-3.59,0-4.73,3.73-4.73,7.11,0,2.93.69,7.11,4.73,7.11s4.76-4.18,4.76-7.11C175.65,94.88,174.51,91.15,170.88,91.15Z" transform="translate(0 -2)"/><path class="41d0bb17-ace8-43de-8252-c38ccf847a4a" d="M186.79,102.92c0,1.28,0,2,1.73,2,1.28,0,1.42,0,1.42.41s-0.14.48-.52,0.48c-1.24,0-2.35-.07-3.93-0.07-2.76,0-3.35.07-3.66,0.07s-0.31-.21-0.31-0.45,0.07-.45.72-0.45c1.48,0,1.76-.28,1.76-1.76V93.56c0-.41,0-1.1-0.66-1.1h-1.9c-0.24,0-.41,0-0.41-0.45,0-.28.24-0.41,1.07-0.59,1.35-.31,1.69-0.38,1.79-1.93,0.35-5.25,1.9-8.15,6-9.21A10.35,10.35,0,0,1,192,80c0.9,0,2.17.35,2.17,1.48a1.54,1.54,0,0,1-1.62,1.69,3.09,3.09,0,0,1-1.9-.79,3.18,3.18,0,0,0-1.52-.79c-2,0-2.31,2.86-2.31,5V91h4.28c0.24,0,.34.24,0.34,0.72a0.8,0.8,0,0,1-.93.86c-0.24,0-2.9-.17-3.69-0.17v10.46Z" transform="translate(0 -2)"/><path class="41d0bb17-ace8-43de-8252-c38ccf847a4a" d="M229.62,81.55a0.43,0.43,0,0,1,.41-0.38c0.17,0,2.69.14,3.49,0.14,0.59,0,3.52-.14,3.76-0.14s0.38,0.28.38,0.59a0.38,0.38,0,0,1-.41.45c-3.11,0-3.49.24-3.49,1.83,0,2.24.38,9.49,0.72,19.15a1.7,1.7,0,0,0,1.9,1.62c1.93,0,2,.21,2,0.45,0,0.52-.17.59-0.38,0.59s-0.69-.07-5.49-0.07c-4.49,0-4.69.07-5,.07s-0.38-.24-0.38-0.55,0.07-.48,1.66-0.48c2.28,0,2.31-.55,2.31-1.93,0-2.07-.52-13.22-0.8-19.67h-0.07c-2.52,6.45-5.69,13.88-8,19.43-1.31,3.17-1.31,3.55-1.76,3.55s-0.52-.31-1.24-2.69-6.38-17.74-6.52-17.74c-0.59,2.52-2.86,14-2.86,17.43a1.49,1.49,0,0,0,1.73,1.62c0.86,0,1.86.07,1.86,0.28,0,0.66,0,.76-0.38.76s-0.62-.07-4.18-0.07c-3.14,0-3.38.07-3.59,0.07s-0.38,0-.38-0.59c0-.35.17-0.45,1.83-0.45,1.21,0,1.45-.45,1.83-2.42,0.93-5,1.76-10,2.83-14.94a15.13,15.13,0,0,0,.45-3.24,3.63,3.63,0,0,0-.9-1.73,11.71,11.71,0,0,0-3-.28c-0.41,0-.41-0.28-0.41-0.52s0.07-.52.38-0.52c0.66,0,3.62.14,4,.14,0.9,0,2.35-.14,2.8-0.14s0.48,0.38.83,1.62c0.72,2.59,5.73,16.57,6.35,17.84C224.54,94.53,227.17,88.22,229.62,81.55Z" transform="translate(0 -2)"/><path class="41d0bb17-ace8-43de-8252-c38ccf847a4a" d="M245,102.57c0,2,.07,2.38,1.59,2.38,0.76,0,.83,0,0.83.45,0,0.21,0,.45-0.35.45-0.17,0-.62-0.07-2.86-0.07-3.25,0-4.14.07-4.66,0.07-0.28,0-.28-0.21-0.28-0.38,0-.45,0-0.52,1.31-0.52a1.29,1.29,0,0,0,1.41-.83,34.71,34.71,0,0,0,.21-5V94.43c0-1.21-.31-1.9-2-2.07a0.32,0.32,0,0,1-.31-0.41,0.43,0.43,0,0,1,.28-0.48,15.4,15.4,0,0,0,4.83-1.69c0.14,0,.21.17,0.21,0.38a31.32,31.32,0,0,0-.17,5v7.46Zm-3.21-19.43a1.8,1.8,0,1,1,1.8,1.83A1.84,1.84,0,0,1,241.76,83.14Z" transform="translate(0 -2)"/><path class="41d0bb17-ace8-43de-8252-c38ccf847a4a" d="M259.88,101.57c0,1.69-.9,4.69-5.63,4.69-0.62,0-2.62-.28-4-0.28a0.22,0.22,0,0,1-.17-0.17c0-.34-0.79-3.38-0.79-3.73s0.48-.21.62-0.21c0.83,0,1,3.49,4.35,3.49a2.94,2.94,0,0,0,3.14-3.07c0-3.62-7.73-2.45-7.73-7.35,0-2.83,2.35-4.69,5.25-4.69a27.8,27.8,0,0,1,3.73.31,1,1,0,0,1,.52,1c0.07,1.41.38,2.31,0.38,2.76a0.32,0.32,0,0,1-.38.28,0.61,0.61,0,0,1-.69-0.48c-0.24-.59-1.14-2.93-3.59-2.93a2.49,2.49,0,0,0-2.76,2.59A2.62,2.62,0,0,0,253.77,96C257.39,97.78,259.88,97.67,259.88,101.57Z" transform="translate(0 -2)"/><path class="41d0bb17-ace8-43de-8252-c38ccf847a4a" d="M272.65,101.57c0,1.69-.9,4.69-5.63,4.69-0.62,0-2.62-.28-4-0.28a0.22,0.22,0,0,1-.17-0.17c0-.34-0.79-3.38-0.79-3.73s0.48-.21.62-0.21c0.83,0,1,3.49,4.35,3.49a2.94,2.94,0,0,0,3.14-3.07c0-3.62-7.73-2.45-7.73-7.35,0-2.83,2.35-4.69,5.25-4.69a27.77,27.77,0,0,1,3.73.31,1,1,0,0,1,.52,1c0.07,1.41.38,2.31,0.38,2.76a0.32,0.32,0,0,1-.38.28,0.61,0.61,0,0,1-.69-0.48c-0.24-.59-1.14-2.93-3.59-2.93a2.49,2.49,0,0,0-2.76,2.59A2.62,2.62,0,0,0,266.54,96C270.16,97.78,272.65,97.67,272.65,101.57Z" transform="translate(0 -2)"/><path class="41d0bb17-ace8-43de-8252-c38ccf847a4a" d="M283.17,106.27a7.72,7.72,0,0,1-8-8,8,8,0,0,1,16,0C291.21,103.09,288,106.27,283.17,106.27Zm0-15.12c-3.59,0-4.73,3.73-4.73,7.11,0,2.93.69,7.11,4.73,7.11s4.76-4.18,4.76-7.11C287.93,94.88,286.8,91.15,283.17,91.15Z" transform="translate(0 -2)"/><path class="41d0bb17-ace8-43de-8252-c38ccf847a4a" d="M295.52,95.08c0-3-.34-3.24-2.14-3.24-0.28,0-.76,0-0.76-0.35s0-.69.38-0.69,0.9,0.1,2,.1,2.52-.1,3-0.1c0.21,0,.28,0,0.28.48v9.32c0,2.59.83,4.07,3.38,4.07,1.24,0,3.42-.76,3.42-1.83V93.91c0-1.86-.35-2.07-2.14-2.07-0.62,0-1.11,0-1.11-.35,0-.52,0-0.69.24-0.69,0.48,0,.9.1,3,0.1,0.86,0,1.76-.1,2.62-0.1a0.42,0.42,0,0,1,.48.48c0,0.14-.31,2.8-0.31,5.25V103c0,0.55,0,1.28.86,1.28,0.48,0,1.24-.14,1.48-0.14s0.21,0,.21.66c0,0.21,0,.28-1.14.45a31.69,31.69,0,0,0-4,.9,0.46,0.46,0,0,1-.41-0.48c0-.41.07-1,0.1-1.31a9.57,9.57,0,0,1-5.14,1.9c-3.42,0-4.38-2.21-4.38-5.8V95.08Z" transform="translate(0 -2)"/><path class="41d0bb17-ace8-43de-8252-c38ccf847a4a" d="M314.36,94.43c0-1.21-.31-1.9-2-2.07a0.32,0.32,0,0,1-.31-0.41,0.43,0.43,0,0,1,.28-0.48,15.42,15.42,0,0,0,4.83-1.69,0.41,0.41,0,0,1,.14.35c0,0.41-.17,1.28-0.17,3.14,1.14-1.28,3-3,4.83-3a2,2,0,0,1,2.21,1.93,1.7,1.7,0,0,1-1.69,1.73c-1.41,0-1.62-1.31-2.66-1.31a3.88,3.88,0,0,0-2.38,1.48,1.46,1.46,0,0,0-.24,1v7.83c0,1.28,0,2,1.73,2,1.28,0,1.42,0,1.42.41s-0.14.48-.52,0.48c-1.24,0-2.35-.07-3.93-0.07-2.76,0-3.35.07-4,.07-0.24,0-.31-0.21-0.31-0.45s0.41-.45,1.07-0.45c1.48,0,1.76-.28,1.76-1.76V94.43Z" transform="translate(0 -2)"/><path class="41d0bb17-ace8-43de-8252-c38ccf847a4a" d="M330.58,102.57c0,2,.07,2.38,1.59,2.38,0.76,0,.83,0,0.83.45,0,0.21,0,.45-0.35.45-0.17,0-.62-0.07-2.86-0.07-3.25,0-4.14.07-4.66,0.07-0.28,0-.28-0.21-0.28-0.38,0-.45,0-0.52,1.31-0.52a1.29,1.29,0,0,0,1.42-.83,35,35,0,0,0,.21-5V94.43c0-1.21-.31-1.9-2-2.07a0.32,0.32,0,0,1-.31-0.41,0.43,0.43,0,0,1,.28-0.48,15.45,15.45,0,0,0,4.83-1.69c0.14,0,.21.17,0.21,0.38a31.32,31.32,0,0,0-.17,5v7.46Zm-3.21-19.43a1.8,1.8,0,1,1,1.8,1.83A1.84,1.84,0,0,1,327.37,83.14Z" transform="translate(0 -2)"/><path class="77bae08f-b0cb-4de9-9881-98f978905342" d="M7.49,134.64c0,4.63,1.93,8.66,7.73,8.66,4,0,7.52-2.24,7.52-10.46V126c0-4.8-1-4.8-4.56-4.8-0.28,0-.28-0.21-0.28-0.52s0.1-.52.28-0.52c0.59,0,2.83.14,5.07,0.14,1.07,0,4-.14,4.49-0.14s0.48,0.07.48,0.59a0.38,0.38,0,0,1-.31.45c-3.31,0-4,0-4,4.07v8.18c0,9.32-5.94,11.8-9.94,11.8-7.73,0-9.91-5.18-9.91-9v-7.9c0-2.45,0-3.28-.07-4.87,0-2-.62-2.31-3.62-2.31C0,121.21,0,120.93,0,120.62a0.37,0.37,0,0,1,.31-0.45c0.28,0,3.28.14,5.45,0.14s5.21-.14,5.49-0.14a0.37,0.37,0,0,1,.31.45c0,0.31,0,.59-0.38.59-3,0-3.59.28-3.62,2.31,0,1.59-.07,2.42-0.07,4.87v6.25Z" transform="translate(0 -2)"/><path class="77bae08f-b0cb-4de9-9881-98f978905342" d="M34.1,141.57c0,2,.07,2.38,1.59,2.38,0.93,0,1,0,1,.45,0,0.21,0,.45-0.35.45-0.17,0-.62-0.07-3-0.07-3.24,0-4.14.07-4.66,0.07-0.28,0-.28-0.21-0.28-0.38,0-.45,0-0.52,1.31-0.52a1.29,1.29,0,0,0,1.41-.83,34.8,34.8,0,0,0,.21-5v-4.73c0-1.21-.31-1.9-2-2.07a0.32,0.32,0,0,1-.31-0.41,0.43,0.43,0,0,1,.28-0.48,15.39,15.39,0,0,0,4.83-1.69c0.07,0,.1.1,0.1,0.38s-0.07,1-.07,2.49c1.79-1.21,3.56-2.38,5.42-2.38,1.17,0,4.56.24,4.56,5.18v8.28c0,0.59.1,1.24,2.24,1.24,0.35,0,.35.21,0.35,0.45s0,0.45-.48.45c-1,0-1.66-.07-3.49-0.07-2.8,0-3.35.07-3.62,0.07s-0.24-.24-0.24-0.41a0.44,0.44,0,0,1,.48-0.48c1.66,0,2-.14,2-1.28V136.5c0-3.21-.28-5.35-3.87-5.35a5.12,5.12,0,0,0-3.31,1.59v8.84Z" transform="translate(0 -2)"/><path class="77bae08f-b0cb-4de9-9881-98f978905342" d="M53.45,141.57c0,2,.07,2.38,1.59,2.38,0.76,0,.83,0,0.83.45,0,0.21,0,.45-0.35.45-0.17,0-.62-0.07-2.86-0.07-3.24,0-4.14.07-4.66,0.07-0.28,0-.28-0.21-0.28-0.38,0-.45,0-0.52,1.31-0.52a1.29,1.29,0,0,0,1.41-.83,34.82,34.82,0,0,0,.21-5v-4.73c0-1.21-.31-1.9-2-2.07a0.32,0.32,0,0,1-.31-0.41,0.43,0.43,0,0,1,.28-0.48,15.41,15.41,0,0,0,4.83-1.69c0.14,0,.21.17,0.21,0.38a31.19,31.19,0,0,0-.17,5v7.46Zm-3.21-19.43A1.8,1.8,0,1,1,52,124,1.83,1.83,0,0,1,50.24,122.14Z" transform="translate(0 -2)"/><path class="77bae08f-b0cb-4de9-9881-98f978905342" d="M69.29,131.74c0-1-1.79-1-2.31-1a0.39,0.39,0,0,1-.31-0.48,0.43,0.43,0,0,1,.45-0.41c0.93,0,2,.07,3,0.07s2-.07,3-0.07a0.36,0.36,0,0,1,.31.41,0.32,0.32,0,0,1-.35.38c-2,.31-2.1.45-3.21,3.14-1.21,3-3.28,7.32-3.9,8.77-1,2.31-1.28,2.73-1.55,2.73s-0.62-.72-1.31-2.21c-1.21-2.59-4.07-11-4.56-11.7a1.18,1.18,0,0,0-1.21-.55c-0.93,0-1.07-.1-1.07-0.59a0.36,0.36,0,0,1,.38-0.38c1.1,0,2.17.07,3.28,0.07,0.69,0,3.42-.07,4.11-0.07,0.24,0,.28.31,0.28,0.48a0.41,0.41,0,0,1-.35.41c-1,0-2,.1-2,0.83,0,1.14,2.8,8.11,3.52,9.63C68.74,134,69.29,132.67,69.29,131.74Z" transform="translate(0 -2)"/><path class="77bae08f-b0cb-4de9-9881-98f978905342" d="M76,135.46a12.5,12.5,0,0,0-.14,2,5.82,5.82,0,0,0,5.66,5.69,4.5,4.5,0,0,0,4-2.07,1.26,1.26,0,0,1,.52-0.59,0.72,0.72,0,0,1,.55.41,6.3,6.3,0,0,1-5.94,4.38c-4.94,0-7.52-3-7.52-7.87s3.35-8.28,6.9-8.28a5.78,5.78,0,0,1,6.18,6c0,0.35-.14.38-0.41,0.38H76Zm5.94-1a1,1,0,0,0,1.17-1.14c0-2.69-1.86-3.28-3-3.28-2.48,0-3.52,2.07-3.87,4.42H82Z" transform="translate(0 -2)"/><path class="77bae08f-b0cb-4de9-9881-98f978905342" d="M91.1,133.43c0-1.21-.31-1.9-2-2.07a0.32,0.32,0,0,1-.31-0.41,0.43,0.43,0,0,1,.28-0.48,15.38,15.38,0,0,0,4.83-1.69,0.4,0.4,0,0,1,.14.35c0,0.41-.17,1.28-0.17,3.14,1.14-1.28,3-3,4.83-3a2,2,0,0,1,2.21,1.93,1.7,1.7,0,0,1-1.69,1.73c-1.41,0-1.62-1.31-2.66-1.31a3.87,3.87,0,0,0-2.38,1.48,1.45,1.45,0,0,0-.24,1v7.83c0,1.28,0,2,1.73,2,1.28,0,1.42,0,1.42.41s-0.14.48-.52,0.48c-1.24,0-2.35-.07-3.93-0.07-2.76,0-3.35.07-4,.07-0.24,0-.31-0.21-0.31-0.45s0.41-.45,1.07-0.45c1.48,0,1.76-.28,1.76-1.76v-8.77Z" transform="translate(0 -2)"/><path class="77bae08f-b0cb-4de9-9881-98f978905342" d="M112.64,140.57c0,1.69-.9,4.69-5.63,4.69-0.62,0-2.62-.28-4-0.28a0.22,0.22,0,0,1-.17-0.17c0-.34-0.79-3.38-0.79-3.73s0.48-.21.62-0.21c0.83,0,1,3.49,4.35,3.49a2.94,2.94,0,0,0,3.14-3.07c0-3.62-7.73-2.45-7.73-7.35,0-2.83,2.35-4.69,5.25-4.69a27.84,27.84,0,0,1,3.73.31,1,1,0,0,1,.52,1c0.07,1.41.38,2.31,0.38,2.76a0.32,0.32,0,0,1-.38.28,0.61,0.61,0,0,1-.69-0.48c-0.24-.59-1.14-2.93-3.59-2.93a2.49,2.49,0,0,0-2.76,2.59,2.62,2.62,0,0,0,1.62,2.31C110.15,136.78,112.64,136.67,112.64,140.57Z" transform="translate(0 -2)"/><path class="77bae08f-b0cb-4de9-9881-98f978905342" d="M120.09,141.57c0,2,.07,2.38,1.59,2.38,0.76,0,.83,0,0.83.45,0,0.21,0,.45-0.35.45-0.17,0-.62-0.07-2.87-0.07-3.24,0-4.14.07-4.66,0.07-0.28,0-.28-0.21-0.28-0.38,0-.45,0-0.52,1.31-0.52a1.29,1.29,0,0,0,1.42-.83,35.06,35.06,0,0,0,.21-5v-4.73c0-1.21-.31-1.9-2-2.07a0.32,0.32,0,0,1-.31-0.41,0.43,0.43,0,0,1,.28-0.48,15.41,15.41,0,0,0,4.83-1.69,0.32,0.32,0,0,1,.21.38,31.25,31.25,0,0,0-.17,5v7.46Zm-3.21-19.43a1.79,1.79,0,1,1,1.79,1.83A1.83,1.83,0,0,1,116.88,122.14Z" transform="translate(0 -2)"/><path class="77bae08f-b0cb-4de9-9881-98f978905342" d="M128.44,138.71c0,3.66.31,5,3,5a5.68,5.68,0,0,0,2.35-.79,0.68,0.68,0,0,1,.38.55c0,0.21-1.45,1.83-4.59,1.83-4,0-4-3.42-4-4.28v-9.08a0.36,0.36,0,0,0-.35-0.45h-1.73a0.26,0.26,0,0,1-.21-0.31,0.6,0.6,0,0,1,.21-0.48c3.21-2.42,3.87-4.25,4.56-4.25a0.41,0.41,0,0,1,.41.45c0,0.62-.1,1.21-0.1,3.18h5.31c0.24,0,.35.24,0.35,0.72a0.8,0.8,0,0,1-.93.86c-0.24,0-1.86-.17-4.73-0.17v7.25Z" transform="translate(0 -2)"/><path class="77bae08f-b0cb-4de9-9881-98f978905342" d="M149.29,131.91c0-1.14-1.62-1.17-2.66-1.17-0.31,0-.34-0.17-0.34-0.45a0.4,0.4,0,0,1,.31-0.45c1.1,0,2.24.07,3.35,0.07s2.14-.07,3.21-0.07c0.24,0,.24.31,0.24,0.45,0,0.31-.1.41-0.59,0.45a2.07,2.07,0,0,0-2.17,1.52c-1.24,2.86-6,12.87-6.76,14.81-2.66,6.66-3.8,7.11-4.93,7.11a1.95,1.95,0,1,1,.07-3.9c0.86,0,1.31.59,1.73,0.59,0.62,0,2.24-3.31,2.24-4.94a16.55,16.55,0,0,0-1.21-3.86c-2.17-5.59-2.83-8.59-3.56-10.53-0.31-.79-2-0.79-2.48-0.79a0.39,0.39,0,0,1-.31-0.48,0.37,0.37,0,0,1,.38-0.41c0.41,0,2.59.07,3.83,0.07s2.38-.07,3.42-0.07a0.38,0.38,0,0,1,.41.45,0.42,0.42,0,0,1-.35.45c-0.21,0-1.69,0-1.69.76,0,1.66,1.17,5.07,3.42,10.84C146.42,139.05,149.29,133,149.29,131.91Z" transform="translate(0 -2)"/><path class="77bae08f-b0cb-4de9-9881-98f978905342" d="M170.88,145.27a7.72,7.72,0,0,1-8-8,8,8,0,0,1,16,0C178.93,142.09,175.72,145.27,170.88,145.27Zm0-15.12c-3.59,0-4.73,3.73-4.73,7.11,0,2.93.69,7.11,4.73,7.11s4.76-4.18,4.76-7.11C175.65,133.88,174.51,130.15,170.88,130.15Z" transform="translate(0 -2)"/><path class="77bae08f-b0cb-4de9-9881-98f978905342" d="M186.79,141.92c0,1.28,0,2,1.73,2,1.28,0,1.42,0,1.42.41s-0.14.48-.52,0.48c-1.24,0-2.35-.07-3.93-0.07-2.76,0-3.35.07-3.66,0.07s-0.31-.21-0.31-0.45,0.07-.45.72-0.45c1.48,0,1.76-.28,1.76-1.76v-9.63c0-.41,0-1.1-0.66-1.1h-1.9c-0.24,0-.41,0-0.41-0.45,0-.28.24-0.41,1.07-0.59,1.35-.31,1.69-0.38,1.79-1.93,0.35-5.25,1.9-8.15,6-9.21A10.35,10.35,0,0,1,192,119c0.9,0,2.17.35,2.17,1.48a1.54,1.54,0,0,1-1.62,1.69,3.09,3.09,0,0,1-1.9-.79,3.18,3.18,0,0,0-1.52-.79c-2,0-2.31,2.86-2.31,5V130h4.28c0.24,0,.34.24,0.34,0.72a0.8,0.8,0,0,1-.93.86c-0.24,0-2.9-.17-3.69-0.17v10.46Z" transform="translate(0 -2)"/><path class="77bae08f-b0cb-4de9-9881-98f978905342" d="M229.62,120.55a0.43,0.43,0,0,1,.41-0.38c0.17,0,2.69.14,3.49,0.14,0.59,0,3.52-.14,3.76-0.14s0.38,0.28.38,0.59a0.38,0.38,0,0,1-.41.45c-3.11,0-3.49.24-3.49,1.83,0,2.24.38,9.49,0.72,19.15a1.7,1.7,0,0,0,1.9,1.62c1.93,0,2,.21,2,0.45,0,0.52-.17.59-0.38,0.59s-0.69-.07-5.49-0.07c-4.49,0-4.69.07-5,.07s-0.38-.24-0.38-0.55,0.07-.48,1.66-0.48c2.28,0,2.31-.55,2.31-1.93,0-2.07-.52-13.22-0.8-19.67h-0.07c-2.52,6.45-5.69,13.88-8,19.43-1.31,3.17-1.31,3.55-1.76,3.55s-0.52-.31-1.24-2.69-6.38-17.74-6.52-17.74c-0.59,2.52-2.86,14-2.86,17.43a1.49,1.49,0,0,0,1.73,1.62c0.86,0,1.86.07,1.86,0.28,0,0.66,0,.76-0.38.76s-0.62-.07-4.18-0.07c-3.14,0-3.38.07-3.59,0.07s-0.38,0-.38-0.59c0-.35.17-0.45,1.83-0.45,1.21,0,1.45-.45,1.83-2.42,0.93-5,1.76-10,2.83-14.94a15.13,15.13,0,0,0,.45-3.24,3.63,3.63,0,0,0-.9-1.73,11.71,11.71,0,0,0-3-.28c-0.41,0-.41-0.28-0.41-0.52s0.07-.52.38-0.52c0.66,0,3.62.14,4,.14,0.9,0,2.35-.14,2.8-0.14s0.48,0.38.83,1.62c0.72,2.59,5.73,16.57,6.35,17.84C224.54,133.53,227.17,127.22,229.62,120.55Z" transform="translate(0 -2)"/><path class="77bae08f-b0cb-4de9-9881-98f978905342" d="M245,141.57c0,2,.07,2.38,1.59,2.38,0.76,0,.83,0,0.83.45,0,0.21,0,.45-0.35.45-0.17,0-.62-0.07-2.86-0.07-3.25,0-4.14.07-4.66,0.07-0.28,0-.28-0.21-0.28-0.38,0-.45,0-0.52,1.31-0.52a1.29,1.29,0,0,0,1.41-.83,34.71,34.71,0,0,0,.21-5v-4.73c0-1.21-.31-1.9-2-2.07a0.32,0.32,0,0,1-.31-0.41,0.43,0.43,0,0,1,.28-0.48,15.4,15.4,0,0,0,4.83-1.69c0.14,0,.21.17,0.21,0.38a31.32,31.32,0,0,0-.17,5v7.46Zm-3.21-19.43a1.8,1.8,0,1,1,1.8,1.83A1.84,1.84,0,0,1,241.76,122.14Z" transform="translate(0 -2)"/><path class="77bae08f-b0cb-4de9-9881-98f978905342" d="M259.88,140.57c0,1.69-.9,4.69-5.63,4.69-0.62,0-2.62-.28-4-0.28a0.22,0.22,0,0,1-.17-0.17c0-.34-0.79-3.38-0.79-3.73s0.48-.21.62-0.21c0.83,0,1,3.49,4.35,3.49a2.94,2.94,0,0,0,3.14-3.07c0-3.62-7.73-2.45-7.73-7.35,0-2.83,2.35-4.69,5.25-4.69a27.8,27.8,0,0,1,3.73.31,1,1,0,0,1,.52,1c0.07,1.41.38,2.31,0.38,2.76a0.32,0.32,0,0,1-.38.28,0.61,0.61,0,0,1-.69-0.48c-0.24-.59-1.14-2.93-3.59-2.93a2.49,2.49,0,0,0-2.76,2.59,2.62,2.62,0,0,0,1.62,2.31C257.39,136.78,259.88,136.67,259.88,140.57Z" transform="translate(0 -2)"/><path class="77bae08f-b0cb-4de9-9881-98f978905342" d="M272.65,140.57c0,1.69-.9,4.69-5.63,4.69-0.62,0-2.62-.28-4-0.28a0.22,0.22,0,0,1-.17-0.17c0-.34-0.79-3.38-0.79-3.73s0.48-.21.62-0.21c0.83,0,1,3.49,4.35,3.49a2.94,2.94,0,0,0,3.14-3.07c0-3.62-7.73-2.45-7.73-7.35,0-2.83,2.35-4.69,5.25-4.69a27.77,27.77,0,0,1,3.73.31,1,1,0,0,1,.52,1c0.07,1.41.38,2.31,0.38,2.76a0.32,0.32,0,0,1-.38.28,0.61,0.61,0,0,1-.69-0.48c-0.24-.59-1.14-2.93-3.59-2.93a2.49,2.49,0,0,0-2.76,2.59,2.62,2.62,0,0,0,1.62,2.31C270.16,136.78,272.65,136.67,272.65,140.57Z" transform="translate(0 -2)"/><path class="77bae08f-b0cb-4de9-9881-98f978905342" d="M283.17,145.27a7.72,7.72,0,0,1-8-8,8,8,0,0,1,16,0C291.21,142.09,288,145.27,283.17,145.27Zm0-15.12c-3.59,0-4.73,3.73-4.73,7.11,0,2.93.69,7.11,4.73,7.11s4.76-4.18,4.76-7.11C287.93,133.88,286.8,130.15,283.17,130.15Z" transform="translate(0 -2)"/><path class="77bae08f-b0cb-4de9-9881-98f978905342" d="M295.52,134.08c0-3-.34-3.24-2.14-3.24-0.28,0-.76,0-0.76-0.35s0-.69.38-0.69,0.9,0.1,2,.1,2.52-.1,3-0.1c0.21,0,.28,0,0.28.48v9.32c0,2.59.83,4.07,3.38,4.07,1.24,0,3.42-.76,3.42-1.83v-8.94c0-1.86-.35-2.07-2.14-2.07-0.62,0-1.11,0-1.11-.35,0-.52,0-0.69.24-0.69,0.48,0,.9.1,3,0.1,0.86,0,1.76-.1,2.62-0.1a0.42,0.42,0,0,1,.48.48c0,0.14-.31,2.8-0.31,5.25V142c0,0.55,0,1.28.86,1.28,0.48,0,1.24-.14,1.48-0.14s0.21,0,.21.66c0,0.21,0,.28-1.14.45a31.69,31.69,0,0,0-4,.9,0.46,0.46,0,0,1-.41-0.48c0-.41.07-1,0.1-1.31a9.57,9.57,0,0,1-5.14,1.9c-3.42,0-4.38-2.21-4.38-5.8v-5.38Z" transform="translate(0 -2)"/><path class="77bae08f-b0cb-4de9-9881-98f978905342" d="M314.36,133.43c0-1.21-.31-1.9-2-2.07a0.32,0.32,0,0,1-.31-0.41,0.43,0.43,0,0,1,.28-0.48,15.42,15.42,0,0,0,4.83-1.69,0.41,0.41,0,0,1,.14.35c0,0.41-.17,1.28-0.17,3.14,1.14-1.28,3-3,4.83-3a2,2,0,0,1,2.21,1.93,1.7,1.7,0,0,1-1.69,1.73c-1.41,0-1.62-1.31-2.66-1.31a3.88,3.88,0,0,0-2.38,1.48,1.46,1.46,0,0,0-.24,1v7.83c0,1.28,0,2,1.73,2,1.28,0,1.42,0,1.42.41s-0.14.48-.52,0.48c-1.24,0-2.35-.07-3.93-0.07-2.76,0-3.35.07-4,.07-0.24,0-.31-0.21-0.31-0.45s0.41-.45,1.07-0.45c1.48,0,1.76-.28,1.76-1.76v-8.77Z" transform="translate(0 -2)"/><path class="77bae08f-b0cb-4de9-9881-98f978905342" d="M330.58,141.57c0,2,.07,2.38,1.59,2.38,0.76,0,.83,0,0.83.45,0,0.21,0,.45-0.35.45-0.17,0-.62-0.07-2.86-0.07-3.25,0-4.14.07-4.66,0.07-0.28,0-.28-0.21-0.28-0.38,0-.45,0-0.52,1.31-0.52a1.29,1.29,0,0,0,1.42-.83,35,35,0,0,0,.21-5v-4.73c0-1.21-.31-1.9-2-2.07a0.32,0.32,0,0,1-.31-0.41,0.43,0.43,0,0,1,.28-0.48,15.45,15.45,0,0,0,4.83-1.69c0.14,0,.21.17,0.21,0.38a31.32,31.32,0,0,0-.17,5v7.46Zm-3.21-19.43a1.8,1.8,0,1,1,1.8,1.83A1.84,1.84,0,0,1,327.37,122.14Z" transform="translate(0 -2)"/></svg>