<svg id="50b8804a-c02d-4b64-a1e7-7b6840bcd4eb" data-name="Layer 1" xmlns="http://www.w3.org/2000/svg" width="228" height="105.08" viewBox="0 0 228 105.08"><defs><style>.\31 908d1a4-89f8-4f41-85e2-e80a452a6ab4{fill:#900000;}.d03c7a3f-bf02-410e-a461-0dc5797c933a{fill:#fff;}.db989cd0-7820-4e37-9ccc-be61bf1991bd{fill:#f1b82d;}</style></defs><title>mu-wordmark-small</title><path d="M5.13,11.71c0,3.17,1.32,5.93,5.29,5.93,2.76,0,5.15-1.54,5.15-7.16V5.8c0-3.28-.69-3.28-3.12-3.28-0.19,0-.19-0.14-0.19-0.35s0.07-.35.19-0.35c0.4,0,1.94.09,3.47,0.09,0.73,0,2.74-.09,3.07-0.09s0.33,0,.33.4a0.26,0.26,0,0,1-.21.31c-2.27,0-2.74,0-2.74,2.79v5.6c0,6.38-4.07,8.08-6.81,8.08-5.29,0-6.78-3.54-6.78-6.14V7.43c0-1.68,0-2.25,0-3.33,0-1.39-.42-1.58-2.48-1.58C0,2.51,0,2.32,0,2.11A0.26,0.26,0,0,1,.21,1.8c0.19,0,2.25.09,3.73,0.09S7.51,1.8,7.7,1.8a0.26,0.26,0,0,1,.21.31c0,0.21,0,.4-0.26.4C5.6,2.51,5.2,2.7,5.18,4.1c0,1.09,0,1.65,0,3.33v4.28Z" transform="translate(0 -1)"/><path d="M23.34,16.46c0,1.35,0,1.63,1.09,1.63,0.64,0,.69,0,0.69.31s0,0.31-.24.31-0.43,0-2.08,0c-2.22,0-2.84,0-3.19,0-0.19,0-.19-0.14-0.19-0.26,0-.31,0-0.35.9-0.35a0.88,0.88,0,0,0,1-.57,23.83,23.83,0,0,0,.14-3.4V10.88c0-.83-0.21-1.3-1.39-1.42a0.22,0.22,0,0,1-.21-0.28A0.29,0.29,0,0,1,20,8.85a10.54,10.54,0,0,0,3.31-1.16s0.07,0.07.07,0.26,0,0.66,0,1.7A7.17,7.17,0,0,1,27.05,8c0.8,0,3.12.17,3.12,3.55v5.67c0,0.4.07,0.85,1.54,0.85,0.24,0,.24.14,0.24,0.31s0,0.31-.33.31c-0.71,0-1.13,0-2.39,0-1.91,0-2.29,0-2.48,0s-0.17-.17-0.17-0.28a0.3,0.3,0,0,1,.33-0.33c1.13,0,1.35-.09,1.35-0.87V13c0-2.2-.19-3.66-2.65-3.66a3.51,3.51,0,0,0-2.27,1.09v6Z" transform="translate(0 -1)"/><path d="M36.6,16.46c0,1.35,0,1.63,1.09,1.63,0.52,0,.57,0,0.57.31s0,0.31-.24.31-0.43,0-2,0c-2.22,0-2.84,0-3.19,0-0.19,0-.19-0.14-0.19-0.26,0-.31,0-0.35.9-0.35a0.88,0.88,0,0,0,1-.57,23.84,23.84,0,0,0,.14-3.4V10.88c0-.83-0.21-1.3-1.39-1.42a0.22,0.22,0,0,1-.21-0.28,0.29,0.29,0,0,1,.19-0.33,10.55,10.55,0,0,0,3.31-1.16c0.1,0,.14.12,0.14,0.26a21.35,21.35,0,0,0-.12,3.4v5.1ZM34.4,3.15A1.23,1.23,0,1,1,35.63,4.4,1.26,1.26,0,0,1,34.4,3.15Z" transform="translate(0 -1)"/><path d="M47.44,9.72C47.44,9,46.22,9,45.86,9a0.27,0.27,0,0,1-.21-0.33A0.29,0.29,0,0,1,46,8.42c0.64,0,1.37,0,2,0s1.39,0,2.08,0a0.24,0.24,0,0,1,.21.28A0.22,0.22,0,0,1,50,9c-1.37.21-1.44,0.31-2.2,2.15-0.83,2-2.25,5-2.67,6C44.51,18.7,44.3,19,44.11,19s-0.43-.5-0.9-1.51c-0.83-1.77-2.79-7.54-3.12-8a0.81,0.81,0,0,0-.83-0.38c-0.64,0-.73-0.07-0.73-0.4a0.25,0.25,0,0,1,.26-0.26c0.76,0,1.49,0,2.24,0l2.81,0C44,8.42,44,8.63,44,8.75a0.28,0.28,0,0,1-.24.28c-0.71,0-1.37.07-1.37,0.57a43.62,43.62,0,0,0,2.41,6.59C47.07,11.26,47.44,10.36,47.44,9.72Z" transform="translate(0 -1)"/><path d="M52.05,12.27A8.56,8.56,0,0,0,52,13.62a4,4,0,0,0,3.88,3.9A3.08,3.08,0,0,0,58.6,16.1,0.86,0.86,0,0,1,59,15.7a0.5,0.5,0,0,1,.38.28,4.32,4.32,0,0,1-4.06,3c-3.38,0-5.15-2.08-5.15-5.39s2.29-5.67,4.73-5.67A4,4,0,0,1,59.07,12c0,0.24-.1.26-0.28,0.26H52.05Zm4.06-.71a0.68,0.68,0,0,0,.8-0.78,2,2,0,0,0-2.08-2.24c-1.7,0-2.41,1.42-2.65,3h3.92Z" transform="translate(0 -1)"/><path d="M62.38,10.88c0-.83-0.21-1.3-1.39-1.42a0.22,0.22,0,0,1-.21-0.28A0.29,0.29,0,0,1,61,8.85a10.53,10.53,0,0,0,3.31-1.16,0.28,0.28,0,0,1,.1.24c0,0.28-.12.87-0.12,2.15C65,9.2,66.3,8,67.55,8a1.34,1.34,0,0,1,1.51,1.32,1.16,1.16,0,0,1-1.16,1.18c-1,0-1.11-.9-1.82-0.9a2.65,2.65,0,0,0-1.63,1,1,1,0,0,0-.17.69v5.36c0,0.87,0,1.39,1.18,1.39,0.87,0,1,0,1,.28s-0.09.33-.35,0.33c-0.85,0-1.61,0-2.69,0-1.89,0-2.29,0-2.74,0-0.17,0-.21-0.14-0.21-0.31s0.28-.31.73-0.31c1,0,1.21-.19,1.21-1.21v-6Z" transform="translate(0 -1)"/><path d="M77.12,15.77c0,1.16-.61,3.21-3.85,3.21-0.43,0-1.8-.19-2.72-0.19a0.15,0.15,0,0,1-.12-0.12c0-.24-0.54-2.31-0.54-2.55s0.33-.14.42-0.14c0.57,0,.71,2.39,3,2.39a2,2,0,0,0,2.15-2.1c0-2.48-5.29-1.68-5.29-5A3.32,3.32,0,0,1,73.74,8a19.06,19.06,0,0,1,2.55.21,0.67,0.67,0,0,1,.35.66c0,1,.26,1.58.26,1.89a0.22,0.22,0,0,1-.26.19,0.42,0.42,0,0,1-.47-0.33,2.78,2.78,0,0,0-2.46-2,1.71,1.71,0,0,0-1.89,1.77A1.8,1.8,0,0,0,72.94,12C75.42,13.17,77.12,13.1,77.12,15.77Z" transform="translate(0 -1)"/><path d="M82.22,16.46c0,1.35,0,1.63,1.09,1.63,0.52,0,.57,0,0.57.31s0,0.31-.24.31-0.43,0-2,0c-2.22,0-2.84,0-3.19,0-0.19,0-.19-0.14-0.19-0.26,0-.31,0-0.35.9-0.35a0.88,0.88,0,0,0,1-.57,24,24,0,0,0,.14-3.4V10.88c0-.83-0.21-1.3-1.39-1.42a0.22,0.22,0,0,1-.21-0.28,0.29,0.29,0,0,1,.19-0.33A10.55,10.55,0,0,0,82.2,7.69a0.22,0.22,0,0,1,.14.26,21.4,21.4,0,0,0-.12,3.4v5.1ZM80,3.15A1.23,1.23,0,1,1,81.25,4.4,1.26,1.26,0,0,1,80,3.15Z" transform="translate(0 -1)"/><path d="M87.94,14.49c0,2.5.21,3.4,2.08,3.4a3.89,3.89,0,0,0,1.61-.54,0.47,0.47,0,0,1,.26.38c0,0.14-1,1.25-3.14,1.25A2.57,2.57,0,0,1,86,16.05V9.84a0.25,0.25,0,0,0-.24-0.31H84.61a0.18,0.18,0,0,1-.14-0.21A0.41,0.41,0,0,1,84.61,9c2.2-1.65,2.65-2.91,3.12-2.91a0.28,0.28,0,0,1,.28.31c0,0.43-.07.83-0.07,2.17h3.64c0.17,0,.24.16,0.24,0.5a0.55,0.55,0,0,1-.64.59c-0.17,0-1.28-.12-3.24-0.12v5Z" transform="translate(0 -1)"/><path d="M102.21,9.84c0-.78-1.11-0.8-1.82-0.8-0.21,0-.23-0.12-0.23-0.31a0.27,0.27,0,0,1,.21-0.31c0.76,0,1.54,0,2.29,0s1.47,0,2.2,0c0.17,0,.17.21,0.17,0.31S105,9,104.62,9a1.42,1.42,0,0,0-1.49,1c-0.85,2-4.11,8.81-4.63,10.14-1.82,4.56-2.6,4.87-3.38,4.87a1.34,1.34,0,1,1,0-2.67,5.14,5.14,0,0,1,1.18.4c0.42,0,1.54-2.27,1.54-3.38a11.33,11.33,0,0,0-.83-2.65C95.57,13,95.12,10.9,94.63,9.58,94.41,9,93.23,9,92.93,9a0.27,0.27,0,0,1-.21-0.33A0.26,0.26,0,0,1,93,8.42c0.28,0,1.77,0,2.62,0s1.63,0,2.34,0a0.26,0.26,0,0,1,.28.31A0.29,0.29,0,0,1,98,9c-0.14,0-1.16,0-1.16.52,0,1.13.8,3.47,2.34,7.42C100.25,14.73,102.21,10.57,102.21,9.84Z" transform="translate(0 -1)"/><path d="M117,19a5.29,5.29,0,0,1-5.48-5.48,5.49,5.49,0,0,1,11,0A5.18,5.18,0,0,1,117,19Zm0-10.35c-2.46,0-3.24,2.55-3.24,4.87,0,2,.47,4.87,3.24,4.87s3.26-2.86,3.26-4.87C120.26,11.19,119.48,8.63,117,8.63Z" transform="translate(0 -1)"/><path d="M127.89,16.69c0,0.87,0,1.39,1.18,1.39,0.87,0,1,0,1,.28s-0.09.33-.35,0.33c-0.85,0-1.61,0-2.69,0-1.89,0-2.29,0-2.5,0s-0.21-.14-0.21-0.31,0-.31.5-0.31c1,0,1.21-.19,1.21-1.21V10.29c0-.28,0-0.76-0.45-0.76h-1.3c-0.17,0-.28,0-0.28-0.31s0.17-.28.73-0.4c0.92-.21,1.16-0.26,1.23-1.32,0.24-3.59,1.3-5.58,4.09-6.31A7.09,7.09,0,0,1,131.44,1a1.28,1.28,0,0,1,1.49,1,1.06,1.06,0,0,1-1.11,1.16,2.11,2.11,0,0,1-1.3-.54,2.18,2.18,0,0,0-1-.54c-1.35,0-1.58,2-1.58,3.43v3h2.93c0.17,0,.24.16,0.24,0.5a0.55,0.55,0,0,1-.64.59c-0.17,0-2-.12-2.53-0.12v7.16Z" transform="translate(0 -1)"/><path d="M157.22,2.06a0.29,0.29,0,0,1,.28-0.26c0.12,0,1.84.09,2.39,0.09s2.41-.09,2.58-0.09,0.26,0.19.26,0.4a0.26,0.26,0,0,1-.28.31c-2.13,0-2.39.17-2.39,1.25,0,1.54.26,6.5,0.5,13.11a1.17,1.17,0,0,0,1.3,1.11c1.32,0,1.35.14,1.35,0.31,0,0.35-.12.4-0.26,0.4s-0.47,0-3.76,0c-3.07,0-3.21,0-3.4,0s-0.26-.17-0.26-0.38,0-.33,1.14-0.33c1.56,0,1.58-.38,1.58-1.32,0-1.42-.35-9.05-0.54-13.47h0c-1.72,4.42-3.9,9.5-5.46,13.3-0.9,2.17-.9,2.43-1.2,2.43s-0.35-.21-0.85-1.84-4.37-12.15-4.47-12.15c-0.4,1.73-2,9.57-2,11.93A1,1,0,0,0,144.88,18a2.25,2.25,0,0,1,1.28.19c0,0.45,0,.52-0.26.52s-0.43,0-2.86,0c-2.15,0-2.32,0-2.46,0s-0.26,0-.26-0.4,0.12-.31,1.25-0.31c0.83,0,1-.31,1.25-1.65,0.64-3.4,1.2-6.83,1.94-10.23a10.36,10.36,0,0,0,.31-2.22,2.48,2.48,0,0,0-.62-1.18,8,8,0,0,0-2-.19c-0.28,0-.28-0.19-0.28-0.35s0-.35.26-0.35c0.45,0,2.48.09,2.74,0.09,0.61,0,1.61-.09,1.91-0.09s0.33,0.26.57,1.11c0.5,1.77,3.92,11.34,4.35,12.22C153.74,10.95,155.54,6.62,157.22,2.06Z" transform="translate(0 -1)"/><path d="M167.73,16.46c0,1.35,0,1.63,1.09,1.63,0.52,0,.57,0,0.57.31s0,0.31-.24.31-0.43,0-2,0c-2.22,0-2.84,0-3.19,0-0.19,0-.19-0.14-0.19-0.26,0-.31,0-0.35.9-0.35a0.88,0.88,0,0,0,1-.57,23.77,23.77,0,0,0,.14-3.4V10.88c0-.83-0.21-1.3-1.39-1.42a0.22,0.22,0,0,1-.21-0.28,0.29,0.29,0,0,1,.19-0.33,10.54,10.54,0,0,0,3.31-1.16c0.1,0,.14.12,0.14,0.26a21.44,21.44,0,0,0-.12,3.4v5.1Zm-2.2-13.3a1.23,1.23,0,1,1,1.23,1.25A1.26,1.26,0,0,1,165.53,3.15Z" transform="translate(0 -1)"/><path d="M177.93,15.77c0,1.16-.61,3.21-3.85,3.21-0.42,0-1.8-.19-2.72-0.19a0.15,0.15,0,0,1-.12-0.12c0-.24-0.54-2.31-0.54-2.55S171,16,171.13,16c0.57,0,.71,2.39,3,2.39a2,2,0,0,0,2.15-2.1c0-2.48-5.29-1.68-5.29-5A3.32,3.32,0,0,1,174.56,8a19,19,0,0,1,2.55.21,0.67,0.67,0,0,1,.35.66c0,1,.26,1.58.26,1.89a0.22,0.22,0,0,1-.26.19,0.42,0.42,0,0,1-.47-0.33,2.78,2.78,0,0,0-2.46-2,1.71,1.71,0,0,0-1.89,1.77A1.8,1.8,0,0,0,173.75,12C176.23,13.17,177.93,13.1,177.93,15.77Z" transform="translate(0 -1)"/><path d="M186.68,15.77c0,1.16-.61,3.21-3.85,3.21-0.43,0-1.8-.19-2.72-0.19a0.15,0.15,0,0,1-.12-0.12c0-.24-0.54-2.31-0.54-2.55s0.33-.14.42-0.14c0.57,0,.71,2.39,3,2.39a2,2,0,0,0,2.15-2.1c0-2.48-5.29-1.68-5.29-5A3.32,3.32,0,0,1,183.3,8a19,19,0,0,1,2.55.21,0.67,0.67,0,0,1,.35.66c0,1,.26,1.58.26,1.89a0.22,0.22,0,0,1-.26.19,0.42,0.42,0,0,1-.47-0.33,2.78,2.78,0,0,0-2.46-2,1.71,1.71,0,0,0-1.89,1.77A1.8,1.8,0,0,0,182.49,12C185,13.17,186.68,13.1,186.68,15.77Z" transform="translate(0 -1)"/><path d="M193.88,19a5.29,5.29,0,0,1-5.48-5.48,5.49,5.49,0,0,1,11,0A5.18,5.18,0,0,1,193.88,19Zm0-10.35c-2.46,0-3.24,2.55-3.24,4.87,0,2,.47,4.87,3.24,4.87s3.26-2.86,3.26-4.87C197.14,11.19,196.36,8.63,193.88,8.63Z" transform="translate(0 -1)"/><path d="M202.34,11.33c0-2.08-.24-2.22-1.47-2.22-0.19,0-.52,0-0.52-0.24s0-.47.26-0.47,0.62,0.07,1.4.07,1.72-.07,2.05-0.07c0.14,0,.19,0,0.19.33v6.38c0,1.77.57,2.79,2.32,2.79,0.85,0,2.34-.52,2.34-1.25V10.52c0-1.28-.24-1.42-1.47-1.42-0.43,0-.76,0-0.76-0.24s0-.47.17-0.47c0.33,0,.61.07,2.06,0.07,0.59,0,1.2-.07,1.8-0.07a0.29,0.29,0,0,1,.33.33c0,0.1-.21,1.91-0.21,3.59v4.44c0,0.38,0,.87.59,0.87,0.33,0,.85-0.09,1-0.09s0.14,0,.14.45c0,0.14,0,.19-0.78.31a21.7,21.7,0,0,0-2.72.61,0.31,0.31,0,0,1-.28-0.33c0-.28,0-0.66.07-0.9a6.55,6.55,0,0,1-3.52,1.3c-2.34,0-3-1.51-3-4V11.33Z" transform="translate(0 -1)"/><path d="M215.24,10.88c0-.83-0.21-1.3-1.39-1.42a0.22,0.22,0,0,1-.21-0.28,0.29,0.29,0,0,1,.19-0.33,10.56,10.56,0,0,0,3.31-1.16,0.28,0.28,0,0,1,.09.24c0,0.28-.12.87-0.12,2.15C217.89,9.2,219.16,8,220.42,8a1.34,1.34,0,0,1,1.51,1.32,1.16,1.16,0,0,1-1.16,1.18c-1,0-1.11-.9-1.82-0.9a2.65,2.65,0,0,0-1.63,1,1,1,0,0,0-.17.69v5.36c0,0.87,0,1.39,1.18,1.39,0.87,0,1,0,1,.28s-0.09.33-.35,0.33c-0.85,0-1.61,0-2.69,0-1.89,0-2.29,0-2.74,0-0.17,0-.21-0.14-0.21-0.31s0.28-.31.73-0.31c1,0,1.2-.19,1.2-1.21v-6Z" transform="translate(0 -1)"/><path d="M226.35,16.46c0,1.35,0,1.63,1.09,1.63,0.52,0,.57,0,0.57.31s0,0.31-.24.31-0.42,0-2,0c-2.22,0-2.84,0-3.19,0-0.19,0-.19-0.14-0.19-0.26,0-.31,0-0.35.9-0.35a0.88,0.88,0,0,0,1-.57,24,24,0,0,0,.14-3.4V10.88c0-.83-0.21-1.3-1.39-1.42a0.22,0.22,0,0,1-.21-0.28A0.29,0.29,0,0,1,223,8.85a10.58,10.58,0,0,0,3.31-1.16c0.09,0,.14.12,0.14,0.26a21.44,21.44,0,0,0-.12,3.4v5.1Zm-2.2-13.3a1.23,1.23,0,1,1,1.23,1.25A1.26,1.26,0,0,1,224.15,3.15Z" transform="translate(0 -1)"/><path class="1908d1a4-89f8-4f41-85e2-e80a452a6ab4" d="M5.13,38.71c0,3.17,1.32,5.93,5.29,5.93,2.76,0,5.15-1.54,5.15-7.16V32.8c0-3.28-.69-3.28-3.12-3.28-0.19,0-.19-0.14-0.19-0.35s0.07-.35.19-0.35c0.4,0,1.94.09,3.47,0.09,0.73,0,2.74-.09,3.07-0.09s0.33,0,.33.4a0.26,0.26,0,0,1-.21.31c-2.27,0-2.74,0-2.74,2.79v5.6c0,6.38-4.07,8.08-6.81,8.08-5.29,0-6.78-3.54-6.78-6.14V34.43c0-1.68,0-2.25,0-3.33,0-1.39-.42-1.58-2.48-1.58C0,29.51,0,29.32,0,29.11A0.26,0.26,0,0,1,.21,28.8c0.19,0,2.25.09,3.73,0.09S7.51,28.8,7.7,28.8a0.26,0.26,0,0,1,.21.31c0,0.21,0,.4-0.26.4-2.06,0-2.46.19-2.48,1.58,0,1.09,0,1.65,0,3.33v4.28Z" transform="translate(0 -1)"/><path class="1908d1a4-89f8-4f41-85e2-e80a452a6ab4" d="M23.34,43.46c0,1.35,0,1.63,1.09,1.63,0.64,0,.69,0,0.69.31s0,0.31-.24.31-0.43,0-2.08,0c-2.22,0-2.84,0-3.19,0-0.19,0-.19-0.14-0.19-0.26,0-.31,0-0.35.9-0.35a0.88,0.88,0,0,0,1-.57,23.83,23.83,0,0,0,.14-3.4V37.88c0-.83-0.21-1.3-1.39-1.42a0.22,0.22,0,0,1-.21-0.28A0.29,0.29,0,0,1,20,35.85a10.54,10.54,0,0,0,3.31-1.16s0.07,0.07.07,0.26,0,0.66,0,1.7A7.17,7.17,0,0,1,27.05,35c0.8,0,3.12.17,3.12,3.55v5.67c0,0.4.07,0.85,1.54,0.85,0.24,0,.24.14,0.24,0.31s0,0.31-.33.31c-0.71,0-1.13,0-2.39,0-1.91,0-2.29,0-2.48,0s-0.17-.17-0.17-0.28a0.3,0.3,0,0,1,.33-0.33c1.13,0,1.35-.09,1.35-0.87V40c0-2.2-.19-3.66-2.65-3.66a3.51,3.51,0,0,0-2.27,1.09v6Z" transform="translate(0 -1)"/><path class="1908d1a4-89f8-4f41-85e2-e80a452a6ab4" d="M36.6,43.46c0,1.35,0,1.63,1.09,1.63,0.52,0,.57,0,0.57.31s0,0.31-.24.31-0.43,0-2,0c-2.22,0-2.84,0-3.19,0-0.19,0-.19-0.14-0.19-0.26,0-.31,0-0.35.9-0.35a0.88,0.88,0,0,0,1-.57,23.84,23.84,0,0,0,.14-3.4V37.88c0-.83-0.21-1.3-1.39-1.42a0.22,0.22,0,0,1-.21-0.28,0.29,0.29,0,0,1,.19-0.33,10.55,10.55,0,0,0,3.31-1.16c0.1,0,.14.12,0.14,0.26a21.35,21.35,0,0,0-.12,3.4v5.1Zm-2.2-13.3a1.23,1.23,0,1,1,1.23,1.25A1.26,1.26,0,0,1,34.4,30.15Z" transform="translate(0 -1)"/><path class="1908d1a4-89f8-4f41-85e2-e80a452a6ab4" d="M47.44,36.72c0-.69-1.23-0.69-1.58-0.69a0.27,0.27,0,0,1-.21-0.33A0.29,0.29,0,0,1,46,35.42c0.64,0,1.37,0,2,0s1.39,0,2.08,0a0.24,0.24,0,0,1,.21.28A0.22,0.22,0,0,1,50,36c-1.37.21-1.44,0.31-2.2,2.15-0.83,2-2.25,5-2.67,6C44.51,45.7,44.3,46,44.11,46s-0.43-.5-0.9-1.51c-0.83-1.77-2.79-7.54-3.12-8a0.81,0.81,0,0,0-.83-0.38c-0.64,0-.73-0.07-0.73-0.4a0.25,0.25,0,0,1,.26-0.26c0.76,0,1.49,0,2.24,0l2.81,0c0.17,0,.19.21,0.19,0.33a0.28,0.28,0,0,1-.24.28c-0.71,0-1.37.07-1.37,0.57a43.62,43.62,0,0,0,2.41,6.59C47.07,38.26,47.44,37.36,47.44,36.72Z" transform="translate(0 -1)"/><path class="1908d1a4-89f8-4f41-85e2-e80a452a6ab4" d="M52.05,39.27A8.56,8.56,0,0,0,52,40.62a4,4,0,0,0,3.88,3.9A3.08,3.08,0,0,0,58.6,43.1,0.86,0.86,0,0,1,59,42.7a0.5,0.5,0,0,1,.38.28,4.32,4.32,0,0,1-4.06,3c-3.38,0-5.15-2.08-5.15-5.39s2.29-5.67,4.73-5.67A4,4,0,0,1,59.07,39c0,0.24-.1.26-0.28,0.26H52.05Zm4.06-.71a0.68,0.68,0,0,0,.8-0.78,2,2,0,0,0-2.08-2.24c-1.7,0-2.41,1.42-2.65,3h3.92Z" transform="translate(0 -1)"/><path class="1908d1a4-89f8-4f41-85e2-e80a452a6ab4" d="M62.38,37.88c0-.83-0.21-1.3-1.39-1.42a0.22,0.22,0,0,1-.21-0.28A0.29,0.29,0,0,1,61,35.85a10.53,10.53,0,0,0,3.31-1.16,0.28,0.28,0,0,1,.1.24c0,0.28-.12.87-0.12,2.15C65,36.2,66.3,35,67.55,35a1.34,1.34,0,0,1,1.51,1.32,1.16,1.16,0,0,1-1.16,1.18c-1,0-1.11-.9-1.82-0.9a2.65,2.65,0,0,0-1.63,1,1,1,0,0,0-.17.69v5.36c0,0.87,0,1.39,1.18,1.39,0.87,0,1,0,1,.28s-0.09.33-.35,0.33c-0.85,0-1.61,0-2.69,0-1.89,0-2.29,0-2.74,0-0.17,0-.21-0.14-0.21-0.31s0.28-.31.73-0.31c1,0,1.21-.19,1.21-1.21v-6Z" transform="translate(0 -1)"/><path class="1908d1a4-89f8-4f41-85e2-e80a452a6ab4" d="M77.12,42.77c0,1.16-.61,3.21-3.85,3.21-0.43,0-1.8-.19-2.72-0.19a0.15,0.15,0,0,1-.12-0.12c0-.24-0.54-2.31-0.54-2.55s0.33-.14.42-0.14c0.57,0,.71,2.39,3,2.39a2,2,0,0,0,2.15-2.1c0-2.48-5.29-1.68-5.29-5A3.32,3.32,0,0,1,73.74,35a19.06,19.06,0,0,1,2.55.21,0.67,0.67,0,0,1,.35.66c0,1,.26,1.58.26,1.89a0.22,0.22,0,0,1-.26.19,0.42,0.42,0,0,1-.47-0.33,2.78,2.78,0,0,0-2.46-2,1.71,1.71,0,0,0-1.89,1.77A1.8,1.8,0,0,0,72.94,39C75.42,40.17,77.12,40.1,77.12,42.77Z" transform="translate(0 -1)"/><path class="1908d1a4-89f8-4f41-85e2-e80a452a6ab4" d="M82.22,43.46c0,1.35,0,1.63,1.09,1.63,0.52,0,.57,0,0.57.31s0,0.31-.24.31-0.43,0-2,0c-2.22,0-2.84,0-3.19,0-0.19,0-.19-0.14-0.19-0.26,0-.31,0-0.35.9-0.35a0.88,0.88,0,0,0,1-.57,24,24,0,0,0,.14-3.4V37.88c0-.83-0.21-1.3-1.39-1.42a0.22,0.22,0,0,1-.21-0.28,0.29,0.29,0,0,1,.19-0.33,10.55,10.55,0,0,0,3.31-1.16,0.22,0.22,0,0,1,.14.26,21.4,21.4,0,0,0-.12,3.4v5.1ZM80,30.15a1.23,1.23,0,1,1,1.23,1.25A1.26,1.26,0,0,1,80,30.15Z" transform="translate(0 -1)"/><path class="1908d1a4-89f8-4f41-85e2-e80a452a6ab4" d="M87.94,41.49c0,2.5.21,3.4,2.08,3.4a3.89,3.89,0,0,0,1.61-.54,0.47,0.47,0,0,1,.26.38c0,0.14-1,1.25-3.14,1.25A2.57,2.57,0,0,1,86,43.05V36.84a0.25,0.25,0,0,0-.24-0.31H84.61a0.18,0.18,0,0,1-.14-0.21A0.41,0.41,0,0,1,84.61,36c2.2-1.65,2.65-2.91,3.12-2.91a0.28,0.28,0,0,1,.28.31c0,0.43-.07.83-0.07,2.17h3.64c0.17,0,.24.16,0.24,0.5a0.55,0.55,0,0,1-.64.59c-0.17,0-1.28-.12-3.24-0.12v5Z" transform="translate(0 -1)"/><path class="1908d1a4-89f8-4f41-85e2-e80a452a6ab4" d="M102.21,36.84c0-.78-1.11-0.8-1.82-0.8-0.21,0-.23-0.12-0.23-0.31a0.27,0.27,0,0,1,.21-0.31c0.76,0,1.54,0,2.29,0s1.47,0,2.2,0c0.17,0,.17.21,0.17,0.31S105,36,104.62,36a1.42,1.42,0,0,0-1.49,1c-0.85,2-4.11,8.81-4.63,10.14-1.82,4.56-2.6,4.87-3.38,4.87a1.34,1.34,0,1,1,0-2.67,5.14,5.14,0,0,1,1.18.4c0.42,0,1.54-2.27,1.54-3.38a11.33,11.33,0,0,0-.83-2.65c-1.49-3.83-1.94-5.88-2.44-7.21C94.41,36,93.23,36,92.93,36a0.27,0.27,0,0,1-.21-0.33A0.26,0.26,0,0,1,93,35.42c0.28,0,1.77,0,2.62,0s1.63,0,2.34,0a0.26,0.26,0,0,1,.28.31A0.29,0.29,0,0,1,98,36c-0.14,0-1.16,0-1.16.52,0,1.13.8,3.47,2.34,7.42C100.25,41.73,102.21,37.57,102.21,36.84Z" transform="translate(0 -1)"/><path class="1908d1a4-89f8-4f41-85e2-e80a452a6ab4" d="M117,46a5.29,5.29,0,0,1-5.48-5.48,5.49,5.49,0,0,1,11,0A5.18,5.18,0,0,1,117,46Zm0-10.35c-2.46,0-3.24,2.55-3.24,4.87,0,2,.47,4.87,3.24,4.87s3.26-2.86,3.26-4.87C120.26,38.19,119.48,35.63,117,35.63Z" transform="translate(0 -1)"/><path class="1908d1a4-89f8-4f41-85e2-e80a452a6ab4" d="M127.89,43.69c0,0.87,0,1.39,1.18,1.39,0.87,0,1,0,1,.28s-0.09.33-.35,0.33c-0.85,0-1.61,0-2.69,0-1.89,0-2.29,0-2.5,0s-0.21-.14-0.21-0.31,0-.31.5-0.31c1,0,1.21-.19,1.21-1.21V37.29c0-.28,0-0.76-0.45-0.76h-1.3c-0.17,0-.28,0-0.28-0.31s0.17-.28.73-0.4c0.92-.21,1.16-0.26,1.23-1.32,0.24-3.59,1.3-5.58,4.09-6.31a7.09,7.09,0,0,1,1.44-.19,1.28,1.28,0,0,1,1.49,1,1.06,1.06,0,0,1-1.11,1.16,2.11,2.11,0,0,1-1.3-.54,2.18,2.18,0,0,0-1-.54c-1.35,0-1.58,2-1.58,3.43v3h2.93c0.17,0,.24.16,0.24,0.5a0.55,0.55,0,0,1-.64.59c-0.17,0-2-.12-2.53-0.12v7.16Z" transform="translate(0 -1)"/><path class="1908d1a4-89f8-4f41-85e2-e80a452a6ab4" d="M157.22,29.06a0.29,0.29,0,0,1,.28-0.26c0.12,0,1.84.09,2.39,0.09s2.41-.09,2.58-0.09,0.26,0.19.26,0.4a0.26,0.26,0,0,1-.28.31c-2.13,0-2.39.17-2.39,1.25,0,1.54.26,6.5,0.5,13.11a1.17,1.17,0,0,0,1.3,1.11c1.32,0,1.35.14,1.35,0.31,0,0.35-.12.4-0.26,0.4s-0.47,0-3.76,0c-3.07,0-3.21,0-3.4,0s-0.26-.17-0.26-0.38,0-.33,1.14-0.33c1.56,0,1.58-.38,1.58-1.32,0-1.42-.35-9.05-0.54-13.47h0c-1.72,4.42-3.9,9.5-5.46,13.3-0.9,2.17-.9,2.43-1.2,2.43s-0.35-.21-0.85-1.84-4.37-12.15-4.47-12.15c-0.4,1.73-2,9.57-2,11.93A1,1,0,0,0,144.88,45a2.25,2.25,0,0,1,1.28.19c0,0.45,0,.52-0.26.52s-0.43,0-2.86,0c-2.15,0-2.32,0-2.46,0s-0.26,0-.26-0.4,0.12-.31,1.25-0.31c0.83,0,1-.31,1.25-1.65,0.64-3.4,1.2-6.83,1.94-10.23a10.36,10.36,0,0,0,.31-2.22,2.48,2.48,0,0,0-.62-1.18,8,8,0,0,0-2-.19c-0.28,0-.28-0.19-0.28-0.35s0-.35.26-0.35c0.45,0,2.48.09,2.74,0.09,0.61,0,1.61-.09,1.91-0.09s0.33,0.26.57,1.11c0.5,1.77,3.92,11.34,4.35,12.22C153.74,37.95,155.54,33.62,157.22,29.06Z" transform="translate(0 -1)"/><path class="1908d1a4-89f8-4f41-85e2-e80a452a6ab4" d="M167.73,43.46c0,1.35,0,1.63,1.09,1.63,0.52,0,.57,0,0.57.31s0,0.31-.24.31-0.43,0-2,0c-2.22,0-2.84,0-3.19,0-0.19,0-.19-0.14-0.19-0.26,0-.31,0-0.35.9-0.35a0.88,0.88,0,0,0,1-.57,23.77,23.77,0,0,0,.14-3.4V37.88c0-.83-0.21-1.3-1.39-1.42a0.22,0.22,0,0,1-.21-0.28,0.29,0.29,0,0,1,.19-0.33,10.54,10.54,0,0,0,3.31-1.16c0.1,0,.14.12,0.14,0.26a21.44,21.44,0,0,0-.12,3.4v5.1Zm-2.2-13.3a1.23,1.23,0,1,1,1.23,1.25A1.26,1.26,0,0,1,165.53,30.15Z" transform="translate(0 -1)"/><path class="1908d1a4-89f8-4f41-85e2-e80a452a6ab4" d="M177.93,42.77c0,1.16-.61,3.21-3.85,3.21-0.42,0-1.8-.19-2.72-0.19a0.15,0.15,0,0,1-.12-0.12c0-.24-0.54-2.31-0.54-2.55S171,43,171.13,43c0.57,0,.71,2.39,3,2.39a2,2,0,0,0,2.15-2.1c0-2.48-5.29-1.68-5.29-5A3.32,3.32,0,0,1,174.56,35a19,19,0,0,1,2.55.21,0.67,0.67,0,0,1,.35.66c0,1,.26,1.58.26,1.89a0.22,0.22,0,0,1-.26.19,0.42,0.42,0,0,1-.47-0.33,2.78,2.78,0,0,0-2.46-2,1.71,1.71,0,0,0-1.89,1.77A1.8,1.8,0,0,0,173.75,39C176.23,40.17,177.93,40.1,177.93,42.77Z" transform="translate(0 -1)"/><path class="1908d1a4-89f8-4f41-85e2-e80a452a6ab4" d="M186.68,42.77c0,1.16-.61,3.21-3.85,3.21-0.43,0-1.8-.19-2.72-0.19a0.15,0.15,0,0,1-.12-0.12c0-.24-0.54-2.31-0.54-2.55s0.33-.14.42-0.14c0.57,0,.71,2.39,3,2.39a2,2,0,0,0,2.15-2.1c0-2.48-5.29-1.68-5.29-5A3.32,3.32,0,0,1,183.3,35a19,19,0,0,1,2.55.21,0.67,0.67,0,0,1,.35.66c0,1,.26,1.58.26,1.89a0.22,0.22,0,0,1-.26.19,0.42,0.42,0,0,1-.47-0.33,2.78,2.78,0,0,0-2.46-2,1.71,1.71,0,0,0-1.89,1.77A1.8,1.8,0,0,0,182.49,39C185,40.17,186.68,40.1,186.68,42.77Z" transform="translate(0 -1)"/><path class="1908d1a4-89f8-4f41-85e2-e80a452a6ab4" d="M193.88,46a5.29,5.29,0,0,1-5.48-5.48,5.49,5.49,0,0,1,11,0A5.18,5.18,0,0,1,193.88,46Zm0-10.35c-2.46,0-3.24,2.55-3.24,4.87,0,2,.47,4.87,3.24,4.87s3.26-2.86,3.26-4.87C197.14,38.19,196.36,35.63,193.88,35.63Z" transform="translate(0 -1)"/><path class="1908d1a4-89f8-4f41-85e2-e80a452a6ab4" d="M202.34,38.33c0-2.08-.24-2.22-1.47-2.22-0.19,0-.52,0-0.52-0.24s0-.47.26-0.47,0.62,0.07,1.4.07,1.72-.07,2.05-0.07c0.14,0,.19,0,0.19.33v6.38c0,1.77.57,2.79,2.32,2.79,0.85,0,2.34-.52,2.34-1.25V37.52c0-1.28-.24-1.42-1.47-1.42-0.43,0-.76,0-0.76-0.24s0-.47.17-0.47c0.33,0,.61.07,2.06,0.07,0.59,0,1.2-.07,1.8-0.07a0.29,0.29,0,0,1,.33.33c0,0.1-.21,1.91-0.21,3.59v4.44c0,0.38,0,.87.59,0.87,0.33,0,.85-0.09,1-0.09s0.14,0,.14.45c0,0.14,0,.19-0.78.31a21.7,21.7,0,0,0-2.72.61,0.31,0.31,0,0,1-.28-0.33c0-.28,0-0.66.07-0.9a6.55,6.55,0,0,1-3.52,1.3c-2.34,0-3-1.51-3-4V38.33Z" transform="translate(0 -1)"/><path class="1908d1a4-89f8-4f41-85e2-e80a452a6ab4" d="M215.24,37.88c0-.83-0.21-1.3-1.39-1.42a0.22,0.22,0,0,1-.21-0.28,0.29,0.29,0,0,1,.19-0.33,10.56,10.56,0,0,0,3.31-1.16,0.28,0.28,0,0,1,.09.24c0,0.28-.12.87-0.12,2.15,0.78-.87,2.06-2.06,3.31-2.06a1.34,1.34,0,0,1,1.51,1.32,1.16,1.16,0,0,1-1.16,1.18c-1,0-1.11-.9-1.82-0.9a2.65,2.65,0,0,0-1.63,1,1,1,0,0,0-.17.69v5.36c0,0.87,0,1.39,1.18,1.39,0.87,0,1,0,1,.28s-0.09.33-.35,0.33c-0.85,0-1.61,0-2.69,0-1.89,0-2.29,0-2.74,0-0.17,0-.21-0.14-0.21-0.31s0.28-.31.73-0.31c1,0,1.2-.19,1.2-1.21v-6Z" transform="translate(0 -1)"/><path class="1908d1a4-89f8-4f41-85e2-e80a452a6ab4" d="M226.35,43.46c0,1.35,0,1.63,1.09,1.63,0.52,0,.57,0,0.57.31s0,0.31-.24.31-0.42,0-2,0c-2.22,0-2.84,0-3.19,0-0.19,0-.19-0.14-0.19-0.26,0-.31,0-0.35.9-0.35a0.88,0.88,0,0,0,1-.57,24,24,0,0,0,.14-3.4V37.88c0-.83-0.21-1.3-1.39-1.42a0.22,0.22,0,0,1-.21-0.28,0.29,0.29,0,0,1,.19-0.33,10.58,10.58,0,0,0,3.31-1.16c0.09,0,.14.12,0.14,0.26a21.44,21.44,0,0,0-.12,3.4v5.1Zm-2.2-13.3a1.23,1.23,0,1,1,1.23,1.25A1.26,1.26,0,0,1,224.15,30.15Z" transform="translate(0 -1)"/><path class="d03c7a3f-bf02-410e-a461-0dc5797c933a" d="M5.13,65.71c0,3.17,1.32,5.93,5.29,5.93,2.76,0,5.15-1.54,5.15-7.16V59.8c0-3.28-.69-3.28-3.12-3.28-0.19,0-.19-0.14-0.19-0.35s0.07-.35.19-0.35c0.4,0,1.94.09,3.47,0.09,0.73,0,2.74-.09,3.07-0.09s0.33,0,.33.4a0.26,0.26,0,0,1-.21.31c-2.27,0-2.74,0-2.74,2.79v5.6c0,6.38-4.07,8.08-6.81,8.08-5.29,0-6.78-3.54-6.78-6.14V61.43c0-1.68,0-2.25,0-3.33,0-1.39-.42-1.58-2.48-1.58C0,56.51,0,56.32,0,56.11A0.26,0.26,0,0,1,.21,55.8c0.19,0,2.25.09,3.73,0.09S7.51,55.8,7.7,55.8a0.26,0.26,0,0,1,.21.31c0,0.21,0,.4-0.26.4-2.06,0-2.46.19-2.48,1.58,0,1.09,0,1.65,0,3.33v4.28Z" transform="translate(0 -1)"/><path class="d03c7a3f-bf02-410e-a461-0dc5797c933a" d="M23.34,70.46c0,1.35,0,1.63,1.09,1.63,0.64,0,.69,0,0.69.31s0,0.31-.24.31-0.43,0-2.08,0c-2.22,0-2.84,0-3.19,0-0.19,0-.19-0.14-0.19-0.26,0-.31,0-0.35.9-0.35a0.88,0.88,0,0,0,1-.57,23.83,23.83,0,0,0,.14-3.4V64.88c0-.83-0.21-1.3-1.39-1.42a0.22,0.22,0,0,1-.21-0.28A0.29,0.29,0,0,1,20,62.85a10.54,10.54,0,0,0,3.31-1.16s0.07,0.07.07,0.26,0,0.66,0,1.7A7.17,7.17,0,0,1,27.05,62c0.8,0,3.12.17,3.12,3.55v5.67c0,0.4.07,0.85,1.54,0.85,0.24,0,.24.14,0.24,0.31s0,0.31-.33.31c-0.71,0-1.13,0-2.39,0-1.91,0-2.29,0-2.48,0s-0.17-.17-0.17-0.28a0.3,0.3,0,0,1,.33-0.33c1.13,0,1.35-.09,1.35-0.87V67c0-2.2-.19-3.66-2.65-3.66a3.51,3.51,0,0,0-2.27,1.09v6Z" transform="translate(0 -1)"/><path class="d03c7a3f-bf02-410e-a461-0dc5797c933a" d="M36.6,70.46c0,1.35,0,1.63,1.09,1.63,0.52,0,.57,0,0.57.31s0,0.31-.24.31-0.43,0-2,0c-2.22,0-2.84,0-3.19,0-0.19,0-.19-0.14-0.19-0.26,0-.31,0-0.35.9-0.35a0.88,0.88,0,0,0,1-.57,23.84,23.84,0,0,0,.14-3.4V64.88c0-.83-0.21-1.3-1.39-1.42a0.22,0.22,0,0,1-.21-0.28,0.29,0.29,0,0,1,.19-0.33,10.55,10.55,0,0,0,3.31-1.16c0.1,0,.14.12,0.14,0.26a21.35,21.35,0,0,0-.12,3.4v5.1Zm-2.2-13.3a1.23,1.23,0,1,1,1.23,1.25A1.26,1.26,0,0,1,34.4,57.15Z" transform="translate(0 -1)"/><path class="d03c7a3f-bf02-410e-a461-0dc5797c933a" d="M47.44,63.72c0-.69-1.23-0.69-1.58-0.69a0.27,0.27,0,0,1-.21-0.33A0.29,0.29,0,0,1,46,62.42c0.64,0,1.37,0,2,0s1.39,0,2.08,0a0.24,0.24,0,0,1,.21.28A0.22,0.22,0,0,1,50,63c-1.37.21-1.44,0.31-2.2,2.15-0.83,2-2.25,5-2.67,6C44.51,72.7,44.3,73,44.11,73s-0.43-.5-0.9-1.51c-0.83-1.77-2.79-7.54-3.12-8a0.81,0.81,0,0,0-.83-0.38c-0.64,0-.73-0.07-0.73-0.4a0.25,0.25,0,0,1,.26-0.26c0.76,0,1.49,0,2.24,0l2.81,0c0.17,0,.19.21,0.19,0.33a0.28,0.28,0,0,1-.24.28c-0.71,0-1.37.07-1.37,0.57a43.62,43.62,0,0,0,2.41,6.59C47.07,65.26,47.44,64.36,47.44,63.72Z" transform="translate(0 -1)"/><path class="d03c7a3f-bf02-410e-a461-0dc5797c933a" d="M52.05,66.27A8.56,8.56,0,0,0,52,67.62a4,4,0,0,0,3.88,3.9A3.08,3.08,0,0,0,58.6,70.1,0.86,0.86,0,0,1,59,69.7a0.5,0.5,0,0,1,.38.28,4.32,4.32,0,0,1-4.06,3c-3.38,0-5.15-2.08-5.15-5.39s2.29-5.67,4.73-5.67A4,4,0,0,1,59.07,66c0,0.24-.1.26-0.28,0.26H52.05Zm4.06-.71a0.68,0.68,0,0,0,.8-0.78,2,2,0,0,0-2.08-2.24c-1.7,0-2.41,1.42-2.65,3h3.92Z" transform="translate(0 -1)"/><path class="d03c7a3f-bf02-410e-a461-0dc5797c933a" d="M62.38,64.88c0-.83-0.21-1.3-1.39-1.42a0.22,0.22,0,0,1-.21-0.28A0.29,0.29,0,0,1,61,62.85a10.53,10.53,0,0,0,3.31-1.16,0.28,0.28,0,0,1,.1.24c0,0.28-.12.87-0.12,2.15C65,63.2,66.3,62,67.55,62a1.34,1.34,0,0,1,1.51,1.32,1.16,1.16,0,0,1-1.16,1.18c-1,0-1.11-.9-1.82-0.9a2.65,2.65,0,0,0-1.63,1,1,1,0,0,0-.17.69v5.36c0,0.87,0,1.39,1.18,1.39,0.87,0,1,0,1,.28s-0.09.33-.35,0.33c-0.85,0-1.61,0-2.69,0-1.89,0-2.29,0-2.74,0-0.17,0-.21-0.14-0.21-0.31s0.28-.31.73-0.31c1,0,1.21-.19,1.21-1.21v-6Z" transform="translate(0 -1)"/><path class="d03c7a3f-bf02-410e-a461-0dc5797c933a" d="M77.12,69.77c0,1.16-.61,3.21-3.85,3.21-0.43,0-1.8-.19-2.72-0.19a0.15,0.15,0,0,1-.12-0.12c0-.24-0.54-2.31-0.54-2.55s0.33-.14.42-0.14c0.57,0,.71,2.39,3,2.39a2,2,0,0,0,2.15-2.1c0-2.48-5.29-1.68-5.29-5A3.32,3.32,0,0,1,73.74,62a19.06,19.06,0,0,1,2.55.21,0.67,0.67,0,0,1,.35.66c0,1,.26,1.58.26,1.89a0.22,0.22,0,0,1-.26.19,0.42,0.42,0,0,1-.47-0.33,2.78,2.78,0,0,0-2.46-2,1.71,1.71,0,0,0-1.89,1.77A1.8,1.8,0,0,0,72.94,66C75.42,67.17,77.12,67.1,77.12,69.77Z" transform="translate(0 -1)"/><path class="d03c7a3f-bf02-410e-a461-0dc5797c933a" d="M82.22,70.46c0,1.35,0,1.63,1.09,1.63,0.52,0,.57,0,0.57.31s0,0.31-.24.31-0.43,0-2,0c-2.22,0-2.84,0-3.19,0-0.19,0-.19-0.14-0.19-0.26,0-.31,0-0.35.9-0.35a0.88,0.88,0,0,0,1-.57,24,24,0,0,0,.14-3.4V64.88c0-.83-0.21-1.3-1.39-1.42a0.22,0.22,0,0,1-.21-0.28,0.29,0.29,0,0,1,.19-0.33,10.55,10.55,0,0,0,3.31-1.16,0.22,0.22,0,0,1,.14.26,21.4,21.4,0,0,0-.12,3.4v5.1ZM80,57.15a1.23,1.23,0,1,1,1.23,1.25A1.26,1.26,0,0,1,80,57.15Z" transform="translate(0 -1)"/><path class="d03c7a3f-bf02-410e-a461-0dc5797c933a" d="M87.94,68.49c0,2.5.21,3.4,2.08,3.4a3.89,3.89,0,0,0,1.61-.54,0.47,0.47,0,0,1,.26.38c0,0.14-1,1.25-3.14,1.25A2.57,2.57,0,0,1,86,70.05V63.84a0.25,0.25,0,0,0-.24-0.31H84.61a0.18,0.18,0,0,1-.14-0.21A0.41,0.41,0,0,1,84.61,63c2.2-1.65,2.65-2.91,3.12-2.91a0.28,0.28,0,0,1,.28.31c0,0.43-.07.83-0.07,2.17h3.64c0.17,0,.24.16,0.24,0.5a0.55,0.55,0,0,1-.64.59c-0.17,0-1.28-.12-3.24-0.12v5Z" transform="translate(0 -1)"/><path class="d03c7a3f-bf02-410e-a461-0dc5797c933a" d="M102.21,63.84c0-.78-1.11-0.8-1.82-0.8-0.21,0-.23-0.12-0.23-0.31a0.27,0.27,0,0,1,.21-0.31c0.76,0,1.54,0,2.29,0s1.47,0,2.2,0c0.17,0,.17.21,0.17,0.31S105,63,104.62,63a1.42,1.42,0,0,0-1.49,1c-0.85,2-4.11,8.81-4.63,10.14-1.82,4.56-2.6,4.87-3.38,4.87a1.34,1.34,0,1,1,0-2.67,5.14,5.14,0,0,1,1.18.4c0.42,0,1.54-2.27,1.54-3.38a11.33,11.33,0,0,0-.83-2.65c-1.49-3.83-1.94-5.88-2.44-7.21C94.41,63,93.23,63,92.93,63a0.27,0.27,0,0,1-.21-0.33A0.26,0.26,0,0,1,93,62.42c0.28,0,1.77,0,2.62,0s1.63,0,2.34,0a0.26,0.26,0,0,1,.28.31A0.29,0.29,0,0,1,98,63c-0.14,0-1.16,0-1.16.52,0,1.13.8,3.47,2.34,7.42C100.25,68.73,102.21,64.57,102.21,63.84Z" transform="translate(0 -1)"/><path class="d03c7a3f-bf02-410e-a461-0dc5797c933a" d="M117,73a5.29,5.29,0,0,1-5.48-5.48,5.49,5.49,0,0,1,11,0A5.18,5.18,0,0,1,117,73Zm0-10.35c-2.46,0-3.24,2.55-3.24,4.87,0,2,.47,4.87,3.24,4.87s3.26-2.86,3.26-4.87C120.26,65.19,119.48,62.63,117,62.63Z" transform="translate(0 -1)"/><path class="d03c7a3f-bf02-410e-a461-0dc5797c933a" d="M127.89,70.69c0,0.87,0,1.39,1.18,1.39,0.87,0,1,0,1,.28s-0.09.33-.35,0.33c-0.85,0-1.61,0-2.69,0-1.89,0-2.29,0-2.5,0s-0.21-.14-0.21-0.31,0-.31.5-0.31c1,0,1.21-.19,1.21-1.21V64.29c0-.28,0-0.76-0.45-0.76h-1.3c-0.17,0-.28,0-0.28-0.31s0.17-.28.73-0.4c0.92-.21,1.16-0.26,1.23-1.32,0.24-3.59,1.3-5.58,4.09-6.31a7.09,7.09,0,0,1,1.44-.19,1.28,1.28,0,0,1,1.49,1,1.06,1.06,0,0,1-1.11,1.16,2.11,2.11,0,0,1-1.3-.54,2.18,2.18,0,0,0-1-.54c-1.35,0-1.58,2-1.58,3.43v3h2.93c0.17,0,.24.16,0.24,0.5a0.55,0.55,0,0,1-.64.59c-0.17,0-2-.12-2.53-0.12v7.16Z" transform="translate(0 -1)"/><path class="d03c7a3f-bf02-410e-a461-0dc5797c933a" d="M157.22,56.06a0.29,0.29,0,0,1,.28-0.26c0.12,0,1.84.09,2.39,0.09s2.41-.09,2.58-0.09,0.26,0.19.26,0.4a0.26,0.26,0,0,1-.28.31c-2.13,0-2.39.17-2.39,1.25,0,1.54.26,6.5,0.5,13.11a1.17,1.17,0,0,0,1.3,1.11c1.32,0,1.35.14,1.35,0.31,0,0.35-.12.4-0.26,0.4s-0.47,0-3.76,0c-3.07,0-3.21,0-3.4,0s-0.26-.17-0.26-0.38,0-.33,1.14-0.33c1.56,0,1.58-.38,1.58-1.32,0-1.42-.35-9.05-0.54-13.47h0c-1.72,4.42-3.9,9.5-5.46,13.3-0.9,2.17-.9,2.43-1.2,2.43s-0.35-.21-0.85-1.84-4.37-12.15-4.47-12.15c-0.4,1.73-2,9.57-2,11.93A1,1,0,0,0,144.88,72a2.25,2.25,0,0,1,1.28.19c0,0.45,0,.52-0.26.52s-0.43,0-2.86,0c-2.15,0-2.32,0-2.46,0s-0.26,0-.26-0.4,0.12-.31,1.25-0.31c0.83,0,1-.31,1.25-1.65,0.64-3.4,1.2-6.83,1.94-10.23a10.36,10.36,0,0,0,.31-2.22,2.48,2.48,0,0,0-.62-1.18,8,8,0,0,0-2-.19c-0.28,0-.28-0.19-0.28-0.35s0-.35.26-0.35c0.45,0,2.48.09,2.74,0.09,0.61,0,1.61-.09,1.91-0.09s0.33,0.26.57,1.11c0.5,1.77,3.92,11.34,4.35,12.22C153.74,64.95,155.54,60.62,157.22,56.06Z" transform="translate(0 -1)"/><path class="d03c7a3f-bf02-410e-a461-0dc5797c933a" d="M167.73,70.46c0,1.35,0,1.63,1.09,1.63,0.52,0,.57,0,0.57.31s0,0.31-.24.31-0.43,0-2,0c-2.22,0-2.84,0-3.19,0-0.19,0-.19-0.14-0.19-0.26,0-.31,0-0.35.9-0.35a0.88,0.88,0,0,0,1-.57,23.77,23.77,0,0,0,.14-3.4V64.88c0-.83-0.21-1.3-1.39-1.42a0.22,0.22,0,0,1-.21-0.28,0.29,0.29,0,0,1,.19-0.33,10.54,10.54,0,0,0,3.31-1.16c0.1,0,.14.12,0.14,0.26a21.44,21.44,0,0,0-.12,3.4v5.1Zm-2.2-13.3a1.23,1.23,0,1,1,1.23,1.25A1.26,1.26,0,0,1,165.53,57.15Z" transform="translate(0 -1)"/><path class="d03c7a3f-bf02-410e-a461-0dc5797c933a" d="M177.93,69.77c0,1.16-.61,3.21-3.85,3.21-0.42,0-1.8-.19-2.72-0.19a0.15,0.15,0,0,1-.12-0.12c0-.24-0.54-2.31-0.54-2.55S171,70,171.13,70c0.57,0,.71,2.39,3,2.39a2,2,0,0,0,2.15-2.1c0-2.48-5.29-1.68-5.29-5A3.32,3.32,0,0,1,174.56,62a19,19,0,0,1,2.55.21,0.67,0.67,0,0,1,.35.66c0,1,.26,1.58.26,1.89a0.22,0.22,0,0,1-.26.19,0.42,0.42,0,0,1-.47-0.33,2.78,2.78,0,0,0-2.46-2,1.71,1.71,0,0,0-1.89,1.77A1.8,1.8,0,0,0,173.75,66C176.23,67.17,177.93,67.1,177.93,69.77Z" transform="translate(0 -1)"/><path class="d03c7a3f-bf02-410e-a461-0dc5797c933a" d="M186.68,69.77c0,1.16-.61,3.21-3.85,3.21-0.43,0-1.8-.19-2.72-0.19a0.15,0.15,0,0,1-.12-0.12c0-.24-0.54-2.31-0.54-2.55s0.33-.14.42-0.14c0.57,0,.71,2.39,3,2.39a2,2,0,0,0,2.15-2.1c0-2.48-5.29-1.68-5.29-5A3.32,3.32,0,0,1,183.3,62a19,19,0,0,1,2.55.21,0.67,0.67,0,0,1,.35.66c0,1,.26,1.58.26,1.89a0.22,0.22,0,0,1-.26.19,0.42,0.42,0,0,1-.47-0.33,2.78,2.78,0,0,0-2.46-2,1.71,1.71,0,0,0-1.89,1.77A1.8,1.8,0,0,0,182.49,66C185,67.17,186.68,67.1,186.68,69.77Z" transform="translate(0 -1)"/><path class="d03c7a3f-bf02-410e-a461-0dc5797c933a" d="M193.88,73a5.29,5.29,0,0,1-5.48-5.48,5.49,5.49,0,0,1,11,0A5.18,5.18,0,0,1,193.88,73Zm0-10.35c-2.46,0-3.24,2.55-3.24,4.87,0,2,.47,4.87,3.24,4.87s3.26-2.86,3.26-4.87C197.14,65.19,196.36,62.63,193.88,62.63Z" transform="translate(0 -1)"/><path class="d03c7a3f-bf02-410e-a461-0dc5797c933a" d="M202.34,65.33c0-2.08-.24-2.22-1.47-2.22-0.19,0-.52,0-0.52-0.24s0-.47.26-0.47,0.62,0.07,1.4.07,1.72-.07,2.05-0.07c0.14,0,.19,0,0.19.33v6.38c0,1.77.57,2.79,2.32,2.79,0.85,0,2.34-.52,2.34-1.25V64.52c0-1.28-.24-1.42-1.47-1.42-0.43,0-.76,0-0.76-0.24s0-.47.17-0.47c0.33,0,.61.07,2.06,0.07,0.59,0,1.2-.07,1.8-0.07a0.29,0.29,0,0,1,.33.33c0,0.1-.21,1.91-0.21,3.59v4.44c0,0.38,0,.87.59,0.87,0.33,0,.85-0.09,1-0.09s0.14,0,.14.45c0,0.14,0,.19-0.78.31a21.7,21.7,0,0,0-2.72.61,0.31,0.31,0,0,1-.28-0.33c0-.28,0-0.66.07-0.9a6.55,6.55,0,0,1-3.52,1.3c-2.34,0-3-1.51-3-4V65.33Z" transform="translate(0 -1)"/><path class="d03c7a3f-bf02-410e-a461-0dc5797c933a" d="M215.24,64.88c0-.83-0.21-1.3-1.39-1.42a0.22,0.22,0,0,1-.21-0.28,0.29,0.29,0,0,1,.19-0.33,10.56,10.56,0,0,0,3.31-1.16,0.28,0.28,0,0,1,.09.24c0,0.28-.12.87-0.12,2.15,0.78-.87,2.06-2.06,3.31-2.06a1.34,1.34,0,0,1,1.51,1.32,1.16,1.16,0,0,1-1.16,1.18c-1,0-1.11-.9-1.82-0.9a2.65,2.65,0,0,0-1.63,1,1,1,0,0,0-.17.69v5.36c0,0.87,0,1.39,1.18,1.39,0.87,0,1,0,1,.28s-0.09.33-.35,0.33c-0.85,0-1.61,0-2.69,0-1.89,0-2.29,0-2.74,0-0.17,0-.21-0.14-0.21-0.31s0.28-.31.73-0.31c1,0,1.2-.19,1.2-1.21v-6Z" transform="translate(0 -1)"/><path class="d03c7a3f-bf02-410e-a461-0dc5797c933a" d="M226.35,70.46c0,1.35,0,1.63,1.09,1.63,0.52,0,.57,0,0.57.31s0,0.31-.24.31-0.42,0-2,0c-2.22,0-2.84,0-3.19,0-0.19,0-.19-0.14-0.19-0.26,0-.31,0-0.35.9-0.35a0.88,0.88,0,0,0,1-.57,24,24,0,0,0,.14-3.4V64.88c0-.83-0.21-1.3-1.39-1.42a0.22,0.22,0,0,1-.21-0.28,0.29,0.29,0,0,1,.19-0.33,10.58,10.58,0,0,0,3.31-1.16c0.09,0,.14.12,0.14,0.26a21.44,21.44,0,0,0-.12,3.4v5.1Zm-2.2-13.3a1.23,1.23,0,1,1,1.23,1.25A1.26,1.26,0,0,1,224.15,57.15Z" transform="translate(0 -1)"/><path class="db989cd0-7820-4e37-9ccc-be61bf1991bd" d="M5.13,92.71c0,3.17,1.32,5.93,5.29,5.93,2.76,0,5.15-1.54,5.15-7.16V86.8c0-3.28-.69-3.28-3.12-3.28-0.19,0-.19-0.14-0.19-0.35s0.07-.35.19-0.35c0.4,0,1.94.09,3.47,0.09,0.73,0,2.74-.09,3.07-0.09s0.33,0,.33.4a0.26,0.26,0,0,1-.21.31c-2.27,0-2.74,0-2.74,2.79v5.6c0,6.38-4.07,8.08-6.81,8.08-5.29,0-6.78-3.54-6.78-6.14V88.43c0-1.68,0-2.25,0-3.33,0-1.39-.42-1.58-2.48-1.58C0,83.51,0,83.32,0,83.11A0.26,0.26,0,0,1,.21,82.8c0.19,0,2.25.09,3.73,0.09S7.51,82.8,7.7,82.8a0.26,0.26,0,0,1,.21.31c0,0.21,0,.4-0.26.4-2.06,0-2.46.19-2.48,1.58,0,1.09,0,1.65,0,3.33v4.28Z" transform="translate(0 -1)"/><path class="db989cd0-7820-4e37-9ccc-be61bf1991bd" d="M23.34,97.46c0,1.35,0,1.63,1.09,1.63,0.64,0,.69,0,0.69.31s0,0.31-.24.31-0.43,0-2.08,0c-2.22,0-2.84,0-3.19,0-0.19,0-.19-0.14-0.19-0.26,0-.31,0-0.35.9-0.35a0.88,0.88,0,0,0,1-.57,23.83,23.83,0,0,0,.14-3.4V91.88c0-.83-0.21-1.3-1.39-1.42a0.22,0.22,0,0,1-.21-0.28A0.29,0.29,0,0,1,20,89.85a10.54,10.54,0,0,0,3.31-1.16s0.07,0.07.07,0.26,0,0.66,0,1.7A7.17,7.17,0,0,1,27.05,89c0.8,0,3.12.17,3.12,3.55v5.67c0,0.4.07,0.85,1.54,0.85,0.24,0,.24.14,0.24,0.31s0,0.31-.33.31c-0.71,0-1.13,0-2.39,0-1.91,0-2.29,0-2.48,0s-0.17-.17-0.17-0.28a0.3,0.3,0,0,1,.33-0.33c1.13,0,1.35-.09,1.35-0.87V94c0-2.2-.19-3.66-2.65-3.66a3.51,3.51,0,0,0-2.27,1.09v6Z" transform="translate(0 -1)"/><path class="db989cd0-7820-4e37-9ccc-be61bf1991bd" d="M36.6,97.46c0,1.35,0,1.63,1.09,1.63,0.52,0,.57,0,0.57.31s0,0.31-.24.31-0.43,0-2,0c-2.22,0-2.84,0-3.19,0-0.19,0-.19-0.14-0.19-0.26,0-.31,0-0.35.9-0.35a0.88,0.88,0,0,0,1-.57,23.84,23.84,0,0,0,.14-3.4V91.88c0-.83-0.21-1.3-1.39-1.42a0.22,0.22,0,0,1-.21-0.28,0.29,0.29,0,0,1,.19-0.33,10.55,10.55,0,0,0,3.31-1.16c0.1,0,.14.12,0.14,0.26a21.35,21.35,0,0,0-.12,3.4v5.1Zm-2.2-13.3a1.23,1.23,0,1,1,1.23,1.25A1.26,1.26,0,0,1,34.4,84.15Z" transform="translate(0 -1)"/><path class="db989cd0-7820-4e37-9ccc-be61bf1991bd" d="M47.44,90.72c0-.69-1.23-0.69-1.58-0.69a0.27,0.27,0,0,1-.21-0.33A0.29,0.29,0,0,1,46,89.42c0.64,0,1.37,0,2,0s1.39,0,2.08,0a0.24,0.24,0,0,1,.21.28A0.22,0.22,0,0,1,50,90c-1.37.21-1.44,0.31-2.2,2.15-0.83,2-2.25,5-2.67,6C44.51,99.7,44.3,100,44.11,100s-0.43-.5-0.9-1.51c-0.83-1.77-2.79-7.54-3.12-8a0.81,0.81,0,0,0-.83-0.38c-0.64,0-.73-0.07-0.73-0.4a0.25,0.25,0,0,1,.26-0.26c0.76,0,1.49,0,2.24,0l2.81,0c0.17,0,.19.21,0.19,0.33a0.28,0.28,0,0,1-.24.28c-0.71,0-1.37.07-1.37,0.57a43.62,43.62,0,0,0,2.41,6.59C47.07,92.26,47.44,91.36,47.44,90.72Z" transform="translate(0 -1)"/><path class="db989cd0-7820-4e37-9ccc-be61bf1991bd" d="M52.05,93.27A8.56,8.56,0,0,0,52,94.62a4,4,0,0,0,3.88,3.9A3.08,3.08,0,0,0,58.6,97.1,0.86,0.86,0,0,1,59,96.7a0.5,0.5,0,0,1,.38.28,4.32,4.32,0,0,1-4.06,3c-3.38,0-5.15-2.08-5.15-5.39s2.29-5.67,4.73-5.67A4,4,0,0,1,59.07,93c0,0.24-.1.26-0.28,0.26H52.05Zm4.06-.71a0.68,0.68,0,0,0,.8-0.78,2,2,0,0,0-2.08-2.24c-1.7,0-2.41,1.42-2.65,3h3.92Z" transform="translate(0 -1)"/><path class="db989cd0-7820-4e37-9ccc-be61bf1991bd" d="M62.38,91.88c0-.83-0.21-1.3-1.39-1.42a0.22,0.22,0,0,1-.21-0.28A0.29,0.29,0,0,1,61,89.85a10.53,10.53,0,0,0,3.31-1.16,0.28,0.28,0,0,1,.1.24c0,0.28-.12.87-0.12,2.15C65,90.2,66.3,89,67.55,89a1.34,1.34,0,0,1,1.51,1.32,1.16,1.16,0,0,1-1.16,1.18c-1,0-1.11-.9-1.82-0.9a2.65,2.65,0,0,0-1.63,1,1,1,0,0,0-.17.69v5.36c0,0.87,0,1.39,1.18,1.39,0.87,0,1,0,1,.28s-0.09.33-.35,0.33c-0.85,0-1.61,0-2.69,0-1.89,0-2.29,0-2.74,0-0.17,0-.21-0.14-0.21-0.31s0.28-.31.73-0.31c1,0,1.21-.19,1.21-1.21v-6Z" transform="translate(0 -1)"/><path class="db989cd0-7820-4e37-9ccc-be61bf1991bd" d="M77.12,96.77c0,1.16-.61,3.21-3.85,3.21-0.43,0-1.8-.19-2.72-0.19a0.15,0.15,0,0,1-.12-0.12c0-.24-0.54-2.31-0.54-2.55s0.33-.14.42-0.14c0.57,0,.71,2.39,3,2.39a2,2,0,0,0,2.15-2.1c0-2.48-5.29-1.68-5.29-5A3.32,3.32,0,0,1,73.74,89a19.06,19.06,0,0,1,2.55.21,0.67,0.67,0,0,1,.35.66c0,1,.26,1.58.26,1.89a0.22,0.22,0,0,1-.26.19,0.42,0.42,0,0,1-.47-0.33,2.78,2.78,0,0,0-2.46-2,1.71,1.71,0,0,0-1.89,1.77A1.8,1.8,0,0,0,72.94,93C75.42,94.17,77.12,94.1,77.12,96.77Z" transform="translate(0 -1)"/><path class="db989cd0-7820-4e37-9ccc-be61bf1991bd" d="M82.22,97.46c0,1.35,0,1.63,1.09,1.63,0.52,0,.57,0,0.57.31s0,0.31-.24.31-0.43,0-2,0c-2.22,0-2.84,0-3.19,0-0.19,0-.19-0.14-0.19-0.26,0-.31,0-0.35.9-0.35a0.88,0.88,0,0,0,1-.57,24,24,0,0,0,.14-3.4V91.88c0-.83-0.21-1.3-1.39-1.42a0.22,0.22,0,0,1-.21-0.28,0.29,0.29,0,0,1,.19-0.33,10.55,10.55,0,0,0,3.31-1.16,0.22,0.22,0,0,1,.14.26,21.4,21.4,0,0,0-.12,3.4v5.1ZM80,84.15a1.23,1.23,0,1,1,1.23,1.25A1.26,1.26,0,0,1,80,84.15Z" transform="translate(0 -1)"/><path class="db989cd0-7820-4e37-9ccc-be61bf1991bd" d="M87.94,95.49c0,2.5.21,3.4,2.08,3.4a3.89,3.89,0,0,0,1.61-.54,0.47,0.47,0,0,1,.26.38c0,0.14-1,1.25-3.14,1.25A2.57,2.57,0,0,1,86,97.05V90.84a0.25,0.25,0,0,0-.24-0.31H84.61a0.18,0.18,0,0,1-.14-0.21A0.41,0.41,0,0,1,84.61,90c2.2-1.65,2.65-2.91,3.12-2.91a0.28,0.28,0,0,1,.28.31c0,0.43-.07.83-0.07,2.17h3.64c0.17,0,.24.16,0.24,0.5a0.55,0.55,0,0,1-.64.59c-0.17,0-1.28-.12-3.24-0.12v5Z" transform="translate(0 -1)"/><path class="db989cd0-7820-4e37-9ccc-be61bf1991bd" d="M102.21,90.84c0-.78-1.11-0.8-1.82-0.8-0.21,0-.23-0.12-0.23-0.31a0.27,0.27,0,0,1,.21-0.31c0.76,0,1.54,0,2.29,0s1.47,0,2.2,0c0.17,0,.17.21,0.17,0.31S105,90,104.62,90a1.42,1.42,0,0,0-1.49,1c-0.85,2-4.11,8.81-4.63,10.14-1.82,4.56-2.6,4.87-3.38,4.87a1.34,1.34,0,1,1,0-2.67,5.14,5.14,0,0,1,1.18.4c0.42,0,1.54-2.27,1.54-3.38a11.33,11.33,0,0,0-.83-2.65c-1.49-3.83-1.94-5.88-2.44-7.21C94.41,90,93.23,90,92.93,90a0.27,0.27,0,0,1-.21-0.33A0.26,0.26,0,0,1,93,89.42c0.28,0,1.77,0,2.62,0s1.63,0,2.34,0a0.26,0.26,0,0,1,.28.31A0.29,0.29,0,0,1,98,90c-0.14,0-1.16,0-1.16.52,0,1.13.8,3.47,2.34,7.42C100.25,95.73,102.21,91.57,102.21,90.84Z" transform="translate(0 -1)"/><path class="db989cd0-7820-4e37-9ccc-be61bf1991bd" d="M117,100a5.29,5.29,0,0,1-5.48-5.48,5.49,5.49,0,0,1,11,0A5.18,5.18,0,0,1,117,100Zm0-10.35c-2.46,0-3.24,2.55-3.24,4.87,0,2,.47,4.87,3.24,4.87s3.26-2.86,3.26-4.87C120.26,92.19,119.48,89.63,117,89.63Z" transform="translate(0 -1)"/><path class="db989cd0-7820-4e37-9ccc-be61bf1991bd" d="M127.89,97.69c0,0.87,0,1.39,1.18,1.39,0.87,0,1,0,1,.28s-0.09.33-.35,0.33c-0.85,0-1.61,0-2.69,0-1.89,0-2.29,0-2.5,0s-0.21-.14-0.21-0.31,0-.31.5-0.31c1,0,1.21-.19,1.21-1.21V91.29c0-.28,0-0.76-0.45-0.76h-1.3c-0.17,0-.28,0-0.28-0.31s0.17-.28.73-0.4c0.92-.21,1.16-0.26,1.23-1.32,0.24-3.59,1.3-5.58,4.09-6.31a7.09,7.09,0,0,1,1.44-.19,1.28,1.28,0,0,1,1.49,1,1.06,1.06,0,0,1-1.11,1.16,2.11,2.11,0,0,1-1.3-.54,2.18,2.18,0,0,0-1-.54c-1.35,0-1.58,2-1.58,3.43v3h2.93c0.17,0,.24.16,0.24,0.5a0.55,0.55,0,0,1-.64.59c-0.17,0-2-.12-2.53-0.12v7.16Z" transform="translate(0 -1)"/><path class="db989cd0-7820-4e37-9ccc-be61bf1991bd" d="M157.22,83.06a0.29,0.29,0,0,1,.28-0.26c0.12,0,1.84.09,2.39,0.09s2.41-.09,2.58-0.09,0.26,0.19.26,0.4a0.26,0.26,0,0,1-.28.31c-2.13,0-2.39.17-2.39,1.25,0,1.54.26,6.5,0.5,13.11a1.17,1.17,0,0,0,1.3,1.11c1.32,0,1.35.14,1.35,0.31,0,0.35-.12.4-0.26,0.4s-0.47,0-3.76,0c-3.07,0-3.21,0-3.4,0s-0.26-.17-0.26-0.38,0-.33,1.14-0.33c1.56,0,1.58-.38,1.58-1.32,0-1.42-.35-9.05-0.54-13.47h0c-1.72,4.42-3.9,9.5-5.46,13.3-0.9,2.17-.9,2.43-1.2,2.43s-0.35-.21-0.85-1.84-4.37-12.15-4.47-12.15c-0.4,1.73-2,9.57-2,11.93A1,1,0,0,0,144.88,99a2.25,2.25,0,0,1,1.28.19c0,0.45,0,.52-0.26.52s-0.43,0-2.86,0c-2.15,0-2.32,0-2.46,0s-0.26,0-.26-0.4,0.12-.31,1.25-0.31c0.83,0,1-.31,1.25-1.65,0.64-3.4,1.2-6.83,1.94-10.23a10.36,10.36,0,0,0,.31-2.22,2.48,2.48,0,0,0-.62-1.18,8,8,0,0,0-2-.19c-0.28,0-.28-0.19-0.28-0.35s0-.35.26-0.35c0.45,0,2.48.09,2.74,0.09,0.61,0,1.61-.09,1.91-0.09s0.33,0.26.57,1.11c0.5,1.77,3.92,11.34,4.35,12.22C153.74,91.95,155.54,87.62,157.22,83.06Z" transform="translate(0 -1)"/><path class="db989cd0-7820-4e37-9ccc-be61bf1991bd" d="M167.73,97.46c0,1.35,0,1.63,1.09,1.63,0.52,0,.57,0,0.57.31s0,0.31-.24.31-0.43,0-2,0c-2.22,0-2.84,0-3.19,0-0.19,0-.19-0.14-0.19-0.26,0-.31,0-0.35.9-0.35a0.88,0.88,0,0,0,1-.57,23.77,23.77,0,0,0,.14-3.4V91.88c0-.83-0.21-1.3-1.39-1.42a0.22,0.22,0,0,1-.21-0.28,0.29,0.29,0,0,1,.19-0.33,10.54,10.54,0,0,0,3.31-1.16c0.1,0,.14.12,0.14,0.26a21.44,21.44,0,0,0-.12,3.4v5.1Zm-2.2-13.3a1.23,1.23,0,1,1,1.23,1.25A1.26,1.26,0,0,1,165.53,84.15Z" transform="translate(0 -1)"/><path class="db989cd0-7820-4e37-9ccc-be61bf1991bd" d="M177.93,96.77c0,1.16-.61,3.21-3.85,3.21-0.42,0-1.8-.19-2.72-0.19a0.15,0.15,0,0,1-.12-0.12c0-.24-0.54-2.31-0.54-2.55S171,97,171.13,97c0.57,0,.71,2.39,3,2.39a2,2,0,0,0,2.15-2.1c0-2.48-5.29-1.68-5.29-5A3.32,3.32,0,0,1,174.56,89a19,19,0,0,1,2.55.21,0.67,0.67,0,0,1,.35.66c0,1,.26,1.58.26,1.89a0.22,0.22,0,0,1-.26.19,0.42,0.42,0,0,1-.47-0.33,2.78,2.78,0,0,0-2.46-2,1.71,1.71,0,0,0-1.89,1.77A1.8,1.8,0,0,0,173.75,93C176.23,94.17,177.93,94.1,177.93,96.77Z" transform="translate(0 -1)"/><path class="db989cd0-7820-4e37-9ccc-be61bf1991bd" d="M186.68,96.77c0,1.16-.61,3.21-3.85,3.21-0.43,0-1.8-.19-2.72-0.19a0.15,0.15,0,0,1-.12-0.12c0-.24-0.54-2.31-0.54-2.55s0.33-.14.42-0.14c0.57,0,.71,2.39,3,2.39a2,2,0,0,0,2.15-2.1c0-2.48-5.29-1.68-5.29-5A3.32,3.32,0,0,1,183.3,89a19,19,0,0,1,2.55.21,0.67,0.67,0,0,1,.35.66c0,1,.26,1.58.26,1.89a0.22,0.22,0,0,1-.26.19,0.42,0.42,0,0,1-.47-0.33,2.78,2.78,0,0,0-2.46-2,1.71,1.71,0,0,0-1.89,1.77A1.8,1.8,0,0,0,182.49,93C185,94.17,186.68,94.1,186.68,96.77Z" transform="translate(0 -1)"/><path class="db989cd0-7820-4e37-9ccc-be61bf1991bd" d="M193.88,100a5.29,5.29,0,0,1-5.48-5.48,5.49,5.49,0,0,1,11,0A5.18,5.18,0,0,1,193.88,100Zm0-10.35c-2.46,0-3.24,2.55-3.24,4.87,0,2,.47,4.87,3.24,4.87s3.26-2.86,3.26-4.87C197.14,92.19,196.36,89.63,193.88,89.63Z" transform="translate(0 -1)"/><path class="db989cd0-7820-4e37-9ccc-be61bf1991bd" d="M202.34,92.33c0-2.08-.24-2.22-1.47-2.22-0.19,0-.52,0-0.52-0.24s0-.47.26-0.47,0.62,0.07,1.4.07,1.72-.07,2.05-0.07c0.14,0,.19,0,0.19.33v6.38c0,1.77.57,2.79,2.32,2.79,0.85,0,2.34-.52,2.34-1.25V91.52c0-1.28-.24-1.42-1.47-1.42-0.43,0-.76,0-0.76-0.24s0-.47.17-0.47c0.33,0,.61.07,2.06,0.07,0.59,0,1.2-.07,1.8-0.07a0.29,0.29,0,0,1,.33.33c0,0.1-.21,1.91-0.21,3.59v4.44c0,0.38,0,.87.59,0.87,0.33,0,.85-0.09,1-0.09s0.14,0,.14.45c0,0.14,0,.19-0.78.31a21.7,21.7,0,0,0-2.72.61,0.31,0.31,0,0,1-.28-0.33c0-.28,0-0.66.07-0.9a6.55,6.55,0,0,1-3.52,1.3c-2.34,0-3-1.51-3-4V92.33Z" transform="translate(0 -1)"/><path class="db989cd0-7820-4e37-9ccc-be61bf1991bd" d="M215.24,91.88c0-.83-0.21-1.3-1.39-1.42a0.22,0.22,0,0,1-.21-0.28,0.29,0.29,0,0,1,.19-0.33,10.56,10.56,0,0,0,3.31-1.16,0.28,0.28,0,0,1,.09.24c0,0.28-.12.87-0.12,2.15,0.78-.87,2.06-2.06,3.31-2.06a1.34,1.34,0,0,1,1.51,1.32,1.16,1.16,0,0,1-1.16,1.18c-1,0-1.11-.9-1.82-0.9a2.65,2.65,0,0,0-1.63,1,1,1,0,0,0-.17.69v5.36c0,0.87,0,1.39,1.18,1.39,0.87,0,1,0,1,.28s-0.09.33-.35,0.33c-0.85,0-1.61,0-2.69,0-1.89,0-2.29,0-2.74,0-0.17,0-.21-0.14-0.21-0.31s0.28-.31.73-0.31c1,0,1.2-.19,1.2-1.21v-6Z" transform="translate(0 -1)"/><path class="db989cd0-7820-4e37-9ccc-be61bf1991bd" d="M226.35,97.46c0,1.35,0,1.63,1.09,1.63,0.52,0,.57,0,0.57.31s0,0.31-.24.31-0.42,0-2,0c-2.22,0-2.84,0-3.19,0-0.19,0-.19-0.14-0.19-0.26,0-.31,0-0.35.9-0.35a0.88,0.88,0,0,0,1-.57,24,24,0,0,0,.14-3.4V91.88c0-.83-0.21-1.3-1.39-1.42a0.22,0.22,0,0,1-.21-0.28,0.29,0.29,0,0,1,.19-0.33,10.58,10.58,0,0,0,3.31-1.16c0.09,0,.14.12,0.14,0.26a21.44,21.44,0,0,0-.12,3.4v5.1Zm-2.2-13.3a1.23,1.23,0,1,1,1.23,1.25A1.26,1.26,0,0,1,224.15,84.15Z" transform="translate(0 -1)"/></svg>