<svg id="6d36ae71-0b72-419b-8c9e-1c4fe1e669da" data-name="Layer 1" xmlns="http://www.w3.org/2000/svg" width="176" height="80.59" viewBox="0 0 176 80.59"><defs><style>.eb68cc7c-ee96-40ec-b62b-ed96104fff50{fill:#900000;}.\36 dd0dfcb-9f2d-4a13-b059-329e6bd0cf1e{fill:#fff;}.\38 47059d1-1174-4888-9ac5-37214c18ca34{fill:#f1b82d;}</style></defs><title>mu-wordmark-extra-small</title><path d="M4,9.26C4,11.71,5,13.84,8,13.84c2.13,0,4-1.19,4-5.53V4.7c0-2.53-.53-2.53-2.41-2.53-0.15,0-.15-0.11-0.15-0.27s0.05-.27.15-0.27c0.31,0,1.5.07,2.68,0.07,0.57,0,2.12-.07,2.37-0.07s0.26,0,.26.31a0.2,0.2,0,0,1-.16.24c-1.75,0-2.12,0-2.12,2.15V8.64c0,4.93-3.14,6.24-5.25,6.24-4.09,0-5.24-2.74-5.24-4.74V6c0-1.29,0-1.73,0-2.57C2.1,2.31,1.79,2.17.2,2.17,0,2.17,0,2,0,1.86A0.2,0.2,0,0,1,.16,1.62c0.15,0,1.73.07,2.88,0.07s2.75-.07,2.9-0.07a0.2,0.2,0,0,1,.16.24c0,0.16,0,.31-0.2.31C4.32,2.17,4,2.31,4,3.39,4,4.23,4,4.67,4,6v3.3Z" transform="translate(0 -1)"/><path d="M18,12.93c0,1,0,1.26.84,1.26,0.49,0,.53,0,0.53.24s0,0.24-.18.24-0.33,0-1.61,0c-1.71,0-2.19,0-2.46,0S15,14.55,15,14.46s0-.27.69-0.27a0.68,0.68,0,0,0,.75-0.44,18.39,18.39,0,0,0,.11-2.63V8.62a1,1,0,0,0-1.08-1.09,0.17,0.17,0,0,1-.16-0.22,0.23,0.23,0,0,1,.15-0.26A8.14,8.14,0,0,0,18,6.16s0.06,0.06.06,0.2,0,0.51,0,1.31a5.54,5.54,0,0,1,2.86-1.26c0.62,0,2.41.13,2.41,2.74v4.38c0,0.31.06,0.66,1.19,0.66,0.18,0,.18.11,0.18,0.24s0,0.24-.26.24c-0.55,0-.88,0-1.84,0-1.48,0-1.77,0-1.92,0s-0.13-.13-0.13-0.22a0.23,0.23,0,0,1,.26-0.26c0.88,0,1-.07,1-0.67V10.25c0-1.7-.15-2.83-2-2.83A2.71,2.71,0,0,0,18,8.26v4.67Z" transform="translate(0 -1)"/><path d="M28.25,12.93c0,1,0,1.26.84,1.26,0.4,0,.44,0,0.44.24s0,0.24-.18.24-0.33,0-1.51,0c-1.71,0-2.19,0-2.46,0s-0.15-.11-0.15-0.2,0-.27.69-0.27a0.68,0.68,0,0,0,.75-0.44,18.41,18.41,0,0,0,.11-2.63V8.62A1,1,0,0,0,25.7,7.53a0.17,0.17,0,0,1-.16-0.22,0.23,0.23,0,0,1,.15-0.26,8.14,8.14,0,0,0,2.55-.89c0.07,0,.11.09,0.11,0.2A16.48,16.48,0,0,0,28.25,9v3.94ZM26.56,2.66a0.95,0.95,0,1,1,.95,1A1,1,0,0,1,26.56,2.66Z" transform="translate(0 -1)"/><path d="M36.62,7.73c0-.53-0.95-0.53-1.22-0.53a0.21,0.21,0,0,1-.16-0.26,0.23,0.23,0,0,1,.24-0.22c0.49,0,1.06,0,1.57,0s1.08,0,1.61,0a0.19,0.19,0,0,1,.16.22,0.17,0.17,0,0,1-.18.2c-1.06.16-1.11,0.24-1.7,1.66s-1.73,3.87-2.06,4.63c-0.51,1.22-.67,1.44-0.82,1.44s-0.33-.38-0.69-1.17C32.72,12.35,31.21,7.9,31,7.53a0.63,0.63,0,0,0-.64-0.29c-0.49,0-.57-0.06-0.57-0.31a0.19,0.19,0,0,1,.2-0.2c0.58,0,1.15,0,1.73,0l2.17,0C34,6.73,34,6.89,34,7a0.22,0.22,0,0,1-.18.22c-0.55,0-1.06.06-1.06,0.44a33.67,33.67,0,0,0,1.86,5.09C36.33,8.92,36.62,8.22,36.62,7.73Z" transform="translate(0 -1)"/><path d="M40.18,9.7a6.61,6.61,0,0,0-.07,1,3.07,3.07,0,0,0,3,3,2.38,2.38,0,0,0,2.13-1.09,0.66,0.66,0,0,1,.27-0.31,0.38,0.38,0,0,1,.29.22,3.33,3.33,0,0,1-3.14,2.32c-2.61,0-4-1.61-4-4.16s1.77-4.38,3.65-4.38A3.05,3.05,0,0,1,45.6,9.5c0,0.18-.07.2-0.22,0.2h-5.2Zm3.14-.55a0.52,0.52,0,0,0,.62-0.6,1.54,1.54,0,0,0-1.61-1.73c-1.31,0-1.86,1.09-2,2.34h3Z" transform="translate(0 -1)"/><path d="M48.15,8.62a1,1,0,0,0-1.08-1.09,0.17,0.17,0,0,1-.16-0.22,0.23,0.23,0,0,1,.15-0.26,8.13,8.13,0,0,0,2.55-.89,0.21,0.21,0,0,1,.07.18c0,0.22-.09.67-0.09,1.66a4.08,4.08,0,0,1,2.55-1.59,1,1,0,0,1,1.17,1,0.9,0.9,0,0,1-.89.91c-0.75,0-.86-0.69-1.4-0.69a2,2,0,0,0-1.26.78,0.77,0.77,0,0,0-.13.53v4.14c0,0.68,0,1.08.91,1.08,0.68,0,.75,0,0.75.22s-0.07.26-.27,0.26c-0.66,0-1.24,0-2.08,0-1.46,0-1.77,0-2.12,0-0.13,0-.16-0.11-0.16-0.24s0.22-.24.57-0.24c0.78,0,.93-0.15.93-0.93V8.62Z" transform="translate(0 -1)"/><path d="M59.53,12.4c0,0.89-.47,2.48-3,2.48-0.33,0-1.39-.15-2.1-0.15a0.12,0.12,0,0,1-.09-0.09c0-.18-0.42-1.79-0.42-2s0.26-.11.33-0.11c0.44,0,.55,1.84,2.3,1.84a1.55,1.55,0,0,0,1.66-1.62c0-1.92-4.09-1.29-4.09-3.89a2.56,2.56,0,0,1,2.77-2.48,14.72,14.72,0,0,1,2,.16,0.52,0.52,0,0,1,.27.51c0,0.75.2,1.22,0.2,1.46a0.17,0.17,0,0,1-.2.15,0.32,0.32,0,0,1-.36-0.26,2.15,2.15,0,0,0-1.9-1.55,1.32,1.32,0,0,0-1.46,1.37,1.39,1.39,0,0,0,.86,1.22C58.22,10.39,59.53,10.34,59.53,12.4Z" transform="translate(0 -1)"/><path d="M63.47,12.93c0,1,0,1.26.84,1.26,0.4,0,.44,0,0.44.24s0,0.24-.18.24-0.33,0-1.51,0c-1.71,0-2.19,0-2.46,0s-0.15-.11-0.15-0.2,0-.27.69-0.27a0.68,0.68,0,0,0,.75-0.44A18.53,18.53,0,0,0,62,11.12V8.62a1,1,0,0,0-1.08-1.09,0.17,0.17,0,0,1-.16-0.22,0.23,0.23,0,0,1,.15-0.26,8.14,8.14,0,0,0,2.55-.89,0.17,0.17,0,0,1,.11.2A16.52,16.52,0,0,0,63.47,9v3.94ZM61.77,2.66a0.95,0.95,0,1,1,.95,1A1,1,0,0,1,61.77,2.66Z" transform="translate(0 -1)"/><path d="M67.88,11.42c0,1.93.16,2.63,1.61,2.63a3,3,0,0,0,1.24-.42,0.36,0.36,0,0,1,.2.29,2.78,2.78,0,0,1-2.43,1,2,2,0,0,1-2.1-2.26V7.82a0.19,0.19,0,0,0-.18-0.24H65.31a0.14,0.14,0,0,1-.11-0.16,0.32,0.32,0,0,1,.11-0.26c1.7-1.28,2-2.24,2.41-2.24a0.22,0.22,0,0,1,.22.24c0,0.33-.05.64-0.05,1.68h2.81c0.13,0,.18.13,0.18,0.38a0.42,0.42,0,0,1-.49.46c-0.13,0-1-.09-2.5-0.09v3.83Z" transform="translate(0 -1)"/><path d="M78.9,7.82c0-.6-0.86-0.62-1.41-0.62-0.16,0-.18-0.09-0.18-0.24a0.21,0.21,0,0,1,.16-0.24c0.58,0,1.19,0,1.77,0s1.13,0,1.7,0c0.13,0,.13.16,0.13,0.24S81,7.18,80.76,7.2a1.09,1.09,0,0,0-1.15.8C79,9.52,76.44,14.81,76,15.83c-1.4,3.52-2,3.76-2.61,3.76a1,1,0,1,1,0-2.06,4,4,0,0,1,.91.31c0.33,0,1.19-1.75,1.19-2.61a8.75,8.75,0,0,0-.64-2c-1.15-3-1.5-4.54-1.88-5.56a1.58,1.58,0,0,0-1.31-.42,0.21,0.21,0,0,1-.16-0.26,0.2,0.2,0,0,1,.2-0.22c0.22,0,1.37,0,2,0s1.26,0,1.81,0a0.2,0.2,0,0,1,.22.24,0.22,0.22,0,0,1-.18.24c-0.11,0-.89,0-0.89.4,0,0.88.62,2.68,1.81,5.73A37.14,37.14,0,0,0,78.9,7.82Z" transform="translate(0 -1)"/><path d="M90.32,14.88a4.08,4.08,0,0,1-4.23-4.23,4.24,4.24,0,0,1,8.48,0A4,4,0,0,1,90.32,14.88Zm0-8c-1.9,0-2.5,2-2.5,3.76,0,1.55.36,3.76,2.5,3.76s2.52-2.21,2.52-3.76C92.83,8.86,92.23,6.89,90.32,6.89Z" transform="translate(0 -1)"/><path d="M98.72,13.11c0,0.68,0,1.08.91,1.08,0.68,0,.75,0,0.75.22s-0.07.26-.27,0.26c-0.66,0-1.24,0-2.08,0-1.46,0-1.77,0-1.93,0s-0.16-.11-0.16-0.24,0-.24.38-0.24c0.78,0,.93-0.15.93-0.93V8.17c0-.22,0-0.58-0.35-0.58h-1c-0.13,0-.22,0-0.22-0.24s0.13-.22.57-0.31c0.71-.16.89-0.2,0.95-1,0.18-2.77,1-4.3,3.16-4.87A5.47,5.47,0,0,1,101.46,1a1,1,0,0,1,1.15.78,0.81,0.81,0,0,1-.86.89,1.63,1.63,0,0,1-1-.42,1.68,1.68,0,0,0-.8-0.42c-1,0-1.22,1.51-1.22,2.65V6.84H101c0.13,0,.18.13,0.18,0.38a0.42,0.42,0,0,1-.49.46c-0.13,0-1.53-.09-2-0.09v5.53Z" transform="translate(0 -1)"/><path d="M121.36,1.82a0.23,0.23,0,0,1,.22-0.2c0.09,0,1.42.07,1.84,0.07s1.86-.07,2-0.07,0.2,0.15.2,0.31a0.2,0.2,0,0,1-.22.24c-1.64,0-1.84.13-1.84,1,0,1.19.2,5,.38,10.12a0.9,0.9,0,0,0,1,.86c1,0,1,.11,1,0.24s-0.09.31-.2,0.31-0.36,0-2.9,0c-2.37,0-2.48,0-2.63,0s-0.2-.13-0.2-0.29,0-.26.88-0.26c1.2,0,1.22-.29,1.22-1,0-1.09-.27-7-0.42-10.4h0c-1.33,3.41-3,7.33-4.21,10.27-0.69,1.68-.69,1.88-0.93,1.88s-0.27-.16-0.66-1.42S112.51,4,112.44,4a75.4,75.4,0,0,0-1.51,9.21,0.79,0.79,0,0,0,.91.86,1.73,1.73,0,0,1,1,.15c0,0.35,0,.4-0.2.4s-0.33,0-2.21,0c-1.66,0-1.79,0-1.9,0s-0.2,0-.2-0.31,0.09-.24,1-0.24c0.64,0,.77-0.24,1-1.28,0.49-2.63.93-5.27,1.5-7.9A8,8,0,0,0,112,3.23a1.92,1.92,0,0,0-.47-0.91,6.19,6.19,0,0,0-1.57-.15c-0.22,0-.22-0.15-0.22-0.27s0-.27.2-0.27c0.35,0,1.92.07,2.12,0.07,0.47,0,1.24-.07,1.48-0.07s0.25,0.2.44,0.86c0.38,1.37,3,8.76,3.36,9.43C118.68,8.68,120.06,5.34,121.36,1.82Z" transform="translate(0 -1)"/><path d="M129.47,12.93c0,1,0,1.26.84,1.26,0.4,0,.44,0,0.44.24s0,0.24-.18.24-0.33,0-1.51,0c-1.72,0-2.19,0-2.46,0s-0.15-.11-0.15-0.2,0-.27.69-0.27a0.68,0.68,0,0,0,.75-0.44,18.35,18.35,0,0,0,.11-2.63V8.62a1,1,0,0,0-1.08-1.09,0.17,0.17,0,0,1-.16-0.22,0.23,0.23,0,0,1,.15-0.26,8.14,8.14,0,0,0,2.55-.89c0.07,0,.11.09,0.11,0.2A16.55,16.55,0,0,0,129.47,9v3.94Zm-1.7-10.27a0.95,0.95,0,1,1,.95,1A1,1,0,0,1,127.78,2.66Z" transform="translate(0 -1)"/><path d="M137.35,12.4c0,0.89-.47,2.48-3,2.48-0.33,0-1.39-.15-2.1-0.15a0.12,0.12,0,0,1-.09-0.09c0-.18-0.42-1.79-0.42-2s0.26-.11.33-0.11c0.44,0,.55,1.84,2.3,1.84a1.55,1.55,0,0,0,1.66-1.62c0-1.92-4.09-1.29-4.09-3.89a2.56,2.56,0,0,1,2.77-2.48,14.69,14.69,0,0,1,2,.16,0.52,0.52,0,0,1,.27.51c0,0.75.2,1.22,0.2,1.46a0.17,0.17,0,0,1-.2.15,0.32,0.32,0,0,1-.36-0.26,2.15,2.15,0,0,0-1.9-1.55,1.32,1.32,0,0,0-1.46,1.37,1.39,1.39,0,0,0,.86,1.22C136,10.39,137.35,10.34,137.35,12.4Z" transform="translate(0 -1)"/><path d="M144.1,12.4c0,0.89-.47,2.48-3,2.48-0.33,0-1.39-.15-2.1-0.15a0.12,0.12,0,0,1-.09-0.09c0-.18-0.42-1.79-0.42-2s0.25-.11.33-0.11c0.44,0,.55,1.84,2.3,1.84a1.55,1.55,0,0,0,1.66-1.62c0-1.92-4.09-1.29-4.09-3.89a2.56,2.56,0,0,1,2.77-2.48,14.68,14.68,0,0,1,2,.16,0.52,0.52,0,0,1,.27.51c0,0.75.2,1.22,0.2,1.46a0.17,0.17,0,0,1-.2.15,0.32,0.32,0,0,1-.36-0.26,2.15,2.15,0,0,0-1.9-1.55A1.32,1.32,0,0,0,140,8.26a1.39,1.39,0,0,0,.86,1.22C142.79,10.39,144.1,10.34,144.1,12.4Z" transform="translate(0 -1)"/><path d="M149.66,14.88a4.08,4.08,0,0,1-4.23-4.23,4.24,4.24,0,0,1,8.48,0A4,4,0,0,1,149.66,14.88Zm0-8c-1.9,0-2.5,2-2.5,3.76,0,1.55.36,3.76,2.5,3.76s2.52-2.21,2.52-3.76C152.18,8.86,151.58,6.89,149.66,6.89Z" transform="translate(0 -1)"/><path d="M156.19,9c0-1.61-.18-1.71-1.13-1.71-0.15,0-.4,0-0.4-0.18s0-.36.2-0.36,0.47,0.05,1.08.05,1.33-.05,1.59-0.05,0.15,0,.15.25v4.93c0,1.37.44,2.15,1.79,2.15,0.66,0,1.81-.4,1.81-1V8.35c0-1-.18-1.09-1.13-1.09-0.33,0-.58,0-0.58-0.18s0-.36.13-0.36,0.47,0.05,1.59.05c0.46,0,.93-0.05,1.39-0.05a0.22,0.22,0,0,1,.26.25c0,0.07-.16,1.48-0.16,2.77v3.43c0,0.29,0,.68.46,0.68,0.25,0,.66-0.07.78-0.07s0.11,0,.11.35c0,0.11,0,.15-0.6.24a16.75,16.75,0,0,0-2.1.47,0.24,0.24,0,0,1-.22-0.26c0-.22,0-0.51.05-0.69a5.06,5.06,0,0,1-2.72,1c-1.81,0-2.32-1.17-2.32-3.06V9Z" transform="translate(0 -1)"/><path d="M166.15,8.62a1,1,0,0,0-1.08-1.09,0.17,0.17,0,0,1-.16-0.22,0.22,0.22,0,0,1,.15-0.26,8.15,8.15,0,0,0,2.55-.89,0.21,0.21,0,0,1,.07.18c0,0.22-.09.67-0.09,1.66a4.08,4.08,0,0,1,2.55-1.59,1,1,0,0,1,1.17,1,0.9,0.9,0,0,1-.89.91c-0.75,0-.86-0.69-1.4-0.69a2,2,0,0,0-1.26.78,0.77,0.77,0,0,0-.13.53v4.14c0,0.68,0,1.08.91,1.08,0.68,0,.75,0,0.75.22s-0.07.26-.27,0.26c-0.66,0-1.24,0-2.08,0-1.46,0-1.77,0-2.12,0-0.13,0-.17-0.11-0.17-0.24s0.22-.24.57-0.24c0.78,0,.93-0.15.93-0.93V8.62Z" transform="translate(0 -1)"/><path d="M174.72,12.93c0,1,0,1.26.84,1.26,0.4,0,.44,0,0.44.24s0,0.24-.18.24-0.33,0-1.51,0c-1.72,0-2.19,0-2.46,0s-0.15-.11-0.15-0.2,0-.27.69-0.27a0.68,0.68,0,0,0,.75-0.44,18.51,18.51,0,0,0,.11-2.63V8.62a1,1,0,0,0-1.08-1.09A0.17,0.17,0,0,1,172,7.31a0.23,0.23,0,0,1,.15-0.26,8.16,8.16,0,0,0,2.55-.89c0.07,0,.11.09,0.11,0.2A16.55,16.55,0,0,0,174.72,9v3.94ZM173,2.66a0.95,0.95,0,1,1,.95,1A1,1,0,0,1,173,2.66Z" transform="translate(0 -1)"/><path class="eb68cc7c-ee96-40ec-b62b-ed96104fff50" d="M4,30.26C4,32.71,5,34.84,8,34.84c2.13,0,4-1.19,4-5.53V25.7c0-2.53-.53-2.53-2.41-2.53-0.15,0-.15-0.11-0.15-0.27s0.05-.27.15-0.27c0.31,0,1.5.07,2.68,0.07,0.57,0,2.12-.07,2.37-0.07s0.26,0,.26.31a0.2,0.2,0,0,1-.16.24c-1.75,0-2.12,0-2.12,2.15v4.32c0,4.93-3.14,6.24-5.25,6.24-4.09,0-5.24-2.74-5.24-4.74V27c0-1.29,0-1.73,0-2.57,0-1.08-.33-1.22-1.91-1.22C0,23.17,0,23,0,22.86a0.2,0.2,0,0,1,.16-0.24c0.15,0,1.73.07,2.88,0.07s2.75-.07,2.9-0.07a0.2,0.2,0,0,1,.16.24c0,0.16,0,.31-0.2.31-1.59,0-1.9.15-1.92,1.22C4,25.23,4,25.67,4,27v3.3Z" transform="translate(0 -1)"/><path class="eb68cc7c-ee96-40ec-b62b-ed96104fff50" d="M18,33.93c0,1,0,1.26.84,1.26,0.49,0,.53,0,0.53.24s0,0.24-.18.24-0.33,0-1.61,0c-1.71,0-2.19,0-2.46,0S15,35.55,15,35.46s0-.27.69-0.27a0.68,0.68,0,0,0,.75-0.44,18.39,18.39,0,0,0,.11-2.63v-2.5a1,1,0,0,0-1.08-1.09,0.17,0.17,0,0,1-.16-0.22,0.23,0.23,0,0,1,.15-0.26A8.14,8.14,0,0,0,18,27.16s0.06,0.06.06,0.2,0,0.51,0,1.31a5.54,5.54,0,0,1,2.86-1.26c0.62,0,2.41.13,2.41,2.74v4.38c0,0.31.06,0.66,1.19,0.66,0.18,0,.18.11,0.18,0.24s0,0.24-.26.24c-0.55,0-.88,0-1.84,0-1.48,0-1.77,0-1.92,0s-0.13-.13-0.13-0.22a0.23,0.23,0,0,1,.26-0.26c0.88,0,1-.07,1-0.67V31.25c0-1.7-.15-2.83-2-2.83a2.71,2.71,0,0,0-1.75.84v4.67Z" transform="translate(0 -1)"/><path class="eb68cc7c-ee96-40ec-b62b-ed96104fff50" d="M28.25,33.93c0,1,0,1.26.84,1.26,0.4,0,.44,0,0.44.24s0,0.24-.18.24-0.33,0-1.51,0c-1.71,0-2.19,0-2.46,0s-0.15-.11-0.15-0.2,0-.27.69-0.27a0.68,0.68,0,0,0,.75-0.44,18.41,18.41,0,0,0,.11-2.63v-2.5a1,1,0,0,0-1.08-1.09,0.17,0.17,0,0,1-.16-0.22,0.23,0.23,0,0,1,.15-0.26,8.14,8.14,0,0,0,2.55-.89c0.07,0,.11.09,0.11,0.2A16.48,16.48,0,0,0,28.25,30v3.94Zm-1.7-10.27a0.95,0.95,0,1,1,.95,1A1,1,0,0,1,26.56,23.66Z" transform="translate(0 -1)"/><path class="eb68cc7c-ee96-40ec-b62b-ed96104fff50" d="M36.62,28.73c0-.53-0.95-0.53-1.22-0.53a0.21,0.21,0,0,1-.16-0.26,0.23,0.23,0,0,1,.24-0.22c0.49,0,1.06,0,1.57,0s1.08,0,1.61,0a0.19,0.19,0,0,1,.16.22,0.17,0.17,0,0,1-.18.2c-1.06.16-1.11,0.24-1.7,1.66s-1.73,3.87-2.06,4.63c-0.51,1.22-.67,1.44-0.82,1.44s-0.33-.38-0.69-1.17c-0.64-1.37-2.15-5.82-2.41-6.18a0.63,0.63,0,0,0-.64-0.29c-0.49,0-.57-0.06-0.57-0.31a0.19,0.19,0,0,1,.2-0.2c0.58,0,1.15,0,1.73,0l2.17,0C34,27.73,34,27.89,34,28a0.22,0.22,0,0,1-.18.22c-0.55,0-1.06.06-1.06,0.44a33.67,33.67,0,0,0,1.86,5.09C36.33,29.92,36.62,29.22,36.62,28.73Z" transform="translate(0 -1)"/><path class="eb68cc7c-ee96-40ec-b62b-ed96104fff50" d="M40.18,30.7a6.61,6.61,0,0,0-.07,1,3.07,3.07,0,0,0,3,3,2.38,2.38,0,0,0,2.13-1.09,0.66,0.66,0,0,1,.27-0.31,0.38,0.38,0,0,1,.29.22,3.33,3.33,0,0,1-3.14,2.32c-2.61,0-4-1.61-4-4.16s1.77-4.38,3.65-4.38A3.05,3.05,0,0,1,45.6,30.5c0,0.18-.07.2-0.22,0.2h-5.2Zm3.14-.55a0.52,0.52,0,0,0,.62-0.6,1.54,1.54,0,0,0-1.61-1.73c-1.31,0-1.86,1.09-2,2.34h3Z" transform="translate(0 -1)"/><path class="eb68cc7c-ee96-40ec-b62b-ed96104fff50" d="M48.15,29.62a1,1,0,0,0-1.08-1.09,0.17,0.17,0,0,1-.16-0.22,0.23,0.23,0,0,1,.15-0.26,8.13,8.13,0,0,0,2.55-.89,0.21,0.21,0,0,1,.07.18c0,0.22-.09.67-0.09,1.66a4.08,4.08,0,0,1,2.55-1.59,1,1,0,0,1,1.17,1,0.9,0.9,0,0,1-.89.91c-0.75,0-.86-0.69-1.4-0.69a2,2,0,0,0-1.26.78,0.77,0.77,0,0,0-.13.53v4.14c0,0.68,0,1.08.91,1.08,0.68,0,.75,0,0.75.22s-0.07.26-.27,0.26c-0.66,0-1.24,0-2.08,0-1.46,0-1.77,0-2.12,0-0.13,0-.16-0.11-0.16-0.24s0.22-.24.57-0.24c0.78,0,.93-0.15.93-0.93V29.62Z" transform="translate(0 -1)"/><path class="eb68cc7c-ee96-40ec-b62b-ed96104fff50" d="M59.53,33.4c0,0.89-.47,2.48-3,2.48-0.33,0-1.39-.15-2.1-0.15a0.12,0.12,0,0,1-.09-0.09c0-.18-0.42-1.79-0.42-2s0.26-.11.33-0.11c0.44,0,.55,1.84,2.3,1.84a1.55,1.55,0,0,0,1.66-1.62c0-1.92-4.09-1.29-4.09-3.89a2.56,2.56,0,0,1,2.77-2.48,14.72,14.72,0,0,1,2,.16,0.52,0.52,0,0,1,.27.51c0,0.75.2,1.22,0.2,1.46a0.17,0.17,0,0,1-.2.15,0.32,0.32,0,0,1-.36-0.26,2.15,2.15,0,0,0-1.9-1.55,1.32,1.32,0,0,0-1.46,1.37,1.39,1.39,0,0,0,.86,1.22C58.22,31.39,59.53,31.34,59.53,33.4Z" transform="translate(0 -1)"/><path class="eb68cc7c-ee96-40ec-b62b-ed96104fff50" d="M63.47,33.93c0,1,0,1.26.84,1.26,0.4,0,.44,0,0.44.24s0,0.24-.18.24-0.33,0-1.51,0c-1.71,0-2.19,0-2.46,0s-0.15-.11-0.15-0.2,0-.27.69-0.27a0.68,0.68,0,0,0,.75-0.44A18.53,18.53,0,0,0,62,32.12v-2.5a1,1,0,0,0-1.08-1.09,0.17,0.17,0,0,1-.16-0.22,0.23,0.23,0,0,1,.15-0.26,8.14,8.14,0,0,0,2.55-.89,0.17,0.17,0,0,1,.11.2A16.52,16.52,0,0,0,63.47,30v3.94Zm-1.7-10.27a0.95,0.95,0,1,1,.95,1A1,1,0,0,1,61.77,23.66Z" transform="translate(0 -1)"/><path class="eb68cc7c-ee96-40ec-b62b-ed96104fff50" d="M67.88,32.42c0,1.93.16,2.63,1.61,2.63a3,3,0,0,0,1.24-.42,0.36,0.36,0,0,1,.2.29,2.78,2.78,0,0,1-2.43,1,2,2,0,0,1-2.1-2.26v-4.8a0.19,0.19,0,0,0-.18-0.24H65.31a0.14,0.14,0,0,1-.11-0.16,0.32,0.32,0,0,1,.11-0.26c1.7-1.28,2-2.24,2.41-2.24a0.22,0.22,0,0,1,.22.24c0,0.33-.05.64-0.05,1.68h2.81c0.13,0,.18.13,0.18,0.38a0.42,0.42,0,0,1-.49.46c-0.13,0-1-.09-2.5-0.09v3.83Z" transform="translate(0 -1)"/><path class="eb68cc7c-ee96-40ec-b62b-ed96104fff50" d="M78.9,28.82c0-.6-0.86-0.62-1.41-0.62-0.16,0-.18-0.09-0.18-0.24a0.21,0.21,0,0,1,.16-0.24c0.58,0,1.19,0,1.77,0s1.13,0,1.7,0c0.13,0,.13.16,0.13,0.24s-0.05.22-.31,0.24a1.09,1.09,0,0,0-1.15.8C79,30.52,76.44,35.81,76,36.83c-1.4,3.52-2,3.76-2.61,3.76a1,1,0,1,1,0-2.06,4,4,0,0,1,.91.31c0.33,0,1.19-1.75,1.19-2.61a8.75,8.75,0,0,0-.64-2c-1.15-3-1.5-4.54-1.88-5.56a1.58,1.58,0,0,0-1.31-.42,0.21,0.21,0,0,1-.16-0.26,0.2,0.2,0,0,1,.2-0.22c0.22,0,1.37,0,2,0s1.26,0,1.81,0a0.2,0.2,0,0,1,.22.24,0.22,0.22,0,0,1-.18.24c-0.11,0-.89,0-0.89.4,0,0.88.62,2.68,1.81,5.73A37.14,37.14,0,0,0,78.9,28.82Z" transform="translate(0 -1)"/><path class="eb68cc7c-ee96-40ec-b62b-ed96104fff50" d="M90.32,35.88a4.08,4.08,0,0,1-4.23-4.23,4.24,4.24,0,0,1,8.48,0A4,4,0,0,1,90.32,35.88Zm0-8c-1.9,0-2.5,2-2.5,3.76,0,1.55.36,3.76,2.5,3.76s2.52-2.21,2.52-3.76C92.83,29.86,92.23,27.89,90.32,27.89Z" transform="translate(0 -1)"/><path class="eb68cc7c-ee96-40ec-b62b-ed96104fff50" d="M98.72,34.11c0,0.68,0,1.08.91,1.08,0.68,0,.75,0,0.75.22s-0.07.26-.27,0.26c-0.66,0-1.24,0-2.08,0-1.46,0-1.77,0-1.93,0s-0.16-.11-0.16-0.24,0-.24.38-0.24c0.78,0,.93-0.15.93-0.93V29.17c0-.22,0-0.58-0.35-0.58h-1c-0.13,0-.22,0-0.22-0.24s0.13-.22.57-0.31c0.71-.16.89-0.2,0.95-1,0.18-2.77,1-4.3,3.16-4.87a5.47,5.47,0,0,1,1.11-.15,1,1,0,0,1,1.15.78,0.81,0.81,0,0,1-.86.89,1.63,1.63,0,0,1-1-.42,1.68,1.68,0,0,0-.8-0.42c-1,0-1.22,1.51-1.22,2.65v2.35H101c0.13,0,.18.13,0.18,0.38a0.42,0.42,0,0,1-.49.46c-0.13,0-1.53-.09-2-0.09v5.53Z" transform="translate(0 -1)"/><path class="eb68cc7c-ee96-40ec-b62b-ed96104fff50" d="M121.36,22.82a0.23,0.23,0,0,1,.22-0.2c0.09,0,1.42.07,1.84,0.07s1.86-.07,2-0.07,0.2,0.15.2,0.31a0.2,0.2,0,0,1-.22.24c-1.64,0-1.84.13-1.84,1,0,1.19.2,5,.38,10.12a0.9,0.9,0,0,0,1,.86c1,0,1,.11,1,0.24s-0.09.31-.2,0.31-0.36,0-2.9,0c-2.37,0-2.48,0-2.63,0s-0.2-.13-0.2-0.29,0-.26.88-0.26c1.2,0,1.22-.29,1.22-1,0-1.09-.27-7-0.42-10.4h0c-1.33,3.41-3,7.33-4.21,10.27-0.69,1.68-.69,1.88-0.93,1.88s-0.27-.16-0.66-1.42S112.51,25,112.44,25a75.4,75.4,0,0,0-1.51,9.21,0.79,0.79,0,0,0,.91.86,1.73,1.73,0,0,1,1,.15c0,0.35,0,.4-0.2.4s-0.33,0-2.21,0c-1.66,0-1.79,0-1.9,0s-0.2,0-.2-0.31,0.09-.24,1-0.24c0.64,0,.77-0.24,1-1.28,0.49-2.63.93-5.27,1.5-7.9a8,8,0,0,0,.24-1.71,1.92,1.92,0,0,0-.47-0.91,6.19,6.19,0,0,0-1.57-.15c-0.22,0-.22-0.15-0.22-0.27s0-.27.2-0.27c0.35,0,1.92.07,2.12,0.07,0.47,0,1.24-.07,1.48-0.07s0.25,0.2.44,0.86c0.38,1.37,3,8.76,3.36,9.43C118.68,29.68,120.06,26.34,121.36,22.82Z" transform="translate(0 -1)"/><path class="eb68cc7c-ee96-40ec-b62b-ed96104fff50" d="M129.47,33.93c0,1,0,1.26.84,1.26,0.4,0,.44,0,0.44.24s0,0.24-.18.24-0.33,0-1.51,0c-1.72,0-2.19,0-2.46,0s-0.15-.11-0.15-0.2,0-.27.69-0.27a0.68,0.68,0,0,0,.75-0.44,18.35,18.35,0,0,0,.11-2.63v-2.5a1,1,0,0,0-1.08-1.09,0.17,0.17,0,0,1-.16-0.22,0.23,0.23,0,0,1,.15-0.26,8.14,8.14,0,0,0,2.55-.89c0.07,0,.11.09,0.11,0.2a16.55,16.55,0,0,0-.09,2.63v3.94Zm-1.7-10.27a0.95,0.95,0,1,1,.95,1A1,1,0,0,1,127.78,23.66Z" transform="translate(0 -1)"/><path class="eb68cc7c-ee96-40ec-b62b-ed96104fff50" d="M137.35,33.4c0,0.89-.47,2.48-3,2.48-0.33,0-1.39-.15-2.1-0.15a0.12,0.12,0,0,1-.09-0.09c0-.18-0.42-1.79-0.42-2s0.26-.11.33-0.11c0.44,0,.55,1.84,2.3,1.84a1.55,1.55,0,0,0,1.66-1.62c0-1.92-4.09-1.29-4.09-3.89a2.56,2.56,0,0,1,2.77-2.48,14.69,14.69,0,0,1,2,.16,0.52,0.52,0,0,1,.27.51c0,0.75.2,1.22,0.2,1.46a0.17,0.17,0,0,1-.2.15,0.32,0.32,0,0,1-.36-0.26,2.15,2.15,0,0,0-1.9-1.55,1.32,1.32,0,0,0-1.46,1.37,1.39,1.39,0,0,0,.86,1.22C136,31.39,137.35,31.34,137.35,33.4Z" transform="translate(0 -1)"/><path class="eb68cc7c-ee96-40ec-b62b-ed96104fff50" d="M144.1,33.4c0,0.89-.47,2.48-3,2.48-0.33,0-1.39-.15-2.1-0.15a0.12,0.12,0,0,1-.09-0.09c0-.18-0.42-1.79-0.42-2s0.25-.11.33-0.11c0.44,0,.55,1.84,2.3,1.84a1.55,1.55,0,0,0,1.66-1.62c0-1.92-4.09-1.29-4.09-3.89a2.56,2.56,0,0,1,2.77-2.48,14.68,14.68,0,0,1,2,.16,0.52,0.52,0,0,1,.27.51c0,0.75.2,1.22,0.2,1.46a0.17,0.17,0,0,1-.2.15,0.32,0.32,0,0,1-.36-0.26,2.15,2.15,0,0,0-1.9-1.55A1.32,1.32,0,0,0,140,29.26a1.39,1.39,0,0,0,.86,1.22C142.79,31.39,144.1,31.34,144.1,33.4Z" transform="translate(0 -1)"/><path class="eb68cc7c-ee96-40ec-b62b-ed96104fff50" d="M149.66,35.88a4.08,4.08,0,0,1-4.23-4.23,4.24,4.24,0,0,1,8.48,0A4,4,0,0,1,149.66,35.88Zm0-8c-1.9,0-2.5,2-2.5,3.76,0,1.55.36,3.76,2.5,3.76s2.52-2.21,2.52-3.76C152.18,29.86,151.58,27.89,149.66,27.89Z" transform="translate(0 -1)"/><path class="eb68cc7c-ee96-40ec-b62b-ed96104fff50" d="M156.19,30c0-1.61-.18-1.71-1.13-1.71-0.15,0-.4,0-0.4-0.18s0-.36.2-0.36,0.47,0.05,1.08.05,1.33-.05,1.59-0.05,0.15,0,.15.25v4.93c0,1.37.44,2.15,1.79,2.15,0.66,0,1.81-.4,1.81-1V29.35c0-1-.18-1.09-1.13-1.09-0.33,0-.58,0-0.58-0.18s0-.36.13-0.36,0.47,0.05,1.59.05c0.46,0,.93-0.05,1.39-0.05a0.22,0.22,0,0,1,.26.25c0,0.07-.16,1.48-0.16,2.77v3.43c0,0.29,0,.68.46,0.68,0.25,0,.66-0.07.78-0.07s0.11,0,.11.35c0,0.11,0,.15-0.6.24a16.75,16.75,0,0,0-2.1.47,0.24,0.24,0,0,1-.22-0.26c0-.22,0-0.51.05-0.69a5.06,5.06,0,0,1-2.72,1c-1.81,0-2.32-1.17-2.32-3.06V30Z" transform="translate(0 -1)"/><path class="eb68cc7c-ee96-40ec-b62b-ed96104fff50" d="M166.15,29.62a1,1,0,0,0-1.08-1.09,0.17,0.17,0,0,1-.16-0.22,0.22,0.22,0,0,1,.15-0.26,8.15,8.15,0,0,0,2.55-.89,0.21,0.21,0,0,1,.07.18c0,0.22-.09.67-0.09,1.66a4.08,4.08,0,0,1,2.55-1.59,1,1,0,0,1,1.17,1,0.9,0.9,0,0,1-.89.91c-0.75,0-.86-0.69-1.4-0.69a2,2,0,0,0-1.26.78,0.77,0.77,0,0,0-.13.53v4.14c0,0.68,0,1.08.91,1.08,0.68,0,.75,0,0.75.22s-0.07.26-.27,0.26c-0.66,0-1.24,0-2.08,0-1.46,0-1.77,0-2.12,0-0.13,0-.17-0.11-0.17-0.24s0.22-.24.57-0.24c0.78,0,.93-0.15.93-0.93V29.62Z" transform="translate(0 -1)"/><path class="eb68cc7c-ee96-40ec-b62b-ed96104fff50" d="M174.72,33.93c0,1,0,1.26.84,1.26,0.4,0,.44,0,0.44.24s0,0.24-.18.24-0.33,0-1.51,0c-1.72,0-2.19,0-2.46,0s-0.15-.11-0.15-0.2,0-.27.69-0.27a0.68,0.68,0,0,0,.75-0.44,18.51,18.51,0,0,0,.11-2.63v-2.5a1,1,0,0,0-1.08-1.09,0.17,0.17,0,0,1-.16-0.22,0.23,0.23,0,0,1,.15-0.26,8.16,8.16,0,0,0,2.55-.89c0.07,0,.11.09,0.11,0.2a16.55,16.55,0,0,0-.09,2.63v3.94ZM173,23.66a0.95,0.95,0,1,1,.95,1A1,1,0,0,1,173,23.66Z" transform="translate(0 -1)"/><path class="6dd0dfcb-9f2d-4a13-b059-329e6bd0cf1e" d="M4,50.26C4,52.71,5,54.84,8,54.84c2.13,0,4-1.19,4-5.53V45.7c0-2.53-.53-2.53-2.41-2.53-0.15,0-.15-0.11-0.15-0.27s0.05-.27.15-0.27c0.31,0,1.5.07,2.68,0.07,0.57,0,2.12-.07,2.37-0.07s0.26,0,.26.31a0.2,0.2,0,0,1-.16.24c-1.75,0-2.12,0-2.12,2.15v4.32c0,4.93-3.14,6.24-5.25,6.24-4.09,0-5.24-2.74-5.24-4.74V47c0-1.29,0-1.73,0-2.57,0-1.08-.33-1.22-1.91-1.22C0,43.17,0,43,0,42.86a0.2,0.2,0,0,1,.16-0.24c0.15,0,1.73.07,2.88,0.07s2.75-.07,2.9-0.07a0.2,0.2,0,0,1,.16.24c0,0.16,0,.31-0.2.31-1.59,0-1.9.15-1.92,1.22C4,45.23,4,45.67,4,47v3.3Z" transform="translate(0 -1)"/><path class="6dd0dfcb-9f2d-4a13-b059-329e6bd0cf1e" d="M18,53.93c0,1,0,1.26.84,1.26,0.49,0,.53,0,0.53.24s0,0.24-.18.24-0.33,0-1.61,0c-1.71,0-2.19,0-2.46,0S15,55.55,15,55.46s0-.27.69-0.27a0.68,0.68,0,0,0,.75-0.44,18.39,18.39,0,0,0,.11-2.63v-2.5a1,1,0,0,0-1.08-1.09,0.17,0.17,0,0,1-.16-0.22,0.23,0.23,0,0,1,.15-0.26A8.14,8.14,0,0,0,18,47.16s0.06,0.06.06,0.2,0,0.51,0,1.31a5.54,5.54,0,0,1,2.86-1.26c0.62,0,2.41.13,2.41,2.74v4.38c0,0.31.06,0.66,1.19,0.66,0.18,0,.18.11,0.18,0.24s0,0.24-.26.24c-0.55,0-.88,0-1.84,0-1.48,0-1.77,0-1.92,0s-0.13-.13-0.13-0.22a0.23,0.23,0,0,1,.26-0.26c0.88,0,1-.07,1-0.67V51.25c0-1.7-.15-2.83-2-2.83a2.71,2.71,0,0,0-1.75.84v4.67Z" transform="translate(0 -1)"/><path class="6dd0dfcb-9f2d-4a13-b059-329e6bd0cf1e" d="M28.25,53.93c0,1,0,1.26.84,1.26,0.4,0,.44,0,0.44.24s0,0.24-.18.24-0.33,0-1.51,0c-1.71,0-2.19,0-2.46,0s-0.15-.11-0.15-0.2,0-.27.69-0.27a0.68,0.68,0,0,0,.75-0.44,18.41,18.41,0,0,0,.11-2.63v-2.5a1,1,0,0,0-1.08-1.09,0.17,0.17,0,0,1-.16-0.22,0.23,0.23,0,0,1,.15-0.26,8.14,8.14,0,0,0,2.55-.89c0.07,0,.11.09,0.11,0.2A16.48,16.48,0,0,0,28.25,50v3.94Zm-1.7-10.27a0.95,0.95,0,1,1,.95,1A1,1,0,0,1,26.56,43.66Z" transform="translate(0 -1)"/><path class="6dd0dfcb-9f2d-4a13-b059-329e6bd0cf1e" d="M36.62,48.73c0-.53-0.95-0.53-1.22-0.53a0.21,0.21,0,0,1-.16-0.26,0.23,0.23,0,0,1,.24-0.22c0.49,0,1.06,0,1.57,0s1.08,0,1.61,0a0.19,0.19,0,0,1,.16.22,0.17,0.17,0,0,1-.18.2c-1.06.16-1.11,0.24-1.7,1.66s-1.73,3.87-2.06,4.63c-0.51,1.22-.67,1.44-0.82,1.44s-0.33-.38-0.69-1.17c-0.64-1.37-2.15-5.82-2.41-6.18a0.63,0.63,0,0,0-.64-0.29c-0.49,0-.57-0.06-0.57-0.31a0.19,0.19,0,0,1,.2-0.2c0.58,0,1.15,0,1.73,0l2.17,0C34,47.73,34,47.89,34,48a0.22,0.22,0,0,1-.18.22c-0.55,0-1.06.06-1.06,0.44a33.67,33.67,0,0,0,1.86,5.09C36.33,49.92,36.62,49.22,36.62,48.73Z" transform="translate(0 -1)"/><path class="6dd0dfcb-9f2d-4a13-b059-329e6bd0cf1e" d="M40.18,50.7a6.61,6.61,0,0,0-.07,1,3.07,3.07,0,0,0,3,3,2.38,2.38,0,0,0,2.13-1.09,0.66,0.66,0,0,1,.27-0.31,0.38,0.38,0,0,1,.29.22,3.33,3.33,0,0,1-3.14,2.32c-2.61,0-4-1.61-4-4.16s1.77-4.38,3.65-4.38A3.05,3.05,0,0,1,45.6,50.5c0,0.18-.07.2-0.22,0.2h-5.2Zm3.14-.55a0.52,0.52,0,0,0,.62-0.6,1.54,1.54,0,0,0-1.61-1.73c-1.31,0-1.86,1.09-2,2.34h3Z" transform="translate(0 -1)"/><path class="6dd0dfcb-9f2d-4a13-b059-329e6bd0cf1e" d="M48.15,49.62a1,1,0,0,0-1.08-1.09,0.17,0.17,0,0,1-.16-0.22,0.23,0.23,0,0,1,.15-0.26,8.13,8.13,0,0,0,2.55-.89,0.21,0.21,0,0,1,.07.18c0,0.22-.09.67-0.09,1.66a4.08,4.08,0,0,1,2.55-1.59,1,1,0,0,1,1.17,1,0.9,0.9,0,0,1-.89.91c-0.75,0-.86-0.69-1.4-0.69a2,2,0,0,0-1.26.78,0.77,0.77,0,0,0-.13.53v4.14c0,0.68,0,1.08.91,1.08,0.68,0,.75,0,0.75.22s-0.07.26-.27,0.26c-0.66,0-1.24,0-2.08,0-1.46,0-1.77,0-2.12,0-0.13,0-.16-0.11-0.16-0.24s0.22-.24.57-0.24c0.78,0,.93-0.15.93-0.93V49.62Z" transform="translate(0 -1)"/><path class="6dd0dfcb-9f2d-4a13-b059-329e6bd0cf1e" d="M59.53,53.4c0,0.89-.47,2.48-3,2.48-0.33,0-1.39-.15-2.1-0.15a0.12,0.12,0,0,1-.09-0.09c0-.18-0.42-1.79-0.42-2s0.26-.11.33-0.11c0.44,0,.55,1.84,2.3,1.84a1.55,1.55,0,0,0,1.66-1.62c0-1.92-4.09-1.29-4.09-3.89a2.56,2.56,0,0,1,2.77-2.48,14.72,14.72,0,0,1,2,.16,0.52,0.52,0,0,1,.27.51c0,0.75.2,1.22,0.2,1.46a0.17,0.17,0,0,1-.2.15,0.32,0.32,0,0,1-.36-0.26,2.15,2.15,0,0,0-1.9-1.55,1.32,1.32,0,0,0-1.46,1.37,1.39,1.39,0,0,0,.86,1.22C58.22,51.39,59.53,51.34,59.53,53.4Z" transform="translate(0 -1)"/><path class="6dd0dfcb-9f2d-4a13-b059-329e6bd0cf1e" d="M63.47,53.93c0,1,0,1.26.84,1.26,0.4,0,.44,0,0.44.24s0,0.24-.18.24-0.33,0-1.51,0c-1.71,0-2.19,0-2.46,0s-0.15-.11-0.15-0.2,0-.27.69-0.27a0.68,0.68,0,0,0,.75-0.44A18.53,18.53,0,0,0,62,52.12v-2.5a1,1,0,0,0-1.08-1.09,0.17,0.17,0,0,1-.16-0.22,0.23,0.23,0,0,1,.15-0.26,8.14,8.14,0,0,0,2.55-.89,0.17,0.17,0,0,1,.11.2A16.52,16.52,0,0,0,63.47,50v3.94Zm-1.7-10.27a0.95,0.95,0,1,1,.95,1A1,1,0,0,1,61.77,43.66Z" transform="translate(0 -1)"/><path class="6dd0dfcb-9f2d-4a13-b059-329e6bd0cf1e" d="M67.88,52.42c0,1.93.16,2.63,1.61,2.63a3,3,0,0,0,1.24-.42,0.36,0.36,0,0,1,.2.29,2.78,2.78,0,0,1-2.43,1,2,2,0,0,1-2.1-2.26v-4.8a0.19,0.19,0,0,0-.18-0.24H65.31a0.14,0.14,0,0,1-.11-0.16,0.32,0.32,0,0,1,.11-0.26c1.7-1.28,2-2.24,2.41-2.24a0.22,0.22,0,0,1,.22.24c0,0.33-.05.64-0.05,1.68h2.81c0.13,0,.18.13,0.18,0.38a0.42,0.42,0,0,1-.49.46c-0.13,0-1-.09-2.5-0.09v3.83Z" transform="translate(0 -1)"/><path class="6dd0dfcb-9f2d-4a13-b059-329e6bd0cf1e" d="M78.9,48.82c0-.6-0.86-0.62-1.41-0.62-0.16,0-.18-0.09-0.18-0.24a0.21,0.21,0,0,1,.16-0.24c0.58,0,1.19,0,1.77,0s1.13,0,1.7,0c0.13,0,.13.16,0.13,0.24s-0.05.22-.31,0.24a1.09,1.09,0,0,0-1.15.8C79,50.52,76.44,55.81,76,56.83c-1.4,3.52-2,3.76-2.61,3.76a1,1,0,1,1,0-2.06,4,4,0,0,1,.91.31c0.33,0,1.19-1.75,1.19-2.61a8.75,8.75,0,0,0-.64-2c-1.15-3-1.5-4.54-1.88-5.56a1.58,1.58,0,0,0-1.31-.42,0.21,0.21,0,0,1-.16-0.26,0.2,0.2,0,0,1,.2-0.22c0.22,0,1.37,0,2,0s1.26,0,1.81,0a0.2,0.2,0,0,1,.22.24,0.22,0.22,0,0,1-.18.24c-0.11,0-.89,0-0.89.4,0,0.88.62,2.68,1.81,5.73A37.14,37.14,0,0,0,78.9,48.82Z" transform="translate(0 -1)"/><path class="6dd0dfcb-9f2d-4a13-b059-329e6bd0cf1e" d="M90.32,55.88a4.08,4.08,0,0,1-4.23-4.23,4.24,4.24,0,0,1,8.48,0A4,4,0,0,1,90.32,55.88Zm0-8c-1.9,0-2.5,2-2.5,3.76,0,1.55.36,3.76,2.5,3.76s2.52-2.21,2.52-3.76C92.83,49.86,92.23,47.89,90.32,47.89Z" transform="translate(0 -1)"/><path class="6dd0dfcb-9f2d-4a13-b059-329e6bd0cf1e" d="M98.72,54.11c0,0.68,0,1.08.91,1.08,0.68,0,.75,0,0.75.22s-0.07.26-.27,0.26c-0.66,0-1.24,0-2.08,0-1.46,0-1.77,0-1.93,0s-0.16-.11-0.16-0.24,0-.24.38-0.24c0.78,0,.93-0.15.93-0.93V49.17c0-.22,0-0.58-0.35-0.58h-1c-0.13,0-.22,0-0.22-0.24s0.13-.22.57-0.31c0.71-.16.89-0.2,0.95-1,0.18-2.77,1-4.3,3.16-4.87a5.47,5.47,0,0,1,1.11-.15,1,1,0,0,1,1.15.78,0.81,0.81,0,0,1-.86.89,1.63,1.63,0,0,1-1-.42,1.68,1.68,0,0,0-.8-0.42c-1,0-1.22,1.51-1.22,2.65v2.35H101c0.13,0,.18.13,0.18,0.38a0.42,0.42,0,0,1-.49.46c-0.13,0-1.53-.09-2-0.09v5.53Z" transform="translate(0 -1)"/><path class="6dd0dfcb-9f2d-4a13-b059-329e6bd0cf1e" d="M121.36,42.82a0.23,0.23,0,0,1,.22-0.2c0.09,0,1.42.07,1.84,0.07s1.86-.07,2-0.07,0.2,0.15.2,0.31a0.2,0.2,0,0,1-.22.24c-1.64,0-1.84.13-1.84,1,0,1.19.2,5,.38,10.12a0.9,0.9,0,0,0,1,.86c1,0,1,.11,1,0.24s-0.09.31-.2,0.31-0.36,0-2.9,0c-2.37,0-2.48,0-2.63,0s-0.2-.13-0.2-0.29,0-.26.88-0.26c1.2,0,1.22-.29,1.22-1,0-1.09-.27-7-0.42-10.4h0c-1.33,3.41-3,7.33-4.21,10.27-0.69,1.68-.69,1.88-0.93,1.88s-0.27-.16-0.66-1.42S112.51,45,112.44,45a75.4,75.4,0,0,0-1.51,9.21,0.79,0.79,0,0,0,.91.86,1.73,1.73,0,0,1,1,.15c0,0.35,0,.4-0.2.4s-0.33,0-2.21,0c-1.66,0-1.79,0-1.9,0s-0.2,0-.2-0.31,0.09-.24,1-0.24c0.64,0,.77-0.24,1-1.28,0.49-2.63.93-5.27,1.5-7.9a8,8,0,0,0,.24-1.71,1.92,1.92,0,0,0-.47-0.91,6.19,6.19,0,0,0-1.57-.15c-0.22,0-.22-0.15-0.22-0.27s0-.27.2-0.27c0.35,0,1.92.07,2.12,0.07,0.47,0,1.24-.07,1.48-0.07s0.25,0.2.44,0.86c0.38,1.37,3,8.76,3.36,9.43C118.68,49.68,120.06,46.34,121.36,42.82Z" transform="translate(0 -1)"/><path class="6dd0dfcb-9f2d-4a13-b059-329e6bd0cf1e" d="M129.47,53.93c0,1,0,1.26.84,1.26,0.4,0,.44,0,0.44.24s0,0.24-.18.24-0.33,0-1.51,0c-1.72,0-2.19,0-2.46,0s-0.15-.11-0.15-0.2,0-.27.69-0.27a0.68,0.68,0,0,0,.75-0.44,18.35,18.35,0,0,0,.11-2.63v-2.5a1,1,0,0,0-1.08-1.09,0.17,0.17,0,0,1-.16-0.22,0.23,0.23,0,0,1,.15-0.26,8.14,8.14,0,0,0,2.55-.89c0.07,0,.11.09,0.11,0.2a16.55,16.55,0,0,0-.09,2.63v3.94Zm-1.7-10.27a0.95,0.95,0,1,1,.95,1A1,1,0,0,1,127.78,43.66Z" transform="translate(0 -1)"/><path class="6dd0dfcb-9f2d-4a13-b059-329e6bd0cf1e" d="M137.35,53.4c0,0.89-.47,2.48-3,2.48-0.33,0-1.39-.15-2.1-0.15a0.12,0.12,0,0,1-.09-0.09c0-.18-0.42-1.79-0.42-2s0.26-.11.33-0.11c0.44,0,.55,1.84,2.3,1.84a1.55,1.55,0,0,0,1.66-1.62c0-1.92-4.09-1.29-4.09-3.89a2.56,2.56,0,0,1,2.77-2.48,14.69,14.69,0,0,1,2,.16,0.52,0.52,0,0,1,.27.51c0,0.75.2,1.22,0.2,1.46a0.17,0.17,0,0,1-.2.15,0.32,0.32,0,0,1-.36-0.26,2.15,2.15,0,0,0-1.9-1.55,1.32,1.32,0,0,0-1.46,1.37,1.39,1.39,0,0,0,.86,1.22C136,51.39,137.35,51.34,137.35,53.4Z" transform="translate(0 -1)"/><path class="6dd0dfcb-9f2d-4a13-b059-329e6bd0cf1e" d="M144.1,53.4c0,0.89-.47,2.48-3,2.48-0.33,0-1.39-.15-2.1-0.15a0.12,0.12,0,0,1-.09-0.09c0-.18-0.42-1.79-0.42-2s0.25-.11.33-0.11c0.44,0,.55,1.84,2.3,1.84a1.55,1.55,0,0,0,1.66-1.62c0-1.92-4.09-1.29-4.09-3.89a2.56,2.56,0,0,1,2.77-2.48,14.68,14.68,0,0,1,2,.16,0.52,0.52,0,0,1,.27.51c0,0.75.2,1.22,0.2,1.46a0.17,0.17,0,0,1-.2.15,0.32,0.32,0,0,1-.36-0.26,2.15,2.15,0,0,0-1.9-1.55A1.32,1.32,0,0,0,140,49.26a1.39,1.39,0,0,0,.86,1.22C142.79,51.39,144.1,51.34,144.1,53.4Z" transform="translate(0 -1)"/><path class="6dd0dfcb-9f2d-4a13-b059-329e6bd0cf1e" d="M149.66,55.88a4.08,4.08,0,0,1-4.23-4.23,4.24,4.24,0,0,1,8.48,0A4,4,0,0,1,149.66,55.88Zm0-8c-1.9,0-2.5,2-2.5,3.76,0,1.55.36,3.76,2.5,3.76s2.52-2.21,2.52-3.76C152.18,49.86,151.58,47.89,149.66,47.89Z" transform="translate(0 -1)"/><path class="6dd0dfcb-9f2d-4a13-b059-329e6bd0cf1e" d="M156.19,50c0-1.61-.18-1.71-1.13-1.71-0.15,0-.4,0-0.4-0.18s0-.36.2-0.36,0.47,0.05,1.08.05,1.33-.05,1.59-0.05,0.15,0,.15.25v4.93c0,1.37.44,2.15,1.79,2.15,0.66,0,1.81-.4,1.81-1V49.35c0-1-.18-1.09-1.13-1.09-0.33,0-.58,0-0.58-0.18s0-.36.13-0.36,0.47,0.05,1.59.05c0.46,0,.93-0.05,1.39-0.05a0.22,0.22,0,0,1,.26.25c0,0.07-.16,1.48-0.16,2.77v3.43c0,0.29,0,.68.46,0.68,0.25,0,.66-0.07.78-0.07s0.11,0,.11.35c0,0.11,0,.15-0.6.24a16.75,16.75,0,0,0-2.1.47,0.24,0.24,0,0,1-.22-0.26c0-.22,0-0.51.05-0.69a5.06,5.06,0,0,1-2.72,1c-1.81,0-2.32-1.17-2.32-3.06V50Z" transform="translate(0 -1)"/><path class="6dd0dfcb-9f2d-4a13-b059-329e6bd0cf1e" d="M166.15,49.62a1,1,0,0,0-1.08-1.09,0.17,0.17,0,0,1-.16-0.22,0.22,0.22,0,0,1,.15-0.26,8.15,8.15,0,0,0,2.55-.89,0.21,0.21,0,0,1,.07.18c0,0.22-.09.67-0.09,1.66a4.08,4.08,0,0,1,2.55-1.59,1,1,0,0,1,1.17,1,0.9,0.9,0,0,1-.89.91c-0.75,0-.86-0.69-1.4-0.69a2,2,0,0,0-1.26.78,0.77,0.77,0,0,0-.13.53v4.14c0,0.68,0,1.08.91,1.08,0.68,0,.75,0,0.75.22s-0.07.26-.27,0.26c-0.66,0-1.24,0-2.08,0-1.46,0-1.77,0-2.12,0-0.13,0-.17-0.11-0.17-0.24s0.22-.24.57-0.24c0.78,0,.93-0.15.93-0.93V49.62Z" transform="translate(0 -1)"/><path class="6dd0dfcb-9f2d-4a13-b059-329e6bd0cf1e" d="M174.72,53.93c0,1,0,1.26.84,1.26,0.4,0,.44,0,0.44.24s0,0.24-.18.24-0.33,0-1.51,0c-1.72,0-2.19,0-2.46,0s-0.15-.11-0.15-0.2,0-.27.69-0.27a0.68,0.68,0,0,0,.75-0.44,18.51,18.51,0,0,0,.11-2.63v-2.5a1,1,0,0,0-1.08-1.09,0.17,0.17,0,0,1-.16-0.22,0.23,0.23,0,0,1,.15-0.26,8.16,8.16,0,0,0,2.55-.89c0.07,0,.11.09,0.11,0.2a16.55,16.55,0,0,0-.09,2.63v3.94ZM173,43.66a0.95,0.95,0,1,1,.95,1A1,1,0,0,1,173,43.66Z" transform="translate(0 -1)"/><path class="847059d1-1174-4888-9ac5-37214c18ca34" d="M4,71.26C4,73.71,5,75.84,8,75.84c2.13,0,4-1.19,4-5.53V66.7c0-2.53-.53-2.53-2.41-2.53-0.15,0-.15-0.11-0.15-0.27s0.05-.27.15-0.27c0.31,0,1.5.07,2.68,0.07,0.57,0,2.12-.07,2.37-0.07s0.26,0,.26.31a0.2,0.2,0,0,1-.16.24c-1.75,0-2.12,0-2.12,2.15v4.32c0,4.93-3.14,6.24-5.25,6.24-4.09,0-5.24-2.74-5.24-4.74V68c0-1.29,0-1.73,0-2.57,0-1.08-.33-1.22-1.91-1.22C0,64.17,0,64,0,63.86a0.2,0.2,0,0,1,.16-0.24c0.15,0,1.73.07,2.88,0.07s2.75-.07,2.9-0.07a0.2,0.2,0,0,1,.16.24c0,0.16,0,.31-0.2.31-1.59,0-1.9.15-1.92,1.22C4,66.23,4,66.67,4,68v3.3Z" transform="translate(0 -1)"/><path class="847059d1-1174-4888-9ac5-37214c18ca34" d="M18,74.93c0,1,0,1.26.84,1.26,0.49,0,.53,0,0.53.24s0,0.24-.18.24-0.33,0-1.61,0c-1.71,0-2.19,0-2.46,0S15,76.55,15,76.46s0-.27.69-0.27a0.68,0.68,0,0,0,.75-0.44,18.39,18.39,0,0,0,.11-2.63v-2.5a1,1,0,0,0-1.08-1.09,0.17,0.17,0,0,1-.16-0.22,0.23,0.23,0,0,1,.15-0.26A8.14,8.14,0,0,0,18,68.16s0.06,0.06.06,0.2,0,0.51,0,1.31a5.54,5.54,0,0,1,2.86-1.26c0.62,0,2.41.13,2.41,2.74v4.38c0,0.31.06,0.66,1.19,0.66,0.18,0,.18.11,0.18,0.24s0,0.24-.26.24c-0.55,0-.88,0-1.84,0-1.48,0-1.77,0-1.92,0s-0.13-.13-0.13-0.22a0.23,0.23,0,0,1,.26-0.26c0.88,0,1-.07,1-0.67V72.25c0-1.7-.15-2.83-2-2.83a2.71,2.71,0,0,0-1.75.84v4.67Z" transform="translate(0 -1)"/><path class="847059d1-1174-4888-9ac5-37214c18ca34" d="M28.25,74.93c0,1,0,1.26.84,1.26,0.4,0,.44,0,0.44.24s0,0.24-.18.24-0.33,0-1.51,0c-1.71,0-2.19,0-2.46,0s-0.15-.11-0.15-0.2,0-.27.69-0.27a0.68,0.68,0,0,0,.75-0.44,18.41,18.41,0,0,0,.11-2.63v-2.5a1,1,0,0,0-1.08-1.09,0.17,0.17,0,0,1-.16-0.22,0.23,0.23,0,0,1,.15-0.26,8.14,8.14,0,0,0,2.55-.89c0.07,0,.11.09,0.11,0.2A16.48,16.48,0,0,0,28.25,71v3.94Zm-1.7-10.27a0.95,0.95,0,1,1,.95,1A1,1,0,0,1,26.56,64.66Z" transform="translate(0 -1)"/><path class="847059d1-1174-4888-9ac5-37214c18ca34" d="M36.62,69.73c0-.53-0.95-0.53-1.22-0.53a0.21,0.21,0,0,1-.16-0.26,0.23,0.23,0,0,1,.24-0.22c0.49,0,1.06,0,1.57,0s1.08,0,1.61,0a0.19,0.19,0,0,1,.16.22,0.17,0.17,0,0,1-.18.2c-1.06.16-1.11,0.24-1.7,1.66s-1.73,3.87-2.06,4.63c-0.51,1.22-.67,1.44-0.82,1.44s-0.33-.38-0.69-1.17c-0.64-1.37-2.15-5.82-2.41-6.18a0.63,0.63,0,0,0-.64-0.29c-0.49,0-.57-0.06-0.57-0.31a0.19,0.19,0,0,1,.2-0.2c0.58,0,1.15,0,1.73,0l2.17,0C34,68.73,34,68.89,34,69a0.22,0.22,0,0,1-.18.22c-0.55,0-1.06.06-1.06,0.44a33.67,33.67,0,0,0,1.86,5.09C36.33,70.92,36.62,70.22,36.62,69.73Z" transform="translate(0 -1)"/><path class="847059d1-1174-4888-9ac5-37214c18ca34" d="M40.18,71.7a6.61,6.61,0,0,0-.07,1,3.07,3.07,0,0,0,3,3,2.38,2.38,0,0,0,2.13-1.09,0.66,0.66,0,0,1,.27-0.31,0.38,0.38,0,0,1,.29.22,3.33,3.33,0,0,1-3.14,2.32c-2.61,0-4-1.61-4-4.16s1.77-4.38,3.65-4.38A3.05,3.05,0,0,1,45.6,71.5c0,0.18-.07.2-0.22,0.2h-5.2Zm3.14-.55a0.52,0.52,0,0,0,.62-0.6,1.54,1.54,0,0,0-1.61-1.73c-1.31,0-1.86,1.09-2,2.34h3Z" transform="translate(0 -1)"/><path class="847059d1-1174-4888-9ac5-37214c18ca34" d="M48.15,70.62a1,1,0,0,0-1.08-1.09,0.17,0.17,0,0,1-.16-0.22,0.23,0.23,0,0,1,.15-0.26,8.13,8.13,0,0,0,2.55-.89,0.21,0.21,0,0,1,.07.18c0,0.22-.09.67-0.09,1.66a4.08,4.08,0,0,1,2.55-1.59,1,1,0,0,1,1.17,1,0.9,0.9,0,0,1-.89.91c-0.75,0-.86-0.69-1.4-0.69a2,2,0,0,0-1.26.78,0.77,0.77,0,0,0-.13.53v4.14c0,0.68,0,1.08.91,1.08,0.68,0,.75,0,0.75.22s-0.07.26-.27,0.26c-0.66,0-1.24,0-2.08,0-1.46,0-1.77,0-2.12,0-0.13,0-.16-0.11-0.16-0.24s0.22-.24.57-0.24c0.78,0,.93-0.15.93-0.93V70.62Z" transform="translate(0 -1)"/><path class="847059d1-1174-4888-9ac5-37214c18ca34" d="M59.53,74.4c0,0.89-.47,2.48-3,2.48-0.33,0-1.39-.15-2.1-0.15a0.12,0.12,0,0,1-.09-0.09c0-.18-0.42-1.79-0.42-2s0.26-.11.33-0.11c0.44,0,.55,1.84,2.3,1.84a1.55,1.55,0,0,0,1.66-1.62c0-1.92-4.09-1.29-4.09-3.89a2.56,2.56,0,0,1,2.77-2.48,14.72,14.72,0,0,1,2,.16,0.52,0.52,0,0,1,.27.51c0,0.75.2,1.22,0.2,1.46a0.17,0.17,0,0,1-.2.15,0.32,0.32,0,0,1-.36-0.26,2.15,2.15,0,0,0-1.9-1.55,1.32,1.32,0,0,0-1.46,1.37,1.39,1.39,0,0,0,.86,1.22C58.22,72.39,59.53,72.34,59.53,74.4Z" transform="translate(0 -1)"/><path class="847059d1-1174-4888-9ac5-37214c18ca34" d="M63.47,74.93c0,1,0,1.26.84,1.26,0.4,0,.44,0,0.44.24s0,0.24-.18.24-0.33,0-1.51,0c-1.71,0-2.19,0-2.46,0s-0.15-.11-0.15-0.2,0-.27.69-0.27a0.68,0.68,0,0,0,.75-0.44A18.53,18.53,0,0,0,62,73.12v-2.5a1,1,0,0,0-1.08-1.09,0.17,0.17,0,0,1-.16-0.22,0.23,0.23,0,0,1,.15-0.26,8.14,8.14,0,0,0,2.55-.89,0.17,0.17,0,0,1,.11.2A16.52,16.52,0,0,0,63.47,71v3.94Zm-1.7-10.27a0.95,0.95,0,1,1,.95,1A1,1,0,0,1,61.77,64.66Z" transform="translate(0 -1)"/><path class="847059d1-1174-4888-9ac5-37214c18ca34" d="M67.88,73.42c0,1.93.16,2.63,1.61,2.63a3,3,0,0,0,1.24-.42,0.36,0.36,0,0,1,.2.29,2.78,2.78,0,0,1-2.43,1,2,2,0,0,1-2.1-2.26v-4.8a0.19,0.19,0,0,0-.18-0.24H65.31a0.14,0.14,0,0,1-.11-0.16,0.32,0.32,0,0,1,.11-0.26c1.7-1.28,2-2.24,2.41-2.24a0.22,0.22,0,0,1,.22.24c0,0.33-.05.64-0.05,1.68h2.81c0.13,0,.18.13,0.18,0.38a0.42,0.42,0,0,1-.49.46c-0.13,0-1-.09-2.5-0.09v3.83Z" transform="translate(0 -1)"/><path class="847059d1-1174-4888-9ac5-37214c18ca34" d="M78.9,69.82c0-.6-0.86-0.62-1.41-0.62-0.16,0-.18-0.09-0.18-0.24a0.21,0.21,0,0,1,.16-0.24c0.58,0,1.19,0,1.77,0s1.13,0,1.7,0c0.13,0,.13.16,0.13,0.24s-0.05.22-.31,0.24a1.09,1.09,0,0,0-1.15.8C79,71.52,76.44,76.81,76,77.83c-1.4,3.52-2,3.76-2.61,3.76a1,1,0,1,1,0-2.06,4,4,0,0,1,.91.31c0.33,0,1.19-1.75,1.19-2.61a8.75,8.75,0,0,0-.64-2c-1.15-3-1.5-4.54-1.88-5.56a1.58,1.58,0,0,0-1.31-.42,0.21,0.21,0,0,1-.16-0.26,0.2,0.2,0,0,1,.2-0.22c0.22,0,1.37,0,2,0s1.26,0,1.81,0a0.2,0.2,0,0,1,.22.24,0.22,0.22,0,0,1-.18.24c-0.11,0-.89,0-0.89.4,0,0.88.62,2.68,1.81,5.73A37.14,37.14,0,0,0,78.9,69.82Z" transform="translate(0 -1)"/><path class="847059d1-1174-4888-9ac5-37214c18ca34" d="M90.32,76.88a4.08,4.08,0,0,1-4.23-4.23,4.24,4.24,0,0,1,8.48,0A4,4,0,0,1,90.32,76.88Zm0-8c-1.9,0-2.5,2-2.5,3.76,0,1.55.36,3.76,2.5,3.76s2.52-2.21,2.52-3.76C92.83,70.86,92.23,68.89,90.32,68.89Z" transform="translate(0 -1)"/><path class="847059d1-1174-4888-9ac5-37214c18ca34" d="M98.72,75.11c0,0.68,0,1.08.91,1.08,0.68,0,.75,0,0.75.22s-0.07.26-.27,0.26c-0.66,0-1.24,0-2.08,0-1.46,0-1.77,0-1.93,0s-0.16-.11-0.16-0.24,0-.24.38-0.24c0.78,0,.93-0.15.93-0.93V70.17c0-.22,0-0.58-0.35-0.58h-1c-0.13,0-.22,0-0.22-0.24s0.13-.22.57-0.31c0.71-.16.89-0.2,0.95-1,0.18-2.77,1-4.3,3.16-4.87a5.47,5.47,0,0,1,1.11-.15,1,1,0,0,1,1.15.78,0.81,0.81,0,0,1-.86.89,1.63,1.63,0,0,1-1-.42,1.68,1.68,0,0,0-.8-0.42c-1,0-1.22,1.51-1.22,2.65v2.35H101c0.13,0,.18.13,0.18,0.38a0.42,0.42,0,0,1-.49.46c-0.13,0-1.53-.09-2-0.09v5.53Z" transform="translate(0 -1)"/><path class="847059d1-1174-4888-9ac5-37214c18ca34" d="M121.36,63.82a0.23,0.23,0,0,1,.22-0.2c0.09,0,1.42.07,1.84,0.07s1.86-.07,2-0.07,0.2,0.15.2,0.31a0.2,0.2,0,0,1-.22.24c-1.64,0-1.84.13-1.84,1,0,1.19.2,5,.38,10.12a0.9,0.9,0,0,0,1,.86c1,0,1,.11,1,0.24s-0.09.31-.2,0.31-0.36,0-2.9,0c-2.37,0-2.48,0-2.63,0s-0.2-.13-0.2-0.29,0-.26.88-0.26c1.2,0,1.22-.29,1.22-1,0-1.09-.27-7-0.42-10.4h0c-1.33,3.41-3,7.33-4.21,10.27-0.69,1.68-.69,1.88-0.93,1.88s-0.27-.16-0.66-1.42S112.51,66,112.44,66a75.4,75.4,0,0,0-1.51,9.21,0.79,0.79,0,0,0,.91.86,1.73,1.73,0,0,1,1,.15c0,0.35,0,.4-0.2.4s-0.33,0-2.21,0c-1.66,0-1.79,0-1.9,0s-0.2,0-.2-0.31,0.09-.24,1-0.24c0.64,0,.77-0.24,1-1.28,0.49-2.63.93-5.27,1.5-7.9a8,8,0,0,0,.24-1.71,1.92,1.92,0,0,0-.47-0.91,6.19,6.19,0,0,0-1.57-.15c-0.22,0-.22-0.15-0.22-0.27s0-.27.2-0.27c0.35,0,1.92.07,2.12,0.07,0.47,0,1.24-.07,1.48-0.07s0.25,0.2.44,0.86c0.38,1.37,3,8.76,3.36,9.43C118.68,70.68,120.06,67.34,121.36,63.82Z" transform="translate(0 -1)"/><path class="847059d1-1174-4888-9ac5-37214c18ca34" d="M129.47,74.93c0,1,0,1.26.84,1.26,0.4,0,.44,0,0.44.24s0,0.24-.18.24-0.33,0-1.51,0c-1.72,0-2.19,0-2.46,0s-0.15-.11-0.15-0.2,0-.27.69-0.27a0.68,0.68,0,0,0,.75-0.44,18.35,18.35,0,0,0,.11-2.63v-2.5a1,1,0,0,0-1.08-1.09,0.17,0.17,0,0,1-.16-0.22,0.23,0.23,0,0,1,.15-0.26,8.14,8.14,0,0,0,2.55-.89c0.07,0,.11.09,0.11,0.2a16.55,16.55,0,0,0-.09,2.63v3.94Zm-1.7-10.27a0.95,0.95,0,1,1,.95,1A1,1,0,0,1,127.78,64.66Z" transform="translate(0 -1)"/><path class="847059d1-1174-4888-9ac5-37214c18ca34" d="M137.35,74.4c0,0.89-.47,2.48-3,2.48-0.33,0-1.39-.15-2.1-0.15a0.12,0.12,0,0,1-.09-0.09c0-.18-0.42-1.79-0.42-2s0.26-.11.33-0.11c0.44,0,.55,1.84,2.3,1.84a1.55,1.55,0,0,0,1.66-1.62c0-1.92-4.09-1.29-4.09-3.89a2.56,2.56,0,0,1,2.77-2.48,14.69,14.69,0,0,1,2,.16,0.52,0.52,0,0,1,.27.51c0,0.75.2,1.22,0.2,1.46a0.17,0.17,0,0,1-.2.15,0.32,0.32,0,0,1-.36-0.26,2.15,2.15,0,0,0-1.9-1.55,1.32,1.32,0,0,0-1.46,1.37,1.39,1.39,0,0,0,.86,1.22C136,72.39,137.35,72.34,137.35,74.4Z" transform="translate(0 -1)"/><path class="847059d1-1174-4888-9ac5-37214c18ca34" d="M144.1,74.4c0,0.89-.47,2.48-3,2.48-0.33,0-1.39-.15-2.1-0.15a0.12,0.12,0,0,1-.09-0.09c0-.18-0.42-1.79-0.42-2s0.25-.11.33-0.11c0.44,0,.55,1.84,2.3,1.84a1.55,1.55,0,0,0,1.66-1.62c0-1.92-4.09-1.29-4.09-3.89a2.56,2.56,0,0,1,2.77-2.48,14.68,14.68,0,0,1,2,.16,0.52,0.52,0,0,1,.27.51c0,0.75.2,1.22,0.2,1.46a0.17,0.17,0,0,1-.2.15,0.32,0.32,0,0,1-.36-0.26,2.15,2.15,0,0,0-1.9-1.55A1.32,1.32,0,0,0,140,70.26a1.39,1.39,0,0,0,.86,1.22C142.79,72.39,144.1,72.34,144.1,74.4Z" transform="translate(0 -1)"/><path class="847059d1-1174-4888-9ac5-37214c18ca34" d="M149.66,76.88a4.08,4.08,0,0,1-4.23-4.23,4.24,4.24,0,0,1,8.48,0A4,4,0,0,1,149.66,76.88Zm0-8c-1.9,0-2.5,2-2.5,3.76,0,1.55.36,3.76,2.5,3.76s2.52-2.21,2.52-3.76C152.18,70.86,151.58,68.89,149.66,68.89Z" transform="translate(0 -1)"/><path class="847059d1-1174-4888-9ac5-37214c18ca34" d="M156.19,71c0-1.61-.18-1.71-1.13-1.71-0.15,0-.4,0-0.4-0.18s0-.36.2-0.36,0.47,0.05,1.08.05,1.33-.05,1.59-0.05,0.15,0,.15.25v4.93c0,1.37.44,2.15,1.79,2.15,0.66,0,1.81-.4,1.81-1V70.35c0-1-.18-1.09-1.13-1.09-0.33,0-.58,0-0.58-0.18s0-.36.13-0.36,0.47,0.05,1.59.05c0.46,0,.93-0.05,1.39-0.05a0.22,0.22,0,0,1,.26.25c0,0.07-.16,1.48-0.16,2.77v3.43c0,0.29,0,.68.46,0.68,0.25,0,.66-0.07.78-0.07s0.11,0,.11.35c0,0.11,0,.15-0.6.24a16.75,16.75,0,0,0-2.1.47,0.24,0.24,0,0,1-.22-0.26c0-.22,0-0.51.05-0.69a5.06,5.06,0,0,1-2.72,1c-1.81,0-2.32-1.17-2.32-3.06V71Z" transform="translate(0 -1)"/><path class="847059d1-1174-4888-9ac5-37214c18ca34" d="M166.15,70.62a1,1,0,0,0-1.08-1.09,0.17,0.17,0,0,1-.16-0.22,0.22,0.22,0,0,1,.15-0.26,8.15,8.15,0,0,0,2.55-.89,0.21,0.21,0,0,1,.07.18c0,0.22-.09.67-0.09,1.66a4.08,4.08,0,0,1,2.55-1.59,1,1,0,0,1,1.17,1,0.9,0.9,0,0,1-.89.91c-0.75,0-.86-0.69-1.4-0.69a2,2,0,0,0-1.26.78,0.77,0.77,0,0,0-.13.53v4.14c0,0.68,0,1.08.91,1.08,0.68,0,.75,0,0.75.22s-0.07.26-.27,0.26c-0.66,0-1.24,0-2.08,0-1.46,0-1.77,0-2.12,0-0.13,0-.17-0.11-0.17-0.24s0.22-.24.57-0.24c0.78,0,.93-0.15.93-0.93V70.62Z" transform="translate(0 -1)"/><path class="847059d1-1174-4888-9ac5-37214c18ca34" d="M174.72,74.93c0,1,0,1.26.84,1.26,0.4,0,.44,0,0.44.24s0,0.24-.18.24-0.33,0-1.51,0c-1.72,0-2.19,0-2.46,0s-0.15-.11-0.15-0.2,0-.27.69-0.27a0.68,0.68,0,0,0,.75-0.44,18.51,18.51,0,0,0,.11-2.63v-2.5a1,1,0,0,0-1.08-1.09,0.17,0.17,0,0,1-.16-0.22,0.23,0.23,0,0,1,.15-0.26,8.16,8.16,0,0,0,2.55-.89c0.07,0,.11.09,0.11,0.2a16.55,16.55,0,0,0-.09,2.63v3.94ZM173,64.66a0.95,0.95,0,1,1,.95,1A1,1,0,0,1,173,64.66Z" transform="translate(0 -1)"/></svg>