<?xml version="1.0" encoding="utf-8"?>
<!-- Generator: Adobe Illustrator 18.1.1, SVG Export Plug-In . SVG Version: 6.00 Build 0)  -->
<!DOCTYPE svg PUBLIC "-//W3C//DTD SVG 1.0//EN" "http://www.w3.org/TR/2001/REC-SVG-20010904/DTD/svg10.dtd">
<svg version="1.0" id="Layer_1" xmlns="http://www.w3.org/2000/svg" xmlns:xlink="http://www.w3.org/1999/xlink" x="0px" y="0px"
	 width="478px" height="112px" viewBox="0 0 478 112" enable-background="new 0 0 478 112" xml:space="preserve">
<g>
	<path fill="#231F20" d="M11.683,24.303c0,6.598,2.758,12.357,11.029,12.357c5.76,0,10.733-3.2,10.733-14.916v-9.75
		c0-6.842-1.428-6.842-6.499-6.842c-0.394,0-0.394-0.296-0.394-0.739c0-0.591,0.148-0.739,0.394-0.739
		c0.837,0,4.038,0.197,7.236,0.197c1.528,0,5.712-0.197,6.401-0.197c0.492,0,0.689,0.098,0.689,0.837
		c0,0.197-0.048,0.641-0.443,0.641c-4.727,0-5.71,0-5.71,5.808v11.668c0,13.293-8.47,16.837-14.18,16.837
		c-11.027,0-14.129-7.384-14.129-12.8V15.393c0-3.495-0.049-4.678-0.1-6.942C6.662,5.545,5.825,5.152,1.543,5.152
		C1,5.152,1,4.758,1,4.315c0-0.296,0.098-0.641,0.443-0.641c0.395,0,4.678,0.197,7.779,0.197c3.152,0,7.434-0.197,7.829-0.197
		c0.344,0,0.443,0.344,0.443,0.641c0,0.443,0,0.837-0.541,0.837c-4.284,0-5.121,0.393-5.169,3.298c-0.05,2.263-0.1,3.447-0.1,6.942
		V24.303z"/>
	<path fill="#231F20" d="M49.634,34.199c0,2.806,0.098,3.397,2.265,3.397c1.328,0,1.428,0.05,1.428,0.641
		c0,0.294,0,0.639-0.493,0.639c-0.246,0-0.887-0.098-4.333-0.098c-4.627,0-5.906,0.098-6.646,0.098
		c-0.393,0-0.393-0.294-0.393-0.541c0-0.64,0.048-0.739,1.87-0.739c1.28,0,1.722-0.493,2.017-1.182
		c0.198-0.443,0.296-3.937,0.296-7.09v-6.745c0-1.722-0.443-2.706-2.906-2.952c-0.393-0.05-0.441-0.246-0.441-0.591
		c0-0.395,0.146-0.641,0.393-0.691c5.614-1.131,6.301-2.411,6.892-2.411c0.1,0,0.148,0.148,0.148,0.541
		c0,0.296-0.098,1.379-0.098,3.547c2.559-1.724,5.071-3.399,7.729-3.399c1.674,0,6.499,0.344,6.499,7.386v11.814
		c0,0.837,0.148,1.773,3.201,1.773c0.492,0,0.492,0.296,0.492,0.641c0,0.294,0,0.639-0.689,0.639c-1.478,0-2.363-0.098-4.973-0.098
		c-3.988,0-4.776,0.098-5.169,0.098c-0.296,0-0.344-0.344-0.344-0.591c0-0.247,0.098-0.689,0.689-0.689
		c2.363,0,2.806-0.197,2.806-1.821v-8.814c0-4.579-0.395-7.631-5.513-7.631c-1.871,0-4.531,1.674-4.727,2.265V34.199z"/>
	<path fill="#231F20" d="M77.248,34.199c0,2.806,0.098,3.397,2.265,3.397c1.082,0,1.181,0.05,1.181,0.641
		c0,0.294,0,0.639-0.492,0.639c-0.247,0-0.888-0.098-4.086-0.098c-4.628,0-5.908,0.098-6.647,0.098
		c-0.395,0-0.395-0.294-0.395-0.541c0-0.64,0.05-0.739,1.872-0.739c1.28,0,1.722-0.493,2.017-1.182
		c0.198-0.443,0.296-3.937,0.296-7.09v-6.745c0-1.722-0.442-2.706-2.906-2.952c-0.393-0.05-0.441-0.246-0.441-0.591
		c0-0.395,0.146-0.641,0.393-0.691c5.612-1.131,6.301-2.411,6.892-2.411c0.198,0,0.296,0.247,0.296,0.541
		c0,0.198-0.247,0.691-0.247,7.09V34.199z M72.67,6.48c0-1.328,1.084-2.61,2.56-2.61c1.478,0,2.561,1.281,2.561,2.61
		c0,1.33-1.084,2.609-2.561,2.609C73.754,9.09,72.67,7.81,72.67,6.48z"/>
	<path fill="#231F20" d="M99.842,20.167c0-1.428-2.559-1.428-3.298-1.428c-0.295,0-0.443-0.294-0.443-0.689
		c0-0.246,0.198-0.591,0.641-0.591c1.33,0,2.856,0.098,4.234,0.098c1.428,0,2.904-0.098,4.332-0.098
		c0.344,0,0.442,0.344,0.442,0.591c0,0.294-0.048,0.492-0.492,0.541c-2.854,0.444-3.002,0.641-4.577,4.48
		c-1.724,4.234-4.678,10.439-5.565,12.505c-1.378,3.298-1.821,3.889-2.215,3.889c-0.541,0-0.886-1.033-1.871-3.151
		c-1.722-3.691-5.808-15.705-6.499-16.689c-0.493-0.739-0.984-0.789-1.722-0.789c-1.328,0-1.526-0.148-1.526-0.835
		c0-0.344,0.246-0.543,0.543-0.543c1.575,0,3.1,0.098,4.677,0.098c0.983,0,4.872-0.098,5.858-0.098c0.345,0,0.395,0.444,0.395,0.689
		c0,0.246-0.198,0.591-0.493,0.591c-1.478,0-2.856,0.148-2.856,1.182c0,1.624,3.987,11.57,5.021,13.736
		C99.055,23.368,99.842,21.497,99.842,20.167z"/>
	<path fill="#231F20" d="M109.442,25.485c-0.148,0.935-0.197,1.87-0.197,2.806c0,3.2,2.708,8.123,8.073,8.123
		c2.265,0,4.184-0.689,5.76-2.954c0.294-0.395,0.492-0.835,0.739-0.835c0.345,0,0.787,0.441,0.787,0.589
		c0,0.148-1.969,6.253-8.467,6.253c-7.04,0-10.733-4.332-10.733-11.224c0-7.041,4.776-11.816,9.846-11.816
		c8.173,0,8.814,7.04,8.814,8.516c0,0.492-0.198,0.543-0.591,0.543H109.442z M117.909,24.008c0.984,0,1.674-0.296,1.674-1.626
		c0-3.84-2.659-4.676-4.333-4.676c-3.543,0-5.021,2.954-5.514,6.303H117.909z"/>
	<path fill="#231F20" d="M130.951,22.579c0-1.722-0.442-2.706-2.904-2.952c-0.395-0.05-0.443-0.246-0.443-0.591
		c0-0.395,0.146-0.641,0.393-0.691c5.614-1.131,6.303-2.411,6.892-2.411c0.1,0,0.198,0.295,0.198,0.493
		c0,0.591-0.246,1.821-0.246,4.48c1.624-1.822,4.282-4.284,6.891-4.284c1.724,0,3.151,0.936,3.151,2.758
		c0,1.28-0.983,2.462-2.411,2.462c-2.017,0-2.313-1.871-3.791-1.871c-0.835,0-2.165,0.737-3.397,2.117
		c-0.344,0.393-0.344,0.935-0.344,1.428V34.69c0,1.822,0,2.906,2.461,2.906c1.823,0,2.019,0.05,2.019,0.591
		c0,0.639-0.196,0.689-0.739,0.689c-1.773,0-3.347-0.098-5.612-0.098c-3.939,0-4.776,0.098-5.71,0.098
		c-0.347,0-0.444-0.294-0.444-0.639c0-0.493,0.591-0.641,1.526-0.641c2.117,0,2.511-0.395,2.511-2.512V22.579z"/>
	<path fill="#231F20" d="M161.669,32.77c0,2.411-1.28,6.695-8.025,6.695c-0.885,0-3.741-0.394-5.662-0.394
		c-0.098,0-0.246-0.146-0.246-0.247c-0.048-0.491-1.132-4.823-1.132-5.315c0-0.296,0.689-0.296,0.885-0.296
		c1.182,0,1.478,4.973,6.205,4.973c3.495,0,4.48-2.658,4.48-4.382c0-5.169-11.029-3.495-11.029-10.487
		c0-4.036,3.349-6.695,7.484-6.695c2.263,0,5.119,0.395,5.317,0.443c0.639,0.148,0.737,1.084,0.737,1.38
		c0.098,2.017,0.543,3.298,0.543,3.937c0,0.296-0.296,0.395-0.543,0.395c-0.443,0-0.737-0.05-0.983-0.689
		c-0.345-0.837-1.625-4.184-5.121-4.184c-2.313,0-3.939,1.328-3.939,3.691c0,1.722,1.232,2.756,2.315,3.299
		C158.123,27.355,161.669,27.207,161.669,32.77z"/>
	<path fill="#231F20" d="M172.3,34.199c0,2.806,0.098,3.397,2.263,3.397c1.084,0,1.183,0.05,1.183,0.641
		c0,0.294,0,0.639-0.492,0.639c-0.246,0-0.887-0.098-4.087-0.098c-4.627,0-5.906,0.098-6.646,0.098
		c-0.394,0-0.394-0.294-0.394-0.541c0-0.64,0.05-0.739,1.87-0.739c1.28,0,1.724-0.493,2.019-1.182
		c0.197-0.443,0.294-3.937,0.294-7.09v-6.745c0-1.722-0.441-2.706-2.904-2.952c-0.393-0.05-0.443-0.246-0.443-0.591
		c0-0.395,0.148-0.641,0.395-0.691c5.612-1.131,6.301-2.411,6.891-2.411c0.197,0,0.296,0.247,0.296,0.541
		c0,0.198-0.246,0.691-0.246,7.09V34.199z M167.721,6.48c0-1.328,1.082-2.61,2.56-2.61c1.476,0,2.56,1.281,2.56,2.61
		c0,1.33-1.084,2.609-2.56,2.609C168.803,9.09,167.721,7.81,167.721,6.48z"/>
	<path fill="#231F20" d="M184.209,30.113c0,5.218,0.443,7.088,4.332,7.088c1.674,0,3.152-1.132,3.347-1.132
		c0.198,0,0.542,0.493,0.542,0.789c0,0.294-2.067,2.607-6.547,2.607c-5.662,0-5.662-4.873-5.662-6.104V20.413
		c0-0.393-0.148-0.639-0.493-0.639h-2.461c-0.148,0-0.295-0.148-0.295-0.445c0-0.196,0.048-0.492,0.295-0.689
		c4.578-3.446,5.513-6.056,6.499-6.056c0.294,0,0.591,0.198,0.591,0.64c0,0.886-0.148,1.723-0.148,4.53h7.58
		c0.344,0,0.493,0.342,0.493,1.034c0,0.639-0.294,1.232-1.328,1.232c-0.344,0-2.659-0.246-6.745-0.246V30.113z"/>
	<path fill="#231F20" d="M213.944,20.413c0-1.624-2.316-1.674-3.794-1.674c-0.44,0-0.489-0.246-0.489-0.641
		c0-0.342,0.195-0.639,0.442-0.639c1.575,0,3.2,0.098,4.775,0.098c1.525,0,3.053-0.098,4.58-0.098c0.344,0,0.344,0.444,0.344,0.639
		c0,0.444-0.148,0.591-0.838,0.641c-1.675,0.148-2.363,0.443-3.102,2.167c-1.773,4.086-8.567,18.364-9.65,21.12
		c-3.792,9.502-5.416,10.141-7.039,10.141c-1.577,0-2.758-1.378-2.758-2.903c0-1.478,1.428-2.659,2.856-2.659
		c1.229,0,1.869,0.835,2.461,0.835c0.885,0,3.2-4.725,3.2-7.04c0-1.231-1.181-4.135-1.722-5.513
		c-3.102-7.975-4.038-12.259-5.074-15.015c-0.442-1.133-2.903-1.133-3.542-1.133c-0.345,0-0.445-0.344-0.445-0.689
		c0-0.393,0.246-0.591,0.543-0.591c0.59,0,3.692,0.098,5.463,0.098c1.675,0,3.399-0.098,4.875-0.098
		c0.493,0,0.592,0.296,0.592,0.639c0,0.246-0.149,0.641-0.493,0.641c-0.295,0-2.412,0-2.412,1.084c0,2.363,1.673,7.236,4.873,15.459
		C209.855,30.604,213.944,21.939,213.944,20.413z"/>
	<path fill="#231F20" d="M244.753,39.466c-6.742,0-11.421-4.873-11.421-11.422c0-6.499,4.875-11.422,11.421-11.422
		c6.597,0,11.472,4.777,11.472,11.422C256.224,34.936,251.646,39.466,244.753,39.466z M244.753,17.904
		c-5.119,0-6.742,5.316-6.742,10.14c0,4.186,0.983,10.142,6.742,10.142c5.811,0,6.793-5.956,6.793-10.142
		C251.546,23.219,249.922,17.904,244.753,17.904z"/>
	<path fill="#231F20" d="M267.443,34.69c0,1.822,0,2.906,2.463,2.906c1.822,0,2.019,0.05,2.019,0.591
		c0,0.639-0.197,0.689-0.739,0.689c-1.773,0-3.348-0.098-5.612-0.098c-3.937,0-4.775,0.098-5.217,0.098
		c-0.346,0-0.444-0.294-0.444-0.639c0-0.493,0.098-0.641,1.032-0.641c2.117,0,2.512-0.395,2.512-2.512V21.349
		c0-0.591,0-1.574-0.936-1.574h-2.707c-0.346,0-0.592,0-0.592-0.641c0-0.395,0.344-0.591,1.525-0.837
		c1.92-0.443,2.414-0.541,2.559-2.757c0.493-7.482,2.711-11.618,8.519-13.144C272.615,2.198,273.943,2,274.83,2
		c1.28,0,3.1,0.493,3.1,2.117c0,1.428-0.837,2.413-2.314,2.413c-0.444,0-1.525-0.148-2.707-1.131
		c-0.837-0.691-1.724-1.134-2.166-1.134c-2.807,0-3.301,4.086-3.301,7.14v6.351h6.106c0.346,0,0.491,0.342,0.491,1.034
		c0,0.639-0.293,1.232-1.327,1.232c-0.344,0-4.136-0.246-5.27-0.246V34.69z"/>
	<path fill="#231F20" d="M328.533,4.215c0.147-0.393,0.295-0.541,0.59-0.541c0.248,0,3.841,0.197,4.973,0.197
		c0.837,0,5.02-0.197,5.366-0.197c0.491,0,0.54,0.395,0.54,0.837c0,0.443-0.197,0.641-0.592,0.641c-4.431,0-4.971,0.344-4.971,2.609
		c0,3.199,0.541,13.537,1.034,27.322c0.049,1.674,1.429,2.315,2.709,2.315c2.756,0,2.805,0.295,2.805,0.639
		c0,0.739-0.246,0.837-0.541,0.837c-0.444,0-0.985-0.098-7.829-0.098c-6.398,0-6.695,0.098-7.088,0.098
		c-0.542,0-0.542-0.344-0.542-0.787c0-0.345,0.098-0.689,2.365-0.689c3.249,0,3.298-0.787,3.298-2.757
		c0-2.955-0.739-18.856-1.134-28.063h-0.098c-3.593,9.206-8.122,19.793-11.372,27.718c-1.869,4.528-1.869,5.071-2.51,5.071
		c-0.641,0-0.739-0.442-1.773-3.839c-1.083-3.545-9.107-25.307-9.306-25.307c-0.835,3.595-4.085,19.939-4.085,24.862
		c0,1.528,0.837,2.315,2.461,2.315c1.231,0,2.66,0.098,2.66,0.393c0,0.937,0,1.084-0.543,1.084c-0.395,0-0.887-0.098-5.956-0.098
		c-4.48,0-4.826,0.098-5.121,0.098c-0.393,0-0.541-0.05-0.541-0.837c0-0.492,0.246-0.639,2.608-0.639
		c1.722,0,2.068-0.641,2.611-3.446c1.329-7.09,2.508-14.228,4.036-21.318c0.491-2.215,0.641-3.593,0.641-4.628
		c0-0.294-0.69-2.117-1.282-2.461c-0.393-0.245-2.707-0.393-4.232-0.393c-0.592,0-0.592-0.394-0.592-0.739
		c0-0.395,0.098-0.739,0.541-0.739c0.936,0,5.17,0.197,5.712,0.197c1.28,0,3.348-0.197,3.988-0.197c0.54,0,0.688,0.541,1.181,2.313
		c1.032,3.693,8.171,23.632,9.058,25.453C321.295,22.727,325.036,13.718,328.533,4.215z"/>
	<path fill="#231F20" d="M350.433,34.199c0,2.806,0.096,3.397,2.265,3.397c1.081,0,1.181,0.05,1.181,0.641
		c0,0.294,0,0.639-0.493,0.639c-0.246,0-0.887-0.098-4.085-0.098c-4.629,0-5.909,0.098-6.648,0.098
		c-0.393,0-0.393-0.294-0.393-0.541c0-0.64,0.049-0.739,1.871-0.739c1.278,0,1.722-0.493,2.017-1.182
		c0.199-0.443,0.297-3.937,0.297-7.09v-6.745c0-1.722-0.442-2.706-2.905-2.952c-0.393-0.05-0.442-0.246-0.442-0.591
		c0-0.395,0.147-0.641,0.393-0.691c5.612-1.131,6.302-2.411,6.892-2.411c0.199,0,0.297,0.247,0.297,0.541
		c0,0.198-0.246,0.691-0.246,7.09V34.199z M345.853,6.48c0-1.328,1.085-2.61,2.561-2.61s2.561,1.281,2.561,2.61
		c0,1.33-1.085,2.609-2.561,2.609S345.853,7.81,345.853,6.48z"/>
	<path fill="#231F20" d="M371.698,32.77c0,2.411-1.28,6.695-8.026,6.695c-0.884,0-3.741-0.394-5.661-0.394
		c-0.098,0-0.246-0.146-0.246-0.247c-0.049-0.491-1.132-4.823-1.132-5.315c0-0.296,0.69-0.296,0.884-0.296
		c1.183,0,1.478,4.973,6.206,4.973c3.495,0,4.48-2.658,4.48-4.382c0-5.169-11.028-3.495-11.028-10.487
		c0-4.036,3.348-6.695,7.484-6.695c2.265,0,5.121,0.395,5.317,0.443c0.639,0.148,0.737,1.084,0.737,1.38
		c0.098,2.017,0.543,3.298,0.543,3.937c0,0.296-0.295,0.395-0.543,0.395c-0.444,0-0.737-0.05-0.985-0.689
		c-0.344-0.837-1.624-4.184-5.121-4.184c-2.314,0-3.937,1.328-3.937,3.691c0,1.722,1.231,2.756,2.314,3.299
		C368.152,27.355,371.698,27.207,371.698,32.77z"/>
	<path fill="#231F20" d="M389.91,32.77c0,2.411-1.28,6.695-8.024,6.695c-0.887,0-3.741-0.394-5.661-0.394
		c-0.098,0-0.248-0.146-0.248-0.247c-0.049-0.491-1.13-4.823-1.13-5.315c0-0.296,0.688-0.296,0.884-0.296
		c1.181,0,1.478,4.973,6.202,4.973c3.497,0,4.482-2.658,4.482-4.382c0-5.169-11.028-3.495-11.028-10.487
		c0-4.036,3.348-6.695,7.484-6.695c2.264,0,5.119,0.395,5.315,0.443c0.641,0.148,0.739,1.084,0.739,1.38
		c0.098,2.017,0.543,3.298,0.543,3.937c0,0.296-0.297,0.395-0.543,0.395c-0.442,0-0.739-0.05-0.985-0.689
		c-0.342-0.837-1.624-4.184-5.119-4.184c-2.314,0-3.939,1.328-3.939,3.691c0,1.722,1.23,2.756,2.314,3.299
		C386.366,27.355,389.91,27.207,389.91,32.77z"/>
	<path fill="#231F20" d="M404.922,39.466c-6.744,0-11.421-4.873-11.421-11.422c0-6.499,4.873-11.422,11.421-11.422
		c6.597,0,11.472,4.777,11.472,11.422C416.394,34.936,411.814,39.466,404.922,39.466z M404.922,17.904
		c-5.119,0-6.744,5.316-6.744,10.14c0,4.186,0.985,10.142,6.744,10.142c5.811,0,6.794-5.956,6.794-10.142
		C411.716,23.219,410.092,17.904,404.922,17.904z"/>
	<path fill="#231F20" d="M422.543,23.516c0-4.334-0.491-4.628-3.053-4.628c-0.393,0-1.083,0-1.083-0.493c0-0.393,0-0.983,0.54-0.983
		c0.493,0,1.282,0.146,2.907,0.146c1.722,0,3.593-0.146,4.281-0.146c0.297,0,0.395,0,0.395,0.687v13.294
		c0,3.691,1.181,5.808,4.824,5.808c1.773,0,4.875-1.082,4.875-2.608V21.842c0-2.66-0.493-2.954-3.053-2.954
		c-0.887,0-1.577,0-1.577-0.493c0-0.737,0-0.983,0.346-0.983c0.688,0,1.28,0.146,4.283,0.146c1.231,0,2.51-0.146,3.741-0.146
		c0.442,0,0.69,0.196,0.69,0.687c0,0.198-0.444,3.99-0.444,7.484v9.255c0,0.789,0,1.822,1.233,1.822
		c0.688,0,1.771-0.196,2.117-0.196c0.194,0,0.295,0,0.295,0.935c0,0.295-0.049,0.393-1.626,0.639
		c-4.185,0.691-5.366,1.28-5.661,1.28c-0.344,0-0.59-0.344-0.59-0.689c0-0.591,0.098-1.378,0.145-1.871
		c-2.461,1.823-5.463,2.708-7.334,2.708c-4.875,0-6.253-3.151-6.253-8.271V23.516z"/>
	<path fill="#231F20" d="M449.418,22.579c0-1.722-0.442-2.706-2.903-2.952c-0.395-0.05-0.442-0.246-0.442-0.591
		c0-0.395,0.145-0.641,0.393-0.691c5.61-1.131,6.302-2.411,6.892-2.411c0.098,0,0.197,0.295,0.197,0.493
		c0,0.591-0.246,1.821-0.246,4.48c1.624-1.822,4.283-4.284,6.892-4.284c1.724,0,3.151,0.936,3.151,2.758
		c0,1.28-0.985,2.462-2.412,2.462c-2.017,0-2.314-1.871-3.792-1.871c-0.835,0-2.164,0.737-3.397,2.117
		c-0.344,0.393-0.344,0.935-0.344,1.428V34.69c0,1.822,0,2.906,2.461,2.906c1.822,0,2.019,0.05,2.019,0.591
		c0,0.639-0.197,0.689-0.739,0.689c-1.771,0-3.346-0.098-5.612-0.098c-3.939,0-4.777,0.098-5.708,0.098
		c-0.348,0-0.446-0.294-0.446-0.639c0-0.493,0.592-0.641,1.527-0.641c2.117,0,2.51-0.395,2.51-2.512V22.579z"/>
	<path fill="#231F20" d="M472.554,34.199c0,2.806,0.098,3.397,2.265,3.397c1.083,0,1.181,0.05,1.181,0.641
		c0,0.294,0,0.639-0.493,0.639c-0.246,0-0.884-0.098-4.085-0.098c-4.629,0-5.909,0.098-6.648,0.098
		c-0.393,0-0.393-0.294-0.393-0.541c0-0.64,0.051-0.739,1.871-0.739c1.28,0,1.722-0.493,2.019-1.182
		c0.197-0.443,0.295-3.937,0.295-7.09v-6.745c0-1.722-0.442-2.706-2.903-2.952c-0.395-0.05-0.444-0.246-0.444-0.591
		c0-0.395,0.147-0.641,0.393-0.691c5.612-1.131,6.302-2.411,6.894-2.411c0.197,0,0.295,0.247,0.295,0.541
		c0,0.198-0.246,0.691-0.246,7.09V34.199z M467.974,6.48c0-1.328,1.085-2.61,2.561-2.61s2.559,1.281,2.559,2.61
		c0,1.33-1.083,2.609-2.559,2.609S467.974,7.81,467.974,6.48z"/>
</g>
<g>
	<path fill="#900000" d="M11.683,80.303c0,6.598,2.758,12.357,11.029,12.357c5.76,0,10.733-3.2,10.733-14.916v-9.75
		c0-6.842-1.428-6.842-6.499-6.842c-0.394,0-0.394-0.296-0.394-0.739c0-0.591,0.148-0.739,0.394-0.739
		c0.837,0,4.038,0.197,7.236,0.197c1.528,0,5.712-0.197,6.401-0.197c0.492,0,0.689,0.098,0.689,0.837
		c0,0.197-0.048,0.641-0.443,0.641c-4.727,0-5.71,0-5.71,5.808v11.668c0,13.293-8.47,16.837-14.18,16.837
		c-11.027,0-14.129-7.384-14.129-12.8V71.393c0-3.495-0.049-4.678-0.1-6.942c-0.048-2.905-0.885-3.298-5.167-3.298
		C1,61.152,1,60.758,1,60.315c0-0.296,0.098-0.641,0.443-0.641c0.395,0,4.678,0.197,7.779,0.197c3.152,0,7.434-0.197,7.829-0.197
		c0.344,0,0.443,0.344,0.443,0.641c0,0.443,0,0.837-0.541,0.837c-4.284,0-5.121,0.393-5.169,3.298c-0.05,2.263-0.1,3.447-0.1,6.942
		V80.303z"/>
	<path fill="#900000" d="M49.634,90.199c0,2.806,0.098,3.397,2.265,3.397c1.328,0,1.428,0.05,1.428,0.641
		c0,0.294,0,0.639-0.493,0.639c-0.246,0-0.887-0.098-4.333-0.098c-4.627,0-5.906,0.098-6.646,0.098
		c-0.393,0-0.393-0.294-0.393-0.541c0-0.64,0.048-0.739,1.87-0.739c1.28,0,1.722-0.493,2.017-1.182
		c0.198-0.443,0.296-3.937,0.296-7.09v-6.745c0-1.722-0.443-2.706-2.906-2.952c-0.393-0.05-0.441-0.246-0.441-0.591
		c0-0.395,0.146-0.641,0.393-0.691c5.614-1.131,6.301-2.411,6.892-2.411c0.1,0,0.148,0.148,0.148,0.541
		c0,0.296-0.098,1.379-0.098,3.547c2.559-1.724,5.071-3.399,7.729-3.399c1.674,0,6.499,0.344,6.499,7.386v11.814
		c0,0.837,0.148,1.773,3.201,1.773c0.492,0,0.492,0.296,0.492,0.641c0,0.294,0,0.639-0.689,0.639c-1.478,0-2.363-0.098-4.973-0.098
		c-3.988,0-4.776,0.098-5.169,0.098c-0.296,0-0.344-0.344-0.344-0.591c0-0.247,0.098-0.689,0.689-0.689
		c2.363,0,2.806-0.197,2.806-1.821v-8.814c0-4.579-0.395-7.631-5.513-7.631c-1.871,0-4.531,1.674-4.727,2.265V90.199z"/>
	<path fill="#900000" d="M77.248,90.199c0,2.806,0.098,3.397,2.265,3.397c1.082,0,1.181,0.05,1.181,0.641
		c0,0.294,0,0.639-0.492,0.639c-0.247,0-0.888-0.098-4.086-0.098c-4.628,0-5.908,0.098-6.647,0.098
		c-0.395,0-0.395-0.294-0.395-0.541c0-0.64,0.05-0.739,1.872-0.739c1.28,0,1.722-0.493,2.017-1.182
		c0.198-0.443,0.296-3.937,0.296-7.09v-6.745c0-1.722-0.442-2.706-2.906-2.952c-0.393-0.05-0.441-0.246-0.441-0.591
		c0-0.395,0.146-0.641,0.393-0.691c5.612-1.131,6.301-2.411,6.892-2.411c0.198,0,0.296,0.247,0.296,0.541
		c0,0.198-0.247,0.691-0.247,7.09V90.199z M72.67,62.48c0-1.328,1.084-2.61,2.56-2.61c1.478,0,2.561,1.281,2.561,2.61
		c0,1.33-1.084,2.609-2.561,2.609C73.754,65.09,72.67,63.81,72.67,62.48z"/>
	<path fill="#900000" d="M99.842,76.167c0-1.428-2.559-1.428-3.298-1.428c-0.295,0-0.443-0.294-0.443-0.689
		c0-0.246,0.198-0.591,0.641-0.591c1.33,0,2.856,0.098,4.234,0.098c1.428,0,2.904-0.098,4.332-0.098
		c0.344,0,0.442,0.344,0.442,0.591c0,0.294-0.048,0.492-0.492,0.541c-2.854,0.444-3.002,0.641-4.577,4.48
		c-1.724,4.234-4.678,10.439-5.565,12.505c-1.378,3.298-1.821,3.889-2.215,3.889c-0.541,0-0.886-1.033-1.871-3.151
		c-1.722-3.691-5.808-15.705-6.499-16.689c-0.493-0.739-0.984-0.789-1.722-0.789c-1.328,0-1.526-0.148-1.526-0.835
		c0-0.344,0.246-0.543,0.543-0.543c1.575,0,3.1,0.098,4.677,0.098c0.983,0,4.872-0.098,5.858-0.098c0.345,0,0.395,0.444,0.395,0.689
		c0,0.246-0.198,0.591-0.493,0.591c-1.478,0-2.856,0.148-2.856,1.182c0,1.624,3.987,11.57,5.021,13.736
		C99.055,79.368,99.842,77.497,99.842,76.167z"/>
	<path fill="#900000" d="M109.442,81.485c-0.148,0.935-0.197,1.87-0.197,2.806c0,3.2,2.708,8.123,8.073,8.123
		c2.265,0,4.184-0.689,5.76-2.954c0.294-0.395,0.492-0.835,0.739-0.835c0.345,0,0.787,0.441,0.787,0.589
		c0,0.148-1.969,6.253-8.467,6.253c-7.04,0-10.733-4.332-10.733-11.224c0-7.041,4.776-11.816,9.846-11.816
		c8.173,0,8.814,7.04,8.814,8.516c0,0.492-0.198,0.543-0.591,0.543H109.442z M117.909,80.008c0.984,0,1.674-0.296,1.674-1.626
		c0-3.84-2.659-4.676-4.333-4.676c-3.543,0-5.021,2.954-5.514,6.303H117.909z"/>
	<path fill="#900000" d="M130.951,78.579c0-1.722-0.442-2.706-2.904-2.952c-0.395-0.05-0.443-0.246-0.443-0.591
		c0-0.395,0.146-0.641,0.393-0.691c5.614-1.131,6.303-2.411,6.892-2.411c0.1,0,0.198,0.295,0.198,0.493
		c0,0.591-0.246,1.821-0.246,4.48c1.624-1.822,4.282-4.284,6.891-4.284c1.724,0,3.151,0.936,3.151,2.758
		c0,1.28-0.983,2.462-2.411,2.462c-2.017,0-2.313-1.871-3.791-1.871c-0.835,0-2.165,0.737-3.397,2.117
		c-0.344,0.393-0.344,0.935-0.344,1.428V90.69c0,1.822,0,2.906,2.461,2.906c1.823,0,2.019,0.05,2.019,0.591
		c0,0.639-0.196,0.689-0.739,0.689c-1.773,0-3.347-0.098-5.612-0.098c-3.939,0-4.776,0.098-5.71,0.098
		c-0.347,0-0.444-0.294-0.444-0.639c0-0.493,0.591-0.641,1.526-0.641c2.117,0,2.511-0.395,2.511-2.512V78.579z"/>
	<path fill="#900000" d="M161.669,88.77c0,2.411-1.28,6.695-8.025,6.695c-0.885,0-3.741-0.394-5.662-0.394
		c-0.098,0-0.246-0.146-0.246-0.247c-0.048-0.491-1.132-4.823-1.132-5.315c0-0.296,0.689-0.296,0.885-0.296
		c1.182,0,1.478,4.973,6.205,4.973c3.495,0,4.48-2.658,4.48-4.382c0-5.169-11.029-3.495-11.029-10.487
		c0-4.036,3.349-6.695,7.484-6.695c2.263,0,5.119,0.395,5.317,0.443c0.639,0.148,0.737,1.084,0.737,1.38
		c0.098,2.017,0.543,3.298,0.543,3.937c0,0.296-0.296,0.395-0.543,0.395c-0.443,0-0.737-0.05-0.983-0.689
		c-0.345-0.837-1.625-4.184-5.121-4.184c-2.313,0-3.939,1.328-3.939,3.691c0,1.722,1.232,2.756,2.315,3.299
		C158.123,83.355,161.669,83.207,161.669,88.77z"/>
	<path fill="#900000" d="M172.3,90.199c0,2.806,0.098,3.397,2.263,3.397c1.084,0,1.183,0.05,1.183,0.641
		c0,0.294,0,0.639-0.492,0.639c-0.246,0-0.887-0.098-4.087-0.098c-4.627,0-5.906,0.098-6.646,0.098
		c-0.394,0-0.394-0.294-0.394-0.541c0-0.64,0.05-0.739,1.87-0.739c1.28,0,1.724-0.493,2.019-1.182
		c0.197-0.443,0.294-3.937,0.294-7.09v-6.745c0-1.722-0.441-2.706-2.904-2.952c-0.393-0.05-0.443-0.246-0.443-0.591
		c0-0.395,0.148-0.641,0.395-0.691c5.612-1.131,6.301-2.411,6.891-2.411c0.197,0,0.296,0.247,0.296,0.541
		c0,0.198-0.246,0.691-0.246,7.09V90.199z M167.721,62.48c0-1.328,1.082-2.61,2.56-2.61c1.476,0,2.56,1.281,2.56,2.61
		c0,1.33-1.084,2.609-2.56,2.609C168.803,65.09,167.721,63.81,167.721,62.48z"/>
	<path fill="#900000" d="M184.209,86.113c0,5.218,0.443,7.088,4.332,7.088c1.674,0,3.152-1.132,3.347-1.132
		c0.198,0,0.542,0.493,0.542,0.789c0,0.294-2.067,2.607-6.547,2.607c-5.662,0-5.662-4.873-5.662-6.104V76.413
		c0-0.393-0.148-0.639-0.493-0.639h-2.461c-0.148,0-0.295-0.148-0.295-0.445c0-0.196,0.048-0.492,0.295-0.689
		c4.578-3.446,5.513-6.056,6.499-6.056c0.294,0,0.591,0.198,0.591,0.64c0,0.886-0.148,1.723-0.148,4.53h7.58
		c0.344,0,0.493,0.342,0.493,1.034c0,0.639-0.294,1.232-1.328,1.232c-0.344,0-2.659-0.246-6.745-0.246V86.113z"/>
	<path fill="#900000" d="M213.944,76.413c0-1.624-2.316-1.674-3.794-1.674c-0.44,0-0.489-0.246-0.489-0.641
		c0-0.342,0.195-0.639,0.442-0.639c1.575,0,3.2,0.098,4.775,0.098c1.525,0,3.053-0.098,4.58-0.098c0.344,0,0.344,0.444,0.344,0.639
		c0,0.444-0.148,0.591-0.838,0.641c-1.675,0.148-2.363,0.443-3.102,2.167c-1.773,4.086-8.567,18.364-9.65,21.12
		c-3.792,9.502-5.416,10.141-7.039,10.141c-1.577,0-2.758-1.378-2.758-2.903c0-1.478,1.428-2.659,2.856-2.659
		c1.229,0,1.869,0.835,2.461,0.835c0.885,0,3.2-4.725,3.2-7.04c0-1.231-1.181-4.135-1.722-5.513
		c-3.102-7.975-4.038-12.259-5.074-15.015c-0.442-1.133-2.903-1.133-3.542-1.133c-0.345,0-0.445-0.344-0.445-0.689
		c0-0.393,0.246-0.591,0.543-0.591c0.59,0,3.692,0.098,5.463,0.098c1.675,0,3.399-0.098,4.875-0.098
		c0.493,0,0.592,0.296,0.592,0.639c0,0.246-0.149,0.641-0.493,0.641c-0.295,0-2.412,0-2.412,1.084c0,2.363,1.673,7.236,4.873,15.459
		C209.855,86.604,213.944,77.939,213.944,76.413z"/>
	<path fill="#900000" d="M244.753,95.466c-6.742,0-11.421-4.873-11.421-11.422c0-6.499,4.875-11.422,11.421-11.422
		c6.597,0,11.472,4.777,11.472,11.422C256.224,90.936,251.646,95.466,244.753,95.466z M244.753,73.904
		c-5.119,0-6.742,5.316-6.742,10.14c0,4.186,0.983,10.142,6.742,10.142c5.811,0,6.793-5.956,6.793-10.142
		C251.546,79.219,249.922,73.904,244.753,73.904z"/>
	<path fill="#900000" d="M267.443,90.69c0,1.822,0,2.906,2.463,2.906c1.822,0,2.019,0.05,2.019,0.591
		c0,0.639-0.197,0.689-0.739,0.689c-1.773,0-3.348-0.098-5.612-0.098c-3.937,0-4.775,0.098-5.217,0.098
		c-0.346,0-0.444-0.294-0.444-0.639c0-0.493,0.098-0.641,1.032-0.641c2.117,0,2.512-0.395,2.512-2.512V77.349
		c0-0.591,0-1.574-0.936-1.574h-2.707c-0.346,0-0.592,0-0.592-0.641c0-0.395,0.344-0.591,1.525-0.837
		c1.92-0.443,2.414-0.541,2.559-2.757c0.493-7.482,2.711-11.618,8.519-13.144c0.788-0.197,2.117-0.395,3.004-0.395
		c1.28,0,3.1,0.493,3.1,2.117c0,1.428-0.837,2.413-2.314,2.413c-0.444,0-1.525-0.148-2.707-1.131
		c-0.837-0.691-1.724-1.134-2.166-1.134c-2.807,0-3.301,4.086-3.301,7.14v6.351h6.106c0.346,0,0.491,0.342,0.491,1.034
		c0,0.639-0.293,1.232-1.327,1.232c-0.344,0-4.136-0.246-5.27-0.246V90.69z"/>
	<path fill="#900000" d="M328.533,60.215c0.147-0.393,0.295-0.541,0.59-0.541c0.248,0,3.841,0.197,4.973,0.197
		c0.837,0,5.02-0.197,5.366-0.197c0.491,0,0.54,0.395,0.54,0.837c0,0.443-0.197,0.641-0.592,0.641c-4.431,0-4.971,0.344-4.971,2.609
		c0,3.199,0.541,13.537,1.034,27.322c0.049,1.674,1.429,2.315,2.709,2.315c2.756,0,2.805,0.295,2.805,0.639
		c0,0.739-0.246,0.837-0.541,0.837c-0.444,0-0.985-0.098-7.829-0.098c-6.398,0-6.695,0.098-7.088,0.098
		c-0.542,0-0.542-0.344-0.542-0.787c0-0.345,0.098-0.689,2.365-0.689c3.249,0,3.298-0.787,3.298-2.757
		c0-2.955-0.739-18.856-1.134-28.063h-0.098c-3.593,9.206-8.122,19.793-11.372,27.718c-1.869,4.528-1.869,5.071-2.51,5.071
		c-0.641,0-0.739-0.442-1.773-3.839c-1.083-3.545-9.107-25.307-9.306-25.307c-0.835,3.595-4.085,19.939-4.085,24.862
		c0,1.528,0.837,2.315,2.461,2.315c1.231,0,2.66,0.098,2.66,0.393c0,0.937,0,1.084-0.543,1.084c-0.395,0-0.887-0.098-5.956-0.098
		c-4.48,0-4.826,0.098-5.121,0.098c-0.393,0-0.541-0.05-0.541-0.837c0-0.492,0.246-0.639,2.608-0.639
		c1.722,0,2.068-0.641,2.611-3.446c1.329-7.09,2.508-14.228,4.036-21.318c0.491-2.215,0.641-3.593,0.641-4.628
		c0-0.294-0.69-2.117-1.282-2.461c-0.393-0.245-2.707-0.393-4.232-0.393c-0.592,0-0.592-0.394-0.592-0.739
		c0-0.395,0.098-0.739,0.541-0.739c0.936,0,5.17,0.197,5.712,0.197c1.28,0,3.348-0.197,3.988-0.197c0.54,0,0.688,0.541,1.181,2.313
		c1.032,3.693,8.171,23.632,9.058,25.453C321.295,78.727,325.036,69.718,328.533,60.215z"/>
	<path fill="#900000" d="M350.433,90.199c0,2.806,0.096,3.397,2.265,3.397c1.081,0,1.181,0.05,1.181,0.641
		c0,0.294,0,0.639-0.493,0.639c-0.246,0-0.887-0.098-4.085-0.098c-4.629,0-5.909,0.098-6.648,0.098
		c-0.393,0-0.393-0.294-0.393-0.541c0-0.64,0.049-0.739,1.871-0.739c1.278,0,1.722-0.493,2.017-1.182
		c0.199-0.443,0.297-3.937,0.297-7.09v-6.745c0-1.722-0.442-2.706-2.905-2.952c-0.393-0.05-0.442-0.246-0.442-0.591
		c0-0.395,0.147-0.641,0.393-0.691c5.612-1.131,6.302-2.411,6.892-2.411c0.199,0,0.297,0.247,0.297,0.541
		c0,0.198-0.246,0.691-0.246,7.09V90.199z M345.853,62.48c0-1.328,1.085-2.61,2.561-2.61s2.561,1.281,2.561,2.61
		c0,1.33-1.085,2.609-2.561,2.609S345.853,63.81,345.853,62.48z"/>
	<path fill="#900000" d="M371.698,88.77c0,2.411-1.28,6.695-8.026,6.695c-0.884,0-3.741-0.394-5.661-0.394
		c-0.098,0-0.246-0.146-0.246-0.247c-0.049-0.491-1.132-4.823-1.132-5.315c0-0.296,0.69-0.296,0.884-0.296
		c1.183,0,1.478,4.973,6.206,4.973c3.495,0,4.48-2.658,4.48-4.382c0-5.169-11.028-3.495-11.028-10.487
		c0-4.036,3.348-6.695,7.484-6.695c2.265,0,5.121,0.395,5.317,0.443c0.639,0.148,0.737,1.084,0.737,1.38
		c0.098,2.017,0.543,3.298,0.543,3.937c0,0.296-0.295,0.395-0.543,0.395c-0.444,0-0.737-0.05-0.985-0.689
		c-0.344-0.837-1.624-4.184-5.121-4.184c-2.314,0-3.937,1.328-3.937,3.691c0,1.722,1.231,2.756,2.314,3.299
		C368.152,83.355,371.698,83.207,371.698,88.77z"/>
	<path fill="#900000" d="M389.91,88.77c0,2.411-1.28,6.695-8.024,6.695c-0.887,0-3.741-0.394-5.661-0.394
		c-0.098,0-0.248-0.146-0.248-0.247c-0.049-0.491-1.13-4.823-1.13-5.315c0-0.296,0.688-0.296,0.884-0.296
		c1.181,0,1.478,4.973,6.202,4.973c3.497,0,4.482-2.658,4.482-4.382c0-5.169-11.028-3.495-11.028-10.487
		c0-4.036,3.348-6.695,7.484-6.695c2.264,0,5.119,0.395,5.315,0.443c0.641,0.148,0.739,1.084,0.739,1.38
		c0.098,2.017,0.543,3.298,0.543,3.937c0,0.296-0.297,0.395-0.543,0.395c-0.442,0-0.739-0.05-0.985-0.689
		c-0.342-0.837-1.624-4.184-5.119-4.184c-2.314,0-3.939,1.328-3.939,3.691c0,1.722,1.23,2.756,2.314,3.299
		C386.366,83.355,389.91,83.207,389.91,88.77z"/>
	<path fill="#900000" d="M404.922,95.466c-6.744,0-11.421-4.873-11.421-11.422c0-6.499,4.873-11.422,11.421-11.422
		c6.597,0,11.472,4.777,11.472,11.422C416.394,90.936,411.814,95.466,404.922,95.466z M404.922,73.904
		c-5.119,0-6.744,5.316-6.744,10.14c0,4.186,0.985,10.142,6.744,10.142c5.811,0,6.794-5.956,6.794-10.142
		C411.716,79.219,410.092,73.904,404.922,73.904z"/>
	<path fill="#900000" d="M422.543,79.516c0-4.334-0.491-4.628-3.053-4.628c-0.393,0-1.083,0-1.083-0.493c0-0.393,0-0.983,0.54-0.983
		c0.493,0,1.282,0.146,2.907,0.146c1.722,0,3.593-0.146,4.281-0.146c0.297,0,0.395,0,0.395,0.687v13.294
		c0,3.691,1.181,5.808,4.824,5.808c1.773,0,4.875-1.082,4.875-2.608V77.842c0-2.66-0.493-2.954-3.053-2.954
		c-0.887,0-1.577,0-1.577-0.493c0-0.737,0-0.983,0.346-0.983c0.688,0,1.28,0.146,4.283,0.146c1.231,0,2.51-0.146,3.741-0.146
		c0.442,0,0.69,0.196,0.69,0.687c0,0.198-0.444,3.99-0.444,7.484v9.255c0,0.789,0,1.822,1.233,1.822
		c0.688,0,1.771-0.196,2.117-0.196c0.194,0,0.295,0,0.295,0.935c0,0.295-0.049,0.393-1.626,0.639
		c-4.185,0.691-5.366,1.28-5.661,1.28c-0.344,0-0.59-0.344-0.59-0.689c0-0.591,0.098-1.378,0.145-1.871
		c-2.461,1.823-5.463,2.708-7.334,2.708c-4.875,0-6.253-3.151-6.253-8.271V79.516z"/>
	<path fill="#900000" d="M449.418,78.579c0-1.722-0.442-2.706-2.903-2.952c-0.395-0.05-0.442-0.246-0.442-0.591
		c0-0.395,0.145-0.641,0.393-0.691c5.61-1.131,6.302-2.411,6.892-2.411c0.098,0,0.197,0.295,0.197,0.493
		c0,0.591-0.246,1.821-0.246,4.48c1.624-1.822,4.283-4.284,6.892-4.284c1.724,0,3.151,0.936,3.151,2.758
		c0,1.28-0.985,2.462-2.412,2.462c-2.017,0-2.314-1.871-3.792-1.871c-0.835,0-2.164,0.737-3.397,2.117
		c-0.344,0.393-0.344,0.935-0.344,1.428V90.69c0,1.822,0,2.906,2.461,2.906c1.822,0,2.019,0.05,2.019,0.591
		c0,0.639-0.197,0.689-0.739,0.689c-1.771,0-3.346-0.098-5.612-0.098c-3.939,0-4.777,0.098-5.708,0.098
		c-0.348,0-0.446-0.294-0.446-0.639c0-0.493,0.592-0.641,1.527-0.641c2.117,0,2.51-0.395,2.51-2.512V78.579z"/>
	<path fill="#900000" d="M472.554,90.199c0,2.806,0.098,3.397,2.265,3.397c1.083,0,1.181,0.05,1.181,0.641
		c0,0.294,0,0.639-0.493,0.639c-0.246,0-0.884-0.098-4.085-0.098c-4.629,0-5.909,0.098-6.648,0.098
		c-0.393,0-0.393-0.294-0.393-0.541c0-0.64,0.051-0.739,1.871-0.739c1.28,0,1.722-0.493,2.019-1.182
		c0.197-0.443,0.295-3.937,0.295-7.09v-6.745c0-1.722-0.442-2.706-2.903-2.952c-0.395-0.05-0.444-0.246-0.444-0.591
		c0-0.395,0.147-0.641,0.393-0.691c5.612-1.131,6.302-2.411,6.894-2.411c0.197,0,0.295,0.247,0.295,0.541
		c0,0.198-0.246,0.691-0.246,7.09V90.199z M467.974,62.48c0-1.328,1.085-2.61,2.561-2.61s2.559,1.281,2.559,2.61
		c0,1.33-1.083,2.609-2.559,2.609S467.974,63.81,467.974,62.48z"/>
</g>
<g>
</g>
<g>
</g>
<g>
</g>
<g>
</g>
<g>
</g>
<g>
</g>
<g>
</g>
<g>
</g>
<g>
</g>
<g>
</g>
<g>
</g>
<g>
</g>
<g>
</g>
<g>
</g>
<g>
</g>
</svg>
