<?xml version="1.0" encoding="utf-8"?>
<!-- Generator: Adobe Illustrator 18.1.1, SVG Export Plug-In . SVG Version: 6.00 Build 0)  -->
<!DOCTYPE svg PUBLIC "-//W3C//DTD SVG 1.0//EN" "http://www.w3.org/TR/2001/REC-SVG-20010904/DTD/svg10.dtd">
<svg version="1.0" id="Layer_1" xmlns="http://www.w3.org/2000/svg" xmlns:xlink="http://www.w3.org/1999/xlink" x="0px" y="0px"
	 width="284px" height="80px" viewBox="0 0 284 80" enable-background="new 0 0 284 80" xml:space="preserve">
<g>
	<path fill="#FFFFFF" d="M15.062,29.541c-9.416,0-12.951-7.491-12.951-12.182c0-8.436,6.266-13.581,12.951-13.581
		c7.421,0,12.986,4.445,12.986,13.406C28.049,22.049,24.514,29.541,15.062,29.541z M15.062,4.688c-8.156,0-8.786,9.136-8.786,12.006
		c0,4.831,2.345,11.937,8.786,11.937c8.261,0,8.821-7.806,8.821-11.971C23.883,11.653,21.538,4.688,15.062,4.688z"/>
	<path fill="#FFFFFF" d="M36.376,26.145c0,1.295,0,2.065,1.75,2.065c1.295,0,1.436,0.035,1.436,0.42c0,0.455-0.14,0.49-0.525,0.49
		c-1.26,0-2.38-0.07-3.99-0.07c-2.8,0-3.396,0.07-3.71,0.07c-0.245,0-0.315-0.21-0.315-0.455c0-0.35,0.07-0.455,0.735-0.455
		c1.505,0,1.785-0.28,1.785-1.786v-9.766c0-0.42,0-1.12-0.665-1.12h-1.925c-0.245,0-0.42,0-0.42-0.455
		c0-0.28,0.245-0.42,1.085-0.595c1.365-0.315,1.715-0.385,1.82-1.96c0.35-5.321,1.925-8.261,6.056-9.346
		c0.56-0.14,1.505-0.28,2.135-0.28c0.91,0,2.205,0.35,2.205,1.505c0,1.015-0.595,1.715-1.645,1.715
		c-0.315,0-1.085-0.105-1.925-0.805c-0.595-0.49-1.225-0.805-1.54-0.805c-1.995,0-2.345,2.905-2.345,5.076v4.515h4.34
		c0.245,0,0.35,0.245,0.35,0.735c0,0.455-0.21,0.875-0.945,0.875c-0.245,0-2.94-0.175-3.746-0.175V26.145z"/>
	<path fill="#FFFFFF" d="M47.401,26.145c0,1.295,0,2.065,1.75,2.065c0.771,0,0.91,0.035,0.91,0.42c0,0.455-0.14,0.49-0.525,0.49
		c-0.735,0-1.855-0.07-3.465-0.07c-2.8,0-3.396,0.07-3.71,0.07c-0.245,0-0.315-0.21-0.315-0.455c0-0.35,0.07-0.455,0.735-0.455
		c1.505,0,1.785-0.28,1.785-1.786v-9.766c0-0.42,0-1.12-0.665-1.12h-1.925c-0.245,0-0.42,0-0.42-0.455
		c0-0.28,0.245-0.42,1.085-0.595c1.365-0.315,1.715-0.385,1.82-1.96c0.35-5.146,4.061-9.626,9.696-9.626
		c0.91,0,3.255,0.35,3.255,1.891c0,1.155-0.875,1.715-1.82,1.715c-2.485,0-3.01-1.995-4.235-1.995c-1.295,0-3.956,0.665-3.956,7.526
		v2.065h5.951c1.96,0,3.535-1.295,3.92-1.295c0.14,0,0.21,0.175,0.21,0.385c0,0.14-0.175,0.49-0.175,5.041v7.561
		c0,1.995,0.07,2.416,1.61,2.416c0.77,0,0.84,0.035,0.84,0.455c0,0.21,0,0.455-0.35,0.455c-0.175,0-0.63-0.07-2.905-0.07
		c-3.291,0-4.201,0.07-4.726,0.07c-0.28,0-0.28-0.21-0.28-0.385c0-0.455,0.035-0.525,1.331-0.525c0.91,0,1.225-0.35,1.435-0.84
		c0.14-0.315,0.21-2.8,0.21-5.041v-4.795c0-1.785-1.33-2.17-1.995-2.17h-5.076V26.145z"/>
	<path fill="#FFFFFF" d="M74.562,26.11c0.28-0.245,0.42-0.56,0.595-0.56c0.105,0,0.525,0.245,0.525,0.49
		c0,0.14-0.07,0.315-0.28,0.525c-1.785,2.03-3.815,2.976-6.125,2.976c-4.061,0-7.246-2.905-7.246-7.911
		c0-5.181,3.43-8.331,7.946-8.331c4.795,0,5.706,2.59,5.706,3.325c0,0.42-0.56,1.505-1.855,1.505c-1.12,0-1.26-0.35-1.645-2.275
		c-0.105-0.525-0.35-1.646-2.17-1.646c-2.206,0-4.936,1.681-4.936,7.421c0,1.575,0.595,5.951,5.95,5.951
		C72.321,27.58,73.861,26.705,74.562,26.11z"/>
	<path fill="#FFFFFF" d="M80.65,19.599c-0.105,0.665-0.14,1.33-0.14,1.996c0,2.275,1.925,5.775,5.74,5.775
		c1.61,0,2.976-0.49,4.096-2.1c0.21-0.28,0.35-0.595,0.525-0.595c0.245,0,0.56,0.315,0.56,0.42s-1.4,4.446-6.021,4.446
		c-5.006,0-7.631-3.081-7.631-7.981c0-5.005,3.396-8.401,7-8.401c5.811,0,6.266,5.005,6.266,6.056c0,0.35-0.14,0.385-0.42,0.385
		H80.65z M86.67,18.549c0.7,0,1.19-0.21,1.19-1.155c0-2.73-1.89-3.325-3.081-3.325c-2.52,0-3.57,2.1-3.92,4.48H86.67z"/>
	<path fill="#FFFFFF" d="M110.96,29.541c-4.795,0-8.121-3.465-8.121-8.121c0-4.621,3.466-8.121,8.121-8.121
		c4.69,0,8.156,3.395,8.156,8.121C119.116,26.32,115.86,29.541,110.96,29.541z M110.96,14.208c-3.641,0-4.795,3.781-4.795,7.211
		c0,2.976,0.699,7.211,4.795,7.211c4.131,0,4.831-4.235,4.831-7.211C115.791,17.989,114.636,14.208,110.96,14.208z"/>
	<path fill="#FFFFFF" d="M127.095,26.145c0,1.295,0,2.065,1.75,2.065c1.295,0,1.436,0.035,1.436,0.42c0,0.455-0.141,0.49-0.525,0.49
		c-1.26,0-2.38-0.07-3.99-0.07c-2.801,0-3.396,0.07-3.71,0.07c-0.245,0-0.315-0.21-0.315-0.455c0-0.35,0.07-0.455,0.735-0.455
		c1.505,0,1.785-0.28,1.785-1.786v-9.766c0-0.42,0-1.12-0.665-1.12h-1.926c-0.245,0-0.42,0-0.42-0.455
		c0-0.28,0.245-0.42,1.085-0.595c1.365-0.315,1.716-0.385,1.82-1.96c0.351-5.321,1.926-8.261,6.056-9.346
		c0.561-0.14,1.505-0.28,2.136-0.28c0.91,0,2.205,0.35,2.205,1.505c0,1.015-0.596,1.715-1.646,1.715
		c-0.315,0-1.085-0.105-1.925-0.805c-0.596-0.49-1.226-0.805-1.54-0.805c-1.996,0-2.346,2.905-2.346,5.076v4.515h4.341
		c0.245,0,0.35,0.245,0.35,0.735c0,0.455-0.21,0.875-0.945,0.875c-0.245,0-2.94-0.175-3.745-0.175V26.145z"/>
	<path fill="#FFFFFF" d="M145.259,12.423c0-2.485-0.035-3.325-0.07-4.936c-0.035-2.065-0.63-2.345-3.15-2.345
		c-0.385,0-0.385-0.28-0.385-0.595c0-0.21,0.069-0.455,0.314-0.455c0.28,0,2.801,0.14,5.006,0.14c0.315,0,3.15-0.14,4.971-0.14
		c8.365,0,9.241,5.496,9.241,6.931c0,5.005-3.466,7.561-8.227,7.561c-1.4,0-2.8-0.07-4.235-0.35c0,5.565,0.035,6.545,0.07,7.596
		c0.069,1.4,0.28,2.24,3.885,2.24c0.98,0,0.98,0.21,0.98,0.595c0,0.315,0,0.455-0.28,0.455c-0.245,0-1.225-0.07-6.405-0.07
		c-5.146,0-5.285,0.07-5.53,0.07c-0.28,0-0.28-0.14-0.28-0.455c0-0.385,0-0.595,0.979-0.595c2.766,0,2.976-0.595,3.011-1.541
		c0.07-1.75,0.105-4.025,0.105-5.53V12.423z M148.724,16.204c0,0.805,0.21,1.33,1.995,1.33c3.815,0,6.686-2.206,6.686-6.231
		c0-3.605-2.31-6.161-5.74-6.161c-2.66,0-2.976,0-2.94,2.906V16.204z"/>
	<path fill="#FFFFFF" d="M165.943,17.534c0-1.225-0.315-1.925-2.065-2.1c-0.28-0.035-0.315-0.175-0.315-0.42
		c0-0.28,0.105-0.455,0.28-0.49c3.99-0.805,4.48-1.715,4.9-1.715c0.07,0,0.141,0.21,0.141,0.35c0,0.42-0.176,1.295-0.176,3.185
		c1.155-1.295,3.046-3.045,4.9-3.045c1.226,0,2.24,0.665,2.24,1.96c0,0.91-0.699,1.75-1.715,1.75c-1.435,0-1.646-1.331-2.695-1.331
		c-0.595,0-1.54,0.525-2.415,1.505c-0.245,0.28-0.245,0.665-0.245,1.015v7.946c0,1.295,0,2.065,1.75,2.065
		c1.295,0,1.436,0.035,1.436,0.42c0,0.455-0.141,0.49-0.525,0.49c-1.26,0-2.38-0.07-3.99-0.07c-2.801,0-3.396,0.07-4.061,0.07
		c-0.245,0-0.315-0.21-0.315-0.455c0-0.35,0.421-0.455,1.086-0.455c1.505,0,1.785-0.28,1.785-1.786V17.534z"/>
	<path fill="#FFFFFF" d="M185.508,29.541c-4.795,0-8.121-3.465-8.121-8.121c0-4.621,3.466-8.121,8.121-8.121
		c4.69,0,8.156,3.395,8.156,8.121C193.664,26.32,190.408,29.541,185.508,29.541z M185.508,14.208c-3.641,0-4.795,3.781-4.795,7.211
		c0,2.976,0.699,7.211,4.795,7.211c4.131,0,4.831-4.235,4.831-7.211C190.339,17.989,189.184,14.208,185.508,14.208z"/>
	<path fill="#FFFFFF" d="M206.123,27.58c4.796,0,4.761,3.115,4.761,4.165c0,5.285-5.846,6.825-10.116,6.825
		c-2.275,0-4.516-0.595-4.516-3.29c0-2.17,1.61-3.745,3.045-5.145c-1.085-0.105-2.1-1.015-2.1-2.135c0-2.1,1.12-3.01,2.695-4.095
		c-2.03-1.05-2.73-2.765-2.73-4.971c0-3.29,3.045-5.74,6.195-5.74c1.436,0,3.081,0.49,4.235,1.365c1.436-0.91,2.206-1.05,2.976-1.05
		c2.24,0,2.625,1.225,2.625,1.96c0,0.525-0.595,1.225-1.33,1.225c-0.91,0-1.75-1.995-2.38-1.995c-0.595,0-0.805,0.21-1.33,0.455
		c0.665,0.7,1.33,2.485,1.33,3.396c0,3.78-2.38,6.021-6.23,6.021c-0.42,0-1.82-0.07-2.521-0.385c-0.56,0.315-1.436,1.05-1.436,2.24
		c0,1.015,0.841,1.155,1.646,1.155H206.123z M200.522,30.24c-0.21,0-2.275,1.575-2.275,3.5c0,0.49,0.141,3.221,5.041,3.221
		c3.99,0,5.846-1.226,5.846-3.956c0-2.134-1.296-2.765-3.571-2.765H200.522z M206.438,18.339c0-0.525,0-4.236-2.94-4.236
		c-3.256,0-3.291,4.166-3.291,5.391c0,2.065,0.7,4.166,3.15,4.166C206.229,23.66,206.438,19.844,206.438,18.339z"/>
	<path fill="#FFFFFF" d="M216.518,17.534c0-1.225-0.315-1.925-2.065-2.1c-0.28-0.035-0.315-0.175-0.315-0.42
		c0-0.28,0.105-0.455,0.28-0.49c3.99-0.805,4.48-1.715,4.9-1.715c0.07,0,0.141,0.21,0.141,0.35c0,0.42-0.176,1.295-0.176,3.185
		c1.155-1.295,3.046-3.045,4.9-3.045c1.226,0,2.24,0.665,2.24,1.96c0,0.91-0.699,1.75-1.715,1.75c-1.435,0-1.646-1.331-2.695-1.331
		c-0.595,0-1.54,0.525-2.415,1.505c-0.245,0.28-0.245,0.665-0.245,1.015v7.946c0,1.295,0,2.065,1.75,2.065
		c1.295,0,1.436,0.035,1.436,0.42c0,0.455-0.141,0.49-0.525,0.49c-1.26,0-2.38-0.07-3.99-0.07c-2.801,0-3.396,0.07-4.061,0.07
		c-0.245,0-0.315-0.21-0.315-0.455c0-0.35,0.421-0.455,1.086-0.455c1.505,0,1.785-0.28,1.785-1.786V17.534z"/>
	<path fill="#FFFFFF" d="M238.952,27.16c0,0.56,0.245,0.7,0.596,0.7c0.7,0,1.225-0.805,1.505-0.805c0.175,0,0.455,0.245,0.455,0.385
		c0,0.42-2.275,2.101-3.5,2.101c-1.261,0-1.541-0.805-1.926-2.03c-2.065,1.61-3.045,2.03-4.516,2.03c-2.73,0-3.36-1.996-3.36-3.116
		c0-1.785,1.051-3.255,7.911-5.811v-3.185c0-1.82-2.101-2.766-2.94-2.766c-0.805,0-2.485,1.26-2.485,1.61
		c0,0.49,0.455,0.98,0.455,1.75c0,0.385-0.314,1.331-1.715,1.331c-1.19,0-1.471-0.91-1.471-1.295c0-0.945,0.245-1.4,2.871-3.15
		c2.625-1.715,3.01-1.75,3.78-1.75c1.12,0,4.34,0.84,4.34,4.025V27.16z M236.117,21.979c0-0.175-0.105-0.35-0.245-0.35
		c-0.175,0-2.766,1.155-3.465,1.715c-0.98,0.735-1.155,1.26-1.155,2.555c0,1.085,0.455,2.17,1.645,2.17
		c1.33,0,3.221-1.225,3.221-1.855V21.979z"/>
	<path fill="#FFFFFF" d="M245.426,17.534c0-1.225-0.315-1.925-2.065-2.1c-0.28-0.035-0.315-0.175-0.315-0.42
		c0-0.28,0.105-0.455,0.28-0.49c3.99-0.805,4.48-1.715,4.9-1.715c0.07,0,0.105,0.105,0.105,0.385c0,0.21-0.07,0.98-0.07,2.345
		c0.91-0.7,4.235-2.24,6.161-2.24c1.715,0,2.939,0.84,3.815,2.275c1.89-1.12,3.255-2.275,5.355-2.275c1.189,0,4.62,0.175,4.62,4.27
		v9.311c0,0.595,0.105,1.26,2.275,1.26c0.35,0,0.35,0.21,0.35,0.455c0,0.21,0,0.455-0.489,0.455c-1.051,0-1.681-0.07-3.536-0.07
		c-2.835,0-3.396,0.07-3.675,0.07c-0.21,0-0.245-0.245-0.245-0.42c0-0.175,0.07-0.49,0.49-0.49c1.68,0,1.995-0.14,1.995-1.295
		v-9.066c0-0.455-0.28-2.871-3.57-2.871c-1.54,0-3.57,1.54-3.57,1.925v8.961c0,1.995,0.069,2.416,1.609,2.416
		c0.945,0,1.016,0.035,1.016,0.455c0,0.21,0,0.455-0.351,0.455c-0.175,0-0.63-0.07-3.675-0.07c-2.835,0-3.396,0.07-3.676,0.07
		c-0.21,0-0.245-0.245-0.245-0.42c0-0.175,0.07-0.49,0.49-0.49c1.681,0,1.995-0.14,1.995-1.365v-9.066
		c0-1.331-0.28-2.871-3.57-2.871c-1.54,0-3.57,1.54-3.57,1.925v8.961c0,1.995,0.07,2.416,1.61,2.416
		c0.945,0,1.015,0.035,1.015,0.455c0,0.21,0,0.455-0.35,0.455c-0.175,0-0.63-0.07-3.08-0.07c-3.291,0-3.851,0.07-4.376,0.07
		c-0.279,0-0.279-0.21-0.279-0.385c0-0.455,0.034-0.525,0.979-0.525c0.91,0,1.226-0.35,1.436-0.84c0.14-0.315,0.21-2.8,0.21-5.041
		V17.534z"/>
	<path fill="#FFFFFF" d="M283.051,24.78c0,1.715-0.91,4.761-5.706,4.761c-0.63,0-2.66-0.28-4.025-0.28
		c-0.069,0-0.175-0.105-0.175-0.175c-0.035-0.35-0.805-3.431-0.805-3.781c0-0.21,0.49-0.21,0.63-0.21c0.84,0,1.05,3.536,4.41,3.536
		c2.485,0,3.186-1.89,3.186-3.115c0-3.676-7.841-2.485-7.841-7.456c0-2.87,2.38-4.76,5.32-4.76c1.61,0,3.641,0.28,3.78,0.315
		c0.455,0.105,0.525,0.77,0.525,0.98c0.07,1.435,0.385,2.345,0.385,2.8c0,0.21-0.21,0.28-0.385,0.28c-0.315,0-0.525-0.035-0.7-0.49
		c-0.245-0.595-1.155-2.976-3.641-2.976c-1.645,0-2.8,0.945-2.8,2.625c0,1.225,0.875,1.96,1.646,2.345
		C280.53,20.929,283.051,20.824,283.051,24.78z"/>
</g>
<g>
	<path fill="#F1B82D" d="M15.062,69.54c-9.416,0-12.951-7.491-12.951-12.182c0-8.436,6.266-13.581,12.951-13.581
		c7.421,0,12.986,4.445,12.986,13.406C28.048,62.049,24.513,69.54,15.062,69.54z M15.062,44.688c-8.156,0-8.786,9.136-8.786,12.006
		c0,4.831,2.345,11.937,8.786,11.937c8.261,0,8.821-7.806,8.821-11.971C23.882,51.653,21.537,44.688,15.062,44.688z"/>
	<path fill="#F1B82D" d="M36.375,66.145c0,1.295,0,2.065,1.75,2.065c1.295,0,1.436,0.035,1.436,0.42c0,0.455-0.14,0.49-0.525,0.49
		c-1.26,0-2.38-0.07-3.99-0.07c-2.8,0-3.396,0.07-3.71,0.07c-0.245,0-0.315-0.21-0.315-0.455c0-0.35,0.07-0.455,0.735-0.455
		c1.505,0,1.785-0.28,1.785-1.785v-9.766c0-0.421,0-1.12-0.665-1.12H30.95c-0.245,0-0.42,0-0.42-0.455
		c0-0.28,0.245-0.421,1.085-0.596c1.365-0.314,1.715-0.385,1.82-1.96c0.35-5.32,1.925-8.261,6.056-9.346
		c0.56-0.141,1.505-0.28,2.135-0.28c0.91,0,2.205,0.35,2.205,1.505c0,1.016-0.595,1.716-1.645,1.716
		c-0.315,0-1.085-0.105-1.925-0.806c-0.595-0.49-1.225-0.805-1.54-0.805c-1.995,0-2.345,2.905-2.345,5.075v4.516h4.34
		c0.245,0,0.35,0.245,0.35,0.735c0,0.455-0.21,0.875-0.945,0.875c-0.245,0-2.94-0.175-3.746-0.175V66.145z"/>
	<path fill="#F1B82D" d="M47.4,66.145c0,1.295,0,2.065,1.75,2.065c0.771,0,0.91,0.035,0.91,0.42c0,0.455-0.14,0.49-0.525,0.49
		c-0.735,0-1.855-0.07-3.465-0.07c-2.8,0-3.396,0.07-3.71,0.07c-0.245,0-0.315-0.21-0.315-0.455c0-0.35,0.07-0.455,0.735-0.455
		c1.505,0,1.785-0.28,1.785-1.785v-9.766c0-0.421,0-1.12-0.665-1.12h-1.925c-0.245,0-0.42,0-0.42-0.455
		c0-0.28,0.245-0.421,1.085-0.596c1.365-0.314,1.715-0.385,1.82-1.96c0.35-5.146,4.061-9.626,9.696-9.626
		c0.91,0,3.255,0.35,3.255,1.891c0,1.154-0.875,1.715-1.82,1.715c-2.485,0-3.01-1.995-4.235-1.995c-1.295,0-3.956,0.665-3.956,7.525
		v2.065h5.951c1.96,0,3.535-1.295,3.92-1.295c0.14,0,0.21,0.175,0.21,0.385c0,0.14-0.175,0.49-0.175,5.041v7.561
		c0,1.995,0.07,2.415,1.61,2.415c0.77,0,0.84,0.035,0.84,0.455c0,0.21,0,0.455-0.35,0.455c-0.175,0-0.63-0.07-2.905-0.07
		c-3.291,0-4.201,0.07-4.726,0.07c-0.28,0-0.28-0.21-0.28-0.385c0-0.455,0.035-0.525,1.331-0.525c0.91,0,1.225-0.35,1.435-0.84
		c0.14-0.315,0.21-2.801,0.21-5.041v-4.795c0-1.785-1.33-2.171-1.995-2.171H47.4V66.145z"/>
	<path fill="#F1B82D" d="M74.561,66.109c0.28-0.245,0.42-0.56,0.595-0.56c0.105,0,0.525,0.245,0.525,0.49
		c0,0.14-0.07,0.314-0.28,0.524c-1.785,2.03-3.815,2.976-6.125,2.976c-4.061,0-7.246-2.905-7.246-7.911
		c0-5.181,3.43-8.33,7.946-8.33c4.795,0,5.706,2.59,5.706,3.325c0,0.42-0.56,1.505-1.855,1.505c-1.12,0-1.26-0.35-1.645-2.275
		c-0.105-0.525-0.35-1.646-2.17-1.646c-2.206,0-4.936,1.681-4.936,7.421c0,1.575,0.595,5.951,5.95,5.951
		C72.32,67.58,73.86,66.705,74.561,66.109z"/>
	<path fill="#F1B82D" d="M80.649,59.599c-0.105,0.665-0.14,1.33-0.14,1.996c0,2.274,1.925,5.775,5.74,5.775
		c1.61,0,2.976-0.49,4.096-2.101c0.21-0.28,0.35-0.595,0.525-0.595c0.245,0,0.56,0.314,0.56,0.42c0,0.104-1.4,4.445-6.021,4.445
		c-5.006,0-7.631-3.08-7.631-7.98c0-5.006,3.396-8.401,7-8.401c5.811,0,6.266,5.006,6.266,6.056c0,0.351-0.14,0.385-0.42,0.385
		H80.649z M86.669,58.549c0.7,0,1.19-0.21,1.19-1.155c0-2.73-1.89-3.325-3.081-3.325c-2.52,0-3.57,2.101-3.92,4.48H86.669z"/>
	<path fill="#F1B82D" d="M110.96,69.54c-4.795,0-8.121-3.465-8.121-8.121c0-4.62,3.466-8.12,8.121-8.12
		c4.69,0,8.156,3.395,8.156,8.12C119.116,66.319,115.86,69.54,110.96,69.54z M110.96,54.208c-3.641,0-4.795,3.781-4.795,7.211
		c0,2.976,0.699,7.211,4.795,7.211c4.131,0,4.831-4.235,4.831-7.211C115.791,57.989,114.636,54.208,110.96,54.208z"/>
	<path fill="#F1B82D" d="M127.095,66.145c0,1.295,0,2.065,1.75,2.065c1.295,0,1.436,0.035,1.436,0.42c0,0.455-0.141,0.49-0.525,0.49
		c-1.26,0-2.38-0.07-3.99-0.07c-2.801,0-3.396,0.07-3.71,0.07c-0.245,0-0.315-0.21-0.315-0.455c0-0.35,0.07-0.455,0.735-0.455
		c1.505,0,1.785-0.28,1.785-1.785v-9.766c0-0.421,0-1.12-0.665-1.12h-1.926c-0.245,0-0.42,0-0.42-0.455
		c0-0.28,0.245-0.421,1.085-0.596c1.365-0.314,1.716-0.385,1.82-1.96c0.351-5.32,1.926-8.261,6.056-9.346
		c0.561-0.141,1.505-0.28,2.136-0.28c0.91,0,2.205,0.35,2.205,1.505c0,1.016-0.596,1.716-1.646,1.716
		c-0.315,0-1.085-0.105-1.925-0.806c-0.596-0.49-1.226-0.805-1.54-0.805c-1.996,0-2.346,2.905-2.346,5.075v4.516h4.341
		c0.245,0,0.35,0.245,0.35,0.735c0,0.455-0.21,0.875-0.945,0.875c-0.245,0-2.94-0.175-3.745-0.175V66.145z"/>
	<path fill="#F1B82D" d="M145.259,52.423c0-2.484-0.035-3.325-0.07-4.936c-0.035-2.064-0.63-2.345-3.15-2.345
		c-0.385,0-0.385-0.28-0.385-0.595c0-0.21,0.069-0.455,0.314-0.455c0.28,0,2.801,0.14,5.006,0.14c0.315,0,3.15-0.14,4.971-0.14
		c8.365,0,9.241,5.495,9.241,6.931c0,5.005-3.466,7.561-8.227,7.561c-1.4,0-2.8-0.07-4.235-0.35c0,5.565,0.035,6.545,0.07,7.596
		c0.069,1.399,0.28,2.24,3.885,2.24c0.98,0,0.98,0.21,0.98,0.595c0,0.315,0,0.455-0.28,0.455c-0.245,0-1.225-0.07-6.405-0.07
		c-5.146,0-5.285,0.07-5.53,0.07c-0.28,0-0.28-0.14-0.28-0.455c0-0.385,0-0.595,0.979-0.595c2.766,0,2.976-0.596,3.011-1.541
		c0.07-1.75,0.105-4.025,0.105-5.53V52.423z M148.724,56.204c0,0.805,0.21,1.33,1.995,1.33c3.815,0,6.686-2.206,6.686-6.231
		c0-3.604-2.31-6.16-5.74-6.16c-2.66,0-2.976,0-2.94,2.905V56.204z"/>
	<path fill="#F1B82D" d="M165.943,57.534c0-1.226-0.315-1.926-2.065-2.101c-0.28-0.035-0.315-0.175-0.315-0.42
		c0-0.28,0.105-0.455,0.28-0.49c3.99-0.805,4.48-1.715,4.9-1.715c0.07,0,0.141,0.21,0.141,0.35c0,0.42-0.176,1.295-0.176,3.186
		c1.155-1.295,3.046-3.045,4.9-3.045c1.226,0,2.24,0.665,2.24,1.96c0,0.91-0.699,1.75-1.715,1.75c-1.435,0-1.646-1.33-2.695-1.33
		c-0.595,0-1.54,0.525-2.415,1.505c-0.245,0.28-0.245,0.665-0.245,1.016v7.945c0,1.295,0,2.065,1.75,2.065
		c1.295,0,1.436,0.035,1.436,0.42c0,0.455-0.141,0.49-0.525,0.49c-1.26,0-2.38-0.07-3.99-0.07c-2.801,0-3.396,0.07-4.061,0.07
		c-0.245,0-0.315-0.21-0.315-0.455c0-0.35,0.421-0.455,1.086-0.455c1.505,0,1.785-0.28,1.785-1.785V57.534z"/>
	<path fill="#F1B82D" d="M185.508,69.54c-4.795,0-8.121-3.465-8.121-8.121c0-4.62,3.466-8.12,8.121-8.12
		c4.69,0,8.156,3.395,8.156,8.12C193.664,66.319,190.408,69.54,185.508,69.54z M185.508,54.208c-3.641,0-4.795,3.781-4.795,7.211
		c0,2.976,0.699,7.211,4.795,7.211c4.131,0,4.831-4.235,4.831-7.211C190.339,57.989,189.184,54.208,185.508,54.208z"/>
	<path fill="#F1B82D" d="M206.123,67.58c4.796,0,4.761,3.115,4.761,4.165c0,5.285-5.846,6.825-10.116,6.825
		c-2.275,0-4.516-0.595-4.516-3.29c0-2.17,1.61-3.745,3.045-5.146c-1.085-0.104-2.1-1.015-2.1-2.135c0-2.101,1.12-3.011,2.695-4.096
		c-2.03-1.05-2.73-2.765-2.73-4.971c0-3.29,3.045-5.74,6.195-5.74c1.436,0,3.081,0.49,4.235,1.365c1.436-0.91,2.206-1.05,2.976-1.05
		c2.24,0,2.625,1.225,2.625,1.96c0,0.525-0.595,1.225-1.33,1.225c-0.91,0-1.75-1.995-2.38-1.995c-0.595,0-0.805,0.21-1.33,0.455
		c0.665,0.7,1.33,2.485,1.33,3.396c0,3.78-2.38,6.021-6.23,6.021c-0.42,0-1.82-0.069-2.521-0.385c-0.56,0.315-1.436,1.05-1.436,2.24
		c0,1.015,0.841,1.155,1.646,1.155H206.123z M200.522,70.24c-0.21,0-2.275,1.575-2.275,3.5c0,0.49,0.141,3.221,5.041,3.221
		c3.99,0,5.846-1.226,5.846-3.956c0-2.135-1.296-2.765-3.571-2.765H200.522z M206.438,58.339c0-0.525,0-4.235-2.94-4.235
		c-3.256,0-3.291,4.165-3.291,5.391c0,2.065,0.7,4.165,3.15,4.165C206.229,63.659,206.438,59.844,206.438,58.339z"/>
	<path fill="#F1B82D" d="M216.518,57.534c0-1.226-0.315-1.926-2.065-2.101c-0.28-0.035-0.315-0.175-0.315-0.42
		c0-0.28,0.105-0.455,0.28-0.49c3.99-0.805,4.48-1.715,4.9-1.715c0.07,0,0.141,0.21,0.141,0.35c0,0.42-0.176,1.295-0.176,3.186
		c1.155-1.295,3.046-3.045,4.9-3.045c1.226,0,2.24,0.665,2.24,1.96c0,0.91-0.699,1.75-1.715,1.75c-1.435,0-1.646-1.33-2.695-1.33
		c-0.595,0-1.54,0.525-2.415,1.505c-0.245,0.28-0.245,0.665-0.245,1.016v7.945c0,1.295,0,2.065,1.75,2.065
		c1.295,0,1.436,0.035,1.436,0.42c0,0.455-0.141,0.49-0.525,0.49c-1.26,0-2.38-0.07-3.99-0.07c-2.801,0-3.396,0.07-4.061,0.07
		c-0.245,0-0.315-0.21-0.315-0.455c0-0.35,0.421-0.455,1.086-0.455c1.505,0,1.785-0.28,1.785-1.785V57.534z"/>
	<path fill="#F1B82D" d="M238.952,67.16c0,0.56,0.245,0.7,0.596,0.7c0.7,0,1.225-0.806,1.505-0.806c0.175,0,0.455,0.245,0.455,0.385
		c0,0.421-2.275,2.101-3.5,2.101c-1.261,0-1.541-0.805-1.926-2.03c-2.065,1.61-3.045,2.03-4.516,2.03c-2.73,0-3.36-1.995-3.36-3.115
		c0-1.785,1.051-3.256,7.911-5.811v-3.186c0-1.82-2.101-2.766-2.94-2.766c-0.805,0-2.485,1.261-2.485,1.61
		c0,0.49,0.455,0.98,0.455,1.75c0,0.386-0.314,1.331-1.715,1.331c-1.19,0-1.471-0.91-1.471-1.296c0-0.944,0.245-1.399,2.871-3.15
		c2.625-1.715,3.01-1.75,3.78-1.75c1.12,0,4.34,0.84,4.34,4.025V67.16z M236.117,61.979c0-0.175-0.105-0.351-0.245-0.351
		c-0.175,0-2.766,1.155-3.465,1.716c-0.98,0.734-1.155,1.26-1.155,2.555c0,1.085,0.455,2.171,1.645,2.171
		c1.33,0,3.221-1.226,3.221-1.855V61.979z"/>
	<path fill="#F1B82D" d="M245.426,57.534c0-1.226-0.315-1.926-2.065-2.101c-0.28-0.035-0.315-0.175-0.315-0.42
		c0-0.28,0.105-0.455,0.28-0.49c3.99-0.805,4.48-1.715,4.9-1.715c0.07,0,0.105,0.104,0.105,0.385c0,0.21-0.07,0.98-0.07,2.346
		c0.91-0.7,4.235-2.24,6.161-2.24c1.715,0,2.939,0.84,3.815,2.274c1.89-1.12,3.255-2.274,5.355-2.274c1.189,0,4.62,0.175,4.62,4.27
		v9.312c0,0.595,0.105,1.26,2.275,1.26c0.35,0,0.35,0.21,0.35,0.455c0,0.21,0,0.455-0.489,0.455c-1.051,0-1.681-0.069-3.536-0.069
		c-2.835,0-3.396,0.069-3.675,0.069c-0.21,0-0.245-0.245-0.245-0.42s0.07-0.49,0.49-0.49c1.68,0,1.995-0.14,1.995-1.295v-9.065
		c0-0.455-0.28-2.871-3.57-2.871c-1.54,0-3.57,1.54-3.57,1.926v8.961c0,1.995,0.069,2.415,1.609,2.415
		c0.945,0,1.016,0.035,1.016,0.455c0,0.21,0,0.455-0.351,0.455c-0.175,0-0.63-0.07-3.675-0.07c-2.835,0-3.396,0.07-3.676,0.07
		c-0.21,0-0.245-0.245-0.245-0.42s0.07-0.49,0.49-0.49c1.681,0,1.995-0.14,1.995-1.365v-9.065c0-1.331-0.28-2.871-3.57-2.871
		c-1.54,0-3.57,1.54-3.57,1.926v8.961c0,1.995,0.07,2.415,1.61,2.415c0.945,0,1.015,0.035,1.015,0.455c0,0.21,0,0.455-0.35,0.455
		c-0.175,0-0.63-0.07-3.08-0.07c-3.291,0-3.851,0.07-4.376,0.07c-0.279,0-0.279-0.21-0.279-0.385c0-0.455,0.034-0.525,0.979-0.525
		c0.91,0,1.226-0.35,1.436-0.84c0.14-0.315,0.21-2.801,0.21-5.041V57.534z"/>
	<path fill="#F1B82D" d="M283.051,64.779c0,1.716-0.91,4.761-5.706,4.761c-0.63,0-2.66-0.28-4.025-0.28
		c-0.069,0-0.175-0.104-0.175-0.175c-0.035-0.35-0.805-3.431-0.805-3.78c0-0.21,0.49-0.21,0.63-0.21c0.84,0,1.05,3.535,4.41,3.535
		c2.485,0,3.186-1.89,3.186-3.115c0-3.676-7.841-2.485-7.841-7.456c0-2.87,2.38-4.76,5.32-4.76c1.61,0,3.641,0.279,3.78,0.314
		c0.455,0.105,0.525,0.771,0.525,0.98c0.07,1.435,0.385,2.345,0.385,2.8c0,0.21-0.21,0.28-0.385,0.28c-0.315,0-0.525-0.035-0.7-0.49
		c-0.245-0.595-1.155-2.976-3.641-2.976c-1.645,0-2.8,0.945-2.8,2.626c0,1.225,0.875,1.96,1.646,2.345
		C280.53,60.929,283.051,60.824,283.051,64.779z"/>
</g>
</svg>
