<?xml version="1.0" encoding="utf-8"?>
<!-- Generator: Adobe Illustrator 18.1.1, SVG Export Plug-In . SVG Version: 6.00 Build 0)  -->
<!DOCTYPE svg PUBLIC "-//W3C//DTD SVG 1.0//EN" "http://www.w3.org/TR/2001/REC-SVG-20010904/DTD/svg10.dtd">
<svg version="1.0" id="Layer_1" xmlns="http://www.w3.org/2000/svg" xmlns:xlink="http://www.w3.org/1999/xlink" x="0px" y="0px"
	 width="243px" height="52px" viewBox="0 0 243 52" enable-background="new 0 0 243 52" xml:space="preserve">
<g>
	<path d="M5.465,11.406c0,3.374,1.41,6.321,5.64,6.321c2.947,0,5.49-1.637,5.49-7.63V5.111c0-3.499-0.73-3.499-3.325-3.499
		c-0.201,0-0.201-0.151-0.201-0.378c0-0.303,0.075-0.378,0.201-0.378c0.429,0,2.065,0.101,3.701,0.101
		c0.781,0,2.921-0.101,3.274-0.101c0.252,0,0.352,0.049,0.352,0.427c0,0.101-0.024,0.328-0.226,0.328c-2.417,0-2.92,0-2.92,2.971
		v5.967c0,6.8-4.333,8.612-7.252,8.612c-5.64,0-7.227-3.778-7.227-6.547V6.849c0-1.787-0.026-2.392-0.051-3.549
		C2.896,1.813,2.469,1.612,0.277,1.612C0,1.612,0,1.41,0,1.183c0-0.151,0.051-0.327,0.226-0.327c0.203,0,2.394,0.101,3.979,0.101
		c1.612,0,3.803-0.101,4.004-0.101c0.177,0,0.226,0.175,0.226,0.327c0,0.226,0,0.429-0.276,0.429c-2.191,0-2.62,0.201-2.644,1.688
		C5.491,4.457,5.465,5.062,5.465,6.849V11.406z"/>
	<path d="M24.875,16.467c0,1.435,0.049,1.738,1.158,1.738c0.679,0,0.73,0.026,0.73,0.327c0,0.152,0,0.327-0.252,0.327
		c-0.126,0-0.453-0.049-2.217-0.049c-2.366,0-3.02,0.049-3.398,0.049c-0.201,0-0.201-0.15-0.201-0.275
		c0-0.329,0.024-0.378,0.957-0.378c0.654,0,0.88-0.252,1.032-0.604c0.101-0.227,0.152-2.014,0.152-3.627v-3.451
		c0-0.88-0.226-1.384-1.486-1.51c-0.201-0.026-0.226-0.126-0.226-0.301c0-0.203,0.075-0.329,0.201-0.355
		c2.872-0.579,3.223-1.233,3.526-1.233c0.051,0,0.075,0.075,0.075,0.276c0,0.151-0.049,0.706-0.049,1.815
		c1.309-0.882,2.593-1.738,3.953-1.738c0.856,0,3.323,0.175,3.323,3.778v6.042c0,0.429,0.077,0.907,1.638,0.907
		c0.252,0,0.252,0.152,0.252,0.327c0,0.152,0,0.327-0.352,0.327c-0.756,0-1.209-0.049-2.543-0.049c-2.039,0-2.443,0.049-2.644,0.049
		c-0.152,0-0.177-0.175-0.177-0.301c0-0.126,0.051-0.352,0.352-0.352c1.209,0,1.435-0.101,1.435-0.931v-4.508
		c0-2.343-0.201-3.903-2.819-3.903c-0.957,0-2.317,0.856-2.417,1.159V16.467z"/>
	<path d="M38.999,16.467c0,1.435,0.051,1.738,1.159,1.738c0.553,0,0.605,0.026,0.605,0.327c0,0.152,0,0.327-0.252,0.327
		c-0.126,0-0.454-0.049-2.09-0.049c-2.366,0-3.022,0.049-3.4,0.049c-0.201,0-0.201-0.15-0.201-0.275
		c0-0.329,0.025-0.378,0.957-0.378c0.656,0,0.882-0.252,1.031-0.604c0.102-0.227,0.152-2.014,0.152-3.627v-3.451
		c0-0.88-0.226-1.384-1.486-1.51c-0.201-0.026-0.224-0.126-0.224-0.301c0-0.203,0.075-0.329,0.201-0.355
		c2.87-0.579,3.222-1.233,3.524-1.233c0.102,0,0.152,0.126,0.152,0.276c0,0.102-0.126,0.355-0.126,3.626V16.467z M36.658,2.292
		c0-0.68,0.553-1.335,1.309-1.335s1.309,0.655,1.309,1.335c0,0.679-0.553,1.335-1.309,1.335S36.658,2.971,36.658,2.292z"/>
	<path d="M50.554,9.292c0-0.73-1.309-0.73-1.687-0.73c-0.15,0-0.226-0.151-0.226-0.352c0-0.126,0.102-0.303,0.329-0.303
		c0.679,0,1.461,0.051,2.165,0.051c0.73,0,1.484-0.051,2.215-0.051c0.177,0,0.226,0.178,0.226,0.303c0,0.15-0.024,0.252-0.252,0.276
		c-1.459,0.228-1.535,0.328-2.341,2.291c-0.882,2.166-2.392,5.339-2.847,6.396c-0.705,1.687-0.931,1.99-1.132,1.99
		c-0.277,0-0.453-0.529-0.957-1.612c-0.882-1.888-2.971-8.032-3.325-8.536c-0.252-0.378-0.502-0.404-0.88-0.404
		c-0.679,0-0.781-0.075-0.781-0.427c0-0.175,0.126-0.278,0.277-0.278c0.805,0,1.587,0.051,2.392,0.051
		c0.504,0,2.492-0.051,2.996-0.051c0.177,0,0.203,0.228,0.203,0.352c0,0.126-0.102,0.303-0.252,0.303
		c-0.756,0-1.461,0.075-1.461,0.605c0,0.83,2.039,5.917,2.567,7.026C50.153,10.928,50.554,9.971,50.554,9.292z"/>
	<path d="M55.464,12.01c-0.075,0.479-0.101,0.957-0.101,1.435c0,1.638,1.386,4.156,4.13,4.156c1.157,0,2.14-0.352,2.945-1.512
		c0.152-0.201,0.252-0.427,0.378-0.427c0.177,0,0.403,0.226,0.403,0.301c0,0.076-1.008,3.199-4.331,3.199
		c-3.601,0-5.49-2.216-5.49-5.74c0-3.602,2.443-6.043,5.036-6.043c4.181,0,4.508,3.6,4.508,4.354c0,0.252-0.101,0.278-0.301,0.278
		H55.464z M59.795,11.256c0.504,0,0.856-0.151,0.856-0.833c0-1.962-1.36-2.392-2.216-2.392c-1.811,0-2.567,1.512-2.819,3.224H59.795
		z"/>
	<path d="M66.467,10.524c0-0.88-0.226-1.384-1.486-1.51c-0.201-0.026-0.226-0.126-0.226-0.301c0-0.203,0.075-0.329,0.201-0.355
		c2.872-0.579,3.225-1.233,3.526-1.233c0.051,0,0.1,0.15,0.1,0.252c0,0.301-0.126,0.931-0.126,2.291
		c0.831-0.933,2.191-2.191,3.526-2.191c0.882,0,1.61,0.479,1.61,1.41c0,0.655-0.502,1.26-1.232,1.26
		c-1.032,0-1.183-0.957-1.939-0.957c-0.427,0-1.108,0.376-1.738,1.083c-0.175,0.201-0.175,0.479-0.175,0.73v5.715
		c0,0.931,0,1.486,1.258,1.486c0.933,0,1.034,0.026,1.034,0.301c0,0.327-0.101,0.352-0.378,0.352c-0.907,0-1.713-0.049-2.87-0.049
		c-2.016,0-2.443,0.049-2.921,0.049c-0.177,0-0.226-0.15-0.226-0.327c0-0.252,0.301-0.327,0.78-0.327
		c1.083,0,1.285-0.203,1.285-1.285V10.524z"/>
	<path d="M82.176,15.737c0,1.234-0.654,3.425-4.105,3.425c-0.453,0-1.913-0.203-2.896-0.203c-0.049,0-0.126-0.075-0.126-0.126
		c-0.024-0.25-0.579-2.467-0.579-2.719c0-0.151,0.352-0.151,0.453-0.151c0.605,0,0.756,2.543,3.173,2.543
		c1.788,0,2.292-1.358,2.292-2.24c0-2.644-5.64-1.788-5.64-5.364c0-2.064,1.713-3.424,3.827-3.424c1.157,0,2.618,0.201,2.72,0.227
		c0.327,0.075,0.376,0.553,0.376,0.705c0.051,1.032,0.277,1.687,0.277,2.014c0,0.152-0.152,0.203-0.277,0.203
		c-0.226,0-0.376-0.026-0.502-0.352c-0.177-0.429-0.831-2.14-2.62-2.14c-1.183,0-2.014,0.679-2.014,1.888
		c0,0.88,0.63,1.41,1.183,1.687C80.363,12.968,82.176,12.893,82.176,15.737z"/>
	<path d="M87.614,16.467c0,1.435,0.051,1.738,1.158,1.738c0.555,0,0.606,0.026,0.606,0.327c0,0.152,0,0.327-0.252,0.327
		c-0.126,0-0.454-0.049-2.09-0.049c-2.366,0-3.022,0.049-3.4,0.049c-0.201,0-0.201-0.15-0.201-0.275
		c0-0.329,0.026-0.378,0.957-0.378c0.654,0,0.882-0.252,1.032-0.604c0.1-0.227,0.152-2.014,0.152-3.627v-3.451
		c0-0.88-0.226-1.384-1.486-1.51c-0.201-0.026-0.226-0.126-0.226-0.301c0-0.203,0.077-0.329,0.203-0.355
		c2.87-0.579,3.223-1.233,3.524-1.233c0.101,0,0.152,0.126,0.152,0.276c0,0.102-0.126,0.355-0.126,3.626V16.467z M85.273,2.292
		c0-0.68,0.553-1.335,1.309-1.335c0.754,0,1.309,0.655,1.309,1.335c0,0.679-0.555,1.335-1.309,1.335
		C85.826,3.627,85.273,2.971,85.273,2.292z"/>
	<path d="M93.705,14.379c0,2.668,0.226,3.624,2.216,3.624c0.856,0,1.612-0.579,1.711-0.579c0.102,0,0.277,0.252,0.277,0.403
		c0,0.152-1.057,1.335-3.348,1.335c-2.896,0-2.896-2.492-2.896-3.122V9.418c0-0.201-0.075-0.327-0.252-0.327h-1.258
		c-0.077,0-0.152-0.077-0.152-0.228c0-0.101,0.026-0.252,0.152-0.352c2.341-1.762,2.819-3.097,3.323-3.097
		c0.152,0,0.303,0.1,0.303,0.327c0,0.452-0.077,0.882-0.077,2.317h3.878c0.175,0,0.252,0.175,0.252,0.529
		c0,0.327-0.152,0.63-0.679,0.63c-0.177,0-1.36-0.126-3.451-0.126V14.379z"/>
	<path d="M108.914,9.418c0-0.831-1.185-0.857-1.941-0.857c-0.225,0-0.25-0.126-0.25-0.328c0-0.175,0.1-0.327,0.226-0.327
		c0.805,0,1.636,0.051,2.441,0.051c0.782,0,1.563-0.051,2.343-0.051c0.177,0,0.177,0.228,0.177,0.327
		c0,0.228-0.077,0.303-0.429,0.328c-0.856,0.075-1.208,0.227-1.587,1.108c-0.906,2.089-4.38,9.392-4.935,10.802
		c-1.939,4.86-2.77,5.187-3.601,5.187c-0.805,0-1.41-0.705-1.41-1.486c0-0.756,0.73-1.358,1.461-1.358
		c0.628,0,0.957,0.427,1.258,0.427c0.453,0,1.638-2.417,1.638-3.6c0-0.63-0.604-2.116-0.882-2.821
		c-1.587-4.079-2.065-6.27-2.594-7.679c-0.226-0.579-1.484-0.579-1.811-0.579c-0.177,0-0.228-0.177-0.228-0.352
		c0-0.201,0.126-0.303,0.278-0.303c0.303,0,1.888,0.051,2.795,0.051c0.856,0,1.738-0.051,2.492-0.051
		c0.252,0,0.303,0.152,0.303,0.327c0,0.126-0.077,0.328-0.252,0.328c-0.151,0-1.234,0-1.234,0.553c0,1.208,0.856,3.701,2.492,7.907
		C106.823,14.629,108.914,10.198,108.914,9.418z"/>
	<path d="M124.671,19.162c-3.449,0-5.841-2.492-5.841-5.842c0-3.323,2.492-5.841,5.841-5.841c3.374,0,5.868,2.443,5.868,5.841
		C130.539,16.845,128.197,19.162,124.671,19.162z M124.671,8.134c-2.618,0-3.449,2.719-3.449,5.186c0,2.142,0.504,5.187,3.449,5.187
		c2.973,0,3.475-3.045,3.475-5.187C128.146,10.853,127.315,8.134,124.671,8.134z"/>
	<path d="M136.277,16.72c0,0.931,0,1.486,1.26,1.486c0.931,0,1.031,0.026,1.031,0.301c0,0.327-0.101,0.352-0.378,0.352
		c-0.905,0-1.711-0.049-2.87-0.049c-2.014,0-2.442,0.049-2.668,0.049c-0.177,0-0.228-0.15-0.228-0.327
		c0-0.252,0.051-0.327,0.529-0.327c1.083,0,1.284-0.203,1.284-1.285V9.896c0-0.303,0-0.805-0.479-0.805h-1.384
		c-0.177,0-0.303,0-0.303-0.329c0-0.201,0.177-0.301,0.782-0.427c0.982-0.227,1.234-0.278,1.309-1.412
		c0.252-3.827,1.386-5.941,4.356-6.723C138.922,0.101,139.601,0,140.054,0c0.656,0,1.587,0.252,1.587,1.083
		c0,0.73-0.429,1.234-1.183,1.234c-0.228,0-0.781-0.076-1.385-0.579c-0.427-0.354-0.882-0.581-1.107-0.581
		c-1.437,0-1.689,2.091-1.689,3.652v3.248h3.122c0.177,0,0.252,0.175,0.252,0.529c0,0.327-0.15,0.63-0.679,0.63
		c-0.175,0-2.114-0.126-2.695-0.126V16.72z"/>
	<path d="M167.522,1.132c0.075-0.201,0.152-0.275,0.302-0.275c0.126,0,1.965,0.101,2.543,0.101c0.429,0,2.569-0.101,2.744-0.101
		c0.252,0,0.278,0.201,0.278,0.427c0,0.226-0.1,0.328-0.303,0.328c-2.266,0-2.542,0.175-2.542,1.335
		c0,1.636,0.276,6.924,0.528,13.973c0.026,0.857,0.73,1.185,1.386,1.185c1.41,0,1.435,0.15,1.435,0.327
		c0,0.378-0.126,0.427-0.278,0.427c-0.227,0-0.504-0.049-4.004-0.049c-3.272,0-3.424,0.049-3.627,0.049
		c-0.275,0-0.275-0.175-0.275-0.402c0-0.177,0.049-0.352,1.208-0.352c1.661,0,1.687-0.403,1.687-1.411
		c0-1.51-0.378-9.644-0.581-14.353h-0.049c-1.838,4.709-4.155,10.124-5.817,14.178c-0.957,2.315-0.957,2.593-1.283,2.593
		c-0.327,0-0.378-0.227-0.907-1.963c-0.553-1.813-4.658-12.944-4.759-12.944c-0.427,1.839-2.09,10.197-2.09,12.715
		c0,0.782,0.429,1.185,1.26,1.185c0.628,0,1.36,0.049,1.36,0.201c0,0.479,0,0.553-0.278,0.553c-0.203,0-0.455-0.049-3.047-0.049
		c-2.292,0-2.467,0.049-2.619,0.049c-0.201,0-0.278-0.025-0.278-0.427c0-0.252,0.126-0.327,1.335-0.327
		c0.882,0,1.057-0.328,1.335-1.764c0.681-3.627,1.284-7.276,2.065-10.903c0.252-1.134,0.327-1.838,0.327-2.368
		c0-0.15-0.352-1.083-0.655-1.258c-0.201-0.126-1.384-0.201-2.164-0.201c-0.303,0-0.303-0.203-0.303-0.378
		c0-0.203,0.051-0.378,0.278-0.378c0.479,0,2.644,0.101,2.922,0.101c0.653,0,1.711-0.101,2.039-0.101
		c0.276,0,0.352,0.275,0.604,1.183c0.528,1.888,4.179,12.087,4.632,13.018C163.82,10.601,165.733,5.993,167.522,1.132z"/>
	<path d="M178.722,16.467c0,1.435,0.051,1.738,1.159,1.738c0.553,0,0.605,0.026,0.605,0.327c0,0.152,0,0.327-0.252,0.327
		c-0.126,0-0.455-0.049-2.09-0.049c-2.367,0-3.022,0.049-3.4,0.049c-0.201,0-0.201-0.15-0.201-0.275
		c0-0.329,0.026-0.378,0.957-0.378c0.654,0,0.882-0.252,1.032-0.604c0.102-0.227,0.151-2.014,0.151-3.627v-3.451
		c0-0.88-0.226-1.384-1.486-1.51c-0.201-0.026-0.225-0.126-0.225-0.301c0-0.203,0.075-0.329,0.201-0.355
		c2.87-0.579,3.223-1.233,3.524-1.233c0.103,0,0.152,0.126,0.152,0.276c0,0.102-0.126,0.355-0.126,3.626V16.467z M176.382,2.292
		c0-0.68,0.553-1.335,1.309-1.335c0.756,0,1.309,0.655,1.309,1.335c0,0.679-0.553,1.335-1.309,1.335
		C176.934,3.627,176.382,2.971,176.382,2.292z"/>
	<path d="M189.599,15.737c0,1.234-0.654,3.425-4.105,3.425c-0.453,0-1.914-0.203-2.896-0.203c-0.049,0-0.126-0.075-0.126-0.126
		c-0.024-0.25-0.579-2.467-0.579-2.719c0-0.151,0.354-0.151,0.453-0.151c0.606,0,0.756,2.543,3.174,2.543
		c1.787,0,2.291-1.358,2.291-2.24c0-2.644-5.64-1.788-5.64-5.364c0-2.064,1.713-3.424,3.827-3.424c1.16,0,2.62,0.201,2.721,0.227
		c0.327,0.075,0.378,0.553,0.378,0.705c0.049,1.032,0.275,1.687,0.275,2.014c0,0.152-0.15,0.203-0.275,0.203
		c-0.228,0-0.378-0.026-0.504-0.352c-0.177-0.429-0.83-2.14-2.62-2.14c-1.183,0-2.014,0.679-2.014,1.888
		c0,0.88,0.63,1.41,1.183,1.687C187.786,12.968,189.599,12.893,189.599,15.737z"/>
	<path d="M198.914,15.737c0,1.234-0.654,3.425-4.105,3.425c-0.453,0-1.914-0.203-2.896-0.203c-0.049,0-0.126-0.075-0.126-0.126
		c-0.026-0.25-0.579-2.467-0.579-2.719c0-0.151,0.352-0.151,0.453-0.151c0.604,0,0.756,2.543,3.174,2.543
		c1.788,0,2.291-1.358,2.291-2.24c0-2.644-5.64-1.788-5.64-5.364c0-2.064,1.713-3.424,3.827-3.424c1.158,0,2.619,0.201,2.719,0.227
		c0.328,0.075,0.378,0.553,0.378,0.705c0.051,1.032,0.277,1.687,0.277,2.014c0,0.152-0.151,0.203-0.277,0.203
		c-0.226,0-0.378-0.026-0.504-0.352c-0.175-0.429-0.831-2.14-2.618-2.14c-1.183,0-2.014,0.679-2.014,1.888
		c0,0.88,0.63,1.41,1.183,1.687C197.101,12.968,198.914,12.893,198.914,15.737z"/>
	<path d="M206.592,19.162c-3.449,0-5.841-2.492-5.841-5.842c0-3.323,2.492-5.841,5.841-5.841c3.374,0,5.869,2.443,5.869,5.841
		C212.461,16.845,210.118,19.162,206.592,19.162z M206.592,8.134c-2.618,0-3.449,2.719-3.449,5.186c0,2.142,0.504,5.187,3.449,5.187
		c2.973,0,3.475-3.045,3.475-5.187C210.067,10.853,209.236,8.134,206.592,8.134z"/>
	<path d="M215.604,11.005c0-2.216-0.252-2.368-1.561-2.368c-0.201,0-0.553,0-0.553-0.252c0-0.201,0-0.502,0.276-0.502
		c0.252,0,0.656,0.075,1.486,0.075c0.882,0,1.839-0.075,2.191-0.075c0.151,0,0.201,0,0.201,0.351v6.8c0,1.888,0.605,2.97,2.469,2.97
		c0.906,0,2.492-0.553,2.492-1.333v-6.522c0-1.36-0.252-1.512-1.561-1.512c-0.452,0-0.805,0-0.805-0.252
		c0-0.376,0-0.502,0.175-0.502c0.352,0,0.656,0.075,2.191,0.075c0.63,0,1.283-0.075,1.913-0.075c0.227,0,0.352,0.101,0.352,0.351
		c0,0.102-0.226,2.041-0.226,3.829v4.733c0,0.403,0,0.933,0.63,0.933c0.352,0,0.906-0.1,1.083-0.1c0.101,0,0.151,0,0.151,0.478
		c0,0.15-0.026,0.201-0.83,0.327c-2.142,0.353-2.746,0.654-2.896,0.654c-0.177,0-0.303-0.175-0.303-0.352
		c0-0.302,0.051-0.705,0.075-0.957c-1.258,0.933-2.793,1.385-3.75,1.385c-2.494,0-3.199-1.612-3.199-4.23V11.005z"/>
	<path d="M229.352,10.524c0-0.88-0.227-1.384-1.487-1.51c-0.201-0.026-0.226-0.126-0.226-0.301c0-0.203,0.075-0.329,0.201-0.355
		c2.87-0.579,3.225-1.233,3.526-1.233c0.051,0,0.101,0.15,0.101,0.252c0,0.301-0.126,0.931-0.126,2.291
		c0.831-0.933,2.191-2.191,3.526-2.191c0.882,0,1.61,0.479,1.61,1.41c0,0.655-0.502,1.26-1.233,1.26
		c-1.032,0-1.183-0.957-1.939-0.957c-0.427,0-1.108,0.376-1.738,1.083c-0.175,0.201-0.175,0.479-0.175,0.73v5.715
		c0,0.931,0,1.486,1.258,1.486c0.933,0,1.034,0.026,1.034,0.301c0,0.327-0.101,0.352-0.378,0.352c-0.907,0-1.713-0.049-2.87-0.049
		c-2.015,0-2.443,0.049-2.921,0.049c-0.177,0-0.226-0.15-0.226-0.327c0-0.252,0.301-0.327,0.78-0.327
		c1.083,0,1.285-0.203,1.285-1.285V10.524z"/>
	<path d="M241.184,16.467c0,1.435,0.05,1.738,1.158,1.738c0.553,0,0.604,0.026,0.604,0.327c0,0.152,0,0.327-0.252,0.327
		c-0.126,0-0.453-0.049-2.09-0.049c-2.367,0-3.022,0.049-3.4,0.049c-0.201,0-0.201-0.15-0.201-0.275
		c0-0.329,0.026-0.378,0.957-0.378c0.656,0,0.882-0.252,1.034-0.604c0.101-0.227,0.15-2.014,0.15-3.627v-3.451
		c0-0.88-0.227-1.384-1.484-1.51c-0.203-0.026-0.227-0.126-0.227-0.301c0-0.203,0.075-0.329,0.201-0.355
		c2.87-0.579,3.223-1.233,3.526-1.233c0.1,0,0.15,0.126,0.15,0.276c0,0.102-0.125,0.355-0.125,3.626V16.467z M238.842,2.292
		c0-0.68,0.553-1.335,1.31-1.335c0.756,0,1.309,0.655,1.309,1.335c0,0.679-0.553,1.335-1.309,1.335
		C239.395,3.627,238.842,2.971,238.842,2.292z"/>
</g>
<g>
	<path fill="#900000" d="M5.465,37.406c0,3.374,1.41,6.321,5.64,6.321c2.947,0,5.49-1.637,5.49-7.63v-4.986
		c0-3.499-0.73-3.499-3.325-3.499c-0.201,0-0.201-0.151-0.201-0.378c0-0.303,0.075-0.378,0.201-0.378
		c0.429,0,2.065,0.101,3.701,0.101c0.781,0,2.921-0.101,3.274-0.101c0.252,0,0.352,0.049,0.352,0.427
		c0,0.101-0.024,0.328-0.226,0.328c-2.417,0-2.92,0-2.92,2.971v5.967c0,6.8-4.333,8.612-7.252,8.612
		c-5.64,0-7.227-3.778-7.227-6.547v-5.766c0-1.787-0.026-2.392-0.051-3.549c-0.026-1.487-0.453-1.688-2.644-1.688
		C0,27.612,0,27.41,0,27.183c0-0.151,0.051-0.327,0.226-0.327c0.203,0,2.394,0.101,3.979,0.101c1.612,0,3.803-0.101,4.004-0.101
		c0.177,0,0.226,0.175,0.226,0.327c0,0.226,0,0.429-0.276,0.429c-2.191,0-2.62,0.201-2.644,1.688
		c-0.025,1.157-0.051,1.762-0.051,3.549V37.406z"/>
	<path fill="#900000" d="M24.875,42.467c0,1.435,0.049,1.738,1.158,1.738c0.679,0,0.73,0.026,0.73,0.327
		c0,0.152,0,0.327-0.252,0.327c-0.126,0-0.453-0.049-2.217-0.049c-2.366,0-3.02,0.049-3.398,0.049c-0.201,0-0.201-0.15-0.201-0.275
		c0-0.329,0.024-0.378,0.957-0.378c0.654,0,0.88-0.252,1.032-0.604c0.101-0.227,0.152-2.014,0.152-3.627v-3.451
		c0-0.88-0.226-1.384-1.486-1.51c-0.201-0.026-0.226-0.126-0.226-0.301c0-0.203,0.075-0.329,0.201-0.355
		c2.872-0.579,3.223-1.233,3.526-1.233c0.051,0,0.075,0.075,0.075,0.276c0,0.151-0.049,0.706-0.049,1.815
		c1.309-0.882,2.593-1.738,3.953-1.738c0.856,0,3.323,0.175,3.323,3.778v6.042c0,0.429,0.077,0.907,1.638,0.907
		c0.252,0,0.252,0.152,0.252,0.327c0,0.152,0,0.327-0.352,0.327c-0.756,0-1.209-0.049-2.543-0.049c-2.039,0-2.443,0.049-2.644,0.049
		c-0.152,0-0.177-0.175-0.177-0.301c0-0.126,0.051-0.352,0.352-0.352c1.209,0,1.435-0.101,1.435-0.931v-4.508
		c0-2.343-0.201-3.903-2.819-3.903c-0.957,0-2.317,0.856-2.417,1.159V42.467z"/>
	<path fill="#900000" d="M38.999,42.467c0,1.435,0.051,1.738,1.159,1.738c0.553,0,0.605,0.026,0.605,0.327
		c0,0.152,0,0.327-0.252,0.327c-0.126,0-0.454-0.049-2.09-0.049c-2.366,0-3.022,0.049-3.4,0.049c-0.201,0-0.201-0.15-0.201-0.275
		c0-0.329,0.025-0.378,0.957-0.378c0.656,0,0.882-0.252,1.031-0.604c0.102-0.227,0.152-2.014,0.152-3.627v-3.451
		c0-0.88-0.226-1.384-1.486-1.51c-0.201-0.026-0.224-0.126-0.224-0.301c0-0.203,0.075-0.329,0.201-0.355
		c2.87-0.579,3.222-1.233,3.524-1.233c0.102,0,0.152,0.126,0.152,0.276c0,0.102-0.126,0.355-0.126,3.626V42.467z M36.658,28.292
		c0-0.68,0.553-1.335,1.309-1.335c0.756,0,1.309,0.655,1.309,1.335c0,0.679-0.553,1.335-1.309,1.335
		C37.211,29.627,36.658,28.971,36.658,28.292z"/>
	<path fill="#900000" d="M50.554,35.292c0-0.73-1.309-0.73-1.687-0.73c-0.15,0-0.226-0.151-0.226-0.352
		c0-0.126,0.102-0.303,0.329-0.303c0.679,0,1.461,0.051,2.165,0.051c0.73,0,1.484-0.051,2.215-0.051
		c0.177,0,0.226,0.178,0.226,0.303c0,0.15-0.024,0.252-0.252,0.276c-1.459,0.228-1.535,0.328-2.341,2.291
		c-0.882,2.166-2.392,5.339-2.847,6.396c-0.705,1.687-0.931,1.99-1.132,1.99c-0.277,0-0.453-0.529-0.957-1.612
		c-0.882-1.888-2.971-8.032-3.325-8.536c-0.252-0.378-0.502-0.404-0.88-0.404c-0.679,0-0.781-0.075-0.781-0.427
		c0-0.175,0.126-0.278,0.277-0.278c0.805,0,1.587,0.051,2.392,0.051c0.504,0,2.492-0.051,2.996-0.051
		c0.177,0,0.203,0.228,0.203,0.352c0,0.126-0.102,0.303-0.252,0.303c-0.756,0-1.461,0.075-1.461,0.605
		c0,0.83,2.039,5.917,2.567,7.026C50.153,36.928,50.554,35.971,50.554,35.292z"/>
	<path fill="#900000" d="M55.464,38.01c-0.075,0.479-0.101,0.957-0.101,1.435c0,1.638,1.386,4.156,4.13,4.156
		c1.157,0,2.14-0.352,2.945-1.512c0.152-0.201,0.252-0.427,0.378-0.427c0.177,0,0.403,0.226,0.403,0.301
		c0,0.076-1.008,3.199-4.331,3.199c-3.601,0-5.49-2.216-5.49-5.74c0-3.602,2.443-6.043,5.036-6.043c4.181,0,4.508,3.6,4.508,4.354
		c0,0.252-0.101,0.278-0.301,0.278H55.464z M59.795,37.256c0.504,0,0.856-0.151,0.856-0.833c0-1.962-1.36-2.392-2.216-2.392
		c-1.811,0-2.567,1.512-2.819,3.224H59.795z"/>
	<path fill="#900000" d="M66.467,36.524c0-0.88-0.226-1.384-1.486-1.51c-0.201-0.026-0.226-0.126-0.226-0.301
		c0-0.203,0.075-0.329,0.201-0.355c2.872-0.579,3.225-1.233,3.526-1.233c0.051,0,0.1,0.15,0.1,0.252
		c0,0.301-0.126,0.931-0.126,2.291c0.831-0.933,2.191-2.191,3.526-2.191c0.882,0,1.61,0.479,1.61,1.41
		c0,0.655-0.502,1.26-1.232,1.26c-1.032,0-1.183-0.957-1.939-0.957c-0.427,0-1.108,0.376-1.738,1.083
		c-0.175,0.201-0.175,0.479-0.175,0.73v5.715c0,0.931,0,1.486,1.258,1.486c0.933,0,1.034,0.026,1.034,0.301
		c0,0.327-0.101,0.352-0.378,0.352c-0.907,0-1.713-0.049-2.87-0.049c-2.016,0-2.443,0.049-2.921,0.049
		c-0.177,0-0.226-0.15-0.226-0.327c0-0.252,0.301-0.327,0.78-0.327c1.083,0,1.285-0.203,1.285-1.285V36.524z"/>
	<path fill="#900000" d="M82.176,41.737c0,1.234-0.654,3.425-4.105,3.425c-0.453,0-1.913-0.203-2.896-0.203
		c-0.049,0-0.126-0.075-0.126-0.126c-0.024-0.25-0.579-2.467-0.579-2.719c0-0.151,0.352-0.151,0.453-0.151
		c0.605,0,0.756,2.543,3.173,2.543c1.788,0,2.292-1.358,2.292-2.24c0-2.644-5.64-1.788-5.64-5.364c0-2.064,1.713-3.424,3.827-3.424
		c1.157,0,2.618,0.201,2.72,0.227c0.327,0.075,0.376,0.553,0.376,0.705c0.051,1.032,0.277,1.687,0.277,2.014
		c0,0.152-0.152,0.203-0.277,0.203c-0.226,0-0.376-0.026-0.502-0.352c-0.177-0.429-0.831-2.14-2.62-2.14
		c-1.183,0-2.014,0.679-2.014,1.888c0,0.88,0.63,1.41,1.183,1.687C80.363,38.968,82.176,38.893,82.176,41.737z"/>
	<path fill="#900000" d="M87.614,42.467c0,1.435,0.051,1.738,1.158,1.738c0.555,0,0.606,0.026,0.606,0.327
		c0,0.152,0,0.327-0.252,0.327c-0.126,0-0.454-0.049-2.09-0.049c-2.366,0-3.022,0.049-3.4,0.049c-0.201,0-0.201-0.15-0.201-0.275
		c0-0.329,0.026-0.378,0.957-0.378c0.654,0,0.882-0.252,1.032-0.604c0.1-0.227,0.152-2.014,0.152-3.627v-3.451
		c0-0.88-0.226-1.384-1.486-1.51c-0.201-0.026-0.226-0.126-0.226-0.301c0-0.203,0.077-0.329,0.203-0.355
		c2.87-0.579,3.223-1.233,3.524-1.233c0.101,0,0.152,0.126,0.152,0.276c0,0.102-0.126,0.355-0.126,3.626V42.467z M85.273,28.292
		c0-0.68,0.553-1.335,1.309-1.335c0.754,0,1.309,0.655,1.309,1.335c0,0.679-0.555,1.335-1.309,1.335
		C85.826,29.627,85.273,28.971,85.273,28.292z"/>
	<path fill="#900000" d="M93.705,40.379c0,2.668,0.226,3.624,2.216,3.624c0.856,0,1.612-0.579,1.711-0.579
		c0.102,0,0.277,0.252,0.277,0.403c0,0.152-1.057,1.335-3.348,1.335c-2.896,0-2.896-2.492-2.896-3.122v-6.622
		c0-0.201-0.075-0.327-0.252-0.327h-1.258c-0.077,0-0.152-0.077-0.152-0.228c0-0.101,0.026-0.252,0.152-0.352
		c2.341-1.762,2.819-3.097,3.323-3.097c0.152,0,0.303,0.1,0.303,0.327c0,0.452-0.077,0.882-0.077,2.317h3.878
		c0.175,0,0.252,0.175,0.252,0.529c0,0.327-0.152,0.63-0.679,0.63c-0.177,0-1.36-0.126-3.451-0.126V40.379z"/>
	<path fill="#900000" d="M108.914,35.418c0-0.831-1.185-0.857-1.941-0.857c-0.225,0-0.25-0.126-0.25-0.328
		c0-0.175,0.1-0.327,0.226-0.327c0.805,0,1.636,0.051,2.441,0.051c0.782,0,1.563-0.051,2.343-0.051c0.177,0,0.177,0.228,0.177,0.327
		c0,0.228-0.077,0.303-0.429,0.328c-0.856,0.075-1.208,0.227-1.587,1.108c-0.906,2.089-4.38,9.392-4.935,10.802
		c-1.939,4.86-2.77,5.187-3.601,5.187c-0.805,0-1.41-0.705-1.41-1.486c0-0.756,0.73-1.358,1.461-1.358
		c0.628,0,0.957,0.427,1.258,0.427c0.453,0,1.638-2.417,1.638-3.6c0-0.63-0.604-2.116-0.882-2.821
		c-1.587-4.079-2.065-6.27-2.594-7.679c-0.226-0.579-1.484-0.579-1.811-0.579c-0.177,0-0.228-0.177-0.228-0.352
		c0-0.201,0.126-0.303,0.278-0.303c0.303,0,1.888,0.051,2.795,0.051c0.856,0,1.738-0.051,2.492-0.051
		c0.252,0,0.303,0.152,0.303,0.327c0,0.126-0.077,0.328-0.252,0.328c-0.151,0-1.234,0-1.234,0.553c0,1.208,0.856,3.701,2.492,7.907
		C106.823,40.629,108.914,36.198,108.914,35.418z"/>
	<path fill="#900000" d="M124.671,45.162c-3.449,0-5.841-2.492-5.841-5.842c0-3.323,2.492-5.841,5.841-5.841
		c3.374,0,5.868,2.443,5.868,5.841C130.539,42.845,128.197,45.162,124.671,45.162z M124.671,34.134
		c-2.618,0-3.449,2.719-3.449,5.186c0,2.142,0.504,5.187,3.449,5.187c2.973,0,3.475-3.045,3.475-5.187
		C128.146,36.853,127.315,34.134,124.671,34.134z"/>
	<path fill="#900000" d="M136.277,42.72c0,0.931,0,1.486,1.26,1.486c0.931,0,1.031,0.026,1.031,0.301
		c0,0.327-0.101,0.352-0.378,0.352c-0.905,0-1.711-0.049-2.87-0.049c-2.014,0-2.442,0.049-2.668,0.049
		c-0.177,0-0.228-0.15-0.228-0.327c0-0.252,0.051-0.327,0.529-0.327c1.083,0,1.284-0.203,1.284-1.285v-7.024
		c0-0.303,0-0.805-0.479-0.805h-1.384c-0.177,0-0.303,0-0.303-0.329c0-0.201,0.177-0.301,0.782-0.427
		c0.982-0.227,1.234-0.278,1.309-1.412c0.252-3.827,1.386-5.941,4.356-6.723c0.404-0.101,1.083-0.201,1.536-0.201
		c0.656,0,1.587,0.252,1.587,1.083c0,0.73-0.429,1.234-1.183,1.234c-0.228,0-0.781-0.076-1.385-0.579
		c-0.427-0.354-0.882-0.581-1.107-0.581c-1.437,0-1.689,2.091-1.689,3.652v3.248h3.122c0.177,0,0.252,0.175,0.252,0.529
		c0,0.327-0.15,0.63-0.679,0.63c-0.175,0-2.114-0.126-2.695-0.126V42.72z"/>
	<path fill="#900000" d="M167.522,27.132c0.075-0.201,0.152-0.275,0.302-0.275c0.126,0,1.965,0.101,2.543,0.101
		c0.429,0,2.569-0.101,2.744-0.101c0.252,0,0.278,0.201,0.278,0.427c0,0.226-0.1,0.328-0.303,0.328
		c-2.266,0-2.542,0.175-2.542,1.335c0,1.636,0.276,6.924,0.528,13.973c0.026,0.857,0.73,1.185,1.386,1.185
		c1.41,0,1.435,0.15,1.435,0.327c0,0.378-0.126,0.427-0.278,0.427c-0.227,0-0.504-0.049-4.004-0.049
		c-3.272,0-3.424,0.049-3.627,0.049c-0.275,0-0.275-0.175-0.275-0.402c0-0.177,0.049-0.352,1.208-0.352
		c1.661,0,1.687-0.403,1.687-1.411c0-1.51-0.378-9.644-0.581-14.353h-0.049c-1.838,4.709-4.155,10.124-5.817,14.178
		c-0.957,2.315-0.957,2.593-1.283,2.593c-0.327,0-0.378-0.227-0.907-1.963c-0.553-1.813-4.658-12.944-4.759-12.944
		c-0.427,1.839-2.09,10.197-2.09,12.715c0,0.782,0.429,1.185,1.26,1.185c0.628,0,1.36,0.049,1.36,0.201c0,0.479,0,0.553-0.278,0.553
		c-0.203,0-0.455-0.049-3.047-0.049c-2.292,0-2.467,0.049-2.619,0.049c-0.201,0-0.278-0.025-0.278-0.427
		c0-0.252,0.126-0.327,1.335-0.327c0.882,0,1.057-0.328,1.335-1.764c0.681-3.627,1.284-7.276,2.065-10.903
		c0.252-1.134,0.327-1.838,0.327-2.368c0-0.15-0.352-1.083-0.655-1.258c-0.201-0.126-1.384-0.201-2.164-0.201
		c-0.303,0-0.303-0.203-0.303-0.378c0-0.203,0.051-0.378,0.278-0.378c0.479,0,2.644,0.101,2.922,0.101
		c0.653,0,1.711-0.101,2.039-0.101c0.276,0,0.352,0.275,0.604,1.183c0.528,1.888,4.179,12.087,4.632,13.018
		C163.82,36.601,165.733,31.993,167.522,27.132z"/>
	<path fill="#900000" d="M178.722,42.467c0,1.435,0.051,1.738,1.159,1.738c0.553,0,0.605,0.026,0.605,0.327
		c0,0.152,0,0.327-0.252,0.327c-0.126,0-0.455-0.049-2.09-0.049c-2.367,0-3.022,0.049-3.4,0.049c-0.201,0-0.201-0.15-0.201-0.275
		c0-0.329,0.026-0.378,0.957-0.378c0.654,0,0.882-0.252,1.032-0.604c0.102-0.227,0.151-2.014,0.151-3.627v-3.451
		c0-0.88-0.226-1.384-1.486-1.51c-0.201-0.026-0.225-0.126-0.225-0.301c0-0.203,0.075-0.329,0.201-0.355
		c2.87-0.579,3.223-1.233,3.524-1.233c0.103,0,0.152,0.126,0.152,0.276c0,0.102-0.126,0.355-0.126,3.626V42.467z M176.382,28.292
		c0-0.68,0.553-1.335,1.309-1.335c0.756,0,1.309,0.655,1.309,1.335c0,0.679-0.553,1.335-1.309,1.335
		C176.934,29.627,176.382,28.971,176.382,28.292z"/>
	<path fill="#900000" d="M189.599,41.737c0,1.234-0.654,3.425-4.105,3.425c-0.453,0-1.914-0.203-2.896-0.203
		c-0.049,0-0.126-0.075-0.126-0.126c-0.024-0.25-0.579-2.467-0.579-2.719c0-0.151,0.354-0.151,0.453-0.151
		c0.606,0,0.756,2.543,3.174,2.543c1.787,0,2.291-1.358,2.291-2.24c0-2.644-5.64-1.788-5.64-5.364c0-2.064,1.713-3.424,3.827-3.424
		c1.16,0,2.62,0.201,2.721,0.227c0.327,0.075,0.378,0.553,0.378,0.705c0.049,1.032,0.275,1.687,0.275,2.014
		c0,0.152-0.15,0.203-0.275,0.203c-0.228,0-0.378-0.026-0.504-0.352c-0.177-0.429-0.83-2.14-2.62-2.14
		c-1.183,0-2.014,0.679-2.014,1.888c0,0.88,0.63,1.41,1.183,1.687C187.786,38.968,189.599,38.893,189.599,41.737z"/>
	<path fill="#900000" d="M198.914,41.737c0,1.234-0.654,3.425-4.105,3.425c-0.453,0-1.914-0.203-2.896-0.203
		c-0.049,0-0.126-0.075-0.126-0.126c-0.026-0.25-0.579-2.467-0.579-2.719c0-0.151,0.352-0.151,0.453-0.151
		c0.604,0,0.756,2.543,3.174,2.543c1.788,0,2.291-1.358,2.291-2.24c0-2.644-5.64-1.788-5.64-5.364c0-2.064,1.713-3.424,3.827-3.424
		c1.158,0,2.619,0.201,2.719,0.227c0.328,0.075,0.378,0.553,0.378,0.705c0.051,1.032,0.277,1.687,0.277,2.014
		c0,0.152-0.151,0.203-0.277,0.203c-0.226,0-0.378-0.026-0.504-0.352c-0.175-0.429-0.831-2.14-2.618-2.14
		c-1.183,0-2.014,0.679-2.014,1.888c0,0.88,0.63,1.41,1.183,1.687C197.101,38.968,198.914,38.893,198.914,41.737z"/>
	<path fill="#900000" d="M206.592,45.162c-3.449,0-5.841-2.492-5.841-5.842c0-3.323,2.492-5.841,5.841-5.841
		c3.374,0,5.869,2.443,5.869,5.841C212.461,42.845,210.118,45.162,206.592,45.162z M206.592,34.134
		c-2.618,0-3.449,2.719-3.449,5.186c0,2.142,0.504,5.187,3.449,5.187c2.973,0,3.475-3.045,3.475-5.187
		C210.067,36.853,209.236,34.134,206.592,34.134z"/>
	<path fill="#900000" d="M215.604,37.005c0-2.216-0.252-2.368-1.561-2.368c-0.201,0-0.553,0-0.553-0.252
		c0-0.201,0-0.502,0.276-0.502c0.252,0,0.656,0.075,1.486,0.075c0.882,0,1.839-0.075,2.191-0.075c0.151,0,0.201,0,0.201,0.351v6.8
		c0,1.888,0.605,2.97,2.469,2.97c0.906,0,2.492-0.553,2.492-1.333v-6.522c0-1.36-0.252-1.512-1.561-1.512
		c-0.452,0-0.805,0-0.805-0.252c0-0.376,0-0.502,0.175-0.502c0.352,0,0.656,0.075,2.191,0.075c0.63,0,1.283-0.075,1.913-0.075
		c0.227,0,0.352,0.101,0.352,0.351c0,0.102-0.226,2.041-0.226,3.829v4.733c0,0.403,0,0.933,0.63,0.933c0.352,0,0.906-0.1,1.083-0.1
		c0.101,0,0.151,0,0.151,0.478c0,0.15-0.026,0.201-0.83,0.327c-2.142,0.353-2.746,0.654-2.896,0.654
		c-0.177,0-0.303-0.175-0.303-0.352c0-0.302,0.051-0.705,0.075-0.957c-1.258,0.933-2.793,1.385-3.75,1.385
		c-2.494,0-3.199-1.612-3.199-4.23V37.005z"/>
	<path fill="#900000" d="M229.352,36.524c0-0.88-0.227-1.384-1.487-1.51c-0.201-0.026-0.226-0.126-0.226-0.301
		c0-0.203,0.075-0.329,0.201-0.355c2.87-0.579,3.225-1.233,3.526-1.233c0.051,0,0.101,0.15,0.101,0.252
		c0,0.301-0.126,0.931-0.126,2.291c0.831-0.933,2.191-2.191,3.526-2.191c0.882,0,1.61,0.479,1.61,1.41
		c0,0.655-0.502,1.26-1.233,1.26c-1.032,0-1.183-0.957-1.939-0.957c-0.427,0-1.108,0.376-1.738,1.083
		c-0.175,0.201-0.175,0.479-0.175,0.73v5.715c0,0.931,0,1.486,1.258,1.486c0.933,0,1.034,0.026,1.034,0.301
		c0,0.327-0.101,0.352-0.378,0.352c-0.907,0-1.713-0.049-2.87-0.049c-2.015,0-2.443,0.049-2.921,0.049
		c-0.177,0-0.226-0.15-0.226-0.327c0-0.252,0.301-0.327,0.78-0.327c1.083,0,1.285-0.203,1.285-1.285V36.524z"/>
	<path fill="#900000" d="M241.184,42.467c0,1.435,0.05,1.738,1.158,1.738c0.553,0,0.604,0.026,0.604,0.327
		c0,0.152,0,0.327-0.252,0.327c-0.126,0-0.453-0.049-2.09-0.049c-2.367,0-3.022,0.049-3.4,0.049c-0.201,0-0.201-0.15-0.201-0.275
		c0-0.329,0.026-0.378,0.957-0.378c0.656,0,0.882-0.252,1.034-0.604c0.101-0.227,0.15-2.014,0.15-3.627v-3.451
		c0-0.88-0.227-1.384-1.484-1.51c-0.203-0.026-0.227-0.126-0.227-0.301c0-0.203,0.075-0.329,0.201-0.355
		c2.87-0.579,3.223-1.233,3.526-1.233c0.1,0,0.15,0.126,0.15,0.276c0,0.102-0.125,0.355-0.125,3.626V42.467z M238.842,28.292
		c0-0.68,0.553-1.335,1.31-1.335c0.756,0,1.309,0.655,1.309,1.335c0,0.679-0.553,1.335-1.309,1.335
		C239.395,29.627,238.842,28.971,238.842,28.292z"/>
</g>
<g>
</g>
<g>
</g>
<g>
</g>
<g>
</g>
<g>
</g>
<g>
</g>
<g>
</g>
<g>
</g>
<g>
</g>
<g>
</g>
<g>
</g>
<g>
</g>
<g>
</g>
<g>
</g>
<g>
</g>
</svg>
