<?xml version="1.0" encoding="utf-8"?>
<!-- Generator: Adobe Illustrator 18.1.1, SVG Export Plug-In . SVG Version: 6.00 Build 0)  -->
<!DOCTYPE svg PUBLIC "-//W3C//DTD SVG 1.0//EN" "http://www.w3.org/TR/2001/REC-SVG-20010904/DTD/svg10.dtd">
<svg version="1.0" xmlns="http://www.w3.org/2000/svg" xmlns:xlink="http://www.w3.org/1999/xlink" x="0px" y="0px" width="194px"
	 height="54px" viewBox="0 0 194 54" enable-background="new 0 0 194 54" xml:space="preserve">
<g id="Layer_1">
	<g>
		<path d="M8.967,20.221c-6.444,0-8.864-5.126-8.864-8.336c0-5.773,4.288-9.296,8.864-9.296c5.079,0,8.888,3.043,8.888,9.176
			C17.854,15.095,15.435,20.221,8.967,20.221z M8.967,3.212c-5.582,0-6.013,6.253-6.013,8.217c0,3.307,1.605,8.17,6.013,8.17
			c5.654,0,6.037-5.343,6.037-8.193C15.004,7.979,13.399,3.212,8.967,3.212z"/>
		<path d="M23.558,17.897c0,0.887,0,1.413,1.198,1.413c0.886,0,0.982,0.024,0.982,0.288c0,0.312-0.096,0.335-0.359,0.335
			c-0.862,0-1.629-0.048-2.731-0.048c-1.917,0-2.324,0.048-2.54,0.048c-0.167,0-0.216-0.144-0.216-0.312
			c0-0.239,0.048-0.312,0.503-0.312c1.03,0,1.222-0.191,1.222-1.222v-6.684c0-0.287,0-0.767-0.455-0.767h-1.318
			c-0.167,0-0.287,0-0.287-0.312c0-0.191,0.167-0.287,0.742-0.407c0.935-0.216,1.174-0.264,1.246-1.342
			c0.239-3.642,1.317-5.653,4.145-6.396c0.383-0.096,1.03-0.191,1.461-0.191c0.623,0,1.509,0.239,1.509,1.03
			c0,0.694-0.407,1.174-1.126,1.174c-0.215,0-0.743-0.072-1.317-0.551c-0.407-0.336-0.838-0.551-1.054-0.551
			c-1.365,0-1.605,1.988-1.605,3.474v3.09h2.971c0.167,0,0.239,0.168,0.239,0.503c0,0.312-0.144,0.6-0.646,0.6
			c-0.168,0-2.013-0.12-2.563-0.12V17.897z"/>
		<path d="M31.105,17.897c0,0.887,0,1.413,1.198,1.413c0.527,0,0.623,0.024,0.623,0.288c0,0.312-0.096,0.335-0.359,0.335
			c-0.503,0-1.27-0.048-2.372-0.048c-1.917,0-2.324,0.048-2.54,0.048c-0.167,0-0.216-0.144-0.216-0.312
			c0-0.239,0.048-0.312,0.503-0.312c1.03,0,1.222-0.191,1.222-1.222v-6.684c0-0.287,0-0.767-0.455-0.767h-1.318
			c-0.167,0-0.287,0-0.287-0.312c0-0.191,0.167-0.287,0.742-0.407c0.935-0.216,1.174-0.264,1.246-1.342
			c0.239-3.521,2.779-6.588,6.636-6.588c0.623,0,2.228,0.239,2.228,1.294c0,0.79-0.599,1.174-1.246,1.174
			c-1.701,0-2.061-1.365-2.899-1.365c-0.886,0-2.707,0.455-2.707,5.15v1.413h4.073c1.341,0,2.419-0.886,2.683-0.886
			c0.096,0,0.144,0.119,0.144,0.263c0,0.096-0.12,0.336-0.12,3.45v5.175c0,1.365,0.048,1.652,1.102,1.652
			c0.527,0,0.575,0.024,0.575,0.312c0,0.144,0,0.312-0.24,0.312c-0.12,0-0.431-0.048-1.988-0.048c-2.252,0-2.875,0.048-3.234,0.048
			c-0.192,0-0.192-0.144-0.192-0.264c0-0.312,0.024-0.359,0.911-0.359c0.623,0,0.838-0.239,0.982-0.575
			c0.096-0.215,0.144-1.916,0.144-3.449v-3.282c0-1.222-0.911-1.485-1.366-1.485h-3.474V17.897z"/>
		<path d="M49.696,17.873c0.191-0.167,0.287-0.383,0.407-0.383c0.072,0,0.359,0.168,0.359,0.335c0,0.096-0.048,0.216-0.192,0.359
			c-1.222,1.39-2.611,2.036-4.192,2.036c-2.779,0-4.959-1.988-4.959-5.414c0-3.545,2.348-5.701,5.438-5.701
			c3.282,0,3.905,1.772,3.905,2.275c0,0.288-0.383,1.03-1.27,1.03c-0.767,0-0.862-0.239-1.126-1.557
			c-0.072-0.359-0.239-1.126-1.485-1.126c-1.509,0-3.378,1.149-3.378,5.078c0,1.078,0.407,4.073,4.072,4.073
			C48.163,18.88,49.217,18.28,49.696,17.873z"/>
		<path d="M53.865,13.418c-0.072,0.455-0.096,0.91-0.096,1.365c0,1.557,1.317,3.952,3.929,3.952c1.102,0,2.036-0.335,2.803-1.437
			c0.144-0.192,0.24-0.407,0.359-0.407c0.167,0,0.383,0.215,0.383,0.287s-0.958,3.042-4.121,3.042c-3.426,0-5.222-2.107-5.222-5.462
			c0-3.426,2.324-5.749,4.791-5.749c3.977,0,4.288,3.426,4.288,4.145c0,0.239-0.096,0.264-0.287,0.264H53.865z M57.985,12.699
			c0.479,0,0.815-0.145,0.815-0.791c0-1.868-1.294-2.275-2.108-2.275c-1.725,0-2.443,1.437-2.683,3.066H57.985z"/>
		<path d="M74.613,20.221c-3.282,0-5.558-2.371-5.558-5.558c0-3.162,2.372-5.558,5.558-5.558c3.21,0,5.582,2.323,5.582,5.558
			C80.194,18.018,77.967,20.221,74.613,20.221z M74.613,9.729c-2.492,0-3.282,2.587-3.282,4.935c0,2.036,0.479,4.936,3.282,4.936
			c2.827,0,3.306-2.899,3.306-4.936C77.918,12.315,77.128,9.729,74.613,9.729z"/>
		<path d="M85.658,17.897c0,0.887,0,1.413,1.198,1.413c0.886,0,0.982,0.024,0.982,0.288c0,0.312-0.096,0.335-0.359,0.335
			c-0.862,0-1.629-0.048-2.731-0.048c-1.917,0-2.324,0.048-2.54,0.048c-0.167,0-0.216-0.144-0.216-0.312
			c0-0.239,0.048-0.312,0.503-0.312c1.03,0,1.222-0.191,1.222-1.222v-6.684c0-0.287,0-0.767-0.455-0.767h-1.318
			c-0.167,0-0.287,0-0.287-0.312c0-0.191,0.167-0.287,0.742-0.407c0.935-0.216,1.174-0.264,1.246-1.342
			c0.239-3.642,1.317-5.653,4.145-6.396c0.383-0.096,1.03-0.191,1.461-0.191c0.623,0,1.509,0.239,1.509,1.03
			c0,0.694-0.407,1.174-1.126,1.174c-0.215,0-0.743-0.072-1.317-0.551c-0.407-0.336-0.838-0.551-1.054-0.551
			c-1.365,0-1.605,1.988-1.605,3.474v3.09h2.971c0.167,0,0.239,0.168,0.239,0.503c0,0.312-0.144,0.6-0.646,0.6
			c-0.168,0-2.013-0.12-2.563-0.12V17.897z"/>
		<path d="M98.092,8.507c0-1.701-0.024-2.276-0.048-3.378c-0.024-1.414-0.431-1.605-2.156-1.605c-0.264,0-0.264-0.191-0.264-0.407
			c0-0.144,0.048-0.312,0.216-0.312c0.191,0,1.917,0.096,3.426,0.096c0.215,0,2.156-0.096,3.402-0.096
			c5.726,0,6.324,3.762,6.324,4.743c0,3.426-2.372,5.175-5.63,5.175c-0.958,0-1.916-0.048-2.898-0.239
			c0,3.809,0.023,4.479,0.048,5.198c0.048,0.958,0.191,1.533,2.659,1.533c0.671,0,0.671,0.144,0.671,0.407
			c0,0.216,0,0.312-0.191,0.312c-0.168,0-0.839-0.048-4.384-0.048c-3.522,0-3.618,0.048-3.785,0.048
			c-0.192,0-0.192-0.096-0.192-0.312c0-0.264,0-0.407,0.671-0.407c1.893,0,2.036-0.407,2.06-1.054
			c0.048-1.198,0.072-2.755,0.072-3.785V8.507z M100.464,11.094c0,0.551,0.144,0.91,1.365,0.91c2.611,0,4.576-1.509,4.576-4.264
			c0-2.468-1.581-4.217-3.929-4.217c-1.821,0-2.037,0-2.013,1.988V11.094z"/>
		<path d="M112.251,12.004c0-0.838-0.216-1.317-1.413-1.438c-0.192-0.023-0.216-0.119-0.216-0.287c0-0.191,0.072-0.312,0.191-0.335
			c2.731-0.552,3.066-1.174,3.354-1.174c0.048,0,0.096,0.144,0.096,0.239c0,0.287-0.12,0.886-0.12,2.18
			c0.791-0.886,2.084-2.084,3.354-2.084c0.839,0,1.533,0.455,1.533,1.342c0,0.622-0.479,1.197-1.174,1.197
			c-0.981,0-1.126-0.91-1.845-0.91c-0.407,0-1.054,0.359-1.652,1.03c-0.168,0.191-0.168,0.455-0.168,0.694v5.438
			c0,0.887,0,1.413,1.198,1.413c0.886,0,0.981,0.024,0.981,0.288c0,0.312-0.096,0.335-0.359,0.335c-0.862,0-1.629-0.048-2.73-0.048
			c-1.917,0-2.324,0.048-2.779,0.048c-0.167,0-0.215-0.144-0.215-0.312c0-0.239,0.287-0.312,0.742-0.312
			c1.03,0,1.222-0.191,1.222-1.222V12.004z"/>
		<path d="M125.643,20.221c-3.281,0-5.558-2.371-5.558-5.558c0-3.162,2.372-5.558,5.558-5.558c3.211,0,5.582,2.323,5.582,5.558
			C131.225,18.018,128.997,20.221,125.643,20.221z M125.643,9.729c-2.491,0-3.281,2.587-3.281,4.935
			c0,2.036,0.479,4.936,3.281,4.936c2.827,0,3.307-2.899,3.307-4.936C128.949,12.315,128.158,9.729,125.643,9.729z"/>
		<path d="M139.754,18.88c3.282,0,3.258,2.132,3.258,2.851c0,3.617-4,4.671-6.923,4.671c-1.558,0-3.091-0.407-3.091-2.251
			c0-1.485,1.103-2.563,2.084-3.522c-0.742-0.071-1.437-0.694-1.437-1.461c0-1.438,0.767-2.061,1.844-2.803
			c-1.389-0.719-1.868-1.893-1.868-3.402c0-2.251,2.084-3.929,4.24-3.929c0.982,0,2.108,0.336,2.898,0.935
			c0.982-0.623,1.51-0.719,2.036-0.719c1.533,0,1.797,0.839,1.797,1.342c0,0.359-0.407,0.838-0.91,0.838
			c-0.623,0-1.197-1.365-1.629-1.365c-0.407,0-0.551,0.144-0.91,0.312c0.455,0.479,0.91,1.701,0.91,2.324
			c0,2.587-1.629,4.12-4.265,4.12c-0.287,0-1.245-0.048-1.725-0.264c-0.383,0.216-0.982,0.719-0.982,1.533
			c0,0.695,0.575,0.791,1.126,0.791H139.754z M135.921,20.7c-0.144,0-1.558,1.078-1.558,2.396c0,0.336,0.097,2.204,3.45,2.204
			c2.731,0,4.001-0.839,4.001-2.707c0-1.461-0.887-1.893-2.443-1.893H135.921z M139.97,12.555c0-0.359,0-2.898-2.013-2.898
			c-2.228,0-2.252,2.851-2.252,3.689c0,1.413,0.479,2.851,2.156,2.851C139.826,16.196,139.97,13.585,139.97,12.555z"/>
		<path d="M146.87,12.004c0-0.838-0.216-1.317-1.413-1.438c-0.192-0.023-0.216-0.119-0.216-0.287c0-0.191,0.072-0.312,0.191-0.335
			c2.731-0.552,3.066-1.174,3.354-1.174c0.048,0,0.096,0.144,0.096,0.239c0,0.287-0.12,0.886-0.12,2.18
			c0.791-0.886,2.084-2.084,3.354-2.084c0.839,0,1.533,0.455,1.533,1.342c0,0.622-0.479,1.197-1.174,1.197
			c-0.981,0-1.126-0.91-1.845-0.91c-0.407,0-1.054,0.359-1.652,1.03c-0.168,0.191-0.168,0.455-0.168,0.694v5.438
			c0,0.887,0,1.413,1.198,1.413c0.886,0,0.981,0.024,0.981,0.288c0,0.312-0.096,0.335-0.359,0.335c-0.862,0-1.629-0.048-2.73-0.048
			c-1.917,0-2.324,0.048-2.779,0.048c-0.167,0-0.215-0.144-0.215-0.312c0-0.239,0.287-0.312,0.742-0.312
			c1.03,0,1.222-0.191,1.222-1.222V12.004z"/>
		<path d="M162.227,18.592c0,0.384,0.168,0.479,0.407,0.479c0.479,0,0.839-0.551,1.03-0.551c0.119,0,0.312,0.167,0.312,0.264
			c0,0.287-1.558,1.437-2.396,1.437c-0.863,0-1.055-0.551-1.318-1.389c-1.413,1.102-2.084,1.389-3.09,1.389
			c-1.869,0-2.3-1.365-2.3-2.132c0-1.222,0.719-2.228,5.414-3.977v-2.18c0-1.246-1.438-1.893-2.013-1.893
			c-0.551,0-1.7,0.862-1.7,1.102c0,0.336,0.311,0.671,0.311,1.198c0,0.263-0.215,0.91-1.174,0.91c-0.814,0-1.006-0.623-1.006-0.887
			c0-0.646,0.168-0.958,1.965-2.156c1.797-1.174,2.06-1.197,2.587-1.197c0.767,0,2.971,0.575,2.971,2.755V18.592z M160.286,15.047
			c0-0.12-0.072-0.24-0.168-0.24c-0.119,0-1.893,0.791-2.371,1.174c-0.671,0.504-0.791,0.863-0.791,1.749
			c0,0.743,0.312,1.485,1.126,1.485c0.91,0,2.204-0.838,2.204-1.27V15.047z"/>
		<path d="M166.659,12.004c0-0.838-0.215-1.317-1.413-1.438c-0.191-0.023-0.216-0.119-0.216-0.287c0-0.191,0.072-0.312,0.191-0.335
			c2.731-0.552,3.066-1.174,3.354-1.174c0.048,0,0.071,0.071,0.071,0.263c0,0.145-0.048,0.671-0.048,1.605
			c0.623-0.479,2.899-1.533,4.217-1.533c1.174,0,2.012,0.575,2.611,1.557c1.293-0.767,2.228-1.557,3.665-1.557
			c0.814,0,3.162,0.12,3.162,2.923V18.4c0,0.407,0.072,0.862,1.558,0.862c0.239,0,0.239,0.144,0.239,0.312
			c0,0.144,0,0.312-0.335,0.312c-0.719,0-1.15-0.048-2.42-0.048c-1.94,0-2.324,0.048-2.516,0.048c-0.144,0-0.168-0.168-0.168-0.287
			c0-0.12,0.049-0.336,0.336-0.336c1.149,0,1.365-0.096,1.365-0.886v-6.205c0-0.312-0.191-1.965-2.443-1.965
			c-1.054,0-2.443,1.055-2.443,1.318v6.133c0,1.365,0.048,1.652,1.102,1.652c0.647,0,0.695,0.024,0.695,0.312
			c0,0.144,0,0.312-0.24,0.312c-0.119,0-0.431-0.048-2.515-0.048c-1.94,0-2.324,0.048-2.516,0.048c-0.144,0-0.168-0.168-0.168-0.287
			c0-0.12,0.048-0.336,0.335-0.336c1.15,0,1.366-0.096,1.366-0.934v-6.205c0-0.91-0.192-1.965-2.443-1.965
			c-1.055,0-2.444,1.055-2.444,1.318v6.133c0,1.365,0.048,1.652,1.103,1.652c0.646,0,0.694,0.024,0.694,0.312
			c0,0.144,0,0.312-0.239,0.312c-0.12,0-0.432-0.048-2.108-0.048c-2.252,0-2.635,0.048-2.994,0.048
			c-0.191,0-0.191-0.144-0.191-0.264c0-0.312,0.023-0.359,0.67-0.359c0.623,0,0.839-0.239,0.982-0.575
			c0.096-0.215,0.144-1.916,0.144-3.449V12.004z"/>
		<path d="M192.414,16.963c0,1.174-0.623,3.258-3.905,3.258c-0.431,0-1.82-0.191-2.755-0.191c-0.048,0-0.119-0.071-0.119-0.119
			c-0.024-0.24-0.552-2.349-0.552-2.588c0-0.144,0.336-0.144,0.432-0.144c0.575,0,0.719,2.42,3.019,2.42
			c1.701,0,2.18-1.294,2.18-2.133c0-2.515-5.366-1.7-5.366-5.103c0-1.964,1.629-3.258,3.642-3.258c1.102,0,2.491,0.191,2.587,0.216
			c0.312,0.071,0.359,0.526,0.359,0.671c0.048,0.981,0.264,1.604,0.264,1.916c0,0.144-0.144,0.191-0.264,0.191
			c-0.216,0-0.359-0.023-0.479-0.335c-0.168-0.407-0.791-2.036-2.492-2.036c-1.126,0-1.916,0.646-1.916,1.797
			c0,0.838,0.599,1.341,1.126,1.604C190.689,14.328,192.414,14.256,192.414,16.963z"/>
	</g>
	<g>
		<path fill="#900000" d="M8.966,47.221c-6.444,0-8.864-5.126-8.864-8.336c0-5.773,4.288-9.296,8.864-9.296
			c5.079,0,8.888,3.043,8.888,9.176C17.854,42.095,15.434,47.221,8.966,47.221z M8.966,30.212c-5.582,0-6.013,6.253-6.013,8.217
			c0,3.307,1.605,8.17,6.013,8.17c5.654,0,6.037-5.343,6.037-8.193C15.003,34.979,13.398,30.212,8.966,30.212z"/>
		<path fill="#900000" d="M23.557,44.897c0,0.887,0,1.413,1.198,1.413c0.886,0,0.982,0.024,0.982,0.288
			c0,0.312-0.096,0.335-0.359,0.335c-0.862,0-1.629-0.048-2.731-0.048c-1.917,0-2.324,0.048-2.54,0.048
			c-0.167,0-0.216-0.144-0.216-0.312c0-0.239,0.048-0.312,0.503-0.312c1.03,0,1.222-0.191,1.222-1.222v-6.684
			c0-0.287,0-0.767-0.455-0.767h-1.318c-0.167,0-0.287,0-0.287-0.312c0-0.191,0.167-0.287,0.742-0.407
			c0.935-0.216,1.174-0.264,1.246-1.342c0.239-3.641,1.317-5.653,4.145-6.396c0.383-0.096,1.03-0.191,1.461-0.191
			c0.623,0,1.509,0.239,1.509,1.03c0,0.694-0.407,1.174-1.126,1.174c-0.215,0-0.743-0.072-1.317-0.551
			c-0.407-0.336-0.838-0.551-1.054-0.551c-1.365,0-1.605,1.988-1.605,3.474v3.09h2.971c0.167,0,0.239,0.168,0.239,0.503
			c0,0.312-0.144,0.6-0.646,0.6c-0.168,0-2.013-0.12-2.563-0.12V44.897z"/>
		<path fill="#900000" d="M31.104,44.897c0,0.887,0,1.413,1.198,1.413c0.527,0,0.623,0.024,0.623,0.288
			c0,0.312-0.096,0.335-0.359,0.335c-0.503,0-1.27-0.048-2.372-0.048c-1.917,0-2.324,0.048-2.54,0.048
			c-0.167,0-0.216-0.144-0.216-0.312c0-0.239,0.048-0.312,0.503-0.312c1.03,0,1.222-0.191,1.222-1.222v-6.684
			c0-0.287,0-0.767-0.455-0.767h-1.318c-0.167,0-0.287,0-0.287-0.312c0-0.191,0.167-0.287,0.742-0.407
			c0.935-0.216,1.174-0.264,1.246-1.342c0.239-3.521,2.779-6.588,6.636-6.588c0.623,0,2.228,0.239,2.228,1.294
			c0,0.79-0.599,1.174-1.246,1.174c-1.701,0-2.061-1.365-2.899-1.365c-0.886,0-2.707,0.455-2.707,5.15v1.413h4.073
			c1.341,0,2.419-0.887,2.683-0.887c0.096,0,0.144,0.12,0.144,0.264c0,0.096-0.12,0.336-0.12,3.45v5.175
			c0,1.365,0.048,1.652,1.102,1.652c0.527,0,0.575,0.024,0.575,0.312c0,0.144,0,0.312-0.24,0.312c-0.12,0-0.431-0.048-1.988-0.048
			c-2.252,0-2.875,0.048-3.234,0.048c-0.192,0-0.192-0.144-0.192-0.264c0-0.312,0.024-0.359,0.911-0.359
			c0.623,0,0.838-0.239,0.982-0.574c0.096-0.216,0.144-1.917,0.144-3.45v-3.282c0-1.222-0.911-1.485-1.366-1.485h-3.474V44.897z"/>
		<path fill="#900000" d="M49.695,44.873c0.191-0.167,0.287-0.383,0.407-0.383c0.072,0,0.359,0.168,0.359,0.335
			c0,0.096-0.048,0.216-0.192,0.359c-1.222,1.39-2.611,2.036-4.192,2.036c-2.779,0-4.959-1.988-4.959-5.414
			c0-3.545,2.348-5.701,5.438-5.701c3.282,0,3.905,1.772,3.905,2.275c0,0.288-0.383,1.03-1.27,1.03
			c-0.767,0-0.862-0.239-1.126-1.557c-0.072-0.359-0.239-1.126-1.485-1.126c-1.509,0-3.378,1.149-3.378,5.078
			c0,1.078,0.407,4.073,4.072,4.073C48.162,45.88,49.216,45.28,49.695,44.873z"/>
		<path fill="#900000" d="M53.864,40.418c-0.072,0.455-0.096,0.91-0.096,1.365c0,1.557,1.317,3.953,3.929,3.953
			c1.102,0,2.036-0.336,2.803-1.438c0.144-0.192,0.24-0.407,0.359-0.407c0.167,0,0.383,0.215,0.383,0.287s-0.958,3.042-4.121,3.042
			c-3.426,0-5.222-2.107-5.222-5.462c0-3.426,2.324-5.749,4.791-5.749c3.977,0,4.288,3.426,4.288,4.145
			c0,0.239-0.096,0.264-0.287,0.264H53.864z M57.984,39.699c0.479,0,0.815-0.145,0.815-0.791c0-1.868-1.294-2.275-2.108-2.275
			c-1.725,0-2.443,1.438-2.683,3.066H57.984z"/>
		<path fill="#900000" d="M74.612,47.221c-3.282,0-5.558-2.371-5.558-5.558c0-3.162,2.372-5.558,5.558-5.558
			c3.21,0,5.582,2.323,5.582,5.558C80.193,45.018,77.966,47.221,74.612,47.221z M74.612,36.729c-2.492,0-3.282,2.587-3.282,4.935
			c0,2.036,0.479,4.936,3.282,4.936c2.827,0,3.306-2.899,3.306-4.936C77.917,39.315,77.127,36.729,74.612,36.729z"/>
		<path fill="#900000" d="M85.657,44.897c0,0.887,0,1.413,1.198,1.413c0.886,0,0.982,0.024,0.982,0.288
			c0,0.312-0.096,0.335-0.359,0.335c-0.862,0-1.629-0.048-2.731-0.048c-1.917,0-2.324,0.048-2.54,0.048
			c-0.167,0-0.216-0.144-0.216-0.312c0-0.239,0.048-0.312,0.503-0.312c1.03,0,1.222-0.191,1.222-1.222v-6.684
			c0-0.287,0-0.767-0.455-0.767h-1.318c-0.167,0-0.287,0-0.287-0.312c0-0.191,0.167-0.287,0.742-0.407
			c0.935-0.216,1.174-0.264,1.246-1.342c0.239-3.641,1.317-5.653,4.145-6.396c0.383-0.096,1.03-0.191,1.461-0.191
			c0.623,0,1.509,0.239,1.509,1.03c0,0.694-0.407,1.174-1.126,1.174c-0.215,0-0.743-0.072-1.317-0.551
			c-0.407-0.336-0.838-0.551-1.054-0.551c-1.365,0-1.605,1.988-1.605,3.474v3.09h2.971c0.167,0,0.239,0.168,0.239,0.503
			c0,0.312-0.144,0.6-0.646,0.6c-0.168,0-2.013-0.12-2.563-0.12V44.897z"/>
		<path fill="#900000" d="M98.091,35.507c0-1.701-0.024-2.276-0.048-3.378c-0.024-1.414-0.431-1.605-2.156-1.605
			c-0.264,0-0.264-0.191-0.264-0.407c0-0.144,0.048-0.312,0.216-0.312c0.191,0,1.917,0.096,3.426,0.096
			c0.215,0,2.156-0.096,3.402-0.096c5.726,0,6.324,3.762,6.324,4.743c0,3.426-2.372,5.175-5.63,5.175
			c-0.958,0-1.916-0.048-2.898-0.239c0,3.809,0.023,4.479,0.048,5.198c0.048,0.958,0.191,1.533,2.659,1.533
			c0.671,0,0.671,0.144,0.671,0.407c0,0.216,0,0.312-0.191,0.312c-0.168,0-0.839-0.048-4.384-0.048
			c-3.522,0-3.618,0.048-3.785,0.048c-0.192,0-0.192-0.096-0.192-0.312c0-0.264,0-0.407,0.671-0.407c1.893,0,2.036-0.407,2.06-1.054
			c0.048-1.198,0.072-2.755,0.072-3.785V35.507z M100.463,38.094c0,0.551,0.144,0.91,1.365,0.91c2.611,0,4.576-1.509,4.576-4.264
			c0-2.468-1.581-4.217-3.93-4.217c-1.82,0-2.036,0-2.012,1.988V38.094z"/>
		<path fill="#900000" d="M112.25,39.004c0-0.838-0.216-1.317-1.413-1.438c-0.192-0.023-0.216-0.119-0.216-0.287
			c0-0.191,0.072-0.312,0.191-0.335c2.731-0.552,3.066-1.175,3.354-1.175c0.048,0,0.096,0.145,0.096,0.24
			c0,0.287-0.12,0.886-0.12,2.18c0.791-0.887,2.084-2.084,3.354-2.084c0.839,0,1.533,0.455,1.533,1.342
			c0,0.623-0.479,1.197-1.174,1.197c-0.981,0-1.126-0.91-1.845-0.91c-0.407,0-1.054,0.359-1.652,1.03
			c-0.168,0.191-0.168,0.455-0.168,0.694v5.438c0,0.887,0,1.413,1.198,1.413c0.886,0,0.981,0.024,0.981,0.288
			c0,0.312-0.096,0.335-0.359,0.335c-0.862,0-1.629-0.048-2.73-0.048c-1.917,0-2.324,0.048-2.779,0.048
			c-0.167,0-0.216-0.144-0.216-0.312c0-0.239,0.288-0.312,0.743-0.312c1.03,0,1.222-0.191,1.222-1.222V39.004z"/>
		<path fill="#900000" d="M125.642,47.221c-3.281,0-5.558-2.371-5.558-5.558c0-3.162,2.372-5.558,5.558-5.558
			c3.211,0,5.582,2.323,5.582,5.558C131.224,45.018,128.996,47.221,125.642,47.221z M125.642,36.729
			c-2.491,0-3.281,2.587-3.281,4.935c0,2.036,0.479,4.936,3.281,4.936c2.827,0,3.307-2.899,3.307-4.936
			C128.948,39.315,128.157,36.729,125.642,36.729z"/>
		<path fill="#900000" d="M139.753,45.88c3.282,0,3.258,2.132,3.258,2.851c0,3.617-4,4.672-6.923,4.672
			c-1.558,0-3.091-0.408-3.091-2.252c0-1.485,1.103-2.563,2.084-3.522c-0.742-0.071-1.437-0.694-1.437-1.461
			c0-1.438,0.767-2.061,1.844-2.803c-1.389-0.719-1.868-1.893-1.868-3.402c0-2.251,2.084-3.929,4.24-3.929
			c0.982,0,2.108,0.336,2.898,0.935c0.982-0.623,1.51-0.719,2.036-0.719c1.533,0,1.797,0.839,1.797,1.342
			c0,0.359-0.407,0.838-0.91,0.838c-0.623,0-1.197-1.365-1.629-1.365c-0.407,0-0.551,0.144-0.91,0.312
			c0.455,0.479,0.91,1.701,0.91,2.324c0,2.587-1.629,4.12-4.265,4.12c-0.287,0-1.245-0.048-1.725-0.264
			c-0.383,0.216-0.982,0.719-0.982,1.533c0,0.695,0.575,0.791,1.126,0.791H139.753z M135.92,47.7c-0.144,0-1.558,1.078-1.558,2.396
			c0,0.336,0.097,2.204,3.45,2.204c2.731,0,4.001-0.839,4.001-2.707c0-1.461-0.887-1.893-2.444-1.893H135.92z M139.969,39.555
			c0-0.359,0-2.898-2.013-2.898c-2.228,0-2.252,2.851-2.252,3.689c0,1.413,0.479,2.851,2.156,2.851
			C139.825,43.196,139.969,40.585,139.969,39.555z"/>
		<path fill="#900000" d="M146.869,39.004c0-0.838-0.216-1.317-1.413-1.438c-0.192-0.023-0.216-0.119-0.216-0.287
			c0-0.191,0.072-0.312,0.191-0.335c2.731-0.552,3.066-1.175,3.354-1.175c0.048,0,0.096,0.145,0.096,0.24
			c0,0.287-0.12,0.886-0.12,2.18c0.791-0.887,2.084-2.084,3.354-2.084c0.839,0,1.533,0.455,1.533,1.342
			c0,0.623-0.479,1.197-1.174,1.197c-0.981,0-1.126-0.91-1.845-0.91c-0.407,0-1.054,0.359-1.652,1.03
			c-0.168,0.191-0.168,0.455-0.168,0.694v5.438c0,0.887,0,1.413,1.198,1.413c0.886,0,0.981,0.024,0.981,0.288
			c0,0.312-0.096,0.335-0.359,0.335c-0.862,0-1.629-0.048-2.73-0.048c-1.917,0-2.324,0.048-2.779,0.048
			c-0.167,0-0.216-0.144-0.216-0.312c0-0.239,0.288-0.312,0.743-0.312c1.03,0,1.222-0.191,1.222-1.222V39.004z"/>
		<path fill="#900000" d="M162.226,45.592c0,0.384,0.168,0.479,0.407,0.479c0.479,0,0.839-0.551,1.03-0.551
			c0.119,0,0.312,0.167,0.312,0.264c0,0.287-1.558,1.437-2.396,1.437c-0.863,0-1.055-0.551-1.318-1.389
			c-1.413,1.102-2.084,1.389-3.09,1.389c-1.869,0-2.3-1.365-2.3-2.132c0-1.222,0.719-2.228,5.414-3.977v-2.18
			c0-1.246-1.438-1.893-2.013-1.893c-0.551,0-1.7,0.862-1.7,1.102c0,0.336,0.311,0.671,0.311,1.198c0,0.264-0.215,0.91-1.174,0.91
			c-0.814,0-1.006-0.623-1.006-0.887c0-0.646,0.168-0.958,1.965-2.156c1.797-1.174,2.06-1.197,2.587-1.197
			c0.767,0,2.971,0.575,2.971,2.755V45.592z M160.285,42.047c0-0.12-0.072-0.24-0.168-0.24c-0.119,0-1.893,0.791-2.371,1.174
			c-0.671,0.504-0.791,0.863-0.791,1.749c0,0.743,0.312,1.485,1.126,1.485c0.91,0,2.204-0.838,2.204-1.27V42.047z"/>
		<path fill="#900000" d="M166.658,39.004c0-0.838-0.215-1.317-1.413-1.438c-0.191-0.023-0.216-0.119-0.216-0.287
			c0-0.191,0.072-0.312,0.191-0.335c2.731-0.552,3.066-1.175,3.354-1.175c0.048,0,0.071,0.072,0.071,0.264
			c0,0.145-0.048,0.671-0.048,1.605c0.623-0.479,2.899-1.533,4.217-1.533c1.174,0,2.013,0.575,2.611,1.557
			c1.293-0.767,2.228-1.557,3.665-1.557c0.814,0,3.162,0.12,3.162,2.923V45.4c0,0.407,0.072,0.862,1.558,0.862
			c0.239,0,0.239,0.144,0.239,0.312c0,0.144,0,0.312-0.335,0.312c-0.719,0-1.15-0.048-2.42-0.048c-1.94,0-2.324,0.048-2.516,0.048
			c-0.144,0-0.168-0.168-0.168-0.287c0-0.12,0.048-0.336,0.336-0.336c1.149,0,1.365-0.096,1.365-0.886v-6.205
			c0-0.312-0.191-1.965-2.443-1.965c-1.054,0-2.443,1.055-2.443,1.318v6.133c0,1.365,0.048,1.652,1.102,1.652
			c0.647,0,0.695,0.024,0.695,0.312c0,0.144,0,0.312-0.24,0.312c-0.119,0-0.431-0.048-2.515-0.048c-1.941,0-2.324,0.048-2.516,0.048
			c-0.144,0-0.168-0.168-0.168-0.287c0-0.12,0.048-0.336,0.335-0.336c1.15,0,1.366-0.096,1.366-0.934v-6.205
			c0-0.91-0.191-1.965-2.443-1.965c-1.055,0-2.444,1.055-2.444,1.318v6.133c0,1.365,0.048,1.652,1.103,1.652
			c0.646,0,0.694,0.024,0.694,0.312c0,0.144,0,0.312-0.239,0.312c-0.12,0-0.432-0.048-2.108-0.048c-2.252,0-2.635,0.048-2.994,0.048
			c-0.192,0-0.192-0.144-0.192-0.264c0-0.312,0.024-0.359,0.671-0.359c0.623,0,0.839-0.239,0.982-0.574
			c0.096-0.216,0.144-1.917,0.144-3.45V39.004z"/>
		<path fill="#900000" d="M192.413,43.963c0,1.174-0.623,3.258-3.905,3.258c-0.431,0-1.82-0.191-2.755-0.191
			c-0.048,0-0.119-0.071-0.119-0.119c-0.024-0.24-0.552-2.349-0.552-2.588c0-0.144,0.336-0.144,0.432-0.144
			c0.575,0,0.719,2.42,3.019,2.42c1.701,0,2.18-1.294,2.18-2.133c0-2.515-5.366-1.7-5.366-5.103c0-1.964,1.629-3.258,3.642-3.258
			c1.102,0,2.491,0.191,2.587,0.216c0.312,0.071,0.359,0.526,0.359,0.671c0.048,0.981,0.264,1.604,0.264,1.916
			c0,0.144-0.144,0.191-0.264,0.191c-0.215,0-0.359-0.023-0.479-0.335c-0.168-0.407-0.791-2.036-2.492-2.036
			c-1.126,0-1.916,0.646-1.916,1.797c0,0.838,0.599,1.341,1.126,1.604C190.688,41.328,192.413,41.256,192.413,43.963z"/>
	</g>
</g>
<g id="NOTES">
</g>
</svg>
