<?xml version="1.0" encoding="utf-8"?>
<!-- Generator: Adobe Illustrator 18.1.1, SVG Export Plug-In . SVG Version: 6.00 Build 0)  -->
<!DOCTYPE svg PUBLIC "-//W3C//DTD SVG 1.0//EN" "http://www.w3.org/TR/2001/REC-SVG-20010904/DTD/svg10.dtd">
<svg version="1.0" id="Layer_1" xmlns="http://www.w3.org/2000/svg" xmlns:xlink="http://www.w3.org/1999/xlink" x="0px" y="0px"
	 width="149px" height="34px" viewBox="0 0 149 34" enable-background="new 0 0 149 34" xml:space="preserve">
<g>
	<path fill="#FFFFFF" d="M3.345,7.981c0,2.065,0.863,3.869,3.452,3.869c1.804,0,3.36-1.002,3.36-4.67V4.128
		c0-2.141-0.447-2.141-2.035-2.141c-0.123,0-0.123-0.093-0.123-0.231c0-0.186,0.046-0.231,0.123-0.231
		c0.263,0,1.264,0.062,2.265,0.062c0.478,0,1.788-0.062,2.004-0.062c0.154,0,0.216,0.03,0.216,0.262
		c0,0.062-0.015,0.201-0.139,0.201c-1.48,0-1.787,0-1.787,1.818v3.652c0,4.162-2.652,5.271-4.439,5.271
		c-3.452,0-4.423-2.312-4.423-4.007V5.192c0-1.094-0.016-1.464-0.031-2.172C1.772,2.11,1.511,1.987,0.17,1.987
		C0,1.987,0,1.863,0,1.724c0-0.093,0.031-0.2,0.139-0.2c0.124,0,1.465,0.062,2.435,0.062c0.987,0,2.328-0.062,2.451-0.062
		c0.108,0,0.139,0.107,0.139,0.2c0,0.138,0,0.262-0.169,0.262c-1.341,0-1.604,0.123-1.618,1.033C3.36,3.728,3.345,4.098,3.345,5.192
		V7.981z"/>
	<path fill="#FFFFFF" d="M15.225,11.079c0,0.878,0.03,1.064,0.709,1.064c0.416,0,0.447,0.016,0.447,0.2c0,0.093,0,0.2-0.154,0.2
		c-0.077,0-0.277-0.03-1.357-0.03c-1.448,0-1.848,0.03-2.08,0.03c-0.123,0-0.123-0.092-0.123-0.169c0-0.201,0.015-0.231,0.586-0.231
		c0.4,0,0.539-0.154,0.631-0.37c0.062-0.139,0.093-1.233,0.093-2.22V7.442c0-0.539-0.139-0.847-0.91-0.924
		c-0.123-0.016-0.139-0.077-0.139-0.184c0-0.124,0.046-0.201,0.123-0.217c1.758-0.354,1.972-0.754,2.158-0.754
		c0.031,0,0.046,0.046,0.046,0.169c0,0.093-0.03,0.432-0.03,1.111c0.801-0.54,1.587-1.064,2.419-1.064
		c0.524,0,2.034,0.107,2.034,2.312v3.698c0,0.262,0.047,0.555,1.002,0.555c0.154,0,0.154,0.093,0.154,0.2c0,0.093,0,0.2-0.216,0.2
		c-0.463,0-0.74-0.03-1.557-0.03c-1.248,0-1.495,0.03-1.618,0.03c-0.093,0-0.108-0.107-0.108-0.184c0-0.077,0.031-0.216,0.216-0.216
		c0.74,0,0.878-0.062,0.878-0.57V8.814c0-1.434-0.123-2.389-1.725-2.389c-0.586,0-1.418,0.524-1.48,0.71V11.079z"/>
	<path fill="#FFFFFF" d="M23.869,11.079c0,0.878,0.031,1.064,0.71,1.064c0.339,0,0.37,0.016,0.37,0.2c0,0.093,0,0.2-0.154,0.2
		c-0.077,0-0.278-0.03-1.279-0.03c-1.448,0-1.85,0.03-2.081,0.03c-0.123,0-0.123-0.092-0.123-0.169c0-0.201,0.016-0.231,0.586-0.231
		c0.401,0,0.54-0.154,0.631-0.37c0.063-0.139,0.093-1.233,0.093-2.22V7.442c0-0.539-0.138-0.847-0.91-0.924
		c-0.123-0.016-0.137-0.077-0.137-0.184c0-0.124,0.046-0.201,0.123-0.217c1.757-0.354,1.972-0.754,2.157-0.754
		c0.062,0,0.093,0.077,0.093,0.169c0,0.063-0.077,0.217-0.077,2.219V11.079z M22.436,2.403c0-0.416,0.339-0.817,0.801-0.817
		c0.463,0,0.801,0.401,0.801,0.817c0,0.416-0.339,0.817-0.801,0.817C22.775,3.22,22.436,2.818,22.436,2.403z"/>
	<path fill="#FFFFFF" d="M30.942,6.687c0-0.447-0.801-0.447-1.033-0.447c-0.092,0-0.139-0.093-0.139-0.216
		c0-0.077,0.063-0.186,0.201-0.186c0.416,0,0.894,0.031,1.325,0.031c0.447,0,0.909-0.031,1.356-0.031
		c0.108,0,0.138,0.109,0.138,0.186c0,0.092-0.014,0.154-0.154,0.169c-0.893,0.14-0.94,0.201-1.433,1.402
		c-0.54,1.325-1.464,3.268-1.742,3.915c-0.431,1.033-0.57,1.218-0.693,1.218c-0.17,0-0.277-0.324-0.585-0.987
		c-0.54-1.155-1.818-4.916-2.035-5.224C25.995,6.286,25.842,6.27,25.61,6.27c-0.416,0-0.478-0.046-0.478-0.262
		c0-0.107,0.077-0.17,0.17-0.17c0.493,0,0.971,0.031,1.464,0.031c0.308,0,1.525-0.031,1.834-0.031c0.108,0,0.124,0.14,0.124,0.216
		c0,0.077-0.062,0.186-0.154,0.186c-0.463,0-0.894,0.046-0.894,0.37c0,0.508,1.248,3.622,1.571,4.3
		C30.696,7.689,30.942,7.103,30.942,6.687z"/>
	<path fill="#FFFFFF" d="M33.947,8.351c-0.046,0.293-0.062,0.586-0.062,0.878c0,1.002,0.848,2.544,2.528,2.544
		c0.708,0,1.31-0.216,1.803-0.925c0.093-0.123,0.154-0.262,0.231-0.262c0.108,0,0.247,0.138,0.247,0.184
		c0,0.047-0.617,1.958-2.651,1.958c-2.204,0-3.36-1.357-3.36-3.513c0-2.205,1.495-3.699,3.082-3.699
		c2.559,0,2.759,2.204,2.759,2.665c0,0.154-0.062,0.17-0.184,0.17H33.947z M36.598,7.89c0.308,0,0.524-0.093,0.524-0.51
		c0-1.201-0.833-1.464-1.357-1.464c-1.109,0-1.571,0.925-1.725,1.973H36.598z"/>
	<path fill="#FFFFFF" d="M40.681,7.442c0-0.539-0.139-0.847-0.91-0.924c-0.123-0.016-0.139-0.077-0.139-0.184
		c0-0.124,0.046-0.201,0.123-0.217c1.758-0.354,1.974-0.754,2.158-0.754c0.031,0,0.061,0.092,0.061,0.154
		c0,0.184-0.077,0.57-0.077,1.402c0.508-0.571,1.341-1.341,2.158-1.341c0.54,0,0.986,0.293,0.986,0.863
		c0,0.401-0.307,0.771-0.754,0.771c-0.631,0-0.724-0.586-1.187-0.586c-0.262,0-0.678,0.23-1.064,0.663
		c-0.107,0.123-0.107,0.293-0.107,0.447v3.498c0,0.57,0,0.91,0.77,0.91c0.571,0,0.633,0.016,0.633,0.184
		c0,0.2-0.062,0.216-0.231,0.216c-0.555,0-1.048-0.03-1.757-0.03c-1.234,0-1.495,0.03-1.788,0.03c-0.108,0-0.139-0.092-0.139-0.2
		c0-0.154,0.184-0.2,0.477-0.2c0.663,0,0.787-0.124,0.787-0.787V7.442z"/>
	<path fill="#FFFFFF" d="M50.296,10.632c0,0.755-0.4,2.096-2.512,2.096c-0.277,0-1.171-0.124-1.772-0.124
		c-0.03,0-0.077-0.046-0.077-0.077c-0.015-0.153-0.354-1.51-0.354-1.664c0-0.093,0.216-0.093,0.277-0.093
		c0.37,0,0.463,1.557,1.942,1.557c1.094,0,1.403-0.831,1.403-1.371c0-1.618-3.452-1.094-3.452-3.283
		c0-1.263,1.048-2.096,2.342-2.096c0.708,0,1.603,0.123,1.665,0.139c0.2,0.046,0.23,0.338,0.23,0.431
		c0.031,0.631,0.17,1.033,0.17,1.233c0,0.093-0.093,0.124-0.17,0.124c-0.139,0-0.23-0.016-0.307-0.216
		c-0.108-0.262-0.508-1.31-1.604-1.31c-0.724,0-1.233,0.416-1.233,1.156c0,0.539,0.386,0.863,0.724,1.033
		C49.187,8.937,50.296,8.891,50.296,10.632z"/>
	<path fill="#FFFFFF" d="M53.624,11.079c0,0.878,0.031,1.064,0.709,1.064c0.34,0,0.371,0.016,0.371,0.2c0,0.093,0,0.2-0.154,0.2
		c-0.077,0-0.278-0.03-1.279-0.03c-1.448,0-1.849,0.03-2.081,0.03c-0.123,0-0.123-0.092-0.123-0.169
		c0-0.201,0.016-0.231,0.586-0.231c0.4,0,0.54-0.154,0.631-0.37c0.061-0.139,0.093-1.233,0.093-2.22V7.442
		c0-0.539-0.139-0.847-0.91-0.924c-0.123-0.016-0.139-0.077-0.139-0.184c0-0.124,0.047-0.201,0.124-0.217
		c1.757-0.354,1.972-0.754,2.157-0.754c0.062,0,0.093,0.077,0.093,0.169c0,0.063-0.077,0.217-0.077,2.219V11.079z M52.191,2.403
		c0-0.416,0.339-0.817,0.801-0.817c0.461,0,0.801,0.401,0.801,0.817c0,0.416-0.34,0.817-0.801,0.817
		C52.53,3.22,52.191,2.818,52.191,2.403z"/>
	<path fill="#FFFFFF" d="M57.352,9.801c0,1.633,0.139,2.218,1.357,2.218c0.524,0,0.987-0.354,1.047-0.354
		c0.063,0,0.17,0.154,0.17,0.247c0,0.093-0.647,0.817-2.049,0.817c-1.772,0-1.772-1.525-1.772-1.911V6.764
		c0-0.123-0.046-0.2-0.154-0.2h-0.77c-0.047,0-0.093-0.047-0.093-0.14c0-0.062,0.016-0.154,0.093-0.216
		c1.433-1.078,1.725-1.895,2.034-1.895c0.093,0,0.186,0.061,0.186,0.2c0,0.277-0.047,0.54-0.047,1.418h2.374
		c0.107,0,0.154,0.107,0.154,0.324c0,0.2-0.093,0.386-0.416,0.386c-0.108,0-0.833-0.077-2.112-0.077V9.801z"/>
	<path fill="#FFFFFF" d="M66.661,6.764c0-0.509-0.725-0.524-1.188-0.524c-0.137,0-0.153-0.077-0.153-0.201
		c0-0.107,0.061-0.2,0.138-0.2c0.493,0,1.001,0.031,1.494,0.031c0.478,0,0.957-0.031,1.434-0.031c0.108,0,0.108,0.14,0.108,0.2
		c0,0.14-0.047,0.185-0.263,0.201c-0.524,0.046-0.74,0.139-0.971,0.678c-0.554,1.278-2.681,5.749-3.021,6.611
		c-1.187,2.975-1.695,3.175-2.204,3.175c-0.493,0-0.863-0.431-0.863-0.91c0-0.463,0.447-0.831,0.894-0.831
		c0.384,0,0.585,0.261,0.77,0.261c0.277,0,1.002-1.479,1.002-2.204c0-0.386-0.37-1.295-0.54-1.727
		c-0.971-2.496-1.264-3.837-1.588-4.7C61.574,6.24,60.804,6.24,60.604,6.24c-0.108,0-0.14-0.108-0.14-0.216
		c0-0.123,0.077-0.186,0.17-0.186c0.186,0,1.155,0.031,1.711,0.031c0.524,0,1.064-0.031,1.525-0.031c0.154,0,0.186,0.093,0.186,0.2
		c0,0.077-0.047,0.201-0.154,0.201c-0.093,0-0.755,0-0.755,0.339c0,0.74,0.524,2.265,1.525,4.84
		C65.381,9.954,66.661,7.242,66.661,6.764z"/>
	<path fill="#FFFFFF" d="M76.305,12.728c-2.111,0-3.575-1.525-3.575-3.576c0-2.034,1.525-3.575,3.575-3.575
		c2.065,0,3.592,1.495,3.592,3.575C79.897,11.31,78.463,12.728,76.305,12.728z M76.305,5.979c-1.602,0-2.111,1.664-2.111,3.174
		c0,1.311,0.308,3.175,2.111,3.175c1.819,0,2.127-1.864,2.127-3.175C78.432,7.643,77.923,5.979,76.305,5.979z"/>
	<path fill="#FFFFFF" d="M83.408,11.233c0,0.57,0,0.91,0.771,0.91c0.57,0,0.631,0.016,0.631,0.184c0,0.2-0.062,0.216-0.231,0.216
		c-0.554,0-1.047-0.03-1.757-0.03c-1.233,0-1.494,0.03-1.633,0.03c-0.108,0-0.14-0.092-0.14-0.2c0-0.154,0.031-0.2,0.324-0.2
		c0.663,0,0.786-0.124,0.786-0.787V7.057c0-0.185,0-0.493-0.293-0.493H81.02c-0.108,0-0.186,0-0.186-0.201
		c0-0.123,0.108-0.184,0.478-0.262c0.601-0.139,0.755-0.17,0.801-0.864c0.154-2.342,0.848-3.636,2.666-4.115
		C85.028,1.062,85.443,1,85.72,1c0.401,0,0.971,0.154,0.971,0.663c0,0.447-0.263,0.755-0.724,0.755c-0.14,0-0.478-0.047-0.848-0.354
		c-0.261-0.217-0.54-0.355-0.677-0.355c-0.879,0-1.034,1.28-1.034,2.235v1.988h1.911c0.108,0,0.154,0.107,0.154,0.324
		c0,0.2-0.092,0.386-0.416,0.386c-0.107,0-1.294-0.077-1.649-0.077V11.233z"/>
	<path fill="#FFFFFF" d="M102.532,1.693c0.046-0.123,0.093-0.169,0.185-0.169c0.077,0,1.202,0.062,1.557,0.062
		c0.263,0,1.573-0.062,1.68-0.062c0.154,0,0.17,0.123,0.17,0.262c0,0.138-0.061,0.201-0.186,0.201c-1.387,0-1.556,0.107-1.556,0.817
		c0,1.001,0.169,4.238,0.323,8.552c0.016,0.524,0.447,0.725,0.848,0.725c0.863,0,0.878,0.092,0.878,0.2
		c0,0.231-0.077,0.262-0.17,0.262c-0.139,0-0.309-0.03-2.451-0.03c-2.003,0-2.096,0.03-2.22,0.03c-0.169,0-0.169-0.107-0.169-0.246
		c0-0.108,0.03-0.216,0.74-0.216c1.017,0,1.033-0.247,1.033-0.864c0-0.924-0.231-5.903-0.355-8.785h-0.03
		c-1.125,2.882-2.543,6.197-3.56,8.677c-0.586,1.417-0.586,1.587-0.785,1.587c-0.2,0-0.231-0.139-0.555-1.201
		c-0.339-1.11-2.851-7.922-2.912-7.922c-0.261,1.125-1.279,6.241-1.279,7.782c0,0.478,0.262,0.725,0.771,0.725
		c0.384,0,0.833,0.03,0.833,0.123c0,0.293,0,0.338-0.17,0.338c-0.124,0-0.278-0.03-1.865-0.03c-1.403,0-1.51,0.03-1.603,0.03
		c-0.123,0-0.17-0.015-0.17-0.262c0-0.154,0.077-0.2,0.817-0.2c0.54,0,0.647-0.201,0.817-1.079c0.417-2.22,0.786-4.453,1.264-6.673
		c0.154-0.694,0.2-1.125,0.2-1.449c0-0.092-0.216-0.663-0.401-0.77c-0.123-0.077-0.847-0.123-1.325-0.123
		c-0.186,0-0.186-0.124-0.186-0.231c0-0.124,0.031-0.231,0.17-0.231c0.293,0,1.618,0.062,1.788,0.062c0.4,0,1.047-0.062,1.248-0.062
		c0.169,0,0.216,0.169,0.37,0.724c0.323,1.156,2.558,7.398,2.835,7.968C100.266,7.488,101.437,4.668,102.532,1.693z"/>
	<path fill="#FFFFFF" d="M109.387,11.079c0,0.878,0.031,1.064,0.71,1.064c0.339,0,0.37,0.016,0.37,0.2c0,0.093,0,0.2-0.154,0.2
		c-0.077,0-0.278-0.03-1.279-0.03c-1.449,0-1.849,0.03-2.081,0.03c-0.123,0-0.123-0.092-0.123-0.169
		c0-0.201,0.016-0.231,0.586-0.231c0.4,0,0.54-0.154,0.632-0.37c0.062-0.139,0.093-1.233,0.093-2.22V7.442
		c0-0.539-0.138-0.847-0.91-0.924c-0.123-0.016-0.137-0.077-0.137-0.184c0-0.124,0.046-0.201,0.123-0.217
		c1.757-0.354,1.973-0.754,2.157-0.754c0.063,0,0.093,0.077,0.093,0.169c0,0.063-0.077,0.217-0.077,2.219V11.079z M107.955,2.403
		c0-0.416,0.338-0.817,0.801-0.817c0.463,0,0.801,0.401,0.801,0.817c0,0.416-0.338,0.817-0.801,0.817
		C108.293,3.22,107.955,2.818,107.955,2.403z"/>
	<path fill="#FFFFFF" d="M116.044,10.632c0,0.755-0.4,2.096-2.512,2.096c-0.277,0-1.171-0.124-1.773-0.124
		c-0.03,0-0.077-0.046-0.077-0.077c-0.015-0.153-0.354-1.51-0.354-1.664c0-0.093,0.217-0.093,0.277-0.093
		c0.371,0,0.463,1.557,1.942,1.557c1.094,0,1.402-0.831,1.402-1.371c0-1.618-3.452-1.094-3.452-3.283
		c0-1.263,1.048-2.096,2.342-2.096c0.71,0,1.604,0.123,1.665,0.139c0.2,0.046,0.231,0.338,0.231,0.431
		c0.03,0.631,0.169,1.033,0.169,1.233c0,0.093-0.092,0.124-0.169,0.124c-0.14,0-0.231-0.016-0.309-0.216
		c-0.108-0.262-0.508-1.31-1.604-1.31c-0.724,0-1.233,0.416-1.233,1.156c0,0.539,0.386,0.863,0.724,1.033
		C114.934,8.937,116.044,8.891,116.044,10.632z"/>
	<path fill="#FFFFFF" d="M121.746,10.632c0,0.755-0.4,2.096-2.512,2.096c-0.277,0-1.171-0.124-1.773-0.124
		c-0.03,0-0.077-0.046-0.077-0.077c-0.016-0.153-0.354-1.51-0.354-1.664c0-0.093,0.216-0.093,0.277-0.093
		c0.37,0,0.463,1.557,1.942,1.557c1.094,0,1.402-0.831,1.402-1.371c0-1.618-3.452-1.094-3.452-3.283
		c0-1.263,1.048-2.096,2.342-2.096c0.709,0,1.603,0.123,1.664,0.139c0.201,0.046,0.231,0.338,0.231,0.431
		c0.031,0.631,0.17,1.033,0.17,1.233c0,0.093-0.093,0.124-0.17,0.124c-0.138,0-0.231-0.016-0.308-0.216
		c-0.107-0.262-0.509-1.31-1.602-1.31c-0.724,0-1.233,0.416-1.233,1.156c0,0.539,0.386,0.863,0.724,1.033
		C120.636,8.937,121.746,8.891,121.746,10.632z"/>
	<path fill="#FFFFFF" d="M126.445,12.728c-2.111,0-3.575-1.525-3.575-3.576c0-2.034,1.525-3.575,3.575-3.575
		c2.065,0,3.592,1.495,3.592,3.575C130.037,11.31,128.603,12.728,126.445,12.728z M126.445,5.979c-1.602,0-2.111,1.664-2.111,3.174
		c0,1.311,0.308,3.175,2.111,3.175c1.819,0,2.127-1.864,2.127-3.175C128.572,7.643,128.063,5.979,126.445,5.979z"/>
	<path fill="#FFFFFF" d="M131.961,7.735c0-1.357-0.154-1.45-0.955-1.45c-0.123,0-0.339,0-0.339-0.154c0-0.123,0-0.307,0.169-0.307
		c0.154,0,0.401,0.046,0.91,0.046c0.54,0,1.126-0.046,1.341-0.046c0.093,0,0.123,0,0.123,0.215v4.162
		c0,1.155,0.37,1.818,1.511,1.818c0.554,0,1.525-0.339,1.525-0.816V7.211c0-0.833-0.154-0.926-0.956-0.926
		c-0.277,0-0.493,0-0.493-0.154c0-0.23,0-0.307,0.107-0.307c0.216,0,0.401,0.046,1.341,0.046c0.386,0,0.785-0.046,1.171-0.046
		c0.139,0,0.216,0.062,0.216,0.215c0,0.062-0.138,1.249-0.138,2.343v2.897c0,0.247,0,0.571,0.386,0.571
		c0.216,0,0.554-0.061,0.663-0.061c0.062,0,0.093,0,0.093,0.293c0,0.092-0.016,0.123-0.508,0.2c-1.311,0.216-1.681,0.4-1.773,0.4
		c-0.108,0-0.186-0.107-0.186-0.216c0-0.185,0.031-0.431,0.046-0.585c-0.77,0.571-1.71,0.848-2.295,0.848
		c-1.527,0-1.958-0.987-1.958-2.589V7.735z"/>
	<path fill="#FFFFFF" d="M140.375,7.442c0-0.539-0.139-0.847-0.91-0.924c-0.123-0.016-0.138-0.077-0.138-0.184
		c0-0.124,0.046-0.201,0.123-0.217c1.757-0.354,1.974-0.754,2.158-0.754c0.031,0,0.062,0.092,0.062,0.154
		c0,0.184-0.077,0.57-0.077,1.402c0.509-0.571,1.341-1.341,2.158-1.341c0.54,0,0.985,0.293,0.985,0.863
		c0,0.401-0.307,0.771-0.754,0.771c-0.631,0-0.724-0.586-1.187-0.586c-0.261,0-0.678,0.23-1.064,0.663
		c-0.107,0.123-0.107,0.293-0.107,0.447v3.498c0,0.57,0,0.91,0.77,0.91c0.571,0,0.633,0.016,0.633,0.184
		c0,0.2-0.062,0.216-0.231,0.216c-0.555,0-1.048-0.03-1.757-0.03c-1.234,0-1.495,0.03-1.788,0.03c-0.108,0-0.138-0.092-0.138-0.2
		c0-0.154,0.184-0.2,0.477-0.2c0.663,0,0.787-0.124,0.787-0.787V7.442z"/>
	<path fill="#FFFFFF" d="M147.617,11.079c0,0.878,0.03,1.064,0.709,1.064c0.339,0,0.37,0.016,0.37,0.2c0,0.093,0,0.2-0.154,0.2
		c-0.077,0-0.277-0.03-1.279-0.03c-1.449,0-1.85,0.03-2.081,0.03c-0.123,0-0.123-0.092-0.123-0.169c0-0.201,0.016-0.231,0.585-0.231
		c0.401,0,0.54-0.154,0.633-0.37c0.062-0.139,0.092-1.233,0.092-2.22V7.442c0-0.539-0.139-0.847-0.909-0.924
		c-0.124-0.016-0.139-0.077-0.139-0.184c0-0.124,0.046-0.201,0.123-0.217c1.757-0.354,1.972-0.754,2.158-0.754
		c0.061,0,0.092,0.077,0.092,0.169c0,0.063-0.076,0.217-0.076,2.219V11.079z M146.184,2.403c0-0.416,0.339-0.817,0.802-0.817
		c0.462,0,0.801,0.401,0.801,0.817c0,0.416-0.339,0.817-0.801,0.817C146.522,3.22,146.184,2.818,146.184,2.403z"/>
</g>
<g>
	<path fill="#F1B82D" d="M3.345,24.981c0,2.065,0.863,3.869,3.452,3.869c1.804,0,3.36-1.002,3.36-4.67v-3.052
		c0-2.141-0.447-2.141-2.035-2.141c-0.123,0-0.123-0.093-0.123-0.231c0-0.186,0.046-0.231,0.123-0.231
		c0.263,0,1.264,0.062,2.265,0.062c0.478,0,1.788-0.062,2.004-0.062c0.154,0,0.216,0.03,0.216,0.262
		c0,0.062-0.015,0.201-0.139,0.201c-1.48,0-1.787,0-1.787,1.818v3.652c0,4.162-2.652,5.271-4.439,5.271
		c-3.452,0-4.423-2.312-4.423-4.007v-3.529c0-1.094-0.016-1.464-0.031-2.172c-0.016-0.91-0.277-1.033-1.618-1.033
		C0,18.987,0,18.863,0,18.724c0-0.093,0.031-0.2,0.139-0.2c0.124,0,1.465,0.062,2.435,0.062c0.987,0,2.328-0.062,2.451-0.062
		c0.108,0,0.139,0.107,0.139,0.2c0,0.138,0,0.262-0.169,0.262c-1.341,0-1.604,0.123-1.618,1.033
		c-0.016,0.708-0.031,1.078-0.031,2.172V24.981z"/>
	<path fill="#F1B82D" d="M15.225,28.079c0,0.878,0.03,1.064,0.709,1.064c0.416,0,0.447,0.016,0.447,0.2c0,0.093,0,0.2-0.154,0.2
		c-0.077,0-0.277-0.03-1.357-0.03c-1.448,0-1.848,0.03-2.08,0.03c-0.123,0-0.123-0.092-0.123-0.169c0-0.201,0.015-0.231,0.586-0.231
		c0.4,0,0.539-0.154,0.631-0.37c0.062-0.139,0.093-1.233,0.093-2.22v-2.112c0-0.539-0.139-0.847-0.91-0.924
		c-0.123-0.016-0.139-0.077-0.139-0.184c0-0.124,0.046-0.201,0.123-0.217c1.758-0.354,1.972-0.754,2.158-0.754
		c0.031,0,0.046,0.046,0.046,0.169c0,0.093-0.03,0.432-0.03,1.111c0.801-0.54,1.587-1.064,2.419-1.064
		c0.524,0,2.034,0.107,2.034,2.312v3.698c0,0.262,0.047,0.555,1.002,0.555c0.154,0,0.154,0.093,0.154,0.2c0,0.093,0,0.2-0.216,0.2
		c-0.463,0-0.74-0.03-1.557-0.03c-1.248,0-1.495,0.03-1.618,0.03c-0.093,0-0.108-0.107-0.108-0.184c0-0.077,0.031-0.216,0.216-0.216
		c0.74,0,0.878-0.062,0.878-0.57v-2.759c0-1.434-0.123-2.389-1.725-2.389c-0.586,0-1.418,0.524-1.48,0.71V28.079z"/>
	<path fill="#F1B82D" d="M23.869,28.079c0,0.878,0.031,1.064,0.71,1.064c0.339,0,0.37,0.016,0.37,0.2c0,0.093,0,0.2-0.154,0.2
		c-0.077,0-0.278-0.03-1.279-0.03c-1.448,0-1.85,0.03-2.081,0.03c-0.123,0-0.123-0.092-0.123-0.169c0-0.201,0.016-0.231,0.586-0.231
		c0.401,0,0.54-0.154,0.631-0.37c0.063-0.139,0.093-1.233,0.093-2.22v-2.112c0-0.539-0.138-0.847-0.91-0.924
		c-0.123-0.016-0.137-0.077-0.137-0.184c0-0.124,0.046-0.201,0.123-0.217c1.757-0.354,1.972-0.754,2.157-0.754
		c0.062,0,0.093,0.077,0.093,0.169c0,0.063-0.077,0.217-0.077,2.219V28.079z M22.436,19.403c0-0.416,0.339-0.817,0.801-0.817
		c0.463,0,0.801,0.401,0.801,0.817c0,0.416-0.339,0.817-0.801,0.817C22.775,20.22,22.436,19.818,22.436,19.403z"/>
	<path fill="#F1B82D" d="M30.942,23.687c0-0.447-0.801-0.447-1.033-0.447c-0.092,0-0.139-0.093-0.139-0.216
		c0-0.077,0.063-0.186,0.201-0.186c0.416,0,0.894,0.031,1.325,0.031c0.447,0,0.909-0.031,1.356-0.031
		c0.108,0,0.138,0.109,0.138,0.186c0,0.092-0.014,0.154-0.154,0.169c-0.893,0.14-0.94,0.201-1.433,1.402
		c-0.54,1.325-1.464,3.268-1.742,3.915c-0.431,1.033-0.57,1.218-0.693,1.218c-0.17,0-0.277-0.324-0.585-0.987
		c-0.54-1.155-1.818-4.916-2.035-5.224c-0.154-0.231-0.307-0.247-0.539-0.247c-0.416,0-0.478-0.046-0.478-0.262
		c0-0.107,0.077-0.17,0.17-0.17c0.493,0,0.971,0.031,1.464,0.031c0.308,0,1.525-0.031,1.834-0.031c0.108,0,0.124,0.14,0.124,0.216
		c0,0.077-0.062,0.186-0.154,0.186c-0.463,0-0.894,0.046-0.894,0.37c0,0.508,1.248,3.622,1.571,4.3
		C30.696,24.689,30.942,24.103,30.942,23.687z"/>
	<path fill="#F1B82D" d="M33.947,25.351c-0.046,0.293-0.062,0.586-0.062,0.878c0,1.002,0.848,2.544,2.528,2.544
		c0.708,0,1.31-0.216,1.803-0.925c0.093-0.123,0.154-0.262,0.231-0.262c0.108,0,0.247,0.138,0.247,0.184
		c0,0.047-0.617,1.958-2.651,1.958c-2.204,0-3.36-1.357-3.36-3.513c0-2.205,1.495-3.699,3.082-3.699
		c2.559,0,2.759,2.204,2.759,2.665c0,0.154-0.062,0.17-0.184,0.17H33.947z M36.598,24.89c0.308,0,0.524-0.093,0.524-0.51
		c0-1.201-0.833-1.464-1.357-1.464c-1.109,0-1.571,0.925-1.725,1.973H36.598z"/>
	<path fill="#F1B82D" d="M40.681,24.442c0-0.539-0.139-0.847-0.91-0.924c-0.123-0.016-0.139-0.077-0.139-0.184
		c0-0.124,0.046-0.201,0.123-0.217c1.758-0.354,1.974-0.754,2.158-0.754c0.031,0,0.061,0.092,0.061,0.154
		c0,0.184-0.077,0.57-0.077,1.402c0.508-0.571,1.341-1.341,2.158-1.341c0.54,0,0.986,0.293,0.986,0.863
		c0,0.401-0.307,0.771-0.754,0.771c-0.631,0-0.724-0.586-1.187-0.586c-0.262,0-0.678,0.23-1.064,0.663
		c-0.107,0.123-0.107,0.293-0.107,0.447v3.498c0,0.57,0,0.91,0.77,0.91c0.571,0,0.633,0.016,0.633,0.184
		c0,0.2-0.062,0.216-0.231,0.216c-0.555,0-1.048-0.03-1.757-0.03c-1.234,0-1.495,0.03-1.788,0.03c-0.108,0-0.139-0.092-0.139-0.2
		c0-0.154,0.184-0.2,0.477-0.2c0.663,0,0.787-0.124,0.787-0.787V24.442z"/>
	<path fill="#F1B82D" d="M50.296,27.632c0,0.755-0.4,2.096-2.512,2.096c-0.277,0-1.171-0.124-1.772-0.124
		c-0.03,0-0.077-0.046-0.077-0.077c-0.015-0.153-0.354-1.51-0.354-1.664c0-0.093,0.216-0.093,0.277-0.093
		c0.37,0,0.463,1.557,1.942,1.557c1.094,0,1.403-0.831,1.403-1.371c0-1.618-3.452-1.094-3.452-3.283
		c0-1.263,1.048-2.096,2.342-2.096c0.708,0,1.603,0.123,1.665,0.139c0.2,0.046,0.23,0.338,0.23,0.431
		c0.031,0.631,0.17,1.033,0.17,1.233c0,0.093-0.093,0.124-0.17,0.124c-0.139,0-0.23-0.016-0.307-0.216
		c-0.108-0.262-0.508-1.31-1.604-1.31c-0.724,0-1.233,0.416-1.233,1.156c0,0.539,0.386,0.863,0.724,1.033
		C49.187,25.937,50.296,25.891,50.296,27.632z"/>
	<path fill="#F1B82D" d="M53.624,28.079c0,0.878,0.031,1.064,0.709,1.064c0.34,0,0.371,0.016,0.371,0.2c0,0.093,0,0.2-0.154,0.2
		c-0.077,0-0.278-0.03-1.279-0.03c-1.448,0-1.849,0.03-2.081,0.03c-0.123,0-0.123-0.092-0.123-0.169
		c0-0.201,0.016-0.231,0.586-0.231c0.4,0,0.54-0.154,0.631-0.37c0.061-0.139,0.093-1.233,0.093-2.22v-2.112
		c0-0.539-0.139-0.847-0.91-0.924c-0.123-0.016-0.139-0.077-0.139-0.184c0-0.124,0.047-0.201,0.124-0.217
		c1.757-0.354,1.972-0.754,2.157-0.754c0.062,0,0.093,0.077,0.093,0.169c0,0.063-0.077,0.217-0.077,2.219V28.079z M52.191,19.403
		c0-0.416,0.339-0.817,0.801-0.817c0.461,0,0.801,0.401,0.801,0.817c0,0.416-0.34,0.817-0.801,0.817
		C52.53,20.22,52.191,19.818,52.191,19.403z"/>
	<path fill="#F1B82D" d="M57.352,26.801c0,1.633,0.139,2.218,1.357,2.218c0.524,0,0.987-0.354,1.047-0.354
		c0.063,0,0.17,0.154,0.17,0.247c0,0.093-0.647,0.817-2.049,0.817c-1.772,0-1.772-1.525-1.772-1.911v-4.053
		c0-0.123-0.046-0.2-0.154-0.2h-0.77c-0.047,0-0.093-0.047-0.093-0.14c0-0.062,0.016-0.154,0.093-0.216
		c1.433-1.078,1.725-1.895,2.034-1.895c0.093,0,0.186,0.061,0.186,0.2c0,0.277-0.047,0.54-0.047,1.418h2.374
		c0.107,0,0.154,0.107,0.154,0.324c0,0.2-0.093,0.386-0.416,0.386c-0.108,0-0.833-0.077-2.112-0.077V26.801z"/>
	<path fill="#F1B82D" d="M66.661,23.764c0-0.509-0.725-0.524-1.188-0.524c-0.137,0-0.153-0.077-0.153-0.201
		c0-0.107,0.061-0.2,0.138-0.2c0.493,0,1.001,0.031,1.494,0.031c0.478,0,0.957-0.031,1.434-0.031c0.108,0,0.108,0.14,0.108,0.2
		c0,0.14-0.047,0.185-0.263,0.201c-0.524,0.046-0.74,0.139-0.971,0.678c-0.554,1.278-2.681,5.749-3.021,6.611
		c-1.187,2.975-1.695,3.175-2.204,3.175c-0.493,0-0.863-0.431-0.863-0.91c0-0.463,0.447-0.831,0.894-0.831
		c0.384,0,0.585,0.261,0.77,0.261c0.277,0,1.002-1.479,1.002-2.204c0-0.386-0.37-1.295-0.54-1.727
		c-0.971-2.496-1.264-3.837-1.588-4.7c-0.139-0.354-0.909-0.354-1.109-0.354c-0.108,0-0.14-0.108-0.14-0.216
		c0-0.123,0.077-0.186,0.17-0.186c0.186,0,1.155,0.031,1.711,0.031c0.524,0,1.064-0.031,1.525-0.031c0.154,0,0.186,0.093,0.186,0.2
		c0,0.077-0.047,0.201-0.154,0.201c-0.093,0-0.755,0-0.755,0.339c0,0.74,0.524,2.265,1.525,4.84
		C65.381,26.954,66.661,24.242,66.661,23.764z"/>
	<path fill="#F1B82D" d="M76.305,29.728c-2.111,0-3.575-1.525-3.575-3.576c0-2.034,1.525-3.575,3.575-3.575
		c2.065,0,3.592,1.495,3.592,3.575C79.897,28.31,78.463,29.728,76.305,29.728z M76.305,22.979c-1.602,0-2.111,1.664-2.111,3.174
		c0,1.311,0.308,3.175,2.111,3.175c1.819,0,2.127-1.864,2.127-3.175C78.432,24.643,77.923,22.979,76.305,22.979z"/>
	<path fill="#F1B82D" d="M83.408,28.233c0,0.57,0,0.91,0.771,0.91c0.57,0,0.631,0.016,0.631,0.184c0,0.2-0.062,0.216-0.231,0.216
		c-0.554,0-1.047-0.03-1.757-0.03c-1.233,0-1.494,0.03-1.633,0.03c-0.108,0-0.14-0.092-0.14-0.2c0-0.154,0.031-0.2,0.324-0.2
		c0.663,0,0.786-0.124,0.786-0.787v-4.299c0-0.185,0-0.493-0.293-0.493H81.02c-0.108,0-0.186,0-0.186-0.201
		c0-0.123,0.108-0.184,0.478-0.262c0.601-0.139,0.755-0.17,0.801-0.864c0.154-2.342,0.848-3.636,2.666-4.115
		C85.028,18.062,85.443,18,85.72,18c0.401,0,0.971,0.154,0.971,0.663c0,0.447-0.263,0.755-0.724,0.755
		c-0.14,0-0.478-0.047-0.848-0.354c-0.261-0.217-0.54-0.355-0.677-0.355c-0.879,0-1.034,1.28-1.034,2.235v1.988h1.911
		c0.108,0,0.154,0.107,0.154,0.324c0,0.2-0.092,0.386-0.416,0.386c-0.107,0-1.294-0.077-1.649-0.077V28.233z"/>
	<path fill="#F1B82D" d="M102.532,18.693c0.046-0.123,0.093-0.169,0.185-0.169c0.077,0,1.202,0.062,1.557,0.062
		c0.263,0,1.573-0.062,1.68-0.062c0.154,0,0.17,0.123,0.17,0.262c0,0.138-0.061,0.201-0.186,0.201c-1.387,0-1.556,0.107-1.556,0.817
		c0,1.001,0.169,4.238,0.323,8.552c0.016,0.524,0.447,0.725,0.848,0.725c0.863,0,0.878,0.092,0.878,0.2
		c0,0.231-0.077,0.262-0.17,0.262c-0.139,0-0.309-0.03-2.451-0.03c-2.003,0-2.096,0.03-2.22,0.03c-0.169,0-0.169-0.107-0.169-0.246
		c0-0.108,0.03-0.216,0.74-0.216c1.017,0,1.033-0.247,1.033-0.864c0-0.924-0.231-5.903-0.355-8.785h-0.03
		c-1.125,2.882-2.543,6.197-3.56,8.677c-0.586,1.417-0.586,1.587-0.785,1.587c-0.2,0-0.231-0.139-0.555-1.201
		c-0.339-1.11-2.851-7.922-2.912-7.922c-0.261,1.125-1.279,6.241-1.279,7.782c0,0.478,0.262,0.725,0.771,0.725
		c0.384,0,0.833,0.03,0.833,0.123c0,0.293,0,0.338-0.17,0.338c-0.124,0-0.278-0.03-1.865-0.03c-1.403,0-1.51,0.03-1.603,0.03
		c-0.123,0-0.17-0.015-0.17-0.262c0-0.154,0.077-0.2,0.817-0.2c0.54,0,0.647-0.201,0.817-1.079c0.417-2.22,0.786-4.453,1.264-6.673
		c0.154-0.694,0.2-1.125,0.2-1.449c0-0.092-0.216-0.663-0.401-0.77c-0.123-0.077-0.847-0.123-1.325-0.123
		c-0.186,0-0.186-0.124-0.186-0.231c0-0.124,0.031-0.231,0.17-0.231c0.293,0,1.618,0.062,1.788,0.062c0.4,0,1.047-0.062,1.248-0.062
		c0.169,0,0.216,0.169,0.37,0.724c0.323,1.156,2.558,7.398,2.835,7.968C100.266,24.488,101.437,21.668,102.532,18.693z"/>
	<path fill="#F1B82D" d="M109.387,28.079c0,0.878,0.031,1.064,0.71,1.064c0.339,0,0.37,0.016,0.37,0.2c0,0.093,0,0.2-0.154,0.2
		c-0.077,0-0.278-0.03-1.279-0.03c-1.449,0-1.849,0.03-2.081,0.03c-0.123,0-0.123-0.092-0.123-0.169
		c0-0.201,0.016-0.231,0.586-0.231c0.4,0,0.54-0.154,0.632-0.37c0.062-0.139,0.093-1.233,0.093-2.22v-2.112
		c0-0.539-0.138-0.847-0.91-0.924c-0.123-0.016-0.137-0.077-0.137-0.184c0-0.124,0.046-0.201,0.123-0.217
		c1.757-0.354,1.973-0.754,2.157-0.754c0.063,0,0.093,0.077,0.093,0.169c0,0.063-0.077,0.217-0.077,2.219V28.079z M107.955,19.403
		c0-0.416,0.338-0.817,0.801-0.817c0.463,0,0.801,0.401,0.801,0.817c0,0.416-0.338,0.817-0.801,0.817
		C108.293,20.22,107.955,19.818,107.955,19.403z"/>
	<path fill="#F1B82D" d="M116.044,27.632c0,0.755-0.4,2.096-2.512,2.096c-0.277,0-1.171-0.124-1.773-0.124
		c-0.03,0-0.077-0.046-0.077-0.077c-0.015-0.153-0.354-1.51-0.354-1.664c0-0.093,0.217-0.093,0.277-0.093
		c0.371,0,0.463,1.557,1.942,1.557c1.094,0,1.402-0.831,1.402-1.371c0-1.618-3.452-1.094-3.452-3.283
		c0-1.263,1.048-2.096,2.342-2.096c0.71,0,1.604,0.123,1.665,0.139c0.2,0.046,0.231,0.338,0.231,0.431
		c0.03,0.631,0.169,1.033,0.169,1.233c0,0.093-0.092,0.124-0.169,0.124c-0.14,0-0.231-0.016-0.309-0.216
		c-0.108-0.262-0.508-1.31-1.604-1.31c-0.724,0-1.233,0.416-1.233,1.156c0,0.539,0.386,0.863,0.724,1.033
		C114.934,25.937,116.044,25.891,116.044,27.632z"/>
	<path fill="#F1B82D" d="M121.746,27.632c0,0.755-0.4,2.096-2.512,2.096c-0.277,0-1.171-0.124-1.773-0.124
		c-0.03,0-0.077-0.046-0.077-0.077c-0.016-0.153-0.354-1.51-0.354-1.664c0-0.093,0.216-0.093,0.277-0.093
		c0.37,0,0.463,1.557,1.942,1.557c1.094,0,1.402-0.831,1.402-1.371c0-1.618-3.452-1.094-3.452-3.283
		c0-1.263,1.048-2.096,2.342-2.096c0.709,0,1.603,0.123,1.664,0.139c0.201,0.046,0.231,0.338,0.231,0.431
		c0.031,0.631,0.17,1.033,0.17,1.233c0,0.093-0.093,0.124-0.17,0.124c-0.138,0-0.231-0.016-0.308-0.216
		c-0.107-0.262-0.509-1.31-1.602-1.31c-0.724,0-1.233,0.416-1.233,1.156c0,0.539,0.386,0.863,0.724,1.033
		C120.636,25.937,121.746,25.891,121.746,27.632z"/>
	<path fill="#F1B82D" d="M126.445,29.728c-2.111,0-3.575-1.525-3.575-3.576c0-2.034,1.525-3.575,3.575-3.575
		c2.065,0,3.592,1.495,3.592,3.575C130.037,28.31,128.603,29.728,126.445,29.728z M126.445,22.979c-1.602,0-2.111,1.664-2.111,3.174
		c0,1.311,0.308,3.175,2.111,3.175c1.819,0,2.127-1.864,2.127-3.175C128.572,24.643,128.063,22.979,126.445,22.979z"/>
	<path fill="#F1B82D" d="M131.961,24.735c0-1.357-0.154-1.45-0.955-1.45c-0.123,0-0.339,0-0.339-0.154c0-0.123,0-0.307,0.169-0.307
		c0.154,0,0.401,0.046,0.91,0.046c0.54,0,1.126-0.046,1.341-0.046c0.093,0,0.123,0,0.123,0.215v4.162
		c0,1.155,0.37,1.818,1.511,1.818c0.554,0,1.525-0.339,1.525-0.816v-3.991c0-0.833-0.154-0.926-0.956-0.926
		c-0.277,0-0.493,0-0.493-0.154c0-0.23,0-0.307,0.107-0.307c0.216,0,0.401,0.046,1.341,0.046c0.386,0,0.785-0.046,1.171-0.046
		c0.139,0,0.216,0.062,0.216,0.215c0,0.062-0.138,1.249-0.138,2.343v2.897c0,0.247,0,0.571,0.386,0.571
		c0.216,0,0.554-0.061,0.663-0.061c0.062,0,0.093,0,0.093,0.293c0,0.092-0.016,0.123-0.508,0.2c-1.311,0.216-1.681,0.4-1.773,0.4
		c-0.108,0-0.186-0.107-0.186-0.216c0-0.185,0.031-0.431,0.046-0.585c-0.77,0.571-1.71,0.848-2.295,0.848
		c-1.527,0-1.958-0.987-1.958-2.589V24.735z"/>
	<path fill="#F1B82D" d="M140.375,24.442c0-0.539-0.139-0.847-0.91-0.924c-0.123-0.016-0.138-0.077-0.138-0.184
		c0-0.124,0.046-0.201,0.123-0.217c1.757-0.354,1.974-0.754,2.158-0.754c0.031,0,0.062,0.092,0.062,0.154
		c0,0.184-0.077,0.57-0.077,1.402c0.509-0.571,1.341-1.341,2.158-1.341c0.54,0,0.985,0.293,0.985,0.863
		c0,0.401-0.307,0.771-0.754,0.771c-0.631,0-0.724-0.586-1.187-0.586c-0.261,0-0.678,0.23-1.064,0.663
		c-0.107,0.123-0.107,0.293-0.107,0.447v3.498c0,0.57,0,0.91,0.77,0.91c0.571,0,0.633,0.016,0.633,0.184
		c0,0.2-0.062,0.216-0.231,0.216c-0.555,0-1.048-0.03-1.757-0.03c-1.234,0-1.495,0.03-1.788,0.03c-0.108,0-0.138-0.092-0.138-0.2
		c0-0.154,0.184-0.2,0.477-0.2c0.663,0,0.787-0.124,0.787-0.787V24.442z"/>
	<path fill="#F1B82D" d="M147.617,28.079c0,0.878,0.03,1.064,0.709,1.064c0.339,0,0.37,0.016,0.37,0.2c0,0.093,0,0.2-0.154,0.2
		c-0.077,0-0.277-0.03-1.279-0.03c-1.449,0-1.85,0.03-2.081,0.03c-0.123,0-0.123-0.092-0.123-0.169c0-0.201,0.016-0.231,0.585-0.231
		c0.401,0,0.54-0.154,0.633-0.37c0.062-0.139,0.092-1.233,0.092-2.22v-2.112c0-0.539-0.139-0.847-0.909-0.924
		c-0.124-0.016-0.139-0.077-0.139-0.184c0-0.124,0.046-0.201,0.123-0.217c1.757-0.354,1.972-0.754,2.158-0.754
		c0.061,0,0.092,0.077,0.092,0.169c0,0.063-0.076,0.217-0.076,2.219V28.079z M146.184,19.403c0-0.416,0.339-0.817,0.802-0.817
		c0.462,0,0.801,0.401,0.801,0.817c0,0.416-0.339,0.817-0.801,0.817C146.522,20.22,146.184,19.818,146.184,19.403z"/>
</g>
<g>
</g>
<g>
</g>
<g>
</g>
<g>
</g>
<g>
</g>
<g>
</g>
<g>
</g>
<g>
</g>
<g>
</g>
<g>
</g>
<g>
</g>
<g>
</g>
<g>
</g>
<g>
</g>
<g>
</g>
</svg>
