<svg id="63c9b415-2066-486f-af87-ae175c8a89c5" data-name="Layer 1" xmlns="http://www.w3.org/2000/svg" width="242.95" height="103.66" viewBox="0 0 242.95 103.66"><defs><style>.\32 b7e9e15-93de-4a9f-86b9-34ab4456ab79{fill:#900000;}.ceea1a6f-fb82-436d-8781-1a539f4d1941{fill:#fff;}.\36 ed644a4-e7e0-4a3a-b5d8-7eac340c6029{fill:#f1b82d;}</style></defs><title>unit-wordmark-large</title><path d="M5.46,11.41c0,3.37,1.41,6.32,5.64,6.32,2.95,0,5.49-1.64,5.49-7.63v-5c0-3.5-.73-3.5-3.32-3.5-0.2,0-.2-0.15-0.2-0.38s0.07-.38.2-0.38c0.43,0,2.07.1,3.7,0.1,0.78,0,2.92-.1,3.27-0.1s0.35,0,.35.43a0.28,0.28,0,0,1-.23.33c-2.42,0-2.92,0-2.92,3v6c0,6.8-4.33,8.61-7.25,8.61C4.56,19.16,3,15.38,3,12.62V6.85c0-1.79,0-2.39-.05-3.55,0-1.49-.45-1.69-2.64-1.69C0,1.61,0,1.41,0,1.18A0.27,0.27,0,0,1,.23.86c0.2,0,2.39.1,4,.1s3.8-.1,4-0.1a0.27,0.27,0,0,1,.23.33c0,0.23,0,.43-0.28.43-2.19,0-2.62.2-2.64,1.69,0,1.16-.05,1.76-0.05,3.55v4.56Z" transform="translate(0 0)"/><path d="M24.88,16.47c0,1.44,0,1.74,1.16,1.74,0.68,0,.73,0,0.73.33s0,0.33-.25.33-0.45,0-2.22,0c-2.37,0-3,0-3.4,0-0.2,0-.2-0.15-0.2-0.28,0-.33,0-0.38,1-0.38a0.94,0.94,0,0,0,1-.6A25.51,25.51,0,0,0,22.84,14V10.52c0-.88-0.23-1.38-1.49-1.51a0.24,0.24,0,0,1-.23-0.3,0.31,0.31,0,0,1,.2-0.35,11.26,11.26,0,0,0,3.53-1.23c0.05,0,.07.07,0.07,0.28s0,0.71,0,1.81c1.31-.88,2.59-1.74,4-1.74,0.86,0,3.32.18,3.32,3.78v6c0,0.43.08,0.91,1.64,0.91,0.25,0,.25.15,0.25,0.33s0,0.33-.35.33c-0.76,0-1.21,0-2.54,0-2,0-2.44,0-2.64,0s-0.18-.17-0.18-0.3a0.32,0.32,0,0,1,.35-0.35c1.21,0,1.44-.1,1.44-0.93V12.77c0-2.34-.2-3.9-2.82-3.9A3.73,3.73,0,0,0,24.88,10v6.45Z" transform="translate(0 0)"/><path d="M39,16.47c0,1.44.05,1.74,1.16,1.74,0.55,0,.6,0,0.6.33s0,0.33-.25.33-0.45,0-2.09,0c-2.37,0-3,0-3.4,0-0.2,0-.2-0.15-0.2-0.28,0-.33,0-0.38,1-0.38a0.94,0.94,0,0,0,1-.6A25.23,25.23,0,0,0,37,14V10.52c0-.88-0.23-1.38-1.49-1.51a0.23,0.23,0,0,1-.22-0.3,0.31,0.31,0,0,1,.2-0.35A11.24,11.24,0,0,0,39,7.13c0.1,0,.15.13,0.15,0.28A22.84,22.84,0,0,0,39,11v5.44ZM36.66,2.29A1.31,1.31,0,1,1,38,3.63,1.34,1.34,0,0,1,36.66,2.29Z" transform="translate(0 0)"/><path d="M50.55,9.29c0-.73-1.31-0.73-1.69-0.73a0.29,0.29,0,0,1-.23-0.35A0.31,0.31,0,0,1,49,7.91c0.68,0,1.46.05,2.17,0.05s1.48-.05,2.21-0.05a0.26,0.26,0,0,1,.23.3,0.23,0.23,0,0,1-.25.28c-1.46.23-1.54,0.33-2.34,2.29-0.88,2.17-2.39,5.34-2.85,6.4-0.7,1.69-.93,2-1.13,2s-0.45-.53-1-1.61c-0.88-1.89-3-8-3.32-8.54a0.86,0.86,0,0,0-.88-0.4c-0.68,0-.78-0.07-0.78-0.43a0.27,0.27,0,0,1,.28-0.28c0.81,0,1.59.05,2.39,0.05l3-.05c0.18,0,.2.23,0.2,0.35a0.3,0.3,0,0,1-.25.3c-0.76,0-1.46.07-1.46,0.6,0,0.83,2,5.92,2.57,7C50.15,10.93,50.55,10,50.55,9.29Z" transform="translate(0 0)"/><path d="M55.46,12a9.25,9.25,0,0,0-.1,1.44,4.25,4.25,0,0,0,4.13,4.16,3.28,3.28,0,0,0,2.95-1.51,0.93,0.93,0,0,1,.38-0.43,0.53,0.53,0,0,1,.4.3,4.6,4.6,0,0,1-4.33,3.2c-3.6,0-5.49-2.22-5.49-5.74s2.44-6,5-6a4.21,4.21,0,0,1,4.51,4.35c0,0.25-.1.28-0.3,0.28H55.46Zm4.33-.75a0.72,0.72,0,0,0,.86-0.83A2.13,2.13,0,0,0,58.43,8c-1.81,0-2.57,1.51-2.82,3.22h4.18Z" transform="translate(0 0)"/><path d="M66.47,10.52c0-.88-0.23-1.38-1.49-1.51a0.24,0.24,0,0,1-.23-0.3A0.31,0.31,0,0,1,65,8.36a11.24,11.24,0,0,0,3.53-1.23,0.29,0.29,0,0,1,.1.25c0,0.3-.13.93-0.13,2.29,0.83-.93,2.19-2.19,3.53-2.19a1.43,1.43,0,0,1,1.61,1.41,1.24,1.24,0,0,1-1.23,1.26c-1,0-1.18-1-1.94-1a2.83,2.83,0,0,0-1.74,1.08,1.07,1.07,0,0,0-.18.73v5.72c0,0.93,0,1.49,1.26,1.49,0.93,0,1,0,1,.3s-0.1.35-.38,0.35c-0.91,0-1.71,0-2.87,0-2,0-2.44,0-2.92,0-0.18,0-.23-0.15-0.23-0.33s0.3-.33.78-0.33c1.08,0,1.29-.2,1.29-1.29v-6.4Z" transform="translate(0 0)"/><path d="M82.18,15.74c0,1.23-.65,3.42-4.1,3.42-0.45,0-1.91-.2-2.9-0.2a0.16,0.16,0,0,1-.13-0.13c0-.25-0.58-2.47-0.58-2.72s0.35-.15.45-0.15c0.6,0,.76,2.54,3.17,2.54a2.14,2.14,0,0,0,2.29-2.24c0-2.64-5.64-1.79-5.64-5.36a3.53,3.53,0,0,1,3.83-3.42,20.13,20.13,0,0,1,2.72.23,0.71,0.71,0,0,1,.38.7c0.05,1,.28,1.69.28,2a0.24,0.24,0,0,1-.28.2,0.44,0.44,0,0,1-.5-0.35,3,3,0,0,0-2.62-2.14,1.82,1.82,0,0,0-2,1.89,1.92,1.92,0,0,0,1.18,1.69C80.36,13,82.18,12.89,82.18,15.74Z" transform="translate(0 0)"/><path d="M87.61,16.47c0,1.44.05,1.74,1.16,1.74,0.55,0,.61,0,0.61.33s0,0.33-.25.33-0.45,0-2.09,0c-2.37,0-3,0-3.4,0-0.2,0-.2-0.15-0.2-0.28,0-.33,0-0.38,1-0.38a0.94,0.94,0,0,0,1-.6A25.56,25.56,0,0,0,85.57,14V10.52c0-.88-0.23-1.38-1.49-1.51a0.24,0.24,0,0,1-.23-0.3,0.31,0.31,0,0,1,.2-0.35,11.23,11.23,0,0,0,3.52-1.23,0.23,0.23,0,0,1,.15.28A22.84,22.84,0,0,0,87.61,11v5.44ZM85.27,2.29a1.31,1.31,0,1,1,1.31,1.33A1.34,1.34,0,0,1,85.27,2.29Z" transform="translate(0 0)"/><path d="M93.7,14.38c0,2.67.23,3.62,2.22,3.62a4.13,4.13,0,0,0,1.71-.58,0.5,0.5,0,0,1,.28.4c0,0.15-1.06,1.33-3.35,1.33A2.74,2.74,0,0,1,91.67,16V9.42a0.26,0.26,0,0,0-.25-0.33H90.16A0.19,0.19,0,0,1,90,8.86a0.44,0.44,0,0,1,.15-0.35c2.34-1.76,2.82-3.1,3.32-3.1a0.3,0.3,0,0,1,.3.33c0,0.45-.08.88-0.08,2.32h3.88c0.18,0,.25.18,0.25,0.53a0.58,0.58,0,0,1-.68.63c-0.18,0-1.36-.13-3.45-0.13v5.29Z" transform="translate(0 0)"/><path d="M108.91,9.42c0-.83-1.19-0.86-1.94-0.86-0.22,0-.25-0.13-0.25-0.33a0.29,0.29,0,0,1,.23-0.33c0.81,0,1.64.05,2.44,0.05s1.56-.05,2.34-0.05c0.18,0,.18.23,0.18,0.33s-0.08.3-.43,0.33a1.51,1.51,0,0,0-1.59,1.11c-0.91,2.09-4.38,9.39-4.94,10.8-1.94,4.86-2.77,5.19-3.6,5.19a1.42,1.42,0,1,1,.05-2.84,5.45,5.45,0,0,1,1.26.43c0.45,0,1.64-2.42,1.64-3.6a12,12,0,0,0-.88-2.82c-1.59-4.08-2.06-6.27-2.59-7.68C100.6,8.56,99.34,8.56,99,8.56a0.29,0.29,0,0,1-.23-0.35,0.27,0.27,0,0,1,.28-0.3c0.3,0,1.89.05,2.8,0.05s1.74-.05,2.49-0.05a0.27,0.27,0,0,1,.3.33,0.31,0.31,0,0,1-.25.33c-0.15,0-1.23,0-1.23.55,0,1.21.86,3.7,2.49,7.91C106.82,14.63,108.91,10.2,108.91,9.42Z" transform="translate(0 0)"/><path d="M124.67,19.16a5.63,5.63,0,0,1-5.84-5.84,5.85,5.85,0,0,1,11.71,0A5.52,5.52,0,0,1,124.67,19.16Zm0-11c-2.62,0-3.45,2.72-3.45,5.19,0,2.14.5,5.19,3.45,5.19s3.47-3,3.47-5.19C128.15,10.85,127.32,8.13,124.67,8.13Z" transform="translate(0 0)"/><path d="M136.28,16.72c0,0.93,0,1.49,1.26,1.49,0.93,0,1,0,1,.3s-0.1.35-.38,0.35c-0.91,0-1.71,0-2.87,0-2,0-2.44,0-2.67,0s-0.23-.15-0.23-0.33,0.05-.33.53-0.33c1.08,0,1.28-.2,1.28-1.29v-7c0-.3,0-0.8-0.48-0.8h-1.38c-0.18,0-.3,0-0.3-0.33s0.18-.3.78-0.43c1-.23,1.23-0.28,1.31-1.41C134.41,3.1,135.55,1,138.52.2a7.56,7.56,0,0,1,1.54-.2c0.66,0,1.59.25,1.59,1.08a1.13,1.13,0,0,1-1.18,1.23,2.26,2.26,0,0,1-1.39-.58A2.32,2.32,0,0,0,138,1.16c-1.44,0-1.69,2.09-1.69,3.65V8.06h3.12c0.18,0,.25.18,0.25,0.53a0.58,0.58,0,0,1-.68.63c-0.18,0-2.11-.13-2.69-0.13v7.63Z" transform="translate(0 0)"/><path d="M167.52,1.13a0.31,0.31,0,0,1,.3-0.28c0.13,0,2,.1,2.54.1s2.57-.1,2.74-0.1,0.28,0.2.28,0.43a0.28,0.28,0,0,1-.3.33c-2.27,0-2.54.18-2.54,1.33,0,1.64.28,6.92,0.53,14a1.24,1.24,0,0,0,1.39,1.18c1.41,0,1.44.15,1.44,0.33,0,0.38-.13.43-0.28,0.43s-0.5,0-4,0c-3.27,0-3.42,0-3.63,0s-0.28-.17-0.28-0.4,0-.35,1.21-0.35c1.66,0,1.69-.4,1.69-1.41,0-1.51-.38-9.64-0.58-14.35h0c-1.84,4.71-4.16,10.12-5.82,14.18-1,2.32-1,2.59-1.28,2.59s-0.38-.23-0.91-2-4.66-12.94-4.76-12.94c-0.43,1.84-2.09,10.2-2.09,12.72a1.09,1.09,0,0,0,1.26,1.18,2.38,2.38,0,0,1,1.36.2c0,0.48,0,.55-0.28.55s-0.45,0-3,0c-2.29,0-2.47,0-2.62,0s-0.28,0-.28-0.43c0-.25.13-0.33,1.33-0.33,0.88,0,1.06-.33,1.33-1.76,0.68-3.63,1.28-7.28,2.07-10.9a11,11,0,0,0,.33-2.37,2.64,2.64,0,0,0-.65-1.26,8.49,8.49,0,0,0-2.16-.2c-0.3,0-.3-0.2-0.3-0.38s0.05-.38.28-0.38c0.48,0,2.64.1,2.92,0.1,0.65,0,1.71-.1,2-0.1S157,1.13,157.3,2c0.53,1.89,4.18,12.09,4.63,13C163.82,10.6,165.73,6,167.52,1.13Z" transform="translate(0 0)"/><path d="M178.72,16.47c0,1.44.05,1.74,1.16,1.74,0.55,0,.6,0,0.6.33s0,0.33-.25.33-0.45,0-2.09,0c-2.37,0-3,0-3.4,0-0.2,0-.2-0.15-0.2-0.28,0-.33,0-0.38,1-0.38a0.94,0.94,0,0,0,1-.6,25.28,25.28,0,0,0,.15-3.63V10.52c0-.88-0.23-1.38-1.49-1.51a0.23,0.23,0,0,1-.22-0.3,0.31,0.31,0,0,1,.2-0.35,11.23,11.23,0,0,0,3.52-1.23c0.1,0,.15.13,0.15,0.28a22.79,22.79,0,0,0-.13,3.63v5.44ZM176.38,2.29a1.31,1.31,0,1,1,1.31,1.33A1.34,1.34,0,0,1,176.38,2.29Z" transform="translate(0 0)"/><path d="M189.6,15.74c0,1.23-.65,3.42-4.1,3.42-0.45,0-1.91-.2-2.9-0.2a0.16,0.16,0,0,1-.13-0.13c0-.25-0.58-2.47-0.58-2.72s0.35-.15.45-0.15c0.61,0,.76,2.54,3.17,2.54a2.14,2.14,0,0,0,2.29-2.24c0-2.64-5.64-1.79-5.64-5.36A3.53,3.53,0,0,1,186,7.48a20.07,20.07,0,0,1,2.72.23,0.71,0.71,0,0,1,.38.7c0,1,.28,1.69.28,2a0.23,0.23,0,0,1-.28.2,0.44,0.44,0,0,1-.5-0.35A3,3,0,0,0,186,8.13,1.82,1.82,0,0,0,184,10a1.91,1.91,0,0,0,1.18,1.69C187.79,13,189.6,12.89,189.6,15.74Z" transform="translate(0 0)"/><path d="M198.91,15.74c0,1.23-.65,3.42-4.1,3.42-0.45,0-1.91-.2-2.9-0.2a0.16,0.16,0,0,1-.13-0.13c0-.25-0.58-2.47-0.58-2.72s0.35-.15.45-0.15c0.6,0,.76,2.54,3.17,2.54a2.14,2.14,0,0,0,2.29-2.24c0-2.64-5.64-1.79-5.64-5.36a3.53,3.53,0,0,1,3.83-3.42,20.07,20.07,0,0,1,2.72.23,0.71,0.71,0,0,1,.38.7c0.05,1,.28,1.69.28,2a0.24,0.24,0,0,1-.28.2,0.44,0.44,0,0,1-.5-0.35,3,3,0,0,0-2.62-2.14,1.82,1.82,0,0,0-2,1.89,1.91,1.91,0,0,0,1.18,1.69C197.1,13,198.91,12.89,198.91,15.74Z" transform="translate(0 0)"/><path d="M206.59,19.16a5.63,5.63,0,0,1-5.84-5.84,5.85,5.85,0,0,1,11.71,0A5.52,5.52,0,0,1,206.59,19.16Zm0-11c-2.62,0-3.45,2.72-3.45,5.19,0,2.14.5,5.19,3.45,5.19s3.47-3,3.47-5.19C210.07,10.85,209.24,8.13,206.59,8.13Z" transform="translate(0 0)"/><path d="M215.6,11c0-2.22-.25-2.37-1.56-2.37-0.2,0-.55,0-0.55-0.25s0-.5.28-0.5S214.42,8,215.25,8s1.84-.07,2.19-0.07c0.15,0,.2,0,0.2.35V15c0,1.89.6,3,2.47,3,0.91,0,2.49-.55,2.49-1.33V10.15c0-1.36-.25-1.51-1.56-1.51-0.45,0-.8,0-0.8-0.25s0-.5.17-0.5c0.35,0,.66.07,2.19,0.07,0.63,0,1.28-.07,1.91-0.07a0.31,0.31,0,0,1,.35.35c0,0.1-.23,2-0.23,3.83v4.73c0,0.4,0,.93.63,0.93,0.35,0,.91-0.1,1.08-0.1s0.15,0,.15.48c0,0.15,0,.2-0.83.33a23,23,0,0,0-2.9.65,0.34,0.34,0,0,1-.3-0.35c0-.3.05-0.7,0.07-1a7,7,0,0,1-3.75,1.39c-2.49,0-3.2-1.61-3.2-4.23V11Z" transform="translate(0 0)"/><path d="M229.35,10.52c0-.88-0.23-1.38-1.49-1.51a0.24,0.24,0,0,1-.23-0.3,0.31,0.31,0,0,1,.2-0.35,11.26,11.26,0,0,0,3.53-1.23,0.29,0.29,0,0,1,.1.25c0,0.3-.13.93-0.13,2.29,0.83-.93,2.19-2.19,3.53-2.19a1.43,1.43,0,0,1,1.61,1.41,1.24,1.24,0,0,1-1.23,1.26c-1,0-1.18-1-1.94-1a2.83,2.83,0,0,0-1.74,1.08,1.07,1.07,0,0,0-.17.73v5.72c0,0.93,0,1.49,1.26,1.49,0.93,0,1,0,1,.3s-0.1.35-.38,0.35c-0.91,0-1.71,0-2.87,0-2,0-2.44,0-2.92,0-0.18,0-.23-0.15-0.23-0.33s0.3-.33.78-0.33c1.08,0,1.29-.2,1.29-1.29v-6.4Z" transform="translate(0 0)"/><path d="M241.18,16.47c0,1.44,0,1.74,1.16,1.74,0.55,0,.6,0,0.6.33s0,0.33-.25.33-0.45,0-2.09,0c-2.37,0-3,0-3.4,0-0.2,0-.2-0.15-0.2-0.28,0-.33,0-0.38,1-0.38a0.94,0.94,0,0,0,1-.6,25.63,25.63,0,0,0,.15-3.63V10.52c0-.88-0.23-1.38-1.48-1.51a0.24,0.24,0,0,1-.23-0.3,0.31,0.31,0,0,1,.2-0.35,11.29,11.29,0,0,0,3.53-1.23c0.1,0,.15.13,0.15,0.28a23.08,23.08,0,0,0-.12,3.63v5.44ZM238.84,2.29a1.31,1.31,0,1,1,1.31,1.33A1.34,1.34,0,0,1,238.84,2.29Z" transform="translate(0 0)"/><path class="2b7e9e15-93de-4a9f-86b9-34ab4456ab79" d="M5.46,37.41c0,3.37,1.41,6.32,5.64,6.32,2.95,0,5.49-1.64,5.49-7.63v-5c0-3.5-.73-3.5-3.32-3.5-0.2,0-.2-0.15-0.2-0.38s0.07-.38.2-0.38c0.43,0,2.07.1,3.7,0.1,0.78,0,2.92-.1,3.27-0.1s0.35,0,.35.43a0.28,0.28,0,0,1-.23.33c-2.42,0-2.92,0-2.92,3v6c0,6.8-4.33,8.61-7.25,8.61C4.56,45.16,3,41.38,3,38.62V32.85c0-1.79,0-2.39-.05-3.55,0-1.49-.45-1.69-2.64-1.69C0,27.61,0,27.41,0,27.18a0.27,0.27,0,0,1,.23-0.33c0.2,0,2.39.1,4,.1s3.8-.1,4-0.1a0.27,0.27,0,0,1,.23.33c0,0.23,0,.43-0.28.43-2.19,0-2.62.2-2.64,1.69,0,1.16-.05,1.76-0.05,3.55v4.56Z" transform="translate(0 0)"/><path class="2b7e9e15-93de-4a9f-86b9-34ab4456ab79" d="M24.88,42.47c0,1.44,0,1.74,1.16,1.74,0.68,0,.73,0,0.73.33s0,0.33-.25.33-0.45,0-2.22,0c-2.37,0-3,0-3.4,0-0.2,0-.2-0.15-0.2-0.28,0-.33,0-0.38,1-0.38a0.94,0.94,0,0,0,1-.6A25.51,25.51,0,0,0,22.84,40V36.52c0-.88-0.23-1.38-1.49-1.51a0.24,0.24,0,0,1-.23-0.3,0.31,0.31,0,0,1,.2-0.35,11.26,11.26,0,0,0,3.53-1.23c0.05,0,.07.07,0.07,0.28s0,0.71,0,1.81c1.31-.88,2.59-1.74,4-1.74,0.86,0,3.32.18,3.32,3.78v6c0,0.43.08,0.91,1.64,0.91,0.25,0,.25.15,0.25,0.33s0,0.33-.35.33c-0.76,0-1.21,0-2.54,0-2,0-2.44,0-2.64,0s-0.18-.17-0.18-0.3a0.32,0.32,0,0,1,.35-0.35c1.21,0,1.44-.1,1.44-0.93V38.77c0-2.34-.2-3.9-2.82-3.9A3.73,3.73,0,0,0,24.88,36v6.45Z" transform="translate(0 0)"/><path class="2b7e9e15-93de-4a9f-86b9-34ab4456ab79" d="M39,42.47c0,1.44.05,1.74,1.16,1.74,0.55,0,.6,0,0.6.33s0,0.33-.25.33-0.45,0-2.09,0c-2.37,0-3,0-3.4,0-0.2,0-.2-0.15-0.2-0.28,0-.33,0-0.38,1-0.38a0.94,0.94,0,0,0,1-.6A25.23,25.23,0,0,0,37,40V36.52c0-.88-0.23-1.38-1.49-1.51a0.23,0.23,0,0,1-.22-0.3,0.31,0.31,0,0,1,.2-0.35A11.24,11.24,0,0,0,39,33.13c0.1,0,.15.13,0.15,0.28A22.84,22.84,0,0,0,39,37v5.44ZM36.66,28.29A1.31,1.31,0,1,1,38,29.63,1.34,1.34,0,0,1,36.66,28.29Z" transform="translate(0 0)"/><path class="2b7e9e15-93de-4a9f-86b9-34ab4456ab79" d="M50.55,35.29c0-.73-1.31-0.73-1.69-0.73a0.29,0.29,0,0,1-.23-0.35,0.31,0.31,0,0,1,.33-0.3c0.68,0,1.46.05,2.17,0.05s1.48-.05,2.21-0.05a0.26,0.26,0,0,1,.23.3,0.23,0.23,0,0,1-.25.28c-1.46.23-1.54,0.33-2.34,2.29-0.88,2.17-2.39,5.34-2.85,6.4-0.7,1.69-.93,2-1.13,2s-0.45-.53-1-1.61c-0.88-1.89-3-8-3.32-8.54a0.86,0.86,0,0,0-.88-0.4c-0.68,0-.78-0.07-0.78-0.43a0.27,0.27,0,0,1,.28-0.28c0.81,0,1.59.05,2.39,0.05l3-.05c0.18,0,.2.23,0.2,0.35a0.3,0.3,0,0,1-.25.3c-0.76,0-1.46.07-1.46,0.6,0,0.83,2,5.92,2.57,7C50.15,36.93,50.55,36,50.55,35.29Z" transform="translate(0 0)"/><path class="2b7e9e15-93de-4a9f-86b9-34ab4456ab79" d="M55.46,38a9.25,9.25,0,0,0-.1,1.44,4.25,4.25,0,0,0,4.13,4.16,3.28,3.28,0,0,0,2.95-1.51,0.93,0.93,0,0,1,.38-0.43,0.53,0.53,0,0,1,.4.3,4.6,4.6,0,0,1-4.33,3.2c-3.6,0-5.49-2.22-5.49-5.74s2.44-6,5-6a4.21,4.21,0,0,1,4.51,4.35c0,0.25-.1.28-0.3,0.28H55.46Zm4.33-.75a0.72,0.72,0,0,0,.86-0.83A2.13,2.13,0,0,0,58.43,34c-1.81,0-2.57,1.51-2.82,3.22h4.18Z" transform="translate(0 0)"/><path class="2b7e9e15-93de-4a9f-86b9-34ab4456ab79" d="M66.47,36.52c0-.88-0.23-1.38-1.49-1.51a0.24,0.24,0,0,1-.23-0.3,0.31,0.31,0,0,1,.2-0.35,11.24,11.24,0,0,0,3.53-1.23,0.29,0.29,0,0,1,.1.25c0,0.3-.13.93-0.13,2.29,0.83-.93,2.19-2.19,3.53-2.19a1.43,1.43,0,0,1,1.61,1.41,1.24,1.24,0,0,1-1.23,1.26c-1,0-1.18-1-1.94-1a2.83,2.83,0,0,0-1.74,1.08,1.07,1.07,0,0,0-.18.73v5.72c0,0.93,0,1.49,1.26,1.49,0.93,0,1,0,1,.3s-0.1.35-.38,0.35c-0.91,0-1.71,0-2.87,0-2,0-2.44,0-2.92,0-0.18,0-.23-0.15-0.23-0.33s0.3-.33.78-0.33c1.08,0,1.29-.2,1.29-1.29v-6.4Z" transform="translate(0 0)"/><path class="2b7e9e15-93de-4a9f-86b9-34ab4456ab79" d="M82.18,41.74c0,1.23-.65,3.42-4.1,3.42-0.45,0-1.91-.2-2.9-0.2a0.16,0.16,0,0,1-.13-0.13c0-.25-0.58-2.47-0.58-2.72s0.35-.15.45-0.15c0.6,0,.76,2.54,3.17,2.54a2.14,2.14,0,0,0,2.29-2.24c0-2.64-5.64-1.79-5.64-5.36a3.53,3.53,0,0,1,3.83-3.42,20.13,20.13,0,0,1,2.72.23,0.71,0.71,0,0,1,.38.7c0.05,1,.28,1.69.28,2a0.24,0.24,0,0,1-.28.2,0.44,0.44,0,0,1-.5-0.35,3,3,0,0,0-2.62-2.14,1.82,1.82,0,0,0-2,1.89,1.92,1.92,0,0,0,1.18,1.69C80.36,39,82.18,38.89,82.18,41.74Z" transform="translate(0 0)"/><path class="2b7e9e15-93de-4a9f-86b9-34ab4456ab79" d="M87.61,42.47c0,1.44.05,1.74,1.16,1.74,0.55,0,.61,0,0.61.33s0,0.33-.25.33-0.45,0-2.09,0c-2.37,0-3,0-3.4,0-0.2,0-.2-0.15-0.2-0.28,0-.33,0-0.38,1-0.38a0.94,0.94,0,0,0,1-.6A25.56,25.56,0,0,0,85.57,40V36.52c0-.88-0.23-1.38-1.49-1.51a0.24,0.24,0,0,1-.23-0.3,0.31,0.31,0,0,1,.2-0.35,11.23,11.23,0,0,0,3.52-1.23,0.23,0.23,0,0,1,.15.28A22.84,22.84,0,0,0,87.61,37v5.44ZM85.27,28.29a1.31,1.31,0,1,1,1.31,1.33A1.34,1.34,0,0,1,85.27,28.29Z" transform="translate(0 0)"/><path class="2b7e9e15-93de-4a9f-86b9-34ab4456ab79" d="M93.7,40.38c0,2.67.23,3.62,2.22,3.62a4.13,4.13,0,0,0,1.71-.58,0.5,0.5,0,0,1,.28.4c0,0.15-1.06,1.33-3.35,1.33A2.74,2.74,0,0,1,91.67,42V35.42a0.26,0.26,0,0,0-.25-0.33H90.16A0.19,0.19,0,0,1,90,34.86a0.44,0.44,0,0,1,.15-0.35c2.34-1.76,2.82-3.1,3.32-3.1a0.3,0.3,0,0,1,.3.33c0,0.45-.08.88-0.08,2.32h3.88c0.18,0,.25.18,0.25,0.53a0.58,0.58,0,0,1-.68.63c-0.18,0-1.36-.13-3.45-0.13v5.29Z" transform="translate(0 0)"/><path class="2b7e9e15-93de-4a9f-86b9-34ab4456ab79" d="M108.91,35.42c0-.83-1.19-0.86-1.94-0.86-0.22,0-.25-0.13-0.25-0.33a0.29,0.29,0,0,1,.23-0.33c0.81,0,1.64.05,2.44,0.05s1.56-.05,2.34-0.05c0.18,0,.18.23,0.18,0.33s-0.08.3-.43,0.33a1.51,1.51,0,0,0-1.59,1.11c-0.91,2.09-4.38,9.39-4.94,10.8-1.94,4.86-2.77,5.19-3.6,5.19a1.42,1.42,0,1,1,.05-2.84,5.45,5.45,0,0,1,1.26.43c0.45,0,1.64-2.42,1.64-3.6a12,12,0,0,0-.88-2.82c-1.59-4.08-2.06-6.27-2.59-7.68-0.23-.58-1.48-0.58-1.81-0.58a0.29,0.29,0,0,1-.23-0.35,0.27,0.27,0,0,1,.28-0.3c0.3,0,1.89.05,2.8,0.05s1.74-.05,2.49-0.05a0.27,0.27,0,0,1,.3.33,0.31,0.31,0,0,1-.25.33c-0.15,0-1.23,0-1.23.55,0,1.21.86,3.7,2.49,7.91C106.82,40.63,108.91,36.2,108.91,35.42Z" transform="translate(0 0)"/><path class="2b7e9e15-93de-4a9f-86b9-34ab4456ab79" d="M124.67,45.16a5.63,5.63,0,0,1-5.84-5.84,5.85,5.85,0,0,1,11.71,0A5.52,5.52,0,0,1,124.67,45.16Zm0-11c-2.62,0-3.45,2.72-3.45,5.19,0,2.14.5,5.19,3.45,5.19s3.47-3,3.47-5.19C128.15,36.85,127.32,34.13,124.67,34.13Z" transform="translate(0 0)"/><path class="2b7e9e15-93de-4a9f-86b9-34ab4456ab79" d="M136.28,42.72c0,0.93,0,1.49,1.26,1.49,0.93,0,1,0,1,.3s-0.1.35-.38,0.35c-0.91,0-1.71,0-2.87,0-2,0-2.44,0-2.67,0s-0.23-.15-0.23-0.33,0.05-.33.53-0.33c1.08,0,1.28-.2,1.28-1.29v-7c0-.3,0-0.8-0.48-0.8h-1.38c-0.18,0-.3,0-0.3-0.33s0.18-.3.78-0.43c1-.23,1.23-0.28,1.31-1.41,0.25-3.83,1.39-5.94,4.36-6.72a7.56,7.56,0,0,1,1.54-.2c0.66,0,1.59.25,1.59,1.08a1.13,1.13,0,0,1-1.18,1.23,2.26,2.26,0,0,1-1.39-.58,2.32,2.32,0,0,0-1.11-.58c-1.44,0-1.69,2.09-1.69,3.65v3.25h3.12c0.18,0,.25.18,0.25,0.53a0.58,0.58,0,0,1-.68.63c-0.18,0-2.11-.13-2.69-0.13v7.63Z" transform="translate(0 0)"/><path class="2b7e9e15-93de-4a9f-86b9-34ab4456ab79" d="M167.52,27.13a0.31,0.31,0,0,1,.3-0.28c0.13,0,2,.1,2.54.1s2.57-.1,2.74-0.1,0.28,0.2.28,0.43a0.28,0.28,0,0,1-.3.33c-2.27,0-2.54.18-2.54,1.33,0,1.64.28,6.92,0.53,14a1.24,1.24,0,0,0,1.39,1.18c1.41,0,1.44.15,1.44,0.33,0,0.38-.13.43-0.28,0.43s-0.5,0-4,0c-3.27,0-3.42,0-3.63,0s-0.28-.17-0.28-0.4,0-.35,1.21-0.35c1.66,0,1.69-.4,1.69-1.41,0-1.51-.38-9.64-0.58-14.35h0c-1.84,4.71-4.16,10.12-5.82,14.18-1,2.32-1,2.59-1.28,2.59s-0.38-.23-0.91-2-4.66-12.94-4.76-12.94c-0.43,1.84-2.09,10.2-2.09,12.72a1.09,1.09,0,0,0,1.26,1.18,2.38,2.38,0,0,1,1.36.2c0,0.48,0,.55-0.28.55s-0.45,0-3,0c-2.29,0-2.47,0-2.62,0s-0.28,0-.28-0.43c0-.25.13-0.33,1.33-0.33,0.88,0,1.06-.33,1.33-1.76,0.68-3.63,1.28-7.28,2.07-10.9a11,11,0,0,0,.33-2.37,2.64,2.64,0,0,0-.65-1.26,8.49,8.49,0,0,0-2.16-.2c-0.3,0-.3-0.2-0.3-0.38s0.05-.38.28-0.38c0.48,0,2.64.1,2.92,0.1,0.65,0,1.71-.1,2-0.1s0.35,0.28.6,1.18c0.53,1.89,4.18,12.09,4.63,13C163.82,36.6,165.73,32,167.52,27.13Z" transform="translate(0 0)"/><path class="2b7e9e15-93de-4a9f-86b9-34ab4456ab79" d="M178.72,42.47c0,1.44.05,1.74,1.16,1.74,0.55,0,.6,0,0.6.33s0,0.33-.25.33-0.45,0-2.09,0c-2.37,0-3,0-3.4,0-0.2,0-.2-0.15-0.2-0.28,0-.33,0-0.38,1-0.38a0.94,0.94,0,0,0,1-.6,25.28,25.28,0,0,0,.15-3.63V36.52c0-.88-0.23-1.38-1.49-1.51a0.23,0.23,0,0,1-.22-0.3,0.31,0.31,0,0,1,.2-0.35,11.23,11.23,0,0,0,3.52-1.23c0.1,0,.15.13,0.15,0.28a22.79,22.79,0,0,0-.13,3.63v5.44Zm-2.34-14.18a1.31,1.31,0,1,1,1.31,1.33A1.34,1.34,0,0,1,176.38,28.29Z" transform="translate(0 0)"/><path class="2b7e9e15-93de-4a9f-86b9-34ab4456ab79" d="M189.6,41.74c0,1.23-.65,3.42-4.1,3.42-0.45,0-1.91-.2-2.9-0.2a0.16,0.16,0,0,1-.13-0.13c0-.25-0.58-2.47-0.58-2.72s0.35-.15.45-0.15c0.61,0,.76,2.54,3.17,2.54a2.14,2.14,0,0,0,2.29-2.24c0-2.64-5.64-1.79-5.64-5.36A3.53,3.53,0,0,1,186,33.48a20.07,20.07,0,0,1,2.72.23,0.71,0.71,0,0,1,.38.7c0,1,.28,1.69.28,2a0.23,0.23,0,0,1-.28.2,0.44,0.44,0,0,1-.5-0.35A3,3,0,0,0,186,34.13,1.82,1.82,0,0,0,184,36a1.91,1.91,0,0,0,1.18,1.69C187.79,39,189.6,38.89,189.6,41.74Z" transform="translate(0 0)"/><path class="2b7e9e15-93de-4a9f-86b9-34ab4456ab79" d="M198.91,41.74c0,1.23-.65,3.42-4.1,3.42-0.45,0-1.91-.2-2.9-0.2a0.16,0.16,0,0,1-.13-0.13c0-.25-0.58-2.47-0.58-2.72s0.35-.15.45-0.15c0.6,0,.76,2.54,3.17,2.54a2.14,2.14,0,0,0,2.29-2.24c0-2.64-5.64-1.79-5.64-5.36a3.53,3.53,0,0,1,3.83-3.42,20.07,20.07,0,0,1,2.72.23,0.71,0.71,0,0,1,.38.7c0.05,1,.28,1.69.28,2a0.24,0.24,0,0,1-.28.2,0.44,0.44,0,0,1-.5-0.35,3,3,0,0,0-2.62-2.14,1.82,1.82,0,0,0-2,1.89,1.91,1.91,0,0,0,1.18,1.69C197.1,39,198.91,38.89,198.91,41.74Z" transform="translate(0 0)"/><path class="2b7e9e15-93de-4a9f-86b9-34ab4456ab79" d="M206.59,45.16a5.63,5.63,0,0,1-5.84-5.84,5.85,5.85,0,0,1,11.71,0A5.52,5.52,0,0,1,206.59,45.16Zm0-11c-2.62,0-3.45,2.72-3.45,5.19,0,2.14.5,5.19,3.45,5.19s3.47-3,3.47-5.19C210.07,36.85,209.24,34.13,206.59,34.13Z" transform="translate(0 0)"/><path class="2b7e9e15-93de-4a9f-86b9-34ab4456ab79" d="M215.6,37c0-2.22-.25-2.37-1.56-2.37-0.2,0-.55,0-0.55-0.25s0-.5.28-0.5,0.66,0.07,1.49.07,1.84-.07,2.19-0.07c0.15,0,.2,0,0.2.35V41c0,1.89.6,3,2.47,3,0.91,0,2.49-.55,2.49-1.33V36.15c0-1.36-.25-1.51-1.56-1.51-0.45,0-.8,0-0.8-0.25s0-.5.17-0.5c0.35,0,.66.07,2.19,0.07,0.63,0,1.28-.07,1.91-0.07a0.31,0.31,0,0,1,.35.35c0,0.1-.23,2-0.23,3.83v4.73c0,0.4,0,.93.63,0.93,0.35,0,.91-0.1,1.08-0.1s0.15,0,.15.48c0,0.15,0,.2-0.83.33a23,23,0,0,0-2.9.65,0.34,0.34,0,0,1-.3-0.35c0-.3.05-0.7,0.07-1a7,7,0,0,1-3.75,1.39c-2.49,0-3.2-1.61-3.2-4.23V37Z" transform="translate(0 0)"/><path class="2b7e9e15-93de-4a9f-86b9-34ab4456ab79" d="M229.35,36.52c0-.88-0.23-1.38-1.49-1.51a0.24,0.24,0,0,1-.23-0.3,0.31,0.31,0,0,1,.2-0.35,11.26,11.26,0,0,0,3.53-1.23,0.29,0.29,0,0,1,.1.25c0,0.3-.13.93-0.13,2.29,0.83-.93,2.19-2.19,3.53-2.19a1.43,1.43,0,0,1,1.61,1.41,1.24,1.24,0,0,1-1.23,1.26c-1,0-1.18-1-1.94-1a2.83,2.83,0,0,0-1.74,1.08,1.07,1.07,0,0,0-.17.73v5.72c0,0.93,0,1.49,1.26,1.49,0.93,0,1,0,1,.3s-0.1.35-.38,0.35c-0.91,0-1.71,0-2.87,0-2,0-2.44,0-2.92,0-0.18,0-.23-0.15-0.23-0.33s0.3-.33.78-0.33c1.08,0,1.29-.2,1.29-1.29v-6.4Z" transform="translate(0 0)"/><path class="2b7e9e15-93de-4a9f-86b9-34ab4456ab79" d="M241.18,42.47c0,1.44,0,1.74,1.16,1.74,0.55,0,.6,0,0.6.33s0,0.33-.25.33-0.45,0-2.09,0c-2.37,0-3,0-3.4,0-0.2,0-.2-0.15-0.2-0.28,0-.33,0-0.38,1-0.38a0.94,0.94,0,0,0,1-.6,25.63,25.63,0,0,0,.15-3.63V36.52c0-.88-0.23-1.38-1.48-1.51a0.24,0.24,0,0,1-.23-0.3,0.31,0.31,0,0,1,.2-0.35,11.29,11.29,0,0,0,3.53-1.23c0.1,0,.15.13,0.15,0.28a23.08,23.08,0,0,0-.12,3.63v5.44Zm-2.34-14.18a1.31,1.31,0,1,1,1.31,1.33A1.34,1.34,0,0,1,238.84,28.29Z" transform="translate(0 0)"/><path class="ceea1a6f-fb82-436d-8781-1a539f4d1941" d="M5.46,63.41c0,3.37,1.41,6.32,5.64,6.32,2.95,0,5.49-1.64,5.49-7.63v-5c0-3.5-.73-3.5-3.32-3.5-0.2,0-.2-0.15-0.2-0.38s0.07-.38.2-0.38c0.43,0,2.07.1,3.7,0.1,0.78,0,2.92-.1,3.27-0.1s0.35,0,.35.43a0.28,0.28,0,0,1-.23.33c-2.42,0-2.92,0-2.92,3v6c0,6.8-4.33,8.61-7.25,8.61C4.56,71.16,3,67.38,3,64.61V58.85c0-1.79,0-2.39-.05-3.55,0-1.49-.45-1.69-2.64-1.69C0,53.61,0,53.41,0,53.18a0.27,0.27,0,0,1,.23-0.33c0.2,0,2.39.1,4,.1s3.8-.1,4-0.1a0.27,0.27,0,0,1,.23.33c0,0.23,0,.43-0.28.43-2.19,0-2.62.2-2.64,1.69,0,1.16-.05,1.76-0.05,3.55v4.56Z" transform="translate(0 0)"/><path class="ceea1a6f-fb82-436d-8781-1a539f4d1941" d="M24.88,68.47c0,1.44,0,1.74,1.16,1.74,0.68,0,.73,0,0.73.33s0,0.33-.25.33-0.45,0-2.22,0c-2.37,0-3,0-3.4,0-0.2,0-.2-0.15-0.2-0.28,0-.33,0-0.38,1-0.38a0.94,0.94,0,0,0,1-.6A25.51,25.51,0,0,0,22.84,66V62.52c0-.88-0.23-1.38-1.49-1.51a0.24,0.24,0,0,1-.23-0.3,0.31,0.31,0,0,1,.2-0.35,11.26,11.26,0,0,0,3.53-1.23c0.05,0,.07.07,0.07,0.28s0,0.71,0,1.81c1.31-.88,2.59-1.74,4-1.74,0.86,0,3.32.18,3.32,3.78v6c0,0.43.08,0.91,1.64,0.91,0.25,0,.25.15,0.25,0.33s0,0.33-.35.33c-0.76,0-1.21,0-2.54,0-2,0-2.44,0-2.64,0s-0.18-.17-0.18-0.3a0.32,0.32,0,0,1,.35-0.35c1.21,0,1.44-.1,1.44-0.93V64.77c0-2.34-.2-3.9-2.82-3.9A3.73,3.73,0,0,0,24.88,62v6.45Z" transform="translate(0 0)"/><path class="ceea1a6f-fb82-436d-8781-1a539f4d1941" d="M39,68.47c0,1.44.05,1.74,1.16,1.74,0.55,0,.6,0,0.6.33s0,0.33-.25.33-0.45,0-2.09,0c-2.37,0-3,0-3.4,0-0.2,0-.2-0.15-0.2-0.28,0-.33,0-0.38,1-0.38a0.94,0.94,0,0,0,1-.6A25.23,25.23,0,0,0,37,66V62.52c0-.88-0.23-1.38-1.49-1.51a0.23,0.23,0,0,1-.22-0.3,0.31,0.31,0,0,1,.2-0.35A11.24,11.24,0,0,0,39,59.13c0.1,0,.15.13,0.15,0.28A22.84,22.84,0,0,0,39,63v5.44ZM36.66,54.29A1.31,1.31,0,1,1,38,55.63,1.34,1.34,0,0,1,36.66,54.29Z" transform="translate(0 0)"/><path class="ceea1a6f-fb82-436d-8781-1a539f4d1941" d="M50.55,61.29c0-.73-1.31-0.73-1.69-0.73a0.29,0.29,0,0,1-.23-0.35,0.31,0.31,0,0,1,.33-0.3c0.68,0,1.46.05,2.17,0.05s1.48-.05,2.21-0.05a0.26,0.26,0,0,1,.23.3,0.23,0.23,0,0,1-.25.28c-1.46.23-1.54,0.33-2.34,2.29-0.88,2.17-2.39,5.34-2.85,6.4-0.7,1.69-.93,2-1.13,2s-0.45-.53-1-1.61c-0.88-1.89-3-8-3.32-8.54a0.86,0.86,0,0,0-.88-0.4c-0.68,0-.78-0.07-0.78-0.43a0.27,0.27,0,0,1,.28-0.28c0.81,0,1.59.05,2.39,0.05l3-.05c0.18,0,.2.23,0.2,0.35a0.3,0.3,0,0,1-.25.3c-0.76,0-1.46.07-1.46,0.6,0,0.83,2,5.92,2.57,7C50.15,62.93,50.55,62,50.55,61.29Z" transform="translate(0 0)"/><path class="ceea1a6f-fb82-436d-8781-1a539f4d1941" d="M55.46,64a9.25,9.25,0,0,0-.1,1.44,4.25,4.25,0,0,0,4.13,4.16,3.28,3.28,0,0,0,2.95-1.51,0.93,0.93,0,0,1,.38-0.43,0.53,0.53,0,0,1,.4.3,4.6,4.6,0,0,1-4.33,3.2c-3.6,0-5.49-2.22-5.49-5.74s2.44-6,5-6a4.21,4.21,0,0,1,4.51,4.35c0,0.25-.1.28-0.3,0.28H55.46Zm4.33-.75a0.72,0.72,0,0,0,.86-0.83A2.13,2.13,0,0,0,58.43,60c-1.81,0-2.57,1.51-2.82,3.22h4.18Z" transform="translate(0 0)"/><path class="ceea1a6f-fb82-436d-8781-1a539f4d1941" d="M66.47,62.52c0-.88-0.23-1.38-1.49-1.51a0.24,0.24,0,0,1-.23-0.3,0.31,0.31,0,0,1,.2-0.35,11.24,11.24,0,0,0,3.53-1.23,0.29,0.29,0,0,1,.1.25c0,0.3-.13.93-0.13,2.29,0.83-.93,2.19-2.19,3.53-2.19a1.43,1.43,0,0,1,1.61,1.41,1.24,1.24,0,0,1-1.23,1.26c-1,0-1.18-1-1.94-1a2.83,2.83,0,0,0-1.74,1.08,1.07,1.07,0,0,0-.18.73v5.72c0,0.93,0,1.49,1.26,1.49,0.93,0,1,0,1,.3s-0.1.35-.38,0.35c-0.91,0-1.71,0-2.87,0-2,0-2.44,0-2.92,0-0.18,0-.23-0.15-0.23-0.33s0.3-.33.78-0.33c1.08,0,1.29-.2,1.29-1.29v-6.4Z" transform="translate(0 0)"/><path class="ceea1a6f-fb82-436d-8781-1a539f4d1941" d="M82.18,67.74c0,1.23-.65,3.42-4.1,3.42-0.45,0-1.91-.2-2.9-0.2a0.16,0.16,0,0,1-.13-0.13c0-.25-0.58-2.47-0.58-2.72s0.35-.15.45-0.15c0.6,0,.76,2.54,3.17,2.54a2.14,2.14,0,0,0,2.29-2.24c0-2.64-5.64-1.79-5.64-5.36a3.53,3.53,0,0,1,3.83-3.42,20.13,20.13,0,0,1,2.72.23,0.71,0.71,0,0,1,.38.7c0.05,1,.28,1.69.28,2a0.24,0.24,0,0,1-.28.2,0.44,0.44,0,0,1-.5-0.35,3,3,0,0,0-2.62-2.14,1.82,1.82,0,0,0-2,1.89,1.92,1.92,0,0,0,1.18,1.69C80.36,65,82.18,64.89,82.18,67.74Z" transform="translate(0 0)"/><path class="ceea1a6f-fb82-436d-8781-1a539f4d1941" d="M87.61,68.47c0,1.44.05,1.74,1.16,1.74,0.55,0,.61,0,0.61.33s0,0.33-.25.33-0.45,0-2.09,0c-2.37,0-3,0-3.4,0-0.2,0-.2-0.15-0.2-0.28,0-.33,0-0.38,1-0.38a0.94,0.94,0,0,0,1-.6A25.56,25.56,0,0,0,85.57,66V62.52c0-.88-0.23-1.38-1.49-1.51a0.24,0.24,0,0,1-.23-0.3,0.31,0.31,0,0,1,.2-0.35,11.23,11.23,0,0,0,3.52-1.23,0.23,0.23,0,0,1,.15.28A22.84,22.84,0,0,0,87.61,63v5.44ZM85.27,54.29a1.31,1.31,0,1,1,1.31,1.33A1.34,1.34,0,0,1,85.27,54.29Z" transform="translate(0 0)"/><path class="ceea1a6f-fb82-436d-8781-1a539f4d1941" d="M93.7,66.38c0,2.67.23,3.62,2.22,3.62a4.13,4.13,0,0,0,1.71-.58,0.5,0.5,0,0,1,.28.4c0,0.15-1.06,1.33-3.35,1.33A2.74,2.74,0,0,1,91.67,68V61.42a0.26,0.26,0,0,0-.25-0.33H90.16A0.19,0.19,0,0,1,90,60.86a0.44,0.44,0,0,1,.15-0.35c2.34-1.76,2.82-3.1,3.32-3.1a0.3,0.3,0,0,1,.3.33c0,0.45-.08.88-0.08,2.32h3.88c0.18,0,.25.18,0.25,0.53a0.58,0.58,0,0,1-.68.63c-0.18,0-1.36-.13-3.45-0.13v5.29Z" transform="translate(0 0)"/><path class="ceea1a6f-fb82-436d-8781-1a539f4d1941" d="M108.91,61.42c0-.83-1.19-0.86-1.94-0.86-0.22,0-.25-0.13-0.25-0.33a0.29,0.29,0,0,1,.23-0.33c0.81,0,1.64.05,2.44,0.05s1.56-.05,2.34-0.05c0.18,0,.18.23,0.18,0.33s-0.08.3-.43,0.33a1.51,1.51,0,0,0-1.59,1.11c-0.91,2.09-4.38,9.39-4.94,10.8-1.94,4.86-2.77,5.19-3.6,5.19a1.42,1.42,0,1,1,.05-2.84,5.45,5.45,0,0,1,1.26.43c0.45,0,1.64-2.42,1.64-3.6a12,12,0,0,0-.88-2.82c-1.59-4.08-2.06-6.27-2.59-7.68-0.23-.58-1.48-0.58-1.81-0.58a0.29,0.29,0,0,1-.23-0.35,0.27,0.27,0,0,1,.28-0.3c0.3,0,1.89.05,2.8,0.05s1.74-.05,2.49-0.05a0.27,0.27,0,0,1,.3.33,0.31,0.31,0,0,1-.25.33c-0.15,0-1.23,0-1.23.55,0,1.21.86,3.7,2.49,7.91C106.82,66.63,108.91,62.2,108.91,61.42Z" transform="translate(0 0)"/><path class="ceea1a6f-fb82-436d-8781-1a539f4d1941" d="M124.67,71.16a5.63,5.63,0,0,1-5.84-5.84,5.85,5.85,0,0,1,11.71,0A5.52,5.52,0,0,1,124.67,71.16Zm0-11c-2.62,0-3.45,2.72-3.45,5.19,0,2.14.5,5.19,3.45,5.19s3.47-3,3.47-5.19C128.15,62.85,127.32,60.13,124.67,60.13Z" transform="translate(0 0)"/><path class="ceea1a6f-fb82-436d-8781-1a539f4d1941" d="M136.28,68.72c0,0.93,0,1.49,1.26,1.49,0.93,0,1,0,1,.3s-0.1.35-.38,0.35c-0.91,0-1.71,0-2.87,0-2,0-2.44,0-2.67,0s-0.23-.15-0.23-0.33,0.05-.33.53-0.33c1.08,0,1.28-.2,1.28-1.29v-7c0-.3,0-0.8-0.48-0.8h-1.38c-0.18,0-.3,0-0.3-0.33s0.18-.3.78-0.43c1-.23,1.23-0.28,1.31-1.41,0.25-3.83,1.39-5.94,4.36-6.72a7.56,7.56,0,0,1,1.54-.2c0.66,0,1.59.25,1.59,1.08a1.13,1.13,0,0,1-1.18,1.23,2.26,2.26,0,0,1-1.39-.58,2.32,2.32,0,0,0-1.11-.58c-1.44,0-1.69,2.09-1.69,3.65v3.25h3.12c0.18,0,.25.18,0.25,0.53a0.58,0.58,0,0,1-.68.63c-0.18,0-2.11-.13-2.69-0.13v7.63Z" transform="translate(0 0)"/><path class="ceea1a6f-fb82-436d-8781-1a539f4d1941" d="M167.52,53.13a0.31,0.31,0,0,1,.3-0.28c0.13,0,2,.1,2.54.1s2.57-.1,2.74-0.1,0.28,0.2.28,0.43a0.28,0.28,0,0,1-.3.33c-2.27,0-2.54.18-2.54,1.33,0,1.64.28,6.92,0.53,14a1.24,1.24,0,0,0,1.39,1.18c1.41,0,1.44.15,1.44,0.33,0,0.38-.13.43-0.28,0.43s-0.5,0-4,0c-3.27,0-3.42,0-3.63,0s-0.28-.17-0.28-0.4,0-.35,1.21-0.35c1.66,0,1.69-.4,1.69-1.41,0-1.51-.38-9.64-0.58-14.35h0c-1.84,4.71-4.16,10.12-5.82,14.18-1,2.32-1,2.59-1.28,2.59s-0.38-.23-0.91-2-4.66-12.94-4.76-12.94c-0.43,1.84-2.09,10.2-2.09,12.72a1.09,1.09,0,0,0,1.26,1.18,2.38,2.38,0,0,1,1.36.2c0,0.48,0,.55-0.28.55s-0.45,0-3,0c-2.29,0-2.47,0-2.62,0s-0.28,0-.28-0.43c0-.25.13-0.33,1.33-0.33,0.88,0,1.06-.33,1.33-1.76,0.68-3.63,1.28-7.28,2.07-10.9a11,11,0,0,0,.33-2.37,2.64,2.64,0,0,0-.65-1.26,8.49,8.49,0,0,0-2.16-.2c-0.3,0-.3-0.2-0.3-0.38s0.05-.38.28-0.38c0.48,0,2.64.1,2.92,0.1,0.65,0,1.71-.1,2-0.1s0.35,0.28.6,1.18c0.53,1.89,4.18,12.09,4.63,13C163.82,62.6,165.73,58,167.52,53.13Z" transform="translate(0 0)"/><path class="ceea1a6f-fb82-436d-8781-1a539f4d1941" d="M178.72,68.47c0,1.44.05,1.74,1.16,1.74,0.55,0,.6,0,0.6.33s0,0.33-.25.33-0.45,0-2.09,0c-2.37,0-3,0-3.4,0-0.2,0-.2-0.15-0.2-0.28,0-.33,0-0.38,1-0.38a0.94,0.94,0,0,0,1-.6,25.28,25.28,0,0,0,.15-3.63V62.52c0-.88-0.23-1.38-1.49-1.51a0.23,0.23,0,0,1-.22-0.3,0.31,0.31,0,0,1,.2-0.35,11.23,11.23,0,0,0,3.52-1.23c0.1,0,.15.13,0.15,0.28a22.79,22.79,0,0,0-.13,3.63v5.44Zm-2.34-14.18a1.31,1.31,0,1,1,1.31,1.33A1.34,1.34,0,0,1,176.38,54.29Z" transform="translate(0 0)"/><path class="ceea1a6f-fb82-436d-8781-1a539f4d1941" d="M189.6,67.74c0,1.23-.65,3.42-4.1,3.42-0.45,0-1.91-.2-2.9-0.2a0.16,0.16,0,0,1-.13-0.13c0-.25-0.58-2.47-0.58-2.72s0.35-.15.45-0.15c0.61,0,.76,2.54,3.17,2.54a2.14,2.14,0,0,0,2.29-2.24c0-2.64-5.64-1.79-5.64-5.36A3.53,3.53,0,0,1,186,59.48a20.07,20.07,0,0,1,2.72.23,0.71,0.71,0,0,1,.38.7c0,1,.28,1.69.28,2a0.23,0.23,0,0,1-.28.2,0.44,0.44,0,0,1-.5-0.35A3,3,0,0,0,186,60.13,1.82,1.82,0,0,0,184,62a1.91,1.91,0,0,0,1.18,1.69C187.79,65,189.6,64.89,189.6,67.74Z" transform="translate(0 0)"/><path class="ceea1a6f-fb82-436d-8781-1a539f4d1941" d="M198.91,67.74c0,1.23-.65,3.42-4.1,3.42-0.45,0-1.91-.2-2.9-0.2a0.16,0.16,0,0,1-.13-0.13c0-.25-0.58-2.47-0.58-2.72s0.35-.15.45-0.15c0.6,0,.76,2.54,3.17,2.54a2.14,2.14,0,0,0,2.29-2.24c0-2.64-5.64-1.79-5.64-5.36a3.53,3.53,0,0,1,3.83-3.42,20.07,20.07,0,0,1,2.72.23,0.71,0.71,0,0,1,.38.7c0.05,1,.28,1.69.28,2a0.24,0.24,0,0,1-.28.2,0.44,0.44,0,0,1-.5-0.35,3,3,0,0,0-2.62-2.14,1.82,1.82,0,0,0-2,1.89,1.91,1.91,0,0,0,1.18,1.69C197.1,65,198.91,64.89,198.91,67.74Z" transform="translate(0 0)"/><path class="ceea1a6f-fb82-436d-8781-1a539f4d1941" d="M206.59,71.16a5.63,5.63,0,0,1-5.84-5.84,5.85,5.85,0,0,1,11.71,0A5.52,5.52,0,0,1,206.59,71.16Zm0-11c-2.62,0-3.45,2.72-3.45,5.19,0,2.14.5,5.19,3.45,5.19s3.47-3,3.47-5.19C210.07,62.85,209.24,60.13,206.59,60.13Z" transform="translate(0 0)"/><path class="ceea1a6f-fb82-436d-8781-1a539f4d1941" d="M215.6,63c0-2.22-.25-2.37-1.56-2.37-0.2,0-.55,0-0.55-0.25s0-.5.28-0.5,0.66,0.07,1.49.07,1.84-.07,2.19-0.07c0.15,0,.2,0,0.2.35V67c0,1.89.6,3,2.47,3,0.91,0,2.49-.55,2.49-1.33V62.15c0-1.36-.25-1.51-1.56-1.51-0.45,0-.8,0-0.8-0.25s0-.5.17-0.5c0.35,0,.66.07,2.19,0.07,0.63,0,1.28-.07,1.91-0.07a0.31,0.31,0,0,1,.35.35c0,0.1-.23,2-0.23,3.83v4.73c0,0.4,0,.93.63,0.93,0.35,0,.91-0.1,1.08-0.1s0.15,0,.15.48c0,0.15,0,.2-0.83.33a23,23,0,0,0-2.9.65,0.34,0.34,0,0,1-.3-0.35c0-.3.05-0.7,0.07-1a7,7,0,0,1-3.75,1.39c-2.49,0-3.2-1.61-3.2-4.23V63Z" transform="translate(0 0)"/><path class="ceea1a6f-fb82-436d-8781-1a539f4d1941" d="M229.35,62.52c0-.88-0.23-1.38-1.49-1.51a0.24,0.24,0,0,1-.23-0.3,0.31,0.31,0,0,1,.2-0.35,11.26,11.26,0,0,0,3.53-1.23,0.29,0.29,0,0,1,.1.25c0,0.3-.13.93-0.13,2.29,0.83-.93,2.19-2.19,3.53-2.19a1.43,1.43,0,0,1,1.61,1.41,1.24,1.24,0,0,1-1.23,1.26c-1,0-1.18-1-1.94-1a2.83,2.83,0,0,0-1.74,1.08,1.07,1.07,0,0,0-.17.73v5.72c0,0.93,0,1.49,1.26,1.49,0.93,0,1,0,1,.3s-0.1.35-.38,0.35c-0.91,0-1.71,0-2.87,0-2,0-2.44,0-2.92,0-0.18,0-.23-0.15-0.23-0.33s0.3-.33.78-0.33c1.08,0,1.29-.2,1.29-1.29v-6.4Z" transform="translate(0 0)"/><path class="ceea1a6f-fb82-436d-8781-1a539f4d1941" d="M241.18,68.47c0,1.44,0,1.74,1.16,1.74,0.55,0,.6,0,0.6.33s0,0.33-.25.33-0.45,0-2.09,0c-2.37,0-3,0-3.4,0-0.2,0-.2-0.15-0.2-0.28,0-.33,0-0.38,1-0.38a0.94,0.94,0,0,0,1-.6,25.63,25.63,0,0,0,.15-3.63V62.52c0-.88-0.23-1.38-1.48-1.51a0.24,0.24,0,0,1-.23-0.3,0.31,0.31,0,0,1,.2-0.35,11.29,11.29,0,0,0,3.53-1.23c0.1,0,.15.13,0.15,0.28a23.08,23.08,0,0,0-.12,3.63v5.44Zm-2.34-14.18a1.31,1.31,0,1,1,1.31,1.33A1.34,1.34,0,0,1,238.84,54.29Z" transform="translate(0 0)"/><path class="6ed644a4-e7e0-4a3a-b5d8-7eac340c6029" d="M5.46,89.41c0,3.37,1.41,6.32,5.64,6.32,2.95,0,5.49-1.64,5.49-7.63v-5c0-3.5-.73-3.5-3.32-3.5-0.2,0-.2-0.15-0.2-0.38s0.07-.38.2-0.38c0.43,0,2.07.1,3.7,0.1,0.78,0,2.92-.1,3.27-0.1s0.35,0,.35.43a0.28,0.28,0,0,1-.23.33c-2.42,0-2.92,0-2.92,3v6c0,6.8-4.33,8.61-7.25,8.61C4.56,97.16,3,93.38,3,90.61V84.85c0-1.79,0-2.39-.05-3.55,0-1.49-.45-1.69-2.64-1.69C0,79.61,0,79.41,0,79.18a0.27,0.27,0,0,1,.23-0.33c0.2,0,2.39.1,4,.1s3.8-.1,4-0.1a0.27,0.27,0,0,1,.23.33c0,0.23,0,.43-0.28.43-2.19,0-2.62.2-2.64,1.69,0,1.16-.05,1.76-0.05,3.55v4.56Z" transform="translate(0 0)"/><path class="6ed644a4-e7e0-4a3a-b5d8-7eac340c6029" d="M24.88,94.47c0,1.44,0,1.74,1.16,1.74,0.68,0,.73,0,0.73.33s0,0.33-.25.33-0.45,0-2.22,0c-2.37,0-3,0-3.4,0-0.2,0-.2-0.15-0.2-0.28,0-.33,0-0.38,1-0.38a0.94,0.94,0,0,0,1-.6A25.51,25.51,0,0,0,22.84,92V88.52c0-.88-0.23-1.38-1.49-1.51a0.24,0.24,0,0,1-.23-0.3,0.31,0.31,0,0,1,.2-0.35,11.26,11.26,0,0,0,3.53-1.23c0.05,0,.07.07,0.07,0.28s0,0.71,0,1.81c1.31-.88,2.59-1.74,4-1.74,0.86,0,3.32.18,3.32,3.78v6c0,0.43.08,0.91,1.64,0.91,0.25,0,.25.15,0.25,0.33s0,0.33-.35.33c-0.76,0-1.21,0-2.54,0-2,0-2.44,0-2.64,0s-0.18-.17-0.18-0.3a0.32,0.32,0,0,1,.35-0.35c1.21,0,1.44-.1,1.44-0.93V90.77c0-2.34-.2-3.9-2.82-3.9A3.73,3.73,0,0,0,24.88,88v6.45Z" transform="translate(0 0)"/><path class="6ed644a4-e7e0-4a3a-b5d8-7eac340c6029" d="M39,94.47c0,1.44.05,1.74,1.16,1.74,0.55,0,.6,0,0.6.33s0,0.33-.25.33-0.45,0-2.09,0c-2.37,0-3,0-3.4,0-0.2,0-.2-0.15-0.2-0.28,0-.33,0-0.38,1-0.38a0.94,0.94,0,0,0,1-.6A25.23,25.23,0,0,0,37,92V88.52c0-.88-0.23-1.38-1.49-1.51a0.23,0.23,0,0,1-.22-0.3,0.31,0.31,0,0,1,.2-0.35A11.24,11.24,0,0,0,39,85.13c0.1,0,.15.13,0.15,0.28A22.84,22.84,0,0,0,39,89v5.44ZM36.66,80.29A1.31,1.31,0,1,1,38,81.63,1.34,1.34,0,0,1,36.66,80.29Z" transform="translate(0 0)"/><path class="6ed644a4-e7e0-4a3a-b5d8-7eac340c6029" d="M50.55,87.29c0-.73-1.31-0.73-1.69-0.73a0.29,0.29,0,0,1-.23-0.35,0.31,0.31,0,0,1,.33-0.3c0.68,0,1.46.05,2.17,0.05s1.48-.05,2.21-0.05a0.26,0.26,0,0,1,.23.3,0.23,0.23,0,0,1-.25.28c-1.46.23-1.54,0.33-2.34,2.29-0.88,2.17-2.39,5.34-2.85,6.4-0.7,1.69-.93,2-1.13,2s-0.45-.53-1-1.61c-0.88-1.89-3-8-3.32-8.54a0.86,0.86,0,0,0-.88-0.4c-0.68,0-.78-0.07-0.78-0.43a0.27,0.27,0,0,1,.28-0.28c0.81,0,1.59.05,2.39,0.05l3-.05c0.18,0,.2.23,0.2,0.35a0.3,0.3,0,0,1-.25.3c-0.76,0-1.46.07-1.46,0.6,0,0.83,2,5.92,2.57,7C50.15,88.93,50.55,88,50.55,87.29Z" transform="translate(0 0)"/><path class="6ed644a4-e7e0-4a3a-b5d8-7eac340c6029" d="M55.46,90a9.25,9.25,0,0,0-.1,1.44,4.25,4.25,0,0,0,4.13,4.16,3.28,3.28,0,0,0,2.95-1.51,0.93,0.93,0,0,1,.38-0.43,0.53,0.53,0,0,1,.4.3,4.6,4.6,0,0,1-4.33,3.2c-3.6,0-5.49-2.22-5.49-5.74s2.44-6,5-6a4.21,4.21,0,0,1,4.51,4.35c0,0.25-.1.28-0.3,0.28H55.46Zm4.33-.75a0.72,0.72,0,0,0,.86-0.83A2.13,2.13,0,0,0,58.43,86c-1.81,0-2.57,1.51-2.82,3.22h4.18Z" transform="translate(0 0)"/><path class="6ed644a4-e7e0-4a3a-b5d8-7eac340c6029" d="M66.47,88.52c0-.88-0.23-1.38-1.49-1.51a0.24,0.24,0,0,1-.23-0.3,0.31,0.31,0,0,1,.2-0.35,11.24,11.24,0,0,0,3.53-1.23,0.29,0.29,0,0,1,.1.25c0,0.3-.13.93-0.13,2.29,0.83-.93,2.19-2.19,3.53-2.19a1.43,1.43,0,0,1,1.61,1.41,1.24,1.24,0,0,1-1.23,1.26c-1,0-1.18-1-1.94-1a2.83,2.83,0,0,0-1.74,1.08,1.07,1.07,0,0,0-.18.73v5.72c0,0.93,0,1.49,1.26,1.49,0.93,0,1,0,1,.3s-0.1.35-.38,0.35c-0.91,0-1.71,0-2.87,0-2,0-2.44,0-2.92,0-0.18,0-.23-0.15-0.23-0.33s0.3-.33.78-0.33c1.08,0,1.29-.2,1.29-1.29v-6.4Z" transform="translate(0 0)"/><path class="6ed644a4-e7e0-4a3a-b5d8-7eac340c6029" d="M82.18,93.74c0,1.23-.65,3.42-4.1,3.42-0.45,0-1.91-.2-2.9-0.2a0.16,0.16,0,0,1-.13-0.13c0-.25-0.58-2.47-0.58-2.72s0.35-.15.45-0.15c0.6,0,.76,2.54,3.17,2.54a2.14,2.14,0,0,0,2.29-2.24c0-2.64-5.64-1.79-5.64-5.36a3.53,3.53,0,0,1,3.83-3.42,20.13,20.13,0,0,1,2.72.23,0.71,0.71,0,0,1,.38.7c0.05,1,.28,1.69.28,2a0.24,0.24,0,0,1-.28.2,0.44,0.44,0,0,1-.5-0.35,3,3,0,0,0-2.62-2.14,1.82,1.82,0,0,0-2,1.89,1.92,1.92,0,0,0,1.18,1.69C80.36,91,82.18,90.89,82.18,93.74Z" transform="translate(0 0)"/><path class="6ed644a4-e7e0-4a3a-b5d8-7eac340c6029" d="M87.61,94.47c0,1.44.05,1.74,1.16,1.74,0.55,0,.61,0,0.61.33s0,0.33-.25.33-0.45,0-2.09,0c-2.37,0-3,0-3.4,0-0.2,0-.2-0.15-0.2-0.28,0-.33,0-0.38,1-0.38a0.94,0.94,0,0,0,1-.6A25.56,25.56,0,0,0,85.57,92V88.52c0-.88-0.23-1.38-1.49-1.51a0.24,0.24,0,0,1-.23-0.3,0.31,0.31,0,0,1,.2-0.35,11.23,11.23,0,0,0,3.52-1.23,0.23,0.23,0,0,1,.15.28A22.84,22.84,0,0,0,87.61,89v5.44ZM85.27,80.29a1.31,1.31,0,1,1,1.31,1.33A1.34,1.34,0,0,1,85.27,80.29Z" transform="translate(0 0)"/><path class="6ed644a4-e7e0-4a3a-b5d8-7eac340c6029" d="M93.7,92.38c0,2.67.23,3.62,2.22,3.62a4.13,4.13,0,0,0,1.71-.58,0.5,0.5,0,0,1,.28.4c0,0.15-1.06,1.33-3.35,1.33A2.74,2.74,0,0,1,91.67,94V87.42a0.26,0.26,0,0,0-.25-0.33H90.16A0.19,0.19,0,0,1,90,86.86a0.44,0.44,0,0,1,.15-0.35c2.34-1.76,2.82-3.1,3.32-3.1a0.3,0.3,0,0,1,.3.33c0,0.45-.08.88-0.08,2.32h3.88c0.18,0,.25.18,0.25,0.53a0.58,0.58,0,0,1-.68.63c-0.18,0-1.36-.13-3.45-0.13v5.29Z" transform="translate(0 0)"/><path class="6ed644a4-e7e0-4a3a-b5d8-7eac340c6029" d="M108.91,87.42c0-.83-1.19-0.86-1.94-0.86-0.22,0-.25-0.13-0.25-0.33a0.29,0.29,0,0,1,.23-0.33c0.81,0,1.64.05,2.44,0.05s1.56-.05,2.34-0.05c0.18,0,.18.23,0.18,0.33s-0.08.3-.43,0.33a1.51,1.51,0,0,0-1.59,1.11c-0.91,2.09-4.38,9.39-4.94,10.8-1.94,4.86-2.77,5.19-3.6,5.19a1.42,1.42,0,1,1,.05-2.84,5.45,5.45,0,0,1,1.26.43c0.45,0,1.64-2.42,1.64-3.6a12,12,0,0,0-.88-2.82c-1.59-4.08-2.06-6.27-2.59-7.68-0.23-.58-1.48-0.58-1.81-0.58a0.29,0.29,0,0,1-.23-0.35,0.27,0.27,0,0,1,.28-0.3c0.3,0,1.89.05,2.8,0.05s1.74-.05,2.49-0.05a0.27,0.27,0,0,1,.3.33,0.31,0.31,0,0,1-.25.33c-0.15,0-1.23,0-1.23.55,0,1.21.86,3.7,2.49,7.91C106.82,92.63,108.91,88.2,108.91,87.42Z" transform="translate(0 0)"/><path class="6ed644a4-e7e0-4a3a-b5d8-7eac340c6029" d="M124.67,97.16a5.63,5.63,0,0,1-5.84-5.84,5.85,5.85,0,0,1,11.71,0A5.52,5.52,0,0,1,124.67,97.16Zm0-11c-2.62,0-3.45,2.72-3.45,5.19,0,2.14.5,5.19,3.45,5.19s3.47-3,3.47-5.19C128.15,88.85,127.32,86.13,124.67,86.13Z" transform="translate(0 0)"/><path class="6ed644a4-e7e0-4a3a-b5d8-7eac340c6029" d="M136.28,94.72c0,0.93,0,1.49,1.26,1.49,0.93,0,1,0,1,.3s-0.1.35-.38,0.35c-0.91,0-1.71,0-2.87,0-2,0-2.44,0-2.67,0s-0.23-.15-0.23-0.33,0.05-.33.53-0.33c1.08,0,1.28-.2,1.28-1.29v-7c0-.3,0-0.8-0.48-0.8h-1.38c-0.18,0-.3,0-0.3-0.33s0.18-.3.78-0.43c1-.23,1.23-0.28,1.31-1.41,0.25-3.83,1.39-5.94,4.36-6.72a7.56,7.56,0,0,1,1.54-.2c0.66,0,1.59.25,1.59,1.08a1.13,1.13,0,0,1-1.18,1.23,2.26,2.26,0,0,1-1.39-.58,2.32,2.32,0,0,0-1.11-.58c-1.44,0-1.69,2.09-1.69,3.65v3.25h3.12c0.18,0,.25.18,0.25,0.53a0.58,0.58,0,0,1-.68.63c-0.18,0-2.11-.13-2.69-0.13v7.63Z" transform="translate(0 0)"/><path class="6ed644a4-e7e0-4a3a-b5d8-7eac340c6029" d="M167.52,79.13a0.31,0.31,0,0,1,.3-0.28c0.13,0,2,.1,2.54.1s2.57-.1,2.74-0.1,0.28,0.2.28,0.43a0.28,0.28,0,0,1-.3.33c-2.27,0-2.54.18-2.54,1.33,0,1.64.28,6.92,0.53,14a1.24,1.24,0,0,0,1.39,1.18c1.41,0,1.44.15,1.44,0.33,0,0.38-.13.43-0.28,0.43s-0.5,0-4,0c-3.27,0-3.42,0-3.63,0s-0.28-.17-0.28-0.4,0-.35,1.21-0.35c1.66,0,1.69-.4,1.69-1.41,0-1.51-.38-9.64-0.58-14.35h0c-1.84,4.71-4.16,10.12-5.82,14.18-1,2.32-1,2.59-1.28,2.59s-0.38-.23-0.91-2-4.66-12.94-4.76-12.94c-0.43,1.84-2.09,10.2-2.09,12.72a1.09,1.09,0,0,0,1.26,1.18,2.38,2.38,0,0,1,1.36.2c0,0.48,0,.55-0.28.55s-0.45,0-3,0c-2.29,0-2.47,0-2.62,0s-0.28,0-.28-0.43c0-.25.13-0.33,1.33-0.33,0.88,0,1.06-.33,1.33-1.76,0.68-3.63,1.28-7.28,2.07-10.9a11,11,0,0,0,.33-2.37,2.64,2.64,0,0,0-.65-1.26,8.49,8.49,0,0,0-2.16-.2c-0.3,0-.3-0.2-0.3-0.38s0.05-.38.28-0.38c0.48,0,2.64.1,2.92,0.1,0.65,0,1.71-.1,2-0.1s0.35,0.28.6,1.18c0.53,1.89,4.18,12.09,4.63,13C163.82,88.6,165.73,84,167.52,79.13Z" transform="translate(0 0)"/><path class="6ed644a4-e7e0-4a3a-b5d8-7eac340c6029" d="M178.72,94.47c0,1.44.05,1.74,1.16,1.74,0.55,0,.6,0,0.6.33s0,0.33-.25.33-0.45,0-2.09,0c-2.37,0-3,0-3.4,0-0.2,0-.2-0.15-0.2-0.28,0-.33,0-0.38,1-0.38a0.94,0.94,0,0,0,1-.6,25.28,25.28,0,0,0,.15-3.63V88.52c0-.88-0.23-1.38-1.49-1.51a0.23,0.23,0,0,1-.22-0.3,0.31,0.31,0,0,1,.2-0.35,11.23,11.23,0,0,0,3.52-1.23c0.1,0,.15.13,0.15,0.28a22.79,22.79,0,0,0-.13,3.63v5.44Zm-2.34-14.18a1.31,1.31,0,1,1,1.31,1.33A1.34,1.34,0,0,1,176.38,80.29Z" transform="translate(0 0)"/><path class="6ed644a4-e7e0-4a3a-b5d8-7eac340c6029" d="M189.6,93.74c0,1.23-.65,3.42-4.1,3.42-0.45,0-1.91-.2-2.9-0.2a0.16,0.16,0,0,1-.13-0.13c0-.25-0.58-2.47-0.58-2.72s0.35-.15.45-0.15c0.61,0,.76,2.54,3.17,2.54a2.14,2.14,0,0,0,2.29-2.24c0-2.64-5.64-1.79-5.64-5.36A3.53,3.53,0,0,1,186,85.48a20.07,20.07,0,0,1,2.72.23,0.71,0.71,0,0,1,.38.7c0,1,.28,1.69.28,2a0.23,0.23,0,0,1-.28.2,0.44,0.44,0,0,1-.5-0.35A3,3,0,0,0,186,86.13,1.82,1.82,0,0,0,184,88a1.91,1.91,0,0,0,1.18,1.69C187.79,91,189.6,90.89,189.6,93.74Z" transform="translate(0 0)"/><path class="6ed644a4-e7e0-4a3a-b5d8-7eac340c6029" d="M198.91,93.74c0,1.23-.65,3.42-4.1,3.42-0.45,0-1.91-.2-2.9-0.2a0.16,0.16,0,0,1-.13-0.13c0-.25-0.58-2.47-0.58-2.72s0.35-.15.45-0.15c0.6,0,.76,2.54,3.17,2.54a2.14,2.14,0,0,0,2.29-2.24c0-2.64-5.64-1.79-5.64-5.36a3.53,3.53,0,0,1,3.83-3.42,20.07,20.07,0,0,1,2.72.23,0.71,0.71,0,0,1,.38.7c0.05,1,.28,1.69.28,2a0.24,0.24,0,0,1-.28.2,0.44,0.44,0,0,1-.5-0.35,3,3,0,0,0-2.62-2.14,1.82,1.82,0,0,0-2,1.89,1.91,1.91,0,0,0,1.18,1.69C197.1,91,198.91,90.89,198.91,93.74Z" transform="translate(0 0)"/><path class="6ed644a4-e7e0-4a3a-b5d8-7eac340c6029" d="M206.59,97.16a5.63,5.63,0,0,1-5.84-5.84,5.85,5.85,0,0,1,11.71,0A5.52,5.52,0,0,1,206.59,97.16Zm0-11c-2.62,0-3.45,2.72-3.45,5.19,0,2.14.5,5.19,3.45,5.19s3.47-3,3.47-5.19C210.07,88.85,209.24,86.13,206.59,86.13Z" transform="translate(0 0)"/><path class="6ed644a4-e7e0-4a3a-b5d8-7eac340c6029" d="M215.6,89c0-2.22-.25-2.37-1.56-2.37-0.2,0-.55,0-0.55-0.25s0-.5.28-0.5,0.66,0.07,1.49.07,1.84-.07,2.19-0.07c0.15,0,.2,0,0.2.35V93c0,1.89.6,3,2.47,3,0.91,0,2.49-.55,2.49-1.33V88.15c0-1.36-.25-1.51-1.56-1.51-0.45,0-.8,0-0.8-0.25s0-.5.17-0.5c0.35,0,.66.07,2.19,0.07,0.63,0,1.28-.07,1.91-0.07a0.31,0.31,0,0,1,.35.35c0,0.1-.23,2-0.23,3.83v4.73c0,0.4,0,.93.63,0.93,0.35,0,.91-0.1,1.08-0.1s0.15,0,.15.48c0,0.15,0,.2-0.83.33a23,23,0,0,0-2.9.65,0.34,0.34,0,0,1-.3-0.35c0-.3.05-0.7,0.07-1a7,7,0,0,1-3.75,1.39c-2.49,0-3.2-1.61-3.2-4.23V89Z" transform="translate(0 0)"/><path class="6ed644a4-e7e0-4a3a-b5d8-7eac340c6029" d="M229.35,88.52c0-.88-0.23-1.38-1.49-1.51a0.24,0.24,0,0,1-.23-0.3,0.31,0.31,0,0,1,.2-0.35,11.26,11.26,0,0,0,3.53-1.23,0.29,0.29,0,0,1,.1.25c0,0.3-.13.93-0.13,2.29,0.83-.93,2.19-2.19,3.53-2.19a1.43,1.43,0,0,1,1.61,1.41,1.24,1.24,0,0,1-1.23,1.26c-1,0-1.18-1-1.94-1a2.83,2.83,0,0,0-1.74,1.08,1.07,1.07,0,0,0-.17.73v5.72c0,0.93,0,1.49,1.26,1.49,0.93,0,1,0,1,.3s-0.1.35-.38,0.35c-0.91,0-1.71,0-2.87,0-2,0-2.44,0-2.92,0-0.18,0-.23-0.15-0.23-0.33s0.3-.33.78-0.33c1.08,0,1.29-.2,1.29-1.29v-6.4Z" transform="translate(0 0)"/><path class="6ed644a4-e7e0-4a3a-b5d8-7eac340c6029" d="M241.18,94.47c0,1.44,0,1.74,1.16,1.74,0.55,0,.6,0,0.6.33s0,0.33-.25.33-0.45,0-2.09,0c-2.37,0-3,0-3.4,0-0.2,0-.2-0.15-0.2-0.28,0-.33,0-0.38,1-0.38a0.94,0.94,0,0,0,1-.6,25.63,25.63,0,0,0,.15-3.63V88.52c0-.88-0.23-1.38-1.48-1.51a0.24,0.24,0,0,1-.23-0.3,0.31,0.31,0,0,1,.2-0.35,11.29,11.29,0,0,0,3.53-1.23c0.1,0,.15.13,0.15,0.28a23.08,23.08,0,0,0-.12,3.63v5.44Zm-2.34-14.18a1.31,1.31,0,1,1,1.31,1.33A1.34,1.34,0,0,1,238.84,80.29Z" transform="translate(0 0)"/></svg>