<?xml version="1.0" encoding="utf-8"?>
<!-- Generator: Adobe Illustrator 18.1.1, SVG Export Plug-In . SVG Version: 6.00 Build 0)  -->
<!DOCTYPE svg PUBLIC "-//W3C//DTD SVG 1.0//EN" "http://www.w3.org/TR/2001/REC-SVG-20010904/DTD/svg10.dtd">
<svg version="1.0" id="Layer_1" xmlns="http://www.w3.org/2000/svg" xmlns:xlink="http://www.w3.org/1999/xlink" x="0px" y="0px"
	 width="404px" height="114px" viewBox="0 0 404 114" enable-background="new 0 0 404 114" xml:space="preserve">
<g>
	<path fill="#FFFFFF" d="M20.801,42.2C7.351,42.2,2.3,31.5,2.3,24.799c0-12.051,8.95-19.401,18.501-19.401
		c10.601,0,18.551,6.35,18.551,19.151C39.353,31.5,34.302,42.2,20.801,42.2z M20.801,6.698C9.15,6.698,8.25,19.749,8.25,23.849
		c0,6.9,3.35,17.051,12.551,17.051c11.801,0,12.601-11.15,12.601-17.101C33.402,16.648,30.052,6.698,20.801,6.698z"/>
	<path fill="#FFFFFF" d="M51.25,37.35c0,1.85,0,2.95,2.5,2.95c1.85,0,2.05,0.05,2.05,0.6c0,0.65-0.2,0.7-0.75,0.7
		c-1.8,0-3.4-0.1-5.7-0.1c-4,0-4.851,0.1-5.301,0.1c-0.35,0-0.45-0.3-0.45-0.65c0-0.5,0.1-0.65,1.05-0.65c2.15,0,2.55-0.4,2.55-2.55
		V23.799c0-0.6,0-1.6-0.95-1.6H43.5c-0.35,0-0.6,0-0.6-0.65c0-0.4,0.35-0.6,1.55-0.85c1.95-0.45,2.45-0.55,2.6-2.8
		c0.5-7.601,2.75-11.801,8.65-13.351c0.8-0.2,2.15-0.4,3.05-0.4c1.3,0,3.15,0.5,3.15,2.15c0,1.45-0.85,2.45-2.351,2.45
		c-0.45,0-1.55-0.15-2.75-1.15c-0.85-0.7-1.75-1.15-2.2-1.15c-2.85,0-3.35,4.15-3.35,7.25v6.451h6.2c0.35,0,0.5,0.35,0.5,1.05
		c0,0.65-0.3,1.25-1.35,1.25c-0.35,0-4.2-0.25-5.35-0.25V37.35z"/>
	<path fill="#FFFFFF" d="M67,37.35c0,1.85,0,2.95,2.5,2.95c1.1,0,1.3,0.05,1.3,0.6c0,0.65-0.2,0.7-0.75,0.7
		c-1.05,0-2.65-0.1-4.95-0.1c-4,0-4.851,0.1-5.3,0.1c-0.35,0-0.45-0.3-0.45-0.65c0-0.5,0.1-0.65,1.05-0.65
		c2.15,0,2.55-0.4,2.55-2.55V23.799c0-0.6,0-1.6-0.95-1.6h-2.75c-0.35,0-0.6,0-0.6-0.65c0-0.4,0.35-0.6,1.55-0.85
		c1.95-0.45,2.45-0.55,2.6-2.8c0.5-7.35,5.8-13.75,13.851-13.75c1.3,0,4.65,0.5,4.65,2.7c0,1.65-1.25,2.45-2.6,2.45
		c-3.55,0-4.3-2.85-6.05-2.85c-1.85,0-5.65,0.95-5.65,10.751v2.95h8.5c2.8,0,5.05-1.85,5.601-1.85c0.2,0,0.3,0.25,0.3,0.55
		c0,0.2-0.25,0.7-0.25,7.2V36.85c0,2.85,0.1,3.45,2.3,3.45c1.1,0,1.2,0.05,1.2,0.65c0,0.3,0,0.65-0.5,0.65c-0.25,0-0.9-0.1-4.15-0.1
		c-4.701,0-6,0.1-6.75,0.1c-0.4,0-0.4-0.3-0.4-0.55c0-0.65,0.05-0.75,1.9-0.75c1.3,0,1.75-0.5,2.05-1.2c0.2-0.45,0.3-4,0.3-7.2
		v-6.851c0-2.55-1.9-3.1-2.85-3.1H67V37.35z"/>
	<path fill="#FFFFFF" d="M105.8,37.3c0.399-0.35,0.6-0.8,0.85-0.8c0.15,0,0.75,0.35,0.75,0.7c0,0.2-0.1,0.45-0.4,0.75
		c-2.55,2.9-5.45,4.25-8.75,4.25c-5.8,0-10.351-4.15-10.351-11.301c0-7.4,4.9-11.901,11.351-11.901c6.85,0,8.15,3.7,8.15,4.75
		c0,0.6-0.8,2.15-2.65,2.15c-1.6,0-1.8-0.5-2.35-3.25c-0.15-0.75-0.5-2.35-3.1-2.35c-3.15,0-7.05,2.4-7.05,10.601
		c0,2.25,0.85,8.5,8.5,8.5C102.6,39.4,104.799,38.15,105.8,37.3z"/>
	<path fill="#FFFFFF" d="M114.498,27.999c-0.149,0.95-0.2,1.9-0.2,2.85c0,3.25,2.751,8.25,8.201,8.25c2.3,0,4.25-0.7,5.85-3
		c0.301-0.4,0.5-0.85,0.75-0.85c0.351,0,0.801,0.45,0.801,0.6s-2,6.351-8.601,6.351c-7.15,0-10.9-4.4-10.9-11.401
		c0-7.15,4.85-12,10-12c8.301,0,8.951,7.15,8.951,8.65c0,0.5-0.2,0.55-0.601,0.55H114.498z M123.099,26.499c1,0,1.7-0.3,1.7-1.65
		c0-3.9-2.7-4.75-4.4-4.75c-3.6,0-5.101,3-5.601,6.4H123.099z"/>
	<path fill="#FFFFFF" d="M157.797,42.2c-6.85,0-11.601-4.951-11.601-11.601c0-6.6,4.95-11.601,11.601-11.601
		c6.701,0,11.651,4.851,11.651,11.601C169.448,37.6,164.798,42.2,157.797,42.2z M157.797,20.299c-5.2,0-6.85,5.4-6.85,10.3
		c0,4.25,1,10.301,6.85,10.301c5.9,0,6.9-6.05,6.9-10.301C164.697,25.699,163.048,20.299,157.797,20.299z"/>
	<path fill="#FFFFFF" d="M180.847,37.35c0,1.85,0,2.95,2.5,2.95c1.851,0,2.05,0.05,2.05,0.6c0,0.65-0.199,0.7-0.75,0.7
		c-1.8,0-3.399-0.1-5.7-0.1c-4,0-4.85,0.1-5.3,0.1c-0.351,0-0.45-0.3-0.45-0.65c0-0.5,0.1-0.65,1.05-0.65
		c2.15,0,2.551-0.4,2.551-2.55V23.799c0-0.6,0-1.6-0.95-1.6h-2.75c-0.351,0-0.601,0-0.601-0.65c0-0.4,0.351-0.6,1.55-0.85
		c1.95-0.45,2.45-0.55,2.601-2.8c0.5-7.601,2.75-11.801,8.65-13.351c0.8-0.2,2.15-0.4,3.05-0.4c1.301,0,3.15,0.5,3.15,2.15
		c0,1.45-0.85,2.45-2.35,2.45c-0.45,0-1.551-0.15-2.75-1.15c-0.851-0.7-1.751-1.15-2.2-1.15c-2.851,0-3.351,4.15-3.351,7.25v6.451
		h6.2c0.351,0,0.5,0.35,0.5,1.05c0,0.65-0.3,1.25-1.35,1.25c-0.351,0-4.2-0.25-5.351-0.25V37.35z"/>
	<path fill="#FFFFFF" d="M206.795,17.749c0-3.55-0.05-4.75-0.101-7.05c-0.05-2.95-0.899-3.35-4.5-3.35c-0.55,0-0.55-0.4-0.55-0.85
		c0-0.3,0.1-0.65,0.45-0.65c0.399,0,4,0.2,7.15,0.2c0.45,0,4.5-0.2,7.101-0.2c11.95,0,13.2,7.851,13.2,9.901
		c0,7.15-4.95,10.801-11.75,10.801c-2.001,0-4.001-0.1-6.051-0.5c0,7.951,0.05,9.351,0.1,10.851c0.101,2,0.4,3.2,5.551,3.2
		c1.4,0,1.4,0.3,1.4,0.85c0,0.45,0,0.65-0.4,0.65c-0.35,0-1.75-0.1-9.15-0.1c-7.351,0-7.551,0.1-7.9,0.1c-0.4,0-0.4-0.2-0.4-0.65
		c0-0.55,0-0.85,1.4-0.85c3.95,0,4.25-0.85,4.3-2.2c0.101-2.5,0.15-5.75,0.15-7.9V17.749z M211.745,23.149c0,1.15,0.3,1.9,2.851,1.9
		c5.45,0,9.55-3.15,9.55-8.9c0-5.15-3.3-8.8-8.2-8.8c-3.8,0-4.25,0-4.2,4.15V23.149z"/>
	<path fill="#FFFFFF" d="M236.344,25.049c0-1.75-0.45-2.75-2.95-3c-0.4-0.05-0.45-0.25-0.45-0.6c0-0.4,0.15-0.65,0.4-0.7
		c5.7-1.15,6.4-2.45,7-2.45c0.101,0,0.2,0.3,0.2,0.5c0,0.6-0.25,1.85-0.25,4.55c1.65-1.85,4.351-4.351,7-4.351
		c1.75,0,3.2,0.95,3.2,2.8c0,1.3-1,2.5-2.45,2.5c-2.05,0-2.35-1.9-3.85-1.9c-0.851,0-2.2,0.75-3.45,2.15
		c-0.351,0.4-0.351,0.95-0.351,1.45V37.35c0,1.85,0,2.95,2.501,2.95c1.85,0,2.05,0.05,2.05,0.6c0,0.65-0.2,0.7-0.75,0.7
		c-1.801,0-3.4-0.1-5.7-0.1c-4.001,0-4.851,0.1-5.801,0.1c-0.35,0-0.45-0.3-0.45-0.65c0-0.5,0.601-0.65,1.551-0.65
		c2.149,0,2.55-0.4,2.55-2.55V25.049z"/>
	<path fill="#FFFFFF" d="M264.293,42.2c-6.85,0-11.601-4.951-11.601-11.601c0-6.6,4.95-11.601,11.601-11.601
		c6.701,0,11.651,4.851,11.651,11.601C275.944,37.6,271.294,42.2,264.293,42.2z M264.293,20.299c-5.2,0-6.85,5.4-6.85,10.3
		c0,4.25,1,10.301,6.85,10.301c5.9,0,6.9-6.05,6.9-10.301C271.193,25.699,269.544,20.299,264.293,20.299z"/>
	<path fill="#FFFFFF" d="M293.743,39.4c6.851,0,6.801,4.45,6.801,5.951c0,7.55-8.351,9.75-14.451,9.75c-3.25,0-6.45-0.85-6.45-4.7
		c0-3.1,2.3-5.351,4.35-7.35c-1.55-0.15-3-1.45-3-3.05c0-3,1.601-4.3,3.851-5.851c-2.9-1.5-3.9-3.95-3.9-7.1
		c0-4.701,4.351-8.201,8.851-8.201c2.05,0,4.4,0.7,6.051,1.95c2.05-1.3,3.149-1.5,4.25-1.5c3.2,0,3.75,1.75,3.75,2.8
		c0,0.75-0.85,1.75-1.9,1.75c-1.3,0-2.5-2.851-3.399-2.851c-0.851,0-1.15,0.3-1.9,0.65c0.95,1,1.9,3.55,1.9,4.85
		c0,5.4-3.4,8.601-8.901,8.601c-0.6,0-2.6-0.1-3.6-0.55c-0.801,0.45-2.051,1.5-2.051,3.2c0,1.45,1.2,1.65,2.351,1.65H293.743z
		 M285.743,43.2c-0.301,0-3.251,2.25-3.251,5c0,0.7,0.2,4.601,7.201,4.601c5.7,0,8.35-1.75,8.35-5.65c0-3.05-1.85-3.95-5.1-3.95
		H285.743z M294.193,26.199c0-0.75,0-6.05-4.2-6.05c-4.65,0-4.7,5.95-4.7,7.7c0,2.95,1,5.95,4.5,5.95
		C293.894,33.799,294.193,28.349,294.193,26.199z"/>
	<path fill="#FFFFFF" d="M308.593,25.049c0-1.75-0.45-2.75-2.95-3c-0.4-0.05-0.45-0.25-0.45-0.6c0-0.4,0.15-0.65,0.4-0.7
		c5.7-1.15,6.4-2.45,7-2.45c0.101,0,0.2,0.3,0.2,0.5c0,0.6-0.25,1.85-0.25,4.55c1.65-1.85,4.351-4.351,7-4.351
		c1.751,0,3.2,0.95,3.2,2.8c0,1.3-1,2.5-2.45,2.5c-2.05,0-2.35-1.9-3.85-1.9c-0.851,0-2.2,0.75-3.45,2.15
		c-0.351,0.4-0.351,0.95-0.351,1.45V37.35c0,1.85,0,2.95,2.501,2.95c1.85,0,2.05,0.05,2.05,0.6c0,0.65-0.2,0.7-0.75,0.7
		c-1.801,0-3.4-0.1-5.7-0.1c-4.001,0-4.851,0.1-5.801,0.1c-0.35,0-0.45-0.3-0.45-0.65c0-0.5,0.601-0.65,1.551-0.65
		c2.149,0,2.55-0.4,2.55-2.55V25.049z"/>
	<path fill="#FFFFFF" d="M340.643,38.8c0,0.8,0.351,1,0.851,1c1,0,1.75-1.15,2.149-1.15c0.25,0,0.65,0.35,0.65,0.55
		c0,0.6-3.25,3-5,3c-1.801,0-2.2-1.15-2.751-2.9c-2.95,2.3-4.35,2.9-6.45,2.9c-3.9,0-4.8-2.85-4.8-4.45
		c0-2.55,1.5-4.65,11.301-8.301v-4.55c0-2.6-3.001-3.95-4.2-3.95c-1.15,0-3.551,1.8-3.551,2.3c0,0.7,0.65,1.4,0.65,2.5
		c0,0.55-0.45,1.9-2.45,1.9c-1.7,0-2.101-1.3-2.101-1.85c0-1.35,0.351-2,4.101-4.5c3.75-2.45,4.3-2.5,5.4-2.5
		c1.6,0,6.2,1.2,6.2,5.75V38.8z M336.593,31.399c0-0.25-0.15-0.5-0.351-0.5c-0.25,0-3.95,1.65-4.95,2.45
		c-1.4,1.05-1.65,1.8-1.65,3.65c0,1.55,0.65,3.101,2.351,3.101c1.9,0,4.601-1.75,4.601-2.65V31.399z"/>
	<path fill="#FFFFFF" d="M349.891,25.049c0-1.75-0.449-2.75-2.95-3c-0.399-0.05-0.449-0.25-0.449-0.6c0-0.4,0.149-0.65,0.399-0.7
		c5.7-1.15,6.4-2.45,7.001-2.45c0.1,0,0.149,0.15,0.149,0.55c0,0.3-0.1,1.4-0.1,3.35c1.3-1,6.051-3.2,8.801-3.2
		c2.45,0,4.2,1.2,5.45,3.25c2.7-1.6,4.65-3.25,7.65-3.25c1.7,0,6.601,0.25,6.601,6.101V38.4c0,0.85,0.149,1.8,3.25,1.8
		c0.5,0,0.5,0.3,0.5,0.65c0,0.3,0,0.65-0.7,0.65c-1.5,0-2.4-0.1-5.05-0.1c-4.051,0-4.851,0.1-5.251,0.1c-0.3,0-0.35-0.35-0.35-0.6
		s0.1-0.7,0.7-0.7c2.399,0,2.85-0.2,2.85-1.85V25.399c0-0.65-0.399-4.1-5.1-4.1c-2.2,0-5.101,2.2-5.101,2.75V36.85
		c0,2.85,0.1,3.45,2.3,3.45c1.351,0,1.45,0.05,1.45,0.65c0,0.3,0,0.65-0.5,0.65c-0.25,0-0.9-0.1-5.25-0.1
		c-4.051,0-4.851,0.1-5.251,0.1c-0.3,0-0.35-0.35-0.35-0.6s0.1-0.7,0.7-0.7c2.4,0,2.85-0.2,2.85-1.95V25.399
		c0-1.9-0.399-4.1-5.1-4.1c-2.2,0-5.101,2.2-5.101,2.75V36.85c0,2.85,0.1,3.45,2.3,3.45c1.351,0,1.45,0.05,1.45,0.65
		c0,0.3,0,0.65-0.5,0.65c-0.25,0-0.9-0.1-4.4-0.1c-4.7,0-5.5,0.1-6.25,0.1c-0.4,0-0.4-0.3-0.4-0.55c0-0.65,0.05-0.75,1.4-0.75
		c1.3,0,1.75-0.5,2.05-1.2c0.2-0.45,0.3-4,0.3-7.2V25.049z"/>
	<path fill="#FFFFFF" d="M403.642,35.399c0,2.45-1.301,6.801-8.15,6.801c-0.9,0-3.801-0.4-5.751-0.4c-0.1,0-0.25-0.15-0.25-0.25
		c-0.05-0.5-1.15-4.9-1.15-5.4c0-0.3,0.7-0.3,0.9-0.3c1.2,0,1.5,5.05,6.301,5.05c3.55,0,4.55-2.7,4.55-4.45
		c0-5.25-11.2-3.55-11.2-10.651c0-4.1,3.4-6.8,7.601-6.8c2.3,0,5.2,0.4,5.4,0.45c0.649,0.15,0.75,1.1,0.75,1.4
		c0.1,2.05,0.55,3.35,0.55,4c0,0.3-0.3,0.4-0.55,0.4c-0.45,0-0.75-0.05-1-0.7c-0.351-0.85-1.65-4.25-5.201-4.25
		c-2.35,0-4,1.35-4,3.75c0,1.75,1.25,2.8,2.351,3.35C400.041,29.899,403.642,29.75,403.642,35.399z"/>
</g>
<g>
	<path fill="#F1B82D" d="M20.801,99.2C7.351,99.2,2.3,88.5,2.3,81.799c0-12.051,8.95-19.401,18.501-19.401
		c10.601,0,18.551,6.35,18.551,19.151C39.353,88.5,34.302,99.2,20.801,99.2z M20.801,63.698C9.15,63.698,8.25,76.749,8.25,80.849
		c0,6.9,3.35,17.051,12.551,17.051c11.801,0,12.601-11.15,12.601-17.101C33.402,73.648,30.052,63.698,20.801,63.698z"/>
	<path fill="#F1B82D" d="M51.25,94.35c0,1.85,0,2.95,2.5,2.95c1.85,0,2.05,0.05,2.05,0.6c0,0.65-0.2,0.7-0.75,0.7
		c-1.8,0-3.4-0.1-5.7-0.1c-4,0-4.851,0.1-5.301,0.1c-0.35,0-0.45-0.3-0.45-0.65c0-0.5,0.1-0.65,1.05-0.65c2.15,0,2.55-0.4,2.55-2.55
		V80.799c0-0.6,0-1.6-0.95-1.6H43.5c-0.35,0-0.6,0-0.6-0.65c0-0.4,0.35-0.6,1.55-0.85c1.95-0.45,2.45-0.55,2.6-2.8
		c0.5-7.601,2.75-11.801,8.65-13.351c0.8-0.2,2.15-0.4,3.05-0.4c1.3,0,3.15,0.5,3.15,2.15c0,1.45-0.85,2.45-2.351,2.45
		c-0.45,0-1.55-0.15-2.75-1.15c-0.85-0.7-1.75-1.15-2.2-1.15c-2.85,0-3.35,4.15-3.35,7.25v6.451h6.2c0.35,0,0.5,0.35,0.5,1.05
		c0,0.65-0.3,1.25-1.35,1.25c-0.35,0-4.2-0.25-5.35-0.25V94.35z"/>
	<path fill="#F1B82D" d="M67,94.35c0,1.85,0,2.95,2.5,2.95c1.1,0,1.3,0.05,1.3,0.6c0,0.65-0.2,0.7-0.75,0.7
		c-1.05,0-2.65-0.1-4.95-0.1c-4,0-4.851,0.1-5.3,0.1c-0.35,0-0.45-0.3-0.45-0.65c0-0.5,0.1-0.65,1.05-0.65
		c2.15,0,2.55-0.4,2.55-2.55V80.799c0-0.6,0-1.6-0.95-1.6h-2.75c-0.35,0-0.6,0-0.6-0.65c0-0.4,0.35-0.6,1.55-0.85
		c1.95-0.45,2.45-0.55,2.6-2.8c0.5-7.35,5.8-13.75,13.851-13.75c1.3,0,4.65,0.5,4.65,2.7c0,1.65-1.25,2.45-2.6,2.45
		c-3.55,0-4.3-2.85-6.05-2.85c-1.85,0-5.65,0.95-5.65,10.751v2.95h8.5c2.8,0,5.05-1.85,5.601-1.85c0.2,0,0.3,0.25,0.3,0.55
		c0,0.2-0.25,0.7-0.25,7.2V93.85c0,2.85,0.1,3.45,2.3,3.45c1.1,0,1.2,0.05,1.2,0.65c0,0.3,0,0.65-0.5,0.65c-0.25,0-0.9-0.1-4.15-0.1
		c-4.701,0-6,0.1-6.75,0.1c-0.4,0-0.4-0.3-0.4-0.55c0-0.65,0.05-0.75,1.9-0.75c1.3,0,1.75-0.5,2.05-1.2c0.2-0.45,0.3-4,0.3-7.2
		v-6.851c0-2.55-1.9-3.1-2.85-3.1H67V94.35z"/>
	<path fill="#F1B82D" d="M105.8,94.3c0.399-0.35,0.6-0.8,0.85-0.8c0.15,0,0.75,0.35,0.75,0.7c0,0.2-0.1,0.45-0.4,0.75
		c-2.55,2.9-5.45,4.25-8.75,4.25c-5.8,0-10.351-4.15-10.351-11.301c0-7.4,4.9-11.901,11.351-11.901c6.85,0,8.15,3.7,8.15,4.75
		c0,0.6-0.8,2.15-2.65,2.15c-1.6,0-1.8-0.5-2.35-3.25c-0.15-0.75-0.5-2.35-3.1-2.35c-3.15,0-7.05,2.4-7.05,10.601
		c0,2.25,0.85,8.5,8.5,8.5C102.6,96.4,104.799,95.15,105.8,94.3z"/>
	<path fill="#F1B82D" d="M114.498,84.999c-0.149,0.95-0.2,1.9-0.2,2.85c0,3.25,2.751,8.25,8.201,8.25c2.3,0,4.25-0.7,5.85-3
		c0.301-0.4,0.5-0.85,0.75-0.85c0.351,0,0.801,0.45,0.801,0.6s-2,6.351-8.601,6.351c-7.15,0-10.9-4.4-10.9-11.401
		c0-7.15,4.85-12,10-12c8.301,0,8.951,7.15,8.951,8.65c0,0.5-0.2,0.55-0.601,0.55H114.498z M123.099,83.499c1,0,1.7-0.3,1.7-1.65
		c0-3.9-2.7-4.75-4.4-4.75c-3.6,0-5.101,3-5.601,6.4H123.099z"/>
	<path fill="#F1B82D" d="M157.797,99.2c-6.85,0-11.601-4.951-11.601-11.601c0-6.6,4.95-11.601,11.601-11.601
		c6.701,0,11.651,4.851,11.651,11.601C169.448,94.6,164.798,99.2,157.797,99.2z M157.797,77.299c-5.2,0-6.85,5.4-6.85,10.3
		c0,4.25,1,10.301,6.85,10.301c5.9,0,6.9-6.05,6.9-10.301C164.697,82.699,163.048,77.299,157.797,77.299z"/>
	<path fill="#F1B82D" d="M180.847,94.35c0,1.85,0,2.95,2.5,2.95c1.851,0,2.05,0.05,2.05,0.6c0,0.65-0.199,0.7-0.75,0.7
		c-1.8,0-3.399-0.1-5.7-0.1c-4,0-4.85,0.1-5.3,0.1c-0.351,0-0.45-0.3-0.45-0.65c0-0.5,0.1-0.65,1.05-0.65
		c2.15,0,2.551-0.4,2.551-2.55V80.799c0-0.6,0-1.6-0.95-1.6h-2.75c-0.351,0-0.601,0-0.601-0.65c0-0.4,0.351-0.6,1.55-0.85
		c1.95-0.45,2.45-0.55,2.601-2.8c0.5-7.601,2.75-11.801,8.65-13.351c0.8-0.2,2.15-0.4,3.05-0.4c1.301,0,3.15,0.5,3.15,2.15
		c0,1.45-0.85,2.45-2.35,2.45c-0.45,0-1.551-0.15-2.75-1.15c-0.851-0.7-1.751-1.15-2.2-1.15c-2.851,0-3.351,4.15-3.351,7.25v6.451
		h6.2c0.351,0,0.5,0.35,0.5,1.05c0,0.65-0.3,1.25-1.35,1.25c-0.351,0-4.2-0.25-5.351-0.25V94.35z"/>
	<path fill="#F1B82D" d="M206.795,74.749c0-3.55-0.05-4.75-0.101-7.05c-0.05-2.95-0.899-3.35-4.5-3.35c-0.55,0-0.55-0.4-0.55-0.85
		c0-0.3,0.1-0.65,0.45-0.65c0.399,0,4,0.2,7.15,0.2c0.45,0,4.5-0.2,7.101-0.2c11.95,0,13.2,7.851,13.2,9.901
		c0,7.15-4.95,10.801-11.75,10.801c-2.001,0-4.001-0.1-6.051-0.5c0,7.951,0.05,9.351,0.1,10.851c0.101,2,0.4,3.2,5.551,3.2
		c1.4,0,1.4,0.3,1.4,0.85c0,0.45,0,0.65-0.4,0.65c-0.35,0-1.75-0.1-9.15-0.1c-7.351,0-7.551,0.1-7.9,0.1c-0.4,0-0.4-0.2-0.4-0.65
		c0-0.55,0-0.85,1.4-0.85c3.95,0,4.25-0.85,4.3-2.2c0.101-2.5,0.15-5.75,0.15-7.9V74.749z M211.745,80.149c0,1.15,0.3,1.9,2.851,1.9
		c5.45,0,9.55-3.15,9.55-8.9c0-5.15-3.3-8.8-8.2-8.8c-3.8,0-4.25,0-4.2,4.15V80.149z"/>
	<path fill="#F1B82D" d="M236.344,82.049c0-1.75-0.45-2.75-2.95-3c-0.4-0.05-0.45-0.25-0.45-0.6c0-0.4,0.15-0.65,0.4-0.7
		c5.7-1.15,6.4-2.45,7-2.45c0.101,0,0.2,0.3,0.2,0.5c0,0.6-0.25,1.85-0.25,4.55c1.65-1.85,4.351-4.351,7-4.351
		c1.75,0,3.2,0.95,3.2,2.8c0,1.3-1,2.5-2.45,2.5c-2.05,0-2.35-1.9-3.85-1.9c-0.851,0-2.2,0.75-3.45,2.15
		c-0.351,0.4-0.351,0.95-0.351,1.45V94.35c0,1.85,0,2.95,2.501,2.95c1.85,0,2.05,0.05,2.05,0.6c0,0.65-0.2,0.7-0.75,0.7
		c-1.801,0-3.4-0.1-5.7-0.1c-4.001,0-4.851,0.1-5.801,0.1c-0.35,0-0.45-0.3-0.45-0.65c0-0.5,0.601-0.65,1.551-0.65
		c2.149,0,2.55-0.4,2.55-2.55V82.049z"/>
	<path fill="#F1B82D" d="M264.293,99.2c-6.85,0-11.601-4.951-11.601-11.601c0-6.6,4.95-11.601,11.601-11.601
		c6.701,0,11.651,4.851,11.651,11.601C275.944,94.6,271.294,99.2,264.293,99.2z M264.293,77.299c-5.2,0-6.85,5.4-6.85,10.3
		c0,4.25,1,10.301,6.85,10.301c5.9,0,6.9-6.05,6.9-10.301C271.193,82.699,269.544,77.299,264.293,77.299z"/>
	<path fill="#F1B82D" d="M293.743,96.4c6.851,0,6.801,4.45,6.801,5.951c0,7.55-8.351,9.75-14.451,9.75c-3.25,0-6.45-0.85-6.45-4.7
		c0-3.1,2.3-5.351,4.35-7.35c-1.55-0.15-3-1.45-3-3.05c0-3,1.601-4.3,3.851-5.851c-2.9-1.5-3.9-3.95-3.9-7.1
		c0-4.701,4.351-8.201,8.851-8.201c2.05,0,4.4,0.7,6.051,1.95c2.05-1.3,3.149-1.5,4.25-1.5c3.2,0,3.75,1.75,3.75,2.8
		c0,0.75-0.85,1.75-1.9,1.75c-1.3,0-2.5-2.851-3.399-2.851c-0.851,0-1.15,0.3-1.9,0.65c0.95,1,1.9,3.55,1.9,4.85
		c0,5.4-3.4,8.601-8.901,8.601c-0.6,0-2.6-0.1-3.6-0.55c-0.801,0.45-2.051,1.5-2.051,3.2c0,1.45,1.2,1.65,2.351,1.65H293.743z
		 M285.743,100.2c-0.301,0-3.251,2.25-3.251,5c0,0.7,0.2,4.601,7.201,4.601c5.7,0,8.35-1.75,8.35-5.65c0-3.05-1.85-3.95-5.1-3.95
		H285.743z M294.193,83.199c0-0.75,0-6.05-4.2-6.05c-4.65,0-4.7,5.95-4.7,7.7c0,2.95,1,5.95,4.5,5.95
		C293.894,90.799,294.193,85.349,294.193,83.199z"/>
	<path fill="#F1B82D" d="M308.593,82.049c0-1.75-0.45-2.75-2.95-3c-0.4-0.05-0.45-0.25-0.45-0.6c0-0.4,0.15-0.65,0.4-0.7
		c5.7-1.15,6.4-2.45,7-2.45c0.101,0,0.2,0.3,0.2,0.5c0,0.6-0.25,1.85-0.25,4.55c1.65-1.85,4.351-4.351,7-4.351
		c1.751,0,3.2,0.95,3.2,2.8c0,1.3-1,2.5-2.45,2.5c-2.05,0-2.35-1.9-3.85-1.9c-0.851,0-2.2,0.75-3.45,2.15
		c-0.351,0.4-0.351,0.95-0.351,1.45V94.35c0,1.85,0,2.95,2.501,2.95c1.85,0,2.05,0.05,2.05,0.6c0,0.65-0.2,0.7-0.75,0.7
		c-1.801,0-3.4-0.1-5.7-0.1c-4.001,0-4.851,0.1-5.801,0.1c-0.35,0-0.45-0.3-0.45-0.65c0-0.5,0.601-0.65,1.551-0.65
		c2.149,0,2.55-0.4,2.55-2.55V82.049z"/>
	<path fill="#F1B82D" d="M340.643,95.8c0,0.8,0.351,1,0.851,1c1,0,1.75-1.15,2.149-1.15c0.25,0,0.65,0.35,0.65,0.55
		c0,0.6-3.25,3-5,3c-1.801,0-2.2-1.15-2.751-2.9c-2.95,2.3-4.35,2.9-6.45,2.9c-3.9,0-4.8-2.85-4.8-4.45
		c0-2.55,1.5-4.65,11.301-8.301v-4.55c0-2.6-3.001-3.95-4.2-3.95c-1.15,0-3.551,1.8-3.551,2.3c0,0.7,0.65,1.4,0.65,2.5
		c0,0.55-0.45,1.9-2.45,1.9c-1.7,0-2.101-1.3-2.101-1.85c0-1.35,0.351-2,4.101-4.5c3.75-2.45,4.3-2.5,5.4-2.5
		c1.6,0,6.2,1.2,6.2,5.75V95.8z M336.593,88.399c0-0.25-0.15-0.5-0.351-0.5c-0.25,0-3.95,1.65-4.95,2.45
		c-1.4,1.05-1.65,1.8-1.65,3.65c0,1.55,0.65,3.101,2.351,3.101c1.9,0,4.601-1.75,4.601-2.65V88.399z"/>
	<path fill="#F1B82D" d="M349.891,82.049c0-1.75-0.449-2.75-2.95-3c-0.399-0.05-0.449-0.25-0.449-0.6c0-0.4,0.149-0.65,0.399-0.7
		c5.7-1.15,6.4-2.45,7.001-2.45c0.1,0,0.149,0.15,0.149,0.55c0,0.3-0.1,1.4-0.1,3.35c1.3-1,6.051-3.2,8.801-3.2
		c2.45,0,4.2,1.2,5.45,3.25c2.7-1.6,4.65-3.25,7.65-3.25c1.7,0,6.601,0.25,6.601,6.101V95.4c0,0.85,0.149,1.8,3.25,1.8
		c0.5,0,0.5,0.3,0.5,0.65c0,0.3,0,0.65-0.7,0.65c-1.5,0-2.4-0.1-5.05-0.1c-4.051,0-4.851,0.1-5.251,0.1c-0.3,0-0.35-0.35-0.35-0.6
		s0.1-0.7,0.7-0.7c2.399,0,2.85-0.2,2.85-1.85V82.399c0-0.65-0.399-4.1-5.1-4.1c-2.2,0-5.101,2.2-5.101,2.75V93.85
		c0,2.85,0.1,3.45,2.3,3.45c1.351,0,1.45,0.05,1.45,0.65c0,0.3,0,0.65-0.5,0.65c-0.25,0-0.9-0.1-5.25-0.1
		c-4.051,0-4.851,0.1-5.251,0.1c-0.3,0-0.35-0.35-0.35-0.6s0.1-0.7,0.7-0.7c2.4,0,2.85-0.2,2.85-1.95V82.399
		c0-1.9-0.399-4.1-5.1-4.1c-2.2,0-5.101,2.2-5.101,2.75V93.85c0,2.85,0.1,3.45,2.3,3.45c1.351,0,1.45,0.05,1.45,0.65
		c0,0.3,0,0.65-0.5,0.65c-0.25,0-0.9-0.1-4.4-0.1c-4.7,0-5.5,0.1-6.25,0.1c-0.4,0-0.4-0.3-0.4-0.55c0-0.65,0.05-0.75,1.4-0.75
		c1.3,0,1.75-0.5,2.05-1.2c0.2-0.45,0.3-4,0.3-7.2V82.049z"/>
	<path fill="#F1B82D" d="M403.642,92.399c0,2.45-1.301,6.801-8.15,6.801c-0.9,0-3.801-0.4-5.751-0.4c-0.1,0-0.25-0.15-0.25-0.25
		c-0.05-0.5-1.15-4.9-1.15-5.4c0-0.3,0.7-0.3,0.9-0.3c1.2,0,1.5,5.05,6.301,5.05c3.55,0,4.55-2.7,4.55-4.45
		c0-5.25-11.2-3.55-11.2-10.651c0-4.1,3.4-6.8,7.601-6.8c2.3,0,5.2,0.4,5.4,0.45c0.649,0.15,0.75,1.1,0.75,1.4
		c0.1,2.05,0.55,3.35,0.55,4c0,0.3-0.3,0.4-0.55,0.4c-0.45,0-0.75-0.05-1-0.7c-0.351-0.85-1.65-4.25-5.201-4.25
		c-2.35,0-4,1.35-4,3.75c0,1.75,1.25,2.8,2.351,3.35C400.041,86.899,403.642,86.75,403.642,92.399z"/>
</g>
</svg>
