<svg id="e4a9753d-5a18-4395-9300-54a788fe7fb4" data-name="Layer 1" xmlns="http://www.w3.org/2000/svg" width="194" height="108" viewBox="0 0 194 108"><defs><style>.\36 6a5d951-a2dd-4fb5-8287-ccad216ed771{fill:#900000;}.\34 9bcb044-b6ca-40e8-9699-ba48cb0b3fb5{fill:#fff;}.c9aa4c1b-fa4d-4679-8cad-0e9722f9d898{fill:#f1b82d;}</style></defs><title>unit-name</title><path d="M9,20.22A8.45,8.45,0,0,1,.1,11.88,8.89,8.89,0,0,1,9,2.59c5.08,0,8.89,3,8.89,9.18A8.48,8.48,0,0,1,9,20.22Zm0-17c-5.58,0-6,6.25-6,8.22,0,3.31,1.61,8.17,6,8.17,5.65,0,6-5.34,6-8.19C15,8,13.4,3.21,9,3.21Z"/><path d="M23.56,17.9c0,0.89,0,1.41,1.2,1.41,0.89,0,1,0,1,.29s-0.1.33-.36,0.33c-0.86,0-1.63,0-2.73,0-1.92,0-2.32,0-2.54,0s-0.22-.14-0.22-0.31,0-.31.5-0.31c1,0,1.22-.19,1.22-1.22V11.41c0-.29,0-0.77-0.46-0.77H19.84c-0.17,0-.29,0-0.29-0.31s0.17-.29.74-0.41c0.93-.22,1.17-0.26,1.25-1.34,0.24-3.64,1.32-5.65,4.14-6.4A7.18,7.18,0,0,1,27.15,2a1.3,1.3,0,0,1,1.51,1,1.07,1.07,0,0,1-1.12,1.17,2.15,2.15,0,0,1-1.32-.55,2.2,2.2,0,0,0-1.05-.55c-1.37,0-1.6,2-1.6,3.47V9.66h3c0.17,0,.24.17,0.24,0.5a0.56,0.56,0,0,1-.65.6c-0.17,0-2-.12-2.56-0.12V17.9Z"/><path d="M31.1,17.9c0,0.89,0,1.41,1.2,1.41,0.53,0,.62,0,0.62.29s-0.1.33-.36,0.33c-0.5,0-1.27,0-2.37,0-1.92,0-2.32,0-2.54,0s-0.21-.14-0.21-0.31,0-.31.5-0.31c1,0,1.22-.19,1.22-1.22V11.41c0-.29,0-0.77-0.46-0.77H27.39c-0.17,0-.29,0-0.29-0.31s0.17-.29.74-0.41C28.78,9.7,29,9.66,29.09,8.58,29.33,5.06,31.87,2,35.73,2,36.35,2,38,2.23,38,3.28a1.15,1.15,0,0,1-1.25,1.17c-1.7,0-2.06-1.37-2.9-1.37s-2.71.46-2.71,5.15V9.66h4.07a7.37,7.37,0,0,0,2.68-.89C38,8.77,38,8.89,38,9a21.8,21.8,0,0,0-.12,3.45v5.17c0,1.37,0,1.65,1.1,1.65,0.53,0,.57,0,0.57.31s0,0.31-.24.31-0.43,0-2,0c-2.25,0-2.87,0-3.23,0-0.19,0-.19-0.14-0.19-0.26,0-.31,0-0.36.91-0.36a0.89,0.89,0,0,0,1-.58,24.29,24.29,0,0,0,.14-3.45V12a1.35,1.35,0,0,0-1.37-1.49H31.1V17.9Z"/><path d="M49.7,17.87a1.37,1.37,0,0,1,.41-0.38,0.5,0.5,0,0,1,.36.33,0.53,0.53,0,0,1-.19.36,5.4,5.4,0,0,1-4.19,2c-2.78,0-5-2-5-5.41s2.35-5.7,5.44-5.7c3.28,0,3.91,1.77,3.91,2.28a1.24,1.24,0,0,1-1.27,1c-0.77,0-.86-0.24-1.13-1.56a1.28,1.28,0,0,0-1.48-1.13c-1.51,0-3.38,1.15-3.38,5.08a3.8,3.8,0,0,0,4.07,4.07A4.38,4.38,0,0,0,49.7,17.87Z"/><path d="M53.87,13.42a8.67,8.67,0,0,0-.1,1.37,4,4,0,0,0,3.93,4,3.12,3.12,0,0,0,2.8-1.44,0.88,0.88,0,0,1,.36-0.41,0.51,0.51,0,0,1,.38.29,4.38,4.38,0,0,1-4.12,3c-3.43,0-5.22-2.11-5.22-5.46S54.22,9,56.69,9A4,4,0,0,1,61,13.15c0,0.24-.1.26-0.29,0.26H53.87ZM58,12.7a0.69,0.69,0,0,0,.82-0.79,2,2,0,0,0-2.11-2.28C55,9.63,54.25,11.07,54,12.7h4Z"/><path d="M74.61,20.22a5.36,5.36,0,0,1-5.56-5.56,5.57,5.57,0,0,1,11.14,0A5.25,5.25,0,0,1,74.61,20.22Zm0-10.49c-2.49,0-3.28,2.59-3.28,4.93,0,2,.48,4.94,3.28,4.94s3.3-2.9,3.3-4.94C77.92,12.32,77.13,9.73,74.61,9.73Z"/><path d="M85.66,17.9c0,0.89,0,1.41,1.2,1.41,0.89,0,1,0,1,.29s-0.1.33-.36,0.33c-0.86,0-1.63,0-2.73,0-1.92,0-2.32,0-2.54,0S82,19.79,82,19.62s0-.31.5-0.31c1,0,1.22-.19,1.22-1.22V11.41c0-.29,0-0.77-0.46-0.77H81.94c-0.17,0-.29,0-0.29-0.31s0.17-.29.74-0.41c0.93-.22,1.17-0.26,1.25-1.34,0.24-3.64,1.32-5.65,4.14-6.4A7.18,7.18,0,0,1,89.25,2a1.3,1.3,0,0,1,1.51,1,1.07,1.07,0,0,1-1.13,1.17,2.14,2.14,0,0,1-1.32-.55,2.2,2.2,0,0,0-1.05-.55c-1.37,0-1.6,2-1.6,3.47V9.66h3c0.17,0,.24.17,0.24,0.5a0.56,0.56,0,0,1-.65.6c-0.17,0-2-.12-2.56-0.12V17.9Z"/><path d="M98.09,8.51c0-1.7,0-2.28,0-3.38,0-1.41-.43-1.61-2.16-1.61-0.26,0-.26-0.19-0.26-0.41a0.26,0.26,0,0,1,.22-0.31c0.19,0,1.92.1,3.43,0.1,0.21,0,2.16-.1,3.4-0.1,5.73,0,6.33,3.76,6.33,4.74,0,3.43-2.37,5.17-5.63,5.17a15,15,0,0,1-2.9-.24c0,3.81,0,4.48,0,5.2,0,1,.19,1.53,2.66,1.53,0.67,0,.67.14,0.67,0.41s0,0.31-.19.31-0.84,0-4.38,0-3.62,0-3.79,0-0.19-.1-0.19-0.31,0-.41.67-0.41c1.89,0,2-.41,2.06-1.05,0-1.2.07-2.75,0.07-3.79V8.51Zm2.37,2.59c0,0.55.14,0.91,1.37,0.91,2.61,0,4.58-1.51,4.58-4.26a3.89,3.89,0,0,0-3.93-4.22c-1.82,0-2,0-2,2v5.58Z"/><path d="M112.25,12c0-.84-0.22-1.32-1.41-1.44a0.22,0.22,0,0,1-.22-0.29,0.29,0.29,0,0,1,.19-0.33,10.75,10.75,0,0,0,3.35-1.17,0.28,0.28,0,0,1,.1.24c0,0.29-.12.89-0.12,2.18,0.79-.89,2.08-2.08,3.35-2.08A1.36,1.36,0,0,1,119,10.45a1.18,1.18,0,0,1-1.17,1.2c-1,0-1.13-.91-1.84-0.91a2.69,2.69,0,0,0-1.65,1,1,1,0,0,0-.17.69V17.9c0,0.89,0,1.41,1.2,1.41,0.89,0,1,0,1,.29s-0.1.33-.36,0.33c-0.86,0-1.63,0-2.73,0-1.92,0-2.32,0-2.78,0-0.17,0-.21-0.14-0.21-0.31s0.29-.31.74-0.31c1,0,1.22-.19,1.22-1.22V12Z"/><path d="M125.64,20.22a5.36,5.36,0,0,1-5.56-5.56,5.57,5.57,0,0,1,11.14,0A5.25,5.25,0,0,1,125.64,20.22Zm0-10.49c-2.49,0-3.28,2.59-3.28,4.93,0,2,.48,4.94,3.28,4.94s3.31-2.9,3.31-4.94C128.95,12.32,128.16,9.73,125.64,9.73Z"/><path d="M139.75,18.88C143,18.88,143,21,143,21.73c0,3.62-4,4.67-6.92,4.67-1.56,0-3.09-.41-3.09-2.25,0-1.49,1.1-2.56,2.08-3.52a1.57,1.57,0,0,1-1.44-1.46c0-1.44.77-2.06,1.84-2.8a3.44,3.44,0,0,1-1.87-3.4A4.16,4.16,0,0,1,137.86,9a5,5,0,0,1,2.9.93,3.48,3.48,0,0,1,2-.72c1.53,0,1.8.84,1.8,1.34a1,1,0,0,1-.91.84c-0.62,0-1.2-1.37-1.63-1.37a1.8,1.8,0,0,0-.91.31,4.45,4.45,0,0,1,.91,2.32c0,2.59-1.63,4.12-4.26,4.12a5.49,5.49,0,0,1-1.72-.26,1.81,1.81,0,0,0-1,1.53c0,0.7.58,0.79,1.13,0.79h3.55Zm-3.83,1.82a3.19,3.19,0,0,0-1.56,2.4c0,0.34.1,2.2,3.45,2.2,2.73,0,4-.84,4-2.71,0-1.46-.89-1.89-2.44-1.89h-3.45Zm4-8.15c0-.36,0-2.9-2-2.9-2.23,0-2.25,2.85-2.25,3.69,0,1.41.48,2.85,2.16,2.85C139.83,16.2,140,13.58,140,12.55Z"/><path d="M146.87,12c0-.84-0.22-1.32-1.41-1.44a0.22,0.22,0,0,1-.22-0.29,0.29,0.29,0,0,1,.19-0.33,10.75,10.75,0,0,0,3.35-1.17,0.28,0.28,0,0,1,.1.24c0,0.29-.12.89-0.12,2.18,0.79-.89,2.08-2.08,3.35-2.08a1.36,1.36,0,0,1,1.53,1.34,1.18,1.18,0,0,1-1.17,1.2c-1,0-1.13-.91-1.84-0.91a2.69,2.69,0,0,0-1.65,1,1,1,0,0,0-.17.69V17.9c0,0.89,0,1.41,1.2,1.41,0.89,0,1,0,1,.29s-0.1.33-.36,0.33c-0.86,0-1.63,0-2.73,0-1.92,0-2.32,0-2.78,0-0.17,0-.21-0.14-0.21-0.31s0.29-.31.74-0.31c1,0,1.22-.19,1.22-1.22V12Z"/><path d="M162.23,18.59a0.38,0.38,0,0,0,.41.48,3.29,3.29,0,0,0,1-.55,0.4,0.4,0,0,1,.31.26,3.88,3.88,0,0,1-2.4,1.44c-0.86,0-1.05-.55-1.32-1.39-1.41,1.1-2.08,1.39-3.09,1.39a2.08,2.08,0,0,1-2.3-2.13c0-1.22.72-2.23,5.41-4V11.93a2.18,2.18,0,0,0-2-1.89,2.79,2.79,0,0,0-1.7,1.1,10.51,10.51,0,0,1,.31,1.2,1,1,0,0,1-1.17.91,0.92,0.92,0,0,1-1-.89c0-.65.17-1,2-2.16S158.73,9,159.26,9c0.77,0,3,.58,3,2.75v6.83ZM160.29,15a0.22,0.22,0,0,0-.17-0.24A12.5,12.5,0,0,0,157.75,16a1.74,1.74,0,0,0-.79,1.75,1.26,1.26,0,0,0,1.13,1.49c0.91,0,2.2-.84,2.2-1.27V15Z"/><path d="M166.66,12c0-.84-0.21-1.32-1.41-1.44a0.22,0.22,0,0,1-.22-0.29,0.29,0.29,0,0,1,.19-0.33,10.75,10.75,0,0,0,3.35-1.17s0.07,0.07.07,0.26,0,0.67,0,1.61a9.82,9.82,0,0,1,4.22-1.53,2.92,2.92,0,0,1,2.61,1.56c1.29-.77,2.23-1.56,3.67-1.56,0.81,0,3.16.12,3.16,2.92V18.4c0,0.41.07,0.86,1.56,0.86,0.24,0,.24.14,0.24,0.31s0,0.31-.33.31c-0.72,0-1.15,0-2.42,0-1.94,0-2.32,0-2.52,0s-0.17-.17-0.17-0.29a0.31,0.31,0,0,1,.34-0.34c1.15,0,1.37-.1,1.37-0.89V12.17c0-.31-0.19-2-2.44-2a3.49,3.49,0,0,0-2.44,1.32v6.13c0,1.37,0,1.65,1.1,1.65,0.65,0,.7,0,0.7.31s0,0.31-.24.31-0.43,0-2.51,0-2.32,0-2.52,0-0.17-.17-0.17-0.29a0.31,0.31,0,0,1,.33-0.34c1.15,0,1.37-.1,1.37-0.93V12.17c0-.91-0.19-2-2.44-2a3.49,3.49,0,0,0-2.44,1.32v6.13c0,1.37,0,1.65,1.1,1.65,0.65,0,.69,0,0.69.31s0,0.31-.24.31-0.43,0-2.11,0c-2.25,0-2.63,0-3,0-0.19,0-.19-0.14-0.19-0.26,0-.31,0-0.36.67-0.36a0.9,0.9,0,0,0,1-.58,24.29,24.29,0,0,0,.14-3.45V12Z"/><path d="M192.42,17c0,1.17-.62,3.26-3.91,3.26-0.43,0-1.82-.19-2.75-0.19a0.15,0.15,0,0,1-.12-0.12c0-.24-0.55-2.35-0.55-2.59s0.34-.14.43-0.14c0.58,0,.72,2.42,3,2.42a2,2,0,0,0,2.18-2.13c0-2.51-5.37-1.7-5.37-5.1A3.36,3.36,0,0,1,189,9.11a19.09,19.09,0,0,1,2.59.22,0.68,0.68,0,0,1,.36.67c0,1,.26,1.6.26,1.92a0.22,0.22,0,0,1-.26.19,0.42,0.42,0,0,1-.48-0.33,2.82,2.82,0,0,0-2.49-2,1.73,1.73,0,0,0-1.92,1.8,1.82,1.82,0,0,0,1.13,1.6C190.69,14.33,192.42,14.26,192.42,17Z"/><path class="66a5d951-a2dd-4fb5-8287-ccad216ed771" d="M9,47.22A8.45,8.45,0,0,1,.1,38.88,8.89,8.89,0,0,1,9,29.59c5.08,0,8.89,3,8.89,9.18A8.48,8.48,0,0,1,9,47.22Zm0-17c-5.58,0-6,6.25-6,8.22,0,3.31,1.6,8.17,6,8.17,5.65,0,6-5.34,6-8.19C15,35,13.4,30.21,9,30.21Z"/><path class="66a5d951-a2dd-4fb5-8287-ccad216ed771" d="M23.56,44.9c0,0.89,0,1.41,1.2,1.41,0.89,0,1,0,1,.29s-0.1.33-.36,0.33c-0.86,0-1.63,0-2.73,0-1.92,0-2.32,0-2.54,0s-0.22-.14-0.22-0.31,0-.31.5-0.31c1,0,1.22-.19,1.22-1.22V38.41c0-.29,0-0.77-0.46-0.77H19.84c-0.17,0-.29,0-0.29-0.31s0.17-.29.74-0.41c0.93-.22,1.17-0.26,1.25-1.34,0.24-3.64,1.32-5.65,4.14-6.4A7.16,7.16,0,0,1,27.15,29a1.3,1.3,0,0,1,1.51,1,1.07,1.07,0,0,1-1.13,1.17,2.14,2.14,0,0,1-1.32-.55,2.21,2.21,0,0,0-1.05-.55c-1.37,0-1.61,2-1.61,3.47v3.09h3c0.17,0,.24.17,0.24,0.5a0.56,0.56,0,0,1-.65.6c-0.17,0-2-.12-2.56-0.12V44.9Z"/><path class="66a5d951-a2dd-4fb5-8287-ccad216ed771" d="M31.1,44.9c0,0.89,0,1.41,1.2,1.41,0.53,0,.62,0,0.62.29s-0.1.33-.36,0.33c-0.5,0-1.27,0-2.37,0-1.92,0-2.32,0-2.54,0s-0.22-.14-0.22-0.31,0-.31.5-0.31c1,0,1.22-.19,1.22-1.22V38.41c0-.29,0-0.77-0.46-0.77H27.39c-0.17,0-.29,0-0.29-0.31s0.17-.29.74-0.41c0.93-.22,1.17-0.26,1.25-1.34C29.33,32.06,31.87,29,35.73,29c0.62,0,2.23.24,2.23,1.29a1.15,1.15,0,0,1-1.25,1.17c-1.7,0-2.06-1.37-2.9-1.37s-2.71.46-2.71,5.15v1.41h4.07a7.36,7.36,0,0,0,2.68-.89c0.1,0,.14.12,0.14,0.26a21.63,21.63,0,0,0-.12,3.45v5.17c0,1.37,0,1.65,1.1,1.65,0.53,0,.58,0,0.58.31s0,0.31-.24.31-0.43,0-2,0c-2.25,0-2.87,0-3.23,0-0.19,0-.19-0.14-0.19-0.26,0-.31,0-0.36.91-0.36a0.9,0.9,0,0,0,1-.57,24.26,24.26,0,0,0,.14-3.45V39a1.35,1.35,0,0,0-1.37-1.49H31.1V44.9Z"/><path class="66a5d951-a2dd-4fb5-8287-ccad216ed771" d="M49.7,44.87a1.37,1.37,0,0,1,.41-0.38,0.5,0.5,0,0,1,.36.33,0.53,0.53,0,0,1-.19.36,5.4,5.4,0,0,1-4.19,2c-2.78,0-5-2-5-5.41s2.35-5.7,5.44-5.7c3.28,0,3.91,1.77,3.91,2.28a1.24,1.24,0,0,1-1.27,1c-0.77,0-.86-0.24-1.12-1.56a1.28,1.28,0,0,0-1.49-1.13c-1.51,0-3.38,1.15-3.38,5.08a3.8,3.8,0,0,0,4.07,4.07A4.38,4.38,0,0,0,49.7,44.87Z"/><path class="66a5d951-a2dd-4fb5-8287-ccad216ed771" d="M53.86,40.42a8.79,8.79,0,0,0-.1,1.37,4,4,0,0,0,3.93,4,3.13,3.13,0,0,0,2.8-1.44,0.88,0.88,0,0,1,.36-0.41,0.5,0.5,0,0,1,.38.29,4.37,4.37,0,0,1-4.12,3c-3.43,0-5.22-2.11-5.22-5.46S54.22,36,56.69,36A4,4,0,0,1,61,40.15c0,0.24-.1.26-0.29,0.26H53.86ZM58,39.7a0.69,0.69,0,0,0,.81-0.79,2,2,0,0,0-2.11-2.28c-1.72,0-2.44,1.44-2.68,3.07h4Z"/><path class="66a5d951-a2dd-4fb5-8287-ccad216ed771" d="M74.61,47.22a5.36,5.36,0,0,1-5.56-5.56,5.57,5.57,0,0,1,11.14,0A5.25,5.25,0,0,1,74.61,47.22Zm0-10.49c-2.49,0-3.28,2.59-3.28,4.93,0,2,.48,4.94,3.28,4.94s3.31-2.9,3.31-4.94C77.92,39.32,77.13,36.73,74.61,36.73Z"/><path class="66a5d951-a2dd-4fb5-8287-ccad216ed771" d="M85.66,44.9c0,0.89,0,1.41,1.2,1.41,0.89,0,1,0,1,.29s-0.1.33-.36,0.33c-0.86,0-1.63,0-2.73,0-1.92,0-2.32,0-2.54,0S82,46.79,82,46.62s0-.31.5-0.31c1,0,1.22-.19,1.22-1.22V38.41c0-.29,0-0.77-0.46-0.77H81.94c-0.17,0-.29,0-0.29-0.31s0.17-.29.74-0.41c0.93-.22,1.17-0.26,1.25-1.34,0.24-3.64,1.32-5.65,4.14-6.4A7.16,7.16,0,0,1,89.25,29a1.3,1.3,0,0,1,1.51,1,1.07,1.07,0,0,1-1.13,1.17,2.15,2.15,0,0,1-1.32-.55,2.21,2.21,0,0,0-1.05-.55c-1.37,0-1.61,2-1.61,3.47v3.09h3c0.17,0,.24.17,0.24,0.5a0.56,0.56,0,0,1-.65.6c-0.17,0-2-.12-2.56-0.12V44.9Z"/><path class="66a5d951-a2dd-4fb5-8287-ccad216ed771" d="M98.09,35.51c0-1.7,0-2.28,0-3.38,0-1.41-.43-1.61-2.16-1.61-0.26,0-.26-0.19-0.26-0.41a0.26,0.26,0,0,1,.22-0.31c0.19,0,1.92.1,3.43,0.1,0.22,0,2.16-.1,3.4-0.1,5.73,0,6.32,3.76,6.32,4.74,0,3.43-2.37,5.17-5.63,5.17a15,15,0,0,1-2.9-.24c0,3.81,0,4.48,0,5.2,0,1,.19,1.53,2.66,1.53,0.67,0,.67.14,0.67,0.41s0,0.31-.19.31-0.84,0-4.38,0-3.62,0-3.79,0-0.19-.1-0.19-0.31,0-.41.67-0.41c1.89,0,2-.41,2.06-1.05,0-1.2.07-2.75,0.07-3.79V35.51Zm2.37,2.59c0,0.55.14,0.91,1.37,0.91,2.61,0,4.58-1.51,4.58-4.26a3.89,3.89,0,0,0-3.93-4.22c-1.82,0-2,0-2,2v5.58Z"/><path class="66a5d951-a2dd-4fb5-8287-ccad216ed771" d="M112.25,39c0-.84-0.22-1.32-1.41-1.44a0.22,0.22,0,0,1-.22-0.29,0.29,0.29,0,0,1,.19-0.33,10.73,10.73,0,0,0,3.35-1.17,0.28,0.28,0,0,1,.1.24c0,0.29-.12.89-0.12,2.18,0.79-.89,2.08-2.08,3.35-2.08A1.36,1.36,0,0,1,119,37.45a1.18,1.18,0,0,1-1.17,1.2c-1,0-1.13-.91-1.84-0.91a2.69,2.69,0,0,0-1.65,1,1,1,0,0,0-.17.69V44.9c0,0.89,0,1.41,1.2,1.41,0.89,0,1,0,1,.29s-0.1.33-.36,0.33c-0.86,0-1.63,0-2.73,0-1.92,0-2.32,0-2.78,0-0.17,0-.22-0.14-0.22-0.31s0.29-.31.74-0.31c1,0,1.22-.19,1.22-1.22V39Z"/><path class="66a5d951-a2dd-4fb5-8287-ccad216ed771" d="M125.64,47.22a5.36,5.36,0,0,1-5.56-5.56,5.57,5.57,0,0,1,11.14,0A5.25,5.25,0,0,1,125.64,47.22Zm0-10.49c-2.49,0-3.28,2.59-3.28,4.93,0,2,.48,4.94,3.28,4.94s3.31-2.9,3.31-4.94C128.95,39.32,128.16,36.73,125.64,36.73Z"/><path class="66a5d951-a2dd-4fb5-8287-ccad216ed771" d="M139.75,45.88C143,45.88,143,48,143,48.73c0,3.62-4,4.67-6.92,4.67-1.56,0-3.09-.41-3.09-2.25,0-1.49,1.1-2.56,2.08-3.52a1.57,1.57,0,0,1-1.44-1.46c0-1.44.77-2.06,1.84-2.8a3.44,3.44,0,0,1-1.87-3.4A4.16,4.16,0,0,1,137.86,36a5,5,0,0,1,2.9.93,3.48,3.48,0,0,1,2-.72c1.53,0,1.8.84,1.8,1.34a1,1,0,0,1-.91.84c-0.62,0-1.2-1.37-1.63-1.37a1.8,1.8,0,0,0-.91.31,4.45,4.45,0,0,1,.91,2.32c0,2.59-1.63,4.12-4.26,4.12a5.49,5.49,0,0,1-1.72-.26,1.81,1.81,0,0,0-1,1.53c0,0.7.58,0.79,1.13,0.79h3.55Zm-3.83,1.82a3.19,3.19,0,0,0-1.56,2.4c0,0.34.1,2.2,3.45,2.2,2.73,0,4-.84,4-2.71,0-1.46-.89-1.89-2.44-1.89h-3.45Zm4-8.15c0-.36,0-2.9-2-2.9-2.23,0-2.25,2.85-2.25,3.69,0,1.41.48,2.85,2.16,2.85C139.83,43.2,140,40.58,140,39.55Z"/><path class="66a5d951-a2dd-4fb5-8287-ccad216ed771" d="M146.87,39c0-.84-0.22-1.32-1.41-1.44a0.22,0.22,0,0,1-.22-0.29,0.29,0.29,0,0,1,.19-0.33,10.73,10.73,0,0,0,3.35-1.17,0.28,0.28,0,0,1,.1.24c0,0.29-.12.89-0.12,2.18,0.79-.89,2.08-2.08,3.35-2.08a1.36,1.36,0,0,1,1.53,1.34,1.18,1.18,0,0,1-1.17,1.2c-1,0-1.13-.91-1.84-0.91a2.69,2.69,0,0,0-1.65,1,1,1,0,0,0-.17.69V44.9c0,0.89,0,1.41,1.2,1.41,0.89,0,1,0,1,.29s-0.1.33-.36,0.33c-0.86,0-1.63,0-2.73,0-1.92,0-2.32,0-2.78,0-0.17,0-.22-0.14-0.22-0.31s0.29-.31.74-0.31c1,0,1.22-.19,1.22-1.22V39Z"/><path class="66a5d951-a2dd-4fb5-8287-ccad216ed771" d="M162.23,45.59a0.38,0.38,0,0,0,.41.48,3.29,3.29,0,0,0,1-.55,0.4,0.4,0,0,1,.31.26,3.88,3.88,0,0,1-2.4,1.44c-0.86,0-1.05-.55-1.32-1.39-1.41,1.1-2.08,1.39-3.09,1.39a2.08,2.08,0,0,1-2.3-2.13c0-1.22.72-2.23,5.41-4V38.93a2.18,2.18,0,0,0-2-1.89,2.79,2.79,0,0,0-1.7,1.1,10.51,10.51,0,0,1,.31,1.2,1,1,0,0,1-1.17.91,0.92,0.92,0,0,1-1-.89c0-.65.17-1,2-2.16s2.06-1.2,2.59-1.2c0.77,0,3,.58,3,2.75v6.83ZM160.29,42a0.22,0.22,0,0,0-.17-0.24A12.5,12.5,0,0,0,157.75,43a1.74,1.74,0,0,0-.79,1.75,1.26,1.26,0,0,0,1.13,1.49c0.91,0,2.2-.84,2.2-1.27V42Z"/><path class="66a5d951-a2dd-4fb5-8287-ccad216ed771" d="M166.66,39c0-.84-0.21-1.32-1.41-1.44a0.22,0.22,0,0,1-.22-0.29,0.29,0.29,0,0,1,.19-0.33,10.73,10.73,0,0,0,3.35-1.17s0.07,0.07.07,0.26,0,0.67,0,1.61a9.82,9.82,0,0,1,4.22-1.53,2.92,2.92,0,0,1,2.61,1.56c1.29-.77,2.23-1.56,3.67-1.56,0.81,0,3.16.12,3.16,2.92V45.4c0,0.41.07,0.86,1.56,0.86,0.24,0,.24.14,0.24,0.31s0,0.31-.33.31c-0.72,0-1.15,0-2.42,0-1.94,0-2.32,0-2.52,0s-0.17-.17-0.17-0.29a0.31,0.31,0,0,1,.34-0.34c1.15,0,1.37-.1,1.37-0.89V39.17c0-.31-0.19-2-2.44-2a3.49,3.49,0,0,0-2.44,1.32v6.13c0,1.37,0,1.65,1.1,1.65,0.65,0,.7,0,0.7.31s0,0.31-.24.31-0.43,0-2.51,0-2.32,0-2.52,0-0.17-.17-0.17-0.29a0.31,0.31,0,0,1,.33-0.34c1.15,0,1.37-.1,1.37-0.93V39.17c0-.91-0.19-2-2.44-2a3.49,3.49,0,0,0-2.44,1.32v6.13c0,1.37,0,1.65,1.1,1.65,0.65,0,.69,0,0.69.31s0,0.31-.24.31-0.43,0-2.11,0c-2.25,0-2.63,0-3,0-0.19,0-.19-0.14-0.19-0.26,0-.31,0-0.36.67-0.36a0.9,0.9,0,0,0,1-.57,24.32,24.32,0,0,0,.14-3.45V39Z"/><path class="66a5d951-a2dd-4fb5-8287-ccad216ed771" d="M192.41,44c0,1.17-.62,3.26-3.91,3.26-0.43,0-1.82-.19-2.75-0.19a0.15,0.15,0,0,1-.12-0.12c0-.24-0.55-2.35-0.55-2.59s0.34-.14.43-0.14c0.58,0,.72,2.42,3,2.42a2,2,0,0,0,2.18-2.13c0-2.51-5.37-1.7-5.37-5.1A3.36,3.36,0,0,1,189,36.11a19.09,19.09,0,0,1,2.59.22,0.68,0.68,0,0,1,.36.67c0,1,.26,1.6.26,1.92a0.22,0.22,0,0,1-.26.19,0.42,0.42,0,0,1-.48-0.33,2.82,2.82,0,0,0-2.49-2,1.73,1.73,0,0,0-1.92,1.8,1.82,1.82,0,0,0,1.13,1.6C190.69,41.33,192.41,41.26,192.41,44Z"/><path class="49bcb044-b6ca-40e8-9699-ba48cb0b3fb5" d="M9,74.22A8.45,8.45,0,0,1,.1,65.88,8.89,8.89,0,0,1,9,56.59c5.08,0,8.89,3,8.89,9.18A8.48,8.48,0,0,1,9,74.22Zm0-17c-5.58,0-6,6.25-6,8.22,0,3.31,1.6,8.17,6,8.17,5.65,0,6-5.34,6-8.19C15,62,13.4,57.21,9,57.21Z"/><path class="49bcb044-b6ca-40e8-9699-ba48cb0b3fb5" d="M23.56,71.9c0,0.89,0,1.41,1.2,1.41,0.89,0,1,0,1,.29s-0.1.33-.36,0.33c-0.86,0-1.63,0-2.73,0-1.92,0-2.32,0-2.54,0s-0.22-.14-0.22-0.31,0-.31.5-0.31c1,0,1.22-.19,1.22-1.22V65.41c0-.29,0-0.77-0.46-0.77H19.84c-0.17,0-.29,0-0.29-0.31s0.17-.29.74-0.41c0.93-.22,1.17-0.26,1.25-1.34,0.24-3.64,1.32-5.65,4.14-6.4A7.16,7.16,0,0,1,27.15,56a1.3,1.3,0,0,1,1.51,1,1.07,1.07,0,0,1-1.13,1.17,2.14,2.14,0,0,1-1.32-.55,2.21,2.21,0,0,0-1.05-.55c-1.37,0-1.61,2-1.61,3.47v3.09h3c0.17,0,.24.17,0.24,0.5a0.56,0.56,0,0,1-.65.6c-0.17,0-2-.12-2.56-0.12V71.9Z"/><path class="49bcb044-b6ca-40e8-9699-ba48cb0b3fb5" d="M31.1,71.9c0,0.89,0,1.41,1.2,1.41,0.53,0,.62,0,0.62.29s-0.1.33-.36,0.33c-0.5,0-1.27,0-2.37,0-1.92,0-2.32,0-2.54,0s-0.22-.14-0.22-0.31,0-.31.5-0.31c1,0,1.22-.19,1.22-1.22V65.41c0-.29,0-0.77-0.46-0.77H27.39c-0.17,0-.29,0-0.29-0.31s0.17-.29.74-0.41c0.93-.22,1.17-0.26,1.25-1.34C29.33,59.06,31.87,56,35.73,56c0.62,0,2.23.24,2.23,1.29a1.15,1.15,0,0,1-1.25,1.17c-1.7,0-2.06-1.37-2.9-1.37s-2.71.46-2.71,5.15v1.41h4.07a7.36,7.36,0,0,0,2.68-.89c0.1,0,.14.12,0.14,0.26a21.63,21.63,0,0,0-.12,3.45v5.17c0,1.37,0,1.65,1.1,1.65,0.53,0,.58,0,0.58.31s0,0.31-.24.31-0.43,0-2,0c-2.25,0-2.87,0-3.23,0-0.19,0-.19-0.14-0.19-0.26,0-.31,0-0.36.91-0.36a0.9,0.9,0,0,0,1-.57,24.26,24.26,0,0,0,.14-3.45V66a1.35,1.35,0,0,0-1.37-1.49H31.1V71.9Z"/><path class="49bcb044-b6ca-40e8-9699-ba48cb0b3fb5" d="M49.7,71.87a1.37,1.37,0,0,1,.41-0.38,0.5,0.5,0,0,1,.36.33,0.53,0.53,0,0,1-.19.36,5.4,5.4,0,0,1-4.19,2c-2.78,0-5-2-5-5.41s2.35-5.7,5.44-5.7c3.28,0,3.91,1.77,3.91,2.28a1.24,1.24,0,0,1-1.27,1c-0.77,0-.86-0.24-1.12-1.56a1.28,1.28,0,0,0-1.49-1.13c-1.51,0-3.38,1.15-3.38,5.08a3.8,3.8,0,0,0,4.07,4.07A4.38,4.38,0,0,0,49.7,71.87Z"/><path class="49bcb044-b6ca-40e8-9699-ba48cb0b3fb5" d="M53.86,67.42a8.79,8.79,0,0,0-.1,1.37,4,4,0,0,0,3.93,4,3.13,3.13,0,0,0,2.8-1.44,0.88,0.88,0,0,1,.36-0.41,0.5,0.5,0,0,1,.38.29,4.37,4.37,0,0,1-4.12,3c-3.43,0-5.22-2.11-5.22-5.46S54.22,63,56.69,63A4,4,0,0,1,61,67.15c0,0.24-.1.26-0.29,0.26H53.86ZM58,66.7a0.69,0.69,0,0,0,.81-0.79,2,2,0,0,0-2.11-2.28c-1.72,0-2.44,1.44-2.68,3.07h4Z"/><path class="49bcb044-b6ca-40e8-9699-ba48cb0b3fb5" d="M74.61,74.22a5.36,5.36,0,0,1-5.56-5.56,5.57,5.57,0,0,1,11.14,0A5.25,5.25,0,0,1,74.61,74.22Zm0-10.49c-2.49,0-3.28,2.59-3.28,4.93,0,2,.48,4.94,3.28,4.94s3.31-2.9,3.31-4.94C77.92,66.32,77.13,63.73,74.61,63.73Z"/><path class="49bcb044-b6ca-40e8-9699-ba48cb0b3fb5" d="M85.66,71.9c0,0.89,0,1.41,1.2,1.41,0.89,0,1,0,1,.29s-0.1.33-.36,0.33c-0.86,0-1.63,0-2.73,0-1.92,0-2.32,0-2.54,0S82,73.79,82,73.62s0-.31.5-0.31c1,0,1.22-.19,1.22-1.22V65.41c0-.29,0-0.77-0.46-0.77H81.94c-0.17,0-.29,0-0.29-0.31s0.17-.29.74-0.41c0.93-.22,1.17-0.26,1.25-1.34,0.24-3.64,1.32-5.65,4.14-6.4A7.16,7.16,0,0,1,89.25,56a1.3,1.3,0,0,1,1.51,1,1.07,1.07,0,0,1-1.13,1.17,2.15,2.15,0,0,1-1.32-.55,2.21,2.21,0,0,0-1.05-.55c-1.37,0-1.61,2-1.61,3.47v3.09h3c0.17,0,.24.17,0.24,0.5a0.56,0.56,0,0,1-.65.6c-0.17,0-2-.12-2.56-0.12V71.9Z"/><path class="49bcb044-b6ca-40e8-9699-ba48cb0b3fb5" d="M98.09,62.51c0-1.7,0-2.28,0-3.38,0-1.41-.43-1.61-2.16-1.61-0.26,0-.26-0.19-0.26-0.41a0.26,0.26,0,0,1,.22-0.31c0.19,0,1.92.1,3.43,0.1,0.22,0,2.16-.1,3.4-0.1,5.73,0,6.32,3.76,6.32,4.74,0,3.43-2.37,5.17-5.63,5.17a15,15,0,0,1-2.9-.24c0,3.81,0,4.48,0,5.2,0,1,.19,1.53,2.66,1.53,0.67,0,.67.14,0.67,0.41s0,0.31-.19.31-0.84,0-4.38,0-3.62,0-3.79,0-0.19-.1-0.19-0.31,0-.41.67-0.41c1.89,0,2-.41,2.06-1.05,0-1.2.07-2.75,0.07-3.79V62.51Zm2.37,2.59c0,0.55.14,0.91,1.37,0.91,2.61,0,4.58-1.51,4.58-4.26a3.89,3.89,0,0,0-3.93-4.22c-1.82,0-2,0-2,2v5.58Z"/><path class="49bcb044-b6ca-40e8-9699-ba48cb0b3fb5" d="M112.25,66c0-.84-0.22-1.32-1.41-1.44a0.22,0.22,0,0,1-.22-0.29,0.29,0.29,0,0,1,.19-0.33,10.73,10.73,0,0,0,3.35-1.17,0.28,0.28,0,0,1,.1.24c0,0.29-.12.89-0.12,2.18,0.79-.89,2.08-2.08,3.35-2.08A1.36,1.36,0,0,1,119,64.45a1.18,1.18,0,0,1-1.17,1.2c-1,0-1.13-.91-1.84-0.91a2.69,2.69,0,0,0-1.65,1,1,1,0,0,0-.17.69V71.9c0,0.89,0,1.41,1.2,1.41,0.89,0,1,0,1,.29s-0.1.33-.36,0.33c-0.86,0-1.63,0-2.73,0-1.92,0-2.32,0-2.78,0-0.17,0-.22-0.14-0.22-0.31s0.29-.31.74-0.31c1,0,1.22-.19,1.22-1.22V66Z"/><path class="49bcb044-b6ca-40e8-9699-ba48cb0b3fb5" d="M125.64,74.22a5.36,5.36,0,0,1-5.56-5.56,5.57,5.57,0,0,1,11.14,0A5.25,5.25,0,0,1,125.64,74.22Zm0-10.49c-2.49,0-3.28,2.59-3.28,4.93,0,2,.48,4.94,3.28,4.94s3.31-2.9,3.31-4.94C128.95,66.32,128.16,63.73,125.64,63.73Z"/><path class="49bcb044-b6ca-40e8-9699-ba48cb0b3fb5" d="M139.75,72.88C143,72.88,143,75,143,75.73c0,3.62-4,4.67-6.92,4.67-1.56,0-3.09-.41-3.09-2.25,0-1.49,1.1-2.56,2.08-3.52a1.57,1.57,0,0,1-1.44-1.46c0-1.44.77-2.06,1.84-2.8a3.44,3.44,0,0,1-1.87-3.4A4.16,4.16,0,0,1,137.86,63a5,5,0,0,1,2.9.93,3.48,3.48,0,0,1,2-.72c1.53,0,1.8.84,1.8,1.34a1,1,0,0,1-.91.84c-0.62,0-1.2-1.37-1.63-1.37a1.8,1.8,0,0,0-.91.31,4.45,4.45,0,0,1,.91,2.32c0,2.59-1.63,4.12-4.26,4.12a5.49,5.49,0,0,1-1.72-.26,1.81,1.81,0,0,0-1,1.53c0,0.7.58,0.79,1.13,0.79h3.55Zm-3.83,1.82a3.19,3.19,0,0,0-1.56,2.4c0,0.34.1,2.2,3.45,2.2,2.73,0,4-.84,4-2.71,0-1.46-.89-1.89-2.44-1.89h-3.45Zm4-8.15c0-.36,0-2.9-2-2.9-2.23,0-2.25,2.85-2.25,3.69,0,1.41.48,2.85,2.16,2.85C139.83,70.2,140,67.58,140,66.55Z"/><path class="49bcb044-b6ca-40e8-9699-ba48cb0b3fb5" d="M146.87,66c0-.84-0.22-1.32-1.41-1.44a0.22,0.22,0,0,1-.22-0.29,0.29,0.29,0,0,1,.19-0.33,10.73,10.73,0,0,0,3.35-1.17,0.28,0.28,0,0,1,.1.24c0,0.29-.12.89-0.12,2.18,0.79-.89,2.08-2.08,3.35-2.08a1.36,1.36,0,0,1,1.53,1.34,1.18,1.18,0,0,1-1.17,1.2c-1,0-1.13-.91-1.84-0.91a2.69,2.69,0,0,0-1.65,1,1,1,0,0,0-.17.69V71.9c0,0.89,0,1.41,1.2,1.41,0.89,0,1,0,1,.29s-0.1.33-.36,0.33c-0.86,0-1.63,0-2.73,0-1.92,0-2.32,0-2.78,0-0.17,0-.22-0.14-0.22-0.31s0.29-.31.74-0.31c1,0,1.22-.19,1.22-1.22V66Z"/><path class="49bcb044-b6ca-40e8-9699-ba48cb0b3fb5" d="M162.23,72.59a0.38,0.38,0,0,0,.41.48,3.29,3.29,0,0,0,1-.55,0.4,0.4,0,0,1,.31.26,3.88,3.88,0,0,1-2.4,1.44c-0.86,0-1.05-.55-1.32-1.39-1.41,1.1-2.08,1.39-3.09,1.39a2.08,2.08,0,0,1-2.3-2.13c0-1.22.72-2.23,5.41-4V65.93a2.18,2.18,0,0,0-2-1.89,2.79,2.79,0,0,0-1.7,1.1,10.51,10.51,0,0,1,.31,1.2,1,1,0,0,1-1.17.91,0.92,0.92,0,0,1-1-.89c0-.65.17-1,2-2.16s2.06-1.2,2.59-1.2c0.77,0,3,.58,3,2.75v6.83ZM160.29,69a0.22,0.22,0,0,0-.17-0.24A12.5,12.5,0,0,0,157.75,70a1.74,1.74,0,0,0-.79,1.75,1.26,1.26,0,0,0,1.13,1.49c0.91,0,2.2-.84,2.2-1.27V69Z"/><path class="49bcb044-b6ca-40e8-9699-ba48cb0b3fb5" d="M166.66,66c0-.84-0.21-1.32-1.41-1.44a0.22,0.22,0,0,1-.22-0.29,0.29,0.29,0,0,1,.19-0.33,10.73,10.73,0,0,0,3.35-1.17s0.07,0.07.07,0.26,0,0.67,0,1.61a9.82,9.82,0,0,1,4.22-1.53,2.92,2.92,0,0,1,2.61,1.56c1.29-.77,2.23-1.56,3.67-1.56,0.81,0,3.16.12,3.16,2.92V72.4c0,0.41.07,0.86,1.56,0.86,0.24,0,.24.14,0.24,0.31s0,0.31-.33.31c-0.72,0-1.15,0-2.42,0-1.94,0-2.32,0-2.52,0s-0.17-.17-0.17-0.29a0.31,0.31,0,0,1,.34-0.34c1.15,0,1.37-.1,1.37-0.89V66.17c0-.31-0.19-2-2.44-2a3.49,3.49,0,0,0-2.44,1.32v6.13c0,1.37,0,1.65,1.1,1.65,0.65,0,.7,0,0.7.31s0,0.31-.24.31-0.43,0-2.51,0-2.32,0-2.52,0-0.17-.17-0.17-0.29a0.31,0.31,0,0,1,.33-0.34c1.15,0,1.37-.1,1.37-0.93V66.17c0-.91-0.19-2-2.44-2a3.49,3.49,0,0,0-2.44,1.32v6.13c0,1.37,0,1.65,1.1,1.65,0.65,0,.69,0,0.69.31s0,0.31-.24.31-0.43,0-2.11,0c-2.25,0-2.63,0-3,0-0.19,0-.19-0.14-0.19-0.26,0-.31,0-0.36.67-0.36a0.9,0.9,0,0,0,1-.57,24.32,24.32,0,0,0,.14-3.45V66Z"/><path class="49bcb044-b6ca-40e8-9699-ba48cb0b3fb5" d="M192.41,71c0,1.17-.62,3.26-3.91,3.26-0.43,0-1.82-.19-2.75-0.19a0.15,0.15,0,0,1-.12-0.12c0-.24-0.55-2.35-0.55-2.59s0.34-.14.43-0.14c0.58,0,.72,2.42,3,2.42a2,2,0,0,0,2.18-2.13c0-2.51-5.37-1.7-5.37-5.1A3.36,3.36,0,0,1,189,63.11a19.09,19.09,0,0,1,2.59.22,0.68,0.68,0,0,1,.36.67c0,1,.26,1.6.26,1.92a0.22,0.22,0,0,1-.26.19,0.42,0.42,0,0,1-.48-0.33,2.82,2.82,0,0,0-2.49-2,1.73,1.73,0,0,0-1.92,1.8,1.82,1.82,0,0,0,1.13,1.6C190.69,68.33,192.41,68.26,192.41,71Z"/><path class="c9aa4c1b-fa4d-4679-8cad-0e9722f9d898" d="M9,101.22A8.45,8.45,0,0,1,.1,92.88,8.89,8.89,0,0,1,9,83.59c5.08,0,8.89,3,8.89,9.18A8.48,8.48,0,0,1,9,101.22Zm0-17c-5.58,0-6,6.25-6,8.22,0,3.31,1.6,8.17,6,8.17,5.65,0,6-5.34,6-8.19C15,89,13.4,84.21,9,84.21Z"/><path class="c9aa4c1b-fa4d-4679-8cad-0e9722f9d898" d="M23.56,98.9c0,0.89,0,1.41,1.2,1.41,0.89,0,1,0,1,.29s-0.1.33-.36,0.33c-0.86,0-1.63,0-2.73,0-1.92,0-2.32,0-2.54,0s-0.22-.14-0.22-0.31,0-.31.5-0.31c1,0,1.22-.19,1.22-1.22V92.4c0-.29,0-0.77-0.46-0.77H19.84c-0.17,0-.29,0-0.29-0.31s0.17-.29.74-0.41c0.93-.22,1.17-0.26,1.25-1.34,0.24-3.64,1.32-5.65,4.14-6.4A7.16,7.16,0,0,1,27.15,83a1.3,1.3,0,0,1,1.51,1,1.07,1.07,0,0,1-1.13,1.17,2.14,2.14,0,0,1-1.32-.55,2.21,2.21,0,0,0-1.05-.55c-1.37,0-1.61,2-1.61,3.47v3.09h3c0.17,0,.24.17,0.24,0.5a0.56,0.56,0,0,1-.65.6c-0.17,0-2-.12-2.56-0.12V98.9Z"/><path class="c9aa4c1b-fa4d-4679-8cad-0e9722f9d898" d="M31.1,98.9c0,0.89,0,1.41,1.2,1.41,0.53,0,.62,0,0.62.29s-0.1.33-.36,0.33c-0.5,0-1.27,0-2.37,0-1.92,0-2.32,0-2.54,0s-0.22-.14-0.22-0.31,0-.31.5-0.31c1,0,1.22-.19,1.22-1.22V92.4c0-.29,0-0.77-0.46-0.77H27.39c-0.17,0-.29,0-0.29-0.31s0.17-.29.74-0.41c0.93-.22,1.17-0.26,1.25-1.34C29.33,86.06,31.87,83,35.73,83c0.62,0,2.23.24,2.23,1.29a1.15,1.15,0,0,1-1.25,1.17c-1.7,0-2.06-1.37-2.9-1.37s-2.71.46-2.71,5.15v1.41h4.07a7.36,7.36,0,0,0,2.68-.89c0.1,0,.14.12,0.14,0.26a21.63,21.63,0,0,0-.12,3.45v5.17c0,1.37,0,1.65,1.1,1.65,0.53,0,.58,0,0.58.31s0,0.31-.24.31-0.43,0-2,0c-2.25,0-2.87,0-3.23,0-0.19,0-.19-0.14-0.19-0.26,0-.31,0-0.36.91-0.36a0.9,0.9,0,0,0,1-.57,24.26,24.26,0,0,0,.14-3.45V93a1.35,1.35,0,0,0-1.37-1.49H31.1V98.9Z"/><path class="c9aa4c1b-fa4d-4679-8cad-0e9722f9d898" d="M49.7,98.87a1.37,1.37,0,0,1,.41-0.38,0.5,0.5,0,0,1,.36.33,0.53,0.53,0,0,1-.19.36,5.4,5.4,0,0,1-4.19,2c-2.78,0-5-2-5-5.41s2.35-5.7,5.44-5.7c3.28,0,3.91,1.77,3.91,2.28a1.24,1.24,0,0,1-1.27,1c-0.77,0-.86-0.24-1.12-1.56a1.28,1.28,0,0,0-1.49-1.13c-1.51,0-3.38,1.15-3.38,5.08a3.8,3.8,0,0,0,4.07,4.07A4.38,4.38,0,0,0,49.7,98.87Z"/><path class="c9aa4c1b-fa4d-4679-8cad-0e9722f9d898" d="M53.86,94.42a8.79,8.79,0,0,0-.1,1.37,4,4,0,0,0,3.93,4,3.13,3.13,0,0,0,2.8-1.44,0.88,0.88,0,0,1,.36-0.41,0.5,0.5,0,0,1,.38.29,4.37,4.37,0,0,1-4.12,3c-3.43,0-5.22-2.11-5.22-5.46S54.22,90,56.69,90A4,4,0,0,1,61,94.15c0,0.24-.1.26-0.29,0.26H53.86ZM58,93.7a0.69,0.69,0,0,0,.81-0.79,2,2,0,0,0-2.11-2.28c-1.72,0-2.44,1.44-2.68,3.07h4Z"/><path class="c9aa4c1b-fa4d-4679-8cad-0e9722f9d898" d="M74.61,101.22a5.36,5.36,0,0,1-5.56-5.56,5.57,5.57,0,0,1,11.14,0A5.25,5.25,0,0,1,74.61,101.22Zm0-10.49c-2.49,0-3.28,2.59-3.28,4.93,0,2,.48,4.94,3.28,4.94s3.31-2.9,3.31-4.94C77.92,93.31,77.13,90.73,74.61,90.73Z"/><path class="c9aa4c1b-fa4d-4679-8cad-0e9722f9d898" d="M85.66,98.9c0,0.89,0,1.41,1.2,1.41,0.89,0,1,0,1,.29s-0.1.33-.36,0.33c-0.86,0-1.63,0-2.73,0-1.92,0-2.32,0-2.54,0S82,100.79,82,100.62s0-.31.5-0.31c1,0,1.22-.19,1.22-1.22V92.4c0-.29,0-0.77-0.46-0.77H81.94c-0.17,0-.29,0-0.29-0.31s0.17-.29.74-0.41c0.93-.22,1.17-0.26,1.25-1.34,0.24-3.64,1.32-5.65,4.14-6.4A7.16,7.16,0,0,1,89.25,83a1.3,1.3,0,0,1,1.51,1,1.07,1.07,0,0,1-1.13,1.17,2.15,2.15,0,0,1-1.32-.55,2.21,2.21,0,0,0-1.05-.55c-1.37,0-1.61,2-1.61,3.47v3.09h3c0.17,0,.24.17,0.24,0.5a0.56,0.56,0,0,1-.65.6c-0.17,0-2-.12-2.56-0.12V98.9Z"/><path class="c9aa4c1b-fa4d-4679-8cad-0e9722f9d898" d="M98.09,89.51c0-1.7,0-2.28,0-3.38,0-1.41-.43-1.61-2.16-1.61-0.26,0-.26-0.19-0.26-0.41a0.26,0.26,0,0,1,.22-0.31c0.19,0,1.92.1,3.43,0.1,0.22,0,2.16-.1,3.4-0.1,5.73,0,6.32,3.76,6.32,4.74,0,3.43-2.37,5.17-5.63,5.17a15,15,0,0,1-2.9-.24c0,3.81,0,4.48,0,5.2,0,1,.19,1.53,2.66,1.53,0.67,0,.67.14,0.67,0.41s0,0.31-.19.31-0.84,0-4.38,0-3.62,0-3.79,0-0.19-.1-0.19-0.31,0-.41.67-0.41c1.89,0,2-.41,2.06-1.05,0-1.2.07-2.75,0.07-3.79V89.51Zm2.37,2.59c0,0.55.14,0.91,1.37,0.91,2.61,0,4.58-1.51,4.58-4.26a3.89,3.89,0,0,0-3.93-4.22c-1.82,0-2,0-2,2v5.58Z"/><path class="c9aa4c1b-fa4d-4679-8cad-0e9722f9d898" d="M112.25,93c0-.84-0.22-1.32-1.41-1.44a0.22,0.22,0,0,1-.22-0.29,0.29,0.29,0,0,1,.19-0.33,10.73,10.73,0,0,0,3.35-1.17,0.28,0.28,0,0,1,.1.24c0,0.29-.12.89-0.12,2.18,0.79-.89,2.08-2.08,3.35-2.08A1.36,1.36,0,0,1,119,91.45a1.18,1.18,0,0,1-1.17,1.2c-1,0-1.13-.91-1.84-0.91a2.69,2.69,0,0,0-1.65,1,1,1,0,0,0-.17.69V98.9c0,0.89,0,1.41,1.2,1.41,0.89,0,1,0,1,.29s-0.1.33-.36,0.33c-0.86,0-1.63,0-2.73,0-1.92,0-2.32,0-2.78,0-0.17,0-.22-0.14-0.22-0.31s0.29-.31.74-0.31c1,0,1.22-.19,1.22-1.22V93Z"/><path class="c9aa4c1b-fa4d-4679-8cad-0e9722f9d898" d="M125.64,101.22a5.36,5.36,0,0,1-5.56-5.56,5.57,5.57,0,0,1,11.14,0A5.25,5.25,0,0,1,125.64,101.22Zm0-10.49c-2.49,0-3.28,2.59-3.28,4.93,0,2,.48,4.94,3.28,4.94s3.31-2.9,3.31-4.94C128.95,93.31,128.16,90.73,125.64,90.73Z"/><path class="c9aa4c1b-fa4d-4679-8cad-0e9722f9d898" d="M139.75,99.88c3.28,0,3.26,2.13,3.26,2.85,0,3.62-4,4.67-6.92,4.67-1.56,0-3.09-.41-3.09-2.25,0-1.49,1.1-2.56,2.08-3.52a1.57,1.57,0,0,1-1.44-1.46c0-1.44.77-2.06,1.84-2.8a3.44,3.44,0,0,1-1.87-3.4A4.16,4.16,0,0,1,137.86,90a5,5,0,0,1,2.9.93,3.48,3.48,0,0,1,2-.72c1.53,0,1.8.84,1.8,1.34a1,1,0,0,1-.91.84c-0.62,0-1.2-1.37-1.63-1.37a1.8,1.8,0,0,0-.91.31,4.45,4.45,0,0,1,.91,2.32c0,2.59-1.63,4.12-4.26,4.12a5.49,5.49,0,0,1-1.72-.26,1.81,1.81,0,0,0-1,1.53c0,0.7.58,0.79,1.13,0.79h3.55Zm-3.83,1.82a3.19,3.19,0,0,0-1.56,2.4c0,0.34.1,2.2,3.45,2.2,2.73,0,4-.84,4-2.71,0-1.46-.89-1.89-2.44-1.89h-3.45Zm4-8.15c0-.36,0-2.9-2-2.9-2.23,0-2.25,2.85-2.25,3.69,0,1.41.48,2.85,2.16,2.85C139.83,97.2,140,94.58,140,93.55Z"/><path class="c9aa4c1b-fa4d-4679-8cad-0e9722f9d898" d="M146.87,93c0-.84-0.22-1.32-1.41-1.44a0.22,0.22,0,0,1-.22-0.29,0.29,0.29,0,0,1,.19-0.33,10.73,10.73,0,0,0,3.35-1.17,0.28,0.28,0,0,1,.1.24c0,0.29-.12.89-0.12,2.18,0.79-.89,2.08-2.08,3.35-2.08a1.36,1.36,0,0,1,1.53,1.34,1.18,1.18,0,0,1-1.17,1.2c-1,0-1.13-.91-1.84-0.91a2.69,2.69,0,0,0-1.65,1,1,1,0,0,0-.17.69V98.9c0,0.89,0,1.41,1.2,1.41,0.89,0,1,0,1,.29s-0.1.33-.36,0.33c-0.86,0-1.63,0-2.73,0-1.92,0-2.32,0-2.78,0-0.17,0-.22-0.14-0.22-0.31s0.29-.31.74-0.31c1,0,1.22-.19,1.22-1.22V93Z"/><path class="c9aa4c1b-fa4d-4679-8cad-0e9722f9d898" d="M162.23,99.59a0.38,0.38,0,0,0,.41.48,3.29,3.29,0,0,0,1-.55,0.4,0.4,0,0,1,.31.26,3.88,3.88,0,0,1-2.4,1.44c-0.86,0-1.05-.55-1.32-1.39-1.41,1.1-2.08,1.39-3.09,1.39a2.08,2.08,0,0,1-2.3-2.13c0-1.22.72-2.23,5.41-4V92.93a2.18,2.18,0,0,0-2-1.89,2.79,2.79,0,0,0-1.7,1.1,10.51,10.51,0,0,1,.31,1.2,1,1,0,0,1-1.17.91,0.92,0.92,0,0,1-1-.89c0-.65.17-1,2-2.16s2.06-1.2,2.59-1.2c0.77,0,3,.58,3,2.75v6.83ZM160.29,96a0.22,0.22,0,0,0-.17-0.24A12.5,12.5,0,0,0,157.75,97a1.74,1.74,0,0,0-.79,1.75,1.26,1.26,0,0,0,1.13,1.49c0.91,0,2.2-.84,2.2-1.27V96Z"/><path class="c9aa4c1b-fa4d-4679-8cad-0e9722f9d898" d="M166.66,93c0-.84-0.21-1.32-1.41-1.44a0.22,0.22,0,0,1-.22-0.29,0.29,0.29,0,0,1,.19-0.33,10.73,10.73,0,0,0,3.35-1.17s0.07,0.07.07,0.26,0,0.67,0,1.61a9.82,9.82,0,0,1,4.22-1.53,2.92,2.92,0,0,1,2.61,1.56c1.29-.77,2.23-1.56,3.67-1.56,0.81,0,3.16.12,3.16,2.92V99.4c0,0.41.07,0.86,1.56,0.86,0.24,0,.24.14,0.24,0.31s0,0.31-.33.31c-0.72,0-1.15,0-2.42,0-1.94,0-2.32,0-2.52,0s-0.17-.17-0.17-0.29a0.31,0.31,0,0,1,.34-0.34c1.15,0,1.37-.1,1.37-0.89V93.17c0-.31-0.19-2-2.44-2a3.49,3.49,0,0,0-2.44,1.32v6.13c0,1.37,0,1.65,1.1,1.65,0.65,0,.7,0,0.7.31s0,0.31-.24.31-0.43,0-2.51,0-2.32,0-2.52,0-0.17-.17-0.17-0.29a0.31,0.31,0,0,1,.33-0.34c1.15,0,1.37-.1,1.37-0.93V93.17c0-.91-0.19-2-2.44-2a3.49,3.49,0,0,0-2.44,1.32v6.13c0,1.37,0,1.65,1.1,1.65,0.65,0,.69,0,0.69.31s0,0.31-.24.31-0.43,0-2.11,0c-2.25,0-2.63,0-3,0-0.19,0-.19-0.14-0.19-0.26,0-.31,0-0.36.67-0.36a0.9,0.9,0,0,0,1-.57,24.32,24.32,0,0,0,.14-3.45V93Z"/><path class="c9aa4c1b-fa4d-4679-8cad-0e9722f9d898" d="M192.41,98c0,1.17-.62,3.26-3.91,3.26-0.43,0-1.82-.19-2.75-0.19a0.15,0.15,0,0,1-.12-0.12c0-.24-0.55-2.35-0.55-2.59s0.34-.14.43-0.14c0.58,0,.72,2.42,3,2.42a2,2,0,0,0,2.18-2.13c0-2.51-5.37-1.7-5.37-5.1A3.36,3.36,0,0,1,189,90.1a19.09,19.09,0,0,1,2.59.22,0.68,0.68,0,0,1,.36.67c0,1,.26,1.6.26,1.92a0.22,0.22,0,0,1-.26.19,0.42,0.42,0,0,1-.48-0.33,2.82,2.82,0,0,0-2.49-2,1.73,1.73,0,0,0-1.92,1.8,1.82,1.82,0,0,0,1.13,1.6C190.69,95.33,192.41,95.26,192.41,98Z"/></svg>