<svg id="597f2869-6d89-4259-8774-c63ac2b6ec21" data-name="Layer 1" xmlns="http://www.w3.org/2000/svg" width="183" height="79.33" viewBox="0 0 183 79.33"><defs><style>.aa961625-ff47-453b-9ec2-53ea449b506d{fill:#900000;}.\39 4e80a2f-9dd5-457c-84fc-192c45ea2e4f{fill:#fff;}.\32 80acd7d-60b5-4e56-b7f5-f802281ef26b{fill:#f1b82d;}</style></defs><title>unit-wordmark-medium</title><path d="M4.12,8.84c0,2.54,1.06,4.76,4.25,4.76,2.22,0,4.14-1.23,4.14-5.75V4.1c0-2.64-.55-2.64-2.5-2.64-0.15,0-.15-0.11-0.15-0.28S9.9,0.9,10,.9c0.32,0,1.56.08,2.79,0.08C13.37,1,15,.9,15.25.9s0.27,0,.27.32a0.21,0.21,0,0,1-.17.25c-1.82,0-2.2,0-2.2,2.24V8.2c0,5.12-3.26,6.49-5.46,6.49-4.25,0-5.44-2.85-5.44-4.93V5.41c0-1.35,0-1.8,0-2.67,0-1.12-.34-1.27-2-1.27C0,1.46,0,1.31,0,1.14A0.2,0.2,0,0,1,.17.9C0.32,0.9,2,1,3.17,1S6,0.9,6.18.9a0.2,0.2,0,0,1,.17.25c0,0.17,0,.32-0.21.32-1.65,0-2,.15-2,1.27,0,0.87,0,1.33,0,2.67V8.84Z" transform="translate(0 -0.25)"/><path d="M18.74,12.65c0,1.08,0,1.31.87,1.31,0.51,0,.55,0,0.55.25s0,0.25-.19.25-0.34,0-1.67,0c-1.78,0-2.27,0-2.56,0s-0.15-.11-0.15-0.21c0-.25,0-0.28.72-0.28a0.71,0.71,0,0,0,.78-0.46,19.22,19.22,0,0,0,.11-2.73V8.18A1,1,0,0,0,16.08,7a0.18,0.18,0,0,1-.17-0.23,0.23,0.23,0,0,1,.15-0.27,8.48,8.48,0,0,0,2.66-.93s0.06,0.06.06,0.21,0,0.53,0,1.37a5.76,5.76,0,0,1,3-1.31c0.65,0,2.5.13,2.5,2.85v4.55c0,0.32.06,0.68,1.23,0.68,0.19,0,.19.11,0.19,0.25s0,0.25-.27.25c-0.57,0-.91,0-1.92,0-1.54,0-1.84,0-2,0s-0.13-.13-0.13-0.23A0.24,0.24,0,0,1,21.6,14c0.91,0,1.08-.08,1.08-0.7V9.87c0-1.76-.15-2.94-2.12-2.94a2.81,2.81,0,0,0-1.82.87v4.85Z" transform="translate(0 -0.25)"/><path d="M29.38,12.65c0,1.08,0,1.31.87,1.31,0.42,0,.46,0,0.46.25s0,0.25-.19.25-0.34,0-1.57,0c-1.78,0-2.28,0-2.56,0s-0.15-.11-0.15-0.21c0-.25,0-0.28.72-0.28a0.71,0.71,0,0,0,.78-0.46,19,19,0,0,0,.11-2.73V8.18A1,1,0,0,0,26.72,7a0.18,0.18,0,0,1-.17-0.23,0.23,0.23,0,0,1,.15-0.27,8.46,8.46,0,0,0,2.65-.93c0.08,0,.11.1,0.11,0.21a17.2,17.2,0,0,0-.09,2.73v4.1ZM27.61,2a1,1,0,1,1,1,1A1,1,0,0,1,27.61,2Z" transform="translate(0 -0.25)"/><path d="M38.08,7.25c0-.55-1-0.55-1.27-0.55a0.22,0.22,0,0,1-.17-0.27,0.24,0.24,0,0,1,.25-0.23c0.51,0,1.1,0,1.63,0s1.12,0,1.67,0a0.2,0.2,0,0,1,.17.23,0.17,0.17,0,0,1-.19.21c-1.1.17-1.16,0.25-1.76,1.73-0.66,1.63-1.8,4-2.14,4.82-0.53,1.27-.7,1.5-0.85,1.5s-0.34-.4-0.72-1.21C34,12,32.45,7.42,32.18,7a0.65,0.65,0,0,0-.66-0.3c-0.51,0-.59-0.06-0.59-0.32a0.2,0.2,0,0,1,.21-0.21c0.61,0,1.2,0,1.8,0l2.26,0c0.13,0,.15.17,0.15,0.27a0.23,0.23,0,0,1-.19.23c-0.57,0-1.1.06-1.1,0.46A35.11,35.11,0,0,0,36,12.45C37.78,8.48,38.08,7.76,38.08,7.25Z" transform="translate(0 -0.25)"/><path d="M41.78,9.3a7,7,0,0,0-.08,1.08,3.2,3.2,0,0,0,3.11,3.13A2.47,2.47,0,0,0,47,12.37,0.7,0.7,0,0,1,47.32,12a0.4,0.4,0,0,1,.3.23,3.46,3.46,0,0,1-3.26,2.41c-2.71,0-4.14-1.67-4.14-4.32S42.06,5.81,44,5.81a3.17,3.17,0,0,1,3.4,3.28c0,0.19-.08.21-0.23,0.21H41.78ZM45,8.73a0.54,0.54,0,0,0,.65-0.63A1.6,1.6,0,0,0,44,6.3c-1.36,0-1.93,1.14-2.12,2.43H45Z" transform="translate(0 -0.25)"/><path d="M50.07,8.18A1,1,0,0,0,48.95,7a0.18,0.18,0,0,1-.17-0.23,0.23,0.23,0,0,1,.15-0.27,8.46,8.46,0,0,0,2.66-.93,0.22,0.22,0,0,1,.08.19c0,0.23-.09.7-0.09,1.73a4.24,4.24,0,0,1,2.66-1.65,1.08,1.08,0,0,1,1.21,1.06,0.93,0.93,0,0,1-.93.95c-0.78,0-.89-0.72-1.46-0.72A2.13,2.13,0,0,0,51.73,8a0.8,0.8,0,0,0-.13.55v4.3c0,0.7,0,1.12.95,1.12,0.7,0,.78,0,0.78.23s-0.08.27-.28,0.27c-0.68,0-1.29,0-2.16,0-1.52,0-1.84,0-2.2,0-0.13,0-.17-0.11-0.17-0.25S48.74,14,49.1,14c0.82,0,1-.15,1-1V8.18Z" transform="translate(0 -0.25)"/><path d="M61.9,12.1c0,0.93-.49,2.58-3.09,2.58-0.34,0-1.44-.15-2.18-0.15a0.12,0.12,0,0,1-.09-0.09c0-.19-0.44-1.86-0.44-2s0.27-.11.34-0.11c0.46,0,.57,1.92,2.39,1.92a1.61,1.61,0,0,0,1.73-1.69c0-2-4.25-1.35-4.25-4a2.66,2.66,0,0,1,2.88-2.58,15.17,15.17,0,0,1,2,.17,0.54,0.54,0,0,1,.28.53c0,0.78.21,1.27,0.21,1.52a0.18,0.18,0,0,1-.21.15A0.33,0.33,0,0,1,61.14,8a2.23,2.23,0,0,0-2-1.61A1.37,1.37,0,0,0,57.65,7.8a1.44,1.44,0,0,0,.89,1.27C60.53,10,61.9,10,61.9,12.1Z" transform="translate(0 -0.25)"/><path d="M66,12.65c0,1.08,0,1.31.87,1.31,0.42,0,.46,0,0.46.25s0,0.25-.19.25-0.34,0-1.57,0c-1.78,0-2.28,0-2.56,0s-0.15-.11-0.15-0.21c0-.25,0-0.28.72-0.28a0.71,0.71,0,0,0,.78-0.46,19.25,19.25,0,0,0,.11-2.73V8.18A1,1,0,0,0,63.34,7a0.18,0.18,0,0,1-.17-0.23,0.24,0.24,0,0,1,.15-0.27A8.46,8.46,0,0,0,66,5.62a0.17,0.17,0,0,1,.11.21A17.2,17.2,0,0,0,66,8.56v4.1ZM64.23,2a1,1,0,1,1,1,1A1,1,0,0,1,64.23,2Z" transform="translate(0 -0.25)"/><path d="M70.58,11.08c0,2,.17,2.73,1.67,2.73a3.11,3.11,0,0,0,1.29-.44,0.37,0.37,0,0,1,.21.3,2.88,2.88,0,0,1-2.52,1A2.06,2.06,0,0,1,69,12.33v-5a0.2,0.2,0,0,0-.19-0.25H67.91a0.14,0.14,0,0,1-.11-0.17,0.33,0.33,0,0,1,.11-0.27c1.76-1.33,2.12-2.33,2.5-2.33a0.22,0.22,0,0,1,.23.25c0,0.34-.06.66-0.06,1.75H73.5c0.13,0,.19.13,0.19,0.4a0.44,0.44,0,0,1-.51.47c-0.13,0-1-.09-2.6-0.09v4Z" transform="translate(0 -0.25)"/><path d="M82,7.34c0-.63-0.89-0.65-1.46-0.65-0.17,0-.19-0.09-0.19-0.25a0.22,0.22,0,0,1,.17-0.25c0.61,0,1.23,0,1.84,0s1.18,0,1.76,0c0.13,0,.13.17,0.13,0.25S84.24,6.68,84,6.7a1.14,1.14,0,0,0-1.2.83c-0.68,1.57-3.3,7.07-3.72,8.14-1.46,3.66-2.09,3.91-2.71,3.91a1.07,1.07,0,1,1,0-2.14,4.11,4.11,0,0,1,.95.32c0.34,0,1.23-1.82,1.23-2.71a9.07,9.07,0,0,0-.66-2.13c-1.2-3.07-1.56-4.72-2-5.78C75.78,6.7,74.83,6.7,74.59,6.7a0.21,0.21,0,0,1-.17-0.27,0.21,0.21,0,0,1,.21-0.23c0.23,0,1.42,0,2.11,0s1.31,0,1.88,0a0.21,0.21,0,0,1,.23.25,0.23,0.23,0,0,1-.19.25c-0.11,0-.93,0-0.93.42,0,0.91.65,2.79,1.88,6A38.6,38.6,0,0,0,82,7.34Z" transform="translate(0 -0.25)"/><path d="M93.91,14.68a4.24,4.24,0,0,1-4.4-4.4,4.41,4.41,0,0,1,8.82,0A4.16,4.16,0,0,1,93.91,14.68Zm0-8.31c-2,0-2.6,2-2.6,3.91,0,1.61.38,3.91,2.6,3.91s2.62-2.29,2.62-3.91C96.53,8.43,95.9,6.38,93.91,6.38Z" transform="translate(0 -0.25)"/><path d="M102.65,12.84c0,0.7,0,1.12.95,1.12,0.7,0,.78,0,0.78.23s-0.08.27-.28,0.27c-0.68,0-1.29,0-2.16,0-1.52,0-1.84,0-2,0s-0.17-.11-0.17-0.25,0-.25.4-0.25c0.82,0,1-.15,1-1V7.7c0-.23,0-0.61-0.36-0.61h-1c-0.13,0-.23,0-0.23-0.25s0.13-.23.59-0.32c0.74-.17.93-0.21,1-1.06,0.19-2.88,1-4.48,3.28-5.06A5.69,5.69,0,0,1,105.5.25a1,1,0,0,1,1.2.82,0.85,0.85,0,0,1-.89.93,1.7,1.7,0,0,1-1-.44,1.75,1.75,0,0,0-.83-0.44c-1.08,0-1.27,1.57-1.27,2.75V6.32H105c0.13,0,.19.13,0.19,0.4a0.44,0.44,0,0,1-.51.47c-0.13,0-1.59-.09-2-0.09v5.75Z" transform="translate(0 -0.25)"/><path d="M126.19,1.1A0.24,0.24,0,0,1,126.41.9c0.09,0,1.48.08,1.92,0.08S130.26,0.9,130.4.9s0.21,0.15.21,0.32a0.21,0.21,0,0,1-.23.25c-1.71,0-1.91.13-1.91,1,0,1.23.21,5.22,0.4,10.53a0.94,0.94,0,0,0,1,.89c1.06,0,1.08.11,1.08,0.25,0,0.28-.1.32-0.21,0.32s-0.38,0-3,0c-2.46,0-2.58,0-2.73,0s-0.21-.13-0.21-0.3,0-.27.91-0.27c1.25,0,1.27-.3,1.27-1.06,0-1.14-.28-7.26-0.44-10.81h0c-1.38,3.55-3.13,7.63-4.38,10.68-0.72,1.74-.72,2-1,2s-0.28-.17-0.68-1.48S117,3.42,116.91,3.42A78.39,78.39,0,0,0,115.34,13a0.82,0.82,0,0,0,.95.89,1.79,1.79,0,0,1,1,.15c0,0.36,0,.42-0.21.42s-0.34,0-2.3,0c-1.73,0-1.86,0-2,0s-0.21,0-.21-0.32,0.1-.25,1-0.25c0.66,0,.8-0.25,1-1.33,0.51-2.73,1-5.48,1.56-8.21a8.28,8.28,0,0,0,.25-1.78,2,2,0,0,0-.49-0.95,6.4,6.4,0,0,0-1.63-.15c-0.23,0-.23-0.15-0.23-0.28s0-.28.21-0.28c0.36,0,2,.08,2.2.08C117,1,117.78.9,118,.9s0.27,0.21.46,0.89c0.4,1.42,3.15,9.1,3.49,9.81C123.4,8.24,124.84,4.76,126.19,1.1Z" transform="translate(0 -0.25)"/><path d="M134.62,12.65c0,1.08,0,1.31.87,1.31,0.42,0,.46,0,0.46.25s0,0.25-.19.25-0.34,0-1.57,0c-1.78,0-2.28,0-2.56,0s-0.15-.11-0.15-0.21c0-.25,0-0.28.72-0.28a0.71,0.71,0,0,0,.78-0.46,19,19,0,0,0,.11-2.73V8.18A1,1,0,0,0,132,7a0.18,0.18,0,0,1-.17-0.23,0.24,0.24,0,0,1,.15-0.27,8.46,8.46,0,0,0,2.65-.93c0.08,0,.11.1,0.11,0.21a17.17,17.17,0,0,0-.1,2.73v4.1ZM132.86,2a1,1,0,1,1,1,1A1,1,0,0,1,132.86,2Z" transform="translate(0 -0.25)"/><path d="M142.82,12.1c0,0.93-.49,2.58-3.09,2.58-0.34,0-1.44-.15-2.18-0.15a0.12,0.12,0,0,1-.09-0.09c0-.19-0.44-1.86-0.44-2s0.27-.11.34-0.11c0.46,0,.57,1.92,2.39,1.92a1.61,1.61,0,0,0,1.73-1.69c0-2-4.25-1.35-4.25-4a2.66,2.66,0,0,1,2.88-2.58,15.12,15.12,0,0,1,2,.17,0.54,0.54,0,0,1,.28.53c0,0.78.21,1.27,0.21,1.52a0.18,0.18,0,0,1-.21.15A0.33,0.33,0,0,1,142.06,8a2.23,2.23,0,0,0-2-1.61,1.37,1.37,0,0,0-1.52,1.42,1.44,1.44,0,0,0,.89,1.27C141.45,10,142.82,10,142.82,12.1Z" transform="translate(0 -0.25)"/><path d="M149.83,12.1c0,0.93-.49,2.58-3.09,2.58-0.34,0-1.44-.15-2.18-0.15a0.12,0.12,0,0,1-.09-0.09c0-.19-0.44-1.86-0.44-2s0.27-.11.34-0.11c0.46,0,.57,1.92,2.39,1.92a1.61,1.61,0,0,0,1.73-1.69c0-2-4.25-1.35-4.25-4a2.66,2.66,0,0,1,2.88-2.58,15.12,15.12,0,0,1,2,.17,0.54,0.54,0,0,1,.28.53c0,0.78.21,1.27,0.21,1.52a0.18,0.18,0,0,1-.21.15A0.33,0.33,0,0,1,149.07,8a2.23,2.23,0,0,0-2-1.61,1.37,1.37,0,0,0-1.52,1.42,1.44,1.44,0,0,0,.89,1.27C148.47,10,149.83,10,149.83,12.1Z" transform="translate(0 -0.25)"/><path d="M155.62,14.68a4.24,4.24,0,0,1-4.4-4.4,4.41,4.41,0,0,1,8.82,0A4.16,4.16,0,0,1,155.62,14.68Zm0-8.31c-2,0-2.6,2-2.6,3.91,0,1.61.38,3.91,2.6,3.91s2.62-2.29,2.62-3.91C158.23,8.43,157.61,6.38,155.62,6.38Z" transform="translate(0 -0.25)"/><path d="M162.4,8.54c0-1.67-.19-1.78-1.18-1.78-0.15,0-.42,0-0.42-0.19s0-.38.21-0.38,0.49,0.06,1.12.06,1.39-.06,1.65-0.06c0.11,0,.15,0,0.15.26v5.12c0,1.42.46,2.24,1.86,2.24,0.68,0,1.88-.42,1.88-1V7.89c0-1-.19-1.14-1.18-1.14-0.34,0-.61,0-0.61-0.19s0-.38.13-0.38,0.49,0.06,1.65.06c0.47,0,1-.06,1.44-0.06a0.23,0.23,0,0,1,.27.26c0,0.08-.17,1.54-0.17,2.88V12.9c0,0.3,0,.7.47,0.7,0.27,0,.68-0.08.82-0.08s0.11,0,.11.36c0,0.11,0,.15-0.63.25a17.31,17.31,0,0,0-2.18.49,0.25,0.25,0,0,1-.23-0.27c0-.23,0-0.53.06-0.72a5.25,5.25,0,0,1-2.82,1c-1.88,0-2.41-1.21-2.41-3.19v-3Z" transform="translate(0 -0.25)"/><path d="M172.76,8.18A1,1,0,0,0,171.64,7a0.18,0.18,0,0,1-.17-0.23,0.24,0.24,0,0,1,.15-0.27,8.48,8.48,0,0,0,2.66-.93,0.22,0.22,0,0,1,.08.19c0,0.23-.1.7-0.1,1.73a4.24,4.24,0,0,1,2.66-1.65,1.08,1.08,0,0,1,1.21,1.06,0.93,0.93,0,0,1-.93.95c-0.78,0-.89-0.72-1.46-0.72a2.13,2.13,0,0,0-1.31.82,0.8,0.8,0,0,0-.13.55v4.3c0,0.7,0,1.12.95,1.12,0.7,0,.78,0,0.78.23s-0.08.27-.28,0.27c-0.68,0-1.29,0-2.16,0-1.52,0-1.84,0-2.2,0-0.13,0-.17-0.11-0.17-0.25s0.23-.25.59-0.25c0.82,0,1-.15,1-1V8.18Z" transform="translate(0 -0.25)"/><path d="M181.67,12.65c0,1.08,0,1.31.87,1.31,0.42,0,.46,0,0.46.25s0,0.25-.19.25-0.34,0-1.57,0c-1.78,0-2.28,0-2.56,0s-0.15-.11-0.15-0.21c0-.25,0-0.28.72-0.28a0.71,0.71,0,0,0,.78-0.46,19.3,19.3,0,0,0,.11-2.73V8.18A1,1,0,0,0,179,7a0.18,0.18,0,0,1-.17-0.23A0.23,0.23,0,0,1,179,6.55a8.51,8.51,0,0,0,2.66-.93c0.08,0,.11.1,0.11,0.21a17.38,17.38,0,0,0-.09,2.73v4.1ZM179.91,2a1,1,0,1,1,1,1A1,1,0,0,1,179.91,2Z" transform="translate(0 -0.25)"/><path class="aa961625-ff47-453b-9ec2-53ea449b506d" d="M4.12,28.84c0,2.54,1.06,4.76,4.25,4.76,2.22,0,4.14-1.23,4.14-5.75V24.1c0-2.64-.55-2.64-2.5-2.64-0.15,0-.15-0.11-0.15-0.28S9.9,20.9,10,20.9c0.32,0,1.56.08,2.79,0.08,0.59,0,2.2-.08,2.47-0.08s0.27,0,.27.32a0.21,0.21,0,0,1-.17.25c-1.82,0-2.2,0-2.2,2.24V28.2c0,5.12-3.26,6.49-5.46,6.49-4.25,0-5.44-2.85-5.44-4.93V25.41c0-1.35,0-1.8,0-2.67,0-1.12-.34-1.27-2-1.27C0,21.46,0,21.31,0,21.14A0.2,0.2,0,0,1,.17,20.9c0.15,0,1.8.08,3,.08s2.86-.08,3-0.08a0.2,0.2,0,0,1,.17.25c0,0.17,0,.32-0.21.32-1.65,0-2,.15-2,1.27,0,0.87,0,1.33,0,2.67v3.43Z" transform="translate(0 -0.25)"/><path class="aa961625-ff47-453b-9ec2-53ea449b506d" d="M18.74,32.65c0,1.08,0,1.31.87,1.31,0.51,0,.55,0,0.55.25s0,0.25-.19.25-0.34,0-1.67,0c-1.78,0-2.27,0-2.56,0s-0.15-.11-0.15-0.21c0-.25,0-0.28.72-0.28a0.71,0.71,0,0,0,.78-0.46,19.22,19.22,0,0,0,.11-2.73v-2.6A1,1,0,0,0,16.08,27a0.18,0.18,0,0,1-.17-0.23,0.23,0.23,0,0,1,.15-0.27,8.48,8.48,0,0,0,2.66-.93s0.06,0.06.06,0.21,0,0.53,0,1.37a5.76,5.76,0,0,1,3-1.31c0.65,0,2.5.13,2.5,2.85v4.55c0,0.32.06,0.68,1.23,0.68,0.19,0,.19.11,0.19,0.25s0,0.25-.27.25c-0.57,0-.91,0-1.92,0-1.54,0-1.84,0-2,0s-0.13-.13-0.13-0.23A0.24,0.24,0,0,1,21.6,34c0.91,0,1.08-.08,1.08-0.7v-3.4c0-1.76-.15-2.94-2.12-2.94a2.81,2.81,0,0,0-1.82.87v4.85Z" transform="translate(0 -0.25)"/><path class="aa961625-ff47-453b-9ec2-53ea449b506d" d="M29.38,32.65c0,1.08,0,1.31.87,1.31,0.42,0,.46,0,0.46.25s0,0.25-.19.25-0.34,0-1.57,0c-1.78,0-2.28,0-2.56,0s-0.15-.11-0.15-0.21c0-.25,0-0.28.72-0.28a0.71,0.71,0,0,0,.78-0.46,19,19,0,0,0,.11-2.73v-2.6A1,1,0,0,0,26.72,27a0.18,0.18,0,0,1-.17-0.23,0.23,0.23,0,0,1,.15-0.27,8.46,8.46,0,0,0,2.65-.93c0.08,0,.11.1,0.11,0.21a17.2,17.2,0,0,0-.09,2.73v4.1ZM27.61,22a1,1,0,1,1,1,1A1,1,0,0,1,27.61,22Z" transform="translate(0 -0.25)"/><path class="aa961625-ff47-453b-9ec2-53ea449b506d" d="M38.08,27.25c0-.55-1-0.55-1.27-0.55a0.22,0.22,0,0,1-.17-0.27,0.24,0.24,0,0,1,.25-0.23c0.51,0,1.1,0,1.63,0s1.12,0,1.67,0a0.2,0.2,0,0,1,.17.23,0.17,0.17,0,0,1-.19.21c-1.1.17-1.16,0.25-1.76,1.73-0.66,1.63-1.8,4-2.14,4.82-0.53,1.27-.7,1.5-0.85,1.5s-0.34-.4-0.72-1.21C34,32,32.45,27.42,32.18,27a0.65,0.65,0,0,0-.66-0.3c-0.51,0-.59-0.06-0.59-0.32a0.2,0.2,0,0,1,.21-0.21c0.61,0,1.2,0,1.8,0l2.26,0c0.13,0,.15.17,0.15,0.27a0.23,0.23,0,0,1-.19.23c-0.57,0-1.1.06-1.1,0.46A35.11,35.11,0,0,0,36,32.45C37.78,28.48,38.08,27.76,38.08,27.25Z" transform="translate(0 -0.25)"/><path class="aa961625-ff47-453b-9ec2-53ea449b506d" d="M41.78,29.3a7,7,0,0,0-.08,1.08,3.2,3.2,0,0,0,3.11,3.13A2.47,2.47,0,0,0,47,32.37,0.7,0.7,0,0,1,47.32,32a0.4,0.4,0,0,1,.3.23,3.46,3.46,0,0,1-3.26,2.41c-2.71,0-4.14-1.67-4.14-4.32s1.84-4.55,3.79-4.55a3.17,3.17,0,0,1,3.4,3.28c0,0.19-.08.21-0.23,0.21H41.78ZM45,28.73a0.54,0.54,0,0,0,.65-0.63A1.6,1.6,0,0,0,44,26.3c-1.36,0-1.93,1.14-2.12,2.43H45Z" transform="translate(0 -0.25)"/><path class="aa961625-ff47-453b-9ec2-53ea449b506d" d="M50.07,28.18A1,1,0,0,0,48.95,27a0.18,0.18,0,0,1-.17-0.23,0.23,0.23,0,0,1,.15-0.27,8.46,8.46,0,0,0,2.66-.93,0.22,0.22,0,0,1,.08.19c0,0.23-.09.7-0.09,1.73a4.24,4.24,0,0,1,2.66-1.65,1.08,1.08,0,0,1,1.21,1.06,0.93,0.93,0,0,1-.93.95c-0.78,0-.89-0.72-1.46-0.72a2.13,2.13,0,0,0-1.31.82,0.8,0.8,0,0,0-.13.55v4.3c0,0.7,0,1.12.95,1.12,0.7,0,.78,0,0.78.23s-0.08.27-.28,0.27c-0.68,0-1.29,0-2.16,0-1.52,0-1.84,0-2.2,0-0.13,0-.17-0.11-0.17-0.25S48.74,34,49.1,34c0.82,0,1-.15,1-1V28.18Z" transform="translate(0 -0.25)"/><path class="aa961625-ff47-453b-9ec2-53ea449b506d" d="M61.9,32.1c0,0.93-.49,2.58-3.09,2.58-0.34,0-1.44-.15-2.18-0.15a0.12,0.12,0,0,1-.09-0.09c0-.19-0.44-1.86-0.44-2s0.27-.11.34-0.11c0.46,0,.57,1.92,2.39,1.92a1.61,1.61,0,0,0,1.73-1.69c0-2-4.25-1.35-4.25-4a2.66,2.66,0,0,1,2.88-2.58,15.17,15.17,0,0,1,2,.17,0.54,0.54,0,0,1,.28.53c0,0.78.21,1.27,0.21,1.52a0.18,0.18,0,0,1-.21.15A0.33,0.33,0,0,1,61.14,28a2.23,2.23,0,0,0-2-1.61,1.37,1.37,0,0,0-1.52,1.42,1.44,1.44,0,0,0,.89,1.27C60.53,30,61.9,30,61.9,32.1Z" transform="translate(0 -0.25)"/><path class="aa961625-ff47-453b-9ec2-53ea449b506d" d="M66,32.65c0,1.08,0,1.31.87,1.31,0.42,0,.46,0,0.46.25s0,0.25-.19.25-0.34,0-1.57,0c-1.78,0-2.28,0-2.56,0s-0.15-.11-0.15-0.21c0-.25,0-0.28.72-0.28a0.71,0.71,0,0,0,.78-0.46,19.25,19.25,0,0,0,.11-2.73v-2.6A1,1,0,0,0,63.34,27a0.18,0.18,0,0,1-.17-0.23,0.24,0.24,0,0,1,.15-0.27A8.46,8.46,0,0,0,66,25.62a0.17,0.17,0,0,1,.11.21A17.2,17.2,0,0,0,66,28.56v4.1ZM64.23,22a1,1,0,1,1,1,1A1,1,0,0,1,64.23,22Z" transform="translate(0 -0.25)"/><path class="aa961625-ff47-453b-9ec2-53ea449b506d" d="M70.58,31.08c0,2,.17,2.73,1.67,2.73a3.11,3.11,0,0,0,1.29-.44,0.37,0.37,0,0,1,.21.3,2.88,2.88,0,0,1-2.52,1A2.06,2.06,0,0,1,69,32.33v-5a0.2,0.2,0,0,0-.19-0.25H67.91a0.14,0.14,0,0,1-.11-0.17,0.33,0.33,0,0,1,.11-0.27c1.76-1.33,2.12-2.33,2.5-2.33a0.22,0.22,0,0,1,.23.25c0,0.34-.06.66-0.06,1.75H73.5c0.13,0,.19.13,0.19,0.4a0.44,0.44,0,0,1-.51.47c-0.13,0-1-.09-2.6-0.09v4Z" transform="translate(0 -0.25)"/><path class="aa961625-ff47-453b-9ec2-53ea449b506d" d="M82,27.34c0-.63-0.89-0.65-1.46-0.65-0.17,0-.19-0.09-0.19-0.25a0.22,0.22,0,0,1,.17-0.25c0.61,0,1.23,0,1.84,0s1.18,0,1.76,0c0.13,0,.13.17,0.13,0.25s-0.06.23-.32,0.25a1.14,1.14,0,0,0-1.2.83c-0.68,1.57-3.3,7.07-3.72,8.14-1.46,3.66-2.09,3.91-2.71,3.91a1.07,1.07,0,1,1,0-2.14,4.11,4.11,0,0,1,.95.32c0.34,0,1.23-1.82,1.23-2.71a9.07,9.07,0,0,0-.66-2.13c-1.2-3.07-1.56-4.72-2-5.78-0.17-.44-1.12-0.44-1.36-0.44a0.21,0.21,0,0,1-.17-0.27,0.21,0.21,0,0,1,.21-0.23c0.23,0,1.42,0,2.11,0s1.31,0,1.88,0a0.21,0.21,0,0,1,.23.25,0.23,0.23,0,0,1-.19.25c-0.11,0-.93,0-0.93.42,0,0.91.65,2.79,1.88,6A38.6,38.6,0,0,0,82,27.34Z" transform="translate(0 -0.25)"/><path class="aa961625-ff47-453b-9ec2-53ea449b506d" d="M93.91,34.68a4.24,4.24,0,0,1-4.4-4.4,4.41,4.41,0,0,1,8.82,0A4.16,4.16,0,0,1,93.91,34.68Zm0-8.31c-2,0-2.6,2-2.6,3.91,0,1.61.38,3.91,2.6,3.91s2.62-2.29,2.62-3.91C96.53,28.43,95.9,26.38,93.91,26.38Z" transform="translate(0 -0.25)"/><path class="aa961625-ff47-453b-9ec2-53ea449b506d" d="M102.65,32.84c0,0.7,0,1.12.95,1.12,0.7,0,.78,0,0.78.23s-0.08.27-.28,0.27c-0.68,0-1.29,0-2.16,0-1.52,0-1.84,0-2,0s-0.17-.11-0.17-0.25,0-.25.4-0.25c0.82,0,1-.15,1-1V27.7c0-.23,0-0.61-0.36-0.61h-1c-0.13,0-.23,0-0.23-0.25s0.13-.23.59-0.32c0.74-.17.93-0.21,1-1.06,0.19-2.88,1-4.48,3.28-5.06a5.69,5.69,0,0,1,1.16-.15,1,1,0,0,1,1.2.82,0.85,0.85,0,0,1-.89.93,1.7,1.7,0,0,1-1-.44,1.75,1.75,0,0,0-.83-0.44c-1.08,0-1.27,1.57-1.27,2.75v2.45H105c0.13,0,.19.13,0.19,0.4a0.44,0.44,0,0,1-.51.47c-0.13,0-1.59-.09-2-0.09v5.75Z" transform="translate(0 -0.25)"/><path class="aa961625-ff47-453b-9ec2-53ea449b506d" d="M126.19,21.1a0.24,0.24,0,0,1,.23-0.21c0.09,0,1.48.08,1.92,0.08s1.94-.08,2.07-0.08,0.21,0.15.21,0.32a0.21,0.21,0,0,1-.23.25c-1.71,0-1.91.13-1.91,1,0,1.23.21,5.22,0.4,10.53a0.94,0.94,0,0,0,1,.89c1.06,0,1.08.11,1.08,0.25,0,0.28-.1.32-0.21,0.32s-0.38,0-3,0c-2.46,0-2.58,0-2.73,0s-0.21-.13-0.21-0.3,0-.27.91-0.27c1.25,0,1.27-.3,1.27-1.06,0-1.14-.28-7.26-0.44-10.81h0c-1.38,3.55-3.13,7.63-4.38,10.68-0.72,1.74-.72,2-1,2s-0.28-.17-0.68-1.48-3.51-9.75-3.58-9.75A78.39,78.39,0,0,0,115.34,33a0.82,0.82,0,0,0,.95.89,1.79,1.79,0,0,1,1,.15c0,0.36,0,.42-0.21.42s-0.34,0-2.3,0c-1.73,0-1.86,0-2,0s-0.21,0-.21-0.32,0.1-.25,1-0.25c0.66,0,.8-0.25,1-1.33,0.51-2.73,1-5.48,1.56-8.21a8.28,8.28,0,0,0,.25-1.78,2,2,0,0,0-.49-0.95,6.4,6.4,0,0,0-1.63-.15c-0.23,0-.23-0.15-0.23-0.28s0-.28.21-0.28c0.36,0,2,.08,2.2.08,0.49,0,1.29-.08,1.54-0.08s0.27,0.21.46,0.89c0.4,1.42,3.15,9.1,3.49,9.81C123.4,28.24,124.84,24.76,126.19,21.1Z" transform="translate(0 -0.25)"/><path class="aa961625-ff47-453b-9ec2-53ea449b506d" d="M134.62,32.65c0,1.08,0,1.31.87,1.31,0.42,0,.46,0,0.46.25s0,0.25-.19.25-0.34,0-1.57,0c-1.78,0-2.28,0-2.56,0s-0.15-.11-0.15-0.21c0-.25,0-0.28.72-0.28a0.71,0.71,0,0,0,.78-0.46,19,19,0,0,0,.11-2.73v-2.6A1,1,0,0,0,132,27a0.18,0.18,0,0,1-.17-0.23,0.24,0.24,0,0,1,.15-0.27,8.46,8.46,0,0,0,2.65-.93c0.08,0,.11.1,0.11,0.21a17.17,17.17,0,0,0-.1,2.73v4.1ZM132.86,22a1,1,0,1,1,1,1A1,1,0,0,1,132.86,22Z" transform="translate(0 -0.25)"/><path class="aa961625-ff47-453b-9ec2-53ea449b506d" d="M142.82,32.1c0,0.93-.49,2.58-3.09,2.58-0.34,0-1.44-.15-2.18-0.15a0.12,0.12,0,0,1-.09-0.09c0-.19-0.44-1.86-0.44-2s0.27-.11.34-0.11c0.46,0,.57,1.92,2.39,1.92a1.61,1.61,0,0,0,1.73-1.69c0-2-4.25-1.35-4.25-4a2.66,2.66,0,0,1,2.88-2.58,15.12,15.12,0,0,1,2,.17,0.54,0.54,0,0,1,.28.53c0,0.78.21,1.27,0.21,1.52a0.18,0.18,0,0,1-.21.15,0.33,0.33,0,0,1-.38-0.27,2.23,2.23,0,0,0-2-1.61,1.37,1.37,0,0,0-1.52,1.42,1.44,1.44,0,0,0,.89,1.27C141.45,30,142.82,30,142.82,32.1Z" transform="translate(0 -0.25)"/><path class="aa961625-ff47-453b-9ec2-53ea449b506d" d="M149.83,32.1c0,0.93-.49,2.58-3.09,2.58-0.34,0-1.44-.15-2.18-0.15a0.12,0.12,0,0,1-.09-0.09c0-.19-0.44-1.86-0.44-2s0.27-.11.34-0.11c0.46,0,.57,1.92,2.39,1.92a1.61,1.61,0,0,0,1.73-1.69c0-2-4.25-1.35-4.25-4a2.66,2.66,0,0,1,2.88-2.58,15.12,15.12,0,0,1,2,.17,0.54,0.54,0,0,1,.28.53c0,0.78.21,1.27,0.21,1.52a0.18,0.18,0,0,1-.21.15,0.33,0.33,0,0,1-.38-0.27,2.23,2.23,0,0,0-2-1.61,1.37,1.37,0,0,0-1.52,1.42,1.44,1.44,0,0,0,.89,1.27C148.47,30,149.83,30,149.83,32.1Z" transform="translate(0 -0.25)"/><path class="aa961625-ff47-453b-9ec2-53ea449b506d" d="M155.62,34.68a4.24,4.24,0,0,1-4.4-4.4,4.41,4.41,0,0,1,8.82,0A4.16,4.16,0,0,1,155.62,34.68Zm0-8.31c-2,0-2.6,2-2.6,3.91,0,1.61.38,3.91,2.6,3.91s2.62-2.29,2.62-3.91C158.23,28.43,157.61,26.38,155.62,26.38Z" transform="translate(0 -0.25)"/><path class="aa961625-ff47-453b-9ec2-53ea449b506d" d="M162.4,28.54c0-1.67-.19-1.78-1.18-1.78-0.15,0-.42,0-0.42-0.19s0-.38.21-0.38,0.49,0.06,1.12.06,1.39-.06,1.65-0.06c0.11,0,.15,0,0.15.26v5.12c0,1.42.46,2.24,1.86,2.24,0.68,0,1.88-.42,1.88-1V27.89c0-1-.19-1.14-1.18-1.14-0.34,0-.61,0-0.61-0.19s0-.38.13-0.38,0.49,0.06,1.65.06c0.47,0,1-.06,1.44-0.06a0.23,0.23,0,0,1,.27.26c0,0.08-.17,1.54-0.17,2.88V32.9c0,0.3,0,.7.47,0.7,0.27,0,.68-0.08.82-0.08s0.11,0,.11.36c0,0.11,0,.15-0.63.25a17.31,17.31,0,0,0-2.18.49,0.25,0.25,0,0,1-.23-0.27c0-.23,0-0.53.06-0.72a5.25,5.25,0,0,1-2.82,1c-1.88,0-2.41-1.21-2.41-3.19v-3Z" transform="translate(0 -0.25)"/><path class="aa961625-ff47-453b-9ec2-53ea449b506d" d="M172.76,28.18A1,1,0,0,0,171.64,27a0.18,0.18,0,0,1-.17-0.23,0.24,0.24,0,0,1,.15-0.27,8.48,8.48,0,0,0,2.66-.93,0.22,0.22,0,0,1,.08.19c0,0.23-.1.7-0.1,1.73a4.24,4.24,0,0,1,2.66-1.65,1.08,1.08,0,0,1,1.21,1.06,0.93,0.93,0,0,1-.93.95c-0.78,0-.89-0.72-1.46-0.72a2.13,2.13,0,0,0-1.31.82,0.8,0.8,0,0,0-.13.55v4.3c0,0.7,0,1.12.95,1.12,0.7,0,.78,0,0.78.23s-0.08.27-.28,0.27c-0.68,0-1.29,0-2.16,0-1.52,0-1.84,0-2.2,0-0.13,0-.17-0.11-0.17-0.25s0.23-.25.59-0.25c0.82,0,1-.15,1-1V28.18Z" transform="translate(0 -0.25)"/><path class="aa961625-ff47-453b-9ec2-53ea449b506d" d="M181.67,32.65c0,1.08,0,1.31.87,1.31,0.42,0,.46,0,0.46.25s0,0.25-.19.25-0.34,0-1.57,0c-1.78,0-2.28,0-2.56,0s-0.15-.11-0.15-0.21c0-.25,0-0.28.72-0.28a0.71,0.71,0,0,0,.78-0.46,19.3,19.3,0,0,0,.11-2.73v-2.6A1,1,0,0,0,179,27a0.18,0.18,0,0,1-.17-0.23,0.23,0.23,0,0,1,.15-0.27,8.51,8.51,0,0,0,2.66-.93c0.08,0,.11.1,0.11,0.21a17.38,17.38,0,0,0-.09,2.73v4.1ZM179.91,22a1,1,0,1,1,1,1A1,1,0,0,1,179.91,22Z" transform="translate(0 -0.25)"/><path class="94e80a2f-9dd5-457c-84fc-192c45ea2e4f" d="M4.12,48.84c0,2.54,1.06,4.76,4.25,4.76,2.22,0,4.14-1.23,4.14-5.75V44.1c0-2.64-.55-2.64-2.5-2.64-0.15,0-.15-0.11-0.15-0.28S9.9,40.9,10,40.9c0.32,0,1.56.08,2.79,0.08,0.59,0,2.2-.08,2.47-0.08s0.27,0,.27.32a0.21,0.21,0,0,1-.17.25c-1.82,0-2.2,0-2.2,2.24V48.2c0,5.12-3.26,6.49-5.46,6.49-4.25,0-5.44-2.85-5.44-4.93V45.41c0-1.35,0-1.8,0-2.67,0-1.12-.34-1.27-2-1.27C0,41.46,0,41.31,0,41.14A0.2,0.2,0,0,1,.17,40.9c0.15,0,1.8.08,3,.08s2.86-.08,3-0.08a0.2,0.2,0,0,1,.17.25c0,0.17,0,.32-0.21.32-1.65,0-2,.15-2,1.27,0,0.87,0,1.33,0,2.67v3.43Z" transform="translate(0 -0.25)"/><path class="94e80a2f-9dd5-457c-84fc-192c45ea2e4f" d="M18.74,52.65c0,1.08,0,1.31.87,1.31,0.51,0,.55,0,0.55.25s0,0.25-.19.25-0.34,0-1.67,0c-1.78,0-2.27,0-2.56,0s-0.15-.11-0.15-0.21c0-.25,0-0.28.72-0.28a0.71,0.71,0,0,0,.78-0.46,19.22,19.22,0,0,0,.11-2.73v-2.6A1,1,0,0,0,16.08,47a0.18,0.18,0,0,1-.17-0.23,0.23,0.23,0,0,1,.15-0.27,8.48,8.48,0,0,0,2.66-.93s0.06,0.06.06,0.21,0,0.53,0,1.37a5.76,5.76,0,0,1,3-1.31c0.65,0,2.5.13,2.5,2.85v4.55c0,0.32.06,0.68,1.23,0.68,0.19,0,.19.11,0.19,0.25s0,0.25-.27.25c-0.57,0-.91,0-1.92,0-1.54,0-1.84,0-2,0s-0.13-.13-0.13-0.23A0.24,0.24,0,0,1,21.6,54c0.91,0,1.08-.08,1.08-0.7v-3.4c0-1.76-.15-2.94-2.12-2.94a2.81,2.81,0,0,0-1.82.87v4.85Z" transform="translate(0 -0.25)"/><path class="94e80a2f-9dd5-457c-84fc-192c45ea2e4f" d="M29.38,52.65c0,1.08,0,1.31.87,1.31,0.42,0,.46,0,0.46.25s0,0.25-.19.25-0.34,0-1.57,0c-1.78,0-2.28,0-2.56,0s-0.15-.11-0.15-0.21c0-.25,0-0.28.72-0.28a0.71,0.71,0,0,0,.78-0.46,19,19,0,0,0,.11-2.73v-2.6A1,1,0,0,0,26.72,47a0.18,0.18,0,0,1-.17-0.23,0.23,0.23,0,0,1,.15-0.27,8.46,8.46,0,0,0,2.65-.93c0.08,0,.11.1,0.11,0.21a17.2,17.2,0,0,0-.09,2.73v4.1ZM27.61,42a1,1,0,1,1,1,1A1,1,0,0,1,27.61,42Z" transform="translate(0 -0.25)"/><path class="94e80a2f-9dd5-457c-84fc-192c45ea2e4f" d="M38.08,47.25c0-.55-1-0.55-1.27-0.55a0.22,0.22,0,0,1-.17-0.27,0.24,0.24,0,0,1,.25-0.23c0.51,0,1.1,0,1.63,0s1.12,0,1.67,0a0.2,0.2,0,0,1,.17.23,0.17,0.17,0,0,1-.19.21c-1.1.17-1.16,0.25-1.76,1.73-0.66,1.63-1.8,4-2.14,4.82-0.53,1.27-.7,1.5-0.85,1.5s-0.34-.4-0.72-1.21C34,52,32.45,47.42,32.18,47a0.65,0.65,0,0,0-.66-0.3c-0.51,0-.59-0.06-0.59-0.32a0.2,0.2,0,0,1,.21-0.21c0.61,0,1.2,0,1.8,0l2.26,0c0.13,0,.15.17,0.15,0.27a0.23,0.23,0,0,1-.19.23c-0.57,0-1.1.06-1.1,0.46A35.11,35.11,0,0,0,36,52.45C37.78,48.48,38.08,47.76,38.08,47.25Z" transform="translate(0 -0.25)"/><path class="94e80a2f-9dd5-457c-84fc-192c45ea2e4f" d="M41.78,49.3a7,7,0,0,0-.08,1.08,3.2,3.2,0,0,0,3.11,3.13A2.47,2.47,0,0,0,47,52.37,0.7,0.7,0,0,1,47.32,52a0.4,0.4,0,0,1,.3.23,3.46,3.46,0,0,1-3.26,2.41c-2.71,0-4.14-1.67-4.14-4.32s1.84-4.55,3.79-4.55a3.17,3.17,0,0,1,3.4,3.28c0,0.19-.08.21-0.23,0.21H41.78ZM45,48.73a0.54,0.54,0,0,0,.65-0.63A1.6,1.6,0,0,0,44,46.3c-1.36,0-1.93,1.14-2.12,2.43H45Z" transform="translate(0 -0.25)"/><path class="94e80a2f-9dd5-457c-84fc-192c45ea2e4f" d="M50.07,48.18A1,1,0,0,0,48.95,47a0.18,0.18,0,0,1-.17-0.23,0.23,0.23,0,0,1,.15-0.27,8.46,8.46,0,0,0,2.66-.93,0.22,0.22,0,0,1,.08.19c0,0.23-.09.7-0.09,1.73a4.24,4.24,0,0,1,2.66-1.65,1.08,1.08,0,0,1,1.21,1.06,0.93,0.93,0,0,1-.93.95c-0.78,0-.89-0.72-1.46-0.72a2.13,2.13,0,0,0-1.31.82,0.8,0.8,0,0,0-.13.55v4.3c0,0.7,0,1.12.95,1.12,0.7,0,.78,0,0.78.23s-0.08.27-.28,0.27c-0.68,0-1.29,0-2.16,0-1.52,0-1.84,0-2.2,0-0.13,0-.17-0.11-0.17-0.25S48.74,54,49.1,54c0.82,0,1-.15,1-1V48.18Z" transform="translate(0 -0.25)"/><path class="94e80a2f-9dd5-457c-84fc-192c45ea2e4f" d="M61.9,52.1c0,0.93-.49,2.58-3.09,2.58-0.34,0-1.44-.15-2.18-0.15a0.12,0.12,0,0,1-.09-0.09c0-.19-0.44-1.86-0.44-2s0.27-.11.34-0.11c0.46,0,.57,1.92,2.39,1.92a1.61,1.61,0,0,0,1.73-1.69c0-2-4.25-1.35-4.25-4a2.66,2.66,0,0,1,2.88-2.58,15.17,15.17,0,0,1,2,.17,0.54,0.54,0,0,1,.28.53c0,0.78.21,1.27,0.21,1.52a0.18,0.18,0,0,1-.21.15A0.33,0.33,0,0,1,61.14,48a2.23,2.23,0,0,0-2-1.61,1.37,1.37,0,0,0-1.52,1.42,1.44,1.44,0,0,0,.89,1.27C60.53,50,61.9,50,61.9,52.1Z" transform="translate(0 -0.25)"/><path class="94e80a2f-9dd5-457c-84fc-192c45ea2e4f" d="M66,52.65c0,1.08,0,1.31.87,1.31,0.42,0,.46,0,0.46.25s0,0.25-.19.25-0.34,0-1.57,0c-1.78,0-2.28,0-2.56,0s-0.15-.11-0.15-0.21c0-.25,0-0.28.72-0.28a0.71,0.71,0,0,0,.78-0.46,19.25,19.25,0,0,0,.11-2.73v-2.6A1,1,0,0,0,63.34,47a0.18,0.18,0,0,1-.17-0.23,0.24,0.24,0,0,1,.15-0.27A8.46,8.46,0,0,0,66,45.62a0.17,0.17,0,0,1,.11.21A17.2,17.2,0,0,0,66,48.56v4.1ZM64.23,42a1,1,0,1,1,1,1A1,1,0,0,1,64.23,42Z" transform="translate(0 -0.25)"/><path class="94e80a2f-9dd5-457c-84fc-192c45ea2e4f" d="M70.58,51.08c0,2,.17,2.73,1.67,2.73a3.11,3.11,0,0,0,1.29-.44,0.37,0.37,0,0,1,.21.3,2.88,2.88,0,0,1-2.52,1A2.06,2.06,0,0,1,69,52.33v-5a0.2,0.2,0,0,0-.19-0.25H67.91a0.14,0.14,0,0,1-.11-0.17,0.33,0.33,0,0,1,.11-0.27c1.76-1.33,2.12-2.33,2.5-2.33a0.22,0.22,0,0,1,.23.25c0,0.34-.06.66-0.06,1.75H73.5c0.13,0,.19.13,0.19,0.4a0.44,0.44,0,0,1-.51.47c-0.13,0-1-.09-2.6-0.09v4Z" transform="translate(0 -0.25)"/><path class="94e80a2f-9dd5-457c-84fc-192c45ea2e4f" d="M82,47.34c0-.63-0.89-0.65-1.46-0.65-0.17,0-.19-0.09-0.19-0.25a0.22,0.22,0,0,1,.17-0.25c0.61,0,1.23,0,1.84,0s1.18,0,1.76,0c0.13,0,.13.17,0.13,0.25s-0.06.23-.32,0.25a1.14,1.14,0,0,0-1.2.83c-0.68,1.57-3.3,7.07-3.72,8.14-1.46,3.66-2.09,3.91-2.71,3.91a1.07,1.07,0,1,1,0-2.14,4.11,4.11,0,0,1,.95.32c0.34,0,1.23-1.82,1.23-2.71a9.07,9.07,0,0,0-.66-2.13c-1.2-3.07-1.56-4.72-2-5.78-0.17-.44-1.12-0.44-1.36-0.44a0.21,0.21,0,0,1-.17-0.27,0.21,0.21,0,0,1,.21-0.23c0.23,0,1.42,0,2.11,0s1.31,0,1.88,0a0.21,0.21,0,0,1,.23.25,0.23,0.23,0,0,1-.19.25c-0.11,0-.93,0-0.93.42,0,0.91.65,2.79,1.88,6A38.6,38.6,0,0,0,82,47.34Z" transform="translate(0 -0.25)"/><path class="94e80a2f-9dd5-457c-84fc-192c45ea2e4f" d="M93.91,54.68a4.24,4.24,0,0,1-4.4-4.4,4.41,4.41,0,0,1,8.82,0A4.16,4.16,0,0,1,93.91,54.68Zm0-8.31c-2,0-2.6,2-2.6,3.91,0,1.61.38,3.91,2.6,3.91s2.62-2.29,2.62-3.91C96.53,48.43,95.9,46.38,93.91,46.38Z" transform="translate(0 -0.25)"/><path class="94e80a2f-9dd5-457c-84fc-192c45ea2e4f" d="M102.65,52.84c0,0.7,0,1.12.95,1.12,0.7,0,.78,0,0.78.23s-0.08.27-.28,0.27c-0.68,0-1.29,0-2.16,0-1.52,0-1.84,0-2,0s-0.17-.11-0.17-0.25,0-.25.4-0.25c0.82,0,1-.15,1-1V47.7c0-.23,0-0.61-0.36-0.61h-1c-0.13,0-.23,0-0.23-0.25s0.13-.23.59-0.32c0.74-.17.93-0.21,1-1.06,0.19-2.88,1-4.48,3.28-5.06a5.69,5.69,0,0,1,1.16-.15,1,1,0,0,1,1.2.82,0.85,0.85,0,0,1-.89.93,1.7,1.7,0,0,1-1-.44,1.75,1.75,0,0,0-.83-0.44c-1.08,0-1.27,1.57-1.27,2.75v2.45H105c0.13,0,.19.13,0.19,0.4a0.44,0.44,0,0,1-.51.47c-0.13,0-1.59-.09-2-0.09v5.75Z" transform="translate(0 -0.25)"/><path class="94e80a2f-9dd5-457c-84fc-192c45ea2e4f" d="M126.19,41.1a0.24,0.24,0,0,1,.23-0.21c0.09,0,1.48.08,1.92,0.08s1.94-.08,2.07-0.08,0.21,0.15.21,0.32a0.21,0.21,0,0,1-.23.25c-1.71,0-1.91.13-1.91,1,0,1.23.21,5.22,0.4,10.53a0.94,0.94,0,0,0,1,.89c1.06,0,1.08.11,1.08,0.25,0,0.28-.1.32-0.21,0.32s-0.38,0-3,0c-2.46,0-2.58,0-2.73,0s-0.21-.13-0.21-0.3,0-.27.91-0.27c1.25,0,1.27-.3,1.27-1.06,0-1.14-.28-7.26-0.44-10.81h0c-1.38,3.55-3.13,7.63-4.38,10.68-0.72,1.74-.72,2-1,2s-0.28-.17-0.68-1.48-3.51-9.75-3.58-9.75A78.39,78.39,0,0,0,115.34,53a0.82,0.82,0,0,0,.95.89,1.79,1.79,0,0,1,1,.15c0,0.36,0,.42-0.21.42s-0.34,0-2.3,0c-1.73,0-1.86,0-2,0s-0.21,0-.21-0.32,0.1-.25,1-0.25c0.66,0,.8-0.25,1-1.33,0.51-2.73,1-5.48,1.56-8.21a8.28,8.28,0,0,0,.25-1.78,2,2,0,0,0-.49-0.95,6.4,6.4,0,0,0-1.63-.15c-0.23,0-.23-0.15-0.23-0.28s0-.28.21-0.28c0.36,0,2,.08,2.2.08,0.49,0,1.29-.08,1.54-0.08s0.27,0.21.46,0.89c0.4,1.42,3.15,9.1,3.49,9.81C123.4,48.24,124.84,44.76,126.19,41.1Z" transform="translate(0 -0.25)"/><path class="94e80a2f-9dd5-457c-84fc-192c45ea2e4f" d="M134.62,52.65c0,1.08,0,1.31.87,1.31,0.42,0,.46,0,0.46.25s0,0.25-.19.25-0.34,0-1.57,0c-1.78,0-2.28,0-2.56,0s-0.15-.11-0.15-0.21c0-.25,0-0.28.72-0.28a0.71,0.71,0,0,0,.78-0.46,19,19,0,0,0,.11-2.73v-2.6A1,1,0,0,0,132,47a0.18,0.18,0,0,1-.17-0.23,0.24,0.24,0,0,1,.15-0.27,8.46,8.46,0,0,0,2.65-.93c0.08,0,.11.1,0.11,0.21a17.17,17.17,0,0,0-.1,2.73v4.1ZM132.86,42a1,1,0,1,1,1,1A1,1,0,0,1,132.86,42Z" transform="translate(0 -0.25)"/><path class="94e80a2f-9dd5-457c-84fc-192c45ea2e4f" d="M142.82,52.1c0,0.93-.49,2.58-3.09,2.58-0.34,0-1.44-.15-2.18-0.15a0.12,0.12,0,0,1-.09-0.09c0-.19-0.44-1.86-0.44-2s0.27-.11.34-0.11c0.46,0,.57,1.92,2.39,1.92a1.61,1.61,0,0,0,1.73-1.69c0-2-4.25-1.35-4.25-4a2.66,2.66,0,0,1,2.88-2.58,15.12,15.12,0,0,1,2,.17,0.54,0.54,0,0,1,.28.53c0,0.78.21,1.27,0.21,1.52a0.18,0.18,0,0,1-.21.15,0.33,0.33,0,0,1-.38-0.27,2.23,2.23,0,0,0-2-1.61,1.37,1.37,0,0,0-1.52,1.42,1.44,1.44,0,0,0,.89,1.27C141.45,50,142.82,50,142.82,52.1Z" transform="translate(0 -0.25)"/><path class="94e80a2f-9dd5-457c-84fc-192c45ea2e4f" d="M149.83,52.1c0,0.93-.49,2.58-3.09,2.58-0.34,0-1.44-.15-2.18-0.15a0.12,0.12,0,0,1-.09-0.09c0-.19-0.44-1.86-0.44-2s0.27-.11.34-0.11c0.46,0,.57,1.92,2.39,1.92a1.61,1.61,0,0,0,1.73-1.69c0-2-4.25-1.35-4.25-4a2.66,2.66,0,0,1,2.88-2.58,15.12,15.12,0,0,1,2,.17,0.54,0.54,0,0,1,.28.53c0,0.78.21,1.27,0.21,1.52a0.18,0.18,0,0,1-.21.15,0.33,0.33,0,0,1-.38-0.27,2.23,2.23,0,0,0-2-1.61,1.37,1.37,0,0,0-1.52,1.42,1.44,1.44,0,0,0,.89,1.27C148.47,50,149.83,50,149.83,52.1Z" transform="translate(0 -0.25)"/><path class="94e80a2f-9dd5-457c-84fc-192c45ea2e4f" d="M155.62,54.68a4.24,4.24,0,0,1-4.4-4.4,4.41,4.41,0,0,1,8.82,0A4.16,4.16,0,0,1,155.62,54.68Zm0-8.31c-2,0-2.6,2-2.6,3.91,0,1.61.38,3.91,2.6,3.91s2.62-2.29,2.62-3.91C158.23,48.43,157.61,46.38,155.62,46.38Z" transform="translate(0 -0.25)"/><path class="94e80a2f-9dd5-457c-84fc-192c45ea2e4f" d="M162.4,48.54c0-1.67-.19-1.78-1.18-1.78-0.15,0-.42,0-0.42-0.19s0-.38.21-0.38,0.49,0.06,1.12.06,1.39-.06,1.65-0.06c0.11,0,.15,0,0.15.26v5.12c0,1.42.46,2.24,1.86,2.24,0.68,0,1.88-.42,1.88-1V47.89c0-1-.19-1.14-1.18-1.14-0.34,0-.61,0-0.61-0.19s0-.38.13-0.38,0.49,0.06,1.65.06c0.47,0,1-.06,1.44-0.06a0.23,0.23,0,0,1,.27.26c0,0.08-.17,1.54-0.17,2.88V52.9c0,0.3,0,.7.47,0.7,0.27,0,.68-0.08.82-0.08s0.11,0,.11.36c0,0.11,0,.15-0.63.25a17.31,17.31,0,0,0-2.18.49,0.25,0.25,0,0,1-.23-0.27c0-.23,0-0.53.06-0.72a5.25,5.25,0,0,1-2.82,1c-1.88,0-2.41-1.21-2.41-3.19v-3Z" transform="translate(0 -0.25)"/><path class="94e80a2f-9dd5-457c-84fc-192c45ea2e4f" d="M172.76,48.18A1,1,0,0,0,171.64,47a0.18,0.18,0,0,1-.17-0.23,0.24,0.24,0,0,1,.15-0.27,8.48,8.48,0,0,0,2.66-.93,0.22,0.22,0,0,1,.08.19c0,0.23-.1.7-0.1,1.73a4.24,4.24,0,0,1,2.66-1.65,1.08,1.08,0,0,1,1.21,1.06,0.93,0.93,0,0,1-.93.95c-0.78,0-.89-0.72-1.46-0.72a2.13,2.13,0,0,0-1.31.82,0.8,0.8,0,0,0-.13.55v4.3c0,0.7,0,1.12.95,1.12,0.7,0,.78,0,0.78.23s-0.08.27-.28,0.27c-0.68,0-1.29,0-2.16,0-1.52,0-1.84,0-2.2,0-0.13,0-.17-0.11-0.17-0.25s0.23-.25.59-0.25c0.82,0,1-.15,1-1V48.18Z" transform="translate(0 -0.25)"/><path class="94e80a2f-9dd5-457c-84fc-192c45ea2e4f" d="M181.67,52.65c0,1.08,0,1.31.87,1.31,0.42,0,.46,0,0.46.25s0,0.25-.19.25-0.34,0-1.57,0c-1.78,0-2.28,0-2.56,0s-0.15-.11-0.15-0.21c0-.25,0-0.28.72-0.28a0.71,0.71,0,0,0,.78-0.46,19.3,19.3,0,0,0,.11-2.73v-2.6A1,1,0,0,0,179,47a0.18,0.18,0,0,1-.17-0.23,0.23,0.23,0,0,1,.15-0.27,8.51,8.51,0,0,0,2.66-.93c0.08,0,.11.1,0.11,0.21a17.38,17.38,0,0,0-.09,2.73v4.1ZM179.91,42a1,1,0,1,1,1,1A1,1,0,0,1,179.91,42Z" transform="translate(0 -0.25)"/><path class="280acd7d-60b5-4e56-b7f5-f802281ef26b" d="M4.12,68.84c0,2.54,1.06,4.76,4.25,4.76,2.22,0,4.14-1.23,4.14-5.75V64.1c0-2.64-.55-2.64-2.5-2.64-0.15,0-.15-0.11-0.15-0.28S9.9,60.9,10,60.9c0.32,0,1.56.08,2.79,0.08,0.59,0,2.2-.08,2.47-0.08s0.27,0,.27.32a0.21,0.21,0,0,1-.17.25c-1.82,0-2.2,0-2.2,2.24V68.2c0,5.12-3.26,6.49-5.46,6.49-4.25,0-5.44-2.85-5.44-4.93V65.41c0-1.35,0-1.8,0-2.67,0-1.12-.34-1.27-2-1.27C0,61.46,0,61.31,0,61.14A0.2,0.2,0,0,1,.17,60.9c0.15,0,1.8.08,3,.08s2.86-.08,3-0.08a0.2,0.2,0,0,1,.17.25c0,0.17,0,.32-0.21.32-1.65,0-2,.15-2,1.27,0,0.87,0,1.33,0,2.67v3.43Z" transform="translate(0 -0.25)"/><path class="280acd7d-60b5-4e56-b7f5-f802281ef26b" d="M18.74,72.65c0,1.08,0,1.31.87,1.31,0.51,0,.55,0,0.55.25s0,0.25-.19.25-0.34,0-1.67,0c-1.78,0-2.27,0-2.56,0s-0.15-.11-0.15-0.21c0-.25,0-0.28.72-0.28a0.71,0.71,0,0,0,.78-0.46,19.22,19.22,0,0,0,.11-2.73v-2.6A1,1,0,0,0,16.08,67a0.18,0.18,0,0,1-.17-0.23,0.23,0.23,0,0,1,.15-0.27,8.48,8.48,0,0,0,2.66-.93s0.06,0.06.06,0.21,0,0.53,0,1.37a5.76,5.76,0,0,1,3-1.31c0.65,0,2.5.13,2.5,2.85v4.55c0,0.32.06,0.68,1.23,0.68,0.19,0,.19.11,0.19,0.25s0,0.25-.27.25c-0.57,0-.91,0-1.92,0-1.54,0-1.84,0-2,0s-0.13-.13-0.13-0.23A0.24,0.24,0,0,1,21.6,74c0.91,0,1.08-.08,1.08-0.7v-3.4c0-1.76-.15-2.94-2.12-2.94a2.81,2.81,0,0,0-1.82.87v4.85Z" transform="translate(0 -0.25)"/><path class="280acd7d-60b5-4e56-b7f5-f802281ef26b" d="M29.38,72.65c0,1.08,0,1.31.87,1.31,0.42,0,.46,0,0.46.25s0,0.25-.19.25-0.34,0-1.57,0c-1.78,0-2.28,0-2.56,0s-0.15-.11-0.15-0.21c0-.25,0-0.28.72-0.28a0.71,0.71,0,0,0,.78-0.46,19,19,0,0,0,.11-2.73v-2.6A1,1,0,0,0,26.72,67a0.18,0.18,0,0,1-.17-0.23,0.23,0.23,0,0,1,.15-0.27,8.46,8.46,0,0,0,2.65-.93c0.08,0,.11.1,0.11,0.21a17.2,17.2,0,0,0-.09,2.73v4.1ZM27.61,62a1,1,0,1,1,1,1A1,1,0,0,1,27.61,62Z" transform="translate(0 -0.25)"/><path class="280acd7d-60b5-4e56-b7f5-f802281ef26b" d="M38.08,67.25c0-.55-1-0.55-1.27-0.55a0.22,0.22,0,0,1-.17-0.27,0.24,0.24,0,0,1,.25-0.23c0.51,0,1.1,0,1.63,0s1.12,0,1.67,0a0.2,0.2,0,0,1,.17.23,0.17,0.17,0,0,1-.19.21c-1.1.17-1.16,0.25-1.76,1.73-0.66,1.63-1.8,4-2.14,4.82-0.53,1.27-.7,1.5-0.85,1.5s-0.34-.4-0.72-1.21C34,72,32.45,67.42,32.18,67a0.65,0.65,0,0,0-.66-0.3c-0.51,0-.59-0.06-0.59-0.32a0.2,0.2,0,0,1,.21-0.21c0.61,0,1.2,0,1.8,0l2.26,0c0.13,0,.15.17,0.15,0.27a0.23,0.23,0,0,1-.19.23c-0.57,0-1.1.06-1.1,0.46A35.11,35.11,0,0,0,36,72.45C37.78,68.48,38.08,67.76,38.08,67.25Z" transform="translate(0 -0.25)"/><path class="280acd7d-60b5-4e56-b7f5-f802281ef26b" d="M41.78,69.3a7,7,0,0,0-.08,1.08,3.2,3.2,0,0,0,3.11,3.13A2.47,2.47,0,0,0,47,72.37,0.7,0.7,0,0,1,47.32,72a0.4,0.4,0,0,1,.3.23,3.46,3.46,0,0,1-3.26,2.41c-2.71,0-4.14-1.67-4.14-4.32s1.84-4.55,3.79-4.55a3.17,3.17,0,0,1,3.4,3.28c0,0.19-.08.21-0.23,0.21H41.78ZM45,68.73a0.54,0.54,0,0,0,.65-0.63A1.6,1.6,0,0,0,44,66.3c-1.36,0-1.93,1.14-2.12,2.43H45Z" transform="translate(0 -0.25)"/><path class="280acd7d-60b5-4e56-b7f5-f802281ef26b" d="M50.07,68.18A1,1,0,0,0,48.95,67a0.18,0.18,0,0,1-.17-0.23,0.23,0.23,0,0,1,.15-0.27,8.46,8.46,0,0,0,2.66-.93,0.22,0.22,0,0,1,.08.19c0,0.23-.09.7-0.09,1.73a4.24,4.24,0,0,1,2.66-1.65,1.08,1.08,0,0,1,1.21,1.06,0.93,0.93,0,0,1-.93.95c-0.78,0-.89-0.72-1.46-0.72a2.13,2.13,0,0,0-1.31.82,0.8,0.8,0,0,0-.13.55v4.3c0,0.7,0,1.12.95,1.12,0.7,0,.78,0,0.78.23s-0.08.27-.28,0.27c-0.68,0-1.29,0-2.16,0-1.52,0-1.84,0-2.2,0-0.13,0-.17-0.11-0.17-0.25S48.74,74,49.1,74c0.82,0,1-.15,1-1V68.18Z" transform="translate(0 -0.25)"/><path class="280acd7d-60b5-4e56-b7f5-f802281ef26b" d="M61.9,72.1c0,0.93-.49,2.58-3.09,2.58-0.34,0-1.44-.15-2.18-0.15a0.12,0.12,0,0,1-.09-0.09c0-.19-0.44-1.86-0.44-2s0.27-.11.34-0.11c0.46,0,.57,1.92,2.39,1.92a1.61,1.61,0,0,0,1.73-1.69c0-2-4.25-1.35-4.25-4a2.66,2.66,0,0,1,2.88-2.58,15.17,15.17,0,0,1,2,.17,0.54,0.54,0,0,1,.28.53c0,0.78.21,1.27,0.21,1.52a0.18,0.18,0,0,1-.21.15A0.33,0.33,0,0,1,61.14,68a2.23,2.23,0,0,0-2-1.61,1.37,1.37,0,0,0-1.52,1.42,1.44,1.44,0,0,0,.89,1.27C60.53,70,61.9,70,61.9,72.1Z" transform="translate(0 -0.25)"/><path class="280acd7d-60b5-4e56-b7f5-f802281ef26b" d="M66,72.65c0,1.08,0,1.31.87,1.31,0.42,0,.46,0,0.46.25s0,0.25-.19.25-0.34,0-1.57,0c-1.78,0-2.28,0-2.56,0s-0.15-.11-0.15-0.21c0-.25,0-0.28.72-0.28a0.71,0.71,0,0,0,.78-0.46,19.25,19.25,0,0,0,.11-2.73v-2.6A1,1,0,0,0,63.34,67a0.18,0.18,0,0,1-.17-0.23,0.24,0.24,0,0,1,.15-0.27A8.46,8.46,0,0,0,66,65.62a0.17,0.17,0,0,1,.11.21A17.2,17.2,0,0,0,66,68.56v4.1ZM64.23,62a1,1,0,1,1,1,1A1,1,0,0,1,64.23,62Z" transform="translate(0 -0.25)"/><path class="280acd7d-60b5-4e56-b7f5-f802281ef26b" d="M70.58,71.08c0,2,.17,2.73,1.67,2.73a3.11,3.11,0,0,0,1.29-.44,0.37,0.37,0,0,1,.21.3,2.88,2.88,0,0,1-2.52,1A2.06,2.06,0,0,1,69,72.33v-5a0.2,0.2,0,0,0-.19-0.25H67.91a0.14,0.14,0,0,1-.11-0.17,0.33,0.33,0,0,1,.11-0.27c1.76-1.33,2.12-2.33,2.5-2.33a0.22,0.22,0,0,1,.23.25c0,0.34-.06.66-0.06,1.75H73.5c0.13,0,.19.13,0.19,0.4a0.44,0.44,0,0,1-.51.47c-0.13,0-1-.09-2.6-0.09v4Z" transform="translate(0 -0.25)"/><path class="280acd7d-60b5-4e56-b7f5-f802281ef26b" d="M82,67.34c0-.63-0.89-0.65-1.46-0.65-0.17,0-.19-0.09-0.19-0.25a0.22,0.22,0,0,1,.17-0.25c0.61,0,1.23,0,1.84,0s1.18,0,1.76,0c0.13,0,.13.17,0.13,0.25s-0.06.23-.32,0.25a1.14,1.14,0,0,0-1.2.83c-0.68,1.57-3.3,7.07-3.72,8.14-1.46,3.66-2.09,3.91-2.71,3.91a1.07,1.07,0,1,1,0-2.14,4.11,4.11,0,0,1,.95.32c0.34,0,1.23-1.82,1.23-2.71a9.07,9.07,0,0,0-.66-2.13c-1.2-3.07-1.56-4.72-2-5.78-0.17-.44-1.12-0.44-1.36-0.44a0.21,0.21,0,0,1-.17-0.27,0.21,0.21,0,0,1,.21-0.23c0.23,0,1.42,0,2.11,0s1.31,0,1.88,0a0.21,0.21,0,0,1,.23.25,0.23,0.23,0,0,1-.19.25c-0.11,0-.93,0-0.93.42,0,0.91.65,2.79,1.88,6A38.6,38.6,0,0,0,82,67.34Z" transform="translate(0 -0.25)"/><path class="280acd7d-60b5-4e56-b7f5-f802281ef26b" d="M93.91,74.68a4.24,4.24,0,0,1-4.4-4.4,4.41,4.41,0,0,1,8.82,0A4.16,4.16,0,0,1,93.91,74.68Zm0-8.31c-2,0-2.6,2-2.6,3.91,0,1.61.38,3.91,2.6,3.91s2.62-2.29,2.62-3.91C96.53,68.43,95.9,66.38,93.91,66.38Z" transform="translate(0 -0.25)"/><path class="280acd7d-60b5-4e56-b7f5-f802281ef26b" d="M102.65,72.84c0,0.7,0,1.12.95,1.12,0.7,0,.78,0,0.78.23s-0.08.27-.28,0.27c-0.68,0-1.29,0-2.16,0-1.52,0-1.84,0-2,0s-0.17-.11-0.17-0.25,0-.25.4-0.25c0.82,0,1-.15,1-1V67.7c0-.23,0-0.61-0.36-0.61h-1c-0.13,0-.23,0-0.23-0.25s0.13-.23.59-0.32c0.74-.17.93-0.21,1-1.06,0.19-2.88,1-4.48,3.28-5.06a5.69,5.69,0,0,1,1.16-.15,1,1,0,0,1,1.2.82,0.85,0.85,0,0,1-.89.93,1.7,1.7,0,0,1-1-.44,1.75,1.75,0,0,0-.83-0.44c-1.08,0-1.27,1.57-1.27,2.75v2.45H105c0.13,0,.19.13,0.19,0.4a0.44,0.44,0,0,1-.51.47c-0.13,0-1.59-.09-2-0.09v5.75Z" transform="translate(0 -0.25)"/><path class="280acd7d-60b5-4e56-b7f5-f802281ef26b" d="M126.19,61.1a0.24,0.24,0,0,1,.23-0.21c0.09,0,1.48.08,1.92,0.08s1.94-.08,2.07-0.08,0.21,0.15.21,0.32a0.21,0.21,0,0,1-.23.25c-1.71,0-1.91.13-1.91,1,0,1.23.21,5.22,0.4,10.53a0.94,0.94,0,0,0,1,.89c1.06,0,1.08.11,1.08,0.25,0,0.28-.1.32-0.21,0.32s-0.38,0-3,0c-2.46,0-2.58,0-2.73,0s-0.21-.13-0.21-0.3,0-.27.91-0.27c1.25,0,1.27-.3,1.27-1.06,0-1.14-.28-7.26-0.44-10.81h0c-1.38,3.55-3.13,7.63-4.38,10.68-0.72,1.74-.72,2-1,2s-0.28-.17-0.68-1.48-3.51-9.75-3.58-9.75A78.39,78.39,0,0,0,115.34,73a0.82,0.82,0,0,0,.95.89,1.79,1.79,0,0,1,1,.15c0,0.36,0,.42-0.21.42s-0.34,0-2.3,0c-1.73,0-1.86,0-2,0s-0.21,0-.21-0.32,0.1-.25,1-0.25c0.66,0,.8-0.25,1-1.33,0.51-2.73,1-5.48,1.56-8.21a8.28,8.28,0,0,0,.25-1.78,2,2,0,0,0-.49-0.95,6.4,6.4,0,0,0-1.63-.15c-0.23,0-.23-0.15-0.23-0.28s0-.28.21-0.28c0.36,0,2,.08,2.2.08,0.49,0,1.29-.08,1.54-0.08s0.27,0.21.46,0.89c0.4,1.42,3.15,9.1,3.49,9.81C123.4,68.24,124.84,64.76,126.19,61.1Z" transform="translate(0 -0.25)"/><path class="280acd7d-60b5-4e56-b7f5-f802281ef26b" d="M134.62,72.65c0,1.08,0,1.31.87,1.31,0.42,0,.46,0,0.46.25s0,0.25-.19.25-0.34,0-1.57,0c-1.78,0-2.28,0-2.56,0s-0.15-.11-0.15-0.21c0-.25,0-0.28.72-0.28a0.71,0.71,0,0,0,.78-0.46,19,19,0,0,0,.11-2.73v-2.6A1,1,0,0,0,132,67a0.18,0.18,0,0,1-.17-0.23,0.24,0.24,0,0,1,.15-0.27,8.46,8.46,0,0,0,2.65-.93c0.08,0,.11.1,0.11,0.21a17.17,17.17,0,0,0-.1,2.73v4.1ZM132.86,62a1,1,0,1,1,1,1A1,1,0,0,1,132.86,62Z" transform="translate(0 -0.25)"/><path class="280acd7d-60b5-4e56-b7f5-f802281ef26b" d="M142.82,72.1c0,0.93-.49,2.58-3.09,2.58-0.34,0-1.44-.15-2.18-0.15a0.12,0.12,0,0,1-.09-0.09c0-.19-0.44-1.86-0.44-2s0.27-.11.34-0.11c0.46,0,.57,1.92,2.39,1.92a1.61,1.61,0,0,0,1.73-1.69c0-2-4.25-1.35-4.25-4a2.66,2.66,0,0,1,2.88-2.58,15.12,15.12,0,0,1,2,.17,0.54,0.54,0,0,1,.28.53c0,0.78.21,1.27,0.21,1.52a0.18,0.18,0,0,1-.21.15,0.33,0.33,0,0,1-.38-0.27,2.23,2.23,0,0,0-2-1.61,1.37,1.37,0,0,0-1.52,1.42,1.44,1.44,0,0,0,.89,1.27C141.45,70,142.82,70,142.82,72.1Z" transform="translate(0 -0.25)"/><path class="280acd7d-60b5-4e56-b7f5-f802281ef26b" d="M149.83,72.1c0,0.93-.49,2.58-3.09,2.58-0.34,0-1.44-.15-2.18-0.15a0.12,0.12,0,0,1-.09-0.09c0-.19-0.44-1.86-0.44-2s0.27-.11.34-0.11c0.46,0,.57,1.92,2.39,1.92a1.61,1.61,0,0,0,1.73-1.69c0-2-4.25-1.35-4.25-4a2.66,2.66,0,0,1,2.88-2.58,15.12,15.12,0,0,1,2,.17,0.54,0.54,0,0,1,.28.53c0,0.78.21,1.27,0.21,1.52a0.18,0.18,0,0,1-.21.15,0.33,0.33,0,0,1-.38-0.27,2.23,2.23,0,0,0-2-1.61,1.37,1.37,0,0,0-1.52,1.42,1.44,1.44,0,0,0,.89,1.27C148.47,70,149.83,70,149.83,72.1Z" transform="translate(0 -0.25)"/><path class="280acd7d-60b5-4e56-b7f5-f802281ef26b" d="M155.62,74.68a4.24,4.24,0,0,1-4.4-4.4,4.41,4.41,0,0,1,8.82,0A4.16,4.16,0,0,1,155.62,74.68Zm0-8.31c-2,0-2.6,2-2.6,3.91,0,1.61.38,3.91,2.6,3.91s2.62-2.29,2.62-3.91C158.23,68.43,157.61,66.38,155.62,66.38Z" transform="translate(0 -0.25)"/><path class="280acd7d-60b5-4e56-b7f5-f802281ef26b" d="M162.4,68.54c0-1.67-.19-1.78-1.18-1.78-0.15,0-.42,0-0.42-0.19s0-.38.21-0.38,0.49,0.06,1.12.06,1.39-.06,1.65-0.06c0.11,0,.15,0,0.15.26v5.12c0,1.42.46,2.24,1.86,2.24,0.68,0,1.88-.42,1.88-1V67.89c0-1-.19-1.14-1.18-1.14-0.34,0-.61,0-0.61-0.19s0-.38.13-0.38,0.49,0.06,1.65.06c0.47,0,1-.06,1.44-0.06a0.23,0.23,0,0,1,.27.26c0,0.08-.17,1.54-0.17,2.88V72.9c0,0.3,0,.7.47,0.7,0.27,0,.68-0.08.82-0.08s0.11,0,.11.36c0,0.11,0,.15-0.63.25a17.31,17.31,0,0,0-2.18.49,0.25,0.25,0,0,1-.23-0.27c0-.23,0-0.53.06-0.72a5.25,5.25,0,0,1-2.82,1c-1.88,0-2.41-1.21-2.41-3.19v-3Z" transform="translate(0 -0.25)"/><path class="280acd7d-60b5-4e56-b7f5-f802281ef26b" d="M172.76,68.18A1,1,0,0,0,171.64,67a0.18,0.18,0,0,1-.17-0.23,0.24,0.24,0,0,1,.15-0.27,8.48,8.48,0,0,0,2.66-.93,0.22,0.22,0,0,1,.08.19c0,0.23-.1.7-0.1,1.73a4.24,4.24,0,0,1,2.66-1.65,1.08,1.08,0,0,1,1.21,1.06,0.93,0.93,0,0,1-.93.95c-0.78,0-.89-0.72-1.46-0.72a2.13,2.13,0,0,0-1.31.82,0.8,0.8,0,0,0-.13.55v4.3c0,0.7,0,1.12.95,1.12,0.7,0,.78,0,0.78.23s-0.08.27-.28,0.27c-0.68,0-1.29,0-2.16,0-1.52,0-1.84,0-2.2,0-0.13,0-.17-0.11-0.17-0.25s0.23-.25.59-0.25c0.82,0,1-.15,1-1V68.18Z" transform="translate(0 -0.25)"/><path class="280acd7d-60b5-4e56-b7f5-f802281ef26b" d="M181.67,72.65c0,1.08,0,1.31.87,1.31,0.42,0,.46,0,0.46.25s0,0.25-.19.25-0.34,0-1.57,0c-1.78,0-2.28,0-2.56,0s-0.15-.11-0.15-0.21c0-.25,0-0.28.72-0.28a0.71,0.71,0,0,0,.78-0.46,19.3,19.3,0,0,0,.11-2.73v-2.6A1,1,0,0,0,179,67a0.18,0.18,0,0,1-.17-0.23,0.23,0.23,0,0,1,.15-0.27,8.51,8.51,0,0,0,2.66-.93c0.08,0,.11.1,0.11,0.21a17.38,17.38,0,0,0-.09,2.73v4.1ZM179.91,62a1,1,0,1,1,1,1A1,1,0,0,1,179.91,62Z" transform="translate(0 -0.25)"/></svg>