<svg id="1b7838dc-5ecd-4450-992f-73c243f1d0a2" data-name="Layer 1" xmlns="http://www.w3.org/2000/svg" width="404" height="228" viewBox="0 0 404 228"><defs><style>.\31 eee1ec5-438e-416a-b7de-695e63d9305f{fill:#900000;}.\36 7bc1c76-1efc-46b1-ba21-77aec4829292{fill:#fff;}.dde1ccc1-2be2-4fbf-93a1-99cdf40ecd84{fill:#f1b82d;}</style></defs><title>unit-name</title><path d="M20.8,42.2C7.35,42.2,2.3,31.5,2.3,24.8c0-12.05,9-19.4,18.5-19.4,10.6,0,18.55,6.35,18.55,19.15C39.35,31.5,34.3,42.2,20.8,42.2Zm0-35.5C9.15,6.7,8.25,19.75,8.25,23.85c0,6.9,3.35,17.05,12.55,17.05,11.8,0,12.6-11.15,12.6-17.1C33.4,16.65,30.05,6.7,20.8,6.7Z"/><path d="M51.25,37.35c0,1.85,0,3,2.5,3,1.85,0,2.05.05,2.05,0.6s-0.2.7-.75,0.7c-1.8,0-3.4-.1-5.7-0.1-4,0-4.85.1-5.3,0.1S43.6,41.3,43.6,41c0-.5.1-0.65,1-0.65,2.15,0,2.55-.4,2.55-2.55v-14c0-.6,0-1.6-1-1.6H43.5c-0.35,0-.6,0-0.6-0.65,0-.4.35-0.6,1.55-0.85,2-.45,2.45-0.55,2.6-2.8,0.5-7.6,2.75-11.8,8.65-13.35a15,15,0,0,1,3.05-.4c1.3,0,3.15.5,3.15,2.15a2.23,2.23,0,0,1-2.35,2.45A4.47,4.47,0,0,1,56.8,7.6a4.61,4.61,0,0,0-2.2-1.15c-2.85,0-3.35,4.15-3.35,7.25v6.45h6.2c0.35,0,.5.35,0.5,1a1.16,1.16,0,0,1-1.35,1.25c-0.35,0-4.2-.25-5.35-0.25V37.35Z"/><path d="M67,37.35c0,1.85,0,3,2.5,3,1.1,0,1.3.05,1.3,0.6s-0.2.7-.75,0.7c-1.05,0-2.65-.1-5-0.1-4,0-4.85.1-5.3,0.1s-0.45-.3-0.45-0.65c0-.5.1-0.65,1-0.65,2.15,0,2.55-.4,2.55-2.55v-14c0-.6,0-1.6-1-1.6H59.25c-0.35,0-.6,0-0.6-0.65,0-.4.35-0.6,1.55-0.85,2-.45,2.45-0.55,2.6-2.8,0.5-7.35,5.8-13.75,13.85-13.75,1.3,0,4.65.5,4.65,2.7A2.4,2.4,0,0,1,78.7,9.3c-3.55,0-4.3-2.85-6.05-2.85S67,7.4,67,17.2v3h8.5c2.8,0,5.05-1.85,5.6-1.85,0.2,0,.3.25,0.3,0.55s-0.25.7-.25,7.2v10.8c0,2.85.1,3.45,2.3,3.45,1.1,0,1.2.05,1.2,0.65,0,0.3,0,.65-0.5.65-0.25,0-.9-0.1-4.15-0.1-4.7,0-6,.1-6.75.1-0.4,0-.4-0.3-0.4-0.55,0-.65,0-0.75,1.9-0.75a1.87,1.87,0,0,0,2.05-1.2,50.72,50.72,0,0,0,.3-7.2V25a2.81,2.81,0,0,0-2.85-3.1H67v15.4Z"/><path d="M105.8,37.3a2.86,2.86,0,0,1,.85-0.8,1,1,0,0,1,.75.7,1.1,1.1,0,0,1-.4.75,11.27,11.27,0,0,1-8.75,4.25C92.45,42.2,87.9,38,87.9,30.9c0-7.4,4.9-11.9,11.35-11.9,6.85,0,8.15,3.7,8.15,4.75a2.59,2.59,0,0,1-2.65,2.15c-1.6,0-1.8-.5-2.35-3.25-0.15-.75-0.5-2.35-3.1-2.35-3.15,0-7.05,2.4-7.05,10.6,0,2.25.85,8.5,8.5,8.5A9.15,9.15,0,0,0,105.8,37.3Z"/><path d="M114.5,28a18.29,18.29,0,0,0-.2,2.85c0,3.25,2.75,8.25,8.2,8.25a6.52,6.52,0,0,0,5.85-3,1.84,1.84,0,0,1,.75-0.85,1.05,1.05,0,0,1,.8.6c0,0.15-2,6.35-8.6,6.35-7.15,0-10.9-4.4-10.9-11.4s4.85-12,10-12c8.3,0,9,7.15,9,8.65,0,0.5-.2.55-0.6,0.55H114.5Zm8.6-1.5a1.43,1.43,0,0,0,1.7-1.65c0-3.9-2.7-4.75-4.4-4.75-3.6,0-5.1,3-5.6,6.4h8.3Z"/><path d="M157.8,42.2a11.19,11.19,0,0,1-11.6-11.6,11.63,11.63,0,0,1,23.25,0C169.45,37.6,164.8,42.2,157.8,42.2Zm0-21.9c-5.2,0-6.85,5.4-6.85,10.3,0,4.25,1,10.3,6.85,10.3s6.9-6.05,6.9-10.3C164.7,25.7,163,20.3,157.8,20.3Z"/><path d="M180.85,37.35c0,1.85,0,3,2.5,3,1.85,0,2,.05,2,0.6s-0.2.7-.75,0.7c-1.8,0-3.4-.1-5.7-0.1-4,0-4.85.1-5.3,0.1s-0.45-.3-0.45-0.65c0-.5.1-0.65,1-0.65,2.15,0,2.55-.4,2.55-2.55v-14c0-.6,0-1.6-1-1.6H173.1c-0.35,0-.6,0-0.6-0.65,0-.4.35-0.6,1.55-0.85,2-.45,2.45-0.55,2.6-2.8,0.5-7.6,2.75-11.8,8.65-13.35a15,15,0,0,1,3-.4c1.3,0,3.15.5,3.15,2.15a2.23,2.23,0,0,1-2.35,2.45A4.47,4.47,0,0,1,186.4,7.6a4.62,4.62,0,0,0-2.2-1.15c-2.85,0-3.35,4.15-3.35,7.25v6.45H187c0.35,0,.5.35,0.5,1a1.16,1.16,0,0,1-1.35,1.25c-0.35,0-4.2-.25-5.35-0.25V37.35Z"/><path d="M206.79,17.75c0-3.55,0-4.75-.1-7.05,0-3-.9-3.35-4.5-3.35-0.55,0-.55-0.4-0.55-0.85a0.54,0.54,0,0,1,.45-0.65c0.4,0,4,.2,7.15.2,0.45,0,4.5-.2,7.1-0.2,12,0,13.2,7.85,13.2,9.9,0,7.15-5,10.8-11.75,10.8a31.18,31.18,0,0,1-6.05-.5c0,8,0,9.35.1,10.85,0.1,2,.4,3.2,5.55,3.2,1.4,0,1.4.3,1.4,0.85s0,0.65-.4.65-1.75-.1-9.15-0.1-7.55.1-7.9,0.1-0.4-.2-0.4-0.65,0-.85,1.4-0.85c4,0,4.25-.85,4.3-2.2,0.1-2.5.15-5.75,0.15-7.9V17.75Zm5,5.4c0,1.15.3,1.9,2.85,1.9,5.45,0,9.55-3.15,9.55-8.9,0-5.15-3.3-8.8-8.2-8.8-3.8,0-4.25,0-4.2,4.15V23.15Z"/><path d="M236.34,25c0-1.75-.45-2.75-3-3a0.47,0.47,0,0,1-.45-0.6,0.62,0.62,0,0,1,.4-0.7c5.7-1.15,6.4-2.45,7-2.45a0.59,0.59,0,0,1,.2.5c0,0.6-.25,1.85-0.25,4.55,1.65-1.85,4.35-4.35,7-4.35,1.75,0,3.2,1,3.2,2.8A2.46,2.46,0,0,1,248,24.3c-2,0-2.35-1.9-3.85-1.9a5.61,5.61,0,0,0-3.45,2.15,2.11,2.11,0,0,0-.35,1.45V37.35c0,1.85,0,3,2.5,3,1.85,0,2,.05,2,0.6s-0.2.7-.75,0.7c-1.8,0-3.4-.1-5.7-0.1-4,0-4.85.1-5.8,0.1-0.35,0-.45-0.3-0.45-0.65,0-.5.6-0.65,1.55-0.65,2.15,0,2.55-.4,2.55-2.55V25Z"/><path d="M264.29,42.2a11.19,11.19,0,0,1-11.6-11.6,11.63,11.63,0,0,1,23.25,0C275.95,37.6,271.29,42.2,264.29,42.2Zm0-21.9c-5.2,0-6.85,5.4-6.85,10.3,0,4.25,1,10.3,6.85,10.3s6.9-6.05,6.9-10.3C271.19,25.7,269.54,20.3,264.29,20.3Z"/><path d="M293.74,39.4c6.85,0,6.8,4.45,6.8,6,0,7.55-8.35,9.75-14.45,9.75-3.25,0-6.45-.85-6.45-4.7,0-3.1,2.3-5.35,4.35-7.35A3.27,3.27,0,0,1,281,40c0-3,1.6-4.3,3.85-5.85-2.9-1.5-3.9-4-3.9-7.1,0-4.7,4.35-8.2,8.85-8.2a10.51,10.51,0,0,1,6.05,2,7.26,7.26,0,0,1,4.25-1.5c3.2,0,3.75,1.75,3.75,2.8a2,2,0,0,1-1.9,1.75c-1.3,0-2.5-2.85-3.4-2.85a3.76,3.76,0,0,0-1.9.65,9.28,9.28,0,0,1,1.9,4.85c0,5.4-3.4,8.6-8.9,8.6a11.48,11.48,0,0,1-3.6-.55,3.78,3.78,0,0,0-2.05,3.2c0,1.45,1.2,1.65,2.35,1.65h7.4Zm-8,3.8c-0.3,0-3.25,2.25-3.25,5,0,0.7.2,4.6,7.2,4.6,5.7,0,8.35-1.75,8.35-5.65,0-3.05-1.85-4-5.1-4h-7.2Zm8.45-17c0-.75,0-6.05-4.2-6.05-4.65,0-4.7,6-4.7,7.7,0,3,1,6,4.5,6C293.89,33.8,294.19,28.35,294.19,26.2Z"/><path d="M308.59,25c0-1.75-.45-2.75-3-3a0.47,0.47,0,0,1-.45-0.6,0.62,0.62,0,0,1,.4-0.7c5.7-1.15,6.4-2.45,7-2.45a0.59,0.59,0,0,1,.2.5c0,0.6-.25,1.85-0.25,4.55,1.65-1.85,4.35-4.35,7-4.35,1.75,0,3.2,1,3.2,2.8a2.46,2.46,0,0,1-2.45,2.5c-2,0-2.35-1.9-3.85-1.9A5.61,5.61,0,0,0,313,24.55a2.11,2.11,0,0,0-.35,1.45V37.35c0,1.85,0,3,2.5,3,1.85,0,2,.05,2,0.6s-0.2.7-.75,0.7c-1.8,0-3.4-.1-5.7-0.1-4,0-4.85.1-5.8,0.1-0.35,0-.45-0.3-0.45-0.65,0-.5.6-0.65,1.55-0.65,2.15,0,2.55-.4,2.55-2.55V25Z"/><path d="M340.64,38.8a0.8,0.8,0,0,0,.85,1c1,0,1.75-1.15,2.15-1.15a0.83,0.83,0,0,1,.65.55c0,0.6-3.25,3-5,3s-2.2-1.15-2.75-2.9c-3,2.3-4.35,2.9-6.45,2.9-3.9,0-4.8-2.85-4.8-4.45,0-2.55,1.5-4.65,11.3-8.3V24.9c0-2.6-3-4-4.2-4s-3.55,1.8-3.55,2.3c0,0.7.65,1.4,0.65,2.5,0,0.55-.45,1.9-2.45,1.9a1.92,1.92,0,0,1-2.1-1.85c0-1.35.35-2,4.1-4.5s4.3-2.5,5.4-2.5c1.6,0,6.2,1.2,6.2,5.75V38.8Zm-4-7.4a0.46,0.46,0,0,0-.35-0.5,26,26,0,0,0-5,2.45c-1.4,1-1.65,1.8-1.65,3.65,0,1.55.65,3.1,2.35,3.1,1.9,0,4.6-1.75,4.6-2.65V31.4Z"/><path d="M349.89,25c0-1.75-.45-2.75-2.95-3a0.47,0.47,0,0,1-.45-0.6,0.62,0.62,0,0,1,.4-0.7c5.7-1.15,6.4-2.45,7-2.45,0.1,0,.15.15,0.15,0.55s-0.1,1.4-.1,3.35c1.3-1,6.05-3.2,8.8-3.2a6.1,6.1,0,0,1,5.45,3.25c2.7-1.6,4.65-3.25,7.65-3.25,1.7,0,6.6.25,6.6,6.1V38.4c0,0.85.15,1.8,3.25,1.8,0.5,0,.5.3,0.5,0.65s0,0.65-.7.65c-1.5,0-2.4-.1-5-0.1-4.05,0-4.85.1-5.25,0.1s-0.35-.35-0.35-0.6a0.64,0.64,0,0,1,.7-0.7c2.4,0,2.85-.2,2.85-1.85v-13c0-.65-0.4-4.1-5.1-4.1-2.2,0-5.1,2.2-5.1,2.75v12.8c0,2.85.1,3.45,2.3,3.45,1.35,0,1.45.05,1.45,0.65,0,0.3,0,.65-0.5.65-0.25,0-.9-0.1-5.25-0.1-4.05,0-4.85.1-5.25,0.1s-0.35-.35-0.35-0.6a0.64,0.64,0,0,1,.7-0.7c2.4,0,2.85-.2,2.85-2v-13c0-1.9-.4-4.1-5.1-4.1-2.2,0-5.1,2.2-5.1,2.75v12.8c0,2.85.1,3.45,2.3,3.45,1.35,0,1.45.05,1.45,0.65,0,0.3,0,.65-0.5.65-0.25,0-.9-0.1-4.4-0.1-4.7,0-5.5.1-6.25,0.1-0.4,0-.4-0.3-0.4-0.55,0-.65,0-0.75,1.4-0.75a1.87,1.87,0,0,0,2-1.2,50.65,50.65,0,0,0,.3-7.2V25Z"/><path d="M403.64,35.4c0,2.45-1.3,6.8-8.15,6.8-0.9,0-3.8-.4-5.75-0.4a0.32,0.32,0,0,1-.25-0.25c0-.5-1.15-4.9-1.15-5.4,0-.3.7-0.3,0.9-0.3,1.2,0,1.5,5.05,6.3,5.05a4.26,4.26,0,0,0,4.55-4.45c0-5.25-11.2-3.55-11.2-10.65,0-4.1,3.4-6.8,7.6-6.8a40,40,0,0,1,5.4.45,1.42,1.42,0,0,1,.75,1.4c0.1,2.05.55,3.35,0.55,4a0.47,0.47,0,0,1-.55.4,0.88,0.88,0,0,1-1-.7c-0.35-.85-1.65-4.25-5.2-4.25-2.35,0-4,1.35-4,3.75a3.8,3.8,0,0,0,2.35,3.35C400,29.9,403.64,29.75,403.64,35.4Z"/><path class="1eee1ec5-438e-416a-b7de-695e63d9305f" d="M20.8,99.2C7.35,99.2,2.3,88.5,2.3,81.8c0-12.05,9-19.4,18.5-19.4,10.6,0,18.55,6.35,18.55,19.15C39.35,88.5,34.3,99.2,20.8,99.2Zm0-35.5C9.15,63.7,8.25,76.75,8.25,80.85c0,6.9,3.35,17.05,12.55,17.05,11.8,0,12.6-11.15,12.6-17.1C33.4,73.65,30.05,63.7,20.8,63.7Z"/><path class="1eee1ec5-438e-416a-b7de-695e63d9305f" d="M51.25,94.35c0,1.85,0,3,2.5,3,1.85,0,2.05.05,2.05,0.6s-0.2.7-.75,0.7c-1.8,0-3.4-.1-5.7-0.1-4,0-4.85.1-5.3,0.1S43.6,98.3,43.6,98c0-.5.1-0.65,1-0.65,2.15,0,2.55-.4,2.55-2.55v-14c0-.6,0-1.6-1-1.6H43.5c-0.35,0-.6,0-0.6-0.65,0-.4.35-0.6,1.55-0.85,2-.45,2.45-0.55,2.6-2.8,0.5-7.6,2.75-11.8,8.65-13.35a15,15,0,0,1,3.05-.4c1.3,0,3.15.5,3.15,2.15a2.23,2.23,0,0,1-2.35,2.45A4.47,4.47,0,0,1,56.8,64.6a4.61,4.61,0,0,0-2.2-1.15c-2.85,0-3.35,4.15-3.35,7.25v6.45h6.2c0.35,0,.5.35,0.5,1a1.16,1.16,0,0,1-1.35,1.25c-0.35,0-4.2-.25-5.35-0.25V94.35Z"/><path class="1eee1ec5-438e-416a-b7de-695e63d9305f" d="M67,94.35c0,1.85,0,3,2.5,3,1.1,0,1.3.05,1.3,0.6s-0.2.7-.75,0.7c-1.05,0-2.65-.1-5-0.1-4,0-4.85.1-5.3,0.1s-0.45-.3-0.45-0.65c0-.5.1-0.65,1-0.65,2.15,0,2.55-.4,2.55-2.55v-14c0-.6,0-1.6-1-1.6H59.25c-0.35,0-.6,0-0.6-0.65,0-.4.35-0.6,1.55-0.85,2-.45,2.45-0.55,2.6-2.8,0.5-7.35,5.8-13.75,13.85-13.75,1.3,0,4.65.5,4.65,2.7a2.4,2.4,0,0,1-2.6,2.45c-3.55,0-4.3-2.85-6.05-2.85S67,64.4,67,74.2v3h8.5c2.8,0,5.05-1.85,5.6-1.85,0.2,0,.3.25,0.3,0.55s-0.25.7-.25,7.2v10.8c0,2.85.1,3.45,2.3,3.45,1.1,0,1.2.05,1.2,0.65,0,0.3,0,.65-0.5.65-0.25,0-.9-0.1-4.15-0.1-4.7,0-6,.1-6.75.1-0.4,0-.4-0.3-0.4-0.55,0-.65,0-0.75,1.9-0.75a1.87,1.87,0,0,0,2.05-1.2,50.72,50.72,0,0,0,.3-7.2V82a2.81,2.81,0,0,0-2.85-3.1H67v15.4Z"/><path class="1eee1ec5-438e-416a-b7de-695e63d9305f" d="M105.8,94.3a2.86,2.86,0,0,1,.85-0.8,1,1,0,0,1,.75.7,1.1,1.1,0,0,1-.4.75,11.27,11.27,0,0,1-8.75,4.25C92.45,99.2,87.9,95,87.9,87.9c0-7.4,4.9-11.9,11.35-11.9,6.85,0,8.15,3.7,8.15,4.75a2.59,2.59,0,0,1-2.65,2.15c-1.6,0-1.8-.5-2.35-3.25-0.15-.75-0.5-2.35-3.1-2.35-3.15,0-7.05,2.4-7.05,10.6,0,2.25.85,8.5,8.5,8.5A9.15,9.15,0,0,0,105.8,94.3Z"/><path class="1eee1ec5-438e-416a-b7de-695e63d9305f" d="M114.5,85a18.29,18.29,0,0,0-.2,2.85c0,3.25,2.75,8.25,8.2,8.25a6.52,6.52,0,0,0,5.85-3,1.84,1.84,0,0,1,.75-0.85,1.05,1.05,0,0,1,.8.6c0,0.15-2,6.35-8.6,6.35-7.15,0-10.9-4.4-10.9-11.4s4.85-12,10-12c8.3,0,9,7.15,9,8.65,0,0.5-.2.55-0.6,0.55H114.5Zm8.6-1.5a1.43,1.43,0,0,0,1.7-1.65c0-3.9-2.7-4.75-4.4-4.75-3.6,0-5.1,3-5.6,6.4h8.3Z"/><path class="1eee1ec5-438e-416a-b7de-695e63d9305f" d="M157.8,99.2a11.19,11.19,0,0,1-11.6-11.6,11.63,11.63,0,0,1,23.25,0C169.45,94.6,164.8,99.2,157.8,99.2Zm0-21.9c-5.2,0-6.85,5.4-6.85,10.3,0,4.25,1,10.3,6.85,10.3s6.9-6.05,6.9-10.3C164.7,82.7,163,77.3,157.8,77.3Z"/><path class="1eee1ec5-438e-416a-b7de-695e63d9305f" d="M180.85,94.35c0,1.85,0,3,2.5,3,1.85,0,2,.05,2,0.6s-0.2.7-.75,0.7c-1.8,0-3.4-.1-5.7-0.1-4,0-4.85.1-5.3,0.1s-0.45-.3-0.45-0.65c0-.5.1-0.65,1-0.65,2.15,0,2.55-.4,2.55-2.55v-14c0-.6,0-1.6-1-1.6H173.1c-0.35,0-.6,0-0.6-0.65,0-.4.35-0.6,1.55-0.85,2-.45,2.45-0.55,2.6-2.8,0.5-7.6,2.75-11.8,8.65-13.35a15,15,0,0,1,3-.4c1.3,0,3.15.5,3.15,2.15a2.23,2.23,0,0,1-2.35,2.45,4.47,4.47,0,0,1-2.75-1.15,4.62,4.62,0,0,0-2.2-1.15c-2.85,0-3.35,4.15-3.35,7.25v6.45H187c0.35,0,.5.35,0.5,1a1.16,1.16,0,0,1-1.35,1.25c-0.35,0-4.2-.25-5.35-0.25V94.35Z"/><path class="1eee1ec5-438e-416a-b7de-695e63d9305f" d="M206.79,74.75c0-3.55,0-4.75-.1-7.05,0-3-.9-3.35-4.5-3.35-0.55,0-.55-0.4-0.55-0.85a0.54,0.54,0,0,1,.45-0.65c0.4,0,4,.2,7.15.2,0.45,0,4.5-.2,7.1-0.2,12,0,13.2,7.85,13.2,9.9,0,7.15-5,10.8-11.75,10.8a31.18,31.18,0,0,1-6.05-.5c0,8,0,9.35.1,10.85,0.1,2,.4,3.2,5.55,3.2,1.4,0,1.4.3,1.4,0.85s0,0.65-.4.65-1.75-.1-9.15-0.1-7.55.1-7.9,0.1-0.4-.2-0.4-0.65,0-.85,1.4-0.85c4,0,4.25-.85,4.3-2.2,0.1-2.5.15-5.75,0.15-7.9V74.75Zm5,5.4c0,1.15.3,1.9,2.85,1.9,5.45,0,9.55-3.15,9.55-8.9,0-5.15-3.3-8.8-8.2-8.8-3.8,0-4.25,0-4.2,4.15V80.15Z"/><path class="1eee1ec5-438e-416a-b7de-695e63d9305f" d="M236.34,82c0-1.75-.45-2.75-3-3a0.47,0.47,0,0,1-.45-0.6,0.62,0.62,0,0,1,.4-0.7c5.7-1.15,6.4-2.45,7-2.45a0.59,0.59,0,0,1,.2.5c0,0.6-.25,1.85-0.25,4.55,1.65-1.85,4.35-4.35,7-4.35,1.75,0,3.2,1,3.2,2.8A2.46,2.46,0,0,1,248,81.3c-2,0-2.35-1.9-3.85-1.9a5.61,5.61,0,0,0-3.45,2.15,2.11,2.11,0,0,0-.35,1.45V94.35c0,1.85,0,3,2.5,3,1.85,0,2,.05,2,0.6s-0.2.7-.75,0.7c-1.8,0-3.4-.1-5.7-0.1-4,0-4.85.1-5.8,0.1-0.35,0-.45-0.3-0.45-0.65,0-.5.6-0.65,1.55-0.65,2.15,0,2.55-.4,2.55-2.55V82Z"/><path class="1eee1ec5-438e-416a-b7de-695e63d9305f" d="M264.29,99.2a11.19,11.19,0,0,1-11.6-11.6,11.63,11.63,0,0,1,23.25,0C275.95,94.6,271.29,99.2,264.29,99.2Zm0-21.9c-5.2,0-6.85,5.4-6.85,10.3,0,4.25,1,10.3,6.85,10.3s6.9-6.05,6.9-10.3C271.19,82.7,269.54,77.3,264.29,77.3Z"/><path class="1eee1ec5-438e-416a-b7de-695e63d9305f" d="M293.74,96.4c6.85,0,6.8,4.45,6.8,6,0,7.55-8.35,9.75-14.45,9.75-3.25,0-6.45-.85-6.45-4.7,0-3.1,2.3-5.35,4.35-7.35A3.27,3.27,0,0,1,281,97c0-3,1.6-4.3,3.85-5.85-2.9-1.5-3.9-4-3.9-7.1,0-4.7,4.35-8.2,8.85-8.2a10.51,10.51,0,0,1,6.05,2,7.26,7.26,0,0,1,4.25-1.5c3.2,0,3.75,1.75,3.75,2.8a2,2,0,0,1-1.9,1.75c-1.3,0-2.5-2.85-3.4-2.85a3.76,3.76,0,0,0-1.9.65,9.28,9.28,0,0,1,1.9,4.85c0,5.4-3.4,8.6-8.9,8.6a11.48,11.48,0,0,1-3.6-.55,3.78,3.78,0,0,0-2.05,3.2c0,1.45,1.2,1.65,2.35,1.65h7.4Zm-8,3.8c-0.3,0-3.25,2.25-3.25,5,0,0.7.2,4.6,7.2,4.6,5.7,0,8.35-1.75,8.35-5.65,0-3.05-1.85-4-5.1-4h-7.2Zm8.45-17c0-.75,0-6.05-4.2-6.05-4.65,0-4.7,6-4.7,7.7,0,3,1,6,4.5,6C293.89,90.8,294.19,85.35,294.19,83.2Z"/><path class="1eee1ec5-438e-416a-b7de-695e63d9305f" d="M308.59,82c0-1.75-.45-2.75-3-3a0.47,0.47,0,0,1-.45-0.6,0.62,0.62,0,0,1,.4-0.7c5.7-1.15,6.4-2.45,7-2.45a0.59,0.59,0,0,1,.2.5c0,0.6-.25,1.85-0.25,4.55,1.65-1.85,4.35-4.35,7-4.35,1.75,0,3.2,1,3.2,2.8a2.46,2.46,0,0,1-2.45,2.5c-2,0-2.35-1.9-3.85-1.9A5.61,5.61,0,0,0,313,81.55a2.11,2.11,0,0,0-.35,1.45V94.35c0,1.85,0,3,2.5,3,1.85,0,2,.05,2,0.6s-0.2.7-.75,0.7c-1.8,0-3.4-.1-5.7-0.1-4,0-4.85.1-5.8,0.1-0.35,0-.45-0.3-0.45-0.65,0-.5.6-0.65,1.55-0.65,2.15,0,2.55-.4,2.55-2.55V82Z"/><path class="1eee1ec5-438e-416a-b7de-695e63d9305f" d="M340.64,95.8a0.8,0.8,0,0,0,.85,1c1,0,1.75-1.15,2.15-1.15a0.83,0.83,0,0,1,.65.55c0,0.6-3.25,3-5,3s-2.2-1.15-2.75-2.9c-3,2.3-4.35,2.9-6.45,2.9-3.9,0-4.8-2.85-4.8-4.45,0-2.55,1.5-4.65,11.3-8.3V81.9c0-2.6-3-4-4.2-4s-3.55,1.8-3.55,2.3c0,0.7.65,1.4,0.65,2.5,0,0.55-.45,1.9-2.45,1.9a1.92,1.92,0,0,1-2.1-1.85c0-1.35.35-2,4.1-4.5s4.3-2.5,5.4-2.5c1.6,0,6.2,1.2,6.2,5.75V95.8Zm-4-7.4a0.46,0.46,0,0,0-.35-0.5,26,26,0,0,0-5,2.45c-1.4,1-1.65,1.8-1.65,3.65,0,1.55.65,3.1,2.35,3.1,1.9,0,4.6-1.75,4.6-2.65V88.4Z"/><path class="1eee1ec5-438e-416a-b7de-695e63d9305f" d="M349.89,82c0-1.75-.45-2.75-2.95-3a0.47,0.47,0,0,1-.45-0.6,0.62,0.62,0,0,1,.4-0.7c5.7-1.15,6.4-2.45,7-2.45,0.1,0,.15.15,0.15,0.55s-0.1,1.4-.1,3.35c1.3-1,6.05-3.2,8.8-3.2a6.1,6.1,0,0,1,5.45,3.25c2.7-1.6,4.65-3.25,7.65-3.25,1.7,0,6.6.25,6.6,6.1V95.4c0,0.85.15,1.8,3.25,1.8,0.5,0,.5.3,0.5,0.65s0,0.65-.7.65c-1.5,0-2.4-.1-5-0.1-4.05,0-4.85.1-5.25,0.1s-0.35-.35-0.35-0.6a0.64,0.64,0,0,1,.7-0.7c2.4,0,2.85-.2,2.85-1.85v-13c0-.65-0.4-4.1-5.1-4.1-2.2,0-5.1,2.2-5.1,2.75v12.8c0,2.85.1,3.45,2.3,3.45,1.35,0,1.45.05,1.45,0.65,0,0.3,0,.65-0.5.65-0.25,0-.9-0.1-5.25-0.1-4.05,0-4.85.1-5.25,0.1s-0.35-.35-0.35-0.6a0.64,0.64,0,0,1,.7-0.7c2.4,0,2.85-.2,2.85-2v-13c0-1.9-.4-4.1-5.1-4.1-2.2,0-5.1,2.2-5.1,2.75v12.8c0,2.85.1,3.45,2.3,3.45,1.35,0,1.45.05,1.45,0.65,0,0.3,0,.65-0.5.65-0.25,0-.9-0.1-4.4-0.1-4.7,0-5.5.1-6.25,0.1-0.4,0-.4-0.3-0.4-0.55,0-.65,0-0.75,1.4-0.75a1.87,1.87,0,0,0,2-1.2,50.65,50.65,0,0,0,.3-7.2V82Z"/><path class="1eee1ec5-438e-416a-b7de-695e63d9305f" d="M403.64,92.4c0,2.45-1.3,6.8-8.15,6.8-0.9,0-3.8-.4-5.75-0.4a0.32,0.32,0,0,1-.25-0.25c0-.5-1.15-4.9-1.15-5.4,0-.3.7-0.3,0.9-0.3,1.2,0,1.5,5.05,6.3,5.05a4.26,4.26,0,0,0,4.55-4.45c0-5.25-11.2-3.55-11.2-10.65,0-4.1,3.4-6.8,7.6-6.8a40,40,0,0,1,5.4.45,1.42,1.42,0,0,1,.75,1.4c0.1,2.05.55,3.35,0.55,4a0.47,0.47,0,0,1-.55.4,0.88,0.88,0,0,1-1-.7c-0.35-.85-1.65-4.25-5.2-4.25-2.35,0-4,1.35-4,3.75a3.8,3.8,0,0,0,2.35,3.35C400,86.9,403.64,86.75,403.64,92.4Z"/><path class="67bc1c76-1efc-46b1-ba21-77aec4829292" d="M20.8,156.2c-13.45,0-18.5-10.7-18.5-17.4,0-12.05,9-19.4,18.5-19.4,10.6,0,18.55,6.35,18.55,19.15C39.35,145.5,34.3,156.2,20.8,156.2Zm0-35.5c-11.65,0-12.55,13.05-12.55,17.15,0,6.9,3.35,17.05,12.55,17.05,11.8,0,12.6-11.15,12.6-17.1C33.4,130.65,30.05,120.7,20.8,120.7Z"/><path class="67bc1c76-1efc-46b1-ba21-77aec4829292" d="M51.25,151.35c0,1.85,0,3,2.5,3,1.85,0,2.05.05,2.05,0.6s-0.2.7-.75,0.7c-1.8,0-3.4-.1-5.7-0.1-4,0-4.85.1-5.3,0.1s-0.45-.3-0.45-0.65c0-.5.1-0.65,1-0.65,2.15,0,2.55-.4,2.55-2.55v-14c0-.6,0-1.6-1-1.6H43.5c-0.35,0-.6,0-0.6-0.65,0-.4.35-0.6,1.55-0.85,2-.45,2.45-0.55,2.6-2.8,0.5-7.6,2.75-11.8,8.65-13.35a15,15,0,0,1,3.05-.4c1.3,0,3.15.5,3.15,2.15a2.23,2.23,0,0,1-2.35,2.45,4.47,4.47,0,0,1-2.75-1.15,4.61,4.61,0,0,0-2.2-1.15c-2.85,0-3.35,4.15-3.35,7.25v6.45h6.2c0.35,0,.5.35,0.5,1a1.16,1.16,0,0,1-1.35,1.25c-0.35,0-4.2-.25-5.35-0.25v15.15Z"/><path class="67bc1c76-1efc-46b1-ba21-77aec4829292" d="M67,151.35c0,1.85,0,3,2.5,3,1.1,0,1.3.05,1.3,0.6s-0.2.7-.75,0.7c-1.05,0-2.65-.1-5-0.1-4,0-4.85.1-5.3,0.1s-0.45-.3-0.45-0.65c0-.5.1-0.65,1-0.65,2.15,0,2.55-.4,2.55-2.55v-14c0-.6,0-1.6-1-1.6H59.25c-0.35,0-.6,0-0.6-0.65,0-.4.35-0.6,1.55-0.85,2-.45,2.45-0.55,2.6-2.8,0.5-7.35,5.8-13.75,13.85-13.75,1.3,0,4.65.5,4.65,2.7a2.4,2.4,0,0,1-2.6,2.45c-3.55,0-4.3-2.85-6.05-2.85S67,121.4,67,131.2v3h8.5c2.8,0,5.05-1.85,5.6-1.85,0.2,0,.3.25,0.3,0.55s-0.25.7-.25,7.2v10.8c0,2.85.1,3.45,2.3,3.45,1.1,0,1.2.05,1.2,0.65,0,0.3,0,.65-0.5.65-0.25,0-.9-0.1-4.15-0.1-4.7,0-6,.1-6.75.1-0.4,0-.4-0.3-0.4-0.55,0-.65,0-0.75,1.9-0.75a1.87,1.87,0,0,0,2.05-1.2,50.72,50.72,0,0,0,.3-7.2V139a2.81,2.81,0,0,0-2.85-3.1H67v15.4Z"/><path class="67bc1c76-1efc-46b1-ba21-77aec4829292" d="M105.8,151.3a2.86,2.86,0,0,1,.85-0.8,1,1,0,0,1,.75.7,1.1,1.1,0,0,1-.4.75,11.27,11.27,0,0,1-8.75,4.25c-5.8,0-10.35-4.15-10.35-11.3,0-7.4,4.9-11.9,11.35-11.9,6.85,0,8.15,3.7,8.15,4.75a2.59,2.59,0,0,1-2.65,2.15c-1.6,0-1.8-.5-2.35-3.25-0.15-.75-0.5-2.35-3.1-2.35-3.15,0-7.05,2.4-7.05,10.6,0,2.25.85,8.5,8.5,8.5A9.15,9.15,0,0,0,105.8,151.3Z"/><path class="67bc1c76-1efc-46b1-ba21-77aec4829292" d="M114.5,142a18.29,18.29,0,0,0-.2,2.85c0,3.25,2.75,8.25,8.2,8.25a6.52,6.52,0,0,0,5.85-3,1.84,1.84,0,0,1,.75-0.85,1.05,1.05,0,0,1,.8.6c0,0.15-2,6.35-8.6,6.35-7.15,0-10.9-4.4-10.9-11.4s4.85-12,10-12c8.3,0,9,7.15,9,8.65,0,0.5-.2.55-0.6,0.55H114.5Zm8.6-1.5a1.43,1.43,0,0,0,1.7-1.65c0-3.9-2.7-4.75-4.4-4.75-3.6,0-5.1,3-5.6,6.4h8.3Z"/><path class="67bc1c76-1efc-46b1-ba21-77aec4829292" d="M157.8,156.2a11.19,11.19,0,0,1-11.6-11.6,11.63,11.63,0,0,1,23.25,0C169.45,151.6,164.8,156.2,157.8,156.2Zm0-21.9c-5.2,0-6.85,5.4-6.85,10.3,0,4.25,1,10.3,6.85,10.3s6.9-6.05,6.9-10.3C164.7,139.7,163,134.3,157.8,134.3Z"/><path class="67bc1c76-1efc-46b1-ba21-77aec4829292" d="M180.85,151.35c0,1.85,0,3,2.5,3,1.85,0,2,.05,2,0.6s-0.2.7-.75,0.7c-1.8,0-3.4-.1-5.7-0.1-4,0-4.85.1-5.3,0.1s-0.45-.3-0.45-0.65c0-.5.1-0.65,1-0.65,2.15,0,2.55-.4,2.55-2.55v-14c0-.6,0-1.6-1-1.6H173.1c-0.35,0-.6,0-0.6-0.65,0-.4.35-0.6,1.55-0.85,2-.45,2.45-0.55,2.6-2.8,0.5-7.6,2.75-11.8,8.65-13.35a15,15,0,0,1,3-.4c1.3,0,3.15.5,3.15,2.15a2.23,2.23,0,0,1-2.35,2.45,4.47,4.47,0,0,1-2.75-1.15,4.62,4.62,0,0,0-2.2-1.15c-2.85,0-3.35,4.15-3.35,7.25v6.45H187c0.35,0,.5.35,0.5,1a1.16,1.16,0,0,1-1.35,1.25c-0.35,0-4.2-.25-5.35-0.25v15.15Z"/><path class="67bc1c76-1efc-46b1-ba21-77aec4829292" d="M206.79,131.75c0-3.55,0-4.75-.1-7.05,0-3-.9-3.35-4.5-3.35-0.55,0-.55-0.4-0.55-0.85a0.54,0.54,0,0,1,.45-0.65c0.4,0,4,.2,7.15.2,0.45,0,4.5-.2,7.1-0.2,12,0,13.2,7.85,13.2,9.9,0,7.15-5,10.8-11.75,10.8a31.18,31.18,0,0,1-6.05-.5c0,8,0,9.35.1,10.85,0.1,2,.4,3.2,5.55,3.2,1.4,0,1.4.3,1.4,0.85s0,0.65-.4.65-1.75-.1-9.15-0.1-7.55.1-7.9,0.1-0.4-.2-0.4-0.65,0-.85,1.4-0.85c4,0,4.25-.85,4.3-2.2,0.1-2.5.15-5.75,0.15-7.9V131.75Zm5,5.4c0,1.15.3,1.9,2.85,1.9,5.45,0,9.55-3.15,9.55-8.9,0-5.15-3.3-8.8-8.2-8.8-3.8,0-4.25,0-4.2,4.15v11.65Z"/><path class="67bc1c76-1efc-46b1-ba21-77aec4829292" d="M236.34,139c0-1.75-.45-2.75-3-3a0.47,0.47,0,0,1-.45-0.6,0.62,0.62,0,0,1,.4-0.7c5.7-1.15,6.4-2.45,7-2.45a0.59,0.59,0,0,1,.2.5c0,0.6-.25,1.85-0.25,4.55,1.65-1.85,4.35-4.35,7-4.35,1.75,0,3.2,1,3.2,2.8a2.46,2.46,0,0,1-2.45,2.5c-2,0-2.35-1.9-3.85-1.9a5.61,5.61,0,0,0-3.45,2.15,2.11,2.11,0,0,0-.35,1.45v11.35c0,1.85,0,3,2.5,3,1.85,0,2,.05,2,0.6s-0.2.7-.75,0.7c-1.8,0-3.4-.1-5.7-0.1-4,0-4.85.1-5.8,0.1-0.35,0-.45-0.3-0.45-0.65,0-.5.6-0.65,1.55-0.65,2.15,0,2.55-.4,2.55-2.55V139Z"/><path class="67bc1c76-1efc-46b1-ba21-77aec4829292" d="M264.29,156.2a11.19,11.19,0,0,1-11.6-11.6,11.63,11.63,0,0,1,23.25,0C275.95,151.6,271.29,156.2,264.29,156.2Zm0-21.9c-5.2,0-6.85,5.4-6.85,10.3,0,4.25,1,10.3,6.85,10.3s6.9-6.05,6.9-10.3C271.19,139.7,269.54,134.3,264.29,134.3Z"/><path class="67bc1c76-1efc-46b1-ba21-77aec4829292" d="M293.74,153.4c6.85,0,6.8,4.45,6.8,6,0,7.55-8.35,9.75-14.45,9.75-3.25,0-6.45-.85-6.45-4.7,0-3.1,2.3-5.35,4.35-7.35a3.27,3.27,0,0,1-3-3.05c0-3,1.6-4.3,3.85-5.85-2.9-1.5-3.9-4-3.9-7.1,0-4.7,4.35-8.2,8.85-8.2a10.51,10.51,0,0,1,6.05,2,7.26,7.26,0,0,1,4.25-1.5c3.2,0,3.75,1.75,3.75,2.8a2,2,0,0,1-1.9,1.75c-1.3,0-2.5-2.85-3.4-2.85a3.76,3.76,0,0,0-1.9.65,9.28,9.28,0,0,1,1.9,4.85c0,5.4-3.4,8.6-8.9,8.6a11.48,11.48,0,0,1-3.6-.55,3.78,3.78,0,0,0-2.05,3.2c0,1.45,1.2,1.65,2.35,1.65h7.4Zm-8,3.8c-0.3,0-3.25,2.25-3.25,5,0,0.7.2,4.6,7.2,4.6,5.7,0,8.35-1.75,8.35-5.65,0-3.05-1.85-4-5.1-4h-7.2Zm8.45-17c0-.75,0-6.05-4.2-6.05-4.65,0-4.7,6-4.7,7.7,0,3,1,6,4.5,6C293.89,147.8,294.19,142.35,294.19,140.2Z"/><path class="67bc1c76-1efc-46b1-ba21-77aec4829292" d="M308.59,139c0-1.75-.45-2.75-3-3a0.47,0.47,0,0,1-.45-0.6,0.62,0.62,0,0,1,.4-0.7c5.7-1.15,6.4-2.45,7-2.45a0.59,0.59,0,0,1,.2.5c0,0.6-.25,1.85-0.25,4.55,1.65-1.85,4.35-4.35,7-4.35,1.75,0,3.2,1,3.2,2.8a2.46,2.46,0,0,1-2.45,2.5c-2,0-2.35-1.9-3.85-1.9a5.61,5.61,0,0,0-3.45,2.15,2.11,2.11,0,0,0-.35,1.45v11.35c0,1.85,0,3,2.5,3,1.85,0,2,.05,2,0.6s-0.2.7-.75,0.7c-1.8,0-3.4-.1-5.7-0.1-4,0-4.85.1-5.8,0.1-0.35,0-.45-0.3-0.45-0.65,0-.5.6-0.65,1.55-0.65,2.15,0,2.55-.4,2.55-2.55V139Z"/><path class="67bc1c76-1efc-46b1-ba21-77aec4829292" d="M340.64,152.8a0.8,0.8,0,0,0,.85,1c1,0,1.75-1.15,2.15-1.15a0.83,0.83,0,0,1,.65.55c0,0.6-3.25,3-5,3s-2.2-1.15-2.75-2.9c-3,2.3-4.35,2.9-6.45,2.9-3.9,0-4.8-2.85-4.8-4.45,0-2.55,1.5-4.65,11.3-8.3V138.9c0-2.6-3-4-4.2-4s-3.55,1.8-3.55,2.3c0,0.7.65,1.4,0.65,2.5,0,0.55-.45,1.9-2.45,1.9a1.92,1.92,0,0,1-2.1-1.85c0-1.35.35-2,4.1-4.5s4.3-2.5,5.4-2.5c1.6,0,6.2,1.2,6.2,5.75V152.8Zm-4-7.4a0.46,0.46,0,0,0-.35-0.5,26,26,0,0,0-5,2.45c-1.4,1-1.65,1.8-1.65,3.65,0,1.55.65,3.1,2.35,3.1,1.9,0,4.6-1.75,4.6-2.65V145.4Z"/><path class="67bc1c76-1efc-46b1-ba21-77aec4829292" d="M349.89,139c0-1.75-.45-2.75-2.95-3a0.47,0.47,0,0,1-.45-0.6,0.62,0.62,0,0,1,.4-0.7c5.7-1.15,6.4-2.45,7-2.45,0.1,0,.15.15,0.15,0.55s-0.1,1.4-.1,3.35c1.3-1,6.05-3.2,8.8-3.2a6.1,6.1,0,0,1,5.45,3.25c2.7-1.6,4.65-3.25,7.65-3.25,1.7,0,6.6.25,6.6,6.1v13.3c0,0.85.15,1.8,3.25,1.8,0.5,0,.5.3,0.5,0.65s0,0.65-.7.65c-1.5,0-2.4-.1-5-0.1-4.05,0-4.85.1-5.25,0.1s-0.35-.35-0.35-0.6a0.64,0.64,0,0,1,.7-0.7c2.4,0,2.85-.2,2.85-1.85v-13c0-.65-0.4-4.1-5.1-4.1-2.2,0-5.1,2.2-5.1,2.75v12.8c0,2.85.1,3.45,2.3,3.45,1.35,0,1.45.05,1.45,0.65,0,0.3,0,.65-0.5.65-0.25,0-.9-0.1-5.25-0.1-4.05,0-4.85.1-5.25,0.1s-0.35-.35-0.35-0.6a0.64,0.64,0,0,1,.7-0.7c2.4,0,2.85-.2,2.85-2v-13c0-1.9-.4-4.1-5.1-4.1-2.2,0-5.1,2.2-5.1,2.75v12.8c0,2.85.1,3.45,2.3,3.45,1.35,0,1.45.05,1.45,0.65,0,0.3,0,.65-0.5.65-0.25,0-.9-0.1-4.4-0.1-4.7,0-5.5.1-6.25,0.1-0.4,0-.4-0.3-0.4-0.55,0-.65,0-0.75,1.4-0.75a1.87,1.87,0,0,0,2-1.2,50.65,50.65,0,0,0,.3-7.2V139Z"/><path class="67bc1c76-1efc-46b1-ba21-77aec4829292" d="M403.64,149.4c0,2.45-1.3,6.8-8.15,6.8-0.9,0-3.8-.4-5.75-0.4a0.32,0.32,0,0,1-.25-0.25c0-.5-1.15-4.9-1.15-5.4,0-.3.7-0.3,0.9-0.3,1.2,0,1.5,5.05,6.3,5.05a4.26,4.26,0,0,0,4.55-4.45c0-5.25-11.2-3.55-11.2-10.65,0-4.1,3.4-6.8,7.6-6.8a40,40,0,0,1,5.4.45,1.42,1.42,0,0,1,.75,1.4c0.1,2.05.55,3.35,0.55,4a0.47,0.47,0,0,1-.55.4,0.88,0.88,0,0,1-1-.7c-0.35-.85-1.65-4.25-5.2-4.25-2.35,0-4,1.35-4,3.75a3.8,3.8,0,0,0,2.35,3.35C400,143.9,403.64,143.75,403.64,149.4Z"/><path class="dde1ccc1-2be2-4fbf-93a1-99cdf40ecd84" d="M20.8,213.2c-13.45,0-18.5-10.7-18.5-17.4,0-12.05,9-19.4,18.5-19.4,10.6,0,18.55,6.35,18.55,19.15C39.35,202.5,34.3,213.2,20.8,213.2Zm0-35.5c-11.65,0-12.55,13.05-12.55,17.15,0,6.9,3.35,17.05,12.55,17.05,11.8,0,12.6-11.15,12.6-17.1C33.4,187.65,30.05,177.7,20.8,177.7Z"/><path class="dde1ccc1-2be2-4fbf-93a1-99cdf40ecd84" d="M51.25,208.35c0,1.85,0,3,2.5,3,1.85,0,2.05,0,2.05.6s-0.2.7-.75,0.7c-1.8,0-3.4-.1-5.7-0.1-4,0-4.85.1-5.3,0.1s-0.45-.3-0.45-0.65c0-.5.1-0.65,1-0.65,2.15,0,2.55-.4,2.55-2.55v-14c0-.6,0-1.6-1-1.6H43.5c-0.35,0-.6,0-0.6-0.65,0-.4.35-0.6,1.55-0.85,2-.45,2.45-0.55,2.6-2.8,0.5-7.6,2.75-11.8,8.65-13.35a15,15,0,0,1,3.05-.4c1.3,0,3.15.5,3.15,2.15a2.23,2.23,0,0,1-2.35,2.45,4.47,4.47,0,0,1-2.75-1.15,4.61,4.61,0,0,0-2.2-1.15c-2.85,0-3.35,4.15-3.35,7.25v6.45h6.2c0.35,0,.5.35,0.5,1a1.16,1.16,0,0,1-1.35,1.25c-0.35,0-4.2-.25-5.35-0.25v15.15Z"/><path class="dde1ccc1-2be2-4fbf-93a1-99cdf40ecd84" d="M67,208.35c0,1.85,0,3,2.5,3,1.1,0,1.3,0,1.3.6s-0.2.7-.75,0.7c-1.05,0-2.65-.1-5-0.1-4,0-4.85.1-5.3,0.1s-0.45-.3-0.45-0.65c0-.5.1-0.65,1-0.65,2.15,0,2.55-.4,2.55-2.55v-14c0-.6,0-1.6-1-1.6H59.25c-0.35,0-.6,0-0.6-0.65,0-.4.35-0.6,1.55-0.85,2-.45,2.45-0.55,2.6-2.8,0.5-7.35,5.8-13.75,13.85-13.75,1.3,0,4.65.5,4.65,2.7a2.4,2.4,0,0,1-2.6,2.45c-3.55,0-4.3-2.85-6.05-2.85S67,178.4,67,188.2v3h8.5c2.8,0,5.05-1.85,5.6-1.85,0.2,0,.3.25,0.3,0.55s-0.25.7-.25,7.2v10.8c0,2.85.1,3.45,2.3,3.45,1.1,0,1.2,0,1.2.65,0,0.3,0,.65-0.5.65-0.25,0-.9-0.1-4.15-0.1-4.7,0-6,.1-6.75.1-0.4,0-.4-0.3-0.4-0.55,0-.65,0-0.75,1.9-0.75a1.87,1.87,0,0,0,2.05-1.2,50.73,50.73,0,0,0,.3-7.2V196a2.81,2.81,0,0,0-2.85-3.1H67v15.4Z"/><path class="dde1ccc1-2be2-4fbf-93a1-99cdf40ecd84" d="M105.8,208.3a2.86,2.86,0,0,1,.85-0.8,1,1,0,0,1,.75.7,1.1,1.1,0,0,1-.4.75,11.27,11.27,0,0,1-8.75,4.25c-5.8,0-10.35-4.15-10.35-11.3,0-7.4,4.9-11.9,11.35-11.9,6.85,0,8.15,3.7,8.15,4.75a2.59,2.59,0,0,1-2.65,2.15c-1.6,0-1.8-.5-2.35-3.25-0.15-.75-0.5-2.35-3.1-2.35-3.15,0-7.05,2.4-7.05,10.6,0,2.25.85,8.5,8.5,8.5A9.15,9.15,0,0,0,105.8,208.3Z"/><path class="dde1ccc1-2be2-4fbf-93a1-99cdf40ecd84" d="M114.5,199a18.29,18.29,0,0,0-.2,2.85c0,3.25,2.75,8.25,8.2,8.25a6.52,6.52,0,0,0,5.85-3,1.84,1.84,0,0,1,.75-0.85,1.05,1.05,0,0,1,.8.6c0,0.15-2,6.35-8.6,6.35-7.15,0-10.9-4.4-10.9-11.4s4.85-12,10-12c8.3,0,9,7.15,9,8.65,0,0.5-.2.55-0.6,0.55H114.5Zm8.6-1.5a1.43,1.43,0,0,0,1.7-1.65c0-3.9-2.7-4.75-4.4-4.75-3.6,0-5.1,3-5.6,6.4h8.3Z"/><path class="dde1ccc1-2be2-4fbf-93a1-99cdf40ecd84" d="M157.8,213.2a11.19,11.19,0,0,1-11.6-11.6,11.63,11.63,0,0,1,23.25,0C169.45,208.6,164.8,213.2,157.8,213.2Zm0-21.9c-5.2,0-6.85,5.4-6.85,10.3,0,4.25,1,10.3,6.85,10.3s6.9-6,6.9-10.3C164.7,196.7,163,191.3,157.8,191.3Z"/><path class="dde1ccc1-2be2-4fbf-93a1-99cdf40ecd84" d="M180.85,208.35c0,1.85,0,3,2.5,3,1.85,0,2,0,2,.6s-0.2.7-.75,0.7c-1.8,0-3.4-.1-5.7-0.1-4,0-4.85.1-5.3,0.1s-0.45-.3-0.45-0.65c0-.5.1-0.65,1-0.65,2.15,0,2.55-.4,2.55-2.55v-14c0-.6,0-1.6-1-1.6H173.1c-0.35,0-.6,0-0.6-0.65,0-.4.35-0.6,1.55-0.85,2-.45,2.45-0.55,2.6-2.8,0.5-7.6,2.75-11.8,8.65-13.35a15,15,0,0,1,3-.4c1.3,0,3.15.5,3.15,2.15a2.23,2.23,0,0,1-2.35,2.45,4.47,4.47,0,0,1-2.75-1.15,4.62,4.62,0,0,0-2.2-1.15c-2.85,0-3.35,4.15-3.35,7.25v6.45H187c0.35,0,.5.35,0.5,1a1.16,1.16,0,0,1-1.35,1.25c-0.35,0-4.2-.25-5.35-0.25v15.15Z"/><path class="dde1ccc1-2be2-4fbf-93a1-99cdf40ecd84" d="M206.79,188.75c0-3.55,0-4.75-.1-7.05,0-3-.9-3.35-4.5-3.35-0.55,0-.55-0.4-0.55-0.85a0.54,0.54,0,0,1,.45-0.65c0.4,0,4,.2,7.15.2,0.45,0,4.5-.2,7.1-0.2,12,0,13.2,7.85,13.2,9.9,0,7.15-5,10.8-11.75,10.8a31.18,31.18,0,0,1-6.05-.5c0,8,0,9.35.1,10.85,0.1,2,.4,3.2,5.55,3.2,1.4,0,1.4.3,1.4,0.85s0,0.65-.4.65-1.75-.1-9.15-0.1-7.55.1-7.9,0.1-0.4-.2-0.4-0.65,0-.85,1.4-0.85c4,0,4.25-.85,4.3-2.2,0.1-2.5.15-5.75,0.15-7.9V188.75Zm5,5.4c0,1.15.3,1.9,2.85,1.9,5.45,0,9.55-3.15,9.55-8.9,0-5.15-3.3-8.8-8.2-8.8-3.8,0-4.25,0-4.2,4.15v11.65Z"/><path class="dde1ccc1-2be2-4fbf-93a1-99cdf40ecd84" d="M236.34,196c0-1.75-.45-2.75-3-3a0.47,0.47,0,0,1-.45-0.6,0.62,0.62,0,0,1,.4-0.7c5.7-1.15,6.4-2.45,7-2.45a0.59,0.59,0,0,1,.2.5c0,0.6-.25,1.85-0.25,4.55,1.65-1.85,4.35-4.35,7-4.35,1.75,0,3.2,1,3.2,2.8a2.46,2.46,0,0,1-2.45,2.5c-2,0-2.35-1.9-3.85-1.9a5.61,5.61,0,0,0-3.45,2.15,2.11,2.11,0,0,0-.35,1.45v11.35c0,1.85,0,3,2.5,3,1.85,0,2,0,2,.6s-0.2.7-.75,0.7c-1.8,0-3.4-.1-5.7-0.1-4,0-4.85.1-5.8,0.1-0.35,0-.45-0.3-0.45-0.65,0-.5.6-0.65,1.55-0.65,2.15,0,2.55-.4,2.55-2.55V196Z"/><path class="dde1ccc1-2be2-4fbf-93a1-99cdf40ecd84" d="M264.29,213.2a11.19,11.19,0,0,1-11.6-11.6,11.63,11.63,0,0,1,23.25,0C275.95,208.6,271.29,213.2,264.29,213.2Zm0-21.9c-5.2,0-6.85,5.4-6.85,10.3,0,4.25,1,10.3,6.85,10.3s6.9-6,6.9-10.3C271.19,196.7,269.54,191.3,264.29,191.3Z"/><path class="dde1ccc1-2be2-4fbf-93a1-99cdf40ecd84" d="M293.74,210.4c6.85,0,6.8,4.45,6.8,6,0,7.55-8.35,9.75-14.45,9.75-3.25,0-6.45-.85-6.45-4.7,0-3.1,2.3-5.35,4.35-7.35a3.27,3.27,0,0,1-3-3c0-3,1.6-4.3,3.85-5.85-2.9-1.5-3.9-4-3.9-7.1,0-4.7,4.35-8.2,8.85-8.2a10.51,10.51,0,0,1,6.05,2,7.26,7.26,0,0,1,4.25-1.5c3.2,0,3.75,1.75,3.75,2.8a2,2,0,0,1-1.9,1.75c-1.3,0-2.5-2.85-3.4-2.85a3.76,3.76,0,0,0-1.9.65,9.28,9.28,0,0,1,1.9,4.85c0,5.4-3.4,8.6-8.9,8.6a11.49,11.49,0,0,1-3.6-.55,3.78,3.78,0,0,0-2.05,3.2c0,1.45,1.2,1.65,2.35,1.65h7.4Zm-8,3.8c-0.3,0-3.25,2.25-3.25,5,0,0.7.2,4.6,7.2,4.6,5.7,0,8.35-1.75,8.35-5.65,0-3.05-1.85-4-5.1-4h-7.2Zm8.45-17c0-.75,0-6.05-4.2-6.05-4.65,0-4.7,5.95-4.7,7.7,0,3,1,6,4.5,6C293.89,204.8,294.19,199.35,294.19,197.2Z"/><path class="dde1ccc1-2be2-4fbf-93a1-99cdf40ecd84" d="M308.59,196c0-1.75-.45-2.75-3-3a0.47,0.47,0,0,1-.45-0.6,0.62,0.62,0,0,1,.4-0.7c5.7-1.15,6.4-2.45,7-2.45a0.59,0.59,0,0,1,.2.5c0,0.6-.25,1.85-0.25,4.55,1.65-1.85,4.35-4.35,7-4.35,1.75,0,3.2,1,3.2,2.8a2.46,2.46,0,0,1-2.45,2.5c-2,0-2.35-1.9-3.85-1.9a5.61,5.61,0,0,0-3.45,2.15,2.11,2.11,0,0,0-.35,1.45v11.35c0,1.85,0,3,2.5,3,1.85,0,2,0,2,.6s-0.2.7-.75,0.7c-1.8,0-3.4-.1-5.7-0.1-4,0-4.85.1-5.8,0.1-0.35,0-.45-0.3-0.45-0.65,0-.5.6-0.65,1.55-0.65,2.15,0,2.55-.4,2.55-2.55V196Z"/><path class="dde1ccc1-2be2-4fbf-93a1-99cdf40ecd84" d="M340.64,209.8a0.8,0.8,0,0,0,.85,1c1,0,1.75-1.15,2.15-1.15a0.83,0.83,0,0,1,.65.55c0,0.6-3.25,3-5,3s-2.2-1.15-2.75-2.9c-3,2.3-4.35,2.9-6.45,2.9-3.9,0-4.8-2.85-4.8-4.45,0-2.55,1.5-4.65,11.3-8.3V195.9c0-2.6-3-4-4.2-4s-3.55,1.8-3.55,2.3c0,0.7.65,1.4,0.65,2.5,0,0.55-.45,1.9-2.45,1.9a1.92,1.92,0,0,1-2.1-1.85c0-1.35.35-2,4.1-4.5s4.3-2.5,5.4-2.5c1.6,0,6.2,1.2,6.2,5.75V209.8Zm-4-7.4a0.46,0.46,0,0,0-.35-0.5,26,26,0,0,0-5,2.45c-1.4,1-1.65,1.8-1.65,3.65,0,1.55.65,3.1,2.35,3.1,1.9,0,4.6-1.75,4.6-2.65v-6Z"/><path class="dde1ccc1-2be2-4fbf-93a1-99cdf40ecd84" d="M349.89,196c0-1.75-.45-2.75-2.95-3a0.47,0.47,0,0,1-.45-0.6,0.62,0.62,0,0,1,.4-0.7c5.7-1.15,6.4-2.45,7-2.45,0.1,0,.15.15,0.15,0.55s-0.1,1.4-.1,3.35c1.3-1,6.05-3.2,8.8-3.2a6.1,6.1,0,0,1,5.45,3.25c2.7-1.6,4.65-3.25,7.65-3.25,1.7,0,6.6.25,6.6,6.1v13.3c0,0.85.15,1.8,3.25,1.8,0.5,0,.5.3,0.5,0.65s0,0.65-.7.65c-1.5,0-2.4-.1-5-0.1-4.05,0-4.85.1-5.25,0.1s-0.35-.35-0.35-0.6a0.64,0.64,0,0,1,.7-0.7c2.4,0,2.85-.2,2.85-1.85v-13c0-.65-0.4-4.1-5.1-4.1-2.2,0-5.1,2.2-5.1,2.75v12.8c0,2.85.1,3.45,2.3,3.45,1.35,0,1.45,0,1.45.65,0,0.3,0,.65-0.5.65-0.25,0-.9-0.1-5.25-0.1-4.05,0-4.85.1-5.25,0.1s-0.35-.35-0.35-0.6a0.64,0.64,0,0,1,.7-0.7c2.4,0,2.85-.2,2.85-2v-13c0-1.9-.4-4.1-5.1-4.1-2.2,0-5.1,2.2-5.1,2.75v12.8c0,2.85.1,3.45,2.3,3.45,1.35,0,1.45,0,1.45.65,0,0.3,0,.65-0.5.65-0.25,0-.9-0.1-4.4-0.1-4.7,0-5.5.1-6.25,0.1-0.4,0-.4-0.3-0.4-0.55,0-.65,0-0.75,1.4-0.75a1.87,1.87,0,0,0,2-1.2,50.65,50.65,0,0,0,.3-7.2V196Z"/><path class="dde1ccc1-2be2-4fbf-93a1-99cdf40ecd84" d="M403.64,206.4c0,2.45-1.3,6.8-8.15,6.8-0.9,0-3.8-.4-5.75-0.4a0.32,0.32,0,0,1-.25-0.25c0-.5-1.15-4.9-1.15-5.4,0-.3.7-0.3,0.9-0.3,1.2,0,1.5,5,6.3,5a4.26,4.26,0,0,0,4.55-4.45c0-5.25-11.2-3.55-11.2-10.65,0-4.1,3.4-6.8,7.6-6.8a40,40,0,0,1,5.4.45,1.42,1.42,0,0,1,.75,1.4c0.1,2.05.55,3.35,0.55,4a0.47,0.47,0,0,1-.55.4,0.88,0.88,0,0,1-1-.7c-0.35-.85-1.65-4.25-5.2-4.25-2.35,0-4,1.35-4,3.75a3.8,3.8,0,0,0,2.35,3.35C400,200.9,403.64,200.75,403.64,206.4Z"/></svg>